<?xml version="1.0" encoding="utf-8"?>
<!-- Generator: Adobe Illustrator 19.1.1, SVG Export Plug-In . SVG Version: 6.00 Build 0)  -->
<svg version="1.1" id="IOS_copy" xmlns="http://www.w3.org/2000/svg" xmlns:xlink="http://www.w3.org/1999/xlink" x="0px" y="0px"
	 viewBox="0 0 14 16" enable-background="new 0 0 14 16" xml:space="preserve">
<path d="M7,16c0.9,0,1.8-0.4,2.3-1.1c3.8-0.5,4.7-2,4.7-3.4c0-1-0.5-1.6-0.9-2.1C12.6,8.8,12,8,12,6c0-1.7-0.9-3.2-2.2-4.1
	C9.3,0.8,8.2,0,7,0C5.8,0,4.7,0.8,4.2,1.9C2.9,2.8,2,4.3,2,6c0,2-0.6,2.8-1.1,3.4C0.5,9.9,0,10.5,0,11.5c0,1.3,0.8,2.9,4.7,3.4
	C5.2,15.6,6.1,16,7,16z"/>
</svg>
