<?xml version="1.0" encoding="utf-8"?>
<!-- Generator: Adobe Illustrator 19.1.1, SVG Export Plug-In . SVG Version: 6.00 Build 0)  -->
<svg version="1.1" id="IOS_copy" xmlns="http://www.w3.org/2000/svg" xmlns:xlink="http://www.w3.org/1999/xlink" x="0px" y="0px"
	 viewBox="0 0 21.2 15.8" enable-background="new 0 0 21.2 15.8" xml:space="preserve">
<path d="M2.1,7.3L2.1,7.3l1.4,1.4l1.1,1.1L6,11.2l0.4,0.4l0,0L7.8,13l0.3,0.3l0,0l1.1,1.1l1.4,1.4l1.4-1.4l1.1-1.1l0,0l1.4-1.4
	l0.7-0.7l0,0l1.4-1.4l0.7-0.7l1.4-1.4l1.1-1.1l1.4-1.4l-1.4-1.4C17.3,1.4,14.1,0,10.6,0S3.9,1.4,1.4,3.8L0,5.2l1.4,1.4L2.1,7.3z"/>
</svg>
