<?xml version="1.0" encoding="utf-8"?>
<!-- Generator: Adobe Illustrator 19.1.1, SVG Export Plug-In . SVG Version: 6.00 Build 0)  -->
<svg version="1.1" id="IOS_copy" xmlns="http://www.w3.org/2000/svg" xmlns:xlink="http://www.w3.org/1999/xlink" x="0px" y="0px"
	 viewBox="0 0 16.8 16.8" enable-background="new 0 0 16.8 16.8" xml:space="preserve">
<path d="M11.9,1.4L10.5,0L9.1,1.4L8.3,2.1C7.9,2.6,7.6,3.2,7.5,3.8L7,4.2C6.7,4.1,6.5,4.1,6.2,4.1c-0.8,0-1.6,0.3-2.1,0.9L3.4,5.7
	L2,7.1l1.4,1.4L4,9.1l-3.4,3.4L0,13.2V14v0.8v2h2h0.8h0.8l0.6-0.6l3.4-3.4l0.6,0.6l1.4,1.4l1.4-1.4l0.7-0.7c0.8-0.8,1-1.9,0.8-2.9
	L13,9.3c0.6-0.1,1.2-0.4,1.7-0.8l0.7-0.7l1.4-1.4l-1.4-1.4L11.9,1.4z"/>
</svg>
