<?xml version="1.0" encoding="utf-8"?>
<!-- Generator: Adobe Illustrator 19.1.1, SVG Export Plug-In . SVG Version: 6.00 Build 0)  -->
<svg version="1.1" id="IOS_copy" xmlns="http://www.w3.org/2000/svg" xmlns:xlink="http://www.w3.org/1999/xlink" x="0px" y="0px"
	 viewBox="0 0 16 16" enable-background="new 0 0 16 16" xml:space="preserve">
<path d="M6.5,13c0.7,0,1.3-0.1,2-0.3c0.1,0.2,0.2,0.3,0.4,0.4l2.1,2.1c0.5,0.5,1.2,0.8,2,0.8c0.7,0,1.4-0.3,2-0.8l0.4-0.4
	c1.1-1.1,1.1-2.9,0-3.9l-2.1-2.1c-0.1-0.1-0.3-0.3-0.4-0.4c0.2-0.6,0.3-1.3,0.3-2C13,2.9,10.1,0,6.5,0S0,2.9,0,6.5S2.9,13,6.5,13z"
	/>
</svg>
