<?xml version="1.0" encoding="utf-8"?>
<!-- Generator: Adobe Illustrator 19.1.1, SVG Export Plug-In . SVG Version: 6.00 Build 0)  -->
<svg version="1.1" id="IOS_copy" xmlns="http://www.w3.org/2000/svg" xmlns:xlink="http://www.w3.org/1999/xlink" x="0px" y="0px"
	 viewBox="0 0 15.2 16" enable-background="new 0 0 15.2 16" xml:space="preserve">
<path d="M0.1,9.3C-0.2,10.2,0.2,11,0.7,12c0.5,0.9,1.1,2,2.4,2h0.7l0.3-0.2c0,0,0,0,0,0c0.1,0.1,0.2,0.1,0.4,0.2c0,0,0,0,0,0.1
	l-0.1,0.6L5,15.2C5.6,15.9,6.5,16,7.6,16s2-0.1,2.6-0.8l0.6-0.7L10.7,14c0,0,0,0,0,0c0.1-0.1,0.2-0.1,0.3-0.2l0.3,0.2l0.7,0
	c1.3,0,1.9-1,2.4-1.9c0.5-0.8,1-1.7,0.7-2.7l-0.3-0.9l-0.5-0.2c0-0.1,0-0.3,0-0.4c0-0.1,0-0.2,0-0.3l0.5-0.2l0.3-0.8
	C15.4,5.8,15,5,14.5,4c-0.5-0.9-1.1-2-2.4-2h-0.7l-0.3,0.2c0,0,0,0,0,0c-0.1-0.1-0.2-0.1-0.4-0.2c0,0,0,0,0-0.1l0.1-0.6l-0.6-0.7
	C9.6,0.1,8.8,0,7.6,0C6.5,0,5.7,0.1,5,0.8L4.4,1.4L4.5,2c0,0,0,0,0,0C4.4,2.1,4.3,2.1,4.2,2.2L3.9,2L3.2,2c0,0,0,0,0,0
	C2,2,1.4,3,0.8,3.9c-0.6,1-1,1.7-0.7,2.6l0.3,0.9l0.5,0.2c0,0.1,0,0.3,0,0.4c0,0.1,0,0.2,0,0.2L0.4,8.5L0.1,9.3z M12.1,4.1
	C12.1,4.1,12.1,4.1,12.1,4.1C12.1,4.1,12.1,4.1,12.1,4.1C12.1,4.1,12.1,4.1,12.1,4.1z M12,12C12,12,12,12,12,12C12,12,12,12,12,12
	C12,12,12,12,12,12z M3.2,4C3.2,4,3.2,4,3.2,4C3.2,4,3.2,4,3.2,4C3.2,4,3.2,4,3.2,4z M3.1,11.9C3.1,11.9,3.1,11.9,3.1,11.9
	C3.1,11.9,3.1,11.9,3.1,11.9C3.1,11.9,3.1,11.9,3.1,11.9z"/>
</svg>
