<?xml version="1.0" encoding="utf-8"?>
<!-- Generator: Adobe Illustrator 19.1.1, SVG Export Plug-In . SVG Version: 6.00 Build 0)  -->
<svg version="1.1" id="IOS_copy" xmlns="http://www.w3.org/2000/svg" xmlns:xlink="http://www.w3.org/1999/xlink" x="0px" y="0px"
	 viewBox="0 0 16 16" enable-background="new 0 0 16 16" xml:space="preserve">
<path d="M12.6,6.5c-0.1,0-0.2,0-0.3,0c-0.1-0.3-0.1-0.7-0.2-1L12,4.1l-1.4-0.3c-0.3-0.1-0.7-0.1-1-0.2c0-0.1,0-0.1,0-0.2
	C9.5,1.5,8,0,6.2,0C4.3,0,2.8,1.5,2.8,3.4c0,0.1,0,0.1,0,0.2C2.2,3.7,1.6,3.8,1.6,3.8L0,4.1v1.7v3.1v0.2l0.1,0.2c0,0.1,0,0.1,0,0.1
	c0,0.1,0.1,0.2,0.1,0.3C0.1,10,0.1,10.2,0,10.4l0,0l0,0l0,0.1l0,0.2v0.2V14v2h2h8.2h1.7l0.3-1.7c0,0,0.1-0.5,0.2-1.1
	c0.1,0,0.2,0,0.2,0c1.9,0,3.4-1.5,3.4-3.4S14.5,6.5,12.6,6.5z"/>
</svg>
