<?xml version="1.0" encoding="utf-8"?>
<!-- Generator: Adobe Illustrator 19.1.1, SVG Export Plug-In . SVG Version: 6.00 Build 0)  -->
<svg version="1.1" id="IOS_copy" xmlns="http://www.w3.org/2000/svg" xmlns:xlink="http://www.w3.org/1999/xlink" x="0px" y="0px"
	 viewBox="0 0 16 16" enable-background="new 0 0 16 16" xml:space="preserve">
<path d="M12.3,5.3c-0.6-0.6-1.3-1-2.1-1.3l0.4-0.4L8.4,1.5L8.4,1.4L8.3,1.4C7.2,0.5,6.1,0,4.9,0C3.7,0,2.5,0.4,1.5,1.3L1.4,1.4
	L1.3,1.5C0.4,2.5,0,3.7,0,4.8c0,1.4,0.5,2.7,1.5,3.6l2.3,2.3c0.6,0.6,1.2,1,2,1.2l-0.4,0.4l2.2,2.2l0.1,0.1l0.1,0.1
	c1.1,0.9,2.2,1.4,3.4,1.4c1.4,0,2.6-0.5,3.5-1.4c0.9-0.9,1.4-2.1,1.4-3.4c0-1.4-0.5-2.7-1.5-3.6L12.3,5.3z"/>
</svg>
