<?xml version="1.0" encoding="utf-8"?>
<!-- Generator: Adobe Illustrator 19.1.1, SVG Export Plug-In . SVG Version: 6.00 Build 0)  -->
<svg version="1.1" id="IOS_copy" xmlns="http://www.w3.org/2000/svg" xmlns:xlink="http://www.w3.org/1999/xlink" x="0px" y="0px"
	 viewBox="0 0 18.7 16" enable-background="new 0 0 18.7 16" xml:space="preserve">
<path d="M18.7,1H14h-2.1H11l-0.6,0.6L8.8,3.3C8.3,1.4,6.5,0,4.5,0C2,0,0,2,0,4.5C0,5.9,0.7,7.2,1.7,8C0.7,8.8,0,10.1,0,11.5
	C0,14,2,16,4.5,16c2,0,3.7-1.3,4.3-3.2l1.5,1.6l0.6,0.6h0.8H14h4.7l-3.2-3.4L12,8l3.5-3.6L18.7,1z"/>
</svg>
