<?xml version="1.0" encoding="utf-8"?>
<!-- Generator: Adobe Illustrator 19.1.1, SVG Export Plug-In . SVG Version: 6.00 Build 0)  -->
<svg version="1.1" id="IOS_copy" xmlns="http://www.w3.org/2000/svg" xmlns:xlink="http://www.w3.org/1999/xlink" x="0px" y="0px"
	 viewBox="0 0 16 16" enable-background="new 0 0 16 16" xml:space="preserve">
<path d="M1.6,8.8c1,1,2.1,1.2,2.8,1.2c0.4,0,0.7,0,1.1-0.1c1.5,1.6,3.6,3.9,4.4,4.7c0.2,0.3,0.4,0.4,0.4,0.4c0.6,0.6,1.5,1,2.4,1
	c0.9,0,1.7-0.3,2.4-1c0.6-0.6,1-1.5,1-2.4c0-0.9-0.4-1.7-1-2.4c0,0-0.2-0.1-0.4-0.4C13.7,9.1,11.4,7,9.8,5.5c0.4-1.4,0-2.8-1.1-3.9
	c-1-1-2.5-1.6-4-1.6C4.3,0,3.9,0.1,3.5,0.2C1.9,0.5,0.7,1.7,0.2,3.5C-0.3,5.3,0.3,7.4,1.6,8.8z M4.5,8C4.5,8,4.5,8,4.5,8
	C4.4,8,4.4,8,4.4,8C4.4,8,4.4,8,4.5,8z"/>
</svg>
