<?xml version="1.0" encoding="iso-8859-1"?>
<!-- Generator: Adobe Illustrator 22.1.0, SVG Export Plug-In . SVG Version: 6.00 Build 0)  -->
<svg version="1.1" id="Layer_1" xmlns="http://www.w3.org/2000/svg" xmlns:xlink="http://www.w3.org/1999/xlink" x="0px" y="0px"
	 viewBox="0 0 31 31" style="enable-background:new 0 0 31 31;" xml:space="preserve">
<circle style="fill:#FDFCEF;" cx="15.5" cy="15.5" r="15"/>
<path style="fill:#472B29;" d="M15.5,1.4c7.775,0,14.1,6.325,14.1,14.1s-6.325,14.1-14.1,14.1S1.4,23.275,1.4,15.5
	S7.725,1.4,15.5,1.4 M15.5,0C6.94,0,0,6.94,0,15.5S6.94,31,15.5,31S31,24.06,31,15.5S24.06,0,15.5,0L15.5,0z"/>
<circle style="fill:#93BC39;" cx="15.499" cy="15.5" r="12.25"/>
<path style="fill:#B7CC6B;" d="M15.5,3.25C8.745,3.25,3.25,8.745,3.25,15.5c0,0.153,0.017,0.301,0.023,0.453
	C4.45,10.273,9.47,6,15.5,6c6.031,0,11.052,4.275,12.227,9.958c0.006-0.153,0.023-0.303,0.023-0.458
	C27.75,8.745,22.254,3.25,15.5,3.25z"/>
<path style="fill:#472B29;" d="M15.499,3.5c6.617,0,12.001,5.383,12.001,12s-5.383,12-12.001,12C8.883,27.5,3.5,22.117,3.5,15.5
	S8.883,3.5,15.499,3.5 M15.499,3C8.607,3,3,8.608,3,15.5S8.607,28,15.499,28C22.393,28,28,22.392,28,15.5S22.393,3,15.499,3
	L15.499,3z"/>
<path style="fill:#FDFCEE;" d="M20.5,14.5h-4v-4c0-0.551-0.449-1-1-1s-1,0.449-1,1v4h-4c-0.551,0-1,0.449-1,1c0,0.551,0.449,1,1,1h4
	v4c0,0.551,0.449,1,1,1c0.551,0,1-0.449,1-1v-4h4c0.551,0,1-0.449,1-1S21.051,14.5,20.5,14.5z"/>
<path style="fill:#472B29;" d="M15.5,9.75c0.414,0,0.75,0.336,0.75,0.75v4.25h4.25c0.414,0,0.75,0.336,0.75,0.75
	s-0.336,0.75-0.75,0.75h-4.25v4.25c0,0.414-0.336,0.75-0.75,0.75s-0.75-0.336-0.75-0.75v-4.25H10.5c-0.414,0-0.75-0.336-0.75-0.75
	s0.336-0.75,0.75-0.75h4.25V10.5C14.75,10.086,15.086,9.75,15.5,9.75 M15.5,9C14.673,9,14,9.673,14,10.5V14h-3.5
	C9.673,14,9,14.673,9,15.5S9.673,17,10.5,17H14v3.5c0,0.827,0.673,1.5,1.5,1.5s1.5-0.673,1.5-1.5V17h3.5c0.827,0,1.5-0.673,1.5-1.5
	S21.327,14,20.5,14H17v-3.5C17,9.673,16.327,9,15.5,9L15.5,9z"/>
</svg>
