<?xml version="1.0" encoding="iso-8859-1"?>
<!-- Generator: Adobe Illustrator 22.1.0, SVG Export Plug-In . SVG Version: 6.00 Build 0)  -->
<svg version="1.1" id="Layer_1" xmlns="http://www.w3.org/2000/svg" xmlns:xlink="http://www.w3.org/1999/xlink" x="0px" y="0px"
	 viewBox="0 0 31 31" style="enable-background:new 0 0 31 31;" xml:space="preserve">
<circle style="fill:#FDFCEF;" cx="15.5" cy="15.5" r="15"/>
<path style="fill:#472B29;" d="M15.5,1.4c7.775,0,14.1,6.325,14.1,14.1s-6.325,14.1-14.1,14.1S1.4,23.275,1.4,15.5
	S7.725,1.4,15.5,1.4 M15.5,0C6.94,0,0,6.94,0,15.5S6.94,31,15.5,31S31,24.06,31,15.5S24.06,0,15.5,0L15.5,0z"/>
<circle style="fill:#EE3E54;" cx="15.499" cy="15.5" r="12.25"/>
<path style="fill:#F3858F;" d="M15.5,3.25C8.745,3.25,3.25,8.745,3.25,15.5c0,0.153,0.017,0.301,0.023,0.453
	C4.45,10.273,9.47,6,15.5,6c6.031,0,11.052,4.275,12.227,9.958c0.006-0.153,0.023-0.303,0.023-0.458
	C27.75,8.745,22.254,3.25,15.5,3.25z"/>
<path style="fill:#472B29;" d="M15.499,3.5c6.617,0,12.001,5.383,12.001,12s-5.383,12-12.001,12C8.883,27.5,3.5,22.117,3.5,15.5
	S8.883,3.5,15.499,3.5 M15.499,3C8.607,3,3,8.608,3,15.5S8.607,28,15.499,28C22.393,28,28,22.392,28,15.5S22.393,3,15.499,3
	L15.499,3z"/>
<path style="fill:#FDFCEE;" d="M20.626,19.502c0-0.301-0.117-0.583-0.329-0.795L17.091,15.5l3.205-3.205
	c0.212-0.212,0.329-0.494,0.329-0.795s-0.117-0.583-0.329-0.795c-0.438-0.438-1.152-0.438-1.591,0L15.5,13.91l-3.205-3.205
	c-0.438-0.438-1.152-0.438-1.591,0c-0.212,0.212-0.329,0.495-0.329,0.795c0,0.301,0.117,0.583,0.329,0.795l3.205,3.205l-3.205,3.205
	c-0.212,0.212-0.329,0.495-0.329,0.795c0,0.301,0.117,0.583,0.329,0.795c0.438,0.438,1.152,0.438,1.591,0l3.205-3.204l3.207,3.206
	c0.424,0.423,1.167,0.424,1.591,0C20.509,20.086,20.626,19.803,20.626,19.502z"/>
<path style="fill:#472B29;" d="M19.5,10.751c0.201,0,0.389,0.078,0.53,0.219s0.219,0.33,0.219,0.53c0,0.201-0.078,0.389-0.219,0.53
	l-3.47,3.47l3.471,3.472c0.141,0.141,0.219,0.33,0.219,0.53c0,0.201-0.078,0.389-0.219,0.53s-0.33,0.219-0.53,0.219
	c-0.201,0-0.389-0.078-0.53-0.219L15.5,16.561l-3.47,3.47c-0.141,0.141-0.33,0.219-0.53,0.219c-0.201,0-0.389-0.078-0.53-0.219
	s-0.219-0.33-0.219-0.53c0-0.201,0.078-0.389,0.219-0.53l3.47-3.47l-3.47-3.47c-0.141-0.141-0.219-0.33-0.219-0.53
	c0-0.201,0.078-0.389,0.219-0.53s0.33-0.219,0.53-0.219s0.389,0.078,0.53,0.219l3.47,3.47l3.47-3.47
	C19.111,10.829,19.299,10.751,19.5,10.751 M19.5,10.001c-0.384,0-0.768,0.146-1.061,0.439L15.5,13.379l-2.939-2.939
	c-0.292-0.292-0.677-0.439-1.061-0.439s-0.768,0.146-1.061,0.439c-0.585,0.585-0.585,1.536,0,2.121l2.939,2.939l-2.939,2.939
	c-0.585,0.585-0.585,1.536,0,2.121C10.732,20.854,11.116,21,11.5,21s0.768-0.146,1.061-0.439l2.939-2.939l2.941,2.941
	c0.292,0.292,0.677,0.439,1.061,0.439s0.768-0.146,1.061-0.439c0.585-0.585,0.585-1.536,0-2.121l-2.941-2.941l2.939-2.939
	c0.585-0.585,0.585-1.536,0-2.121C20.268,10.147,19.884,10.001,19.5,10.001L19.5,10.001z"/>
</svg>
