<?xml version="1.0" encoding="iso-8859-1"?>
<!-- Generator: Adobe Illustrator 22.1.0, SVG Export Plug-In . SVG Version: 6.00 Build 0)  -->
<svg version="1.1" id="Layer_1" xmlns="http://www.w3.org/2000/svg" xmlns:xlink="http://www.w3.org/1999/xlink" x="0px" y="0px"
	 viewBox="0 0 31 31" style="enable-background:new 0 0 31 31;" xml:space="preserve">
<circle style="fill:#FDFCEF;" cx="15.5" cy="15.5" r="15"/>
<path style="fill:#472B29;" d="M15.5,1.4c7.775,0,14.1,6.325,14.1,14.1s-6.325,14.1-14.1,14.1S1.4,23.275,1.4,15.5
	S7.725,1.4,15.5,1.4 M15.5,0C6.94,0,0,6.94,0,15.5S6.94,31,15.5,31S31,24.06,31,15.5S24.06,0,15.5,0L15.5,0z"/>
<circle style="fill:#78A0CF;" cx="15.499" cy="15.5" r="12.25"/>
<path style="fill:#A0C4E9;" d="M15.5,3.25C8.745,3.25,3.25,8.745,3.25,15.5c0,0.153,0.017,0.301,0.023,0.453
	C4.45,10.273,9.47,6,15.5,6c6.031,0,11.052,4.275,12.227,9.958c0.006-0.153,0.023-0.303,0.023-0.458
	C27.75,8.745,22.254,3.25,15.5,3.25z"/>
<path style="fill:#472B29;" d="M15.499,3.5c6.617,0,12.001,5.383,12.001,12s-5.383,12-12.001,12C8.883,27.5,3.5,22.117,3.5,15.5
	S8.883,3.5,15.499,3.5 M15.499,3C8.607,3,3,8.608,3,15.5S8.607,28,15.499,28C22.393,28,28,22.392,28,15.5S22.393,3,15.499,3
	L15.499,3z"/>
<polygon style="fill:#FDFCEF;" points="12.383,20.692 9.447,21.534 10.309,18.618 "/>
<path style="fill:#FBB821;" d="M10.309,18.618l9.204-9.205c0,0,0.767-0.248,1.545,0.53s0.53,1.544,0.53,1.544l-9.204,9.205
	L10.309,18.618z"/>
<path style="fill:#F48E8F;" d="M18.451,10.474l1.061-1.061c0,0,0.767-0.248,1.545,0.53s0.53,1.544,0.53,1.544l-1.08,1.08
	L18.451,10.474z"/>
<path style="fill:#472B29;" d="M21.323,9.677L21.323,9.677c-0.93-0.929-1.886-0.634-1.926-0.622c-0.057,0.019-0.108,0.05-0.15,0.092
	l-9.161,9.162c-0.068,0.069-0.121,0.154-0.151,0.242l-0.898,2.583c-0.082,0.237-0.022,0.495,0.156,0.673
	C9.317,21.933,9.482,22,9.651,22c0.071,0,0.144-0.012,0.214-0.037l2.641-0.917c0.054-0.019,0.103-0.049,0.143-0.089l9.205-9.205
	c0.042-0.042,0.073-0.093,0.091-0.15C21.958,11.562,22.252,10.606,21.323,9.677z M10.979,18.478l7.52-7.521l1.544,1.544l-7.52,7.52
	L10.979,18.478z M10.531,19.091l1.371,1.371l-1.488,0.517l-0.395-0.395L10.531,19.091z M21.244,11.3l-0.671,0.671l-1.544-1.544
	l0.67-0.67c0.171-0.023,0.621-0.021,1.093,0.451C21.266,10.682,21.266,11.13,21.244,11.3z"/>
</svg>
