<?xml version="1.0" encoding="iso-8859-1"?>
<!-- Generator: Adobe Illustrator 22.1.0, SVG Export Plug-In . SVG Version: 6.00 Build 0)  -->
<svg version="1.1" id="Layer_1" xmlns="http://www.w3.org/2000/svg" xmlns:xlink="http://www.w3.org/1999/xlink" x="0px" y="0px"
	 viewBox="0 0 31 31" style="enable-background:new 0 0 31 31;" xml:space="preserve">
<circle style="fill:#FDFCEF;" cx="15.5" cy="15.5" r="15"/>
<path style="fill:#472B29;" d="M15.5,1.4c7.775,0,14.1,6.325,14.1,14.1s-6.325,14.1-14.1,14.1S1.4,23.275,1.4,15.5
	S7.725,1.4,15.5,1.4 M15.5,0C6.94,0,0,6.94,0,15.5S6.94,31,15.5,31S31,24.06,31,15.5S24.06,0,15.5,0L15.5,0z"/>
<circle style="fill:#EE3E54;" cx="15.499" cy="15.5" r="12.25"/>
<path style="fill:#F3858F;" d="M15.5,3.25C8.745,3.25,3.25,8.745,3.25,15.5c0,0.153,0.017,0.301,0.023,0.453
	C4.45,10.273,9.47,6,15.5,6c6.031,0,11.052,4.275,12.227,9.958c0.006-0.153,0.023-0.303,0.023-0.458
	C27.75,8.745,22.254,3.25,15.5,3.25z"/>
<path style="fill:#472B29;" d="M15.499,3.5c6.617,0,12.001,5.383,12.001,12s-5.383,12-12.001,12C8.883,27.5,3.5,22.117,3.5,15.5
	S8.883,3.5,15.499,3.5 M15.499,3C8.607,3,3,8.608,3,15.5S8.607,28,15.499,28C22.393,28,28,22.392,28,15.5S22.393,3,15.499,3
	L15.499,3z"/>
<polygon style="fill:#F1BC19;" points="15.5,8.375 17.624,12.751 22.375,13.446 18.937,16.819 19.625,21.625 15.5,19.334 
	11.375,21.625 12.062,16.819 8.625,13.446 13.376,12.751 "/>
<path style="fill:#472B29;" d="M19.625,22c-0.063,0-0.125-0.016-0.182-0.047l-3.943-2.19l-3.943,2.19
	c-0.125,0.069-0.275,0.062-0.395-0.019c-0.117-0.081-0.179-0.221-0.158-0.362l0.66-4.618l-3.302-3.24
	c-0.102-0.1-0.138-0.249-0.094-0.384c0.044-0.136,0.161-0.234,0.302-0.255l4.555-0.667l2.038-4.197c0.125-0.259,0.549-0.259,0.674,0
	l2.038,4.197l4.555,0.667c0.141,0.021,0.258,0.119,0.302,0.255c0.044,0.135,0.008,0.284-0.094,0.384l-3.302,3.24l0.66,4.618
	c0.021,0.141-0.041,0.281-0.158,0.362C19.773,21.978,19.699,22,19.625,22z M15.5,18.958c0.063,0,0.125,0.016,0.182,0.047
	l3.465,1.924l-0.58-4.058c-0.017-0.118,0.023-0.237,0.108-0.321l2.898-2.844l-4.004-0.586c-0.122-0.018-0.229-0.096-0.282-0.208
	L15.5,9.234l-1.787,3.681c-0.054,0.112-0.16,0.189-0.282,0.208l-4.004,0.586l2.898,2.844c0.085,0.083,0.125,0.203,0.108,0.321
	l-0.58,4.058l3.465-1.924C15.375,18.974,15.438,18.958,15.5,18.958z"/>
</svg>
