<?xml version="1.0" encoding="iso-8859-1"?>
<!-- Generator: Adobe Illustrator 22.1.0, SVG Export Plug-In . SVG Version: 6.00 Build 0)  -->
<svg version="1.1" id="Layer_1" xmlns="http://www.w3.org/2000/svg" xmlns:xlink="http://www.w3.org/1999/xlink" x="0px" y="0px"
	 viewBox="0 0 31 31" style="enable-background:new 0 0 31 31;" xml:space="preserve">
<circle style="fill:#FDFCEF;" cx="15.5" cy="15.5" r="15"/>
<path style="fill:#472B29;" d="M15.5,1.4c7.775,0,14.1,6.325,14.1,14.1s-6.325,14.1-14.1,14.1S1.4,23.275,1.4,15.5
	S7.725,1.4,15.5,1.4 M15.5,0C6.94,0,0,6.94,0,15.5S6.94,31,15.5,31S31,24.06,31,15.5S24.06,0,15.5,0L15.5,0z"/>
<circle style="fill:#EE3E54;" cx="15.499" cy="15.5" r="12.25"/>
<path style="fill:#F3858F;" d="M15.5,3.25C8.745,3.25,3.25,8.745,3.25,15.5c0,0.153,0.017,0.301,0.023,0.453
	C4.45,10.273,9.47,6,15.5,6c6.031,0,11.052,4.275,12.227,9.958c0.006-0.153,0.023-0.303,0.023-0.458
	C27.75,8.745,22.254,3.25,15.5,3.25z"/>
<path style="fill:#472B29;" d="M15.499,3.5c6.617,0,12.001,5.383,12.001,12s-5.383,12-12.001,12C8.883,27.5,3.5,22.117,3.5,15.5
	S8.883,3.5,15.499,3.5 M15.499,3C8.607,3,3,8.608,3,15.5S8.607,28,15.499,28C22.393,28,28,22.392,28,15.5S22.393,3,15.499,3
	L15.499,3z"/>
<path style="fill:#F9ACB4;" d="M15.5,11.781c0.62-0.842,1.628-1.411,2.751-1.406c1.871,0.009,3.382,1.539,3.374,3.419
	c-0.019,4.47-5.88,7.711-6.125,7.831c-0.245-0.12-6.106-3.361-6.125-7.831c-0.008-1.879,1.503-3.41,3.374-3.419
	C13.872,10.37,14.88,10.939,15.5,11.781z"/>
<path style="fill:#472B29;" d="M15.5,22c-0.057,0-0.113-0.013-0.165-0.038C15.271,21.931,9.02,18.57,9,13.795
	C8.991,11.712,10.672,10.01,12.747,10c0.006,0,0.012,0,0.018,0c1.029,0,2.021,0.44,2.735,1.197C16.215,10.44,17.207,10,18.235,10
	c0.006,0,0.012,0,0.018,0c2.075,0.01,3.756,1.712,3.747,3.795c-0.02,4.774-6.271,8.135-6.335,8.167C15.613,21.987,15.557,22,15.5,22
	z M12.765,10.75c-0.005,0-0.009,0-0.014,0c-1.662,0.008-3.008,1.373-3.001,3.042c0.017,3.91,4.794,6.855,5.75,7.404
	c0.956-0.548,5.733-3.494,5.75-7.404c0.007-1.67-1.339-3.035-3.001-3.042c-0.004,0-0.009,0-0.014,0
	c-0.945,0-1.854,0.468-2.434,1.253c-0.141,0.192-0.463,0.192-0.604,0C14.619,11.218,13.71,10.75,12.765,10.75z"/>
</svg>
