<?xml version="1.0" encoding="iso-8859-1"?>
<!-- Generator: Adobe Illustrator 22.1.0, SVG Export Plug-In . SVG Version: 6.00 Build 0)  -->
<svg version="1.1" id="Layer_1" xmlns="http://www.w3.org/2000/svg" xmlns:xlink="http://www.w3.org/1999/xlink" x="0px" y="0px"
	 viewBox="0 0 31 31" style="enable-background:new 0 0 31 31;" xml:space="preserve">
<circle style="fill:#FDFCEF;" cx="15.5" cy="15.5" r="15"/>
<path style="fill:#472B29;" d="M15.5,1.4c7.775,0,14.1,6.325,14.1,14.1s-6.325,14.1-14.1,14.1S1.4,23.275,1.4,15.5
	S7.725,1.4,15.5,1.4 M15.5,0C6.94,0,0,6.94,0,15.5S6.94,31,15.5,31S31,24.06,31,15.5S24.06,0,15.5,0L15.5,0z"/>
<circle style="fill:#A2B3CB;" cx="15.5" cy="15.5" r="12.25"/>
<path style="fill:#BDC4D6;" d="M15.5,3.25C8.745,3.25,3.25,8.745,3.25,15.5c0,0.153,0.017,0.301,0.023,0.453
	C4.45,10.273,9.47,6,15.5,6c6.031,0,11.052,4.275,12.227,9.958c0.006-0.153,0.023-0.303,0.023-0.458
	C27.75,8.745,22.254,3.25,15.5,3.25z"/>
<path style="fill:#472B29;" d="M15.499,3.5c6.617,0,12.001,5.383,12.001,12s-5.383,12-12.001,12C8.883,27.5,3.5,22.117,3.5,15.5
	S8.883,3.5,15.499,3.5 M15.499,3C8.607,3,3,8.608,3,15.5S8.607,28,15.499,28C22.393,28,28,22.392,28,15.5S22.393,3,15.499,3
	L15.499,3z"/>
<path style="fill:#EE3E54;" d="M18,9.375c-2.002,0-3.625,1.623-3.625,3.625s1.623,3.625,3.625,3.625s3.625-1.623,3.625-3.625
	S20.002,9.375,18,9.375z"/>
<polygon style="fill:#F1BC19;" points="13.5,18.25 14.372,18.251 14.374,18.251 16.25,16.375 14.625,14.75 9.25,20.125 9.25,21.75 
	10.875,21.75 10.875,20.875 11.75,20.875 11.75,20 12.622,20.001 12.625,19.125 13.5,19.125 "/>
<path style="fill:#472B29;" d="M18,9c-2.206,0-4,1.794-4,4c0,0.591,0.137,1.148,0.368,1.654l-5.295,5.295
	C9.026,19.995,9,20.059,9,20.125v1.625C9,21.888,9.112,22,9.25,22h1.625c0.138,0,0.25-0.112,0.25-0.25v-0.625h0.625
	c0.138,0,0.25-0.112,0.25-0.25V20.25l0.622,0.001c0.138,0,0.25-0.111,0.25-0.249l0.002-0.627H13.5c0.138,0,0.25-0.112,0.25-0.25
	V18.5l0.623,0.001c0.066,0,0.13-0.026,0.177-0.073l1.797-1.796C16.852,16.863,17.409,17,18,17c2.206,0,4-1.794,4-4S20.206,9,18,9z
	 M14.269,18.001L13.5,18c-0.066,0-0.13,0.026-0.177,0.073s-0.073,0.11-0.073,0.177v0.625h-0.625c-0.138,0-0.25,0.111-0.25,0.249
	l-0.002,0.627L11.75,19.75c-0.066,0-0.13,0.026-0.177,0.073S11.5,19.934,11.5,20v0.625h-0.625c-0.138,0-0.25,0.112-0.25,0.25V21.5
	H9.5v-1.271l5.117-5.117c0.323,0.515,0.756,0.949,1.271,1.271L14.269,18.001z M18,16.25c-1.792,0-3.25-1.458-3.25-3.25
	S16.208,9.75,18,9.75s3.25,1.458,3.25,3.25S19.792,16.25,18,16.25z M20,12c0,0.552-0.448,1-1,1s-1-0.448-1-1s0.448-1,1-1
	S20,11.448,20,12z"/>
</svg>
