<?xml version="1.0" encoding="iso-8859-1"?>
<!-- Generator: Adobe Illustrator 22.1.0, SVG Export Plug-In . SVG Version: 6.00 Build 0)  -->
<svg version="1.1" id="Layer_1" xmlns="http://www.w3.org/2000/svg" xmlns:xlink="http://www.w3.org/1999/xlink" x="0px" y="0px"
	 viewBox="0 0 31 31" style="enable-background:new 0 0 31 31;" xml:space="preserve">
<circle style="fill:#FDFCEF;" cx="15.5" cy="15.5" r="15"/>
<path style="fill:#472B29;" d="M15.5,1.4c7.775,0,14.1,6.325,14.1,14.1s-6.325,14.1-14.1,14.1S1.4,23.275,1.4,15.5
	S7.725,1.4,15.5,1.4 M15.5,0C6.94,0,0,6.94,0,15.5S6.94,31,15.5,31S31,24.06,31,15.5S24.06,0,15.5,0L15.5,0z"/>
<circle style="fill:#78A0CF;" cx="15.499" cy="15.5" r="12.25"/>
<path style="fill:#A0C4E9;" d="M15.5,3.25C8.745,3.25,3.25,8.745,3.25,15.5c0,0.153,0.017,0.301,0.023,0.453
	C4.45,10.273,9.47,6,15.5,6c6.031,0,11.052,4.275,12.227,9.958c0.006-0.153,0.023-0.303,0.023-0.458
	C27.75,8.745,22.254,3.25,15.5,3.25z"/>
<path style="fill:#472B29;" d="M15.499,3.5c6.617,0,12.001,5.383,12.001,12s-5.383,12-12.001,12C8.883,27.5,3.5,22.117,3.5,15.5
	S8.883,3.5,15.499,3.5 M15.499,3C8.607,3,3,8.608,3,15.5S8.607,28,15.499,28C22.393,28,28,22.392,28,15.5S22.393,3,15.499,3
	L15.499,3z"/>
<path style="fill:#472B29;" d="M21.176,9.824c-1.063-1.064-2.916-1.063-3.978,0l-1.374,1.374C15.292,11.729,15,12.436,15,13.187
	c0,0.581,0.179,1.133,0.505,1.601l-0.721,0.721c-1.083-0.73-2.644-0.627-3.587,0.316l-1.374,1.374C9.292,17.729,9,18.436,9,19.187
	s0.292,1.458,0.824,1.989C10.355,21.708,11.062,22,11.813,22c0.751,0,1.458-0.292,1.989-0.824l1.374-1.374
	C15.708,19.271,16,18.564,16,17.813c0-0.581-0.179-1.133-0.505-1.601l0.717-0.717C16.68,15.821,17.232,16,17.813,16
	c0.751,0,1.458-0.292,1.989-0.824l1.374-1.374C21.708,13.271,22,12.564,22,11.813C22,11.062,21.708,10.355,21.176,9.824z M15,17.813
	c0,0.484-0.188,0.939-0.531,1.282l-1.374,1.374c-0.685,0.686-1.877,0.687-2.564,0C10.188,20.126,10,19.671,10,19.187
	s0.188-0.939,0.531-1.282l1.374-1.374C12.248,16.188,12.703,16,13.187,16c0.312,0,0.607,0.086,0.873,0.233l-0.713,0.713
	c-0.195,0.195-0.195,0.512,0,0.707c0.098,0.098,0.226,0.146,0.354,0.146s0.256-0.049,0.354-0.146l0.713-0.713
	C14.914,17.206,15,17.501,15,17.813z M20.469,13.095l-1.374,1.374c-0.563,0.564-1.465,0.656-2.151,0.294l0.709-0.709
	c0.195-0.195,0.195-0.512,0-0.707s-0.512-0.195-0.707,0l-0.713,0.713C16.086,13.794,16,13.499,16,13.187
	c0-0.484,0.188-0.939,0.531-1.282l1.374-1.374C18.248,10.188,18.703,10,19.187,10c0.484,0,0.939,0.188,1.282,0.531
	S21,11.329,21,11.813C21,12.297,20.812,12.752,20.469,13.095z"/>
</svg>
