<?xml version="1.0" encoding="iso-8859-1"?>
<!-- Generator: Adobe Illustrator 22.1.0, SVG Export Plug-In . SVG Version: 6.00 Build 0)  -->
<svg version="1.1" id="Layer_1" xmlns="http://www.w3.org/2000/svg" xmlns:xlink="http://www.w3.org/1999/xlink" x="0px" y="0px"
	 viewBox="0 0 31 31" style="enable-background:new 0 0 31 31;" xml:space="preserve">
<circle style="fill:#FDFCEF;" cx="15.5" cy="15.5" r="15"/>
<path style="fill:#472B29;" d="M15.5,1.4c7.775,0,14.1,6.325,14.1,14.1s-6.325,14.1-14.1,14.1S1.4,23.275,1.4,15.5
	S7.725,1.4,15.5,1.4 M15.5,0C6.94,0,0,6.94,0,15.5S6.94,31,15.5,31S31,24.06,31,15.5S24.06,0,15.5,0L15.5,0z"/>
<circle style="fill:#42B7BA;" cx="15.499" cy="15.5" r="12.25"/>
<path style="fill:#5EC3C9;" d="M15.5,3.25C8.745,3.25,3.25,8.745,3.25,15.5c0,0.153,0.017,0.301,0.023,0.453
	C4.45,10.273,9.47,6,15.5,6c6.031,0,11.052,4.275,12.227,9.958c0.006-0.153,0.023-0.303,0.023-0.458
	C27.75,8.745,22.254,3.25,15.5,3.25z"/>
<path style="fill:#472B29;" d="M15.499,3.5c6.617,0,12.001,5.383,12.001,12s-5.383,12-12.001,12C8.883,27.5,3.5,22.117,3.5,15.5
	S8.883,3.5,15.499,3.5 M15.499,3C8.607,3,3,8.608,3,15.5S8.607,28,15.499,28C22.393,28,28,22.392,28,15.5S22.393,3,15.499,3
	L15.499,3z"/>
<path style="fill:#F1BC19;" d="M17.625,21.625h-4.25c-1.657,0-3-1.343-3-3v-4.25h10.25v4.25
	C20.625,20.282,19.282,21.625,17.625,21.625z"/>
<path style="fill:#472B29;" d="M20.625,14H12v-1c0-1.624,1.57-2.945,3.5-2.945c1.353,0,2.561,0.648,3.15,1.691
	c0.136,0.241,0.442,0.325,0.681,0.189c0.24-0.136,0.325-0.441,0.189-0.681c-0.767-1.356-2.308-2.199-4.021-2.199
	C13.018,9.055,11,10.825,11,13v1h-0.626C10.168,14,10,14.168,10,14.375v4.25C10,20.486,11.514,22,13.375,22h4.25
	C19.486,22,21,20.486,21,18.625v-4.25C21,14.168,20.832,14,20.625,14z M20.25,18.625c0,1.447-1.178,2.625-2.625,2.625h-4.25
	c-1.447,0-2.625-1.178-2.625-2.625V14.75h9.5V18.625z"/>
</svg>
