<?xml version="1.0" encoding="iso-8859-1"?>
<!-- Generator: Adobe Illustrator 22.1.0, SVG Export Plug-In . SVG Version: 6.00 Build 0)  -->
<svg version="1.1" id="Layer_1" xmlns="http://www.w3.org/2000/svg" xmlns:xlink="http://www.w3.org/1999/xlink" x="0px" y="0px"
	 viewBox="0 0 31 31" style="enable-background:new 0 0 31 31;" xml:space="preserve">
<circle style="fill:#FDFCEF;" cx="15.5" cy="15.5" r="15"/>
<path style="fill:#472B29;" d="M15.5,1.4c7.775,0,14.1,6.325,14.1,14.1s-6.325,14.1-14.1,14.1S1.4,23.275,1.4,15.5
	S7.725,1.4,15.5,1.4 M15.5,0C6.94,0,0,6.94,0,15.5S6.94,31,15.5,31S31,24.06,31,15.5S24.06,0,15.5,0L15.5,0z"/>
<circle style="fill:#F1BC19;" cx="15.499" cy="15.5" r="12.25"/>
<path style="fill:#EED260;" d="M15.5,3.25C8.745,3.25,3.25,8.745,3.25,15.5c0,0.153,0.017,0.301,0.023,0.453
	C4.45,10.273,9.47,6,15.5,6c6.031,0,11.052,4.275,12.227,9.958c0.006-0.153,0.023-0.303,0.023-0.458
	C27.75,8.745,22.254,3.25,15.5,3.25z"/>
<path style="fill:#472B29;" d="M15.499,3.5c6.617,0,12.001,5.383,12.001,12s-5.383,12-12.001,12C8.883,27.5,3.5,22.117,3.5,15.5
	S8.883,3.5,15.499,3.5 M15.499,3C8.607,3,3,8.608,3,15.5S8.607,28,15.499,28C22.393,28,28,22.392,28,15.5S22.393,3,15.499,3
	L15.499,3z"/>
<path style="fill:#8889B9;" d="M15.5,21.625C19,20,20.625,18.5,20.625,16c0-2.748,0-4.625,0-4.625c-3.625,0-5.125-2-5.125-2
	s-1.5,2-5.125,2c0,0,0,1.877,0,4.625C10.375,18.5,12,20,15.5,21.625z"/>
<path style="fill:#472B29;" d="M15.5,22c-0.054,0-0.108-0.012-0.158-0.035C12.136,20.477,10,18.892,10,16v-4.625
	C10,11.168,10.168,11,10.375,11c3.374,0,4.768-1.776,4.826-1.852c0.142-0.187,0.456-0.187,0.598,0C15.857,9.224,17.251,11,20.625,11
	C20.832,11,21,11.168,21,11.375V16c0,2.892-2.136,4.477-5.342,5.965C15.608,21.988,15.554,22,15.5,22z M10.75,11.743V16
	c0,2.159,1.291,3.581,4.75,5.211c3.459-1.63,4.75-3.052,4.75-5.211v-4.257c-2.66-0.099-4.157-1.236-4.75-1.814
	C14.907,10.507,13.41,11.644,10.75,11.743z"/>
</svg>
