<?xml version="1.0" encoding="iso-8859-1"?>
<!-- Generator: Adobe Illustrator 22.1.0, SVG Export Plug-In . SVG Version: 6.00 Build 0)  -->
<svg version="1.1" id="Layer_1" xmlns="http://www.w3.org/2000/svg" xmlns:xlink="http://www.w3.org/1999/xlink" x="0px" y="0px"
	 viewBox="0 0 31 31" style="enable-background:new 0 0 31 31;" xml:space="preserve">
<circle style="fill:#FDFCEF;" cx="15.5" cy="15.5" r="15"/>
<path style="fill:#472B29;" d="M15.5,1.4c7.775,0,14.1,6.325,14.1,14.1s-6.325,14.1-14.1,14.1S1.4,23.275,1.4,15.5
	S7.725,1.4,15.5,1.4 M15.5,0C6.94,0,0,6.94,0,15.5S6.94,31,15.5,31S31,24.06,31,15.5S24.06,0,15.5,0L15.5,0z"/>
<circle style="fill:#A2B3CB;" cx="15.499" cy="15.5" r="12.25"/>
<path style="fill:#BDC4D6;" d="M15.5,3.25C8.745,3.25,3.25,8.745,3.25,15.5c0,0.153,0.017,0.301,0.023,0.453
	C4.45,10.273,9.47,6,15.5,6c6.031,0,11.052,4.275,12.227,9.958c0.006-0.153,0.023-0.303,0.023-0.458
	C27.75,8.745,22.254,3.25,15.5,3.25z"/>
<path style="fill:#472B29;" d="M15.499,3.5c6.617,0,12.001,5.383,12.001,12s-5.383,12-12.001,12C8.883,27.5,3.5,22.117,3.5,15.5
	S8.883,3.5,15.499,3.5 M15.499,3C8.607,3,3,8.608,3,15.5S8.607,28,15.499,28C22.393,28,28,22.392,28,15.5S22.393,3,15.499,3
	L15.499,3z"/>
<path style="fill:#93BC39;" d="M21,14.375c-1,0-1.375,0.25-1.375,0.25v-2.25c0-0.552-0.448-1-1-1h-2.25c0,0,0.25-0.375,0.25-1.375
	c0-0.897-0.728-1.625-1.625-1.625S13.375,9.103,13.375,10c0,1,0.25,1.375,0.25,1.375h-2.25c-0.552,0-1,0.448-1,1v2.25
	c0,0,0.375-0.25,1.375-0.25c0.897,0,1.625,0.728,1.625,1.625c0,0.897-0.728,1.625-1.625,1.625c-1,0-1.375-0.25-1.375-0.25v2.25
	c0,0.552,0.448,1,1,1h7.25c0.552,0,1-0.448,1-1v-2.25c0,0,0.375,0.25,1.375,0.25c0.897,0,1.625-0.728,1.625-1.625
	S21.897,14.375,21,14.375z"/>
<path style="fill:#472B29;" d="M18.625,21h-7.25C10.617,21,10,20.383,10,19.625v-2.25c0-0.138,0.076-0.265,0.198-0.331
	c0.122-0.065,0.27-0.058,0.385,0.019l0,0c0.001,0,0.334,0.187,1.167,0.187c0.689,0,1.25-0.561,1.25-1.25s-0.561-1.25-1.25-1.25
	c-0.84,0-1.172,0.19-1.175,0.192c-0.115,0.07-0.263,0.073-0.381,0.006C10.077,14.881,10,14.76,10,14.625v-2.25
	C10,11.617,10.617,11,11.375,11h1.722C13.042,10.756,13,10.428,13,10c0-1.103,0.897-2,2-2s2,0.897,2,2c0,0.428-0.042,0.756-0.097,1
	h1.722C19.383,11,20,11.617,20,12.375v1.722C20.244,14.042,20.572,14,21,14c1.103,0,2,0.897,2,2s-0.897,2-2,2
	c-0.428,0-0.756-0.042-1-0.097v1.722C20,20.383,19.383,21,18.625,21z M10.75,17.903v1.722c0,0.345,0.28,0.625,0.625,0.625h7.25
	c0.345,0,0.625-0.28,0.625-0.625v-2.25c0-0.138,0.076-0.265,0.198-0.331c0.122-0.065,0.27-0.058,0.385,0.019l0,0
	c0.001,0,0.334,0.187,1.167,0.187c0.689,0,1.25-0.561,1.25-1.25s-0.561-1.25-1.25-1.25c-0.84,0-1.172,0.19-1.175,0.192
	c-0.116,0.07-0.264,0.073-0.381,0.006s-0.193-0.188-0.193-0.323v-2.25c0-0.345-0.28-0.625-0.625-0.625h-2.25
	c-0.138,0-0.265-0.076-0.331-0.198c-0.065-0.122-0.058-0.27,0.019-0.385l0,0c0,0,0.187-0.333,0.187-1.167
	c0-0.689-0.561-1.25-1.25-1.25S13.75,9.311,13.75,10c0,0.84,0.19,1.172,0.192,1.175c0.069,0.116,0.072,0.264,0.006,0.381
	c-0.067,0.117-0.188,0.193-0.323,0.193h-2.25c-0.345,0-0.625,0.28-0.625,0.625v1.722c0.244-0.054,0.572-0.097,1-0.097
	c1.103,0,2,0.897,2,2s-0.897,2-2,2C11.322,18,10.994,17.958,10.75,17.903z"/>
</svg>
