<?xml version="1.0" encoding="iso-8859-1"?>
<!-- Generator: Adobe Illustrator 22.1.0, SVG Export Plug-In . SVG Version: 6.00 Build 0)  -->
<svg version="1.1" id="Layer_1" xmlns="http://www.w3.org/2000/svg" xmlns:xlink="http://www.w3.org/1999/xlink" x="0px" y="0px"
	 viewBox="0 0 31 31" style="enable-background:new 0 0 31 31;" xml:space="preserve">
<circle style="fill:#FDFCEF;" cx="15.5" cy="15.5" r="15"/>
<path style="fill:#472B29;" d="M15.5,1.4c7.775,0,14.1,6.325,14.1,14.1s-6.325,14.1-14.1,14.1S1.4,23.275,1.4,15.5
	S7.725,1.4,15.5,1.4 M15.5,0C6.94,0,0,6.94,0,15.5S6.94,31,15.5,31S31,24.06,31,15.5S24.06,0,15.5,0L15.5,0z"/>
<circle style="fill:#F1BC19;" cx="15.499" cy="15.5" r="12.25"/>
<path style="fill:#EED260;" d="M15.5,3.25C8.745,3.25,3.25,8.745,3.25,15.5c0,0.153,0.017,0.301,0.023,0.453
	C4.45,10.273,9.47,6,15.5,6c6.031,0,11.052,4.275,12.227,9.958c0.006-0.153,0.023-0.303,0.023-0.458
	C27.75,8.745,22.254,3.25,15.5,3.25z"/>
<path style="fill:#472B29;" d="M15.499,3.5c6.617,0,12.001,5.383,12.001,12s-5.383,12-12.001,12C8.883,27.5,3.5,22.117,3.5,15.5
	S8.883,3.5,15.499,3.5 M15.499,3C8.607,3,3,8.608,3,15.5S8.607,28,15.499,28C22.393,28,28,22.392,28,15.5S22.393,3,15.499,3
	L15.499,3z"/>
<circle style="fill:#A8DBDB;" cx="17.5" cy="13.5" r="4.125"/>
<path style="fill:#88AE45;" d="M13.429,18.166l-0.595-0.595c-0.262-0.262-0.69-0.262-0.952,0l-2.311,2.311
	c-0.262,0.262-0.262,0.69,0,0.952l0.595,0.595c0.262,0.262,0.69,0.262,0.951,0l2.311-2.311C13.69,18.856,13.69,18.428,13.429,18.166
	z"/>
<path style="fill:#472B29;" d="M17.5,9c-2.481,0-4.5,2.019-4.5,4.5c0,1.105,0.416,2.106,1.079,2.89l-0.948,0.948L13.1,17.306
	c-0.41-0.408-1.072-0.408-1.482,0l-2.312,2.312C9.108,19.815,9,20.078,9,20.358c0,0.281,0.108,0.544,0.306,0.741L9.9,21.694
	C10.105,21.898,10.373,22,10.642,22s0.536-0.102,0.741-0.306l2.312-2.312c0.408-0.408,0.408-1.073,0-1.481l-0.032-0.032l0.948-0.948
	C15.394,17.584,16.395,18,17.5,18c2.481,0,4.5-2.019,4.5-4.5S19.981,9,17.5,9z M13.163,18.852l-2.312,2.312
	c-0.115,0.116-0.305,0.116-0.42,0l-0.596-0.595c-0.056-0.055-0.086-0.13-0.086-0.21s0.03-0.155,0.087-0.21l2.312-2.312
	c0.058-0.058,0.134-0.087,0.21-0.087s0.152,0.029,0.21,0.087l0.595,0.595C13.279,18.547,13.279,18.736,13.163,18.852z M17.5,17.25
	c-2.067,0-3.75-1.682-3.75-3.75s1.683-3.75,3.75-3.75s3.75,1.682,3.75,3.75S19.567,17.25,17.5,17.25z"/>
</svg>
