<?xml version="1.0" encoding="iso-8859-1"?>
<!-- Generator: Adobe Illustrator 22.1.0, SVG Export Plug-In . SVG Version: 6.00 Build 0)  -->
<svg version="1.1" id="Layer_1" xmlns="http://www.w3.org/2000/svg" xmlns:xlink="http://www.w3.org/1999/xlink" x="0px" y="0px"
	 viewBox="0 0 31 31" style="enable-background:new 0 0 31 31;" xml:space="preserve">
<circle style="fill:#FDFCEF;" cx="15.5" cy="15.5" r="15"/>
<path style="fill:#472B29;" d="M15.5,1.4c7.775,0,14.1,6.325,14.1,14.1s-6.325,14.1-14.1,14.1S1.4,23.275,1.4,15.5
	S7.725,1.4,15.5,1.4 M15.5,0C6.94,0,0,6.94,0,15.5S6.94,31,15.5,31S31,24.06,31,15.5S24.06,0,15.5,0L15.5,0z"/>
<circle style="fill:#F1BC19;" cx="15.499" cy="15.5" r="12.25"/>
<path style="fill:#EED260;" d="M15.5,3.25C8.745,3.25,3.25,8.745,3.25,15.5c0,0.153,0.017,0.301,0.023,0.453
	C4.45,10.273,9.47,6,15.5,6c6.031,0,11.052,4.275,12.227,9.958c0.006-0.153,0.023-0.303,0.023-0.458
	C27.75,8.745,22.254,3.25,15.5,3.25z"/>
<path style="fill:#472B29;" d="M15.499,3.5c6.617,0,12.001,5.383,12.001,12s-5.383,12-12.001,12C8.883,27.5,3.5,22.117,3.5,15.5
	S8.883,3.5,15.499,3.5 M15.499,3C8.607,3,3,8.608,3,15.5S8.607,28,15.499,28C22.393,28,28,22.392,28,15.5S22.393,3,15.499,3
	L15.499,3z"/>
<path style="fill:#848484;" d="M21.165,11.645l-2.634,2.739c-0.295,0-0.955,0.076-1.473-0.442c-0.518-0.518-0.442-1.179-0.442-1.473
	l2.671-2.671c-0.543-0.263-1.144-0.423-1.787-0.423c-2.278,0-4.125,1.847-4.125,4.125c0,0.724,0.203,1.394,0.53,1.986
	c-1.292,1.301-3.831,3.86-4.157,4.185c-0.436,0.436-0.436,1.144,0,1.581c0.436,0.436,1.144,0.436,1.581,0
	c0.326-0.326,2.884-2.865,4.185-4.157c0.591,0.328,1.262,0.53,1.986,0.53c2.278,0,4.125-1.847,4.125-4.125
	C21.625,12.829,21.45,12.205,21.165,11.645z"/>
<path style="fill:#472B29;" d="M21.499,11.475c-0.055-0.108-0.158-0.183-0.278-0.201c-0.123-0.018-0.242,0.023-0.326,0.111
	l-2.525,2.627c-0.3,0.005-0.715-0.003-1.046-0.335c-0.333-0.333-0.341-0.753-0.335-1.05l2.564-2.564
	c0.085-0.086,0.124-0.208,0.104-0.328c-0.021-0.12-0.098-0.222-0.207-0.275C18.819,9.155,18.163,9,17.5,9
	c-2.481,0-4.5,2.019-4.5,4.5c0,0.684,0.165,1.326,0.439,1.907c-0.829,0.836-3.625,3.657-4,4.032C9.156,19.722,9,20.099,9,20.499
	c0,0.401,0.156,0.778,0.44,1.061c0.284,0.283,0.66,0.439,1.061,0.439s0.777-0.156,1.061-0.439c0.367-0.366,3.114-3.09,4.032-4
	C16.174,17.835,16.816,18,17.5,18c2.481,0,4.5-2.019,4.5-4.5C22,12.811,21.832,12.129,21.499,11.475z M11.03,21.03
	c-0.282,0.283-0.774,0.284-1.061,0c-0.142-0.142-0.22-0.33-0.22-0.53s0.078-0.389,0.221-0.53c0.371-0.371,3.021-3.045,3.855-3.887
	c0.299,0.424,0.668,0.793,1.092,1.092C14.163,17.923,11.411,20.65,11.03,21.03z M17.5,17.25c-2.067,0-3.75-1.682-3.75-3.75
	s1.683-3.75,3.75-3.75c0.377,0,0.753,0.061,1.122,0.182l-2.271,2.271c-0.07,0.07-0.111,0.259-0.111,0.358
	c-0.008,0.347-0.024,1.067,0.554,1.646c0.578,0.579,1.297,0.559,1.646,0.553l0.093-0.001c0.102,0,0.199-0.042,0.271-0.115
	l2.242-2.332c0.137,0.391,0.206,0.789,0.206,1.188C21.25,15.568,19.567,17.25,17.5,17.25z"/>
</svg>
