<?xml version="1.0" encoding="iso-8859-1"?>
<!-- Generator: Adobe Illustrator 22.1.0, SVG Export Plug-In . SVG Version: 6.00 Build 0)  -->
<svg version="1.1" id="Layer_1" xmlns="http://www.w3.org/2000/svg" xmlns:xlink="http://www.w3.org/1999/xlink" x="0px" y="0px"
	 viewBox="0 0 31 31" style="enable-background:new 0 0 31 31;" xml:space="preserve">
<circle style="fill:#FDFCEF;" cx="15.5" cy="15.5" r="15"/>
<path style="fill:#472B29;" d="M15.5,1.4c7.775,0,14.1,6.325,14.1,14.1s-6.325,14.1-14.1,14.1S1.4,23.275,1.4,15.5
	S7.725,1.4,15.5,1.4 M15.5,0C6.94,0,0,6.94,0,15.5S6.94,31,15.5,31S31,24.06,31,15.5S24.06,0,15.5,0L15.5,0z"/>
<circle style="fill:#42B7BA;" cx="15.499" cy="15.5" r="12.25"/>
<path style="fill:#5EC3C9;" d="M15.5,3.25C8.745,3.25,3.25,8.745,3.25,15.5c0,0.153,0.017,0.301,0.023,0.453
	C4.45,10.273,9.47,6,15.5,6c6.031,0,11.052,4.275,12.227,9.958c0.006-0.153,0.023-0.303,0.023-0.458
	C27.75,8.745,22.254,3.25,15.5,3.25z"/>
<path style="fill:#472B29;" d="M15.499,3.5c6.617,0,12.001,5.383,12.001,12s-5.383,12-12.001,12C8.883,27.5,3.5,22.117,3.5,15.5
	S8.883,3.5,15.499,3.5 M15.499,3C8.607,3,3,8.608,3,15.5S8.607,28,15.499,28C22.393,28,28,22.392,28,15.5S22.393,3,15.499,3
	L15.499,3z"/>
<path style="fill:#FDFCEF;" d="M20.375,15.5c0-0.743,0.541-1.355,1.249-1.475c-0.159-0.655-0.409-1.275-0.754-1.833
	c-0.008,0.004-0.017,0.005-0.025,0.009c-0.584,0.403-1.378,0.372-1.898-0.148c-0.52-0.52-0.551-1.314-0.148-1.899
	c0.004-0.008,0.005-0.017,0.009-0.025c-0.559-0.345-1.178-0.594-1.833-0.754c-0.12,0.708-0.732,1.249-1.475,1.249
	c-0.746,0-1.359-0.546-1.476-1.258c-0.657,0.158-1.269,0.424-1.828,0.769c0.004,0.008,0.005,0.017,0.009,0.025
	c0.399,0.584,0.366,1.374-0.152,1.892c-0.517,0.517-1.306,0.55-1.89,0.154c-0.008-0.004-0.016-0.004-0.024-0.008
	c-0.345,0.558-0.598,1.174-0.759,1.827c0.707,0.121,1.245,0.733,1.245,1.474c0,0.746-0.545,1.359-1.258,1.476
	c0.158,0.657,0.424,1.269,0.769,1.829c0.008-0.004,0.017-0.005,0.024-0.009c0.584-0.399,1.375-0.367,1.893,0.152
	c0.517,0.517,0.55,1.305,0.154,1.889c-0.004,0.008-0.005,0.017-0.009,0.025c0.557,0.345,1.175,0.597,1.827,0.759
	c0.121-0.707,0.733-1.245,1.474-1.245c0.746,0,1.359,0.546,1.476,1.258l0,0c0.657-0.158,1.269-0.424,1.829-0.769
	c-0.004-0.008-0.005-0.016-0.009-0.024c-0.4-0.584-0.367-1.375,0.151-1.894c0.517-0.517,1.306-0.55,1.889-0.154
	c0.008,0.004,0.017,0.005,0.025,0.009c0.345-0.558,0.598-1.174,0.759-1.827C20.914,16.853,20.375,16.241,20.375,15.5z
	 M15.499,17.625c-1.174,0-2.125-0.951-2.125-2.125s0.951-2.125,2.125-2.125s2.125,0.951,2.125,2.125S16.673,17.625,15.499,17.625z"
	/>
<path style="fill:#472B29;" d="M16.976,22.008c-0.073,0-0.146-0.021-0.208-0.063c-0.087-0.058-0.146-0.149-0.162-0.251
	c-0.089-0.547-0.554-0.944-1.105-0.944c-0.547,0-1.012,0.393-1.105,0.935c-0.018,0.103-0.077,0.193-0.164,0.25
	s-0.193,0.076-0.296,0.05c-0.702-0.174-1.354-0.445-1.934-0.805c-0.085-0.053-0.146-0.137-0.168-0.234
	c-0.022-0.094-0.007-0.193,0.043-0.277c0.009-0.02,0.017-0.038,0.021-0.044c0.311-0.457,0.267-1.038-0.108-1.413
	c-0.376-0.375-0.959-0.42-1.416-0.107c-0.037,0.025-0.091,0.048-0.134,0.059c-0.173,0.1-0.317,0.01-0.423-0.163
	c-0.379-0.617-0.652-1.269-0.813-1.938c-0.024-0.102-0.006-0.208,0.052-0.295s0.149-0.146,0.252-0.163
	c0.547-0.089,0.943-0.554,0.943-1.105c0-0.547-0.393-1.012-0.934-1.105c-0.103-0.018-0.193-0.077-0.251-0.165
	c-0.057-0.087-0.074-0.194-0.05-0.295c0.175-0.703,0.445-1.354,0.804-1.934c0.104-0.165,0.315-0.224,0.487-0.138
	c0.526,0.346,1.108,0.298,1.48-0.075c0.377-0.375,0.421-0.958,0.108-1.416c-0.022-0.033-0.044-0.082-0.056-0.121
	c-0.087-0.173-0.006-0.333,0.16-0.435c0.616-0.38,1.269-0.654,1.938-0.814c0.1-0.023,0.208-0.005,0.295,0.053
	s0.146,0.149,0.162,0.251c0.089,0.547,0.554,0.944,1.105,0.944c0.548,0,1.013-0.394,1.104-0.937
	c0.018-0.103,0.077-0.193,0.164-0.251c0.087-0.057,0.194-0.076,0.295-0.051c0.71,0.173,1.363,0.442,1.942,0.799
	c0.085,0.053,0.146,0.137,0.168,0.234c0.022,0.096,0.006,0.197-0.046,0.281c-0.009,0.02-0.016,0.037-0.02,0.042
	c-0.317,0.458-0.274,1.042,0.104,1.42c0.379,0.378,0.962,0.419,1.421,0.104c0.035-0.024,0.086-0.046,0.127-0.058
	c0.174-0.088,0.328-0.004,0.431,0.161c0.357,0.579,0.626,1.232,0.798,1.942c0.024,0.101,0.006,0.208-0.051,0.295
	c-0.058,0.087-0.148,0.146-0.251,0.163c-0.543,0.092-0.937,0.557-0.937,1.105c0,0.547,0.393,1.012,0.934,1.105
	c0.103,0.018,0.193,0.077,0.25,0.165c0.058,0.087,0.075,0.194,0.051,0.295c-0.173,0.701-0.443,1.352-0.804,1.935
	c-0.106,0.171-0.329,0.228-0.503,0.129c-0.508-0.336-1.09-0.292-1.465,0.084c-0.377,0.376-0.421,0.959-0.107,1.417
	c0.021,0.032,0.043,0.08,0.054,0.117c0.094,0.175,0.011,0.334-0.158,0.438c-0.618,0.38-1.27,0.654-1.938,0.814
	C17.034,22.005,17.005,22.008,16.976,22.008z M15.5,20c0.78,0,1.456,0.475,1.735,1.173c0.362-0.112,0.719-0.263,1.065-0.45
	c-0.293-0.687-0.157-1.502,0.381-2.041c0.536-0.535,1.347-0.672,2.034-0.379c0.18-0.336,0.329-0.694,0.444-1.072
	C20.469,16.948,20,16.273,20,15.5c0-0.776,0.472-1.451,1.165-1.732c-0.113-0.379-0.26-0.737-0.436-1.069
	c-0.687,0.297-1.505,0.163-2.048-0.38c-0.539-0.539-0.675-1.351-0.375-2.044c-0.334-0.177-0.693-0.324-1.074-0.439
	C16.95,10.529,16.275,11,15.5,11c-0.78,0-1.456-0.475-1.735-1.173c-0.362,0.112-0.718,0.263-1.064,0.45
	c0.293,0.684,0.158,1.502-0.383,2.042c-0.534,0.535-1.341,0.673-2.033,0.379c-0.18,0.335-0.328,0.694-0.444,1.072
	C10.531,14.052,11,14.727,11,15.5c0,0.78-0.475,1.456-1.173,1.735c0.112,0.364,0.264,0.722,0.452,1.07
	c0.69-0.296,1.501-0.158,2.039,0.377c0.534,0.535,0.672,1.343,0.379,2.034c0.335,0.18,0.693,0.328,1.072,0.445
	C14.053,20.469,14.728,20,15.5,20z M15.499,18c-1.379,0-2.5-1.122-2.5-2.5s1.121-2.5,2.5-2.5s2.5,1.122,2.5,2.5S16.878,18,15.499,18
	z M15.499,13.75c-0.965,0-1.75,0.785-1.75,1.75s0.785,1.75,1.75,1.75s1.75-0.785,1.75-1.75S16.464,13.75,15.499,13.75z"/>
</svg>
