<?xml version="1.0" encoding="iso-8859-1"?>
<!-- Generator: Adobe Illustrator 22.1.0, SVG Export Plug-In . SVG Version: 6.00 Build 0)  -->
<svg version="1.1" id="Layer_1" xmlns="http://www.w3.org/2000/svg" xmlns:xlink="http://www.w3.org/1999/xlink" x="0px" y="0px"
	 viewBox="0 0 31 31" style="enable-background:new 0 0 31 31;" xml:space="preserve">
<circle style="fill:#FDFCEF;" cx="15.5" cy="15.5" r="15"/>
<path style="fill:#472B29;" d="M15.5,1.4c7.775,0,14.1,6.325,14.1,14.1s-6.325,14.1-14.1,14.1S1.4,23.275,1.4,15.5
	S7.725,1.4,15.5,1.4 M15.5,0C6.94,0,0,6.94,0,15.5S6.94,31,15.5,31S31,24.06,31,15.5S24.06,0,15.5,0L15.5,0z"/>
<circle style="fill:#78A0CF;" cx="15.501" cy="15.5" r="12.25"/>
<path style="fill:#A0C4E9;" d="M15.5,3.25c6.754,0,12.25,5.495,12.25,12.25c0,0.153-0.017,0.301-0.023,0.453
	C26.55,10.273,21.53,6,15.5,6S4.448,10.275,3.273,15.958C3.268,15.804,3.25,15.654,3.25,15.5C3.25,8.745,8.746,3.25,15.5,3.25z"/>
<path style="fill:#472B29;" d="M15.501,3.5c6.616,0,11.999,5.383,11.999,12s-5.383,12-11.999,12C8.883,27.5,3.5,22.117,3.5,15.5
	S8.883,3.5,15.501,3.5 M15.501,3C8.607,3,3,8.608,3,15.5S8.607,28,15.501,28C22.393,28,28,22.392,28,15.5S22.393,3,15.501,3
	L15.501,3z"/>
<path style="fill:#FDFCEF;" d="M9.848,15.652c-0.291-0.347-0.473-0.789-0.473-1.277c0-1.105,0.895-2,2-2
	c0.373,0,0.717,0.109,1.016,0.286c-0.003-0.055-0.016-0.106-0.016-0.161c0-1.726,1.399-3.125,3.125-3.125
	c1.399,0,2.57,0.926,2.968,2.194c0.278-0.123,0.584-0.194,0.907-0.194c1.243,0,2.25,1.007,2.25,2.25
	c0,0.474-0.159,0.904-0.411,1.266c0.849,0.559,1.411,1.517,1.411,2.609c0,1.518-1.083,2.781-2.519,3.064
	c-0.117,0.04-0.274,0.061-0.481,0.061c-1.657,0-7.175,0-8.625,0S8.375,19.45,8.375,18C8.375,16.966,8.978,16.08,9.848,15.652z"/>
<path style="fill:#472B29;" d="M19.625,21H11c-1.654,0-3-1.346-3-3c0-1,0.492-1.912,1.309-2.467C9.105,15.179,9,14.785,9,14.375
	C9,13.065,10.065,12,11.375,12c0.219,0,0.437,0.032,0.648,0.094C12.226,10.354,13.707,9,15.5,9c1.398,0,2.637,0.827,3.189,2.093
	C18.913,11.031,19.143,11,19.375,11C20.822,11,22,12.178,22,13.625c0,0.402-0.099,0.799-0.288,1.167
	C22.524,15.453,23,16.442,23,17.5c0,1.667-1.187,3.11-2.821,3.432C20.067,20.974,19.871,21,19.625,21z M11.375,12.75
	c-0.896,0-1.625,0.729-1.625,1.625c0,0.377,0.133,0.735,0.385,1.037c0.074,0.088,0.104,0.206,0.08,0.318
	c-0.024,0.112-0.099,0.208-0.201,0.259C9.234,16.372,8.75,17.143,8.75,18c0,1.241,1.01,2.25,2.25,2.25h8.625
	c0.199,0,0.306-0.022,0.36-0.041c1.333-0.266,2.265-1.4,2.265-2.709c0-0.926-0.464-1.784-1.241-2.295
	c-0.085-0.056-0.143-0.143-0.162-0.243c-0.02-0.099,0.003-0.202,0.061-0.285c0.228-0.327,0.343-0.681,0.343-1.052
	c0-1.034-0.841-1.875-1.875-1.875c-0.259,0-0.513,0.055-0.756,0.162c-0.097,0.043-0.209,0.043-0.306-0.001
	c-0.098-0.044-0.172-0.128-0.203-0.229c-0.362-1.155-1.411-1.931-2.61-1.931c-1.517,0-2.75,1.233-2.75,2.75
	c0.01,0.071,0.014,0.105,0.016,0.141c0.008,0.138-0.062,0.269-0.18,0.341c-0.118,0.071-0.268,0.072-0.386,0.001
	C11.939,12.829,11.662,12.75,11.375,12.75z"/>
</svg>
