<?xml version="1.0" encoding="iso-8859-1"?>
<!-- Generator: Adobe Illustrator 22.1.0, SVG Export Plug-In . SVG Version: 6.00 Build 0)  -->
<svg version="1.1" id="Layer_1" xmlns="http://www.w3.org/2000/svg" xmlns:xlink="http://www.w3.org/1999/xlink" x="0px" y="0px"
	 viewBox="0 0 31 31" style="enable-background:new 0 0 31 31;" xml:space="preserve">
<circle style="fill:#FDFCEF;" cx="15.5" cy="15.5" r="15"/>
<path style="fill:#472B29;" d="M15.5,1.4c7.775,0,14.1,6.325,14.1,14.1s-6.325,14.1-14.1,14.1S1.4,23.275,1.4,15.5
	S7.725,1.4,15.5,1.4 M15.5,0C6.94,0,0,6.94,0,15.5S6.94,31,15.5,31S31,24.06,31,15.5S24.06,0,15.5,0L15.5,0z"/>
<circle style="fill:#F1BC19;" cx="15.499" cy="15.5" r="12.25"/>
<path style="fill:#EED260;" d="M15.5,3.25C8.745,3.25,3.25,8.745,3.25,15.5c0,0.153,0.017,0.301,0.023,0.453
	C4.45,10.273,9.47,6,15.5,6c6.031,0,11.052,4.275,12.227,9.958c0.006-0.153,0.023-0.303,0.023-0.458
	C27.75,8.745,22.254,3.25,15.5,3.25z"/>
<path style="fill:#472B29;" d="M15.499,3.5c6.617,0,12.001,5.383,12.001,12s-5.383,12-12.001,12C8.883,27.5,3.5,22.117,3.5,15.5
	S8.883,3.5,15.499,3.5 M15.499,3C8.607,3,3,8.608,3,15.5S8.607,28,15.499,28C22.393,28,28,22.392,28,15.5S22.393,3,15.499,3
	L15.499,3z"/>
<path style="fill:#472B29;" d="M18.625,17.905c0-0.504-0.072-0.944-0.217-1.319c-0.144-0.376-0.359-0.684-0.643-0.926
	s-0.554-0.432-0.808-0.571c-0.252-0.138-0.572-0.279-0.957-0.421v-3.517c0.428,0.021,0.827,0.12,1.194,0.298
	c0.369,0.179,0.579,0.268,0.629,0.268c0.162,0,0.294-0.081,0.395-0.245s0.152-0.317,0.152-0.46c0-0.286-0.246-0.519-0.738-0.698
	C17.143,10.136,16.598,10.032,16,10V9.375C16,9.168,15.832,9,15.625,9S15.25,9.168,15.25,9.375v0.654l-0.039,0.002
	c-0.361,0.03-0.697,0.1-1.008,0.207c-0.311,0.107-0.604,0.264-0.88,0.468c-0.275,0.205-0.494,0.484-0.654,0.837
	c-0.161,0.354-0.241,0.762-0.241,1.225c0,0.381,0.06,0.722,0.18,1.026c0.12,0.303,0.253,0.546,0.399,0.726
	c0.145,0.18,0.366,0.357,0.662,0.532c0.296,0.175,0.538,0.299,0.729,0.371l0.813,0.308l0.039,0.016v4.086l-0.039,0.002
	c-0.395-0.021-0.749-0.095-1.063-0.223c-0.314-0.129-0.543-0.268-0.687-0.417c-0.143-0.149-0.285-0.285-0.424-0.409
	S12.789,18.6,12.71,18.6c-0.14,0-0.267,0.078-0.381,0.232s-0.171,0.314-0.171,0.478c0,0.359,0.293,0.728,0.88,1.107
	c0.586,0.379,1.311,0.573,2.173,0.583l0.039-0.002v0.627c0,0.207,0.168,0.375,0.375,0.375S16,21.832,16,21.625v-0.673
	c0.804-0.112,1.442-0.425,1.914-0.939C18.388,19.498,18.625,18.795,18.625,17.905z M14.026,13.732
	c-0.273-0.242-0.41-0.604-0.41-1.088c0-0.863,0.547-1.351,1.634-1.469v3.219C14.705,14.191,14.295,13.971,14.026,13.732z M16,19.783
	V16.06c0.445,0.2,0.799,0.437,1.046,0.72c0.26,0.298,0.391,0.715,0.391,1.25C17.437,19.021,16.952,19.601,16,19.783z"/>
</svg>
