<?xml version="1.0" encoding="iso-8859-1"?>
<!-- Generator: Adobe Illustrator 22.1.0, SVG Export Plug-In . SVG Version: 6.00 Build 0)  -->
<svg version="1.1" id="Layer_1" xmlns="http://www.w3.org/2000/svg" xmlns:xlink="http://www.w3.org/1999/xlink" x="0px" y="0px"
	 viewBox="0 0 31 31" style="enable-background:new 0 0 31 31;" xml:space="preserve">
<circle style="fill:#FDFCEF;" cx="15.5" cy="15.5" r="15"/>
<path style="fill:#472B29;" d="M15.5,1.4c7.775,0,14.1,6.325,14.1,14.1s-6.325,14.1-14.1,14.1S1.4,23.275,1.4,15.5
	S7.725,1.4,15.5,1.4 M15.5,0C6.94,0,0,6.94,0,15.5S6.94,31,15.5,31S31,24.06,31,15.5S24.06,0,15.5,0L15.5,0z"/>
<circle style="fill:#78A0CF;" cx="15.499" cy="15.5" r="12.25"/>
<path style="fill:#A0C4E9;" d="M15.5,3.25C8.745,3.25,3.25,8.745,3.25,15.5c0,0.153,0.017,0.301,0.023,0.453
	C4.45,10.273,9.47,6,15.5,6c6.031,0,11.052,4.275,12.227,9.958c0.006-0.153,0.023-0.303,0.023-0.458
	C27.75,8.745,22.254,3.25,15.5,3.25z"/>
<path style="fill:#472B29;" d="M15.499,3.5c6.617,0,12.001,5.383,12.001,12s-5.383,12-12.001,12C8.883,27.5,3.5,22.117,3.5,15.5
	S8.883,3.5,15.499,3.5 M15.499,3C8.607,3,3,8.608,3,15.5S8.607,28,15.499,28C22.393,28,28,22.392,28,15.5S22.393,3,15.499,3
	L15.499,3z"/>
<path style="fill:#F8E55B;" d="M15.956,9.519h-0.911c-1.835,0-3.386,1.224-3.629,2.862l-1.041,8.244h10.25l-1.041-8.244
	C19.342,10.742,17.79,9.519,15.956,9.519z"/>
<path style="fill:#472B29;" d="M19.956,12.22c-0.269-1.835-1.988-3.22-4-3.22h-0.081V8.375C15.875,8.168,15.707,8,15.5,8
	s-0.375,0.168-0.375,0.375V9h-0.081c-2.012,0-3.731,1.384-4.001,3.228l-1.041,8.351c-0.013,0.107,0.02,0.214,0.091,0.294
	C10.165,20.954,10.268,21,10.375,21h3.687c0.173,0.575,0.724,1,1.383,1c0.659,0,1.21-0.425,1.383-1h3.798
	c0.107,0,0.21-0.046,0.281-0.127c0.071-0.081,0.104-0.188,0.091-0.294L19.956,12.22z M10.8,20.25l0.987-7.922
	c0.215-1.47,1.615-2.578,3.258-2.578h0.911c1.643,0,3.043,1.108,3.257,2.57l0.988,7.93H10.8z"/>
</svg>
