<?xml version="1.0" encoding="iso-8859-1"?>
<!-- Generator: Adobe Illustrator 22.1.0, SVG Export Plug-In . SVG Version: 6.00 Build 0)  -->
<svg version="1.1" id="Layer_1" xmlns="http://www.w3.org/2000/svg" xmlns:xlink="http://www.w3.org/1999/xlink" x="0px" y="0px"
	 viewBox="0 0 31 31" style="enable-background:new 0 0 31 31;" xml:space="preserve">
<circle style="fill:#FDFCEF;" cx="15.5" cy="15.5" r="15"/>
<path style="fill:#472B29;" d="M15.5,1.4c7.775,0,14.1,6.325,14.1,14.1s-6.325,14.1-14.1,14.1S1.4,23.275,1.4,15.5
	S7.725,1.4,15.5,1.4 M15.5,0C6.94,0,0,6.94,0,15.5S6.94,31,15.5,31S31,24.06,31,15.5S24.06,0,15.5,0L15.5,0z"/>
<circle style="fill:#A2B3CB;" cx="15.499" cy="15.5" r="12.25"/>
<path style="fill:#BDC4D6;" d="M15.5,3.25C8.745,3.25,3.25,8.745,3.25,15.5c0,0.153,0.017,0.301,0.023,0.453
	C4.45,10.273,9.47,6,15.5,6c6.031,0,11.052,4.275,12.227,9.958c0.006-0.153,0.023-0.303,0.023-0.458
	C27.75,8.745,22.254,3.25,15.5,3.25z"/>
<path style="fill:#472B29;" d="M15.499,3.5c6.617,0,12.001,5.383,12.001,12s-5.383,12-12.001,12C8.883,27.5,3.5,22.117,3.5,15.5
	S8.883,3.5,15.499,3.5 M15.499,3C8.607,3,3,8.608,3,15.5S8.607,28,15.499,28C22.393,28,28,22.392,28,15.5S22.393,3,15.499,3
	L15.499,3z"/>
<rect x="9.375" y="10.375" style="fill:#FDFCEF;" width="12.25" height="10.25"/>
<rect x="16.375" y="15.375" style="fill:#649ED8;" width="2.25" height="2.25"/>
<rect x="12.375" y="15.375" style="fill:#649ED8;" width="2.25" height="2.25"/>
<rect x="9.375" y="10.375" style="fill:#EE3E54;" width="12.25" height="2.25"/>
<path style="fill:#472B29;" d="M18.625,15h-2.25C16.168,15,16,15.168,16,15.375v2.25C16,17.832,16.168,18,16.375,18h2.25
	C18.832,18,19,17.832,19,17.625v-2.25C19,15.168,18.832,15,18.625,15z M18.25,17.25h-1.5v-1.5h1.5V17.25z M14.625,15h-2.25
	C12.168,15,12,15.168,12,15.375v2.25C12,17.832,12.168,18,12.375,18h2.25C14.832,18,15,17.832,15,17.625v-2.25
	C15,15.168,14.832,15,14.625,15z M14.25,17.25h-1.5v-1.5h1.5V17.25z M21.625,10h-1.75V9.375C19.875,9.168,19.707,9,19.5,9
	s-0.375,0.168-0.375,0.375V10h-3.25V9.375C15.875,9.168,15.707,9,15.5,9s-0.375,0.168-0.375,0.375V10h-3.25V9.375
	C11.875,9.168,11.707,9,11.5,9s-0.375,0.168-0.375,0.375V10h-1.75C9.168,10,9,10.168,9,10.375v10.25C9,20.832,9.168,21,9.375,21
	h12.25C21.832,21,22,20.832,22,20.625v-10.25C22,10.168,21.832,10,21.625,10z M21.25,10.75v1.5H9.75v-1.5H21.25z M9.75,20.25V13
	h11.5v7.25H9.75z"/>
</svg>
