<?xml version="1.0" encoding="iso-8859-1"?>
<!-- Generator: Adobe Illustrator 22.1.0, SVG Export Plug-In . SVG Version: 6.00 Build 0)  -->
<svg version="1.1" id="Layer_1" xmlns="http://www.w3.org/2000/svg" xmlns:xlink="http://www.w3.org/1999/xlink" x="0px" y="0px"
	 viewBox="0 0 31 31" style="enable-background:new 0 0 31 31;" xml:space="preserve">
<circle style="fill:#FDFCEF;" cx="15.5" cy="15.5" r="15"/>
<path style="fill:#472B29;" d="M15.5,1.4c7.775,0,14.1,6.325,14.1,14.1s-6.325,14.1-14.1,14.1S1.4,23.275,1.4,15.5
	S7.725,1.4,15.5,1.4 M15.5,0C6.94,0,0,6.94,0,15.5S6.94,31,15.5,31S31,24.06,31,15.5S24.06,0,15.5,0L15.5,0z"/>
<circle style="fill:#93BC39;" cx="15.499" cy="15.5" r="12.25"/>
<path style="fill:#B7CC6B;" d="M15.5,3.25C8.745,3.25,3.25,8.745,3.25,15.5c0,0.153,0.017,0.301,0.023,0.453
	C4.45,10.273,9.47,6,15.5,6c6.031,0,11.052,4.275,12.227,9.958c0.006-0.153,0.023-0.303,0.023-0.458
	C27.75,8.745,22.254,3.25,15.5,3.25z"/>
<path style="fill:#472B29;" d="M15.499,3.5c6.617,0,12.001,5.383,12.001,12s-5.383,12-12.001,12C8.883,27.5,3.5,22.117,3.5,15.5
	S8.883,3.5,15.499,3.5 M15.499,3C8.607,3,3,8.608,3,15.5S8.607,28,15.499,28C22.393,28,28,22.392,28,15.5S22.393,3,15.499,3
	L15.499,3z"/>
<path style="fill:#FDFCEE;" d="M10.5,15.376c-0.288,0-0.576,0.11-0.795,0.329c-0.212,0.212-0.33,0.495-0.33,0.795
	s0.117,0.583,0.33,0.795l4,4c0.209,0.209,0.499,0.33,0.795,0.33l0.045-0.001c0.31-0.012,0.605-0.155,0.808-0.392l7.003-8.002
	c0.401-0.468,0.347-1.18-0.124-1.583c-0.229-0.196-0.519-0.287-0.819-0.269c-0.299,0.023-0.572,0.162-0.768,0.39l-6.213,7.073
	l-3.137-3.137C11.076,15.486,10.788,15.376,10.5,15.376z"/>
<path style="fill:#472B29;" d="M21.5,11.75L21.5,11.75c0.126,0,0.313,0.032,0.488,0.182c0.152,0.13,0.244,0.312,0.259,0.511
	c0.015,0.2-0.048,0.394-0.174,0.54l-7.006,8.005c-0.135,0.158-0.332,0.253-0.569,0.261c-0.198,0-0.391-0.08-0.53-0.22l-4-4
	c-0.142-0.141-0.22-0.33-0.22-0.53s0.078-0.389,0.22-0.53c0.142-0.142,0.33-0.22,0.53-0.22s0.388,0.078,0.53,0.22l2.854,2.854
	l0.566,0.566l0.528-0.601l5.953-6.776C21.074,11.846,21.281,11.75,21.5,11.75 M21.5,11c-0.423,0-0.842,0.178-1.139,0.525
	l-5.946,6.769l-2.854-2.854c-0.293-0.293-0.677-0.439-1.061-0.439s-0.768,0.146-1.061,0.439c-0.586,0.585-0.586,1.536,0,2.121l4,4
	C13.72,21.843,14.102,22,14.5,22c0.02,0,0.038,0,0.058-0.001c0.417-0.016,0.81-0.206,1.081-0.523l7-7.999
	c0.539-0.629,0.467-1.576-0.162-2.115C22.193,11.119,21.846,11,21.5,11L21.5,11z"/>
</svg>
