<?xml version="1.0" encoding="iso-8859-1"?>
<!-- Generator: Adobe Illustrator 22.1.0, SVG Export Plug-In . SVG Version: 6.00 Build 0)  -->
<svg version="1.1" id="Layer_1" xmlns="http://www.w3.org/2000/svg" xmlns:xlink="http://www.w3.org/1999/xlink" x="0px" y="0px"
	 viewBox="0 0 31 31" style="enable-background:new 0 0 31 31;" xml:space="preserve">
<circle style="fill:#FDFCEF;" cx="15.5" cy="15.5" r="15"/>
<path style="fill:#472B29;" d="M15.5,1.4c7.775,0,14.1,6.325,14.1,14.1s-6.325,14.1-14.1,14.1S1.4,23.275,1.4,15.5
	S7.725,1.4,15.5,1.4 M15.5,0C6.94,0,0,6.94,0,15.5S6.94,31,15.5,31S31,24.06,31,15.5S24.06,0,15.5,0L15.5,0z"/>
<circle style="fill:#42B7BA;" cx="15.499" cy="15.5" r="12.25"/>
<path style="fill:#5EC3C9;" d="M15.5,3.25C8.745,3.25,3.25,8.745,3.25,15.5c0,0.153,0.017,0.301,0.023,0.453
	C4.45,10.273,9.47,6,15.5,6c6.031,0,11.052,4.275,12.227,9.958c0.006-0.153,0.023-0.303,0.023-0.458
	C27.75,8.745,22.254,3.25,15.5,3.25z"/>
<path style="fill:#472B29;" d="M15.499,3.5c6.617,0,12.001,5.383,12.001,12s-5.383,12-12.001,12C8.883,27.5,3.5,22.117,3.5,15.5
	S8.883,3.5,15.499,3.5 M15.499,3C8.607,3,3,8.608,3,15.5S8.607,28,15.499,28C22.393,28,28,22.392,28,15.5S22.393,3,15.499,3
	L15.499,3z"/>
<circle style="fill:#FEFDEF;" cx="15.5" cy="15.491" r="6"/>
<path style="fill:#472B29;" d="M15.5,22C11.916,22,9,19.084,9,15.5S11.916,9,15.5,9s6.5,2.916,6.5,6.5S19.084,22,15.5,22z
	 M15.5,9.741c-3.17,0-5.75,2.58-5.75,5.75s2.58,5.75,5.75,5.75s5.75-2.58,5.75-5.75S18.67,9.741,15.5,9.741z M17.895,17.886
	c0.146-0.146,0.146-0.384,0-0.53l-2.02-2.02v-2.96c0-0.207-0.168-0.375-0.375-0.375s-0.375,0.168-0.375,0.375v3.116
	c0,0.1,0.04,0.195,0.11,0.265l2.129,2.13c0.073,0.073,0.169,0.11,0.265,0.11C17.725,17.996,17.821,17.959,17.895,17.886z"/>
</svg>
