<?xml version="1.0" encoding="iso-8859-1"?>
<!-- Generator: Adobe Illustrator 22.1.0, SVG Export Plug-In . SVG Version: 6.00 Build 0)  -->
<svg version="1.1" id="Layer_1" xmlns="http://www.w3.org/2000/svg" xmlns:xlink="http://www.w3.org/1999/xlink" x="0px" y="0px"
	 viewBox="0 0 31 31" style="enable-background:new 0 0 31 31;" xml:space="preserve">
<circle style="fill:#FDFCEF;" cx="15.5" cy="15.5" r="15"/>
<path style="fill:#472B29;" d="M15.5,1.4c7.775,0,14.1,6.325,14.1,14.1s-6.325,14.1-14.1,14.1S1.4,23.275,1.4,15.5
	S7.725,1.4,15.5,1.4 M15.5,0C6.94,0,0,6.94,0,15.5S6.94,31,15.5,31S31,24.06,31,15.5S24.06,0,15.5,0L15.5,0z"/>
<circle style="fill:#F1BC19;" cx="15.499" cy="15.5" r="12.25"/>
<path style="fill:#EED260;" d="M15.5,3.25C8.745,3.25,3.25,8.745,3.25,15.5c0,0.153,0.017,0.301,0.023,0.453
	C4.45,10.273,9.47,6,15.5,6c6.031,0,11.052,4.275,12.227,9.958c0.006-0.153,0.023-0.303,0.023-0.458
	C27.75,8.745,22.254,3.25,15.5,3.25z"/>
<path style="fill:#472B29;" d="M15.499,3.5c6.617,0,12.001,5.383,12.001,12s-5.383,12-12.001,12C8.883,27.5,3.5,22.117,3.5,15.5
	S8.883,3.5,15.499,3.5 M15.499,3C8.607,3,3,8.608,3,15.5S8.607,28,15.499,28C22.393,28,28,22.392,28,15.5S22.393,3,15.499,3
	L15.499,3z"/>
<path style="fill:#FEFDEF;" d="M15.5,11.375c-4.801,0-8.125,4.125-8.125,4.125s3.324,4.125,8.125,4.125s8.125-4.125,8.125-4.125
	S20.301,11.375,15.5,11.375z"/>
<ellipse style="fill:#78A0CF;" cx="15.5" cy="15.5" rx="4.189" ry="4.125"/>
<path style="fill:#472B29;" d="M23.917,15.265C23.776,15.09,20.424,11,15.5,11s-8.276,4.09-8.417,4.265
	c-0.11,0.137-0.11,0.333,0,0.471C7.224,15.91,10.576,20,15.5,20s8.276-4.09,8.417-4.265C24.027,15.598,24.027,15.402,23.917,15.265z
	 M19.314,15.5c0,2.068-1.711,3.75-3.814,3.75s-3.814-1.682-3.814-3.75s1.711-3.75,3.814-3.75S19.314,13.432,19.314,15.5z
	 M7.873,15.5c0.539-0.59,2.1-2.148,4.3-3.059c-0.761,0.804-1.237,1.875-1.237,3.059c0,1.183,0.475,2.253,1.235,3.057
	C9.975,17.645,8.412,16.089,7.873,15.5z M18.827,18.559c0.761-0.804,1.237-1.875,1.237-3.059c0-1.183-0.475-2.253-1.235-3.057
	c2.196,0.912,3.758,2.468,4.298,3.058C22.588,16.091,21.026,17.648,18.827,18.559z M14,15.5c0-0.828,0.672-1.5,1.5-1.5
	c0.828,0,1.5,0.672,1.5,1.5c0,0.828-0.672,1.5-1.5,1.5S14,16.328,14,15.5z"/>
</svg>
