<?xml version="1.0" encoding="iso-8859-1"?>
<!-- Generator: Adobe Illustrator 22.1.0, SVG Export Plug-In . SVG Version: 6.00 Build 0)  -->
<svg version="1.1" id="Layer_1" xmlns="http://www.w3.org/2000/svg" xmlns:xlink="http://www.w3.org/1999/xlink" x="0px" y="0px"
	 viewBox="0 0 31 31" style="enable-background:new 0 0 31 31;" xml:space="preserve">
<circle style="fill:#FDFCEF;" cx="15.5" cy="15.5" r="15"/>
<path style="fill:#472B29;" d="M15.5,1.4c7.775,0,14.1,6.325,14.1,14.1s-6.325,14.1-14.1,14.1S1.4,23.275,1.4,15.5
	S7.725,1.4,15.5,1.4 M15.5,0C6.94,0,0,6.94,0,15.5S6.94,31,15.5,31S31,24.06,31,15.5S24.06,0,15.5,0L15.5,0z"/>
<circle style="fill:#F1BC19;" cx="15.499" cy="15.5" r="12.25"/>
<path style="fill:#EED260;" d="M15.5,3.25C8.745,3.25,3.25,8.745,3.25,15.5c0,0.153,0.017,0.301,0.023,0.453
	C4.45,10.273,9.47,6,15.5,6c6.031,0,11.052,4.275,12.227,9.958c0.006-0.153,0.023-0.303,0.023-0.458
	C27.75,8.745,22.254,3.25,15.5,3.25z"/>
<path style="fill:#472B29;" d="M15.499,3.5c6.617,0,12.001,5.383,12.001,12s-5.383,12-12.001,12C8.883,27.5,3.5,22.117,3.5,15.5
	S8.883,3.5,15.499,3.5 M15.499,3C8.607,3,3,8.608,3,15.5S8.607,28,15.499,28C22.393,28,28,22.392,28,15.5S22.393,3,15.499,3
	L15.499,3z"/>
<path style="fill:#472B29;" d="M23.813,15.312l-1.743-1.01c0.417-0.37,0.662-0.642,0.695-0.679c0.137-0.155,0.122-0.392-0.033-0.529
	s-0.392-0.122-0.529,0.033c-0.027,0.031-2.802,3.123-6.703,3.123s-6.676-3.092-6.703-3.123c-0.137-0.155-0.374-0.17-0.529-0.033
	s-0.17,0.374-0.033,0.529c0.033,0.038,0.279,0.309,0.695,0.679l-1.743,1.01c-0.179,0.104-0.24,0.333-0.136,0.513
	c0.069,0.12,0.195,0.187,0.324,0.187c0.064,0,0.129-0.016,0.188-0.05l1.983-1.149c0.563,0.435,1.293,0.913,2.159,1.314l-1.635,2.28
	c-0.121,0.168-0.082,0.402,0.086,0.523c0.066,0.047,0.143,0.07,0.219,0.07c0.116,0,0.231-0.054,0.305-0.157l1.735-2.42
	c0.812,0.303,1.722,0.514,2.71,0.559v2.643c0,0.207,0.168,0.375,0.375,0.375s0.375-0.168,0.375-0.375v-2.643
	c1.035-0.047,1.983-0.277,2.824-0.603l1.613,2.452C20.384,18.94,20.503,19,20.625,19c0.071,0,0.143-0.02,0.206-0.062
	c0.173-0.114,0.221-0.347,0.107-0.52l-1.54-2.341c0.821-0.391,1.515-0.849,2.055-1.266l1.982,1.149
	c0.06,0.035,0.124,0.051,0.188,0.051c0.129,0,0.255-0.067,0.324-0.187C24.054,15.645,23.992,15.416,23.813,15.312z"/>
</svg>
