<?xml version="1.0" encoding="iso-8859-1"?>
<!-- Generator: Adobe Illustrator 22.1.0, SVG Export Plug-In . SVG Version: 6.00 Build 0)  -->
<svg version="1.1" id="Layer_1" xmlns="http://www.w3.org/2000/svg" xmlns:xlink="http://www.w3.org/1999/xlink" x="0px" y="0px"
	 viewBox="0 0 31 31" style="enable-background:new 0 0 31 31;" xml:space="preserve">
<circle style="fill:#FDFCEF;" cx="15.5" cy="15.5" r="15"/>
<path style="fill:#472B29;" d="M15.5,1.4c7.775,0,14.1,6.325,14.1,14.1s-6.325,14.1-14.1,14.1S1.4,23.275,1.4,15.5
	S7.725,1.4,15.5,1.4 M15.5,0C6.94,0,0,6.94,0,15.5S6.94,31,15.5,31S31,24.06,31,15.5S24.06,0,15.5,0L15.5,0z"/>
<circle style="fill:#A2B3CB;" cx="15.499" cy="15.5" r="12.25"/>
<path style="fill:#BDC4D6;" d="M15.5,3.25C8.745,3.25,3.25,8.745,3.25,15.5c0,0.153,0.017,0.301,0.023,0.453
	C4.45,10.273,9.47,6,15.5,6c6.031,0,11.052,4.275,12.227,9.958c0.006-0.153,0.023-0.303,0.023-0.458
	C27.75,8.745,22.254,3.25,15.5,3.25z"/>
<path style="fill:#472B29;" d="M15.499,3.5c6.617,0,12.001,5.383,12.001,12s-5.383,12-12.001,12C8.883,27.5,3.5,22.117,3.5,15.5
	S8.883,3.5,15.499,3.5 M15.499,3C8.607,3,3,8.608,3,15.5S8.607,28,15.499,28C22.393,28,28,22.392,28,15.5S22.393,3,15.499,3
	L15.499,3z"/>
<path style="fill:#472B29;" d="M12.488,11.135c0-0.374,0.262-0.74,0.784-1.099C13.795,9.679,14.458,9.5,15.261,9.5
	c1.008,0,1.802,0.261,2.382,0.782c0.579,0.522,0.869,1.185,0.869,1.993c0,0.333-0.048,0.653-0.145,0.96
	c-0.097,0.306-0.235,0.586-0.418,0.838c-0.182,0.253-0.346,0.463-0.49,0.629c-0.144,0.167-0.326,0.35-0.546,0.549
	s-0.351,0.32-0.393,0.362c-0.316,0.29-0.512,0.587-0.586,0.887c-0.074,0.301-0.111,0.758-0.111,1.371c0,0.334-0.246,0.5-0.737,0.5
	c-0.247,0-0.423-0.054-0.528-0.161c-0.105-0.108-0.158-0.302-0.158-0.582c0-1.229,0.312-2.113,0.934-2.651
	c0.069-0.065,0.217-0.183,0.441-0.355c0.225-0.172,0.393-0.315,0.503-0.428c0.109-0.113,0.238-0.265,0.385-0.453
	c0.147-0.189,0.255-0.394,0.323-0.614s0.103-0.455,0.103-0.703c0-0.518-0.166-0.919-0.499-1.204
	c-0.332-0.286-0.792-0.429-1.381-0.429c-0.341,0-0.632,0.052-0.871,0.157c-0.24,0.104-0.408,0.222-0.505,0.353
	c-0.096,0.132-0.202,0.25-0.319,0.354c-0.118,0.104-0.24,0.157-0.368,0.157c-0.16,0-0.31-0.061-0.448-0.181
	C12.558,11.508,12.488,11.344,12.488,11.135z M14.16,20.613c0-0.246,0.09-0.456,0.271-0.628s0.405-0.259,0.671-0.259
	c0.274,0,0.511,0.087,0.71,0.259s0.299,0.382,0.299,0.628c0,0.237-0.1,0.444-0.299,0.621c-0.199,0.177-0.436,0.266-0.71,0.266
	c-0.266,0-0.49-0.089-0.671-0.266C14.25,21.057,14.16,20.85,14.16,20.613z"/>
</svg>
