<?xml version="1.0" encoding="iso-8859-1"?>
<!-- Generator: Adobe Illustrator 22.1.0, SVG Export Plug-In . SVG Version: 6.00 Build 0)  -->
<svg version="1.1" id="Layer_1" xmlns="http://www.w3.org/2000/svg" xmlns:xlink="http://www.w3.org/1999/xlink" x="0px" y="0px"
	 viewBox="0 0 31 31" style="enable-background:new 0 0 31 31;" xml:space="preserve">
<circle style="fill:#FDFCEF;" cx="15.5" cy="15.5" r="15"/>
<path style="fill:#472B29;" d="M15.5,1.4c7.775,0,14.1,6.325,14.1,14.1s-6.325,14.1-14.1,14.1S1.4,23.275,1.4,15.5
	S7.725,1.4,15.5,1.4 M15.5,0C6.94,0,0,6.94,0,15.5S6.94,31,15.5,31S31,24.06,31,15.5S24.06,0,15.5,0L15.5,0z"/>
<circle style="fill:#EE3E54;" cx="15.499" cy="15.5" r="12.25"/>
<path style="fill:#F3858F;" d="M15.5,3.25C8.745,3.25,3.25,8.745,3.25,15.5c0,0.153,0.017,0.301,0.023,0.453
	C4.45,10.273,9.47,6,15.5,6c6.031,0,11.052,4.275,12.227,9.958c0.006-0.153,0.023-0.303,0.023-0.458
	C27.75,8.745,22.254,3.25,15.5,3.25z"/>
<path style="fill:#472B29;" d="M15.499,3.5c6.617,0,12.001,5.383,12.001,12s-5.383,12-12.001,12C8.883,27.5,3.5,22.117,3.5,15.5
	S8.883,3.5,15.499,3.5 M15.499,3C8.607,3,3,8.608,3,15.5S8.607,28,15.499,28C22.393,28,28,22.392,28,15.5S22.393,3,15.499,3
	L15.499,3z"/>
<path style="fill:#472B29;" d="M14.524,20.572c0-0.244,0.1-0.452,0.299-0.623s0.442-0.257,0.728-0.257
	c0.251,0,0.468,0.086,0.65,0.257c0.184,0.171,0.275,0.379,0.275,0.623c0,0.235-0.092,0.44-0.275,0.616
	c-0.183,0.176-0.399,0.264-0.65,0.264c-0.285,0-0.528-0.088-0.728-0.264C14.624,21.012,14.524,20.807,14.524,20.572z M14.62,10.328
	c0-0.249,0.085-0.441,0.254-0.577c0.17-0.135,0.39-0.203,0.659-0.203S16,9.619,16.126,9.759c0.126,0.141,0.189,0.331,0.189,0.569
	c0,0.781-0.014,2.054-0.04,3.82c-0.027,1.767-0.04,3.04-0.04,3.82c0,0.163-0.076,0.29-0.229,0.382
	c-0.152,0.092-0.311,0.138-0.475,0.138c-0.48,0-0.721-0.173-0.721-0.52c0-0.78-0.032-2.054-0.097-3.82
	C14.652,12.382,14.62,11.109,14.62,10.328z"/>
</svg>
