<?xml version="1.0" encoding="iso-8859-1"?>
<!-- Generator: Adobe Illustrator 22.1.0, SVG Export Plug-In . SVG Version: 6.00 Build 0)  -->
<svg version="1.1" id="Layer_1" xmlns="http://www.w3.org/2000/svg" xmlns:xlink="http://www.w3.org/1999/xlink" x="0px" y="0px"
	 viewBox="0 0 31 31" style="enable-background:new 0 0 31 31;" xml:space="preserve">
<circle style="fill:#FDFCEF;" cx="15.5" cy="15.5" r="15"/>
<path style="fill:#472B29;" d="M15.5,1.4c7.775,0,14.1,6.325,14.1,14.1s-6.325,14.1-14.1,14.1S1.4,23.275,1.4,15.5
	S7.725,1.4,15.5,1.4 M15.5,0C6.94,0,0,6.94,0,15.5S6.94,31,15.5,31S31,24.06,31,15.5S24.06,0,15.5,0L15.5,0z"/>
<circle style="fill:#78A0CF;" cx="15.499" cy="15.5" r="12.25"/>
<path style="fill:#A0C4E9;" d="M15.5,3.25C8.745,3.25,3.25,8.745,3.25,15.5c0,0.153,0.017,0.301,0.023,0.453
	C4.45,10.273,9.47,6,15.5,6c6.031,0,11.052,4.275,12.227,9.958c0.006-0.153,0.023-0.303,0.023-0.458
	C27.75,8.745,22.254,3.25,15.5,3.25z"/>
<path style="fill:#472B29;" d="M15.499,3.5c6.617,0,12.001,5.383,12.001,12s-5.383,12-12.001,12C8.883,27.5,3.5,22.117,3.5,15.5
	S8.883,3.5,15.499,3.5 M15.499,3C8.607,3,3,8.608,3,15.5S8.607,28,15.499,28C22.393,28,28,22.392,28,15.5S22.393,3,15.499,3
	L15.499,3z"/>
<path style="fill:#FEFDEF;" d="M11.492,21.766h8.016v-2.742c0-1.775-1.297-2.771-2.07-3.206l-0.362-0.204l0.351-0.224
	c0.777-0.498,2.082-1.604,2.082-3.413V9.234h-8.016v2.742c0,1.809,1.298,2.915,2.071,3.413l0.348,0.224l-0.36,0.204
	c-0.769,0.435-2.059,1.431-2.059,3.206v2.743C11.493,21.766,11.492,21.766,11.492,21.766z"/>
<path style="fill:#F9E65C;" d="M12,21.344v0.297h7v-0.266c0,0-1.75-3.125-3.5-3.125S12,21.344,12,21.344z"/>
<path style="fill:#F9E65C;" d="M18.871,12.317c-0.52,0.13-1.886,0.433-3.371,0.433c-1.486,0-2.853-0.303-3.371-0.434l-0.382-0.096
	l0.076,0.387c0.343,1.746,2.006,2.668,2.354,2.843c0.48,0.199,0.926,0.299,1.323,0.299c0.366,0,0.775-0.085,1.229-0.261
	c0.211-0.097,2.071-1.003,2.447-2.881l0.078-0.388L18.871,12.317z"/>
<path style="fill:#472B29;" d="M20.626,21.237h-0.891V19c0-1.88-1.334-2.932-2.192-3.416c0.85-0.544,2.192-1.705,2.192-3.614V9.748
	H20.6c0.207,0,0.374-0.168,0.374-0.374C20.974,9.168,20.806,9,20.6,9H10.374C10.168,9,10,9.168,10,9.374
	c0,0.207,0.168,0.374,0.374,0.374h0.865v2.221c0,1.909,1.336,3.071,2.181,3.614c-0.853,0.483-2.181,1.536-2.181,3.416v2.237h-0.865
	c-0.207,0-0.374,0.168-0.374,0.374s0.168,0.374,0.374,0.374h10.252c0.207,0,0.374-0.168,0.374-0.374S20.832,21.237,20.626,21.237z
	 M12.34,21.235c0.563-0.923,1.936-2.735,3.16-2.735c1.332,0,2.72,2.049,3.142,2.735H12.34z M19.008,9.75v2.226
	c0,0.017-0.006,0.031-0.006,0.048c-0.26,0.071-1.814,0.475-3.502,0.475s-3.242-0.405-3.502-0.475c0-0.017-0.006-0.031-0.006-0.048
	V9.75H19.008z M12.068,12.559C12.618,12.697,13.989,13,15.5,13c1.51,0,2.88-0.302,3.431-0.441c-0.349,1.747-2.119,2.617-2.307,2.703
	C16.317,15.38,15.907,15.5,15.5,15.5c-0.454,0-0.912-0.15-1.227-0.28C13.836,14.998,12.378,14.133,12.068,12.559z M14.369,15.98
	c0.074-0.025,0.137-0.072,0.181-0.132C14.838,15.933,15.167,16,15.5,16c0.328,0,0.652-0.065,0.937-0.148
	c0.045,0.059,0.107,0.105,0.181,0.129c0.023,0.008,2.391,0.816,2.391,3.042v1.88C18.477,20.06,17.023,18,15.5,18
	s-2.977,2.04-3.508,2.875v-1.851C11.992,16.808,14.272,16.013,14.369,15.98z"/>
</svg>
