<?xml version="1.0" encoding="iso-8859-1"?>
<!-- Generator: Adobe Illustrator 22.1.0, SVG Export Plug-In . SVG Version: 6.00 Build 0)  -->
<svg version="1.1" id="Layer_1" xmlns="http://www.w3.org/2000/svg" xmlns:xlink="http://www.w3.org/1999/xlink" x="0px" y="0px"
	 viewBox="0 0 31 31" style="enable-background:new 0 0 31 31;" xml:space="preserve">
<circle style="fill:#FDFCEF;" cx="15.5" cy="15.5" r="15"/>
<path style="fill:#472B29;" d="M15.5,1.4c7.775,0,14.1,6.325,14.1,14.1s-6.325,14.1-14.1,14.1S1.4,23.275,1.4,15.5
	S7.725,1.4,15.5,1.4 M15.5,0C6.94,0,0,6.94,0,15.5S6.94,31,15.5,31S31,24.06,31,15.5S24.06,0,15.5,0L15.5,0z"/>
<circle style="fill:#F1BC19;" cx="15.499" cy="15.5" r="12.25"/>
<path style="fill:#EED260;" d="M15.5,3.25C8.745,3.25,3.25,8.745,3.25,15.5c0,0.153,0.017,0.301,0.023,0.453
	C4.45,10.273,9.47,6,15.5,6c6.031,0,11.052,4.275,12.227,9.958c0.006-0.153,0.023-0.303,0.023-0.458
	C27.75,8.745,22.254,3.25,15.5,3.25z"/>
<path style="fill:#472B29;" d="M15.499,3.5c6.617,0,12.001,5.383,12.001,12s-5.383,12-12.001,12C8.883,27.5,3.5,22.117,3.5,15.5
	S8.883,3.5,15.499,3.5 M15.499,3C8.607,3,3,8.608,3,15.5S8.607,28,15.499,28C22.393,28,28,22.392,28,15.5S22.393,3,15.499,3
	L15.499,3z"/>
<path style="fill:#78A0CF;" d="M13.235,9.376l-0.86,6.718c0,0-1,0.414-1,1.657s0,1.875,0,1.875h8.25c0,0,0-0.633,0-1.875
	s-1.038-1.657-1.038-1.657l-0.822-6.718C17.765,9.376,13.235,9.376,13.235,9.376z"/>
<path style="fill:#472B29;" d="M20.625,19.25H20v-1.5c0-1.122-0.703-1.683-1.065-1.898L18.188,9.75h0.437
	C18.832,9.75,19,9.583,19,9.375S18.832,9,18.625,9h-6.25C12.168,9,12,9.168,12,9.375s0.168,0.375,0.375,0.375h0.434l-0.782,6.104
	C11.677,16.071,11,16.633,11,17.75v1.5h-0.625c-0.207,0-0.375,0.168-0.375,0.375S10.168,20,10.375,20h4.75v3.625
	c0,0.207,0.168,0.375,0.375,0.375s0.375-0.168,0.375-0.375V20h4.75C20.832,20,21,19.832,21,19.625S20.832,19.25,20.625,19.25z
	 M17.433,9.75L18.198,16h-5.433l0.8-6.25H17.433z M11.75,17.75c0-0.754,0.449-1.119,0.66-1.25h6.149
	c0.219,0.129,0.691,0.494,0.691,1.25v1.5h-7.5V17.75z"/>
</svg>
