<?xml version="1.0" encoding="iso-8859-1"?>
<!-- Generator: Adobe Illustrator 22.1.0, SVG Export Plug-In . SVG Version: 6.00 Build 0)  -->
<svg version="1.1" id="Layer_1" xmlns="http://www.w3.org/2000/svg" xmlns:xlink="http://www.w3.org/1999/xlink" x="0px" y="0px"
	 viewBox="0 0 31 31" style="enable-background:new 0 0 31 31;" xml:space="preserve">
<circle style="fill:#FDFCEF;" cx="15.5" cy="15.5" r="15"/>
<path style="fill:#472B29;" d="M15.5,1.4c7.775,0,14.1,6.325,14.1,14.1s-6.325,14.1-14.1,14.1S1.4,23.275,1.4,15.5
	S7.725,1.4,15.5,1.4 M15.5,0C6.94,0,0,6.94,0,15.5S6.94,31,15.5,31S31,24.06,31,15.5S24.06,0,15.5,0L15.5,0z"/>
<circle style="fill:#A2B3CB;" cx="15.499" cy="15.5" r="12.25"/>
<path style="fill:#BDC4D6;" d="M15.5,3.25C8.745,3.25,3.25,8.745,3.25,15.5c0,0.153,0.017,0.301,0.023,0.453
	C4.45,10.273,9.47,6,15.5,6c6.031,0,11.052,4.275,12.227,9.958c0.006-0.153,0.023-0.303,0.023-0.458
	C27.75,8.745,22.254,3.25,15.5,3.25z"/>
<path style="fill:#472B29;" d="M15.499,3.5c6.617,0,12.001,5.383,12.001,12s-5.383,12-12.001,12C8.883,27.5,3.5,22.117,3.5,15.5
	S8.883,3.5,15.499,3.5 M15.499,3C8.607,3,3,8.608,3,15.5S8.607,28,15.499,28C22.393,28,28,22.392,28,15.5S22.393,3,15.499,3
	L15.499,3z"/>
<rect x="10.375" y="10.375" style="fill:#EE3E54;" width="3.25" height="10.25"/>
<rect x="17.375" y="10.375" style="fill:#EE3E54;" width="3.25" height="10.25"/>
<path style="fill:#472B29;" d="M13.625,21h-3.25C10.168,21,10,20.832,10,20.625v-10.25C10,10.168,10.168,10,10.375,10h3.25
	C13.832,10,14,10.168,14,10.375v10.25C14,20.832,13.832,21,13.625,21z M10.75,20.25h2.5v-9.5h-2.5V20.25z"/>
<path style="fill:#472B29;" d="M20.625,21h-3.25C17.168,21,17,20.832,17,20.625v-10.25C17,10.168,17.168,10,17.375,10h3.25
	C20.832,10,21,10.168,21,10.375v10.25C21,20.832,20.832,21,20.625,21z M17.75,20.25h2.5v-9.5h-2.5V20.25z"/>
</svg>
