<?xml version="1.0" encoding="iso-8859-1"?>
<!-- Generator: Adobe Illustrator 22.1.0, SVG Export Plug-In . SVG Version: 6.00 Build 0)  -->
<svg version="1.1" id="Layer_1" xmlns="http://www.w3.org/2000/svg" xmlns:xlink="http://www.w3.org/1999/xlink" x="0px" y="0px"
	 viewBox="0 0 31 31" style="enable-background:new 0 0 31 31;" xml:space="preserve">
<circle style="fill:#FDFCEF;" cx="15.5" cy="15.5" r="15"/>
<path style="fill:#472B29;" d="M15.5,1.4c7.775,0,14.1,6.325,14.1,14.1s-6.325,14.1-14.1,14.1S1.4,23.275,1.4,15.5
	S7.725,1.4,15.5,1.4 M15.5,0C6.94,0,0,6.94,0,15.5S6.94,31,15.5,31S31,24.06,31,15.5S24.06,0,15.5,0L15.5,0z"/>
<circle style="fill:#F1BC19;" cx="15.499" cy="15.5" r="12.25"/>
<path style="fill:#EED260;" d="M15.5,3.25C8.745,3.25,3.25,8.745,3.25,15.5c0,0.153,0.017,0.301,0.023,0.453
	C4.45,10.273,9.47,6,15.5,6c6.031,0,11.052,4.275,12.227,9.958c0.006-0.153,0.023-0.303,0.023-0.458
	C27.75,8.745,22.254,3.25,15.5,3.25z"/>
<path style="fill:#472B29;" d="M15.499,3.5c6.617,0,12.001,5.383,12.001,12s-5.383,12-12.001,12C8.883,27.5,3.5,22.117,3.5,15.5
	S8.883,3.5,15.499,3.5 M15.499,3C8.607,3,3,8.608,3,15.5S8.607,28,15.499,28C22.393,28,28,22.392,28,15.5S22.393,3,15.499,3
	L15.499,3z"/>
<path style="fill:#7783AD;" d="M12.612,14.25c-0.31,0.872-1.134,1.5-2.112,1.5h11.25c1.625,0,2-1.5,2-1.5H12.612z"/>
<path style="fill:#7783AD;" d="M13.5,17.125c0.381,0,0.737,0.098,1.056,0.258l7.261-7.261c0,0-1.414-0.707-2.563,0.442l-6.83,6.83
	C12.749,17.228,13.111,17.125,13.5,17.125z"/>
<path style="fill:#472B29;" d="M15.75,15c0-0.138,0.112-0.25,0.25-0.25c0.138,0,0.25,0.112,0.25,0.25s-0.112,0.25-0.25,0.25
	S15.75,15.138,15.75,15z M23.992,14.313C23.739,15.291,22.796,16,21.75,16h-5.457l-1.416,1.416C15.552,17.864,16,18.63,16,19.5
	c0,1.378-1.121,2.5-2.5,2.5S11,20.878,11,19.5c0-0.688,0.28-1.312,0.731-1.765c0.001-0.001,0-0.002,0.001-0.003L13.465,16H10.5
	C9.121,16,8,14.878,8,13.5S9.121,11,10.5,11s2.5,1.122,2.5,2.5c0,0.171-0.018,0.338-0.051,0.5h2.515l3.613-3.613
	c0.739-0.739,1.906-0.904,2.778-0.392c0.066,0.039,0.111,0.107,0.121,0.184s-0.017,0.154-0.071,0.208L18.293,14h5.457
	c0.077,0,0.15,0.036,0.197,0.097C23.995,14.158,24.012,14.238,23.992,14.313z M16.171,14h1.415l3.711-3.711
	c-0.624-0.208-1.378-0.036-1.866,0.452L16.171,14z M12.25,13.5c0-0.965-0.785-1.75-1.75-1.75s-1.75,0.785-1.75,1.75
	s0.785,1.75,1.75,1.75S12.25,14.465,12.25,13.5z M13.5,17.75c-0.965,0-1.75,0.785-1.75,1.75s0.785,1.75,1.75,1.75
	s1.75-0.785,1.75-1.75S14.465,17.75,13.5,17.75z M15.586,16h-1.414l-1.037,1.037C13.255,17.019,13.375,17,13.5,17
	c0.321,0,0.626,0.066,0.909,0.177L15.586,16z M23.39,14.5H12.788c-0.176,0.401-0.456,0.742-0.803,1h9.765
	C22.441,15.5,23.095,15.087,23.39,14.5z"/>
</svg>
