<?xml version="1.0" encoding="iso-8859-1"?>
<!-- Generator: Adobe Illustrator 22.1.0, SVG Export Plug-In . SVG Version: 6.00 Build 0)  -->
<svg version="1.1" id="Layer_1" xmlns="http://www.w3.org/2000/svg" xmlns:xlink="http://www.w3.org/1999/xlink" x="0px" y="0px"
	 viewBox="0 0 31 31" style="enable-background:new 0 0 31 31;" xml:space="preserve">
<circle style="fill:#FDFCEF;" cx="15.5" cy="15.5" r="15"/>
<path style="fill:#472B29;" d="M15.5,1.4c7.775,0,14.1,6.325,14.1,14.1s-6.325,14.1-14.1,14.1S1.4,23.275,1.4,15.5
	S7.725,1.4,15.5,1.4 M15.5,0C6.94,0,0,6.94,0,15.5S6.94,31,15.5,31S31,24.06,31,15.5S24.06,0,15.5,0L15.5,0z"/>
<circle style="fill:#F1BC19;" cx="15.499" cy="15.5" r="12.25"/>
<path style="fill:#EED260;" d="M15.5,3.25C8.745,3.25,3.25,8.745,3.25,15.5c0,0.153,0.017,0.301,0.023,0.453
	C4.45,10.273,9.47,6,15.5,6c6.031,0,11.052,4.275,12.227,9.958c0.006-0.153,0.023-0.303,0.023-0.458
	C27.75,8.745,22.254,3.25,15.5,3.25z"/>
<path style="fill:#472B29;" d="M15.499,3.5c6.617,0,12.001,5.383,12.001,12s-5.383,12-12.001,12C8.883,27.5,3.5,22.117,3.5,15.5
	S8.883,3.5,15.499,3.5 M15.499,3C8.607,3,3,8.608,3,15.5S8.607,28,15.499,28C22.393,28,28,22.392,28,15.5S22.393,3,15.499,3
	L15.499,3z"/>
<circle style="fill:#00A5A5;" cx="15.5" cy="20.5" r="1.125"/>
<path style="fill:#472B29;" d="M15.5,22c-0.827,0-1.5-0.673-1.5-1.5s0.673-1.5,1.5-1.5s1.5,0.673,1.5,1.5S16.327,22,15.5,22z
	 M15.5,19.75c-0.413,0-0.75,0.336-0.75,0.75s0.337,0.75,0.75,0.75s0.75-0.336,0.75-0.75S15.913,19.75,15.5,19.75z"/>
<path style="fill:#00A5A5;" d="M15.5,14.384c-1.406,0-2.726,0.463-3.816,1.337l1.514,1.686c1.357-1.031,3.252-1.02,4.602-0.012
	l1.509-1.681C18.219,14.845,16.902,14.385,15.5,14.384z"/>
<path style="fill:#472B29;" d="M15.5,14.759c1.182,0,2.3,0.349,3.256,1.012l-1.008,1.134c-0.676-0.429-1.447-0.654-2.247-0.654
	c-0.801,0-1.571,0.225-2.247,0.654l-1.008-1.134C13.2,15.108,14.318,14.76,15.5,14.759 M15.5,14.009
	c-1.532,0.001-2.939,0.529-4.051,1.42c-0.163,0.131-0.176,0.378-0.037,0.535l1.505,1.693c0.072,0.081,0.17,0.12,0.269,0.12
	c0.083,0,0.167-0.027,0.24-0.081c0.58-0.434,1.295-0.695,2.074-0.695c0.779,0,1.493,0.261,2.074,0.695
	c0.072,0.054,0.157,0.081,0.24,0.081c0.1,0,0.198-0.04,0.269-0.12l1.505-1.693c0.139-0.156,0.126-0.404-0.037-0.535
	C18.439,14.538,17.032,14.01,15.5,14.009L15.5,14.009z"/>
<path style="fill:#00A5A5;" d="M15.5,9.382c-2.601,0-5.133,0.924-7.13,2.601l1.503,1.685c1.575-1.316,3.577-2.038,5.627-2.039
	c2.05,0,4.052,0.722,5.637,2.032l1.489-1.68l0.004,0.002C20.633,10.307,18.101,9.383,15.5,9.382z"/>
<path style="fill:#472B29;" d="M15.5,9.757L15.5,9.757c2.382,0,4.705,0.803,6.585,2.268l-0.996,1.121
	c-1.604-1.222-3.574-1.891-5.589-1.891s-3.986,0.669-5.589,1.891l-0.996-1.121C10.795,10.56,13.118,9.758,15.5,9.757 M15.5,9.007
	c-2.806,0-5.374,1.012-7.371,2.689c-0.16,0.134-0.173,0.378-0.035,0.534l1.499,1.686c0.072,0.081,0.17,0.121,0.27,0.121
	c0.084,0,0.169-0.029,0.24-0.087c1.469-1.214,3.347-1.946,5.398-1.946c2.05,0,3.929,0.732,5.398,1.946
	c0.071,0.058,0.156,0.087,0.24,0.087c0.099,0,0.198-0.041,0.27-0.121l1.499-1.686c0.139-0.156,0.125-0.4-0.035-0.534
	C20.874,10.019,18.306,9.008,15.5,9.007L15.5,9.007z"/>
</svg>
