<?xml version="1.0" encoding="iso-8859-1"?>
<!-- Generator: Adobe Illustrator 22.1.0, SVG Export Plug-In . SVG Version: 6.00 Build 0)  -->
<svg version="1.1" id="Layer_1" xmlns="http://www.w3.org/2000/svg" xmlns:xlink="http://www.w3.org/1999/xlink" x="0px" y="0px"
	 viewBox="0 0 31 31" style="enable-background:new 0 0 31 31;" xml:space="preserve">
<circle style="fill:#FDFCEF;" cx="15.5" cy="15.5" r="15"/>
<path style="fill:#472B29;" d="M15.5,1.4c7.775,0,14.1,6.325,14.1,14.1s-6.325,14.1-14.1,14.1S1.4,23.275,1.4,15.5
	S7.725,1.4,15.5,1.4 M15.5,0C6.94,0,0,6.94,0,15.5S6.94,31,15.5,31S31,24.06,31,15.5S24.06,0,15.5,0L15.5,0z"/>
<circle style="fill:#F1BC19;" cx="15.499" cy="15.5" r="12.25"/>
<path style="fill:#EED260;" d="M15.5,3.25C8.745,3.25,3.25,8.745,3.25,15.5c0,0.153,0.017,0.301,0.023,0.453
	C4.45,10.273,9.47,6,15.5,6c6.031,0,11.052,4.275,12.227,9.958c0.006-0.153,0.023-0.303,0.023-0.458
	C27.75,8.745,22.254,3.25,15.5,3.25z"/>
<path style="fill:#472B29;" d="M15.499,3.5c6.617,0,12.001,5.383,12.001,12s-5.383,12-12.001,12C8.883,27.5,3.5,22.117,3.5,15.5
	S8.883,3.5,15.499,3.5 M15.499,3C8.607,3,3,8.608,3,15.5S8.607,28,15.499,28C22.393,28,28,22.392,28,15.5S22.393,3,15.499,3
	L15.499,3z"/>
<polygon style="fill:#EE3E54;" points="22.625,20.626 15.501,8.525 8.375,20.626 "/>
<path style="fill:#472B29;" d="M22.949,20.437l-7.125-12.25c-0.135-0.231-0.514-0.231-0.648,0l-7.125,12.25
	c-0.067,0.116-0.068,0.259-0.001,0.375S8.241,21,8.375,21h14.25c0.134,0,0.258-0.072,0.325-0.188S23.017,20.553,22.949,20.437z
	 M9.027,20.25L15.5,9.122l6.473,11.129L9.027,20.25L9.027,20.25z M15.5,12c0.276,0,0.5,0.224,0.5,0.5v4c0,0.276-0.224,0.5-0.5,0.5
	S15,16.776,15,16.5v-4C15,12.224,15.224,12,15.5,12z M16,18.5c0,0.276-0.224,0.5-0.5,0.5S15,18.776,15,18.5s0.224-0.5,0.5-0.5
	S16,18.224,16,18.5z"/>
</svg>
