<?xml version="1.0" encoding="iso-8859-1"?>
<!-- Generator: Adobe Illustrator 22.1.0, SVG Export Plug-In . SVG Version: 6.00 Build 0)  -->
<svg version="1.1" id="Layer_1" xmlns="http://www.w3.org/2000/svg" xmlns:xlink="http://www.w3.org/1999/xlink" x="0px" y="0px"
	 viewBox="0 0 31 31" style="enable-background:new 0 0 31 31;" xml:space="preserve">
<circle style="fill:#FDFCEF;" cx="15.5" cy="15.5" r="15"/>
<path style="fill:#472B29;" d="M15.5,1.4c7.775,0,14.1,6.325,14.1,14.1s-6.325,14.1-14.1,14.1S1.4,23.275,1.4,15.5
	S7.725,1.4,15.5,1.4 M15.5,0C6.94,0,0,6.94,0,15.5S6.94,31,15.5,31S31,24.06,31,15.5S24.06,0,15.5,0L15.5,0z"/>
<circle style="fill:#F76D4D;" cx="15.499" cy="15.5" r="12.25"/>
<path style="fill:#F18868;" d="M15.5,3.25C8.745,3.25,3.25,8.745,3.25,15.5c0,0.153,0.017,0.301,0.023,0.453
	C4.45,10.273,9.47,6,15.5,6c6.031,0,11.052,4.275,12.227,9.958c0.006-0.153,0.023-0.303,0.023-0.458
	C27.75,8.745,22.254,3.25,15.5,3.25z"/>
<path style="fill:#472B29;" d="M15.499,3.5c6.617,0,12.001,5.383,12.001,12s-5.383,12-12.001,12C8.883,27.5,3.5,22.117,3.5,15.5
	S8.883,3.5,15.499,3.5 M15.499,3C8.607,3,3,8.608,3,15.5S8.607,28,15.499,28C22.393,28,28,22.392,28,15.5S22.393,3,15.499,3
	L15.499,3z"/>
<path style="fill:#472B29;" d="M12,17.951V13.05c0-1.226,0.317-2.125,0.95-2.695C13.583,9.786,14.43,9.5,15.492,9.5
	s1.911,0.285,2.55,0.855C18.681,10.925,19,11.823,19,13.05v4.901c0,1.226-0.319,2.125-0.958,2.694
	c-0.639,0.57-1.489,0.855-2.55,0.855s-1.908-0.284-2.542-0.855C12.317,20.076,12,19.178,12,17.951z M13.365,17.951
	c0,1.541,0.709,2.312,2.127,2.312c0.683,0,1.21-0.193,1.584-0.578c0.374-0.385,0.561-0.963,0.561-1.733V13.05
	c0-0.77-0.187-1.349-0.561-1.734c-0.373-0.385-0.901-0.578-1.584-0.578c-1.419,0-2.127,0.771-2.127,2.313
	C13.365,13.051,13.365,17.951,13.365,17.951z"/>
</svg>
