<?xml version="1.0" encoding="iso-8859-1"?>
<!-- Generator: Adobe Illustrator 22.1.0, SVG Export Plug-In . SVG Version: 6.00 Build 0)  -->
<svg version="1.1" id="Layer_1" xmlns="http://www.w3.org/2000/svg" xmlns:xlink="http://www.w3.org/1999/xlink" x="0px" y="0px"
	 viewBox="0 0 31 31" style="enable-background:new 0 0 31 31;" xml:space="preserve">
<circle style="fill:#FDFCEF;" cx="15.5" cy="15.5" r="15"/>
<path style="fill:#472B29;" d="M15.5,1.4c7.775,0,14.1,6.325,14.1,14.1s-6.325,14.1-14.1,14.1S1.4,23.275,1.4,15.5
	S7.725,1.4,15.5,1.4 M15.5,0C6.94,0,0,6.94,0,15.5S6.94,31,15.5,31S31,24.06,31,15.5S24.06,0,15.5,0L15.5,0z"/>
<circle style="fill:#F76D4D;" cx="15.499" cy="15.5" r="12.25"/>
<path style="fill:#F18868;" d="M15.5,3.25C8.745,3.25,3.25,8.745,3.25,15.5c0,0.153,0.017,0.301,0.023,0.453
	C4.45,10.273,9.47,6,15.5,6c6.031,0,11.052,4.275,12.227,9.958c0.006-0.153,0.023-0.303,0.023-0.458
	C27.75,8.745,22.254,3.25,15.5,3.25z"/>
<path style="fill:#472B29;" d="M15.499,3.5c6.617,0,12.001,5.383,12.001,12s-5.383,12-12.001,12C8.883,27.5,3.5,22.117,3.5,15.5
	S8.883,3.5,15.499,3.5 M15.499,3C8.607,3,3,8.608,3,15.5S8.607,28,15.499,28C22.393,28,28,22.392,28,15.5S22.393,3,15.499,3
	L15.499,3z"/>
<path style="fill:#472B29;" d="M12,21.006V19.41c0-0.494,0.186-0.979,0.559-1.457c0.373-0.477,0.824-0.908,1.354-1.291l1.62-1.186
	c0.545-0.384,1.01-0.816,1.394-1.292c0.384-0.478,0.576-0.964,0.576-1.459c0-0.527-0.176-0.988-0.526-1.384
	c-0.351-0.395-0.854-0.593-1.511-0.593c-0.557,0-1.01,0.156-1.361,0.467s-0.526,0.759-0.526,1.348c0,0.145-0.067,0.273-0.2,0.384
	c-0.133,0.11-0.311,0.166-0.532,0.166c-0.422,0-0.632-0.269-0.632-0.805c0-0.821,0.314-1.494,0.942-2.019
	C13.786,9.763,14.555,9.5,15.466,9.5c0.978,0,1.795,0.302,2.45,0.904c0.656,0.603,0.983,1.36,0.983,2.271
	c0,0.549-0.136,1.076-0.408,1.581c-0.272,0.506-0.611,0.934-1.016,1.285c-0.405,0.352-0.847,0.702-1.324,1.054l-1.336,0.939
	c-0.401,0.275-0.738,0.577-1.01,0.906c-0.272,0.33-0.408,0.653-0.408,0.972v0.841h5.12c0.133,0,0.247,0.06,0.342,0.18
	C18.953,20.553,19,20.701,19,20.876c0,0.164-0.047,0.31-0.141,0.436c-0.093,0.125-0.207,0.188-0.339,0.188h-5.891
	c-0.144,0-0.285-0.046-0.422-0.14C12.069,21.267,12,21.149,12,21.006z"/>
</svg>
