<?xml version="1.0" encoding="iso-8859-1"?>
<!-- Generator: Adobe Illustrator 22.1.0, SVG Export Plug-In . SVG Version: 6.00 Build 0)  -->
<svg version="1.1" id="Layer_1" xmlns="http://www.w3.org/2000/svg" xmlns:xlink="http://www.w3.org/1999/xlink" x="0px" y="0px"
	 viewBox="0 0 31 31" style="enable-background:new 0 0 31 31;" xml:space="preserve">
<circle style="fill:#FDFCEF;" cx="15.5" cy="15.5" r="15"/>
<path style="fill:#472B29;" d="M15.5,1.4c7.775,0,14.1,6.325,14.1,14.1s-6.325,14.1-14.1,14.1S1.4,23.275,1.4,15.5
	S7.725,1.4,15.5,1.4 M15.5,0C6.94,0,0,6.94,0,15.5S6.94,31,15.5,31S31,24.06,31,15.5S24.06,0,15.5,0L15.5,0z"/>
<circle style="fill:#F76D4D;" cx="15.499" cy="15.5" r="12.25"/>
<path style="fill:#F18868;" d="M15.5,3.25C8.745,3.25,3.25,8.745,3.25,15.5c0,0.153,0.017,0.301,0.023,0.453
	C4.45,10.273,9.47,6,15.5,6c6.031,0,11.052,4.275,12.227,9.958c0.006-0.153,0.023-0.303,0.023-0.458
	C27.75,8.745,22.254,3.25,15.5,3.25z"/>
<path style="fill:#472B29;" d="M15.499,3.5c6.617,0,12.001,5.383,12.001,12s-5.383,12-12.001,12C8.883,27.5,3.5,22.117,3.5,15.5
	S8.883,3.5,15.499,3.5 M15.499,3C8.607,3,3,8.608,3,15.5S8.607,28,15.499,28C22.393,28,28,22.392,28,15.5S22.393,3,15.499,3
	L15.499,3z"/>
<path style="fill:#472B29;" d="M12,18.732c0-0.249,0.046-0.417,0.138-0.505c0.092-0.086,0.257-0.13,0.496-0.13
	c0.26,0,0.441,0.044,0.544,0.13c0.103,0.087,0.154,0.223,0.154,0.407c0,0.412,0.176,0.787,0.528,1.123
	c0.352,0.337,0.885,0.505,1.6,0.505c1.451,0,2.176-0.749,2.176-2.247v-0.309c0-1.325-0.725-1.987-2.176-1.987
	c-0.314,0-0.471-0.19-0.471-0.569c0-0.381,0.157-0.57,0.471-0.57c0.627,0,1.099-0.14,1.413-0.421
	c0.314-0.281,0.471-0.789,0.471-1.524c0-1.264-0.607-1.897-1.819-1.897c-0.693,0-1.183,0.154-1.47,0.461
	c-0.287,0.307-0.43,0.671-0.43,1.091c0,0.399-0.217,0.597-0.65,0.597c-0.292,0-0.485-0.049-0.576-0.146
	c-0.092-0.098-0.138-0.282-0.138-0.554c0-0.271,0.052-0.552,0.155-0.839s0.268-0.575,0.495-0.863
	c0.228-0.288,0.571-0.524,1.031-0.709C14.401,9.592,14.94,9.5,15.557,9.5c2.068,0,3.102,0.964,3.102,2.891
	c0,0.682-0.119,1.261-0.357,1.737c-0.238,0.476-0.558,0.806-0.958,0.99C18.448,15.563,19,16.426,19,17.707v0.309
	c0,1.195-0.325,2.074-0.974,2.638c-0.65,0.564-1.505,0.847-2.566,0.847c-1.116,0-1.971-0.284-2.566-0.855
	C12.298,20.076,12,19.438,12,18.732z"/>
</svg>
