<?xml version="1.0" encoding="iso-8859-1"?>
<!-- Generator: Adobe Illustrator 22.1.0, SVG Export Plug-In . SVG Version: 6.00 Build 0)  -->
<svg version="1.1" id="Layer_1" xmlns="http://www.w3.org/2000/svg" xmlns:xlink="http://www.w3.org/1999/xlink" x="0px" y="0px"
	 viewBox="0 0 31 31" style="enable-background:new 0 0 31 31;" xml:space="preserve">
<circle style="fill:#FDFCEF;" cx="15.5" cy="15.5" r="15"/>
<path style="fill:#472B29;" d="M15.5,1.4c7.775,0,14.1,6.325,14.1,14.1s-6.325,14.1-14.1,14.1S1.4,23.275,1.4,15.5
	S7.725,1.4,15.5,1.4 M15.5,0C6.94,0,0,6.94,0,15.5S6.94,31,15.5,31S31,24.06,31,15.5S24.06,0,15.5,0L15.5,0z"/>
<circle style="fill:#F76D4D;" cx="15.499" cy="15.5" r="12.25"/>
<path style="fill:#F18868;" d="M15.5,3.25C8.745,3.25,3.25,8.745,3.25,15.5c0,0.153,0.017,0.301,0.023,0.453
	C4.45,10.273,9.47,6,15.5,6c6.031,0,11.052,4.275,12.227,9.958c0.006-0.153,0.023-0.303,0.023-0.458
	C27.75,8.745,22.254,3.25,15.5,3.25z"/>
<path style="fill:#472B29;" d="M15.499,3.5c6.617,0,12.001,5.383,12.001,12s-5.383,12-12.001,12C8.883,27.5,3.5,22.117,3.5,15.5
	S8.883,3.5,15.499,3.5 M15.499,3C8.607,3,3,8.608,3,15.5S8.607,28,15.499,28C22.393,28,28,22.392,28,15.5S22.393,3,15.499,3
	L15.499,3z"/>
<path style="fill:#472B29;" d="M11.396,18.22c0-0.12,0.027-0.224,0.082-0.313l4.054-8.012c0.142-0.263,0.35-0.395,0.624-0.395
	c0.153,0,0.304,0.052,0.451,0.156s0.221,0.232,0.221,0.386c0,0.077-0.022,0.153-0.066,0.229l-3.595,7.158h2.84v-2.73
	c0-0.151,0.068-0.268,0.205-0.35c0.137-0.08,0.298-0.121,0.484-0.121c0.186,0,0.347,0.041,0.484,0.121
	c0.136,0.082,0.205,0.198,0.205,0.35v2.73h0.87c0.153,0,0.274,0.067,0.361,0.201c0.087,0.135,0.131,0.292,0.131,0.472
	c0,0.167-0.049,0.323-0.148,0.462c-0.099,0.14-0.213,0.21-0.345,0.21h-0.87v2.238c0,0.151-0.069,0.271-0.205,0.357
	c-0.137,0.087-0.299,0.13-0.484,0.13c-0.186,0-0.348-0.043-0.484-0.13c-0.137-0.086-0.205-0.205-0.205-0.357v-2.238h-4.104
	c-0.154,0-0.277-0.05-0.37-0.151C11.442,18.522,11.396,18.388,11.396,18.22z"/>
</svg>
