<?xml version="1.0" encoding="iso-8859-1"?>
<!-- Generator: Adobe Illustrator 22.1.0, SVG Export Plug-In . SVG Version: 6.00 Build 0)  -->
<svg version="1.1" id="Layer_1" xmlns="http://www.w3.org/2000/svg" xmlns:xlink="http://www.w3.org/1999/xlink" x="0px" y="0px"
	 viewBox="0 0 31 31" style="enable-background:new 0 0 31 31;" xml:space="preserve">
<circle style="fill:#FDFCEF;" cx="15.5" cy="15.5" r="15"/>
<path style="fill:#472B29;" d="M15.5,1.4c7.775,0,14.1,6.325,14.1,14.1s-6.325,14.1-14.1,14.1S1.4,23.275,1.4,15.5
	S7.725,1.4,15.5,1.4 M15.5,0C6.94,0,0,6.94,0,15.5S6.94,31,15.5,31S31,24.06,31,15.5S24.06,0,15.5,0L15.5,0z"/>
<circle style="fill:#F76D4D;" cx="15.499" cy="15.5" r="12.25"/>
<path style="fill:#F18868;" d="M15.5,3.25C8.745,3.25,3.25,8.745,3.25,15.5c0,0.153,0.017,0.301,0.023,0.453
	C4.45,10.273,9.47,6,15.5,6c6.031,0,11.052,4.275,12.227,9.958c0.006-0.153,0.023-0.303,0.023-0.458
	C27.75,8.745,22.254,3.25,15.5,3.25z"/>
<path style="fill:#472B29;" d="M15.499,3.5c6.617,0,12.001,5.383,12.001,12s-5.383,12-12.001,12C8.883,27.5,3.5,22.117,3.5,15.5
	S8.883,3.5,15.499,3.5 M15.499,3C8.607,3,3,8.608,3,15.5S8.607,28,15.499,28C22.393,28,28,22.392,28,15.5S22.393,3,15.499,3
	L15.499,3z"/>
<path style="fill:#472B29;" d="M12,18.684c0-0.434,0.228-0.651,0.682-0.651c0.455,0,0.683,0.184,0.683,0.554
	c0,0.521,0.2,0.93,0.601,1.229c0.4,0.298,0.909,0.447,1.526,0.447c0.682,0,1.21-0.19,1.583-0.569c0.374-0.381,0.561-0.95,0.561-1.71
	v-0.309c0-0.738-0.187-1.294-0.561-1.669c-0.373-0.375-0.896-0.562-1.567-0.562h-2.306c-0.422,0-0.633-0.178-0.633-0.536
	c0-0.108,0.02-0.228,0.061-0.358l0.312-4.56c0.021-0.326,0.14-0.489,0.357-0.489h4.678c0.14,0,0.249,0.063,0.324,0.188
	c0.076,0.124,0.114,0.268,0.114,0.431s-0.038,0.307-0.114,0.431c-0.075,0.125-0.184,0.187-0.324,0.187h-3.849l-0.244,3.567h1.624
	c1.062,0,1.908,0.271,2.541,0.814C18.683,15.66,19,16.512,19,17.674v0.309c0,1.205-0.319,2.093-0.959,2.662
	c-0.638,0.57-1.483,0.855-2.534,0.855c-1.082,0-1.938-0.273-2.565-0.822C12.314,20.13,12,19.465,12,18.684z"/>
</svg>
