<?xml version="1.0" encoding="iso-8859-1"?>
<!-- Generator: Adobe Illustrator 22.1.0, SVG Export Plug-In . SVG Version: 6.00 Build 0)  -->
<svg version="1.1" id="Layer_1" xmlns="http://www.w3.org/2000/svg" xmlns:xlink="http://www.w3.org/1999/xlink" x="0px" y="0px"
	 viewBox="0 0 31 31" style="enable-background:new 0 0 31 31;" xml:space="preserve">
<circle style="fill:#FDFCEF;" cx="15.5" cy="15.5" r="15"/>
<path style="fill:#472B29;" d="M15.5,1.4c7.775,0,14.1,6.325,14.1,14.1s-6.325,14.1-14.1,14.1S1.4,23.275,1.4,15.5
	S7.725,1.4,15.5,1.4 M15.5,0C6.94,0,0,6.94,0,15.5S6.94,31,15.5,31S31,24.06,31,15.5S24.06,0,15.5,0L15.5,0z"/>
<circle style="fill:#F76D4D;" cx="15.499" cy="15.5" r="12.25"/>
<path style="fill:#F18868;" d="M15.5,3.25C8.745,3.25,3.25,8.745,3.25,15.5c0,0.153,0.017,0.301,0.023,0.453
	C4.45,10.273,9.47,6,15.5,6c6.031,0,11.052,4.275,12.227,9.958c0.006-0.153,0.023-0.303,0.023-0.458
	C27.75,8.745,22.254,3.25,15.5,3.25z"/>
<path style="fill:#472B29;" d="M15.499,3.5c6.617,0,12.001,5.383,12.001,12s-5.383,12-12.001,12C8.883,27.5,3.5,22.117,3.5,15.5
	S8.883,3.5,15.499,3.5 M15.499,3C8.607,3,3,8.608,3,15.5S8.607,28,15.499,28C22.393,28,28,22.392,28,15.5S22.393,3,15.499,3
	L15.499,3z"/>
<path style="fill:#472B29;" d="M12,18.155V17.96c0-1.559,0.607-2.572,1.819-3.037c-0.985-0.395-1.478-1.247-1.478-2.56
	c0-1.908,1.056-2.863,3.167-2.863c2.1,0,3.151,0.955,3.151,2.863c0,1.302-0.488,2.156-1.462,2.56C18.398,15.399,19,16.412,19,17.96
	v0.195c0,1.148-0.317,1.992-0.951,2.533s-1.48,0.812-2.541,0.812c-1.062,0-1.911-0.27-2.549-0.812
	C12.319,20.146,12,19.303,12,18.155z M13.364,18.033c0,1.552,0.715,2.327,2.144,2.327c0.682,0,1.207-0.194,1.575-0.581
	c0.369-0.388,0.552-0.97,0.552-1.746V17.77c0-0.764-0.186-1.333-0.56-1.704c-0.374-0.372-0.896-0.558-1.567-0.558
	c-1.429,0-2.144,0.754-2.144,2.262V18.033z M13.673,12.496c0,1.248,0.612,1.872,1.835,1.872s1.835-0.624,1.835-1.872
	c0-1.237-0.612-1.856-1.835-1.856S13.673,11.259,13.673,12.496z"/>
</svg>
