<?xml version="1.0" encoding="iso-8859-1"?>
<!-- Generator: Adobe Illustrator 22.1.0, SVG Export Plug-In . SVG Version: 6.00 Build 0)  -->
<svg version="1.1" id="Layer_1" xmlns="http://www.w3.org/2000/svg" xmlns:xlink="http://www.w3.org/1999/xlink" x="0px" y="0px"
	 viewBox="0 0 31 31" style="enable-background:new 0 0 31 31;" xml:space="preserve">
<circle style="fill:#FDFCEF;" cx="15.5" cy="15.5" r="15"/>
<path style="fill:#472B29;" d="M15.5,1.4c7.775,0,14.1,6.325,14.1,14.1s-6.325,14.1-14.1,14.1S1.4,23.275,1.4,15.5
	S7.725,1.4,15.5,1.4 M15.5,0C6.94,0,0,6.94,0,15.5S6.94,31,15.5,31S31,24.06,31,15.5S24.06,0,15.5,0L15.5,0z"/>
<circle style="fill:#F76D4D;" cx="15.499" cy="15.5" r="12.25"/>
<path style="fill:#F18868;" d="M15.5,3.25C8.745,3.25,3.25,8.745,3.25,15.5c0,0.153,0.017,0.301,0.023,0.453
	C4.45,10.273,9.47,6,15.5,6c6.031,0,11.052,4.275,12.227,9.958c0.006-0.153,0.023-0.303,0.023-0.458
	C27.75,8.745,22.254,3.25,15.5,3.25z"/>
<path style="fill:#472B29;" d="M15.499,3.5c6.617,0,12.001,5.383,12.001,12s-5.383,12-12.001,12C8.883,27.5,3.5,22.117,3.5,15.5
	S8.883,3.5,15.499,3.5 M15.499,3C8.607,3,3,8.608,3,15.5S8.607,28,15.499,28C22.393,28,28,22.392,28,15.5S22.393,3,15.499,3
	L15.499,3z"/>
<path style="fill:#472B29;" d="M12,18.667c0-0.4,0.216-0.602,0.649-0.602c0.477,0,0.715,0.18,0.715,0.538
	c0,0.499,0.203,0.901,0.61,1.204c0.405,0.304,0.906,0.456,1.502,0.456c1.44,0,2.16-0.77,2.16-2.312v-2.28
	c-0.508,0.673-1.298,1.01-2.371,1.01c-2.176,0-3.264-1.096-3.264-3.289V13.05c0-1.226,0.317-2.125,0.951-2.695
	c0.632-0.57,1.478-0.855,2.54-0.855c1.061,0,1.91,0.285,2.549,0.855C18.68,10.925,19,11.823,19,13.05v4.901
	c0,1.226-0.323,2.125-0.966,2.694c-0.644,0.57-1.508,0.855-2.59,0.855c-1.083,0-1.928-0.282-2.534-0.847
	C12.303,20.09,12,19.427,12,18.667z M13.364,13.312c0,1.486,0.715,2.229,2.144,2.229c1.418,0,2.127-0.694,2.127-2.082v-0.492
	c0-1.551-0.715-2.327-2.143-2.327c-1.418,0-2.128,0.776-2.128,2.327V13.312z"/>
</svg>
