<?xml version="1.0" encoding="UTF-8"?>
<svg width="24px" height="24px" viewBox="0 0 24 24" version="1.1" xmlns="http://www.w3.org/2000/svg" xmlns:xlink="http://www.w3.org/1999/xlink">
    <path d="M5.2819426,5 L10.3803954,5 C10.6386035,5 10.7279223,5.00934929 10.8269182,5.0321654 C10.9259141,5.0549815 11.0135088,5.09126442 11.0996429,5.14513166 C11.185777,5.1989989 11.2555459,5.25554593 11.4381266,5.43812663 L12.5618734,6.56187337 C12.7444541,6.74445407 12.814223,6.8010011 12.9003571,6.85486834 C12.9864912,6.90873558 13.0740859,6.9450185 13.1730818,6.9678346 C13.2720777,6.99065071 13.3613965,7 13.6196046,7 L18.7180574,7 C19.1638168,7 19.3254599,7.04641281 19.4884229,7.13356635 C19.6513858,7.2207199 19.7792801,7.34861419 19.8664336,7.51157715 C19.9535872,7.67454011 20,7.83618323 20,8.2819426 L20,16.7180574 C20,17.1638168 19.9535872,17.3254599 19.8664336,17.4884229 C19.7792801,17.6513858 19.6513858,17.7792801 19.4884229,17.8664336 C19.3254599,17.9535872 19.1638168,18 18.7180574,18 L5.2819426,18 C4.83618323,18 4.67454011,17.9535872 4.51157715,17.8664336 C4.34861419,17.7792801 4.2207199,17.6513858 4.13356635,17.4884229 C4.04641281,17.3254599 4,17.1638168 4,16.7180574 L4,6.2819426 C4,5.83618323 4.04641281,5.67454011 4.13356635,5.51157715 C4.2207199,5.34861419 4.34861419,5.2207199 4.51157715,5.13356635 C4.67454011,5.04641281 4.83618323,5 5.2819426,5 Z"></path>
</svg>