<?xml version="1.0" encoding="UTF-8"?>
<svg width="24px" height="24px" viewBox="0 0 24 24" version="1.1" xmlns="http://www.w3.org/2000/svg" xmlns:xlink="http://www.w3.org/1999/xlink">
    <!-- Generator: Sketch 52.1 (67048) - http://www.bohemiancoding.com/sketch -->
    <title>Go back Copy 2</title>
    <desc>Created with Sketch.</desc>
    <g id="🦄-Interface" stroke="none" stroke-width="1" fill="none" fill-rule="evenodd">
        <g id="03-Pichon-\-Collection-\-Inner-Copy" transform="translate(-8.000000, -784.000000)">
            <g id="Go-back-Copy-2" transform="translate(8.000000, 784.000000)">
                <rect id="Container" fill="#FFFFFF" x="0" y="0" width="24" height="24"></rect>
                <path d="M14.980469,3.9902344 C14.7206704,3.99797554 14.4740906,4.10655471 14.292969,4.2929688 L7.2929688,11.292969 C6.90260074,11.6834988 6.90260074,12.3165012 7.2929688,12.707031 L14.292969,19.707031 C14.5437856,19.9682718 14.916236,20.0735066 15.2666781,19.9821498 C15.6171201,19.890793 15.890793,19.6171201 15.9821498,19.2666781 C16.0735066,18.916236 15.9682718,18.5437856 15.707031,18.292969 L9.414062,12 L15.707031,5.7070312 C16.0027914,5.41953984 16.0917198,4.9799653 15.9309656,4.60011851 C15.7702114,4.22027173 15.3927525,3.97807599 14.980469,3.9902344 Z" id="Shape" fill="#4C4C4C" fill-rule="nonzero"></path>
            </g>
        </g>
    </g>
</svg>