<svg width="20px" height="21px" viewBox="0 0 20 21" xmlns="http://www.w3.org/2000/svg">
    <g transform="translate(-1086.000000, -93.000000)">
        <g transform="translate(1072.000000, 80.000000)">
            <g transform="translate(14.000000, 13.000000)">
                <path d="M4,-9.47728224e-17 C3.63936408,-0.00510028955 3.30391864,0.184375296 3.12211228,0.49587285 C2.94030592,0.807370403 2.94030592,1.1926296 3.12211228,1.50412715 C3.30391864,1.8156247 3.63936408,2.00510029 4,2 L16,2 C16.3606359,2.00510029 16.6960814,1.8156247 16.8778877,1.50412715 C17.0596941,1.1926296 17.0596941,0.807370403 16.8778877,0.49587285 C16.6960814,0.184375296 16.3606359,-0.00510028955 16,-4.06575815e-20 L4,-9.47728224e-17 Z M3,4 C2.63936408,3.99489971 2.30391864,4.1843753 2.12211228,4.49587285 C1.94030592,4.8073704 1.94030592,5.1926296 2.12211228,5.50412715 C2.30391864,5.8156247 2.63936408,6.00510029 3,6 L17,6 C17.3606359,6.00510029 17.6960814,5.8156247 17.8778877,5.50412715 C18.0596941,5.1926296 18.0596941,4.8073704 17.8778877,4.49587285 C17.6960814,4.1843753 17.3606359,3.99489971 17,4 L3,4 Z M0.165645615,10.153393 L0.857953308,19.153393 C0.938106718,20.1953873 1.80698966,21 2.85206228,21 L17.1479377,21 C18.1930103,21 19.0618933,20.1953873 19.1420467,19.153393 L19.8343544,10.153393 C19.919071,9.05207702 19.0949544,8.09060764 17.9936384,8.00589103 C17.9426016,8.00196512 17.891433,8 17.8402454,8 L2.15975459,8 C1.05518509,8 0.159754586,8.8954305 0.159754586,10 C0.159754586,10.0511875 0.16171971,10.1023562 0.165645615,10.153393 Z"/>
            </g>
        </g>
    </g>
</svg>
