<svg xmlns="http://www.w3.org/2000/svg" viewBox="0 0 48 48">
  <g>
    <path style="fill:#4CAF50" d="M 43 24 C 43 34.492188 34.492188 43 24 43 C 13.507813 43 5 34.492188 5 24 C 5 13.507813 13.507813 5 24 5 C 34.492188 5 43 13.507813 43 24 Z "/>
    <path style="fill:#FFFFFF" d="M 26.898438 29.195313 C 26.898438 28.390625 26.683594 27.753906 26.253906 27.277344 C 25.824219 26.800781 25.09375 26.359375 24.0625 25.957031 C 23.03125 25.554688 20.707031 24.25 19.695313 23.308594 C 19.148438 22.800781 18.742188 22.183594 18.445313 21.488281 C 18.148438 20.789063 18 19.960938 18 19 C 18 17.34375 18.496094 15.90625 19.40625 14.75 C 20.65625 13.15625 23 13 23 13 L 23 10 L 25 10 L 25 13 C 26.164063 13 28.464844 13.386719 29.820313 15.460938 C 31.015625 17.292969 31 20 31 20 L 27 20 C 27 18.820313 26.765625 17.980469 26.300781 17.398438 C 25.828125 16.8125 25.105469 16.519531 24.320313 16.519531 C 23.542969 16.519531 23.0625 16.855469 22.640625 17.3125 C 22.214844 17.769531 22 18.398438 22 19.203125 C 22 19.949219 22.207031 20.550781 22.625 21 C 23.039063 21.449219 23.691406 21.808594 24.824219 22.277344 C 25.953125 22.75 26.882813 23.191406 27.609375 23.609375 C 28.339844 24.027344 28.953125 24.5 29.453125 25.023438 C 29.957031 25.546875 30.339844 26.148438 30.605469 26.816406 C 30.867188 27.492188 31 28.273438 31 29.167969 C 31 30.835938 30.5 32.191406 29.496094 33.230469 C 28.492188 34.269531 26.757813 34.882813 25 35.070313 L 25 38 L 23 38 L 23 35.085938 C 21.0625 34.867188 19.660156 34.15625 18.597656 32.941406 C 17.53125 31.730469 17 30.011719 17 28 L 21 28 C 21 29.167969 21.265625 30.171875 21.800781 30.792969 C 22.335938 31.417969 22.996094 31.730469 24 31.730469 C 24.832031 31.730469 25.695313 31.5 26.179688 31.046875 C 26.660156 30.585938 26.898438 29.972656 26.898438 29.195313 Z "/>
  </g>
</svg>