<svg width="16px" height="16px" viewBox="0 0 16 16" version="1.1" xmlns="http://www.w3.org/2000/svg">
    <g stroke="none" stroke-width="1" fill="none" fill-rule="evenodd">
        <g transform="translate(-231.000000, -776.000000)">
            <rect x="0" y="0" width="1440" height="928"></rect>
            <g transform="translate(215.000000, 760.000000)" opacity="0.699999988">
                <g transform="translate(12.000000, 12.000000)">
                    <g transform="translate(4.000000, 4.000000)">
                        <rect x="0" y="0" width="16" height="16"></rect>
                        <path d="M9.73790772,3.48223305 L12.4720512,6.21637658 C12.6661863,6.41051164 12.6674705,6.72486843 12.4749279,6.92058307 L5.54879343,13.9608248 C5.41346689,14.0983808 5.24123227,14.193846 5.05286374,14.2357056 L1.60846523,15.0011275 C1.33889862,15.0610312 1.07181016,14.8910658 1.01190647,14.6214992 C0.996031177,14.5500604 0.996031177,14.4760076 1.01190647,14.4045688 L1.77829081,10.9558392 C1.81954752,10.770184 1.91289068,10.6001433 2.04737109,10.4656629 L9.03080094,3.48223305 C9.22606308,3.2869709 9.54264557,3.2869709 9.73790772,3.48223305 Z M10.4450145,2.06801948 L10.9272475,1.58578644 C11.7082961,0.804737854 12.9746261,0.804737854 13.7556747,1.58578644 L14.3529682,2.18307999 C15.1295085,2.95962024 15.1346451,4.21704743 14.364475,4.99990599 L13.8775872,5.49481519 C13.6839268,5.69166609 13.3673549,5.69425252 13.170504,5.50059216 C13.1695333,5.49963722 13.1685666,5.49867832 13.1676037,5.49771548 L10.4450145,2.77512627 C10.2497524,2.57986412 10.2497524,2.26328163 10.4450145,2.06801948 Z" fill="#000000"></path>
                    </g>
                </g>
            </g>
        </g>
    </g>
</svg>
