<?xml version="1.0" encoding="UTF-8"?>
<svg width="24px" height="24px" viewBox="0 0 24 24" version="1.1" xmlns="http://www.w3.org/2000/svg" xmlns:xlink="http://www.w3.org/1999/xlink">
    <path d="M3.82842712,12 L7.26776695,15.4393398 C7.4630291,15.634602 7.4630291,15.9511845 7.26776695,16.1464466 L6.56066017,16.8535534 C6.36539803,17.0488155 6.04881554,17.0488155 5.85355339,16.8535534 L1.35355339,12.3535534 C1.15829124,12.1582912 1.15829124,11.8417088 1.35355339,11.6464466 L5.85355339,7.14644661 C6.04881554,6.95118446 6.36539803,6.95118446 6.56066017,7.14644661 L7.26776695,7.85355339 C7.4630291,8.04881554 7.4630291,8.36539803 7.26776695,8.56066017 L3.82842712,12 Z M16.732233,16.1464466 C16.5369709,15.9511845 16.5369709,15.634602 16.732233,15.4393398 L20.1715729,12 L16.732233,8.56066017 C16.5369709,8.36539803 16.5369709,8.04881554 16.732233,7.85355339 L17.4393398,7.14644661 C17.634602,6.95118446 17.9511845,6.95118446 18.1464466,7.14644661 L22.6464466,11.6464466 C22.8417088,11.8417088 22.8417088,12.1582912 22.6464466,12.3535534 L18.1464466,16.8535534 C17.9511845,17.0488155 17.634602,17.0488155 17.4393398,16.8535534 L16.732233,16.1464466 Z M14.5232087,2.34943432 L15.4767913,2.65056568 C15.7401159,2.73372082 15.8861721,3.01459812 15.803017,3.2779227 L10.1041483,21.32434 C10.0209932,21.5876646 9.74011591,21.7337208 9.47679133,21.6505657 L8.52320867,21.3494343 C8.25988409,21.2662792 8.11382789,20.9854019 8.19698302,20.7220773 L13.8958517,2.67565996 C13.9790068,2.41233538 14.2598841,2.26627918 14.5232087,2.34943432 Z"></path>
</svg>