<svg xmlns="http://www.w3.org/2000/svg" width="48" height="48" viewBox="0 0 48 48" fill="#2980B9">
  <path fill="#1565C0"
        d="M18.7 13.767l.005.002c.104-.444.482-.77.955-.77h13.472c.017 0 .034-.007.05-.006C32.897 8.214 28.888 6 25.35 6H11.878c-.474 0-.852.335-.955.777l-.005-.002-5.89 27.038h.014c-.014.065-.04.126-.04.195 0 .553.448.99 1 .99h8.072L18.7 13.77z"></path>
  <path fill="#039BE5"
        d="M33.183 12.994c.053.876-.005 1.83-.23 2.882-1.28 5.995-5.91 9.115-11.634 9.115h-4.314c-.52 0-.767.307-.88.54l-1.74 8.05-.305 1.43h-.005l-1.263 5.795h.013c-.014.065-.04.126-.04.195 0 .553.448 1 1 1h7.334l.012-.01c.472-.007.847-.344.945-.788l.018-.015 1.812-8.416s.126-.802.97-.802h4.178c5.723 0 10.4-3.106 11.683-9.102 1.442-6.76-3.38-9.847-7.555-9.872z"></path>
  <path fill="#283593"
        d="M19.66 13c-.474 0-.852.326-.955.77l-.005-.003-2.575 11.765c.113-.234.36-.54.88-.54h4.235c5.723 0 10.432-3.12 11.713-9.115.225-1.053.282-2.006.23-2.882-.017-.002-.035.005-.05.005H19.66z"></path>
</svg>