<svg width="32px" height="32px" viewBox="0 0 32 32" xmlns="http://www.w3.org/2000/svg">
    <g stroke="none" stroke-width="1" fill="none" fill-rule="evenodd">
        <g transform="translate(-1237.000000, -545.000000)">
            <rect fill="" x="0" y="0" width="1680" height="3224"/>
            <g transform="translate(1237.000000, 545.000000)">
            <rect fill="#DDE5E8" x="0" y="0" width="32" height="32" rx="6"/>
            <circle fill="#F8BBD0" cx="7.5" cy="20.5" r="2.5"/>
            <circle fill="#F8BBD0" cx="24.5" cy="20.5" r="2.5"/>
            <circle fill="#263238" cx="9" cy="17" r="2"/>
            <circle fill="#263238" cx="23" cy="17" r="2"/>
            <path d="M16,23 C15.5,23 15,22.5 15,22 L15,20.5 C15,20 15.5,19.5 16,19.5 C16.5,19.5 17,20 17,20.5 L17,22 C17,22.5 16.5,23 16,23 Z" fill="#F48FB1"/>
            <path d="M14,21 C13.4,21 13,20.6 13,20 C13,19.4 13.4,19 14,19 C14.6,19 15,18.6 15,18 C15,17.4 15.4,17 16,17 C16.6,17 17,17.4 17,18 C17,19.7 15.7,21 14,21 Z" fill="#B0BEC5"/>
            <path d="M18,21 C16.3,21 15,19.7 15,18 C15,17.4 15.4,17 16,17 C16.6,17 17,17.4 17,18 C17,18.6 17.4,19 18,19 C18.6,19 19,19.4 19,20 C19,20.6 18.6,21 18,21 Z" fill="#B0BEC5"/>
            <path d="M15,18 C15,18 15,17 16,17 C17,17 17,18 17,18 L16,19 L15,18 Z" fill="#263238"/>
            </g>
        </g>
    </g>
</svg>
