
<svg width="12px" height="14px" viewBox="0 0 12 14" version="1.1" xmlns="http://www.w3.org/2000/svg">
    <g stroke="none" stroke-width="1" fill="none" fill-rule="evenodd">
        <g transform="translate(-410.000000, -795.000000)">
            <rect x="0" y="0" width="1440" height="928"></rect>
            <g transform="translate(408.000000, 794.000000)" fill="#F35517">
                <path d="M6,2 L6,1.5 C6,1.22385763 6.22385763,1 6.5,1 L9.5,1 C9.77614237,1 10,1.22385763 10,1.5 L10,2 L13,2 C13.5522847,2 14,2.44771525 14,3 C14,3.55228475 13.5522847,4 13,4 L3,4 C2.44771525,4 2,3.55228475 2,3 C2,2.44771525 2.44771525,2 3,2 L6,2 Z M3.55249378,5 L12.4475062,5 C12.7236486,5 12.9475062,5.22385763 12.9475062,5.5 C12.9475062,5.51661488 12.9466781,5.53321944 12.9450248,5.54975186 L12.1800993,13.1990074 C12.0778589,14.221411 11.2175278,15 10.1900249,15 L5.80997512,15 C4.78247223,15 3.9221411,14.221411 3.81990074,13.1990074 L3.05497519,5.54975186 C3.02749799,5.27497993 3.22796999,5.0299586 3.50274192,5.0024814 C3.51927435,5.00082816 3.5358789,5 3.55249378,5 Z"></path>
            </g>
        </g>
    </g>
</svg>