<?xml version="1.0" encoding="iso-8859-1"?>
<!-- Generator: Adobe Illustrator 22.1.0, SVG Export Plug-In . SVG Version: 6.00 Build 0)  -->
<svg version="1.1" id="Layer_1" xmlns="http://www.w3.org/2000/svg" xmlns:xlink="http://www.w3.org/1999/xlink" x="0px" y="0px"
	 viewBox="0 0 31 31" style="enable-background:new 0 0 31 31;" xml:space="preserve">
<g>
	<path d="M21.854,9.146c-0.195-0.195-0.512-0.195-0.707,0L15.5,14.793L9.854,9.146c-0.195-0.195-0.512-0.195-0.707,0
		s-0.195,0.512,0,0.707l5.646,5.646l-5.577,5.577c-0.195,0.195-0.195,0.512,0,0.707c0.098,0.098,0.226,0.146,0.354,0.146
		s0.256-0.049,0.354-0.146l5.577-5.577l5.646,5.646C21.244,21.951,21.372,22,21.5,22s0.256-0.049,0.354-0.146
		c0.195-0.195,0.195-0.512,0-0.707L16.207,15.5l5.646-5.646C22.049,9.658,22.049,9.342,21.854,9.146z"/>
	<path d="M15.5,0C6.953,0,0,6.953,0,15.5S6.953,31,15.5,31S31,24.047,31,15.5S24.047,0,15.5,0z M15.5,29C8.056,29,2,22.944,2,15.5
		S8.056,2,15.5,2S29,8.056,29,15.5S22.944,29,15.5,29z"/>
</g>
</svg>
