<?xml version="1.0" encoding="iso-8859-1"?>
<!-- Generator: Adobe Illustrator 22.1.0, SVG Export Plug-In . SVG Version: 6.00 Build 0)  -->
<svg version="1.1" id="Layer_1" xmlns="http://www.w3.org/2000/svg" xmlns:xlink="http://www.w3.org/1999/xlink" x="0px" y="0px"
	 viewBox="0 0 31 31" style="enable-background:new 0 0 31 31;" xml:space="preserve">
<g>
	<path d="M15.5,0C6.953,0,0,6.953,0,15.5S6.953,31,15.5,31S31,24.047,31,15.5S24.047,0,15.5,0z M15.5,29C8.056,29,2,22.944,2,15.5
		S8.056,2,15.5,2S29,8.056,29,15.5S22.944,29,15.5,29z"/>
	<path d="M15.5,5C9.71,5,5,9.71,5,15.5S9.71,26,15.5,26S26,21.29,26,15.5S21.29,5,15.5,5z M15.5,25C10.262,25,6,20.738,6,15.5
		S10.262,6,15.5,6s9.5,4.262,9.5,9.5S20.738,25,15.5,25z"/>
	<path d="M22.5,15h-14C8.224,15,8,15.224,8,15.5S8.224,16,8.5,16h14c0.276,0,0.5-0.224,0.5-0.5S22.776,15,22.5,15z"/>
</g>
</svg>
