<?xml version="1.0" encoding="iso-8859-1"?>
<!-- Generator: Adobe Illustrator 22.1.0, SVG Export Plug-In . SVG Version: 6.00 Build 0)  -->
<svg version="1.1" id="Layer_1" xmlns="http://www.w3.org/2000/svg" xmlns:xlink="http://www.w3.org/1999/xlink" x="0px" y="0px"
	 viewBox="0 0 31 31" style="enable-background:new 0 0 31 31;" xml:space="preserve">
<g>
	<path d="M15.5,0C6.953,0,0,6.953,0,15.5S6.953,31,15.5,31S31,24.047,31,15.5S24.047,0,15.5,0z M15.5,29C8.056,29,2,22.944,2,15.5
		S8.056,2,15.5,2S29,8.056,29,15.5S22.944,29,15.5,29z"/>
	<path d="M23.5,15h-16C7.224,15,7,15.224,7,15.5S7.224,16,7.5,16h16c0.276,0,0.5-0.224,0.5-0.5S23.776,15,23.5,15z"/>
</g>
</svg>
