<?xml version="1.0" encoding="iso-8859-1"?>
<!-- Generator: Adobe Illustrator 22.1.0, SVG Export Plug-In . SVG Version: 6.00 Build 0)  -->
<svg version="1.1" id="Layer_1" xmlns="http://www.w3.org/2000/svg" xmlns:xlink="http://www.w3.org/1999/xlink" x="0px" y="0px"
	 viewBox="0 0 31 31" style="enable-background:new 0 0 31 31;" xml:space="preserve">
<g>
	<path d="M15.5,0C6.953,0,0,6.953,0,15.5S6.953,31,15.5,31S31,24.047,31,15.5S24.047,0,15.5,0z M15.5,29C8.056,29,2,22.944,2,15.5
		S8.056,2,15.5,2S29,8.056,29,15.5S22.944,29,15.5,29z"/>
	<path d="M24.164,10.13l-10.679,9.708L7.82,15.116c-0.212-0.175-0.526-0.149-0.704,0.064c-0.177,0.212-0.148,0.528,0.063,0.705l6,5
		C13.272,20.961,13.387,21,13.5,21c0.121,0,0.241-0.043,0.336-0.13l11-10c0.205-0.186,0.22-0.502,0.034-0.707
		C24.686,9.959,24.368,9.946,24.164,10.13z"/>
</g>
</svg>
