<?xml version="1.0" encoding="iso-8859-1"?>
<!-- Generator: Adobe Illustrator 22.1.0, SVG Export Plug-In . SVG Version: 6.00 Build 0)  -->
<svg version="1.1" id="Layer_1" xmlns="http://www.w3.org/2000/svg" xmlns:xlink="http://www.w3.org/1999/xlink" x="0px" y="0px"
	 viewBox="0 0 31 31" style="enable-background:new 0 0 31 31;" xml:space="preserve">
<g>
	<path d="M15.5,0C6.953,0,0,6.953,0,15.5S6.953,31,15.5,31S31,24.047,31,15.5S24.047,0,15.5,0z M15.5,29C8.056,29,2,22.944,2,15.5
		S8.056,2,15.5,2S29,8.056,29,15.5S22.944,29,15.5,29z"/>
	<path d="M19,7c-2.757,0-5,2.243-5,5c0,0.677,0.138,1.321,0.383,1.91l-7.236,7.236C7.053,21.24,7,21.367,7,21.5v2
		C7,23.776,7.224,24,7.5,24h2c0.276,0,0.5-0.224,0.5-0.5V23h0.5c0.276,0,0.5-0.224,0.5-0.5V22h0.5c0.276,0,0.5-0.224,0.5-0.5V21h0.5
		c0.133,0,0.26-0.053,0.354-0.146l4.236-4.236C17.679,16.862,18.323,17,19,17c2.757,0,5-2.243,5-5S21.757,7,19,7z M12.293,20H11.5
		c-0.276,0-0.5,0.224-0.5,0.5V21h-0.5c-0.276,0-0.5,0.224-0.5,0.5V22H9.5C9.224,22,9,22.224,9,22.5V23H8v-1.293l6.882-6.882
		c0.348,0.506,0.787,0.945,1.293,1.293L12.293,20z M19,16c-2.206,0-4-1.794-4-4s1.794-4,4-4s4,1.794,4,4S21.206,16,19,16z"/>
	<circle cx="19.5" cy="11.5" r="1.5"/>
</g>
</svg>
