<?xml version="1.0" encoding="iso-8859-1"?>
<!-- Generator: Adobe Illustrator 22.1.0, SVG Export Plug-In . SVG Version: 6.00 Build 0)  -->
<svg version="1.1" id="Layer_1" xmlns="http://www.w3.org/2000/svg" xmlns:xlink="http://www.w3.org/1999/xlink" x="0px" y="0px"
	 viewBox="0 0 31 31" style="enable-background:new 0 0 31 31;" xml:space="preserve">
<g>
	<path d="M15.5,0C6.953,0,0,6.953,0,15.5S6.953,31,15.5,31S31,24.047,31,15.5S24.047,0,15.5,0z M15.5,29C8.056,29,2,22.944,2,15.5
		S8.056,2,15.5,2S29,8.056,29,15.5S22.944,29,15.5,29z"/>
	<path d="M24.508,11.76l-5.648-1.163l-3.017-5.343c-0.178-0.314-0.693-0.314-0.871,0l-3.017,5.343L6.307,11.76
		c-0.169,0.035-0.309,0.155-0.369,0.317c-0.06,0.163-0.031,0.344,0.075,0.48l3.806,4.879l-0.906,5.989
		c-0.028,0.185,0.049,0.369,0.2,0.479c0.15,0.109,0.35,0.125,0.518,0.043l5.776-2.888l5.776,2.888
		C21.254,23.982,21.331,24,21.407,24c0.104,0,0.207-0.032,0.294-0.096c0.151-0.11,0.229-0.294,0.2-0.479l-0.906-5.989l3.806-4.879
		c0.106-0.136,0.135-0.318,0.075-0.48C24.817,11.915,24.677,11.795,24.508,11.76z M20.075,16.991
		c-0.084,0.108-0.121,0.247-0.1,0.382l0.793,5.248l-5.138-2.569C15.561,20.018,15.484,20,15.407,20s-0.153,0.018-0.224,0.053
		l-5.138,2.569l0.793-5.248c0.021-0.136-0.016-0.274-0.1-0.382l-3.442-4.414l5.082-1.046c0.142-0.029,0.264-0.118,0.335-0.244
		l2.693-4.77l2.693,4.77c0.071,0.126,0.193,0.215,0.335,0.244l5.082,1.046L20.075,16.991z"/>
</g>
</svg>
