<?xml version="1.0" encoding="iso-8859-1"?>
<!-- Generator: Adobe Illustrator 22.1.0, SVG Export Plug-In . SVG Version: 6.00 Build 0)  -->
<svg version="1.1" id="Layer_1" xmlns="http://www.w3.org/2000/svg" xmlns:xlink="http://www.w3.org/1999/xlink" x="0px" y="0px"
	 viewBox="0 0 31 31" style="enable-background:new 0 0 31 31;" xml:space="preserve">
<g>
	<path d="M15.5,0C6.953,0,0,6.953,0,15.5S6.953,31,15.5,31S31,24.047,31,15.5S24.047,0,15.5,0z M15.5,29C8.056,29,2,22.944,2,15.5
		S8.056,2,15.5,2S29,8.056,29,15.5S22.944,29,15.5,29z"/>
	<path d="M20.5,7h-10C9.673,7,9,7.673,9,8.5V10c0,2.514,2.456,4.774,3.622,5.705C11.434,16.518,9,18.486,9,21v1.5
		c0,0.827,0.673,1.5,1.5,1.5h10c0.827,0,1.5-0.673,1.5-1.5V21c0-2.514-2.438-4.534-3.622-5.367C19.547,14.723,22,12.514,22,10V8.5
		C22,7.673,21.327,7,20.5,7z M10,8.5C10,8.225,10.224,8,10.5,8h10C20.776,8,21,8.225,21,8.5V10c0,0.348-0.064,0.693-0.173,1.03
		C20.664,11.084,17.829,12,15.5,12c-2.34,0-5.191-0.925-5.33-0.971C10.063,10.691,10,10.347,10,10V8.5z M17.223,15.239
		c-0.144,0.095-0.228,0.258-0.223,0.43c0.005,0.173,0.098,0.33,0.247,0.418C17.284,16.108,21,18.324,21,21v0.776
		c-0.574-0.542-1.342-1.189-2.242-1.731c-0.237-0.141-0.544-0.066-0.686,0.171c-0.143,0.236-0.066,0.544,0.17,0.687
		c1.08,0.649,1.988,1.5,2.433,1.949c0.027,0.027,0.06,0.041,0.09,0.061C20.688,22.963,20.6,23,20.5,23h-10
		c-0.1,0-0.188-0.037-0.266-0.088c0.031-0.02,0.064-0.034,0.091-0.061c0.634-0.641,1.917-1.81,3.373-2.437
		c0.253-0.108,0.371-0.403,0.262-0.656c-0.109-0.254-0.403-0.374-0.657-0.262c-1.354,0.582-2.547,1.565-3.302,2.277V21
		c0-2.67,3.709-4.804,3.746-4.824c0.15-0.086,0.246-0.242,0.253-0.414c0.007-0.173-0.075-0.337-0.217-0.434
		c-0.027-0.019-1.93-1.344-3.025-3.08C11.861,12.552,13.777,13,15.5,13c1.716,0,3.622-0.444,4.727-0.748
		C19.131,13.949,17.25,15.221,17.223,15.239z"/>
</g>
</svg>
