<?xml version="1.0" encoding="iso-8859-1"?>
<!-- Generator: Adobe Illustrator 22.1.0, SVG Export Plug-In . SVG Version: 6.00 Build 0)  -->
<svg version="1.1" id="Layer_1" xmlns="http://www.w3.org/2000/svg" xmlns:xlink="http://www.w3.org/1999/xlink" x="0px" y="0px"
	 viewBox="0 0 31 31" style="enable-background:new 0 0 31 31;" xml:space="preserve">
<g>
	<path d="M15.5,0C6.953,0,0,6.953,0,15.5S6.953,31,15.5,31S31,24.047,31,15.5S24.047,0,15.5,0z M15.5,29C8.056,29,2,22.944,2,15.5
		S8.056,2,15.5,2S29,8.056,29,15.5S22.944,29,15.5,29z"/>
	<path d="M19.97,8.008c-1.741,0.103-3.242,0.944-4.47,2.501c-1.229-1.557-2.729-2.397-4.47-2.501
		C9.848,7.944,8.707,8.362,7.814,9.203C6.644,10.306,6,11.977,6,13.911c0,5.135,6.469,9.419,9.25,11.022
		C15.328,24.978,15.414,25,15.5,25s0.172-0.022,0.25-0.067C18.531,23.33,25,19.046,25,13.911c0-1.934-0.645-3.605-1.814-4.708
		C22.292,8.361,21.146,7.938,19.97,8.008z M15.5,23.921C12.752,22.305,7,18.384,7,13.911c0-1.631,0.547-3.082,1.5-3.979
		C9.148,9.32,9.93,9,10.77,9c0.066,0,0.133,0.002,0.2,0.006c1.638,0.098,2.984,0.958,4.116,2.631c0.186,0.274,0.643,0.274,0.828,0
		c1.132-1.673,2.478-2.534,4.116-2.631c0.918-0.057,1.77,0.265,2.47,0.925c0.953,0.898,1.5,2.349,1.5,3.98
		C24,18.384,18.248,22.305,15.5,23.921z"/>
</g>
</svg>
