<?xml version="1.0" encoding="iso-8859-1"?>
<!-- Generator: Adobe Illustrator 22.1.0, SVG Export Plug-In . SVG Version: 6.00 Build 0)  -->
<svg version="1.1" id="Layer_1" xmlns="http://www.w3.org/2000/svg" xmlns:xlink="http://www.w3.org/1999/xlink" x="0px" y="0px"
	 viewBox="0 0 31 31" style="enable-background:new 0 0 31 31;" xml:space="preserve">
<g>
	<path d="M15.5,0C6.953,0,0,6.953,0,15.5S6.953,31,15.5,31S31,24.047,31,15.5S24.047,0,15.5,0z M15.5,29C8.056,29,2,22.944,2,15.5
		S8.056,2,15.5,2S29,8.056,29,15.5S22.944,29,15.5,29z"/>
	<path d="M24.098,13.413c-0.748,0.023-1.179-0.216-1.432-0.826c-0.255-0.614-0.12-1.1,0.453-1.626
		c0.283-0.261,0.326-0.69,0.104-0.997c-0.599-0.835-1.316-1.557-2.13-2.143c-0.314-0.23-0.748-0.183-1.008,0.109
		c-0.464,0.518-0.941,0.673-1.497,0.487c-0.695-0.234-0.977-0.688-0.942-1.519c0.016-0.388-0.261-0.723-0.638-0.778
		C15.993,5.96,14.978,5.96,13.99,6.122c-0.378,0.063-0.65,0.4-0.631,0.782c0.035,0.753-0.218,1.2-0.82,1.451
		c-0.605,0.256-1.107,0.121-1.617-0.435c-0.262-0.293-0.696-0.337-1.005-0.106c-0.82,0.594-1.536,1.313-2.121,2.132
		c-0.232,0.312-0.189,0.744,0.095,1c0.538,0.5,0.674,0.986,0.444,1.574c-0.246,0.624-0.697,0.882-1.449,0.861
		c-0.382-0.008-0.709,0.262-0.769,0.636c-0.16,0.987-0.157,1.998,0.007,3.003c0.061,0.371,0.377,0.642,0.762,0.635
		c0.728-0.016,1.168,0.235,1.417,0.817c0.256,0.607,0.134,1.088-0.404,1.604c-0.273,0.257-0.314,0.682-0.094,0.992
		c0.599,0.824,1.314,1.538,2.088,2.09c0.041,0.036,0.129,0.088,0.179,0.109c0.27,0.112,0.597,0.056,0.778-0.11
		c0.024-0.017,0.099-0.083,0.119-0.104c0.42-0.439,0.993-0.585,1.496-0.381c0.013,0.005,0.025,0.01,0.038,0.014
		c0.532,0.23,0.831,0.709,0.822,1.322c-0.001,0.469,0.3,0.815,0.765,0.883C14.55,24.964,15.015,25,15.486,25
		c0.45,0,0.905-0.032,1.365-0.097l0.131-0.026c0.363-0.062,0.626-0.377,0.626-0.76c-0.014-0.678,0.207-1.094,0.715-1.348
		c0.641-0.323,1.155-0.212,1.722,0.372c0.258,0.265,0.682,0.3,0.98,0.085c0.824-0.587,1.543-1.297,2.137-2.11
		c0.001-0.001,0.002-0.003,0.003-0.004c0.218-0.305,0.178-0.729-0.093-0.987c-0.529-0.506-0.662-0.992-0.433-1.573
		c0.243-0.614,0.693-0.884,1.451-0.859c0.363,0.016,0.652-0.211,0.746-0.534c0.215-0.701,0.22-2.604,0.008-3.232
		C24.739,13.607,24.428,13.395,24.098,13.413z M23.919,16.693c-1.347,0.037-1.945,0.821-2.21,1.491
		c-0.359,0.911-0.185,1.754,0.52,2.51c-0.464,0.604-1.008,1.14-1.622,1.6c-1.035-0.952-2.051-0.761-2.733-0.418
		c-0.807,0.404-1.231,1.097-1.265,2.052c-0.763,0.099-1.526,0.097-2.285-0.009c-0.021-0.981-0.559-1.784-1.45-2.157
		c-0.016-0.006-0.034-0.013-0.052-0.019c-0.836-0.329-1.758-0.139-2.472,0.518c-0.604-0.457-1.146-0.998-1.612-1.608
		c0.716-0.771,0.88-1.633,0.485-2.567c-0.388-0.911-1.108-1.39-2.142-1.425c-0.106-0.763-0.108-1.527-0.006-2.277
		c1.336-0.043,1.929-0.827,2.192-1.496c0.25-0.641,0.349-1.583-0.54-2.518c0.459-0.61,0.998-1.152,1.608-1.618
		c0.958,0.928,1.932,0.805,2.59,0.527c0.656-0.273,1.417-0.876,1.436-2.201c0.747-0.102,1.511-0.102,2.282,0.001
		c0.022,1.438,0.885,2.038,1.626,2.288c0.622,0.209,1.53,0.259,2.407-0.608c0.602,0.458,1.142,1.001,1.608,1.62
		c-0.753,0.774-0.936,1.646-0.542,2.593c0.273,0.657,0.875,1.423,2.195,1.443C24.029,14.947,24.021,16.123,23.919,16.693z"/>
	<path d="M15.5,12c-1.93,0-3.5,1.57-3.5,3.5s1.57,3.5,3.5,3.5s3.5-1.57,3.5-3.5S17.43,12,15.5,12z M15.5,18
		c-1.378,0-2.5-1.122-2.5-2.5s1.122-2.5,2.5-2.5s2.5,1.122,2.5,2.5S16.878,18,15.5,18z"/>
</g>
</svg>
