<?xml version="1.0" encoding="iso-8859-1"?>
<!-- Generator: Adobe Illustrator 22.1.0, SVG Export Plug-In . SVG Version: 6.00 Build 0)  -->
<svg version="1.1" id="Layer_1" xmlns="http://www.w3.org/2000/svg" xmlns:xlink="http://www.w3.org/1999/xlink" x="0px" y="0px"
	 viewBox="0 0 31 31" style="enable-background:new 0 0 31 31;" xml:space="preserve">
<g>
	<path d="M15.5,0C6.953,0,0,6.953,0,15.5S6.953,31,15.5,31S31,24.047,31,15.5S24.047,0,15.5,0z M15.5,29C8.056,29,2,22.944,2,15.5
		S8.056,2,15.5,2S29,8.056,29,15.5S22.944,29,15.5,29z"/>
	<path d="M23.859,14.47C23.953,14.153,24,13.829,24,13.5c0-2.137-1.944-3.862-4.128-3.438C19.451,8.28,17.878,7,16,7
		c-1.471,0-2.991,0.876-3.722,2.095C10.035,8.558,8,10.314,8,12.5c0,0.244,0.027,0.488,0.081,0.73C6.267,13.833,5,15.549,5,17.5
		C5,19.981,7.019,22,9.5,22H22c2.206,0,4-1.794,4-4C26,16.518,25.157,15.155,23.859,14.47z M22,21H9.5C7.57,21,6,19.43,6,17.5
		c0-1.661,1.181-3.104,2.808-3.43c0.145-0.029,0.27-0.121,0.34-0.25c0.071-0.129,0.081-0.284,0.027-0.421
		C9.059,13.1,9,12.798,9,12.5c0-1.378,1.121-2.5,2.5-2.5c0.279,0,0.561,0.053,0.859,0.163c0.248,0.091,0.526-0.027,0.631-0.271
		C13.447,8.831,14.769,8,16,8c1.557,0,2.833,1.177,2.971,2.737c0.014,0.155,0.099,0.295,0.23,0.378
		c0.131,0.083,0.293,0.101,0.439,0.047C21.415,10.511,23,11.842,23,13.5c0,0.35-0.076,0.695-0.227,1.027
		c-0.058,0.126-0.06,0.27-0.007,0.398c0.053,0.127,0.156,0.228,0.285,0.276C24.217,15.64,25,16.765,25,18C25,19.654,23.654,21,22,21
		z"/>
</g>
</svg>
