<?xml version="1.0" encoding="iso-8859-1"?>
<!-- Generator: Adobe Illustrator 22.1.0, SVG Export Plug-In . SVG Version: 6.00 Build 0)  -->
<svg version="1.1" id="Layer_1" xmlns="http://www.w3.org/2000/svg" xmlns:xlink="http://www.w3.org/1999/xlink" x="0px" y="0px"
	 viewBox="0 0 31 31" style="enable-background:new 0 0 31 31;" xml:space="preserve">
<g>
	<path d="M15.5,0C6.953,0,0,6.953,0,15.5S6.953,31,15.5,31S31,24.047,31,15.5S24.047,0,15.5,0z M15.5,29C8.056,29,2,22.944,2,15.5
		S8.056,2,15.5,2S29,8.056,29,15.5S22.944,29,15.5,29z"/>
	<path d="M26.771,16.08l-2.531-1.629c1-0.859,1.585-1.558,1.648-1.634c0.175-0.213,0.143-0.528-0.071-0.704
		c-0.213-0.174-0.528-0.144-0.704,0.071C25.074,12.231,21.107,17,15.5,17c-5.594,0-9.574-4.769-9.613-4.817
		c-0.175-0.214-0.49-0.246-0.704-0.07c-0.213,0.175-0.245,0.49-0.07,0.703c0.063,0.076,0.648,0.775,1.647,1.634L4.229,16.08
		c-0.232,0.149-0.299,0.459-0.15,0.691C4.175,16.919,4.336,17,4.5,17c0.093,0,0.187-0.026,0.27-0.08l2.81-1.809
		c0.826,0.626,1.838,1.271,3.008,1.795l-2.488,3.293c-0.167,0.22-0.123,0.534,0.098,0.7C8.289,20.967,8.395,21,8.5,21
		c0.151,0,0.301-0.068,0.399-0.199l2.652-3.51c1.052,0.376,2.21,0.629,3.454,0.684C15.005,17.984,15,17.991,15,18v4.5
		c0,0.276,0.224,0.5,0.5,0.5s0.5-0.224,0.5-0.5V18c0-0.009-0.005-0.016-0.005-0.025c1.311-0.059,2.53-0.333,3.627-0.742l2.468,3.552
		C22.187,20.925,22.342,21,22.5,21c0.098,0,0.198-0.029,0.285-0.089c0.227-0.158,0.283-0.469,0.125-0.696l-2.344-3.374
		c1.106-0.511,2.062-1.131,2.853-1.729l2.81,1.809C26.313,16.974,26.407,17,26.5,17c0.165,0,0.325-0.081,0.421-0.229
		C27.07,16.539,27.003,16.229,26.771,16.08z"/>
</g>
</svg>
