<?xml version="1.0" encoding="iso-8859-1"?>
<!-- Generator: Adobe Illustrator 22.1.0, SVG Export Plug-In . SVG Version: 6.00 Build 0)  -->
<svg version="1.1" id="Layer_1" xmlns="http://www.w3.org/2000/svg" xmlns:xlink="http://www.w3.org/1999/xlink" x="0px" y="0px"
	 viewBox="0 0 31 31" style="enable-background:new 0 0 31 31;" xml:space="preserve">
<g>
	<path d="M15.5,0C6.953,0,0,6.953,0,15.5S6.953,31,15.5,31S31,24.047,31,15.5S24.047,0,15.5,0z M15.5,29C8.056,29,2,22.944,2,15.5
		S8.056,2,15.5,2S29,8.056,29,15.5S22.944,29,15.5,29z"/>
	<path d="M15.93,6.243C15.839,6.092,15.677,6,15.501,6s-0.338,0.092-0.429,0.243l-9.001,15c-0.093,0.154-0.095,0.347-0.006,0.503
		C6.154,21.903,6.32,22,6.5,22h18c0.18,0,0.346-0.097,0.435-0.254c0.089-0.156,0.086-0.349-0.006-0.503L15.93,6.243z M7.383,21
		l8.118-13.528L23.617,21H7.383z"/>
	<path d="M15,11.5v6c0,0.276,0.224,0.5,0.5,0.5s0.5-0.224,0.5-0.5v-6c0-0.276-0.224-0.5-0.5-0.5S15,11.224,15,11.5z"/>
	<path d="M15.15,19.149C15.05,19.24,15,19.37,15,19.5s0.05,0.26,0.15,0.35C15.24,19.95,15.37,20,15.5,20c0.13,0,0.26-0.05,0.35-0.15
		c0.1-0.09,0.15-0.22,0.15-0.35s-0.05-0.26-0.15-0.351C15.67,18.96,15.33,18.96,15.15,19.149z"/>
</g>
</svg>
