<?xml version="1.0" encoding="iso-8859-1"?>
<!-- Generator: Adobe Illustrator 22.1.0, SVG Export Plug-In . SVG Version: 6.00 Build 0)  -->
<svg version="1.1" id="Layer_1" xmlns="http://www.w3.org/2000/svg" xmlns:xlink="http://www.w3.org/1999/xlink" x="0px" y="0px"
	 viewBox="0 0 31 31" style="enable-background:new 0 0 31 31;" xml:space="preserve">
<g>
	<path d="M15.5,0C6.953,0,0,6.953,0,15.5S6.953,31,15.5,31S31,24.047,31,15.5S24.047,0,15.5,0z M15.5,29C8.056,29,2,22.944,2,15.5
		S8.056,2,15.5,2S29,8.056,29,15.5S22.944,29,15.5,29z"/>
	<path d="M17.371,7.162C16.969,6.448,16.271,6,15.5,6s-1.469,0.448-1.871,1.162c-2.176,0.514-3.897,2.317-4.204,4.612L8.004,22.434
		c-0.019,0.143,0.025,0.287,0.12,0.396C8.219,22.938,8.355,23,8.5,23h4.551c0.232,1.14,1.242,2,2.449,2s2.217-0.86,2.449-2H22.5
		c0.145,0,0.281-0.062,0.376-0.17c0.095-0.109,0.139-0.253,0.12-0.396l-1.422-10.661C21.268,9.479,19.547,7.675,17.371,7.162z
		 M15.5,24c-0.651,0-1.201-0.419-1.408-1h2.816C16.701,23.581,16.151,24,15.5,24z M9.071,22l1.347-10.095
		C10.714,9.679,12.632,8,14.878,8h1.244c2.246,0,4.164,1.679,4.46,3.905L21.929,22H9.071z"/>
</g>
</svg>
