<?xml version="1.0" encoding="iso-8859-1"?>
<!-- Generator: Adobe Illustrator 22.1.0, SVG Export Plug-In . SVG Version: 6.00 Build 0)  -->
<svg version="1.1" id="Layer_1" xmlns="http://www.w3.org/2000/svg" xmlns:xlink="http://www.w3.org/1999/xlink" x="0px" y="0px"
	 viewBox="0 0 31 31" style="enable-background:new 0 0 31 31;" xml:space="preserve">
<g>
	<path d="M15.5,0C6.953,0,0,6.953,0,15.5S6.953,31,15.5,31S31,24.047,31,15.5S24.047,0,15.5,0z M15.5,29C8.056,29,2,22.944,2,15.5
		S8.056,2,15.5,2S29,8.056,29,15.5S22.944,29,15.5,29z"/>
	<path d="M10.5,20h3c0.276,0,0.5-0.224,0.5-0.5v-3c0-0.276-0.224-0.5-0.5-0.5h-3c-0.276,0-0.5,0.224-0.5,0.5v3
		C10,19.776,10.224,20,10.5,20z M11,17h2v2h-2V17z"/>
	<path d="M17.5,20h3c0.276,0,0.5-0.224,0.5-0.5v-3c0-0.276-0.224-0.5-0.5-0.5h-3c-0.276,0-0.5,0.224-0.5,0.5v3
		C17,19.776,17.224,20,17.5,20z M18,17h2v2h-2V17z"/>
	<path d="M23.5,9H22V7.5C22,7.224,21.776,7,21.5,7S21,7.224,21,7.5V9h-3V7.5C18,7.224,17.776,7,17.5,7S17,7.224,17,7.5V9h-3V7.5
		C14,7.224,13.776,7,13.5,7S13,7.224,13,7.5V9h-3V7.5C10,7.224,9.776,7,9.5,7S9,7.224,9,7.5V9H7.5C7.224,9,7,9.224,7,9.5v14
		C7,23.776,7.224,24,7.5,24h16c0.276,0,0.5-0.224,0.5-0.5v-14C24,9.224,23.776,9,23.5,9z M23,23H8V13h15V23z M23,12H8v-2h15V12z"/>
</g>
</svg>
