<?xml version="1.0" encoding="iso-8859-1"?>
<!-- Generator: Adobe Illustrator 22.1.0, SVG Export Plug-In . SVG Version: 6.00 Build 0)  -->
<svg version="1.1" id="Layer_1" xmlns="http://www.w3.org/2000/svg" xmlns:xlink="http://www.w3.org/1999/xlink" x="0px" y="0px"
	 viewBox="0 0 31 31" style="enable-background:new 0 0 31 31;" xml:space="preserve">
<g>
	<path d="M15.5,0C6.953,0,0,6.953,0,15.5S6.953,31,15.5,31S31,24.047,31,15.5S24.047,0,15.5,0z M15.5,29C8.056,29,2,22.944,2,15.5
		S8.056,2,15.5,2S29,8.056,29,15.5S22.944,29,15.5,29z"/>
	<path d="M15.5,18c-1.379,0-2.5,1.121-2.5,2.5s1.121,2.5,2.5,2.5s2.5-1.121,2.5-2.5S16.879,18,15.5,18z M15.5,22
		c-0.827,0-1.5-0.673-1.5-1.5s0.673-1.5,1.5-1.5s1.5,0.673,1.5,1.5S16.327,22,15.5,22z"/>
	<path d="M15.5,13c-2.115,0-4.142,0.899-5.562,2.468c-0.185,0.205-0.169,0.521,0.035,0.707l1.482,1.342
		c0.204,0.184,0.522,0.17,0.707-0.035C13.015,16.54,14.231,16,15.5,16s2.485,0.54,3.337,1.481c0.1,0.108,0.235,0.164,0.371,0.164
		c0.12,0,0.24-0.043,0.336-0.129l1.482-1.342c0.204-0.186,0.22-0.502,0.035-0.707C19.642,13.899,17.615,13,15.5,13z M19.227,16.455
		C18.216,15.524,16.883,15,15.5,15c-1.384,0-2.716,0.524-3.726,1.455l-0.744-0.674C12.231,14.644,13.834,14,15.5,14
		s3.269,0.644,4.47,1.781L19.227,16.455z"/>
	<path d="M15.5,8c-3.524,0-6.903,1.499-9.27,4.113c-0.089,0.099-0.135,0.229-0.128,0.361c0.006,0.132,0.065,0.257,0.164,0.346
		l1.483,1.342c0.204,0.184,0.521,0.169,0.706-0.035C10.254,12.14,12.821,11,15.5,11s5.246,1.14,7.044,3.127
		c0.099,0.108,0.235,0.164,0.371,0.164c0.12,0,0.239-0.043,0.335-0.129l1.483-1.342c0.099-0.089,0.158-0.214,0.164-0.346
		c0.007-0.133-0.039-0.263-0.128-0.361C22.403,9.499,19.024,8,15.5,8z M22.941,13.093C20.979,11.121,18.294,10,15.5,10
		s-5.479,1.121-7.441,3.093l-0.742-0.672C9.47,10.241,12.424,9,15.5,9s6.03,1.241,8.184,3.421L22.941,13.093z"/>
</g>
</svg>
