<?xml version="1.0" encoding="iso-8859-1"?>
<!-- Generator: Adobe Illustrator 22.1.0, SVG Export Plug-In . SVG Version: 6.00 Build 0)  -->
<svg version="1.1" id="Layer_1" xmlns="http://www.w3.org/2000/svg" xmlns:xlink="http://www.w3.org/1999/xlink" x="0px" y="0px"
	 viewBox="0 0 31 31" style="enable-background:new 0 0 31 31;" xml:space="preserve">
<g>
	<path d="M15.5,0C6.953,0,0,6.953,0,15.5S6.953,31,15.5,31S31,24.047,31,15.5S24.047,0,15.5,0z M15.5,29C8.056,29,2,22.944,2,15.5
		S8.056,2,15.5,2S29,8.056,29,15.5S22.944,29,15.5,29z"/>
	<path d="M19.138,18.431C20.293,17.111,21,15.388,21,13.5C21,9.364,17.636,6,13.5,6S6,9.364,6,13.5S9.364,21,13.5,21
		c1.888,0,3.611-0.707,4.931-1.862l4.716,4.716C23.244,23.951,23.372,24,23.5,24s0.256-0.049,0.354-0.146
		c0.195-0.195,0.195-0.512,0-0.707L19.138,18.431z M7,13.5C7,9.916,9.916,7,13.5,7S20,9.916,20,13.5S17.084,20,13.5,20
		S7,17.084,7,13.5z"/>
</g>
</svg>
