<?xml version="1.0" encoding="iso-8859-1"?>
<!-- Generator: Adobe Illustrator 22.1.0, SVG Export Plug-In . SVG Version: 6.00 Build 0)  -->
<svg version="1.1" id="Layer_1" xmlns="http://www.w3.org/2000/svg" xmlns:xlink="http://www.w3.org/1999/xlink" x="0px" y="0px"
	 viewBox="0 0 31 31" style="enable-background:new 0 0 31 31;" xml:space="preserve">
<path d="M31,15.5c0-0.283-0.12-0.553-0.331-0.743l-2.821-2.542l1.13-3.67c0.082-0.267,0.049-0.555-0.091-0.796
	c-0.14-0.241-0.374-0.413-0.646-0.474l-3.689-0.827l-0.827-3.689c-0.061-0.272-0.233-0.507-0.476-0.647
	c-0.241-0.14-0.531-0.172-0.798-0.089l-3.667,1.146l-2.541-2.835c-0.379-0.423-1.11-0.423-1.489,0l-2.541,2.835L8.548,2.022
	C8.282,1.94,7.992,1.972,7.75,2.111c-0.242,0.14-0.415,0.375-0.476,0.647L6.447,6.447L2.758,7.274
	C2.486,7.335,2.252,7.507,2.112,7.748c-0.14,0.241-0.173,0.53-0.091,0.796l1.13,3.67l-2.821,2.542C0.12,14.947,0,15.217,0,15.5
	s0.12,0.553,0.331,0.743l2.821,2.542l-1.13,3.67c-0.082,0.267-0.049,0.555,0.091,0.796c0.14,0.241,0.374,0.413,0.646,0.474
	l3.689,0.827l0.827,3.689c0.061,0.272,0.233,0.507,0.476,0.647c0.242,0.14,0.531,0.172,0.798,0.089l3.667-1.146l2.541,2.835
	C14.945,30.879,15.216,31,15.5,31s0.555-0.121,0.745-0.333l2.541-2.835l3.667,1.146c0.268,0.084,0.557,0.051,0.798-0.089
	c0.242-0.14,0.415-0.375,0.476-0.647l0.827-3.689l3.689-0.827c0.272-0.061,0.506-0.232,0.646-0.474
	c0.14-0.241,0.173-0.53,0.091-0.796l-1.13-3.67l2.821-2.542C30.88,16.053,31,15.783,31,15.5z M26.035,17.727
	c-0.289,0.26-0.401,0.665-0.286,1.037l1,3.247l-3.252,0.729c-0.377,0.084-0.672,0.379-0.757,0.757l-0.728,3.248l-3.244-1.014
	c-0.374-0.117-0.781-0.005-1.043,0.287L15.5,28.501l-2.225-2.483c-0.193-0.215-0.465-0.333-0.745-0.333
	c-0.1,0-0.2,0.015-0.298,0.045l-3.244,1.014L8.26,23.497c-0.084-0.377-0.379-0.672-0.757-0.757l-3.252-0.729l1-3.247
	c0.115-0.372,0.003-0.777-0.286-1.037L2.494,15.5l2.471-2.227c0.289-0.26,0.401-0.665,0.286-1.037l-1-3.247L7.503,8.26
	C7.881,8.176,8.176,7.881,8.26,7.503l0.728-3.248l3.244,1.014c0.375,0.118,0.782,0.004,1.043-0.287L15.5,2.499l2.225,2.483
	c0.262,0.292,0.669,0.405,1.043,0.287l3.244-1.014l0.728,3.248c0.084,0.377,0.379,0.672,0.757,0.757l3.252,0.729l-1,3.247
	c-0.115,0.372-0.003,0.777,0.286,1.037l2.471,2.227L26.035,17.727z"/>
</svg>
