<?xml version="1.0" encoding="iso-8859-1"?>
<!-- Generator: Adobe Illustrator 22.1.0, SVG Export Plug-In . SVG Version: 6.00 Build 0)  -->
<svg version="1.1" id="Layer_1" xmlns="http://www.w3.org/2000/svg" xmlns:xlink="http://www.w3.org/1999/xlink" x="0px" y="0px"
	 viewBox="0 0 31 31" style="enable-background:new 0 0 31 31;" xml:space="preserve">
<g>
	<path d="M15.5,0C6.953,0,0,6.953,0,15.5S6.953,31,15.5,31S31,24.047,31,15.5S24.047,0,15.5,0z M15.5,29C8.056,29,2,22.944,2,15.5
		S8.056,2,15.5,2S29,8.056,29,15.5S22.944,29,15.5,29z"/>
	<path d="M17.253,16.075c-0.413-0.161-0.833-0.305-1.253-0.45V9.036c2.802,0.183,3.729,1.812,4.02,2.817
		c0.076,0.266,0.355,0.416,0.619,0.342c0.266-0.077,0.418-0.354,0.342-0.619C20.364,9.442,18.556,8.178,16,8.03V7.5
		C16,7.224,15.776,7,15.5,7S15,7.224,15,7.5v0.532c-1.384,0.076-2.607,0.448-3.544,1.122C10.504,9.841,10,10.815,10,11.97
		c0,1.305,0.801,2.402,2.379,3.263c0.85,0.463,1.743,0.794,2.621,1.1v6.629c-2.133-0.189-3.649-1.532-4.02-2.815
		c-0.077-0.266-0.355-0.417-0.619-0.342c-0.266,0.077-0.418,0.354-0.342,0.619c0.559,1.936,2.612,3.359,4.98,3.54V24.5
		c0,0.276,0.224,0.5,0.5,0.5s0.5-0.224,0.5-0.5v-0.532c1.384-0.076,2.608-0.448,3.544-1.122C20.496,22.159,21,21.185,21,20.03
		C21,17.533,18.277,16.473,17.253,16.075z M12.857,14.355C11.607,13.673,11,12.893,11,11.97c0-0.832,0.351-1.507,1.041-2.005
		c0.768-0.553,1.79-0.862,2.959-0.934v6.242C14.269,15.012,13.537,14.726,12.857,14.355z M18.959,22.035
		c-0.768,0.553-1.789,0.862-2.959,0.934v-6.282c0.298,0.104,0.597,0.205,0.89,0.319C18.338,17.57,20,18.423,20,20.03
		C20,20.862,19.649,21.537,18.959,22.035z"/>
</g>
</svg>
