<?xml version="1.0" encoding="iso-8859-1"?>
<!-- Generator: Adobe Illustrator 22.1.0, SVG Export Plug-In . SVG Version: 6.00 Build 0)  -->
<svg version="1.1" id="Layer_1" xmlns="http://www.w3.org/2000/svg" xmlns:xlink="http://www.w3.org/1999/xlink" x="0px" y="0px"
	 viewBox="0 0 31 31" style="enable-background:new 0 0 31 31;" xml:space="preserve">
<g>
	<path d="M15.5,0C6.953,0,0,6.953,0,15.5S6.953,31,15.5,31S31,24.047,31,15.5S24.047,0,15.5,0z M15.5,29C8.056,29,2,22.944,2,15.5
		S8.056,2,15.5,2S29,8.056,29,15.5S22.944,29,15.5,29z"/>
	<path d="M14.093,20.592C13.7,20.986,13.5,21.46,13.5,22c0,0.556,0.201,1.033,0.596,1.419C14.487,23.805,14.966,24,15.519,24
		c0.541,0,1.012-0.196,1.398-0.584C17.304,23.03,17.5,22.554,17.5,22c0-0.539-0.195-1.012-0.579-1.405
		C16.139,19.799,14.872,19.814,14.093,20.592z M16.21,22.709c-0.407,0.408-1.015,0.389-1.414-0.005
		C14.594,22.508,14.5,22.284,14.5,22c0-0.273,0.096-0.496,0.3-0.701C15.004,21.095,15.232,21,15.519,21
		c0.271,0,0.49,0.094,0.688,0.295C16.407,21.5,16.5,21.724,16.5,22C16.5,22.286,16.408,22.512,16.21,22.709z"/>
	<path d="M15.5,7C14.122,7,13,7.897,13,9c0,0.782,0.139,1.469,0.313,2.339C13.604,12.777,14,14.746,14,18.5
		c0,0.276,0.224,0.5,0.5,0.5h2c0.276,0,0.5-0.224,0.5-0.5c0-3.754,0.396-5.723,0.687-7.161C17.861,10.469,18,9.782,18,9
		C18,7.897,16.878,7,15.5,7z M16.706,11.142c-0.285,1.414-0.67,3.327-0.704,6.858h-1.005c-0.033-3.531-0.419-5.444-0.704-6.858
		C14.13,10.326,14,9.683,14,9c0-0.542,0.687-1,1.5-1S17,8.458,17,9C17,9.683,16.87,10.326,16.706,11.142z"/>
</g>
</svg>
