<?xml version="1.0" encoding="iso-8859-1"?>
<!-- Generator: Adobe Illustrator 22.1.0, SVG Export Plug-In . SVG Version: 6.00 Build 0)  -->
<svg version="1.1" id="Layer_1" xmlns="http://www.w3.org/2000/svg" xmlns:xlink="http://www.w3.org/1999/xlink" x="0px" y="0px"
	 viewBox="0 0 31 31" style="enable-background:new 0 0 31 31;" xml:space="preserve">
<g>
	<path d="M15.5,0C6.953,0,0,6.953,0,15.5S6.953,31,15.5,31S31,24.047,31,15.5S24.047,0,15.5,0z M15.5,29C8.056,29,2,22.944,2,15.5
		S8.056,2,15.5,2S29,8.056,29,15.5S22.944,29,15.5,29z"/>
	<path d="M14.093,20.592C13.7,20.986,13.5,21.46,13.5,22c0,0.556,0.201,1.033,0.596,1.419C14.487,23.805,14.966,24,15.519,24
		c0.541,0,1.012-0.196,1.398-0.584C17.304,23.03,17.5,22.554,17.5,22c0-0.539-0.195-1.012-0.579-1.405
		C16.138,19.799,14.872,19.814,14.093,20.592z M16.21,22.709c-0.406,0.408-1.015,0.389-1.414-0.005
		C14.594,22.508,14.5,22.284,14.5,22c0-0.273,0.096-0.496,0.3-0.701C15.004,21.095,15.232,21,15.519,21
		c0.271,0,0.49,0.094,0.688,0.295C16.407,21.5,16.5,21.724,16.5,22C16.5,22.286,16.408,22.512,16.21,22.709z"/>
	<path d="M15,7c-3.476,0-6,2.103-6,5c0,0.556,0.201,1.033,0.597,1.419c0.776,0.764,2.038,0.779,2.82-0.002
		C12.804,13.03,13,12.554,13,12c0-0.539-0.195-1.012-0.58-1.404c-0.039-0.04-0.08-0.078-0.122-0.114C13.193,10,14.141,10,14.5,10
		c1.202,0,2.5,0.765,2.5,2c0,0.682-0.475,1.259-1.075,1.988C15.067,15.03,14,16.327,14,18.5c0,0.276,0.224,0.5,0.5,0.5h2
		c0.276,0,0.5-0.224,0.5-0.5c0-0.69,0.752-1.433,1.549-2.22C19.698,15.146,21,13.86,21,12C21,9.243,18.309,7,15,7z M17.847,15.568
		c-0.803,0.793-1.567,1.548-1.785,2.432h-1.039c0.142-1.514,0.919-2.459,1.674-3.376C17.367,13.81,18,13.04,18,12
		c0-1.853-1.817-3-3.5-3c-0.542,0-2.192,0-3.511,1.188c-0.14,0.125-0.197,0.318-0.148,0.5c0.048,0.182,0.194,0.32,0.378,0.36
		c0.215,0.046,0.366,0.122,0.487,0.246C11.907,11.5,12,11.724,12,12c0,0.286-0.092,0.512-0.29,0.709
		c-0.408,0.407-1.013,0.39-1.414-0.005C10.094,12.508,10,12.283,10,11.999C10,9.374,12.516,8,15,8c2.757,0,5,1.794,5,4
		C20,13.442,18.905,14.523,17.847,15.568z"/>
</g>
</svg>
