<?xml version="1.0" encoding="iso-8859-1"?>
<!-- Generator: Adobe Illustrator 22.1.0, SVG Export Plug-In . SVG Version: 6.00 Build 0)  -->
<svg version="1.1" id="Layer_1" xmlns="http://www.w3.org/2000/svg" xmlns:xlink="http://www.w3.org/1999/xlink" x="0px" y="0px"
	 viewBox="0 0 31 31" style="enable-background:new 0 0 31 31;" xml:space="preserve">
<g>
	<path d="M15.5,0C6.953,0,0,6.953,0,15.5S6.953,31,15.5,31S31,24.047,31,15.5S24.047,0,15.5,0z M15.5,29C8.056,29,2,22.944,2,15.5
		S8.056,2,15.5,2S29,8.056,29,15.5S22.944,29,15.5,29z"/>
	<path d="M15.407,5c-5.79,0-10.5,4.71-10.5,10.5S9.617,26,15.407,26s10.5-4.71,10.5-10.5S21.197,5,15.407,5z M15.407,25
		c-5.238,0-9.5-4.262-9.5-9.5s4.262-9.5,9.5-9.5s9.5,4.262,9.5,9.5S20.646,25,15.407,25z"/>
	<path d="M15.907,15.293V8.5c0-0.276-0.224-0.5-0.5-0.5s-0.5,0.224-0.5,0.5v7c0,0.133,0.053,0.26,0.146,0.354l5,5
		C20.151,20.951,20.279,21,20.407,21s0.256-0.049,0.354-0.146c0.195-0.195,0.195-0.512,0-0.707L15.907,15.293z"/>
</g>
</svg>
