<?xml version="1.0" encoding="iso-8859-1"?>
<!-- Generator: Adobe Illustrator 22.1.0, SVG Export Plug-In . SVG Version: 6.00 Build 0)  -->
<svg version="1.1" id="Layer_1" xmlns="http://www.w3.org/2000/svg" xmlns:xlink="http://www.w3.org/1999/xlink" x="0px" y="0px"
	 viewBox="0 0 31 31" style="enable-background:new 0 0 31 31;" xml:space="preserve">
<g>
	<path d="M21.5,10h-2.675C18.94,9.681,19,9.344,19,9c0-1.654-1.346-3-3-3s-3,1.346-3,3c0,0.344,0.06,0.681,0.175,1H9.5
		C8.673,10,8,10.673,8,11.5v3.511c0,0.189,0.107,0.363,0.277,0.448c0.168,0.084,0.372,0.066,0.524-0.049
		C9.156,15.142,9.571,15,10,15c1.103,0,2,0.897,2,2s-0.897,2-2,2c-0.429,0-0.844-0.142-1.198-0.41
		c-0.152-0.115-0.356-0.133-0.524-0.049C8.107,18.625,8,18.799,8,18.989V22.5C8,23.327,8.673,24,9.5,24h12
		c0.827,0,1.5-0.673,1.5-1.5v-11C23,10.673,22.327,10,21.5,10z M22,22.5c0,0.276-0.225,0.5-0.5,0.5h-12C9.225,23,9,22.776,9,22.5
		v-2.675C9.319,19.94,9.656,20,10,20c1.654,0,3-1.346,3-3s-1.346-3-3-3c-0.344,0-0.681,0.06-1,0.175V11.5C9,11.224,9.225,11,9.5,11
		h4.512c0.189,0,0.363-0.107,0.447-0.277c0.085-0.17,0.065-0.373-0.049-0.524C14.142,9.844,14,9.43,14,9c0-1.103,0.897-2,2-2
		s2,0.897,2,2c0,0.43-0.142,0.844-0.41,1.198c-0.114,0.151-0.134,0.354-0.049,0.524C17.625,10.893,17.799,11,17.988,11H21.5
		c0.275,0,0.5,0.224,0.5,0.5V22.5z"/>
	<path d="M15.5,0C6.953,0,0,6.953,0,15.5S6.953,31,15.5,31S31,24.047,31,15.5S24.047,0,15.5,0z M15.5,29C8.056,29,2,22.944,2,15.5
		S8.056,2,15.5,2S29,8.056,29,15.5S22.944,29,15.5,29z"/>
</g>
</svg>
