<?xml version="1.0" encoding="iso-8859-1"?>
<!-- Generator: Adobe Illustrator 22.1.0, SVG Export Plug-In . SVG Version: 6.00 Build 0)  -->
<svg version="1.1" id="Layer_1" xmlns="http://www.w3.org/2000/svg" xmlns:xlink="http://www.w3.org/1999/xlink" x="0px" y="0px"
	 viewBox="0 0 31 31" style="enable-background:new 0 0 31 31;" xml:space="preserve">
<g>
	<path d="M15.5,0C6.953,0,0,6.953,0,15.5S6.953,31,15.5,31S31,24.047,31,15.5S24.047,0,15.5,0z M15.5,29C8.056,29,2,22.944,2,15.5
		S8.056,2,15.5,2S29,8.056,29,15.5S22.944,29,15.5,29z"/>
	<path d="M25.5,14h-5.748l4.087-4.087c0.195-0.195,0.195-0.512,0-0.707l-0.311-0.311c-1.157-1.157-3.176-1.154-4.327-0.001
		L14.071,14H13v-0.5c0-1.037-0.456-2.014-1.25-2.682c-0.794-0.667-1.845-0.949-2.881-0.763c-1.409,0.247-2.566,1.404-2.813,2.813
		c-0.183,1.036,0.096,2.086,0.763,2.881C7.486,16.544,8.463,17,9.5,17h3.587c0.609,0,1.185,0.191,1.671,0.534l-0.49,0.491
		c-0.195,0.195-0.195,0.512,0,0.707C14.74,19.205,15,19.833,15,20.5c0,1.379-1.121,2.5-2.5,2.5S10,21.879,10,20.5
		c0-0.71,0.304-1.39,0.833-1.864c0.206-0.184,0.224-0.5,0.04-0.705c-0.187-0.206-0.504-0.223-0.706-0.04
		C9.425,18.555,9,19.506,9,20.5c0,1.93,1.57,3.5,3.5,3.5s3.5-1.57,3.5-3.5c0-0.766-0.245-1.495-0.697-2.097L15.705,18h7.234
		c0.817,0,1.586-0.318,2.164-0.896S26,15.757,26,14.939V14.5C26,14.224,25.776,14,25.5,14z M19.907,9.603
		c0.763-0.765,2.089-0.78,2.87-0.042L18.338,14h-2.849L19.907,9.603z M24.396,16.396C24.007,16.786,23.49,17,22.939,17h-7.242
		c-0.717-0.646-1.636-1-2.61-1H9.5c-0.74,0-1.438-0.325-1.916-0.894c-0.483-0.576-0.677-1.309-0.544-2.063
		c0.177-1.003,1-1.826,2.003-2.003c0.755-0.132,1.488,0.061,2.063,0.544C11.675,12.062,12,12.76,12,13.5v1
		c0,0.276,0.224,0.5,0.5,0.5h12.499C24.984,15.527,24.771,16.021,24.396,16.396z"/>
	<circle cx="9.5" cy="13.5" r="1"/>
	<circle cx="12.5" cy="20.5" r="1"/>
</g>
</svg>
