<?xml version="1.0" encoding="iso-8859-1"?>
<!-- Generator: Adobe Illustrator 22.1.0, SVG Export Plug-In . SVG Version: 6.00 Build 0)  -->
<svg version="1.1" id="Layer_1" xmlns="http://www.w3.org/2000/svg" xmlns:xlink="http://www.w3.org/1999/xlink" x="0px" y="0px"
	 viewBox="0 0 31 31" style="enable-background:new 0 0 31 31;" xml:space="preserve">
<g>
	<path d="M22.5,9c-3.813,0-6.059-1.38-6.531-2.663c-0.145-0.393-0.793-0.393-0.938,0C14.559,7.62,12.313,9,8.5,9
		C8.224,9,8,9.224,8,9.5v9.454C8,22.058,15.168,25,15.5,25s7.5-2.942,7.5-6.046V9.5C23,9.224,22.776,9,22.5,9z M22,18.954
		c0,1.865-4.595,4.243-6.5,5.009C13.595,23.197,9,20.818,9,18.954V9.992c2.959-0.096,5.395-1.04,6.5-2.473
		c1.105,1.433,3.541,2.377,6.5,2.473V18.954z"/>
	<path d="M15.5,0C6.953,0,0,6.953,0,15.5S6.953,31,15.5,31S31,24.047,31,15.5S24.047,0,15.5,0z M15.5,29C8.056,29,2,22.944,2,15.5
		S8.056,2,15.5,2S29,8.056,29,15.5S22.944,29,15.5,29z"/>
</g>
</svg>
