<?xml version="1.0" encoding="iso-8859-1"?>
<!-- Generator: Adobe Illustrator 22.1.0, SVG Export Plug-In . SVG Version: 6.00 Build 0)  -->
<svg version="1.1" id="Layer_1" xmlns="http://www.w3.org/2000/svg" xmlns:xlink="http://www.w3.org/1999/xlink" x="0px" y="0px"
	 viewBox="0 0 31 31" style="enable-background:new 0 0 31 31;" xml:space="preserve">
<g>
	<path d="M15.5,0C6.953,0,0,6.953,0,15.5S6.953,31,15.5,31S31,24.047,31,15.5S24.047,0,15.5,0z M15.5,29C8.056,29,2,22.944,2,15.5
		S8.056,2,15.5,2S29,8.056,29,15.5S22.944,29,15.5,29z"/>
	<path d="M20.49,7.078c-0.075,0.024-0.144,0.066-0.2,0.122L9.478,18.012c-0.093,0.092-0.164,0.207-0.204,0.326L8.049,21.86
		c-0.111,0.319-0.03,0.666,0.21,0.906c0.169,0.169,0.391,0.259,0.618,0.259c0.096,0,0.193-0.016,0.287-0.049l3.601-1.252
		c0.071-0.025,0.136-0.065,0.189-0.119l9.487-9.487c0,0,0.001-0.001,0.001-0.001s0.001-0.001,0.001-0.001l1.382-1.382
		c0.056-0.056,0.098-0.125,0.122-0.2c0.018-0.055,0.417-1.351-0.845-2.613C21.841,6.661,20.543,7.058,20.49,7.078z M12.791,20.355
		l-2.121-2.122l8.591-8.591l2.121,2.121L12.791,20.355z M9.368,21.097l0.703-2.048l1.894,1.895l-2.041,0.709L9.368,21.097z
		 M23.015,10.132l-0.926,0.926l-2.121-2.121l0.924-0.924c0.239-0.031,0.854-0.032,1.504,0.618
		C23.049,9.282,23.045,9.9,23.015,10.132z"/>
</g>
</svg>
