<?xml version="1.0" encoding="iso-8859-1"?>
<!-- Generator: Adobe Illustrator 22.1.0, SVG Export Plug-In . SVG Version: 6.00 Build 0)  -->
<svg version="1.1" id="Layer_1" xmlns="http://www.w3.org/2000/svg" xmlns:xlink="http://www.w3.org/1999/xlink" x="0px" y="0px"
	 viewBox="0 0 31 31" style="enable-background:new 0 0 31 31;" xml:space="preserve">
<g>
	<path d="M15.5,0C6.953,0,0,6.953,0,15.5S6.953,31,15.5,31S31,24.047,31,15.5S24.047,0,15.5,0z M15.5,29C8.056,29,2,22.944,2,15.5
		S8.056,2,15.5,2S29,8.056,29,15.5S22.944,29,15.5,29z"/>
	<path d="M23.5,19H22v-2.5c0-0.189-0.107-0.362-0.276-0.447l-0.775-0.388L19.596,8H20.5C20.776,8,21,7.776,21,7.5S20.776,7,20.5,7
		H19h-7h-1.5C10.224,7,10,7.224,10,7.5S10.224,8,10.5,8h0.904l-1.353,7.665l-0.775,0.388C9.107,16.138,9,16.311,9,16.5V19H7.5
		C7.224,19,7,19.224,7,19.5S7.224,20,7.5,20h2H15v5.5c0,0.276,0.224,0.5,0.5,0.5s0.5-0.224,0.5-0.5V20h5.5h2
		c0.276,0,0.5-0.224,0.5-0.5S23.776,19,23.5,19z M10,19v-2.191l0.724-0.361c0.142-0.071,0.241-0.204,0.269-0.36L12.419,8h6.161
		l1.427,8.087c0.027,0.156,0.127,0.289,0.269,0.36L21,16.809V19H10z"/>
</g>
</svg>
