<?xml version="1.0" encoding="iso-8859-1"?>
<!-- Generator: Adobe Illustrator 22.1.0, SVG Export Plug-In . SVG Version: 6.00 Build 0)  -->
<svg version="1.1" id="Layer_1" xmlns="http://www.w3.org/2000/svg" xmlns:xlink="http://www.w3.org/1999/xlink" x="0px" y="0px"
	 viewBox="0 0 31 31" style="enable-background:new 0 0 31 31;" xml:space="preserve">
<g>
	<path d="M15.5,0C6.953,0,0,6.953,0,15.5S6.953,31,15.5,31S31,24.047,31,15.5S24.047,0,15.5,0z M15.5,29C8.056,29,2,22.944,2,15.5
		S8.056,2,15.5,2S29,8.056,29,15.5S22.944,29,15.5,29z"/>
	<path d="M23.5,12H12V9.5C12,7.57,13.57,6,15.5,6c1.598,0,2.992,1.079,3.39,2.625c0.069,0.268,0.345,0.431,0.609,0.36
		c0.268-0.069,0.429-0.342,0.36-0.609C19.346,6.388,17.554,5,15.5,5C13.019,5,11,7.019,11,9.5V12H7.5C7.224,12,7,12.224,7,12.5v8
		c0,1.93,1.57,3.5,3.5,3.5h10c1.93,0,3.5-1.57,3.5-3.5v-8C24,12.224,23.776,12,23.5,12z M23,20.5c0,1.378-1.122,2.5-2.5,2.5h-10
		C9.122,23,8,21.878,8,20.5V13h15V20.5z"/>
</g>
</svg>
