<?xml version="1.0" encoding="iso-8859-1"?>
<!-- Generator: Adobe Illustrator 22.1.0, SVG Export Plug-In . SVG Version: 6.00 Build 0)  -->
<svg version="1.1" id="Layer_1" xmlns="http://www.w3.org/2000/svg" xmlns:xlink="http://www.w3.org/1999/xlink" x="0px" y="0px"
	 viewBox="0 0 31 31" style="enable-background:new 0 0 31 31;" xml:space="preserve">
<g>
	<path d="M23.5,12H20V9.5C20,7.019,17.981,5,15.5,5S11,7.019,11,9.5V12H7.5C7.224,12,7,12.224,7,12.5v8c0,1.93,1.57,3.5,3.5,3.5h10
		c1.93,0,3.5-1.57,3.5-3.5v-8C24,12.224,23.776,12,23.5,12z M12,9.5C12,7.57,13.57,6,15.5,6S19,7.57,19,9.5V12h-7V9.5z M23,20.5
		c0,1.378-1.121,2.5-2.5,2.5h-10C9.121,23,8,21.878,8,20.5V13h15V20.5z"/>
	<path d="M15.5,0C6.953,0,0,6.953,0,15.5S6.953,31,15.5,31S31,24.047,31,15.5S24.047,0,15.5,0z M15.5,29C8.056,29,2,22.944,2,15.5
		S8.056,2,15.5,2S29,8.056,29,15.5S22.944,29,15.5,29z"/>
</g>
</svg>
