<?xml version="1.0" encoding="iso-8859-1"?>
<!-- Generator: Adobe Illustrator 22.1.0, SVG Export Plug-In . SVG Version: 6.00 Build 0)  -->
<svg version="1.1" id="Layer_1" xmlns="http://www.w3.org/2000/svg" xmlns:xlink="http://www.w3.org/1999/xlink" x="0px" y="0px"
	 viewBox="0 0 31 31" style="enable-background:new 0 0 31 31;" xml:space="preserve">
<g>
	<path d="M15.5,0C6.953,0,0,6.953,0,15.5S6.953,31,15.5,31S31,24.047,31,15.5S24.047,0,15.5,0z M15.5,29C8.056,29,2,22.944,2,15.5
		S8.056,2,15.5,2S29,8.056,29,15.5S22.944,29,15.5,29z"/>
	<path d="M24.021,9.869c-0.164-0.029-0.328,0.021-0.444,0.138l-3.988,3.988c-0.276,0.101-1.295,0.389-2.133-0.45
		c-0.84-0.839-0.553-1.854-0.451-2.133l4-3.981c0.117-0.116,0.169-0.282,0.14-0.444c-0.03-0.162-0.138-0.299-0.288-0.366
		C19.937,6.208,18.977,6,18,6c-3.859,0-7,3.14-7,7c0,0.97,0.199,1.895,0.557,2.735l-5.395,5.412
		c-0.194,0.196-0.194,0.512,0.002,0.707C6.261,21.951,6.389,22,6.517,22s0.257-0.049,0.354-0.147l5.175-5.191
		c0.575,0.932,1.361,1.717,2.293,2.292l-5.177,5.192c-0.194,0.196-0.194,0.512,0.002,0.707C9.261,24.951,9.389,25,9.517,25
		s0.257-0.049,0.354-0.147l5.394-5.41C16.106,19.801,17.03,20,18,20c3.859,0,7-3.14,7-7c0-0.973-0.206-1.93-0.613-2.843
		C24.319,10.007,24.183,9.899,24.021,9.869z M18,19c-3.309,0-6-2.691-6-6s2.691-6,6-6c0.592,0,1.178,0.09,1.75,0.269l-3.523,3.506
		c-0.042,0.042-0.076,0.09-0.101,0.144c-0.035,0.076-0.843,1.869,0.622,3.333c1.463,1.465,3.257,0.657,3.333,0.622
		c0.053-0.025,0.102-0.059,0.143-0.1l3.512-3.512C23.911,11.83,24,12.412,24,13C24,16.309,21.309,19,18,19z"/>
</g>
</svg>
