<?xml version="1.0" encoding="iso-8859-1"?>
<!-- Generator: Adobe Illustrator 22.1.0, SVG Export Plug-In . SVG Version: 6.00 Build 0)  -->
<svg version="1.1" id="Layer_1" xmlns="http://www.w3.org/2000/svg" xmlns:xlink="http://www.w3.org/1999/xlink" x="0px" y="0px"
	 viewBox="0 0 31 31" style="enable-background:new 0 0 31 31;" xml:space="preserve">
<g>
	<path d="M15.5,0C6.953,0,0,6.953,0,15.5S6.953,31,15.5,31S31,24.047,31,15.5S24.047,0,15.5,0z M15.5,29C8.056,29,2,22.944,2,15.5
		S8.056,2,15.5,2S29,8.056,29,15.5S22.944,29,15.5,29z"/>
	<path d="M21.5,9h-4C17.224,9,17,9.224,17,9.5v12c0,0.276,0.224,0.5,0.5,0.5h4c0.276,0,0.5-0.224,0.5-0.5v-12
		C22,9.224,21.776,9,21.5,9z M21,21h-3V10h3V21z"/>
	<path d="M13.5,9h-4C9.224,9,9,9.224,9,9.5v12C9,21.776,9.224,22,9.5,22h4c0.276,0,0.5-0.224,0.5-0.5v-12C14,9.224,13.776,9,13.5,9z
		 M13,21h-3V10h3V21z"/>
</g>
</svg>
