<?xml version="1.0" encoding="iso-8859-1"?>
<!-- Generator: Adobe Illustrator 22.1.0, SVG Export Plug-In . SVG Version: 6.00 Build 0)  -->
<svg version="1.1" id="Layer_1" xmlns="http://www.w3.org/2000/svg" xmlns:xlink="http://www.w3.org/1999/xlink" x="0px" y="0px"
	 viewBox="0 0 31 31" style="enable-background:new 0 0 31 31;" xml:space="preserve">
<g>
	<path d="M15.5,0C6.953,0,0,6.953,0,15.5S6.953,31,15.5,31S31,24.047,31,15.5S24.047,0,15.5,0z M15.5,29C8.056,29,2,22.944,2,15.5
		S8.056,2,15.5,2S29,8.056,29,15.5S22.944,29,15.5,29z"/>
	<path d="M12.812,7.109c-0.151-0.12-0.354-0.145-0.529-0.06C12.11,7.133,12,7.308,12,7.5v16c0,0.192,0.11,0.367,0.283,0.45
		C12.353,23.983,12.427,24,12.5,24c0.111,0,0.222-0.037,0.312-0.109l10-8C22.931,15.796,23,15.652,23,15.5s-0.069-0.296-0.188-0.391
		L12.812,7.109z M13,22.46V8.54l8.699,6.96L13,22.46z"/>
</g>
</svg>
