<?xml version="1.0" encoding="iso-8859-1"?>
<!-- Generator: Adobe Illustrator 22.1.0, SVG Export Plug-In . SVG Version: 6.00 Build 0)  -->
<svg version="1.1" id="Layer_1" xmlns="http://www.w3.org/2000/svg" xmlns:xlink="http://www.w3.org/1999/xlink" x="0px" y="0px"
	 viewBox="0 0 31 31" style="enable-background:new 0 0 31 31;" xml:space="preserve">
<g>
	<path d="M15.5,0C6.953,0,0,6.953,0,15.5S6.953,31,15.5,31S31,24.047,31,15.5S24.047,0,15.5,0z M15.5,29C8.056,29,2,22.944,2,15.5
		S8.056,2,15.5,2S29,8.056,29,15.5S22.944,29,15.5,29z"/>
	<path d="M21.5,14H8.707l3.146-3.146c0.195-0.195,0.195-0.512,0-0.707s-0.512-0.195-0.707,0l-4,4c-0.195,0.195-0.195,0.512,0,0.707
		l4,4C11.244,18.951,11.372,19,11.5,19s0.256-0.049,0.354-0.146c0.195-0.195,0.195-0.512,0-0.707L8.707,15H21v6.5
		c0,0.276,0.224,0.5,0.5,0.5s0.5-0.224,0.5-0.5v-7C22,14.224,21.776,14,21.5,14z"/>
</g>
</svg>
