<?xml version="1.0" encoding="iso-8859-1"?>
<!-- Generator: Adobe Illustrator 22.1.0, SVG Export Plug-In . SVG Version: 6.00 Build 0)  -->
<svg version="1.1" id="Layer_1" xmlns="http://www.w3.org/2000/svg" xmlns:xlink="http://www.w3.org/1999/xlink" x="0px" y="0px"
	 viewBox="0 0 31 31" style="enable-background:new 0 0 31 31;" xml:space="preserve">
<g>
	<path d="M15.5,0C6.953,0,0,6.953,0,15.5S6.953,31,15.5,31S31,24.047,31,15.5S24.047,0,15.5,0z M15.5,29C8.056,29,2,22.944,2,15.5
		S8.056,2,15.5,2S29,8.056,29,15.5S22.944,29,15.5,29z"/>
	<path d="M19.854,10.146c-0.195-0.195-0.512-0.195-0.707,0s-0.195,0.512,0,0.707L22.293,14H9.5C9.224,14,9,14.224,9,14.5v7
		C9,21.776,9.224,22,9.5,22s0.5-0.224,0.5-0.5V15h12.293l-3.146,3.146c-0.195,0.195-0.195,0.512,0,0.707
		C19.244,18.951,19.372,19,19.5,19s0.256-0.049,0.354-0.146l4-4c0.195-0.195,0.195-0.512,0-0.707L19.854,10.146z"/>
</g>
</svg>
