<?xml version="1.0" encoding="iso-8859-1"?>
<!-- Generator: Adobe Illustrator 22.1.0, SVG Export Plug-In . SVG Version: 6.00 Build 0)  -->
<svg version="1.1" id="Layer_1" xmlns="http://www.w3.org/2000/svg" xmlns:xlink="http://www.w3.org/1999/xlink" x="0px" y="0px"
	 viewBox="0 0 31 31" style="enable-background:new 0 0 31 31;" xml:space="preserve">
<g>
	<path d="M15.5,0C6.953,0,0,6.953,0,15.5S6.953,31,15.5,31S31,24.047,31,15.5S24.047,0,15.5,0z M15.5,29C8.056,29,2,22.944,2,15.5
		S8.056,2,15.5,2S29,8.056,29,15.5S22.944,29,15.5,29z"/>
	<path d="M21.854,12.146c-0.195-0.195-0.512-0.195-0.707,0s-0.195,0.512,0,0.707L23.293,15H16V7.707l2.146,2.146
		C18.244,9.951,18.372,10,18.5,10s0.256-0.049,0.354-0.146c0.195-0.195,0.195-0.512,0-0.707l-2.999-2.999
		c-0.046-0.046-0.102-0.083-0.163-0.109c-0.122-0.051-0.26-0.051-0.382,0c-0.062,0.025-0.117,0.062-0.163,0.109l-2.999,2.999
		c-0.195,0.195-0.195,0.512,0,0.707s0.512,0.195,0.707,0L15,7.707V15H7.707l2.146-2.146c0.195-0.195,0.195-0.512,0-0.707
		s-0.512-0.195-0.707,0l-2.999,2.999c-0.046,0.046-0.083,0.102-0.109,0.163c-0.051,0.122-0.051,0.26,0,0.382
		c0.025,0.062,0.062,0.117,0.109,0.163l2.999,2.999C9.244,18.951,9.372,19,9.5,19s0.256-0.049,0.354-0.146
		c0.195-0.195,0.195-0.512,0-0.707L7.707,16H15v7.293l-2.146-2.146c-0.195-0.195-0.512-0.195-0.707,0s-0.195,0.512,0,0.707
		l2.999,2.999c0.046,0.046,0.102,0.083,0.163,0.109C15.37,24.987,15.435,25,15.5,25s0.13-0.013,0.191-0.038
		c0.062-0.025,0.117-0.062,0.163-0.109l2.999-2.999c0.195-0.195,0.195-0.512,0-0.707s-0.512-0.195-0.707,0L16,23.293V16h7.293
		l-2.146,2.146c-0.195,0.195-0.195,0.512,0,0.707C21.244,18.951,21.372,19,21.5,19s0.256-0.049,0.354-0.146l3-3
		c0.195-0.195,0.195-0.512,0-0.707L21.854,12.146z"/>
</g>
</svg>
