<?xml version="1.0" encoding="iso-8859-1"?>
<!-- Generator: Adobe Illustrator 22.1.0, SVG Export Plug-In . SVG Version: 6.00 Build 0)  -->
<svg version="1.1" id="Layer_1" xmlns="http://www.w3.org/2000/svg" xmlns:xlink="http://www.w3.org/1999/xlink" x="0px" y="0px"
	 viewBox="0 0 31 31" style="enable-background:new 0 0 31 31;" xml:space="preserve">
<g>
	<path d="M15.5,0C6.953,0,0,6.953,0,15.5S6.953,31,15.5,31S31,24.047,31,15.5S24.047,0,15.5,0z M15.5,29C8.056,29,2,22.944,2,15.5
		S8.056,2,15.5,2S29,8.056,29,15.5S22.944,29,15.5,29z"/>
	<path d="M26.854,15.146c-0.195-0.195-0.512-0.195-0.707,0l-1.184,1.184C24.986,16.054,25,15.776,25,15.5c0-5.238-4.262-9.5-9.5-9.5
		S6,10.262,6,15.5s4.262,9.5,9.5,9.5c0.276,0,0.5-0.224,0.5-0.5S15.776,24,15.5,24C10.813,24,7,20.187,7,15.5S10.813,7,15.5,7
		s8.5,3.813,8.5,8.5c0,0.252-0.013,0.505-0.035,0.758l-1.111-1.111c-0.195-0.195-0.512-0.195-0.707,0s-0.195,0.512,0,0.707l2,2
		C24.244,17.951,24.372,18,24.5,18s0.256-0.049,0.354-0.146l2-2C27.049,15.658,27.049,15.342,26.854,15.146z"/>
</g>
</svg>
