<?xml version="1.0" encoding="iso-8859-1"?>
<!-- Generator: Adobe Illustrator 22.1.0, SVG Export Plug-In . SVG Version: 6.00 Build 0)  -->
<svg version="1.1" id="Layer_1" xmlns="http://www.w3.org/2000/svg" xmlns:xlink="http://www.w3.org/1999/xlink" x="0px" y="0px"
	 viewBox="0 0 31 31" style="enable-background:new 0 0 31 31;" xml:space="preserve">
<g>
	<path d="M14.556,7.393c-1.35,0-2.424,0.371-3.223,1.111c-0.8,0.74-1.199,1.91-1.199,3.509v6.974c0,1.6,0.399,2.77,1.199,3.51
		c0.799,0.74,1.873,1.11,3.223,1.11c1.334,0,2.409-0.37,3.223-1.11c0.814-0.74,1.222-1.91,1.222-3.51v-6.974
		c0-1.599-0.407-2.769-1.222-3.509C16.965,7.764,15.89,7.393,14.556,7.393z M17.899,18.987c0,1.188-0.29,2.079-0.869,2.674
		c-0.579,0.594-1.404,0.891-2.475,0.891c-2.215,0-3.322-1.188-3.322-3.564v-6.974c0-2.376,1.107-3.563,3.322-3.563
		c1.07,0,1.896,0.297,2.475,0.891s0.869,1.484,0.869,2.673V18.987z"/>
	<path d="M15.5,0C6.953,0,0,6.953,0,15.5S6.953,31,15.5,31S31,24.047,31,15.5S24.047,0,15.5,0z M15.5,29C8.056,29,2,22.944,2,15.5
		S8.056,2,15.5,2S29,8.056,29,15.5S22.944,29,15.5,29z"/>
</g>
</svg>
