<?xml version="1.0" encoding="iso-8859-1"?>
<!-- Generator: Adobe Illustrator 22.1.0, SVG Export Plug-In . SVG Version: 6.00 Build 0)  -->
<svg version="1.1" id="Layer_1" xmlns="http://www.w3.org/2000/svg" xmlns:xlink="http://www.w3.org/1999/xlink" x="0px" y="0px"
	 viewBox="0 0 31 31" style="enable-background:new 0 0 31 31;" xml:space="preserve">
<g>
	<path d="M15.517,7.418c-0.221,0-0.396,0.118-0.528,0.352l-1.628,2.684c-0.176,0.22-0.265,0.411-0.265,0.572
		c0,0.132,0.048,0.25,0.144,0.352c0.095,0.103,0.209,0.154,0.341,0.154c0.176,0,0.308-0.095,0.396-0.286L14.9,9.662v13.354
		c0,0.323,0.183,0.484,0.55,0.484c0.366,0,0.55-0.161,0.55-0.484V7.88C16,7.572,15.839,7.418,15.517,7.418z"/>
	<path d="M15.5,0C6.953,0,0,6.953,0,15.5S6.953,31,15.5,31S31,24.047,31,15.5S24.047,0,15.5,0z M15.5,29C8.056,29,2,22.944,2,15.5
		S8.056,2,15.5,2S29,8.056,29,15.5S22.944,29,15.5,29z"/>
</g>
</svg>
