<?xml version="1.0" encoding="iso-8859-1"?>
<!-- Generator: Adobe Illustrator 22.1.0, SVG Export Plug-In . SVG Version: 6.00 Build 0)  -->
<svg version="1.1" id="Layer_1" xmlns="http://www.w3.org/2000/svg" xmlns:xlink="http://www.w3.org/1999/xlink" x="0px" y="0px"
	 viewBox="0 0 31 31" style="enable-background:new 0 0 31 31;" xml:space="preserve">
<g>
	<path d="M19.359,22.443H12.1v-1.562c0-0.47,0.187-0.946,0.561-1.43c0.374-0.484,0.84-0.917,1.397-1.298l1.804-1.299
		c0.646-0.498,1.243-0.982,1.793-1.451c0.55-0.47,1.013-1.041,1.387-1.717c0.373-0.674,0.561-1.378,0.561-2.111
		c0-1.158-0.396-2.142-1.188-2.948c-0.792-0.806-1.812-1.21-3.058-1.21c-1.144,0-2.094,0.338-2.849,1.012
		c-0.756,0.676-1.133,1.519-1.133,2.53c0,0.499,0.168,0.748,0.506,0.748c0.19,0,0.337-0.048,0.439-0.144
		c0.103-0.095,0.154-0.201,0.154-0.318c0-0.895,0.26-1.58,0.781-2.057c0.521-0.477,1.206-0.715,2.057-0.715
		c1.012,0,1.797,0.314,2.354,0.945c0.557,0.631,0.836,1.364,0.836,2.2c0,0.631-0.188,1.239-0.562,1.825
		c-0.374,0.588-0.832,1.101-1.375,1.541l-1.804,1.386l-1.804,1.364c-0.558,0.426-1.023,0.912-1.397,1.463
		C11.187,19.749,11,20.311,11,20.882v2.134c0,0.146,0.055,0.264,0.164,0.353c0.11,0.088,0.231,0.132,0.363,0.132h7.832
		c0.103,0,0.201-0.055,0.297-0.165s0.144-0.231,0.144-0.362c0-0.146-0.044-0.271-0.132-0.375
		C19.579,22.496,19.477,22.443,19.359,22.443z"/>
	<path d="M15.5,0C6.953,0,0,6.953,0,15.5S6.953,31,15.5,31S31,24.047,31,15.5S24.047,0,15.5,0z M15.5,29C8.056,29,2,22.944,2,15.5
		S8.056,2,15.5,2S29,8.056,29,15.5S22.944,29,15.5,29z"/>
</g>
</svg>
