<?xml version="1.0" encoding="iso-8859-1"?>
<!-- Generator: Adobe Illustrator 22.1.0, SVG Export Plug-In . SVG Version: 6.00 Build 0)  -->
<svg version="1.1" id="Layer_1" xmlns="http://www.w3.org/2000/svg" xmlns:xlink="http://www.w3.org/1999/xlink" x="0px" y="0px"
	 viewBox="0 0 31 31" style="enable-background:new 0 0 31 31;" xml:space="preserve">
<g>
	<path d="M16.756,14.983c1.218-0.6,1.826-1.842,1.826-3.729c0-2.574-1.291-3.861-3.872-3.861c-0.807,0-1.503,0.125-2.09,0.375
		s-1.023,0.57-1.309,0.961c-0.286,0.391-0.488,0.762-0.605,1.115s-0.176,0.699-0.176,1.038c0,0.277,0.04,0.472,0.121,0.581
		c0.08,0.109,0.224,0.164,0.429,0.164c0.366,0,0.55-0.205,0.55-0.613c0-0.658,0.224-1.25,0.671-1.775
		c0.447-0.526,1.229-0.789,2.344-0.789c0.982,0,1.705,0.252,2.167,0.756s0.692,1.268,0.692,2.291c0,1.081-0.242,1.848-0.726,2.301
		c-0.484,0.453-1.225,0.68-2.223,0.68c-0.308,0-0.462,0.169-0.462,0.506c0,0.338,0.161,0.506,0.484,0.506
		c1.041,0,1.855,0.264,2.442,0.793c0.586,0.527,0.88,1.305,0.88,2.332v0.418c0,2.346-1.13,3.52-3.389,3.52
		c-1.173,0-2.017-0.282-2.529-0.848c-0.514-0.564-0.771-1.162-0.771-1.793c0-0.352-0.19-0.527-0.571-0.527
		c-0.338,0-0.507,0.228-0.507,0.682c0,0.91,0.393,1.727,1.178,2.453c0.784,0.727,1.873,1.089,3.267,1.089
		c1.32,0,2.387-0.37,3.201-1.11C18.593,21.756,19,20.6,19,19.032v-0.418C19,16.824,18.252,15.614,16.756,14.983z"/>
	<path d="M15.5,0C6.953,0,0,6.953,0,15.5S6.953,31,15.5,31S31,24.047,31,15.5S24.047,0,15.5,0z M15.5,29C8.056,29,2,22.944,2,15.5
		S8.056,2,15.5,2S29,8.056,29,15.5S22.944,29,15.5,29z"/>
</g>
</svg>
