<?xml version="1.0" encoding="iso-8859-1"?>
<!-- Generator: Adobe Illustrator 22.1.0, SVG Export Plug-In . SVG Version: 6.00 Build 0)  -->
<svg version="1.1" id="Layer_1" xmlns="http://www.w3.org/2000/svg" xmlns:xlink="http://www.w3.org/1999/xlink" x="0px" y="0px"
	 viewBox="0 0 31 31" style="enable-background:new 0 0 31 31;" xml:space="preserve">
<g>
	<path d="M18.247,17.934h-1.255v-4.75c0-0.295-0.184-0.442-0.55-0.442s-0.55,0.147-0.55,0.442v4.75h-4.729l5.279-10.428
		c0.044-0.088,0.066-0.177,0.066-0.265c0-0.132-0.055-0.241-0.165-0.33c-0.11-0.088-0.231-0.132-0.363-0.132
		c-0.234,0-0.418,0.125-0.55,0.373L9.842,18.186c-0.059,0.117-0.088,0.228-0.088,0.33c0,0.316,0.161,0.474,0.483,0.474h5.654v3.386
		c0,0.324,0.184,0.486,0.55,0.486s0.55-0.162,0.55-0.486V18.99h1.255c0.146,0,0.264-0.054,0.352-0.161s0.132-0.234,0.132-0.377
		C18.73,18.106,18.569,17.934,18.247,17.934z"/>
	<path d="M15.5,0C6.953,0,0,6.953,0,15.5S6.953,31,15.5,31S31,24.047,31,15.5S24.047,0,15.5,0z M15.5,29C8.056,29,2,22.944,2,15.5
		S8.056,2,15.5,2S29,8.056,29,15.5S22.944,29,15.5,29z"/>
</g>
</svg>
