<?xml version="1.0" encoding="iso-8859-1"?>
<!-- Generator: Adobe Illustrator 22.1.0, SVG Export Plug-In . SVG Version: 6.00 Build 0)  -->
<svg version="1.1" id="Layer_1" xmlns="http://www.w3.org/2000/svg" xmlns:xlink="http://www.w3.org/1999/xlink" x="0px" y="0px"
	 viewBox="0 0 31 31" style="enable-background:new 0 0 31 31;" xml:space="preserve">
<g>
	<path d="M14.587,14.04h-2.568l0.381-5.697h5.391c0.278,0,0.418-0.177,0.418-0.529c0-0.352-0.14-0.527-0.418-0.527h-5.997
		c-0.246,0-0.384,0.162-0.412,0.484l-0.434,6.445c0,0.029-0.003,0.096-0.011,0.198s-0.011,0.169-0.011,0.198
		c0,0.293,0.212,0.439,0.638,0.439h3.014c1.057,0,1.874,0.287,2.453,0.858s0.869,1.431,0.869,2.574v0.418
		c0,1.188-0.29,2.075-0.869,2.661c-0.579,0.588-1.404,0.881-2.475,0.881c-0.953,0-1.745-0.242-2.376-0.727
		c-0.631-0.483-0.946-1.144-0.946-1.979c0-0.323-0.19-0.483-0.571-0.483c-0.353,0-0.528,0.189-0.528,0.571
		c0,1.042,0.399,1.914,1.199,2.618c0.799,0.703,1.873,1.056,3.223,1.056c1.334,0,2.409-0.37,3.223-1.11
		C18.593,21.649,19,20.486,19,18.902v-0.418c0-1.525-0.403-2.647-1.208-3.366S15.919,14.04,14.587,14.04z"/>
	<path d="M15.5,0C6.953,0,0,6.953,0,15.5S6.953,31,15.5,31S31,24.047,31,15.5S24.047,0,15.5,0z M15.5,29C8.056,29,2,22.944,2,15.5
		S8.056,2,15.5,2S29,8.056,29,15.5S22.944,29,15.5,29z"/>
</g>
</svg>
