<?xml version="1.0" encoding="iso-8859-1"?>
<!-- Generator: Adobe Illustrator 22.1.0, SVG Export Plug-In . SVG Version: 6.00 Build 0)  -->
<svg version="1.1" id="Layer_1" xmlns="http://www.w3.org/2000/svg" xmlns:xlink="http://www.w3.org/1999/xlink" x="0px" y="0px"
	 viewBox="0 0 31 31" style="enable-background:new 0 0 31 31;" xml:space="preserve">
<g>
	<path d="M14.566,8.343c0.942,0,1.733,0.249,2.373,0.748c0.64,0.498,0.96,1.144,0.96,1.936c0,0.338,0.198,0.506,0.594,0.506
		c0.338,0,0.507-0.184,0.507-0.551c0-1.025-0.397-1.898-1.19-2.617c-0.794-0.719-1.867-1.078-3.221-1.078
		c-1.354,0-2.436,0.371-3.243,1.111c-0.809,0.74-1.212,1.91-1.212,3.509v6.974c0,1.6,0.405,2.77,1.218,3.51
		c0.812,0.74,1.883,1.11,3.215,1.11c1.353,0,2.43-0.37,3.231-1.11c0.801-0.74,1.202-1.91,1.202-3.51v-0.572
		c0-2.903-1.448-4.355-4.345-4.355c-1.561,0-2.701,0.52-3.422,1.561v-3.607C11.233,9.53,12.345,8.343,14.566,8.343z M14.566,14.964
		c1.089,0,1.917,0.264,2.483,0.79s0.85,1.382,0.85,2.566v0.593c0,2.354-1.111,3.531-3.333,3.531s-3.333-1.178-3.333-3.531v-0.79
		C11.233,16.017,12.345,14.964,14.566,14.964z"/>
	<path d="M15.5,0C6.953,0,0,6.953,0,15.5S6.953,31,15.5,31S31,24.047,31,15.5S24.047,0,15.5,0z M15.5,29C8.056,29,2,22.944,2,15.5
		S8.056,2,15.5,2S29,8.056,29,15.5S22.944,29,15.5,29z"/>
</g>
</svg>
