<?xml version="1.0" encoding="iso-8859-1"?>
<!-- Generator: Adobe Illustrator 22.1.0, SVG Export Plug-In . SVG Version: 6.00 Build 0)  -->
<svg version="1.1" id="Layer_1" xmlns="http://www.w3.org/2000/svg" xmlns:xlink="http://www.w3.org/1999/xlink" x="0px" y="0px"
	 viewBox="0 0 31 31" style="enable-background:new 0 0 31 31;" xml:space="preserve">
<g>
	<path d="M18.472,8h-7.81c-0.133,0-0.254,0.052-0.363,0.154c-0.11,0.103-0.165,0.213-0.165,0.33v3.277
		c0,0.133,0.055,0.246,0.165,0.342c0.109,0.096,0.238,0.143,0.385,0.143s0.275-0.047,0.385-0.143
		c0.11-0.096,0.165-0.209,0.165-0.342V9.057h6.666v1.121l-6.775,13.135c-0.06,0.146-0.089,0.242-0.089,0.285
		c0,0.146,0.065,0.268,0.195,0.363c0.129,0.096,0.28,0.143,0.453,0.143c0.157,0,0.286-0.088,0.386-0.264l6.798-13.244
		C18.955,10.464,19,10.332,19,10.2V8.484c0-0.117-0.06-0.228-0.177-0.33S18.589,8,18.472,8z"/>
	<path d="M15.5,0C6.953,0,0,6.953,0,15.5S6.953,31,15.5,31S31,24.047,31,15.5S24.047,0,15.5,0z M15.5,29C8.056,29,2,22.944,2,15.5
		S8.056,2,15.5,2S29,8.056,29,15.5S22.944,29,15.5,29z"/>
</g>
</svg>
