<?xml version="1.0" encoding="iso-8859-1"?>
<!-- Generator: Adobe Illustrator 22.1.0, SVG Export Plug-In . SVG Version: 6.00 Build 0)  -->
<svg version="1.1" id="Layer_1" xmlns="http://www.w3.org/2000/svg" xmlns:xlink="http://www.w3.org/1999/xlink" x="0px" y="0px"
	 viewBox="0 0 31 31" style="enable-background:new 0 0 31 31;" xml:space="preserve">
<g>
	<path d="M16.689,14.601c1.276-0.557,1.914-1.723,1.914-3.497c0-2.545-1.342-3.817-4.026-3.817c-2.669,0-4.004,1.272-4.004,3.817
		c0,1.774,0.639,2.94,1.914,3.497c-1.555,0.632-2.332,1.998-2.332,4.098v0.264c0,1.557,0.403,2.703,1.21,3.438
		c0.807,0.733,1.878,1.101,3.212,1.101c1.35,0,2.424-0.367,3.224-1.101C18.6,21.665,19,20.519,19,18.962v-0.264
		C19,16.599,18.229,15.232,16.689,14.601z M11.674,11.169c0-1.914,0.968-2.871,2.903-2.871c1.951,0,2.927,0.957,2.927,2.871
		c0,1.943-0.976,2.915-2.927,2.915C12.642,14.084,11.674,13.112,11.674,11.169z M17.899,18.925c0,1.173-0.286,2.061-0.857,2.661
		c-0.572,0.602-1.387,0.902-2.442,0.902s-1.878-0.297-2.464-0.892c-0.587-0.594-0.88-1.484-0.88-2.672v-0.287
		c0-2.332,1.106-3.498,3.321-3.498s3.322,1.166,3.322,3.498V18.925z"/>
	<path d="M15.5,0C6.953,0,0,6.953,0,15.5S6.953,31,15.5,31S31,24.047,31,15.5S24.047,0,15.5,0z M15.5,29C8.056,29,2,22.944,2,15.5
		S8.056,2,15.5,2S29,8.056,29,15.5S22.944,29,15.5,29z"/>
</g>
</svg>
