<?xml version="1.0" encoding="iso-8859-1"?>
<!-- Generator: Adobe Illustrator 22.1.0, SVG Export Plug-In . SVG Version: 6.00 Build 0)  -->
<svg version="1.1" id="Layer_1" xmlns="http://www.w3.org/2000/svg" xmlns:xlink="http://www.w3.org/1999/xlink" x="0px" y="0px"
	 viewBox="0 0 31 31" style="enable-background:new 0 0 31 31;" xml:space="preserve">
<g>
	<path d="M14.556,7.286c-1.335,0-2.402,0.371-3.201,1.111c-0.8,0.74-1.199,1.91-1.199,3.509v0.571c0,2.904,1.438,4.356,4.312,4.356
		c1.569,0,2.713-0.521,3.432-1.56v3.606c0,2.376-1.107,3.563-3.322,3.563c-0.938,0-1.73-0.25-2.376-0.748s-0.968-1.145-0.968-1.936
		c0-0.338-0.19-0.506-0.572-0.506c-0.337,0-0.506,0.183-0.506,0.549c0,1.027,0.396,1.9,1.188,2.619s1.862,1.077,3.212,1.077
		c1.349,0,2.427-0.37,3.234-1.11c0.806-0.74,1.21-1.91,1.21-3.51v-6.974c0-1.599-0.404-2.769-1.21-3.509
		C16.982,7.657,15.904,7.286,14.556,7.286z M17.899,12.663c0,2.105-1.107,3.159-3.322,3.159c-1.085,0-1.91-0.263-2.475-0.79
		c-0.564-0.525-0.847-1.381-0.847-2.566v-0.592c0-1.185,0.286-2.069,0.857-2.654c0.572-0.585,1.387-0.877,2.442-0.877
		c1.07,0,1.896,0.292,2.475,0.877s0.869,1.47,0.869,2.654V12.663z"/>
	<path d="M15.5,0C6.953,0,0,6.953,0,15.5S6.953,31,15.5,31S31,24.047,31,15.5S24.047,0,15.5,0z M15.5,29C8.056,29,2,22.944,2,15.5
		S8.056,2,15.5,2S29,8.056,29,15.5S22.944,29,15.5,29z"/>
</g>
</svg>
