<svg width="24px" height="24px" viewBox="0 0 24 24" xmlns="http://www.w3.org/2000/svg" >
  <path d="M14.3333333,4 C11.204,4 8.66666667,6.53733333 8.66666667,9.66666667 C8.66666667,10.3615293 8.79843333,11.024136 9.027344,11.6393227 L4,16.6666667 L4,20 L7.33333333,20 L7.33333333,18 L9.33333333,18 L9.33333333,16 L11.3333333,16 L12.3606773,14.972656 C12.975864,15.2015667 13.6384707,15.3333333 14.3333333,15.3333333 C17.4626667,15.3333333 20,12.796 20,9.66666667 C20,6.53733333 17.4626667,4 14.3333333,4 Z M15.6666667,6.66666667 C16.5873333,6.66666667 17.3333333,7.41266667 17.3333333,8.33333333 C17.3333333,9.254 16.5873333,10 15.6666667,10 C14.746,10 14,9.254 14,8.33333333 C14,7.41266667 14.746,6.66666667 15.6666667,6.66666667 Z" id="Shape" fill="#4C4C4C" fill-rule="nonzero"/>
</svg>
