<svg width="24px" height="24px" viewBox="0 0 24 24" xmlns="http://www.w3.org/2000/svg">
  <rect fill="#FFFFFF" x="0" y="0" width="24" height="24"/>
  <path d="M12,8 C7.50514328,8 4.86573178,10.473927 4.08176552,15.4217809 L4.08179286,15.4217853 C4.03858077,15.6945102 4.22463767,15.9506277 4.4973626,15.9938398 C4.52324169,15.9979403 4.54940309,16 4.57560502,16 L19.424414,15.9999769 C19.7005436,15.9999769 19.9243909,15.7761296 19.9243909,15.5 C19.9243909,15.4737976 19.9223311,15.4476357 19.9182305,15.4217561 C19.1342594,10.4739187 16.4948492,8 12,8 Z" id="Shape" fill="#4C4C4C" fill-rule="nonzero"/>
  <path d="M10.5,5 L13.5,5 C14.0522847,5 14.5,5.44771525 14.5,6 L14.5,6 C14.5,6.55228475 14.0522847,7 13.5,7 L13.5,7 C12.9365505,7 12.4688971,7.43544108 12.428753,7.9974587 L12,14 L11.571247,7.9974587 C11.5311029,7.43544108 11.0634495,7 10.5,7 L10.5,7 C9.94771525,7 9.5,6.55228475 9.5,6 L9.5,6 C9.5,5.44771525 9.94771525,5 10.5,5 Z" id="Rectangle-11" fill="#4C4C4C" fill-rule="nonzero"/>
  <rect fill="#4C4C4C" fill-rule="nonzero" x="3" y="17" width="18" height="2" rx="1"/>
</svg>
