<?xml version="1.0" encoding="iso-8859-1"?>
<!-- Generator: Adobe Illustrator 22.1.0, SVG Export Plug-In . SVG Version: 6.00 Build 0)  -->
<svg version="1.1" id="Layer_1" xmlns="http://www.w3.org/2000/svg" xmlns:xlink="http://www.w3.org/1999/xlink" x="0px" y="0px"
	 viewBox="0 0 31 31" style="enable-background:new 0 0 31 31;" xml:space="preserve">
<circle style="fill:#F15B6C;" cx="15.5" cy="15.5" r="14.5"/>
<g>
	<path style="fill:#1F212B;" d="M9.569,21.931c-0.128,0-0.256-0.049-0.354-0.146c-0.195-0.195-0.195-0.512,0-0.707L21.146,9.146
		c0.195-0.195,0.512-0.195,0.707,0s0.195,0.512,0,0.707L9.923,21.784C9.825,21.882,9.697,21.931,9.569,21.931z"/>
</g>
<g>
	<path style="fill:#1F212B;" d="M21.5,22c-0.128,0-0.256-0.049-0.354-0.146l-12-12c-0.195-0.195-0.195-0.512,0-0.707
		s0.512-0.195,0.707,0l12,12c0.195,0.195,0.195,0.512,0,0.707C21.756,21.951,21.628,22,21.5,22z"/>
</g>
<g>
	<path style="fill:#1F212B;" d="M15.5,31C6.953,31,0,24.047,0,15.5S6.953,0,15.5,0S31,6.953,31,15.5S24.047,31,15.5,31z M15.5,2
		C8.056,2,2,8.056,2,15.5S8.056,29,15.5,29S29,22.944,29,15.5S22.944,2,15.5,2z"/>
</g>
</svg>
