<?xml version="1.0" encoding="iso-8859-1"?>
<!-- Generator: Adobe Illustrator 22.1.0, SVG Export Plug-In . SVG Version: 6.00 Build 0)  -->
<svg version="1.1" id="Layer_1" xmlns="http://www.w3.org/2000/svg" xmlns:xlink="http://www.w3.org/1999/xlink" x="0px" y="0px"
	 viewBox="0 0 31 31" style="enable-background:new 0 0 31 31;" xml:space="preserve">
<circle style="fill:#FEFDEF;" cx="15.5" cy="15.5" r="14.5"/>
<circle style="fill:#F15B6C;" cx="15.5" cy="15.5" r="10"/>
<g>
	<path style="fill:#1F212B;" d="M15.5,31C6.953,31,0,24.047,0,15.5S6.953,0,15.5,0S31,6.953,31,15.5S24.047,31,15.5,31z M15.5,2
		C8.056,2,2,8.056,2,15.5S8.056,29,15.5,29S29,22.944,29,15.5S22.944,2,15.5,2z"/>
</g>
<g>
	<path style="fill:#1F212B;" d="M15.5,26C9.71,26,5,21.29,5,15.5S9.71,5,15.5,5S26,9.71,26,15.5S21.29,26,15.5,26z M15.5,6
		C10.262,6,6,10.262,6,15.5s4.262,9.5,9.5,9.5s9.5-4.262,9.5-9.5S20.738,6,15.5,6z"/>
</g>
<g>
	<path style="fill:#1F212B;" d="M22.5,16h-14C8.224,16,8,15.776,8,15.5S8.224,15,8.5,15h14c0.276,0,0.5,0.224,0.5,0.5
		S22.776,16,22.5,16z"/>
</g>
</svg>
