<?xml version="1.0" encoding="iso-8859-1"?>
<!-- Generator: Adobe Illustrator 22.1.0, SVG Export Plug-In . SVG Version: 6.00 Build 0)  -->
<svg version="1.1" id="Layer_1" xmlns="http://www.w3.org/2000/svg" xmlns:xlink="http://www.w3.org/1999/xlink" x="0px" y="0px"
	 viewBox="0 0 31 31" style="enable-background:new 0 0 31 31;" xml:space="preserve">
<circle style="fill:#60BE92;" cx="15.5" cy="15.5" r="14.5"/>
<g>
	<path style="fill:#1F212B;" d="M15.5,31C6.953,31,0,24.047,0,15.5S6.953,0,15.5,0S31,6.953,31,15.5S24.047,31,15.5,31z M15.5,2
		C8.056,2,2,8.056,2,15.5S8.056,29,15.5,29S29,22.944,29,15.5S22.944,2,15.5,2z"/>
</g>
<g>
	<path style="fill:#1F212B;" d="M13.5,21c-0.113,0-0.228-0.039-0.32-0.116l-6-5c-0.212-0.177-0.24-0.492-0.063-0.705
		c0.178-0.213,0.492-0.239,0.704-0.064l5.665,4.722l10.679-9.708c0.204-0.184,0.521-0.171,0.706,0.034
		c0.186,0.205,0.171,0.521-0.034,0.707l-11,10C13.741,20.957,13.621,21,13.5,21z"/>
</g>
</svg>
