<?xml version="1.0" encoding="iso-8859-1"?>
<!-- Generator: Adobe Illustrator 22.1.0, SVG Export Plug-In . SVG Version: 6.00 Build 0)  -->
<svg version="1.1" id="Layer_1" xmlns="http://www.w3.org/2000/svg" xmlns:xlink="http://www.w3.org/1999/xlink" x="0px" y="0px"
	 viewBox="0 0 31 31" style="enable-background:new 0 0 31 31;" xml:space="preserve">
<circle style="fill:#78CDD4;" cx="15.5" cy="15.5" r="14.5"/>
<g>
	<path style="fill:#1F212B;" d="M15.5,31C6.953,31,0,24.047,0,15.5S6.953,0,15.5,0S31,6.953,31,15.5S24.047,31,15.5,31z M15.5,2
		C8.056,2,2,8.056,2,15.5S8.056,29,15.5,29S29,22.944,29,15.5S22.944,2,15.5,2z"/>
</g>
<g>
	<polygon style="fill:#FEF6AA;" points="15,14 7.5,21.5 7.5,23.5 9.5,23.5 9.5,22.5 10.5,22.5 10.5,21.5 11.5,21.5 11.5,20.5 
		12.5,20.5 15.5,17.5 17,16 	"/>
	<g>
		<path style="fill:#1F212B;" d="M9.5,24h-2C7.224,24,7,23.776,7,23.5v-2c0-0.133,0.053-0.26,0.146-0.354l8-8
			c0.195-0.195,0.512-0.195,0.707,0s0.195,0.512,0,0.707L8,21.707V23h1v-0.5C9,22.224,9.224,22,9.5,22H10v-0.5
			c0-0.276,0.224-0.5,0.5-0.5H11v-0.5c0-0.276,0.224-0.5,0.5-0.5h0.793l4.854-4.854c0.195-0.195,0.512-0.195,0.707,0
			s0.195,0.512,0,0.707l-5,5C12.76,20.947,12.633,21,12.5,21H12v0.5c0,0.276-0.224,0.5-0.5,0.5H11v0.5c0,0.276-0.224,0.5-0.5,0.5H10
			v0.5C10,23.776,9.776,24,9.5,24z"/>
	</g>
</g>
<circle style="fill:#FEF6AA;" cx="19" cy="12" r="4.5"/>
<g>
	<path style="fill:#1F212B;" d="M19,17c-2.757,0-5-2.243-5-5s2.243-5,5-5s5,2.243,5,5S21.757,17,19,17z M19,8c-2.206,0-4,1.794-4,4
		s1.794,4,4,4s4-1.794,4-4S21.206,8,19,8z"/>
</g>
<circle style="fill:#1F212B;" cx="19.5" cy="11.5" r="1.5"/>
</svg>
