<?xml version="1.0" encoding="iso-8859-1"?>
<!-- Generator: Adobe Illustrator 22.1.0, SVG Export Plug-In . SVG Version: 6.00 Build 0)  -->
<svg version="1.1" id="Layer_1" xmlns="http://www.w3.org/2000/svg" xmlns:xlink="http://www.w3.org/1999/xlink" x="0px" y="0px"
	 viewBox="0 0 31 31" style="enable-background:new 0 0 31 31;" xml:space="preserve">
<circle style="fill:#FEF6AA;" cx="15.5" cy="15.5" r="14.5"/>
<g>
	<path style="fill:#1F212B;" d="M15.5,31C6.953,31,0,24.047,0,15.5S6.953,0,15.5,0S31,6.953,31,15.5S24.047,31,15.5,31z M15.5,2
		C8.056,2,2,8.056,2,15.5S8.056,29,15.5,29S29,22.944,29,15.5S22.944,2,15.5,2z"/>
</g>
<g>
	<g>
		<path style="fill:#1F212B;" d="M10.357,24.998c-1.116,0-2.231-0.424-3.081-1.274c-1.699-1.699-1.699-4.463,0-6.162l1.286-1.286
			c1.699-1.698,4.464-1.699,6.162,0c1.699,1.699,1.699,4.463,0,6.162l-1.286,1.286C12.589,24.573,11.473,24.998,10.357,24.998z
			 M11.643,16.002c-0.86,0-1.72,0.327-2.374,0.981l-1.286,1.286c-1.309,1.309-1.309,3.438,0,4.748s3.439,1.309,4.748,0l1.286-1.286
			c1.309-1.309,1.309-3.438,0-4.748C13.362,16.329,12.502,16.002,11.643,16.002z"/>
	</g>
	<g>
		<path style="fill:#1F212B;" d="M12.5,19c-0.128,0-0.256-0.049-0.354-0.146c-0.195-0.195-0.195-0.512,0-0.707l6-6
			c0.195-0.195,0.512-0.195,0.707,0s0.195,0.512,0,0.707l-6,6C12.756,18.951,12.628,19,12.5,19z"/>
	</g>
	<g>
		<path style="fill:#1F212B;" d="M19.357,15.998c-1.116,0-2.231-0.424-3.081-1.274c-1.699-1.699-1.699-4.463,0-6.162l1.286-1.286
			c1.699-1.698,4.464-1.699,6.162,0c1.699,1.699,1.699,4.463,0,6.162l-1.286,1.286C21.589,15.573,20.473,15.998,19.357,15.998z
			 M20.643,7.002c-0.86,0-1.72,0.327-2.374,0.981l-1.286,1.286c-1.309,1.309-1.309,3.438,0,4.748c1.31,1.31,3.44,1.309,4.748,0
			l1.286-1.286c1.309-1.309,1.309-3.438,0-4.748C22.362,7.329,21.502,7.002,20.643,7.002z"/>
	</g>
</g>
</svg>
