<?xml version="1.0" encoding="iso-8859-1"?>
<!-- Generator: Adobe Illustrator 22.1.0, SVG Export Plug-In . SVG Version: 6.00 Build 0)  -->
<svg version="1.1" id="Layer_1" xmlns="http://www.w3.org/2000/svg" xmlns:xlink="http://www.w3.org/1999/xlink" x="0px" y="0px"
	 viewBox="0 0 31 31" style="enable-background:new 0 0 31 31;" xml:space="preserve">
<circle style="fill:#FEF6AA;" cx="15.407" cy="15.5" r="14.5"/>
<g>
	<path style="fill:#1F212B;" d="M15.5,31C6.953,31,0,24.047,0,15.5S6.953,0,15.5,0S31,6.953,31,15.5S24.047,31,15.5,31z M15.5,2
		C8.056,2,2,8.056,2,15.5S8.056,29,15.5,29S29,22.944,29,15.5S22.944,2,15.5,2z"/>
</g>
<polygon style="fill:#F15B6C;" points="15.407,5.5 18.407,11 24.407,12.25 20.469,17.299 21.407,23.5 15.407,20.5 9.407,23.5 
	10.345,17.299 6.407,12.25 12.407,11 "/>
<g>
	<path style="fill:#1F212B;" d="M21.407,24c-0.076,0-0.153-0.018-0.224-0.053l-5.776-2.888l-5.776,2.888
		c-0.167,0.083-0.367,0.066-0.518-0.043c-0.151-0.11-0.229-0.294-0.2-0.479l0.906-5.989l-3.806-4.879
		c-0.106-0.136-0.135-0.318-0.075-0.48c0.06-0.162,0.199-0.282,0.369-0.317l5.648-1.163l3.017-5.343
		c0.178-0.314,0.693-0.314,0.871,0l3.017,5.343l5.648,1.163c0.169,0.035,0.309,0.155,0.369,0.317c0.06,0.163,0.031,0.344-0.075,0.48
		l-3.806,4.879l0.906,5.989c0.028,0.185-0.049,0.369-0.2,0.479C21.614,23.968,21.511,24,21.407,24z M15.407,20
		c0.077,0,0.153,0.018,0.224,0.053l5.138,2.569l-0.793-5.248c-0.021-0.136,0.016-0.274,0.1-0.382l3.442-4.414l-5.082-1.046
		c-0.142-0.029-0.264-0.118-0.335-0.244l-2.693-4.77l-2.693,4.77c-0.071,0.126-0.193,0.215-0.335,0.244l-5.082,1.046l3.442,4.414
		c0.084,0.108,0.121,0.247,0.1,0.382l-0.793,5.248l5.138-2.569C15.254,20.018,15.331,20,15.407,20z"/>
</g>
</svg>
