<?xml version="1.0" encoding="iso-8859-1"?>
<!-- Generator: Adobe Illustrator 22.1.0, SVG Export Plug-In . SVG Version: 6.00 Build 0)  -->
<svg version="1.1" id="Layer_1" xmlns="http://www.w3.org/2000/svg" xmlns:xlink="http://www.w3.org/1999/xlink" x="0px" y="0px"
	 viewBox="0 0 31 31" style="enable-background:new 0 0 31 31;" xml:space="preserve">
<circle style="fill:#A3A3CD;" cx="15.5" cy="15.5" r="14.5"/>
<g>
	<path style="fill:#1F212B;" d="M15.5,31C6.953,31,0,24.047,0,15.5S6.953,0,15.5,0S31,6.953,31,15.5S24.047,31,15.5,31z M15.5,2
		C8.056,2,2,8.056,2,15.5S8.056,29,15.5,29S29,22.944,29,15.5S22.944,2,15.5,2z"/>
</g>
<path style="fill:#FEFDEF;" d="M17.5,15.655c0,0,4-2.655,4-5.655V8.5c0-0.552-0.448-1-1-1h-10c-0.552,0-1,0.448-1,1V10
	c0,3,4,5.74,4,5.74S9.5,18,9.5,21v1.5c0,0.552,0.448,1,1,1h10c0.552,0,1-0.448,1-1V21C21.5,18,17.5,15.655,17.5,15.655z"/>
<path style="fill:#F9E65C;" d="M10,11.5l5.5,1l5.5-1c0,0-3,5-5.5,5S10,11.5,10,11.5z"/>
<path style="fill:#F9E65C;" d="M9.5,23l2.5,0.5h7l2.5-0.5c0,0-3-3.5-6-3.5S9.5,23,9.5,23z"/>
<g>
	<path style="fill:#1F212B;" d="M15.5,13c-2.552,0-5.533-0.983-5.658-1.025c-0.262-0.088-0.403-0.371-0.316-0.633
		s0.368-0.405,0.632-0.316C10.187,11.035,13.113,12,15.5,12s5.312-0.965,5.342-0.975c0.265-0.089,0.545,0.055,0.632,0.316
		c0.087,0.262-0.054,0.545-0.316,0.633C21.033,12.017,18.052,13,15.5,13z"/>
</g>
<g>
	<path style="fill:#1F212B;" d="M20.5,24h-10C9.673,24,9,23.327,9,22.5V21c0-2.514,2.434-4.482,3.622-5.295
		C11.456,14.774,9,12.514,9,10V8.5C9,7.673,9.673,7,10.5,7h10C21.327,7,22,7.673,22,8.5V10c0,2.514-2.453,4.723-3.622,5.633
		C19.562,16.466,22,18.486,22,21v1.5C22,23.327,21.327,24,20.5,24z M10.5,8C10.224,8,10,8.225,10,8.5V10
		c0,2.705,3.745,5.302,3.783,5.328c0.142,0.097,0.224,0.261,0.217,0.434c-0.007,0.172-0.103,0.328-0.253,0.414
		C13.709,16.196,10,18.33,10,21v1.5c0,0.275,0.224,0.5,0.5,0.5h10c0.276,0,0.5-0.225,0.5-0.5V21c0-2.676-3.716-4.892-3.753-4.913
		c-0.149-0.088-0.242-0.245-0.247-0.418c-0.005-0.172,0.079-0.335,0.223-0.43C17.261,15.214,21,12.694,21,10V8.5
		C21,8.225,20.776,8,20.5,8H10.5z"/>
</g>
<g>
	<path style="fill:#1F212B;" d="M9.969,23c-0.127,0-0.254-0.048-0.352-0.145c-0.196-0.194-0.198-0.511-0.004-0.707
		c0.686-0.693,2.077-1.959,3.688-2.651c0.254-0.112,0.548,0.008,0.657,0.262c0.109,0.253-0.008,0.548-0.262,0.656
		c-1.457,0.627-2.739,1.796-3.373,2.437C10.227,22.95,10.098,23,9.969,23z"/>
</g>
<g>
	<path style="fill:#1F212B;" d="M21.031,23c-0.129,0-0.257-0.05-0.355-0.148c-0.445-0.449-1.354-1.3-2.433-1.949
		c-0.237-0.143-0.313-0.45-0.17-0.687c0.142-0.237,0.449-0.312,0.686-0.171c1.114,0.671,2.044,1.514,2.627,2.104
		c0.194,0.196,0.193,0.513-0.003,0.707C21.285,22.952,21.158,23,21.031,23z"/>
</g>
<line style="fill:none;stroke:#F9E65C;stroke-miterlimit:10;" x1="15.5" y1="15" x2="15.5" y2="21"/>
</svg>
