<?xml version="1.0" encoding="iso-8859-1"?>
<!-- Generator: Adobe Illustrator 22.1.0, SVG Export Plug-In . SVG Version: 6.00 Build 0)  -->
<svg version="1.1" id="Layer_1" xmlns="http://www.w3.org/2000/svg" xmlns:xlink="http://www.w3.org/1999/xlink" x="0px" y="0px"
	 viewBox="0 0 31 31" style="enable-background:new 0 0 31 31;" xml:space="preserve">
<circle style="fill:#FEFDEF;" cx="15.5" cy="15.5" r="14.5"/>
<g>
	<path style="fill:#1F212B;" d="M15.5,31C6.953,31,0,24.047,0,15.5S6.953,0,15.5,0S31,6.953,31,15.5S24.047,31,15.5,31z M15.5,2
		C8.056,2,2,8.056,2,15.5S8.056,29,15.5,29S29,22.944,29,15.5S22.944,2,15.5,2z"/>
</g>
<path style="fill:#F15B6C;" d="M15.5,11.357c-1.408-2.081-3.027-2.762-4.5-2.85c-2.452-0.146-4.5,2.084-4.5,5.403
	c0,4.871,6.275,9.018,9,10.589c2.725-1.571,9-5.72,9-10.589c0-3.319-2.048-5.55-4.5-5.404C18.527,8.594,16.908,9.275,15.5,11.357z"
	/>
<g>
	<path style="fill:#1F212B;" d="M15.5,25c-0.086,0-0.172-0.022-0.25-0.067C12.469,23.33,6,19.046,6,13.911
		c0-1.934,0.644-3.605,1.814-4.708c0.893-0.841,2.034-1.259,3.216-1.195c1.741,0.104,3.242,0.944,4.47,2.501
		c1.229-1.558,2.729-2.398,4.47-2.501c1.176-0.069,2.322,0.354,3.215,1.195C24.355,10.305,25,11.977,25,13.911
		c0,5.135-6.469,9.419-9.25,11.022C15.672,24.978,15.586,25,15.5,25z M10.77,9C9.93,9,9.148,9.32,8.5,9.931
		C7.547,10.829,7,12.28,7,13.911c0,4.473,5.752,8.394,8.5,10.011c2.748-1.617,8.5-5.538,8.5-10.011c0-1.631-0.547-3.082-1.5-3.98
		c-0.7-0.66-1.552-0.981-2.47-0.925c-1.638,0.097-2.984,0.958-4.116,2.631c-0.186,0.274-0.643,0.274-0.828,0
		c-1.132-1.672-2.478-2.533-4.116-2.631C10.903,9.002,10.836,9,10.77,9z"/>
</g>
</svg>
