<?xml version="1.0" encoding="iso-8859-1"?>
<!-- Generator: Adobe Illustrator 22.1.0, SVG Export Plug-In . SVG Version: 6.00 Build 0)  -->
<svg version="1.1" id="Layer_1" xmlns="http://www.w3.org/2000/svg" xmlns:xlink="http://www.w3.org/1999/xlink" x="0px" y="0px"
	 viewBox="0 0 31 31" style="enable-background:new 0 0 31 31;" xml:space="preserve">
<circle style="fill:#A3A3CD;" cx="15.5" cy="15.5" r="14.5"/>
<g>
	<path style="fill:#1F212B;" d="M15.5,31C6.953,31,0,24.047,0,15.5S6.953,0,15.5,0S31,6.953,31,15.5S24.047,31,15.5,31z M15.5,2
		C8.056,2,2,8.056,2,15.5S8.056,29,15.5,29S29,22.944,29,15.5S22.944,2,15.5,2z"/>
</g>
<path style="fill:#FEFDEF;" d="M22.756,20.821c-0.561,0.768-1.239,1.44-2.023,1.998c-0.103,0.074-0.245,0.061-0.332-0.028
	c-0.713-0.735-1.467-0.89-2.304-0.469c-0.685,0.344-1.008,0.934-0.99,1.805c0,0.125-0.088,0.236-0.21,0.256l-0.034,0.008
	c-0.033,0.006-0.069,0.013-0.105,0.02c-0.861,0.12-1.732,0.119-2.593-0.012c-0.283-0.041-0.34-0.234-0.34-0.387
	c0.013-0.817-0.415-1.486-1.146-1.793c-0.007-0.003-0.017-0.007-0.025-0.008c-0.697-0.284-1.482-0.093-2.046,0.498
	c-0.012,0.015-0.029,0.03-0.053,0.047c-0.076,0.068-0.196,0.09-0.288,0.052c-0.017-0.007-0.031-0.013-0.043-0.024
	c-0.774-0.555-1.45-1.234-2.013-2.009c-0.073-0.103-0.06-0.247,0.032-0.334c0.687-0.66,0.859-1.366,0.521-2.163
	c-0.33-0.775-0.946-1.145-1.888-1.123C6.75,17.161,6.641,17.07,6.62,16.942c-0.154-0.949-0.158-1.906-0.007-2.843
	c0.02-0.128,0.131-0.22,0.26-0.216c0.977,0.026,1.608-0.36,1.929-1.178c0.307-0.786,0.121-1.481-0.569-2.123
	c-0.096-0.088-0.111-0.233-0.034-0.337c0.557-0.778,1.234-1.461,2.012-2.025c0.105-0.078,0.252-0.064,0.338,0.034
	c0.659,0.718,1.375,0.904,2.184,0.563c0.801-0.334,1.169-0.969,1.125-1.935c-0.006-0.13,0.086-0.245,0.214-0.266
	c0.933-0.154,1.893-0.154,2.856,0c0.131,0.019,0.222,0.132,0.217,0.263c-0.044,1.052,0.374,1.708,1.281,2.013
	c0.75,0.25,1.432,0.039,2.028-0.628c0.089-0.099,0.234-0.116,0.341-0.038c0.776,0.559,1.454,1.244,2.018,2.03
	c0.076,0.104,0.059,0.25-0.036,0.338c-0.723,0.664-0.911,1.377-0.575,2.185c0.333,0.801,0.96,1.172,1.914,1.133
	c0.113-0.005,0.217,0.066,0.252,0.173c0.178,0.528,0.17,2.334-0.012,2.927c-0.032,0.109-0.136,0.185-0.251,0.181
	c-0.977-0.026-1.61,0.359-1.933,1.174c-0.307,0.777-0.125,1.47,0.552,2.119C22.818,20.575,22.83,20.719,22.756,20.821z"/>
<circle style="fill:#A3A3CD;" cx="15.5" cy="15.5" r="3"/>
<g>
	<path style="fill:#1F212B;" d="M15.486,25c-0.471,0-0.937-0.035-1.396-0.105c-0.465-0.067-0.767-0.414-0.765-0.883
		c0.009-0.613-0.29-1.091-0.822-1.322c-0.013-0.004-0.025-0.009-0.038-0.014c-0.503-0.205-1.076-0.059-1.496,0.381
		c-0.02,0.021-0.095,0.087-0.119,0.104c-0.181,0.166-0.508,0.222-0.778,0.11c-0.05-0.021-0.139-0.073-0.179-0.109
		c-0.774-0.552-1.49-1.266-2.088-2.09c-0.221-0.311-0.179-0.735,0.094-0.992c0.539-0.517,0.661-0.998,0.404-1.604
		c-0.248-0.583-0.688-0.833-1.417-0.817c-0.384,0.006-0.701-0.264-0.762-0.635c-0.164-1.005-0.167-2.016-0.007-3.003
		c0.06-0.374,0.387-0.645,0.769-0.636c0.752,0.021,1.203-0.237,1.449-0.861c0.23-0.588,0.093-1.074-0.444-1.574
		c-0.284-0.256-0.327-0.688-0.095-1c0.585-0.818,1.3-1.538,2.121-2.132c0.309-0.231,0.743-0.187,1.005,0.106
		c0.509,0.555,1.011,0.691,1.617,0.435c0.602-0.251,0.854-0.698,0.82-1.451c-0.019-0.382,0.253-0.719,0.631-0.782
		c0.988-0.162,2.003-0.162,3.018-0.001c0.376,0.055,0.654,0.39,0.638,0.778c-0.035,0.831,0.247,1.285,0.942,1.519
		c0.555,0.186,1.032,0.031,1.497-0.487c0.26-0.292,0.694-0.339,1.008-0.109c0.814,0.585,1.531,1.307,2.13,2.143
		c0.223,0.306,0.179,0.736-0.104,0.997c-0.573,0.526-0.708,1.012-0.453,1.626c0.253,0.609,0.684,0.849,1.432,0.826
		c0.33-0.018,0.642,0.195,0.747,0.514c0.212,0.627,0.207,2.531-0.008,3.232c-0.094,0.322-0.383,0.55-0.746,0.534
		c-0.758-0.025-1.208,0.245-1.451,0.859c-0.229,0.582-0.096,1.067,0.433,1.573c0.271,0.258,0.311,0.683,0.093,0.987
		c-0.001,0.001-0.002,0.003-0.003,0.004c-0.594,0.813-1.313,1.523-2.137,2.11c-0.298,0.215-0.722,0.18-0.98-0.085
		c-0.567-0.584-1.081-0.695-1.722-0.372c-0.508,0.254-0.729,0.67-0.715,1.348c0,0.382-0.263,0.698-0.626,0.76l-0.131,0.026
		C16.391,24.967,15.936,25,15.486,25z M14.325,23.918c0.758,0.106,1.521,0.108,2.285,0.009c0.034-0.956,0.458-1.648,1.265-2.052
		c0.682-0.343,1.698-0.534,2.733,0.418c0.613-0.459,1.157-0.996,1.622-1.6c-0.704-0.756-0.878-1.599-0.52-2.51
		c0.265-0.669,0.863-1.454,2.21-1.491c0.102-0.57,0.109-1.746,0.018-2.279c-1.321-0.02-1.922-0.786-2.195-1.443
		c-0.394-0.948-0.211-1.819,0.542-2.593c-0.467-0.619-1.006-1.162-1.608-1.62c-0.876,0.867-1.785,0.817-2.407,0.608
		c-0.741-0.25-1.604-0.849-1.626-2.288c-0.771-0.103-1.535-0.103-2.282-0.001c-0.018,1.324-0.78,1.927-1.436,2.201
		c-0.659,0.277-1.632,0.4-2.59-0.527c-0.61,0.466-1.148,1.008-1.608,1.618c0.888,0.934,0.79,1.876,0.54,2.518
		c-0.263,0.669-0.856,1.453-2.192,1.496c-0.102,0.75-0.1,1.514,0.006,2.277c1.034,0.036,1.754,0.515,2.142,1.425
		c0.395,0.934,0.231,1.796-0.485,2.567c0.466,0.61,1.007,1.151,1.612,1.608c0.714-0.656,1.636-0.847,2.472-0.518
		c0.019,0.006,0.037,0.013,0.052,0.019C13.766,22.134,14.304,22.937,14.325,23.918z M16.777,23.9c-0.003,0-0.007,0.001-0.011,0.002
		L16.777,23.9z M22.758,20.821h0.01H22.758z M8.591,20.801c-0.001,0.001-0.002,0.002-0.003,0.003
		C8.588,20.804,8.59,20.802,8.591,20.801z M23.88,16.866c0,0.002-0.001,0.004-0.001,0.006C23.879,16.871,23.879,16.869,23.88,16.866
		z M24.117,16.693c0.001,0,0.002,0,0.004,0C24.12,16.693,24.119,16.693,24.117,16.693z M24.142,14.412c-0.001,0-0.002,0-0.003,0
		C24.14,14.412,24.141,14.412,24.142,14.412z M6.858,14.383c0,0,0.001,0,0.002,0C6.86,14.383,6.859,14.383,6.858,14.383z
		 M23.897,14.245C23.897,14.245,23.897,14.246,23.897,14.245C23.897,14.246,23.897,14.245,23.897,14.245z M22.409,10.547
		c0,0.001,0.001,0.002,0.002,0.003C22.411,10.549,22.41,10.548,22.409,10.547z M8.609,10.529c-0.001,0.002-0.003,0.004-0.004,0.006
		C8.606,10.533,8.607,10.531,8.609,10.529z M8.567,10.21c0.002,0.002,0.003,0.004,0.005,0.005C8.57,10.214,8.569,10.212,8.567,10.21
		z M20.505,8.631c0,0,0.001,0.001,0.002,0.001C20.506,8.632,20.505,8.632,20.505,8.631z M10.51,8.621
		c-0.002,0.001-0.004,0.003-0.006,0.004C10.505,8.624,10.508,8.622,10.51,8.621z M10.18,8.591c0.001,0.002,0.003,0.004,0.005,0.005
		C10.183,8.595,10.182,8.593,10.18,8.591z M16.851,7.108c0.002,0,0.004,0.001,0.006,0.001C16.854,7.109,16.853,7.109,16.851,7.108z
		 M14.357,6.857c0,0,0,0.001,0,0.001C14.357,6.858,14.357,6.857,14.357,6.857z"/>
</g>
<g>
	<path style="fill:#1F212B;" d="M15.5,19c-1.93,0-3.5-1.57-3.5-3.5s1.57-3.5,3.5-3.5s3.5,1.57,3.5,3.5S17.43,19,15.5,19z M15.5,13
		c-1.378,0-2.5,1.122-2.5,2.5s1.122,2.5,2.5,2.5s2.5-1.122,2.5-2.5S16.878,13,15.5,13z"/>
</g>
</svg>
