<?xml version="1.0" encoding="iso-8859-1"?>
<!-- Generator: Adobe Illustrator 22.1.0, SVG Export Plug-In . SVG Version: 6.00 Build 0)  -->
<svg version="1.1" id="Layer_1" xmlns="http://www.w3.org/2000/svg" xmlns:xlink="http://www.w3.org/1999/xlink" x="0px" y="0px"
	 viewBox="0 0 31 31" style="enable-background:new 0 0 31 31;" xml:space="preserve">
<circle style="fill:#78CDD4;" cx="15.5" cy="15.5" r="14.5"/>
<path style="fill:#FEFDEF;" d="M23.229,14.733c0.171-0.377,0.271-0.793,0.271-1.233c0-1.657-1.343-3-3-3
	c-0.364,0-0.708,0.075-1.031,0.193C19.311,8.906,17.828,7.5,16,7.5c-1.44,0-2.934,0.95-3.469,2.193
	C12.208,9.575,11.864,9.5,11.5,9.5c-1.657,0-3,1.343-3,3c0,0.382,0.078,0.744,0.208,1.08C6.879,13.947,5.5,15.562,5.5,17.5
	c0,2.209,1.791,4,4,4h11c0,0,0.809,0,1.5,0c1.933,0,3.5-1.567,3.5-3.5C25.5,16.501,24.553,15.232,23.229,14.733z"/>
<g>
	<path style="fill:#1F212B;" d="M15.5,30.5c-8.271,0-15-6.729-15-15s6.729-15,15-15s15,6.729,15,15S23.771,30.5,15.5,30.5z
		 M15.5,1.5c-7.72,0-14,6.28-14,14s6.28,14,14,14s14-6.28,14-14S23.22,1.5,15.5,1.5z"/>
</g>
<g>
	<path style="fill:#1F212B;" d="M15.5,31C6.953,31,0,24.047,0,15.5S6.953,0,15.5,0S31,6.953,31,15.5S24.047,31,15.5,31z M15.5,2
		C8.056,2,2,8.056,2,15.5S8.056,29,15.5,29S29,22.944,29,15.5S22.944,2,15.5,2z"/>
</g>
<g>
	<path style="fill:#1F212B;" d="M22,22H9.5C7.019,22,5,19.981,5,17.5c0-1.951,1.267-3.667,3.081-4.27C8.027,12.988,8,12.744,8,12.5
		c0-2.186,2.035-3.942,4.278-3.405C13.009,7.876,14.529,7,16,7c1.878,0,3.451,1.28,3.872,3.062C22.056,9.638,24,11.363,24,13.5
		c0,0.329-0.047,0.653-0.141,0.97C25.157,15.155,26,16.518,26,18C26,20.206,24.206,22,22,22z M11.5,10C10.121,10,9,11.122,9,12.5
		c0,0.298,0.059,0.6,0.175,0.898c0.054,0.138,0.044,0.292-0.027,0.421c-0.07,0.13-0.195,0.221-0.34,0.25
		C7.181,14.396,6,15.839,6,17.5C6,19.43,7.57,21,9.5,21H22c1.654,0,3-1.346,3-3c0-1.235-0.783-2.36-1.948-2.799
		c-0.129-0.049-0.232-0.149-0.285-0.276c-0.053-0.128-0.051-0.272,0.007-0.398C22.924,14.195,23,13.85,23,13.5
		c0-1.658-1.585-2.989-3.359-2.337c-0.146,0.054-0.309,0.036-0.439-0.047c-0.132-0.083-0.217-0.224-0.23-0.378
		C18.833,9.177,17.557,8,16,8c-1.231,0-2.553,0.831-3.01,1.891c-0.104,0.245-0.383,0.362-0.631,0.271
		C12.061,10.053,11.779,10,11.5,10z"/>
</g>
</svg>
