<?xml version="1.0" encoding="iso-8859-1"?>
<!-- Generator: Adobe Illustrator 22.1.0, SVG Export Plug-In . SVG Version: 6.00 Build 0)  -->
<svg version="1.1" id="Layer_1" xmlns="http://www.w3.org/2000/svg" xmlns:xlink="http://www.w3.org/1999/xlink" x="0px" y="0px"
	 viewBox="0 0 31 31" style="enable-background:new 0 0 31 31;" xml:space="preserve">
<circle style="fill:#B3B2C3;" cx="15.5" cy="15.5" r="14.5"/>
<g>
	<path style="fill:#1F212B;" d="M15.5,31C6.953,31,0,24.047,0,15.5S6.953,0,15.5,0S31,6.953,31,15.5S24.047,31,15.5,31z M15.5,2
		C8.056,2,2,8.056,2,15.5S8.056,29,15.5,29S29,22.944,29,15.5S22.944,2,15.5,2z"/>
</g>
<g>
	<g>
		<path style="fill:#1F212B;" d="M15.5,18c-6.076,0-10.214-4.972-10.387-5.184c-0.174-0.213-0.143-0.528,0.07-0.703
			c0.213-0.176,0.528-0.144,0.704,0.07C5.926,12.231,9.906,17,15.5,17c5.607,0,9.574-4.769,9.613-4.816
			c0.176-0.214,0.491-0.245,0.704-0.071c0.214,0.175,0.246,0.49,0.071,0.704C25.714,13.028,21.576,18,15.5,18z"/>
	</g>
</g>
<g>
	<path style="fill:#1F212B;" d="M15.5,23c-0.276,0-0.5-0.224-0.5-0.5V18c0-0.276,0.224-0.5,0.5-0.5S16,17.724,16,18v4.5
		C16,22.776,15.776,23,15.5,23z"/>
</g>
<g>
	<path style="fill:#1F212B;" d="M22.5,21c-0.158,0-0.314-0.075-0.411-0.215l-2.688-3.869c-0.158-0.227-0.102-0.538,0.125-0.696
		c0.227-0.159,0.539-0.102,0.696,0.125l2.688,3.869c0.158,0.227,0.102,0.538-0.125,0.696C22.698,20.971,22.599,21,22.5,21z"/>
</g>
<g>
	<path style="fill:#1F212B;" d="M26.5,17c-0.093,0-0.187-0.026-0.27-0.08l-3.077-1.98c-0.232-0.149-0.299-0.459-0.15-0.691
		c0.15-0.232,0.46-0.299,0.691-0.15l3.077,1.98c0.232,0.149,0.299,0.459,0.15,0.691C26.825,16.919,26.664,17,26.5,17z"/>
</g>
<g>
	<path style="fill:#1F212B;" d="M8.5,21c-0.105,0-0.211-0.033-0.301-0.101c-0.221-0.167-0.264-0.48-0.098-0.7l2.87-3.798
		c0.166-0.221,0.48-0.265,0.7-0.098c0.221,0.167,0.264,0.48,0.098,0.7l-2.87,3.798C8.801,20.932,8.651,21,8.5,21z"/>
</g>
<g>
	<path style="fill:#1F212B;" d="M4.5,17c-0.165,0-0.325-0.081-0.421-0.229c-0.149-0.232-0.083-0.542,0.15-0.691l3.076-1.98
		c0.232-0.148,0.542-0.082,0.691,0.15c0.149,0.232,0.083,0.542-0.15,0.691l-3.076,1.98C4.687,16.974,4.593,17,4.5,17z"/>
</g>
</svg>
