<?xml version="1.0" encoding="iso-8859-1"?>
<!-- Generator: Adobe Illustrator 22.1.0, SVG Export Plug-In . SVG Version: 6.00 Build 0)  -->
<svg version="1.1" id="Layer_1" xmlns="http://www.w3.org/2000/svg" xmlns:xlink="http://www.w3.org/1999/xlink" x="0px" y="0px"
	 viewBox="0 0 31 31" style="enable-background:new 0 0 31 31;" xml:space="preserve">
<circle style="fill:#B3B2C3;" cx="15.407" cy="15.5" r="14.5"/>
<path style="fill:#FEFDEF;" d="M15.407,9.5c-6.5,0-11,6-11,6s4.5,6,11,6s11-6,11-6S21.907,9.5,15.407,9.5z"/>
<path style="fill:#1F212B;" d="M15.407,22c-6.673,0-11.21-5.947-11.4-6.2c-0.133-0.178-0.133-0.422,0-0.6
	c0.19-0.253,4.727-6.2,11.4-6.2s11.21,5.947,11.4,6.2c0.133,0.178,0.133,0.422,0,0.6C26.617,16.053,22.081,22,15.407,22z
	 M5.051,15.5c1.003,1.189,5.013,5.5,10.356,5.5c5.353,0,9.354-4.31,10.356-5.5C24.76,14.312,20.75,10,15.407,10
	C10.054,10,6.053,14.31,5.051,15.5z"/>
<circle style="fill:#39C2D8;" cx="15.407" cy="15.5" r="5.5"/>
<circle style="fill:#1F212B;" cx="15.407" cy="15.5" r="2.5"/>
<g>
	<path style="fill:#1F212B;" d="M15.5,31C6.953,31,0,24.047,0,15.5S6.953,0,15.5,0S31,6.953,31,15.5S24.047,31,15.5,31z M15.5,2
		C8.056,2,2,8.056,2,15.5S8.056,29,15.5,29S29,22.944,29,15.5S22.944,2,15.5,2z"/>
</g>
<g>
	<path style="fill:#1F212B;" d="M15.407,22c-3.584,0-6.5-2.916-6.5-6.5s2.916-6.5,6.5-6.5s6.5,2.916,6.5,6.5S18.991,22,15.407,22z
		 M15.407,10c-3.033,0-5.5,2.467-5.5,5.5s2.467,5.5,5.5,5.5s5.5-2.467,5.5-5.5S18.44,10,15.407,10z"/>
</g>
</svg>
