<?xml version="1.0" encoding="iso-8859-1"?>
<!-- Generator: Adobe Illustrator 22.1.0, SVG Export Plug-In . SVG Version: 6.00 Build 0)  -->
<svg version="1.1" id="Layer_1" xmlns="http://www.w3.org/2000/svg" xmlns:xlink="http://www.w3.org/1999/xlink" x="0px" y="0px"
	 viewBox="0 0 31 31" style="enable-background:new 0 0 31 31;" xml:space="preserve">
<circle style="fill:#FEFDEF;" cx="15.5" cy="15.5" r="14.5"/>
<g>
	<path style="fill:#1F212B;" d="M15.5,31C6.953,31,0,24.047,0,15.5S6.953,0,15.5,0S31,6.953,31,15.5S24.047,31,15.5,31z M15.5,2
		C8.056,2,2,8.056,2,15.5S8.056,29,15.5,29S29,22.944,29,15.5S22.944,2,15.5,2z"/>
</g>
<polyline style="fill:#F15B6C;" points="24.5,21.5 15.501,6.5 6.5,21.5 "/>
<g>
	<path style="fill:#1F212B;" d="M24.5,22h-18c-0.18,0-0.346-0.097-0.435-0.254c-0.089-0.156-0.086-0.349,0.006-0.503l9.001-15
		C15.163,6.092,15.325,6,15.501,6l0,0c0.176,0,0.338,0.092,0.429,0.243l8.999,15c0.093,0.154,0.095,0.347,0.006,0.503
		C24.846,21.903,24.68,22,24.5,22z M7.383,21h16.234L15.501,7.472L7.383,21z"/>
</g>
<g>
	<path style="fill:#1F212B;" d="M15.5,18c-0.276,0-0.5-0.224-0.5-0.5v-6c0-0.276,0.224-0.5,0.5-0.5s0.5,0.224,0.5,0.5v6
		C16,17.776,15.776,18,15.5,18z"/>
</g>
<g>
	<path style="fill:#1F212B;" d="M15.5,20c-0.13,0-0.26-0.05-0.35-0.15C15.05,19.76,15,19.63,15,19.5s0.05-0.26,0.15-0.351
		c0.18-0.189,0.52-0.189,0.7,0C15.95,19.24,16,19.37,16,19.5s-0.05,0.26-0.15,0.35C15.76,19.95,15.63,20,15.5,20z"/>
</g>
</svg>
