<?xml version="1.0" encoding="iso-8859-1"?>
<!-- Generator: Adobe Illustrator 22.1.0, SVG Export Plug-In . SVG Version: 6.00 Build 0)  -->
<svg version="1.1" id="Layer_1" xmlns="http://www.w3.org/2000/svg" xmlns:xlink="http://www.w3.org/1999/xlink" x="0px" y="0px"
	 viewBox="0 0 31 31" style="enable-background:new 0 0 31 31;" xml:space="preserve">
<circle style="fill:#A3A3CD;" cx="15.5" cy="15.5" r="14.5"/>
<g>
	<path style="fill:#1F212B;" d="M15.5,31C6.953,31,0,24.047,0,15.5S6.953,0,15.5,0S31,6.953,31,15.5S24.047,31,15.5,31z M15.5,2
		C8.056,2,2,8.056,2,15.5S8.056,29,15.5,29S29,22.944,29,15.5S22.944,2,15.5,2z"/>
</g>
<g>
	<path style="fill:#F9E65C;" d="M16.122,7.5h-1.245c-2.506,0-4.625,1.855-4.956,4.339L8.5,22.5h14l-1.421-10.661
		C20.747,9.355,18.628,7.5,16.122,7.5z"/>
	<g>
		<path style="fill:#EDDC67;" d="M15.5,24.5c-1.103,0-2-0.897-2-2h4C17.5,23.603,16.603,24.5,15.5,24.5z"/>
	</g>
	<g>
		<path style="fill:#1F212B;" d="M22.5,23h-14c-0.145,0-0.281-0.062-0.376-0.17c-0.095-0.109-0.139-0.253-0.12-0.396l1.422-10.661
			C9.789,9.052,12.133,7,14.878,7h1.244c2.745,0,5.089,2.052,5.452,4.773l1.422,10.661c0.019,0.143-0.025,0.287-0.12,0.396
			C22.781,22.938,22.645,23,22.5,23z M9.071,22h12.857l-1.347-10.095C20.286,9.679,18.368,8,16.122,8h-1.244
			c-2.246,0-4.164,1.679-4.46,3.905L9.071,22z"/>
	</g>
	<g>
		<path style="fill:#1F212B;" d="M15.5,25c-1.379,0-2.5-1.122-2.5-2.5h1c0,0.827,0.673,1.5,1.5,1.5s1.5-0.673,1.5-1.5h1
			C18,23.878,16.879,25,15.5,25z"/>
	</g>
	<g>
		<path style="fill:#1F212B;" d="M16.551,7.719C16.334,7.275,15.932,7,15.5,7s-0.834,0.275-1.051,0.719l-0.898-0.438
			C13.937,6.491,14.684,6,15.5,6s1.563,0.491,1.949,1.281L16.551,7.719z"/>
	</g>
</g>
</svg>
