<?xml version="1.0" encoding="iso-8859-1"?>
<!-- Generator: Adobe Illustrator 22.1.0, SVG Export Plug-In . SVG Version: 6.00 Build 0)  -->
<svg version="1.1" id="Layer_1" xmlns="http://www.w3.org/2000/svg" xmlns:xlink="http://www.w3.org/1999/xlink" x="0px" y="0px"
	 viewBox="0 0 31 31" style="enable-background:new 0 0 31 31;" xml:space="preserve">
<circle style="fill:#CECCBE;" cx="15.5" cy="15.5" r="14.5"/>
<g>
	<path style="fill:#1F212B;" d="M15.5,31C6.953,31,0,24.047,0,15.5S6.953,0,15.5,0S31,6.953,31,15.5S24.047,31,15.5,31z M15.5,2
		C8.056,2,2,8.056,2,15.5S8.056,29,15.5,29S29,22.944,29,15.5S22.944,2,15.5,2z"/>
</g>
<rect x="7.5" y="12.5" style="fill:#FEFDEF;" width="16" height="11"/>
<g>
	<path style="fill:#1F212B;" d="M13.5,20h-3c-0.276,0-0.5-0.224-0.5-0.5v-3c0-0.276,0.224-0.5,0.5-0.5h3c0.276,0,0.5,0.224,0.5,0.5
		v3C14,19.776,13.776,20,13.5,20z M11,19h2v-2h-2V19z"/>
</g>
<g>
	<path style="fill:#1F212B;" d="M20.5,20h-3c-0.276,0-0.5-0.224-0.5-0.5v-3c0-0.276,0.224-0.5,0.5-0.5h3c0.276,0,0.5,0.224,0.5,0.5
		v3C21,19.776,20.776,20,20.5,20z M18,19h2v-2h-2V19z"/>
</g>
<rect x="7.5" y="9.5" style="fill:#F15B6C;" width="16" height="3"/>
<g>
	<path style="fill:#1F212B;" d="M23.5,24h-16C7.224,24,7,23.776,7,23.5v-14C7,9.224,7.224,9,7.5,9h16C23.776,9,24,9.224,24,9.5v14
		C24,23.776,23.776,24,23.5,24z M8,23h15V10H8V23z"/>
</g>
<g>
	<path style="fill:#1F212B;" d="M23.5,13h-16C7.224,13,7,12.776,7,12.5S7.224,12,7.5,12h16c0.276,0,0.5,0.224,0.5,0.5
		S23.776,13,23.5,13z"/>
</g>
<g>
	<path style="fill:#1F212B;" d="M17.5,9.5C17.224,9.5,17,9.276,17,9V7.5C17,7.224,17.224,7,17.5,7S18,7.224,18,7.5V9
		C18,9.276,17.776,9.5,17.5,9.5z"/>
</g>
<g>
	<path style="fill:#1F212B;" d="M21.5,9.5C21.224,9.5,21,9.276,21,9V7.5C21,7.224,21.224,7,21.5,7S22,7.224,22,7.5V9
		C22,9.276,21.776,9.5,21.5,9.5z"/>
</g>
<g>
	<path style="fill:#1F212B;" d="M13.5,9.5C13.224,9.5,13,9.276,13,9V7.5C13,7.224,13.224,7,13.5,7S14,7.224,14,7.5V9
		C14,9.276,13.776,9.5,13.5,9.5z"/>
</g>
<g>
	<path style="fill:#1F212B;" d="M9.5,9.5C9.224,9.5,9,9.276,9,9V7.5C9,7.224,9.224,7,9.5,7S10,7.224,10,7.5V9
		C10,9.276,9.776,9.5,9.5,9.5z"/>
</g>
</svg>
