<?xml version="1.0" encoding="iso-8859-1"?>
<!-- Generator: Adobe Illustrator 22.1.0, SVG Export Plug-In . SVG Version: 6.00 Build 0)  -->
<svg version="1.1" id="Layer_1" xmlns="http://www.w3.org/2000/svg" xmlns:xlink="http://www.w3.org/1999/xlink" x="0px" y="0px"
	 viewBox="0 0 31 31" style="enable-background:new 0 0 31 31;" xml:space="preserve">
<circle style="fill:#FAE8E6;" cx="15.5" cy="15.5" r="14.5"/>
<g>
	<path style="fill:#1F212B;" d="M15.5,30.5c-8.271,0-15-6.729-15-15s6.729-15,15-15s15,6.729,15,15S23.771,30.5,15.5,30.5z
		 M15.5,1.5c-7.72,0-14,6.28-14,14s6.28,14,14,14s14-6.28,14-14S23.22,1.5,15.5,1.5z"/>
</g>
<g>
	<path style="fill:#1F212B;" d="M15.5,31C6.953,31,0,24.047,0,15.5S6.953,0,15.5,0S31,6.953,31,15.5S24.047,31,15.5,31z M15.5,2
		C8.056,2,2,8.056,2,15.5S8.056,29,15.5,29S29,22.944,29,15.5S22.944,2,15.5,2z"/>
</g>
<circle style="fill:#39C2D8;" cx="15.5" cy="20.5" r="2"/>
<path style="fill:#39C2D8;" d="M20.691,15.804C19.41,14.389,17.559,13.5,15.5,13.5c-2.059,0-3.91,0.889-5.191,2.304l0,0l1.483,1.342
	l0,0c0.915-1.011,2.237-1.645,3.708-1.645c1.471,0,2.793,0.635,3.708,1.645l0,0L20.691,15.804L20.691,15.804z"/>
<path style="fill:#39C2D8;" d="M6.602,12.449l1.483,1.342l0,0C9.914,11.77,12.559,10.5,15.5,10.5s5.586,1.27,7.415,3.291l0,0
	l1.483-1.342l0,0C22.203,10.024,19.029,8.5,15.5,8.5S8.797,10.024,6.602,12.449L6.602,12.449z"/>
<g>
	<path style="fill:#1F212B;" d="M15.5,23c-1.379,0-2.5-1.121-2.5-2.5s1.121-2.5,2.5-2.5s2.5,1.121,2.5,2.5S16.879,23,15.5,23z
		 M15.5,19c-0.827,0-1.5,0.673-1.5,1.5s0.673,1.5,1.5,1.5s1.5-0.673,1.5-1.5S16.327,19,15.5,19z"/>
</g>
<g>
	<path style="fill:#1F212B;" d="M19.208,17.646c-0.136,0-0.271-0.056-0.371-0.164C17.985,16.54,16.769,16,15.5,16
		s-2.485,0.54-3.337,1.481c-0.185,0.205-0.503,0.219-0.707,0.035l-1.482-1.342c-0.204-0.186-0.22-0.502-0.035-0.707
		C11.358,13.899,13.385,13,15.5,13s4.142,0.899,5.562,2.468c0.185,0.205,0.169,0.521-0.035,0.707l-1.482,1.342
		C19.448,17.603,19.328,17.646,19.208,17.646z M15.5,15c1.383,0,2.716,0.524,3.727,1.455l0.743-0.674
		C18.769,14.644,17.166,14,15.5,14s-3.269,0.644-4.47,1.781l0.744,0.674C12.784,15.524,14.116,15,15.5,15z"/>
</g>
<g>
	<path style="fill:#1F212B;" d="M22.915,14.291c-0.136,0-0.272-0.056-0.371-0.164C20.746,12.14,18.179,11,15.5,11
		s-5.246,1.14-7.044,3.127c-0.186,0.204-0.502,0.219-0.706,0.035L6.267,12.82c-0.099-0.089-0.158-0.214-0.164-0.346
		c-0.007-0.133,0.039-0.263,0.128-0.361C8.597,9.499,11.976,8,15.5,8s6.903,1.499,9.27,4.113c0.089,0.099,0.135,0.229,0.128,0.361
		c-0.006,0.132-0.065,0.257-0.164,0.346l-1.483,1.342C23.154,14.248,23.035,14.291,22.915,14.291z M15.5,10
		c2.794,0,5.479,1.121,7.441,3.093l0.742-0.672C21.53,10.241,18.576,9,15.5,9s-6.03,1.241-8.184,3.421l0.742,0.672
		C10.021,11.121,12.706,10,15.5,10z"/>
</g>
</svg>
