<?xml version="1.0" encoding="iso-8859-1"?>
<!-- Generator: Adobe Illustrator 22.1.0, SVG Export Plug-In . SVG Version: 6.00 Build 0)  -->
<svg version="1.1" id="Layer_1" xmlns="http://www.w3.org/2000/svg" xmlns:xlink="http://www.w3.org/1999/xlink" x="0px" y="0px"
	 viewBox="0 0 31 31" style="enable-background:new 0 0 31 31;" xml:space="preserve">
<circle style="fill:#FEFDEF;" cx="15.5" cy="15.5" r="14.5"/>
<g>
	<path style="fill:#1F212B;" d="M15.5,31C6.953,31,0,24.047,0,15.5S6.953,0,15.5,0S31,6.953,31,15.5S24.047,31,15.5,31z M15.5,2
		C8.056,2,2,8.056,2,15.5S8.056,29,15.5,29S29,22.944,29,15.5S22.944,2,15.5,2z"/>
</g>
<g>
	<path style="fill:#1F212B;" d="M23.5,24c-0.128,0-0.256-0.049-0.354-0.146l-7.464-7.464c-0.195-0.195-0.195-0.512,0-0.707
		s0.512-0.195,0.707,0l7.464,7.464c0.195,0.195,0.195,0.512,0,0.707C23.756,23.951,23.628,24,23.5,24z"/>
</g>
<circle style="fill:#78CDD4;" cx="13.5" cy="13.5" r="7"/>
<g>
	<path style="fill:#1F212B;" d="M13.5,21C9.364,21,6,17.636,6,13.5S9.364,6,13.5,6S21,9.364,21,13.5S17.636,21,13.5,21z M13.5,7
		C9.916,7,7,9.916,7,13.5S9.916,20,13.5,20s6.5-2.916,6.5-6.5S17.084,7,13.5,7z"/>
</g>
</svg>
