<?xml version="1.0" encoding="iso-8859-1"?>
<!-- Generator: Adobe Illustrator 22.1.0, SVG Export Plug-In . SVG Version: 6.00 Build 0)  -->
<svg version="1.1" id="Layer_1" xmlns="http://www.w3.org/2000/svg" xmlns:xlink="http://www.w3.org/1999/xlink" x="0px" y="0px"
	 viewBox="0 0 31 31" style="enable-background:new 0 0 31 31;" xml:space="preserve">
<path style="fill:#F69272;" d="M15.5,1l2.97,3.315l4.28-1.337l0.966,4.307l4.307,0.966l-1.318,4.28L30,15.5l-3.295,2.97l1.318,4.28
	l-4.307,0.966l-0.966,4.307l-4.28-1.337L15.5,30l-2.97-3.315l-4.28,1.337l-0.966-4.307L2.977,22.75l1.318-4.28L1,15.5l3.295-2.97
	L2.977,8.25l4.307-0.966L8.25,2.977l4.28,1.337L15.5,1z"/>
<g>
	<path style="fill:#1F212B;" d="M15.5,31c-0.284,0-0.555-0.121-0.745-0.333l-2.541-2.835l-3.667,1.146
		c-0.267,0.083-0.557,0.051-0.798-0.089c-0.242-0.14-0.415-0.375-0.476-0.647l-0.827-3.689l-3.689-0.827
		c-0.272-0.061-0.506-0.232-0.646-0.474c-0.14-0.241-0.173-0.53-0.091-0.796l1.13-3.67l-2.821-2.542C0.12,16.053,0,15.783,0,15.5
		s0.12-0.553,0.331-0.743l2.821-2.542l-1.13-3.67C1.939,8.278,1.972,7.989,2.112,7.748c0.14-0.241,0.374-0.413,0.646-0.474
		l3.689-0.827l0.827-3.689C7.335,2.486,7.508,2.251,7.75,2.111c0.242-0.14,0.532-0.171,0.798-0.089l3.667,1.146l2.541-2.835
		c0.379-0.423,1.11-0.423,1.489,0l2.541,2.835l3.667-1.146c0.268-0.083,0.557-0.051,0.798,0.089c0.242,0.14,0.415,0.375,0.476,0.647
		l0.827,3.689l3.689,0.827c0.272,0.061,0.506,0.232,0.646,0.474c0.14,0.241,0.173,0.53,0.091,0.796l-1.13,3.67l2.821,2.542
		C30.88,14.947,31,15.217,31,15.5s-0.12,0.553-0.331,0.743l-2.821,2.542l1.13,3.67c0.082,0.267,0.049,0.555-0.091,0.796
		c-0.14,0.241-0.374,0.413-0.646,0.474l-3.689,0.827l-0.827,3.689c-0.061,0.272-0.233,0.507-0.476,0.647
		c-0.241,0.14-0.53,0.173-0.798,0.089l-3.667-1.146l-2.541,2.835C16.055,30.879,15.784,31,15.5,31z M12.53,25.686
		c0.28,0,0.552,0.118,0.745,0.333l2.225,2.483l2.225-2.483c0.262-0.292,0.669-0.404,1.043-0.287l3.244,1.014l0.728-3.248
		c0.084-0.377,0.379-0.672,0.757-0.757l3.252-0.729l-1-3.247c-0.115-0.372-0.003-0.777,0.286-1.037l2.471-2.227l-2.471-2.227
		c-0.289-0.26-0.401-0.665-0.286-1.037l1-3.247L23.497,8.26c-0.377-0.084-0.672-0.379-0.757-0.757l-0.728-3.248l-3.244,1.014
		c-0.374,0.118-0.781,0.004-1.043-0.287L15.5,2.499l-2.225,2.483c-0.261,0.292-0.668,0.405-1.043,0.287L8.988,4.255L8.26,7.503
		C8.176,7.881,7.881,8.176,7.503,8.26L4.251,8.989l1,3.247c0.115,0.372,0.003,0.777-0.286,1.037L2.494,15.5l2.471,2.227
		c0.289,0.26,0.401,0.665,0.286,1.037l-1,3.247l3.252,0.729c0.377,0.084,0.672,0.379,0.757,0.757l0.728,3.248l3.244-1.014
		C12.33,25.7,12.431,25.686,12.53,25.686z"/>
</g>
</svg>
