<?xml version="1.0" encoding="iso-8859-1"?>
<!-- Generator: Adobe Illustrator 22.1.0, SVG Export Plug-In . SVG Version: 6.00 Build 0)  -->
<svg version="1.1" id="Layer_1" xmlns="http://www.w3.org/2000/svg" xmlns:xlink="http://www.w3.org/1999/xlink" x="0px" y="0px"
	 viewBox="0 0 31 31" style="enable-background:new 0 0 31 31;" xml:space="preserve">
<circle style="fill:#F69272;" cx="15.5" cy="15.5" r="14.5"/>
<g>
	<path style="fill:#1F212B;" d="M15.5,31C6.953,31,0,24.047,0,15.5S6.953,0,15.5,0S31,6.953,31,15.5S24.047,31,15.5,31z M15.5,2
		C8.056,2,2,8.056,2,15.5S8.056,29,15.5,29S29,22.944,29,15.5S22.944,2,15.5,2z"/>
</g>
<g>
	<path style="fill:#1F212B;" d="M15.5,25c-0.276,0-0.5-0.224-0.5-0.5v-17C15,7.224,15.224,7,15.5,7S16,7.224,16,7.5v17
		C16,24.776,15.776,25,15.5,25z"/>
</g>
<g>
	<path style="fill:#1F212B;" d="M15.5,24c-2.577,0-4.882-1.504-5.48-3.576c-0.076-0.265,0.076-0.542,0.342-0.619
		c0.264-0.075,0.542,0.076,0.619,0.342C11.38,21.53,13.1,23,15.5,23c1.386,0,2.581-0.333,3.459-0.965
		C19.649,21.537,20,20.862,20,20.03c0-1.607-1.662-2.46-3.11-3.024c-0.478-0.186-0.964-0.353-1.45-0.521
		c-1.017-0.35-2.068-0.712-3.061-1.253C10.801,14.372,10,13.274,10,11.97c0-1.155,0.504-2.129,1.456-2.816
		C12.506,8.399,13.903,8,15.5,8c2.826,0,4.824,1.303,5.48,3.576c0.076,0.265-0.076,0.542-0.342,0.619
		c-0.264,0.074-0.543-0.076-0.619-0.342C19.712,10.788,18.716,9,15.5,9c-1.386,0-2.581,0.333-3.459,0.965
		C11.351,10.463,11,11.138,11,11.97c0,0.923,0.607,1.704,1.857,2.385c0.918,0.5,1.93,0.849,2.908,1.185
		c0.498,0.172,0.997,0.343,1.487,0.535C18.277,16.473,21,17.533,21,20.03c0,1.155-0.504,2.129-1.456,2.816
		C18.494,23.601,17.096,24,15.5,24z"/>
</g>
</svg>
