<?xml version="1.0" encoding="iso-8859-1"?>
<!-- Generator: Adobe Illustrator 22.1.0, SVG Export Plug-In . SVG Version: 6.00 Build 0)  -->
<svg version="1.1" id="Layer_1" xmlns="http://www.w3.org/2000/svg" xmlns:xlink="http://www.w3.org/1999/xlink" x="0px" y="0px"
	 viewBox="0 0 31 31" style="enable-background:new 0 0 31 31;" xml:space="preserve">
<circle style="fill:#FEFDEF;" cx="15.5" cy="15.5" r="14.5"/>
<g>
	<path style="fill:#1F212B;" d="M15.5,31C6.953,31,0,24.047,0,15.5S6.953,0,15.5,0S31,6.953,31,15.5S24.047,31,15.5,31z M15.5,2
		C8.056,2,2,8.056,2,15.5S8.056,29,15.5,29S29,22.944,29,15.5S22.944,2,15.5,2z"/>
</g>
<path style="fill:#F15B6C;" d="M17.5,9c0-0.828-0.895-1.5-2-1.5s-2,0.672-2,1.5c0,2,1,3.5,1,9.5c0,0,0.827,0,1,0s1,0,1,0
	C16.5,12.5,17.5,11,17.5,9z"/>
<path style="fill:#F15B6C;" d="M17,22c0,0.418-0.145,0.773-0.436,1.063c-0.291,0.291-0.64,0.437-1.045,0.437
	c-0.417,0-0.776-0.146-1.072-0.437C14.149,22.772,14,22.418,14,22c0-0.405,0.149-0.757,0.447-1.054
	c0.297-0.298,0.655-0.446,1.072-0.446c0.405,0,0.753,0.148,1.045,0.446C16.855,21.243,17,21.595,17,22z"/>
<g>
	<path style="fill:#1F212B;" d="M15.519,24c-0.553,0-1.032-0.195-1.423-0.581C13.701,23.033,13.5,22.556,13.5,22
		c0-0.54,0.2-1.014,0.593-1.408c0.779-0.777,2.046-0.793,2.828,0.003C17.305,20.988,17.5,21.461,17.5,22
		c0,0.554-0.196,1.03-0.583,1.416C16.531,23.804,16.06,24,15.519,24z M15.519,21c-0.287,0-0.515,0.095-0.719,0.299
		c-0.205,0.205-0.3,0.428-0.3,0.701c0,0.284,0.094,0.508,0.296,0.704c0.399,0.394,1.007,0.413,1.414,0.005
		c0.198-0.197,0.29-0.423,0.29-0.709c0-0.276-0.093-0.5-0.293-0.705C16.009,21.094,15.791,21,15.519,21z"/>
</g>
<g>
	<path style="fill:#1F212B;" d="M16.5,19h-2c-0.276,0-0.5-0.224-0.5-0.5c0-3.754-0.396-5.723-0.687-7.161
		C13.139,10.469,13,9.782,13,9c0-1.103,1.122-2,2.5-2S18,7.897,18,9c0,0.782-0.139,1.469-0.313,2.339
		C17.396,12.777,17,14.746,17,18.5C17,18.776,16.776,19,16.5,19z M14.998,18h1.005c0.033-3.531,0.419-5.444,0.704-6.858
		C16.87,10.326,17,9.683,17,9c0-0.542-0.687-1-1.5-1S14,8.458,14,9c0,0.683,0.13,1.326,0.294,2.142
		C14.579,12.556,14.964,14.469,14.998,18z"/>
</g>
</svg>
