<?xml version="1.0" encoding="iso-8859-1"?>
<!-- Generator: Adobe Illustrator 22.1.0, SVG Export Plug-In . SVG Version: 6.00 Build 0)  -->
<svg version="1.1" id="Layer_1" xmlns="http://www.w3.org/2000/svg" xmlns:xlink="http://www.w3.org/1999/xlink" x="0px" y="0px"
	 viewBox="0 0 31 31" style="enable-background:new 0 0 31 31;" xml:space="preserve">
<circle style="fill:#FEFDEF;" cx="15.5" cy="15.5" r="14.5"/>
<g>
	<path style="fill:#1F212B;" d="M15.5,31C6.953,31,0,24.047,0,15.5S6.953,0,15.5,0S31,6.953,31,15.5S24.047,31,15.5,31z M15.5,2
		C8.056,2,2,8.056,2,15.5S8.056,29,15.5,29S29,22.944,29,15.5S22.944,2,15.5,2z"/>
</g>
<path style="fill:#F15B6C;" d="M17,22c0,0.418-0.145,0.773-0.436,1.063c-0.291,0.291-0.64,0.437-1.045,0.437
	c-0.417,0-0.776-0.146-1.072-0.437C14.149,22.772,14,22.418,14,22c0-0.405,0.149-0.757,0.447-1.054
	c0.297-0.298,0.655-0.446,1.072-0.446c0.405,0,0.753,0.148,1.045,0.446C16.855,21.243,17,21.595,17,22z"/>
<path style="fill:#F15B6C;" d="M15,7.5c-3.5,0-5.5,1.766-5.5,4.499c0,0,0,0,0,0c0,0,0,0,0,0s0,0,0,0h0
	c0,0.418,0.149,0.772,0.447,1.063c0.296,0.291,0.655,0.437,1.072,0.437c0.405,0,0.753-0.146,1.045-0.437
	C12.355,12.772,12.5,12.418,12.5,12c0-0.405-0.145-0.757-0.436-1.054c-0.213-0.217-0.467-0.327-0.74-0.386C12,9.5,14,9.5,14.5,9.5
	c1.5,0,3,1,3,2.5c0,2-3,3-3,6.5h2c0-1.699,4-3.5,4-6.5C20.5,10,18.5,7.5,15,7.5z"/>
<g>
	<path style="fill:#1F212B;" d="M15.519,24c-0.553,0-1.032-0.195-1.423-0.581C13.701,23.033,13.5,22.556,13.5,22
		c0-0.54,0.2-1.014,0.593-1.408c0.779-0.777,2.045-0.793,2.828,0.003C17.305,20.988,17.5,21.461,17.5,22
		c0,0.554-0.196,1.03-0.583,1.416C16.531,23.804,16.06,24,15.519,24z M15.519,21c-0.287,0-0.515,0.095-0.719,0.299
		c-0.205,0.205-0.3,0.428-0.3,0.701c0,0.284,0.094,0.508,0.296,0.704c0.399,0.394,1.008,0.413,1.414,0.005
		c0.198-0.197,0.29-0.423,0.29-0.709c0-0.276-0.093-0.5-0.293-0.705C16.009,21.094,15.791,21,15.519,21z"/>
</g>
<g>
	<path style="fill:#1F212B;" d="M16.5,19h-2c-0.276,0-0.5-0.224-0.5-0.5c0-2.173,1.067-3.47,1.925-4.512
		C16.525,13.259,17,12.682,17,12c0-1.235-1.298-2-2.5-2c-0.359,0-1.307,0-2.202,0.481c0.042,0.036,0.083,0.074,0.122,0.114
		C12.805,10.988,13,11.461,13,12c0,0.554-0.196,1.03-0.583,1.417c-0.782,0.781-2.044,0.766-2.82,0.002C9.201,13.033,9,12.556,9,12
		c0-2.897,2.524-5,6-5c3.309,0,6,2.243,6,5c0,1.86-1.302,3.146-2.451,4.28C17.752,17.067,17,17.81,17,18.5
		C17,18.776,16.776,19,16.5,19z M15.023,18h1.039c0.218-0.884,0.982-1.639,1.785-2.432C18.905,14.523,20,13.442,20,12
		c0-2.206-2.243-4-5-4c-2.484,0-5,1.374-5,3.999c0,0.284,0.094,0.509,0.296,0.705c0.401,0.395,1.006,0.412,1.414,0.005
		C11.908,12.512,12,12.286,12,12c0-0.276-0.093-0.5-0.294-0.705c-0.122-0.124-0.272-0.2-0.487-0.246
		c-0.184-0.04-0.33-0.179-0.378-0.36c-0.049-0.182,0.009-0.375,0.148-0.5C12.308,9,13.958,9,14.5,9c1.683,0,3.5,1.147,3.5,3
		c0,1.04-0.633,1.81-1.303,2.624C15.942,15.541,15.165,16.486,15.023,18z"/>
</g>
</svg>
