<?xml version="1.0" encoding="iso-8859-1"?>
<!-- Generator: Adobe Illustrator 22.1.0, SVG Export Plug-In . SVG Version: 6.00 Build 0)  -->
<svg version="1.1" id="Layer_1" xmlns="http://www.w3.org/2000/svg" xmlns:xlink="http://www.w3.org/1999/xlink" x="0px" y="0px"
	 viewBox="0 0 31 31" style="enable-background:new 0 0 31 31;" xml:space="preserve">
<circle style="fill:#78CDD4;" cx="15.407" cy="15.5" r="14.5"/>
<circle style="fill:#FEFDEF;" cx="15.407" cy="15.5" r="10"/>
<g>
	<path style="fill:#1F212B;" d="M15.5,31C6.953,31,0,24.047,0,15.5S6.953,0,15.5,0S31,6.953,31,15.5S24.047,31,15.5,31z M15.5,2
		C8.056,2,2,8.056,2,15.5S8.056,29,15.5,29S29,22.944,29,15.5S22.944,2,15.5,2z"/>
</g>
<g>
	<path style="fill:#1F212B;" d="M15.407,26c-5.79,0-10.5-4.71-10.5-10.5S9.617,5,15.407,5s10.5,4.71,10.5,10.5S21.197,26,15.407,26z
		 M15.407,6c-5.238,0-9.5,4.262-9.5,9.5s4.262,9.5,9.5,9.5s9.5-4.262,9.5-9.5S20.646,6,15.407,6z"/>
</g>
<g>
	<path style="fill:#1F212B;" d="M20.407,21c-0.128,0-0.256-0.049-0.354-0.146l-5-5c-0.094-0.094-0.146-0.221-0.146-0.354v-7
		c0-0.276,0.224-0.5,0.5-0.5s0.5,0.224,0.5,0.5v6.793l4.854,4.854c0.195,0.195,0.195,0.512,0,0.707
		C20.663,20.951,20.535,21,20.407,21z"/>
</g>
</svg>
