<?xml version="1.0" encoding="iso-8859-1"?>
<!-- Generator: Adobe Illustrator 22.1.0, SVG Export Plug-In . SVG Version: 6.00 Build 0)  -->
<svg version="1.1" id="Layer_1" xmlns="http://www.w3.org/2000/svg" xmlns:xlink="http://www.w3.org/1999/xlink" x="0px" y="0px"
	 viewBox="0 0 31 31" style="enable-background:new 0 0 31 31;" xml:space="preserve">
<circle style="fill:#FEFDEF;" cx="15.5" cy="15.5" r="14.5"/>
<g>
	<path style="fill:#1F212B;" d="M15.5,30.5c-8.271,0-15-6.729-15-15s6.729-15,15-15s15,6.729,15,15S23.771,30.5,15.5,30.5z
		 M15.5,1.5c-7.72,0-14,6.28-14,14s6.28,14,14,14s14-6.28,14-14S23.22,1.5,15.5,1.5z"/>
</g>
<g>
	<path style="fill:#1F212B;" d="M15.5,31C6.953,31,0,24.047,0,15.5S6.953,0,15.5,0S31,6.953,31,15.5S24.047,31,15.5,31z M15.5,2
		C8.056,2,2,8.056,2,15.5S8.056,29,15.5,29S29,22.944,29,15.5S22.944,2,15.5,2z"/>
</g>
<g>
	<path style="fill:#60BE92;" d="M21.5,10.5h-3.511C18.305,10.081,18.5,9.565,18.5,9c0-1.381-1.119-2.5-2.5-2.5S13.5,7.619,13.5,9
		c0,0.565,0.195,1.081,0.511,1.5H9.5c-0.552,0-1,0.448-1,1v3.511C8.919,14.695,9.435,14.5,10,14.5c1.381,0,2.5,1.119,2.5,2.5
		c0,1.381-1.119,2.5-2.5,2.5c-0.565,0-1.081-0.195-1.5-0.511V22.5c0,0.552,0.448,1,1,1h12c0.552,0,1-0.448,1-1v-11
		C22.5,10.948,22.052,10.5,21.5,10.5z"/>
</g>
<g>
	<g>
		<path style="fill:#1F212B;" d="M21.5,24h-12C8.673,24,8,23.327,8,22.5v-3.511c0-0.189,0.107-0.363,0.277-0.448
			c0.168-0.084,0.372-0.066,0.524,0.049C9.156,18.858,9.571,19,10,19c1.103,0,2-0.897,2-2s-0.897-2-2-2
			c-0.429,0-0.844,0.142-1.198,0.41c-0.152,0.115-0.356,0.133-0.524,0.049C8.107,15.375,8,15.201,8,15.011V11.5
			C8,10.673,8.673,10,9.5,10h3.675C13.06,9.681,13,9.344,13,9c0-1.654,1.346-3,3-3s3,1.346,3,3c0,0.344-0.06,0.681-0.175,1H21.5
			c0.827,0,1.5,0.673,1.5,1.5v11C23,23.327,22.327,24,21.5,24z M9,19.825V22.5C9,22.776,9.225,23,9.5,23h12
			c0.275,0,0.5-0.224,0.5-0.5v-11c0-0.276-0.225-0.5-0.5-0.5h-3.512c-0.189,0-0.363-0.107-0.447-0.277
			c-0.085-0.17-0.065-0.373,0.049-0.524C17.858,9.844,18,9.43,18,9c0-1.103-0.897-2-2-2s-2,0.897-2,2c0,0.43,0.142,0.844,0.41,1.198
			c0.114,0.151,0.134,0.354,0.049,0.524C14.375,10.893,14.201,11,14.012,11H9.5C9.225,11,9,11.224,9,11.5v2.675
			C9.319,14.06,9.656,14,10,14c1.654,0,3,1.346,3,3s-1.346,3-3,3C9.656,20,9.319,19.94,9,19.825z"/>
	</g>
</g>
</svg>
