<?xml version="1.0" encoding="iso-8859-1"?>
<!-- Generator: Adobe Illustrator 22.1.0, SVG Export Plug-In . SVG Version: 6.00 Build 0)  -->
<svg version="1.1" id="Layer_1" xmlns="http://www.w3.org/2000/svg" xmlns:xlink="http://www.w3.org/1999/xlink" x="0px" y="0px"
	 viewBox="0 0 31 31" style="enable-background:new 0 0 31 31;" xml:space="preserve">
<circle style="fill:#FEFDEF;" cx="15.5" cy="15.5" r="14.5"/>
<circle style="fill:#7783AD;" cx="12.5" cy="20.5" r="3"/>
<path style="fill:#7783AD;" d="M14.277,14.5l5.276-5.251c0.48-0.48,1.132-0.75,1.811-0.75s1.33,0.27,1.811,0.75l0.311,0.311
	L18.544,14.5"/>
<path style="fill:#7783AD;" d="M12.5,13.5c0-1.835-1.647-3.285-3.544-2.952C7.75,10.76,6.76,11.75,6.548,12.956
	C6.215,14.853,7.665,16.5,9.5,16.5h3.587c0.904,0,1.772,0.36,2.41,1l0,0h7.442c0.679,0,1.33-0.27,1.811-0.75s0.75-1.132,0.75-1.811
	V14.5h-13V13.5z"/>
<g>
	<path style="fill:#1F212B;" d="M15.5,30.5c-8.271,0-15-6.729-15-15s6.729-15,15-15s15,6.729,15,15S23.771,30.5,15.5,30.5z
		 M15.5,1.5c-7.72,0-14,6.28-14,14s6.28,14,14,14s14-6.28,14-14S23.22,1.5,15.5,1.5z"/>
</g>
<g>
	<path style="fill:#1F212B;" d="M15.5,31C6.953,31,0,24.047,0,15.5S6.953,0,15.5,0S31,6.953,31,15.5S24.047,31,15.5,31z M15.5,2
		C8.056,2,2,8.056,2,15.5S8.056,29,15.5,29S29,22.944,29,15.5S22.944,2,15.5,2z"/>
</g>
<g>
	<path style="fill:#1F212B;" d="M18.545,15c-0.128,0-0.256-0.049-0.354-0.146c-0.195-0.195-0.195-0.512,0-0.707l4.586-4.586
		c-0.781-0.738-2.107-0.723-2.87,0.042l-5.277,5.252c-0.195,0.193-0.512,0.195-0.707-0.002c-0.194-0.195-0.194-0.512,0.002-0.707
		l5.276-5.251c1.151-1.153,3.17-1.156,4.327,0.001l0.311,0.311c0.195,0.195,0.195,0.512,0,0.707l-4.94,4.94
		C18.801,14.951,18.673,15,18.545,15z"/>
</g>
<g>
	<path style="fill:#1F212B;" d="M22.939,18h-7.441c-0.133,0-0.261-0.053-0.354-0.147C14.596,17.303,13.865,17,13.087,17H9.5
		c-1.037,0-2.014-0.456-2.682-1.25c-0.667-0.795-0.945-1.845-0.763-2.881c0.247-1.409,1.404-2.566,2.813-2.813
		c1.036-0.187,2.087,0.096,2.881,0.763C12.544,11.486,13,12.463,13,13.5V14h12.5c0.276,0,0.5,0.224,0.5,0.5v0.439
		c0,0.817-0.318,1.586-0.896,2.164S23.757,18,22.939,18z M15.697,17h7.242c0.551,0,1.067-0.214,1.457-0.604
		c0.375-0.375,0.588-0.869,0.603-1.396H12.5c-0.276,0-0.5-0.224-0.5-0.5v-1c0-0.74-0.325-1.438-0.894-1.916
		c-0.575-0.483-1.309-0.676-2.063-0.544c-1.003,0.177-1.826,1-2.003,2.003c-0.133,0.755,0.061,1.487,0.544,2.063
		C8.062,15.675,8.76,16,9.5,16h3.587C14.062,16,14.98,16.354,15.697,17z"/>
</g>
<g>
	<path style="fill:#1F212B;" d="M12.5,24C10.57,24,9,22.43,9,20.5c0-0.994,0.425-1.945,1.167-2.609
		c0.202-0.183,0.52-0.166,0.706,0.04c0.184,0.205,0.166,0.521-0.04,0.705C10.304,19.11,10,19.79,10,20.5c0,1.379,1.121,2.5,2.5,2.5
		s2.5-1.121,2.5-2.5c0-0.667-0.26-1.295-0.732-1.768c-0.195-0.195-0.195-0.512,0-0.707l0.877-0.879c0.195-0.195,0.512-0.195,0.707,0
		c0.195,0.194,0.195,0.511,0,0.707l-0.549,0.55C15.755,19.005,16,19.734,16,20.5C16,22.43,14.43,24,12.5,24z"/>
</g>
<circle style="fill:#1F212B;" cx="9.5" cy="13.5" r="1"/>
<circle style="fill:#1F212B;" cx="12.5" cy="20.5" r="1"/>
</svg>
