<?xml version="1.0" encoding="iso-8859-1"?>
<!-- Generator: Adobe Illustrator 22.1.0, SVG Export Plug-In . SVG Version: 6.00 Build 0)  -->
<svg version="1.1" id="Layer_1" xmlns="http://www.w3.org/2000/svg" xmlns:xlink="http://www.w3.org/1999/xlink" x="0px" y="0px"
	 viewBox="0 0 31 31" style="enable-background:new 0 0 31 31;" xml:space="preserve">
<circle style="fill:#60BE92;" cx="15.5" cy="15.5" r="14.5"/>
<path style="fill:#FEF6AA;" d="M22.5,9.5v9.454c0,2.741-6.988,5.546-7,5.546s-7-2.805-7-5.546V9.5c3.85,0,6.417-1.407,7-2.99
	C16.083,8.093,18.65,9.5,22.5,9.5z"/>
<g>
	<path style="fill:#1F212B;" d="M15.5,25C15.168,25,8,22.058,8,18.954V9.5C8,9.224,8.224,9,8.5,9c3.813,0,6.059-1.38,6.531-2.663
		c0.145-0.393,0.793-0.393,0.938,0C16.441,7.62,18.687,9,22.5,9C22.776,9,23,9.224,23,9.5v9.454C23,22.058,15.832,25,15.5,25z
		 M9,9.992v8.961c0,1.865,4.595,4.243,6.5,5.009c1.905-0.766,6.5-3.145,6.5-5.009V9.992c-2.959-0.096-5.395-1.04-6.5-2.473
		C14.395,8.953,11.959,9.896,9,9.992z"/>
</g>
<g>
	<path style="fill:#1F212B;" d="M15.5,31C6.953,31,0,24.047,0,15.5S6.953,0,15.5,0S31,6.953,31,15.5S24.047,31,15.5,31z M15.5,2
		C8.056,2,2,8.056,2,15.5S8.056,29,15.5,29S29,22.944,29,15.5S22.944,2,15.5,2z"/>
</g>
</svg>
