<?xml version="1.0" encoding="iso-8859-1"?>
<!-- Generator: Adobe Illustrator 22.1.0, SVG Export Plug-In . SVG Version: 6.00 Build 0)  -->
<svg version="1.1" id="Layer_1" xmlns="http://www.w3.org/2000/svg" xmlns:xlink="http://www.w3.org/1999/xlink" x="0px" y="0px"
	 viewBox="0 0 31 31" style="enable-background:new 0 0 31 31;" xml:space="preserve">
<circle style="fill:#A1D3A2;" cx="15.5" cy="15.5" r="14.5"/>
<g>
	<path style="fill:#1F212B;" d="M15.5,31C6.953,31,0,24.047,0,15.5S6.953,0,15.5,0S31,6.953,31,15.5S24.047,31,15.5,31z M15.5,2
		C8.056,2,2,8.056,2,15.5S8.056,29,15.5,29S29,22.944,29,15.5S22.944,2,15.5,2z"/>
</g>
<g>
	<path style="fill:#FCBA7F;" d="M9,22l0.773-3.576L20.644,7.553c0,0,1.045-0.338,2.106,0.723s0.723,2.106,0.723,2.106L12.601,21.253
		L9,22z"/>
	<path style="fill:#F37E98;" d="M19.197,9l1.447-1.447c0,0,1.045-0.338,2.106,0.723s0.723,2.106,0.723,2.106L22,11.854L19.197,9z"/>
	<g>
		<path style="fill:#1F212B;" d="M8.877,23.025c-0.228,0-0.449-0.09-0.618-0.259c-0.241-0.24-0.321-0.587-0.21-0.906l0,0
			l1.225-3.522c0.041-0.12,0.111-0.234,0.204-0.326L20.29,7.2c0.056-0.056,0.125-0.098,0.2-0.122
			c0.054-0.02,1.352-0.417,2.613,0.845c1.262,1.262,0.862,2.558,0.845,2.613c-0.024,0.075-0.066,0.144-0.122,0.2L12.955,21.606
			c-0.053,0.053-0.118,0.094-0.189,0.119l-3.601,1.252C9.07,23.009,8.973,23.025,8.877,23.025z M8.993,22.188c0,0,0-0.001,0-0.001
			L8.993,22.188z M20.892,8.012L10.185,18.719l-1.109,3.229l3.253-1.131l10.686-10.686c0.03-0.231,0.034-0.85-0.619-1.502
			C21.746,7.979,21.131,7.98,20.892,8.012z"/>
	</g>
	<g>
		<path style="fill:#1F212B;" d="M22.089,12.265c-0.128,0-0.256-0.049-0.354-0.146L18.907,9.29c-0.195-0.195-0.195-0.512,0-0.707
			s0.512-0.195,0.707,0l2.829,2.829c0.195,0.195,0.195,0.512,0,0.707C22.345,12.216,22.217,12.265,22.089,12.265z"/>
	</g>
	<g>
		<path style="fill:#1F212B;" d="M12.791,21.562c-0.128,0-0.256-0.049-0.354-0.146l-2.828-2.829c-0.195-0.195-0.195-0.512,0-0.707
			s0.512-0.195,0.707,0l2.828,2.829c0.195,0.195,0.195,0.512,0,0.707C13.047,21.514,12.919,21.562,12.791,21.562z"/>
	</g>
	<polygon style="fill:#1F212B;" points="8.941,20.67 10.355,22.084 8.611,22.414 	"/>
</g>
</svg>
