<?xml version="1.0" encoding="iso-8859-1"?>
<!-- Generator: Adobe Illustrator 22.1.0, SVG Export Plug-In . SVG Version: 6.00 Build 0)  -->
<svg version="1.1" id="Layer_1" xmlns="http://www.w3.org/2000/svg" xmlns:xlink="http://www.w3.org/1999/xlink" x="0px" y="0px"
	 viewBox="0 0 31 31" style="enable-background:new 0 0 31 31;" xml:space="preserve">
<circle style="fill:#FCBA7F;" cx="15.5" cy="15.5" r="14.5"/>
<g>
	<path style="fill:#1F212B;" d="M15.5,31C6.953,31,0,24.047,0,15.5S6.953,0,15.5,0S31,6.953,31,15.5S24.047,31,15.5,31z M15.5,2
		C8.056,2,2,8.056,2,15.5S8.056,29,15.5,29S29,22.944,29,15.5S22.944,2,15.5,2z"/>
</g>
<g>
	<polygon style="fill:#78CDD4;" points="12,7.5 10.5,16 9.5,16.5 9.5,19.5 21.5,19.5 21.5,16.5 20.5,16 19,7.5 	"/>
	<g>
		<path style="fill:#1F212B;" d="M15.5,26c-0.276,0-0.5-0.224-0.5-0.5v-6c0-0.276,0.224-0.5,0.5-0.5s0.5,0.224,0.5,0.5v6
			C16,25.776,15.776,26,15.5,26z"/>
	</g>
	<g>
		<path style="fill:#1F212B;" d="M23.5,20h-16C7.224,20,7,19.776,7,19.5S7.224,19,7.5,19h16c0.276,0,0.5,0.224,0.5,0.5
			S23.776,20,23.5,20z"/>
	</g>
	<g>
		<path style="fill:#1F212B;" d="M20.5,8h-10C10.224,8,10,7.776,10,7.5S10.224,7,10.5,7h10C20.776,7,21,7.224,21,7.5
			S20.776,8,20.5,8z"/>
	</g>
	<g>
		<path style="fill:#1F212B;" d="M21.5,20h-12C9.224,20,9,19.776,9,19.5v-3c0-0.189,0.107-0.362,0.276-0.447l0.775-0.388
			l1.457-8.252C11.55,7.174,11.757,7,12,7h7c0.243,0,0.45,0.174,0.492,0.413l1.457,8.252l0.775,0.388
			C21.893,16.138,22,16.311,22,16.5v3C22,19.776,21.776,20,21.5,20z M10,19h11v-2.191l-0.724-0.361
			c-0.142-0.071-0.241-0.204-0.269-0.36L18.581,8h-6.161l-1.427,8.087c-0.027,0.156-0.127,0.289-0.269,0.36L10,16.809V19z M10.5,16
			h0.01H10.5z"/>
	</g>
</g>
</svg>
