<?xml version="1.0" encoding="iso-8859-1"?>
<!-- Generator: Adobe Illustrator 22.1.0, SVG Export Plug-In . SVG Version: 6.00 Build 0)  -->
<svg version="1.1" id="Layer_1" xmlns="http://www.w3.org/2000/svg" xmlns:xlink="http://www.w3.org/1999/xlink" x="0px" y="0px"
	 viewBox="0 0 31 31" style="enable-background:new 0 0 31 31;" xml:space="preserve">
<circle style="fill:#FEFDEF;" cx="15.5" cy="15.5" r="14.5"/>
<g>
	<path style="fill:#1F212B;" d="M15.5,31C6.953,31,0,24.047,0,15.5S6.953,0,15.5,0S31,6.953,31,15.5S24.047,31,15.5,31z M15.5,2
		C8.056,2,2,8.056,2,15.5S8.056,29,15.5,29S29,22.944,29,15.5S22.944,2,15.5,2z"/>
</g>
<path style="fill:#6474A6;" d="M23.5,12.5h-16v8c0,1.657,1.343,3,3,3h10c1.657,0,3-1.343,3-3V12.5z"/>
<g>
	<path style="fill:#1F212B;" d="M20.5,24h-10C8.57,24,7,22.43,7,20.5v-8C7,12.224,7.224,12,7.5,12h16c0.276,0,0.5,0.224,0.5,0.5v8
		C24,22.43,22.43,24,20.5,24z M8,13v7.5c0,1.378,1.122,2.5,2.5,2.5h10c1.378,0,2.5-1.122,2.5-2.5V13H8z"/>
</g>
<g>
	<path style="fill:#1F212B;" d="M11.5,13c-0.276,0-0.5-0.224-0.5-0.5v-3C11,7.019,13.019,5,15.5,5c2.054,0,3.846,1.388,4.358,3.375
		c0.069,0.267-0.092,0.54-0.36,0.609c-0.264,0.071-0.54-0.092-0.609-0.36C18.492,7.079,17.098,6,15.5,6C13.57,6,12,7.57,12,9.5v3
		C12,12.776,11.776,13,11.5,13z"/>
</g>
</svg>
