<?xml version="1.0" encoding="iso-8859-1"?>
<!-- Generator: Adobe Illustrator 22.1.0, SVG Export Plug-In . SVG Version: 6.00 Build 0)  -->
<svg version="1.1" id="Layer_1" xmlns="http://www.w3.org/2000/svg" xmlns:xlink="http://www.w3.org/1999/xlink" x="0px" y="0px"
	 viewBox="0 0 31 31" style="enable-background:new 0 0 31 31;" xml:space="preserve">
<circle style="fill:#39C2D8;" cx="15.5" cy="15.5" r="14.5"/>
<g>
	<path style="fill:#1F212B;" d="M15.5,31C6.953,31,0,24.047,0,15.5S6.953,0,15.5,0S31,6.953,31,15.5S24.047,31,15.5,31z M15.5,2
		C8.056,2,2,8.056,2,15.5S8.056,29,15.5,29S29,22.944,29,15.5S22.944,2,15.5,2z"/>
</g>
<path style="fill:#FEFDEF;" d="M12,16l-5.5,5.5c0.357,0.287,2.709,2.64,3,3L15,19"/>
<path style="fill:#FEFDEF;" d="M19.871,14.42c0,0-1.535,0.712-2.769-0.522c-1.234-1.234-0.522-2.769-0.522-2.769l4.072-4.053
	C19.84,6.713,18.947,6.5,18,6.5c-3.59,0-6.5,2.91-6.5,6.5c0,3.59,2.91,6.5,6.5,6.5s6.5-2.91,6.5-6.5c0-0.942-0.21-1.831-0.57-2.639
	L19.871,14.42z"/>
<g>
	<path style="fill:#1F212B;" d="M9.517,25c-0.128,0-0.256-0.049-0.353-0.146c-0.196-0.195-0.196-0.511-0.002-0.707l5.483-5.5
		c0.195-0.196,0.514-0.195,0.707-0.001c0.196,0.195,0.196,0.511,0.002,0.707l-5.483,5.5C9.773,24.951,9.645,25,9.517,25z"/>
</g>
<g>
	<path style="fill:#1F212B;" d="M6.517,22c-0.128,0-0.256-0.049-0.353-0.146c-0.196-0.195-0.196-0.511-0.002-0.707l5.483-5.5
		c0.195-0.196,0.514-0.195,0.707-0.001c0.196,0.195,0.196,0.511,0.002,0.707l-5.483,5.5C6.773,21.951,6.645,22,6.517,22z"/>
</g>
<g>
	<path style="fill:#1F212B;" d="M18,20c-3.859,0-7-3.14-7-7s3.141-7,7-7c0.977,0,1.937,0.208,2.855,0.621
		c0.15,0.067,0.258,0.204,0.288,0.366c0.029,0.162-0.022,0.328-0.14,0.444l-4,3.981c-0.102,0.278-0.389,1.293,0.451,2.133
		c0.838,0.839,1.856,0.551,2.133,0.45l3.988-3.988c0.116-0.117,0.28-0.167,0.444-0.138c0.162,0.03,0.299,0.138,0.366,0.288
		C24.794,11.07,25,12.027,25,13C25,16.86,21.859,20,18,20z M18,7c-3.309,0-6,2.691-6,6s2.691,6,6,6s6-2.691,6-6
		c0-0.588-0.089-1.17-0.265-1.738l-3.512,3.512c-0.041,0.042-0.09,0.075-0.143,0.1c-0.076,0.035-1.87,0.843-3.333-0.622
		c-1.465-1.464-0.657-3.257-0.622-3.333c0.024-0.054,0.059-0.102,0.101-0.144l3.523-3.506C19.178,7.09,18.592,7,18,7z M19.87,14.42
		h0.01H19.87z"/>
</g>
</svg>
