<?xml version="1.0" encoding="iso-8859-1"?>
<!-- Generator: Adobe Illustrator 22.1.0, SVG Export Plug-In . SVG Version: 6.00 Build 0)  -->
<svg version="1.1" id="Layer_1" xmlns="http://www.w3.org/2000/svg" xmlns:xlink="http://www.w3.org/1999/xlink" x="0px" y="0px"
	 viewBox="0 0 31 31" style="enable-background:new 0 0 31 31;" xml:space="preserve">
<circle style="fill:#FEFDEF;" cx="15.5" cy="15.5" r="14.5"/>
<g>
	<path style="fill:#1F212B;" d="M15.5,30.5c-8.271,0-15-6.729-15-15s6.729-15,15-15s15,6.729,15,15S23.771,30.5,15.5,30.5z
		 M15.5,1.5c-7.72,0-14,6.28-14,14s6.28,14,14,14s14-6.28,14-14S23.22,1.5,15.5,1.5z"/>
</g>
<g>
	<path style="fill:#1F212B;" d="M15.5,31C6.953,31,0,24.047,0,15.5S6.953,0,15.5,0S31,6.953,31,15.5S24.047,31,15.5,31z M15.5,2
		C8.056,2,2,8.056,2,15.5S8.056,29,15.5,29S29,22.944,29,15.5S22.944,2,15.5,2z"/>
</g>
<polyline style="fill:#F15B6C;" points="12.5,23.5 22.5,15.5 12.5,7.5 "/>
<g>
	<path style="fill:#1F212B;" d="M12.5,24c-0.073,0-0.147-0.017-0.217-0.05C12.11,23.867,12,23.692,12,23.5v-16
		c0-0.192,0.11-0.367,0.283-0.45c0.175-0.085,0.378-0.061,0.529,0.06l10,8C22.931,15.204,23,15.348,23,15.5
		s-0.069,0.296-0.188,0.391l-10,8C12.722,23.963,12.611,24,12.5,24z M13,8.54v13.92l8.699-6.96L13,8.54z"/>
</g>
</svg>
