<?xml version="1.0" encoding="iso-8859-1"?>
<!-- Generator: Adobe Illustrator 22.1.0, SVG Export Plug-In . SVG Version: 6.00 Build 0)  -->
<svg version="1.1" id="Layer_1" xmlns="http://www.w3.org/2000/svg" xmlns:xlink="http://www.w3.org/1999/xlink" x="0px" y="0px"
	 viewBox="0 0 31 31" style="enable-background:new 0 0 31 31;" xml:space="preserve">
<circle style="fill:#78CDD4;" cx="15.5" cy="15.5" r="14.5"/>
<g>
	<path style="fill:#1F212B;" d="M15.5,24c-0.276,0-0.5-0.224-0.5-0.5v-14C15,9.224,15.224,9,15.5,9S16,9.224,16,9.5v14
		C16,23.776,15.776,24,15.5,24z"/>
</g>
<g>
	<path style="fill:#1F212B;" d="M15.5,31C6.953,31,0,24.047,0,15.5S6.953,0,15.5,0S31,6.953,31,15.5S24.047,31,15.5,31z M15.5,2
		C8.056,2,2,8.056,2,15.5S8.056,29,15.5,29S29,22.944,29,15.5S22.944,2,15.5,2z"/>
</g>
<g>
	<path style="fill:#1F212B;" d="M20.5,14c-0.128,0-0.256-0.049-0.354-0.146L15.5,9.207l-4.646,4.646
		c-0.195,0.195-0.512,0.195-0.707,0s-0.195-0.512,0-0.707l5-5c0.195-0.195,0.512-0.195,0.707,0l5,5c0.195,0.195,0.195,0.512,0,0.707
		C20.756,13.951,20.628,14,20.5,14z"/>
</g>
</svg>
