<?xml version="1.0" encoding="iso-8859-1"?>
<!-- Generator: Adobe Illustrator 22.1.0, SVG Export Plug-In . SVG Version: 6.00 Build 0)  -->
<svg version="1.1" id="Layer_1" xmlns="http://www.w3.org/2000/svg" xmlns:xlink="http://www.w3.org/1999/xlink" x="0px" y="0px"
	 viewBox="0 0 31 31" style="enable-background:new 0 0 31 31;" xml:space="preserve">
<circle style="fill:#F4CCCB;" cx="15.5" cy="15.5" r="14.5"/>
<g>
	<path style="fill:#1F212B;" d="M15.5,31C6.953,31,0,24.047,0,15.5S6.953,0,15.5,0S31,6.953,31,15.5S24.047,31,15.5,31z M15.5,2
		C8.056,2,2,8.056,2,15.5S8.056,29,15.5,29S29,22.944,29,15.5S22.944,2,15.5,2z"/>
</g>
<g>
	<path style="fill:#1F212B;" d="M21.5,22c-0.276,0-0.5-0.224-0.5-0.5V15H8.5C8.224,15,8,14.776,8,14.5S8.224,14,8.5,14h13
		c0.276,0,0.5,0.224,0.5,0.5v7C22,21.776,21.776,22,21.5,22z"/>
</g>
<g>
	<path style="fill:#1F212B;" d="M11.5,19c-0.128,0-0.256-0.049-0.354-0.146l-4-4c-0.195-0.195-0.195-0.512,0-0.707l4-4
		c0.195-0.195,0.512-0.195,0.707,0s0.195,0.512,0,0.707L8.207,14.5l3.646,3.646c0.195,0.195,0.195,0.512,0,0.707
		C11.756,18.951,11.628,19,11.5,19z"/>
</g>
</svg>
