<?xml version="1.0" encoding="iso-8859-1"?>
<!-- Generator: Adobe Illustrator 22.1.0, SVG Export Plug-In . SVG Version: 6.00 Build 0)  -->
<svg version="1.1" id="Layer_1" xmlns="http://www.w3.org/2000/svg" xmlns:xlink="http://www.w3.org/1999/xlink" x="0px" y="0px"
	 viewBox="0 0 31 31" style="enable-background:new 0 0 31 31;" xml:space="preserve">
<circle style="fill:#78CDD4;" cx="15.5" cy="15.5" r="14.5"/>
<g>
	<path style="fill:#1F212B;" d="M15.5,25c-0.276,0-0.5-0.224-0.5-0.5v-18C15,6.224,15.224,6,15.5,6S16,6.224,16,6.5v18
		C16,24.776,15.776,25,15.5,25z"/>
</g>
<g>
	<path style="fill:#1F212B;" d="M15.5,31C6.953,31,0,24.047,0,15.5S6.953,0,15.5,0S31,6.953,31,15.5S24.047,31,15.5,31z M15.5,2
		C8.056,2,2,8.056,2,15.5S8.056,29,15.5,29S29,22.944,29,15.5S22.944,2,15.5,2z"/>
</g>
<g>
	<path style="fill:#1F212B;" d="M15.5,25c-0.128,0-0.256-0.049-0.354-0.146l-3-3c-0.195-0.195-0.195-0.512,0-0.707
		s0.512-0.195,0.707,0l2.646,2.646l2.646-2.646c0.195-0.195,0.512-0.195,0.707,0s0.195,0.512,0,0.707l-3,3
		C15.756,24.951,15.628,25,15.5,25z"/>
</g>
<g>
	<path style="fill:#1F212B;" d="M18.5,10c-0.128,0-0.256-0.049-0.354-0.146L15.5,7.207l-2.646,2.646
		c-0.195,0.195-0.512,0.195-0.707,0s-0.195-0.512,0-0.707l3-3c0.195-0.195,0.512-0.195,0.707,0l3,3c0.195,0.195,0.195,0.512,0,0.707
		C18.756,9.951,18.628,10,18.5,10z"/>
</g>
<g>
	<path style="fill:#1F212B;" d="M23.5,16h-17C6.224,16,6,15.776,6,15.5S6.224,15,6.5,15h17c0.276,0,0.5,0.224,0.5,0.5
		S23.776,16,23.5,16z"/>
</g>
<g>
	<path style="fill:#1F212B;" d="M21.5,19c-0.128,0-0.256-0.049-0.354-0.146c-0.195-0.195-0.195-0.512,0-0.707l2.646-2.646
		l-2.646-2.646c-0.195-0.195-0.195-0.512,0-0.707s0.512-0.195,0.707,0l3,3c0.195,0.195,0.195,0.512,0,0.707l-3,3
		C21.756,18.951,21.628,19,21.5,19z"/>
</g>
<g>
	<path style="fill:#1F212B;" d="M9.5,19c-0.128,0-0.256-0.049-0.354-0.146l-3-3c-0.195-0.195-0.195-0.512,0-0.707l3-3
		c0.195-0.195,0.512-0.195,0.707,0s0.195,0.512,0,0.707L7.207,15.5l2.646,2.646c0.195,0.195,0.195,0.512,0,0.707
		C9.756,18.951,9.628,19,9.5,19z"/>
</g>
</svg>
