<?xml version="1.0" encoding="iso-8859-1"?>
<!-- Generator: Adobe Illustrator 22.1.0, SVG Export Plug-In . SVG Version: 6.00 Build 0)  -->
<svg version="1.1" id="Layer_1" xmlns="http://www.w3.org/2000/svg" xmlns:xlink="http://www.w3.org/1999/xlink" x="0px" y="0px"
	 viewBox="0 0 31 31" style="enable-background:new 0 0 31 31;" xml:space="preserve">
<circle style="fill:#F9E65C;" cx="15.5" cy="15.5" r="14.5"/>
<g>
	<path style="fill:#1F212B;" d="M15.5,25C10.262,25,6,20.738,6,15.5S10.262,6,15.5,6s9.5,4.262,9.5,9.5
		c0,0.527-0.044,1.06-0.131,1.582c-0.046,0.272-0.311,0.458-0.575,0.411c-0.272-0.045-0.456-0.303-0.411-0.575
		C23.961,16.45,24,15.973,24,15.5c0-4.687-3.813-8.5-8.5-8.5S7,10.813,7,15.5s3.813,8.5,8.5,8.5c0.276,0,0.5,0.224,0.5,0.5
		S15.776,25,15.5,25z"/>
</g>
<g>
	<path style="fill:#1F212B;" d="M15.5,31C6.953,31,0,24.047,0,15.5S6.953,0,15.5,0S31,6.953,31,15.5S24.047,31,15.5,31z M15.5,2
		C8.056,2,2,8.056,2,15.5S8.056,29,15.5,29S29,22.944,29,15.5S22.944,2,15.5,2z"/>
</g>
<g>
	<path style="fill:#1F212B;" d="M24.5,18c-0.128,0-0.256-0.049-0.354-0.146l-2-2c-0.195-0.195-0.195-0.512,0-0.707
		s0.512-0.195,0.707,0l1.646,1.646l1.646-1.646c0.195-0.195,0.512-0.195,0.707,0s0.195,0.512,0,0.707l-2,2
		C24.756,17.951,24.628,18,24.5,18z"/>
</g>
</svg>
