<?xml version="1.0" encoding="iso-8859-1"?>
<!-- Generator: Adobe Illustrator 22.1.0, SVG Export Plug-In . SVG Version: 6.00 Build 0)  -->
<svg version="1.1" id="Layer_1" xmlns="http://www.w3.org/2000/svg" xmlns:xlink="http://www.w3.org/1999/xlink" x="0px" y="0px"
	 viewBox="0 0 31 31" style="enable-background:new 0 0 31 31;" xml:space="preserve">
<circle style="fill:#FEF6AA;" cx="15.5" cy="15.5" r="14.5"/>
<g>
	<path style="fill:#1F212B;" d="M15.5,31C6.953,31,0,24.047,0,15.5S6.953,0,15.5,0S31,6.953,31,15.5S24.047,31,15.5,31z M15.5,2
		C8.056,2,2,8.056,2,15.5S8.056,29,15.5,29S29,22.944,29,15.5S22.944,2,15.5,2z"/>
</g>
<g>
	<path style="fill:#1F212B;" d="M10.134,18.987v-6.974c0-1.599,0.399-2.769,1.199-3.509c0.799-0.74,1.873-1.111,3.223-1.111
		c1.334,0,2.409,0.371,3.223,1.111C18.593,9.245,19,10.415,19,12.013v6.974c0,1.6-0.407,2.77-1.222,3.51
		c-0.813,0.74-1.889,1.11-3.223,1.11c-1.35,0-2.424-0.37-3.223-1.11C10.533,21.756,10.134,20.586,10.134,18.987z M11.233,18.987
		c0,2.377,1.107,3.564,3.322,3.564c1.07,0,1.896-0.297,2.475-0.891c0.579-0.595,0.869-1.485,0.869-2.674v-6.974
		c0-1.188-0.29-2.079-0.869-2.673S15.626,8.45,14.556,8.45c-2.215,0-3.322,1.188-3.322,3.563V18.987z"/>
</g>
</svg>
