<?xml version="1.0" encoding="iso-8859-1"?>
<!-- Generator: Adobe Illustrator 22.1.0, SVG Export Plug-In . SVG Version: 6.00 Build 0)  -->
<svg version="1.1" id="Layer_1" xmlns="http://www.w3.org/2000/svg" xmlns:xlink="http://www.w3.org/1999/xlink" x="0px" y="0px"
	 viewBox="0 0 31 31" style="enable-background:new 0 0 31 31;" xml:space="preserve">
<circle style="fill:#FEF6AA;" cx="15.5" cy="15.5" r="14.5"/>
<g>
	<path style="fill:#1F212B;" d="M15.5,31C6.953,31,0,24.047,0,15.5S6.953,0,15.5,0S31,6.953,31,15.5S24.047,31,15.5,31z M15.5,2
		C8.056,2,2,8.056,2,15.5S8.056,29,15.5,29S29,22.944,29,15.5S22.944,2,15.5,2z"/>
</g>
<g>
	<path style="fill:#1F212B;" d="M13.096,11.026c0-0.161,0.089-0.352,0.265-0.572l1.628-2.684c0.132-0.234,0.308-0.352,0.528-0.352
		C15.839,7.418,16,7.572,16,7.88v15.136c0,0.323-0.184,0.484-0.55,0.484c-0.367,0-0.55-0.161-0.55-0.484V9.662l-0.924,1.584
		c-0.089,0.191-0.221,0.286-0.396,0.286c-0.132,0-0.246-0.051-0.341-0.154C13.144,11.275,13.096,11.158,13.096,11.026z"/>
</g>
</svg>
