<?xml version="1.0" encoding="iso-8859-1"?>
<!-- Generator: Adobe Illustrator 22.1.0, SVG Export Plug-In . SVG Version: 6.00 Build 0)  -->
<svg version="1.1" id="Layer_1" xmlns="http://www.w3.org/2000/svg" xmlns:xlink="http://www.w3.org/1999/xlink" x="0px" y="0px"
	 viewBox="0 0 31 31" style="enable-background:new 0 0 31 31;" xml:space="preserve">
<circle style="fill:#FEF6AA;" cx="15.5" cy="15.5" r="14.5"/>
<g>
	<path style="fill:#1F212B;" d="M15.5,31C6.953,31,0,24.047,0,15.5S6.953,0,15.5,0S31,6.953,31,15.5S24.047,31,15.5,31z M15.5,2
		C8.056,2,2,8.056,2,15.5S8.056,29,15.5,29S29,22.944,29,15.5S22.944,2,15.5,2z"/>
</g>
<g>
	<path style="fill:#1F212B;" d="M11,23.016v-2.134c0-0.571,0.187-1.133,0.561-1.683c0.374-0.551,0.84-1.037,1.397-1.463l1.804-1.364
		l1.804-1.386c0.543-0.44,1.001-0.953,1.375-1.541c0.374-0.586,0.562-1.194,0.562-1.825c0-0.836-0.279-1.569-0.836-2.2
		c-0.558-0.631-1.343-0.945-2.354-0.945c-0.851,0-1.536,0.238-2.057,0.715c-0.521,0.477-0.781,1.162-0.781,2.057
		c0,0.117-0.052,0.224-0.154,0.318c-0.103,0.096-0.249,0.144-0.439,0.144c-0.338,0-0.506-0.249-0.506-0.748
		c0-1.012,0.377-1.854,1.133-2.53c0.755-0.674,1.705-1.012,2.849-1.012c1.246,0,2.266,0.404,3.058,1.21
		c0.792,0.807,1.188,1.79,1.188,2.948c0,0.733-0.188,1.438-0.561,2.111c-0.374,0.676-0.837,1.247-1.387,1.717
		c-0.55,0.469-1.147,0.953-1.793,1.451l-1.804,1.299c-0.558,0.381-1.023,0.813-1.397,1.298c-0.374,0.483-0.561,0.96-0.561,1.43
		v1.562h7.26c0.117,0,0.22,0.053,0.309,0.154c0.088,0.104,0.132,0.229,0.132,0.375c0,0.131-0.048,0.252-0.144,0.362
		S19.462,23.5,19.359,23.5h-7.832c-0.132,0-0.253-0.044-0.363-0.132C11.055,23.279,11,23.162,11,23.016z"/>
</g>
</svg>
