<?xml version="1.0" encoding="iso-8859-1"?>
<!-- Generator: Adobe Illustrator 22.1.0, SVG Export Plug-In . SVG Version: 6.00 Build 0)  -->
<svg version="1.1" id="Layer_1" xmlns="http://www.w3.org/2000/svg" xmlns:xlink="http://www.w3.org/1999/xlink" x="0px" y="0px"
	 viewBox="0 0 31 31" style="enable-background:new 0 0 31 31;" xml:space="preserve">
<circle style="fill:#FEF6AA;" cx="15.5" cy="15.5" r="14.5"/>
<g>
	<path style="fill:#1F212B;" d="M15.5,31C6.953,31,0,24.047,0,15.5S6.953,0,15.5,0S31,6.953,31,15.5S24.047,31,15.5,31z M15.5,2
		C8.056,2,2,8.056,2,15.5S8.056,29,15.5,29S29,22.944,29,15.5S22.944,2,15.5,2z"/>
</g>
<g>
	<path style="fill:#1F212B;" d="M10.134,20.065c0-0.454,0.169-0.682,0.507-0.682c0.381,0,0.571,0.176,0.571,0.527
		c0,0.631,0.257,1.229,0.771,1.793c0.513,0.565,1.356,0.848,2.529,0.848c2.259,0,3.389-1.174,3.389-3.52v-0.418
		c0-1.027-0.294-1.805-0.88-2.332c-0.587-0.529-1.401-0.793-2.442-0.793c-0.323,0-0.484-0.168-0.484-0.506
		c0-0.337,0.154-0.506,0.462-0.506c0.998,0,1.738-0.227,2.223-0.68c0.483-0.453,0.726-1.22,0.726-2.301
		c0-1.023-0.23-1.787-0.692-2.291S15.627,8.45,14.645,8.45c-1.115,0-1.896,0.263-2.344,0.789c-0.447,0.525-0.671,1.117-0.671,1.775
		c0,0.408-0.184,0.613-0.55,0.613c-0.205,0-0.349-0.055-0.429-0.164c-0.081-0.109-0.121-0.304-0.121-0.581
		c0-0.339,0.059-0.685,0.176-1.038s0.319-0.725,0.605-1.115c0.285-0.391,0.722-0.711,1.309-0.961s1.283-0.375,2.09-0.375
		c2.581,0,3.872,1.287,3.872,3.861c0,1.887-0.608,3.129-1.826,3.729C18.252,15.614,19,16.824,19,18.614v0.418
		c0,1.568-0.407,2.725-1.221,3.465c-0.814,0.74-1.881,1.11-3.201,1.11c-1.394,0-2.482-0.362-3.267-1.089
		C10.526,21.792,10.134,20.975,10.134,20.065z"/>
</g>
</svg>
