<?xml version="1.0" encoding="iso-8859-1"?>
<!-- Generator: Adobe Illustrator 22.1.0, SVG Export Plug-In . SVG Version: 6.00 Build 0)  -->
<svg version="1.1" id="Layer_1" xmlns="http://www.w3.org/2000/svg" xmlns:xlink="http://www.w3.org/1999/xlink" x="0px" y="0px"
	 viewBox="0 0 31 31" style="enable-background:new 0 0 31 31;" xml:space="preserve">
<circle style="fill:#FEF6AA;" cx="15.5" cy="15.5" r="14.5"/>
<g>
	<path style="fill:#1F212B;" d="M15.5,31C6.953,31,0,24.047,0,15.5S6.953,0,15.5,0S31,6.953,31,15.5S24.047,31,15.5,31z M15.5,2
		C8.056,2,2,8.056,2,15.5S8.056,29,15.5,29S29,22.944,29,15.5S22.944,2,15.5,2z"/>
</g>
<g>
	<path style="fill:#1F212B;" d="M9.755,18.516c0-0.103,0.029-0.213,0.088-0.33L15.43,7.153c0.132-0.248,0.315-0.373,0.55-0.373
		c0.132,0,0.253,0.044,0.363,0.132c0.11,0.089,0.165,0.198,0.165,0.33c0,0.088-0.022,0.177-0.066,0.265l-5.279,10.428h4.729v-4.75
		c0-0.295,0.184-0.442,0.55-0.442s0.55,0.147,0.55,0.442v4.75h1.255c0.322,0,0.483,0.172,0.483,0.518
		c0,0.143-0.044,0.27-0.132,0.377s-0.205,0.161-0.352,0.161h-1.255v3.386c0,0.324-0.184,0.486-0.55,0.486s-0.55-0.162-0.55-0.486
		V18.99h-5.654C9.916,18.99,9.755,18.833,9.755,18.516z"/>
</g>
</svg>
