<?xml version="1.0" encoding="iso-8859-1"?>
<!-- Generator: Adobe Illustrator 22.1.0, SVG Export Plug-In . SVG Version: 6.00 Build 0)  -->
<svg version="1.1" id="Layer_1" xmlns="http://www.w3.org/2000/svg" xmlns:xlink="http://www.w3.org/1999/xlink" x="0px" y="0px"
	 viewBox="0 0 31 31" style="enable-background:new 0 0 31 31;" xml:space="preserve">
<circle style="fill:#FEF6AA;" cx="15.5" cy="15.5" r="14.5"/>
<g>
	<path style="fill:#1F212B;" d="M15.5,31C6.953,31,0,24.047,0,15.5S6.953,0,15.5,0S31,6.953,31,15.5S24.047,31,15.5,31z M15.5,2
		C8.056,2,2,8.056,2,15.5S8.056,29,15.5,29S29,22.944,29,15.5S22.944,2,15.5,2z"/>
</g>
<g>
	<path style="fill:#1F212B;" d="M10.134,19.826c0-0.382,0.176-0.571,0.528-0.571c0.381,0,0.571,0.16,0.571,0.483
		c0,0.836,0.315,1.496,0.946,1.979c0.631,0.484,1.423,0.727,2.376,0.727c1.07,0,1.896-0.293,2.475-0.881
		c0.579-0.586,0.869-1.473,0.869-2.661v-0.418c0-1.144-0.29-2.003-0.869-2.574s-1.396-0.858-2.453-0.858h-3.014
		c-0.426,0-0.638-0.146-0.638-0.439c0-0.029,0.003-0.096,0.011-0.198s0.011-0.169,0.011-0.198l0.434-6.445
		c0.028-0.322,0.166-0.484,0.412-0.484h5.997c0.278,0,0.418,0.176,0.418,0.527c0,0.353-0.14,0.529-0.418,0.529h-5.391l-0.381,5.697
		h2.568c1.332,0,2.4,0.359,3.205,1.078S19,16.959,19,18.484v0.418c0,1.584-0.407,2.747-1.222,3.487
		c-0.813,0.74-1.889,1.11-3.223,1.11c-1.35,0-2.424-0.353-3.223-1.056C10.533,21.74,10.134,20.868,10.134,19.826z"/>
</g>
</svg>
