<?xml version="1.0" encoding="iso-8859-1"?>
<!-- Generator: Adobe Illustrator 22.1.0, SVG Export Plug-In . SVG Version: 6.00 Build 0)  -->
<svg version="1.1" id="Layer_1" xmlns="http://www.w3.org/2000/svg" xmlns:xlink="http://www.w3.org/1999/xlink" x="0px" y="0px"
	 viewBox="0 0 31 31" style="enable-background:new 0 0 31 31;" xml:space="preserve">
<circle style="fill:#FEF6AA;" cx="15.5" cy="15.5" r="14.5"/>
<g>
	<path style="fill:#1F212B;" d="M15.5,31C6.953,31,0,24.047,0,15.5S6.953,0,15.5,0S31,6.953,31,15.5S24.047,31,15.5,31z M15.5,2
		C8.056,2,2,8.056,2,15.5S8.056,29,15.5,29S29,22.944,29,15.5S22.944,2,15.5,2z"/>
</g>
<g>
	<path style="fill:#1F212B;" d="M10.134,18.88v-6.974c0-1.599,0.403-2.769,1.212-3.509c0.808-0.74,1.889-1.111,3.243-1.111
		c1.354,0,2.427,0.359,3.221,1.078C18.603,9.083,19,9.956,19,10.981c0,0.367-0.169,0.551-0.507,0.551
		c-0.396,0-0.594-0.168-0.594-0.506c0-0.792-0.32-1.438-0.96-1.936c-0.64-0.499-1.431-0.748-2.373-0.748
		c-2.222,0-3.333,1.188-3.333,3.562v3.607c0.721-1.041,1.861-1.561,3.422-1.561c2.896,0,4.345,1.452,4.345,4.355v0.572
		c0,1.6-0.401,2.77-1.202,3.51c-0.802,0.74-1.879,1.11-3.231,1.11c-1.332,0-2.403-0.37-3.215-1.11
		C10.539,21.649,10.134,20.479,10.134,18.88z M11.233,18.913c0,2.354,1.111,3.531,3.333,3.531s3.333-1.178,3.333-3.531V18.32
		c0-1.185-0.283-2.04-0.85-2.566s-1.395-0.79-2.483-0.79c-2.222,0-3.333,1.053-3.333,3.159V18.913z"/>
</g>
</svg>
