<?xml version="1.0" encoding="iso-8859-1"?>
<!-- Generator: Adobe Illustrator 22.1.0, SVG Export Plug-In . SVG Version: 6.00 Build 0)  -->
<svg version="1.1" id="Layer_1" xmlns="http://www.w3.org/2000/svg" xmlns:xlink="http://www.w3.org/1999/xlink" x="0px" y="0px"
	 viewBox="0 0 31 31" style="enable-background:new 0 0 31 31;" xml:space="preserve">
<circle style="fill:#FEF6AA;" cx="15.5" cy="15.5" r="14.5"/>
<g>
	<path style="fill:#1F212B;" d="M15.5,31C6.953,31,0,24.047,0,15.5S6.953,0,15.5,0S31,6.953,31,15.5S24.047,31,15.5,31z M15.5,2
		C8.056,2,2,8.056,2,15.5S8.056,29,15.5,29S29,22.944,29,15.5S22.944,2,15.5,2z"/>
</g>
<g>
	<path style="fill:#1F212B;" d="M10.134,11.762V8.484c0-0.117,0.055-0.228,0.165-0.33C10.408,8.052,10.529,8,10.662,8h7.81
		c0.117,0,0.234,0.052,0.352,0.154S19,8.367,19,8.484V10.2c0,0.132-0.045,0.264-0.133,0.396L12.069,23.84
		c-0.1,0.176-0.229,0.264-0.386,0.264c-0.173,0-0.324-0.047-0.453-0.143c-0.13-0.096-0.195-0.217-0.195-0.363
		c0-0.043,0.029-0.139,0.089-0.285l6.775-13.135V9.057h-6.666v2.705c0,0.133-0.055,0.246-0.165,0.342
		c-0.109,0.096-0.238,0.143-0.385,0.143s-0.275-0.047-0.385-0.143C10.188,12.008,10.134,11.895,10.134,11.762z"/>
</g>
</svg>
