<?xml version="1.0" encoding="iso-8859-1"?>
<!-- Generator: Adobe Illustrator 22.1.0, SVG Export Plug-In . SVG Version: 6.00 Build 0)  -->
<svg version="1.1" id="Layer_1" xmlns="http://www.w3.org/2000/svg" xmlns:xlink="http://www.w3.org/1999/xlink" x="0px" y="0px"
	 viewBox="0 0 31 31" style="enable-background:new 0 0 31 31;" xml:space="preserve">
<circle style="fill:#FEF6AA;" cx="15.5" cy="15.5" r="14.5"/>
<g>
	<path style="fill:#1F212B;" d="M15.5,31C6.953,31,0,24.047,0,15.5S6.953,0,15.5,0S31,6.953,31,15.5S24.047,31,15.5,31z M15.5,2
		C8.056,2,2,8.056,2,15.5S8.056,29,15.5,29S29,22.944,29,15.5S22.944,2,15.5,2z"/>
</g>
<g>
	<path style="fill:#1F212B;" d="M10.155,18.962v-0.264c0-2.1,0.777-3.466,2.332-4.098c-1.275-0.557-1.914-1.723-1.914-3.497
		c0-2.545,1.335-3.817,4.004-3.817c2.685,0,4.026,1.272,4.026,3.817c0,1.774-0.638,2.94-1.914,3.497
		C18.229,15.232,19,16.599,19,18.698v0.264c0,1.557-0.4,2.703-1.199,3.438c-0.8,0.733-1.874,1.101-3.224,1.101
		c-1.334,0-2.405-0.367-3.212-1.101C10.559,21.665,10.155,20.519,10.155,18.962z M11.256,18.925c0,1.188,0.293,2.078,0.88,2.672
		c0.586,0.595,1.408,0.892,2.464,0.892s1.87-0.301,2.442-0.902c0.571-0.601,0.857-1.488,0.857-2.661v-0.287
		c0-2.332-1.107-3.498-3.322-3.498s-3.321,1.166-3.321,3.498V18.925z M11.674,11.169c0,1.943,0.968,2.915,2.903,2.915
		c1.951,0,2.927-0.972,2.927-2.915c0-1.914-0.976-2.871-2.927-2.871C12.642,8.298,11.674,9.255,11.674,11.169z"/>
</g>
</svg>
