<?xml version="1.0" encoding="iso-8859-1"?>
<!-- Generator: Adobe Illustrator 22.1.0, SVG Export Plug-In . SVG Version: 6.00 Build 0)  -->
<svg version="1.1" id="Layer_1" xmlns="http://www.w3.org/2000/svg" xmlns:xlink="http://www.w3.org/1999/xlink" x="0px" y="0px"
	 viewBox="0 0 31 31" style="enable-background:new 0 0 31 31;" xml:space="preserve">
<circle style="fill:#FEF6AA;" cx="15.5" cy="15.5" r="14.5"/>
<g>
	<path style="fill:#1F212B;" d="M15.5,31C6.953,31,0,24.047,0,15.5S6.953,0,15.5,0S31,6.953,31,15.5S24.047,31,15.5,31z M15.5,2
		C8.056,2,2,8.056,2,15.5S8.056,29,15.5,29S29,22.944,29,15.5S22.944,2,15.5,2z"/>
</g>
<g>
	<path style="fill:#1F212B;" d="M10.155,19.804c0-0.366,0.169-0.549,0.506-0.549c0.382,0,0.572,0.168,0.572,0.506
		c0,0.791,0.322,1.438,0.968,1.936s1.438,0.748,2.376,0.748c2.215,0,3.322-1.188,3.322-3.563v-3.606
		c-0.719,1.039-1.862,1.56-3.432,1.56c-2.875,0-4.312-1.452-4.312-4.356v-0.571c0-1.599,0.399-2.769,1.199-3.509
		c0.799-0.74,1.866-1.111,3.201-1.111c1.349,0,2.427,0.371,3.234,1.111c0.806,0.74,1.21,1.91,1.21,3.509v6.974
		c0,1.6-0.404,2.77-1.21,3.51c-0.808,0.74-1.886,1.11-3.234,1.11c-1.35,0-2.42-0.358-3.212-1.077S10.155,20.831,10.155,19.804z
		 M11.256,12.466c0,1.186,0.282,2.041,0.847,2.566c0.564,0.527,1.39,0.79,2.475,0.79c2.215,0,3.322-1.054,3.322-3.159v-0.789
		c0-1.185-0.29-2.069-0.869-2.654s-1.404-0.877-2.475-0.877c-1.056,0-1.87,0.292-2.442,0.877c-0.571,0.585-0.857,1.47-0.857,2.654
		V12.466z"/>
</g>
</svg>
