<?xml version="1.0" encoding="iso-8859-1"?>
<!-- Generator: Adobe Illustrator 22.0.1, SVG Export Plug-In . SVG Version: 6.00 Build 0)  -->
<svg version="1.1" id="Layer_1" xmlns="http://www.w3.org/2000/svg" xmlns:xlink="http://www.w3.org/1999/xlink" x="0px" y="0px"
	 viewBox="0 0 32 32" style="enable-background:new 0 0 32 32;" xml:space="preserve">
<path d="M27,9h-4V5c0-2.757-2.243-5-5-5h-4c-2.757,0-5,2.243-5,5v4H5c-2.757,0-5,2.243-5,5v4c0,2.757,2.243,5,5,5h4v4
	c0,2.757,2.243,5,5,5h4c2.757,0,5-2.243,5-5v-4h4c2.757,0,5-2.243,5-5v-4C32,11.243,29.757,9,27,9z"/>
</svg>
