<?xml version="1.0" encoding="iso-8859-1"?>
<!-- Generator: Adobe Illustrator 22.0.1, SVG Export Plug-In . SVG Version: 6.00 Build 0)  -->
<svg version="1.1" id="Layer_1" xmlns="http://www.w3.org/2000/svg" xmlns:xlink="http://www.w3.org/1999/xlink" x="0px" y="0px"
	 viewBox="0 0 32 32" style="enable-background:new 0 0 32 32;" xml:space="preserve">
<path d="M25.276,16l5.242-5.242C31.474,9.803,32,8.533,32,7.181c0-1.352-0.526-2.623-1.482-3.578l-2.12-2.12
	c-0.923-0.923-2.227-1.453-3.578-1.453c-1.351,0-2.655,0.53-3.578,1.453L16,6.724l-5.242-5.242C9.836,0.559,8.531,0.029,7.181,0.029
	c-1.351,0-2.655,0.53-3.578,1.454l-2.12,2.12C0.526,4.557,0,5.828,0,7.181c0,1.352,0.526,2.623,1.482,3.578L6.724,16l-5.242,5.242
	C0.526,22.197,0,23.467,0,24.819c0,1.352,0.526,2.623,1.482,3.578l2.12,2.12c0.923,0.923,2.227,1.453,3.578,1.453
	c1.351,0,2.655-0.53,3.578-1.455L16,25.276l5.242,5.242C22.197,31.474,23.467,32,24.819,32c1.352,0,2.623-0.526,3.578-1.482
	l2.12-2.121C31.474,27.443,32,26.172,32,24.819c0-1.352-0.526-2.623-1.482-3.578L25.276,16z"/>
</svg>
