<?xml version="1.0" encoding="iso-8859-1"?>
<!-- Generator: Adobe Illustrator 22.0.1, SVG Export Plug-In . SVG Version: 6.00 Build 0)  -->
<svg version="1.1" id="Layer_1" xmlns="http://www.w3.org/2000/svg" xmlns:xlink="http://www.w3.org/1999/xlink" x="0px" y="0px"
	 viewBox="0 0 36 36" style="enable-background:new 0 0 36 36;" xml:space="preserve">
<path d="M34.007,23.677L15.014,4.683c-0.294-0.295-0.645-0.525-1.04-0.677L4.077,0.2C3.725,0.066,3.367,0.001,3.001,0.001
	c-0.799,0-1.551,0.31-2.118,0.873C0.042,1.716-0.225,2.971,0.199,4.076l3.805,9.893c0.154,0.398,0.382,0.748,0.679,1.044
	l18.993,18.994C24.963,35.292,26.671,36,28.488,36c1.818,0,3.527-0.708,4.812-1.993l0.707-0.707
	C36.66,30.647,36.66,26.33,34.007,23.677z"/>
</svg>
