<?xml version="1.0" encoding="iso-8859-1"?>
<!-- Generator: Adobe Illustrator 22.0.1, SVG Export Plug-In . SVG Version: 6.00 Build 0)  -->
<svg version="1.1" id="Layer_1" xmlns="http://www.w3.org/2000/svg" xmlns:xlink="http://www.w3.org/1999/xlink" x="0px" y="0px"
	 viewBox="0 0 36 35" style="enable-background:new 0 0 36 35;" xml:space="preserve">
<path d="M35.853,12.971c-0.366-1.125-1.362-1.932-2.537-2.056l-8.922-0.943L20.74,1.778C20.26,0.699,19.184,0,18,0
	s-2.26,0.699-2.741,1.78l-3.653,8.191l-8.922,0.943c-1.176,0.124-2.172,0.931-2.538,2.056c-0.366,1.125-0.034,2.363,0.844,3.155
	l6.664,6.007l-1.86,8.776c-0.246,1.157,0.214,2.354,1.172,3.05c0.515,0.375,1.126,0.573,1.764,0.573c0.528,0,1.048-0.14,1.505-0.406
	L18,29.649l7.773,4.481c0.452,0.262,0.971,0.401,1.498,0.401c0.636,0,1.244-0.197,1.76-0.57c0.961-0.698,1.421-1.895,1.175-3.053
	l-1.86-8.775l6.664-6.007C35.888,15.334,36.219,14.095,35.853,12.971z"/>
</svg>
