<?xml version="1.0" encoding="iso-8859-1"?>
<!-- Generator: Adobe Illustrator 22.0.1, SVG Export Plug-In . SVG Version: 6.00 Build 0)  -->
<svg version="1.1" id="Layer_1" xmlns="http://www.w3.org/2000/svg" xmlns:xlink="http://www.w3.org/1999/xlink" x="0px" y="0px"
	 viewBox="0 0 36 33" style="enable-background:new 0 0 36 33;" xml:space="preserve">
<path d="M24.667,0C22.229,0,19.919,0.759,18,2.168C16.081,0.759,13.771,0,11.333,0C5.084,0,0,5.084,0,11.333
	c0,6.503,4.586,10.185,9.442,14.083c2.141,1.718,4.352,3.493,6.373,5.64l0.729,0.774c0.378,0.401,0.905,0.629,1.456,0.629
	c0.551,0,1.078-0.227,1.456-0.629l0.729-0.773c2.021-2.148,4.233-3.922,6.371-5.639C31.414,21.518,36,17.837,36,11.333
	C36,5.084,30.916,0,24.667,0z"/>
</svg>
