<?xml version="1.0" encoding="iso-8859-1"?>
<!-- Generator: Adobe Illustrator 22.0.1, SVG Export Plug-In . SVG Version: 6.00 Build 0)  -->
<svg version="1.1" id="Layer_1" xmlns="http://www.w3.org/2000/svg" xmlns:xlink="http://www.w3.org/1999/xlink" x="0px" y="0px"
	 viewBox="0 0 26 43" style="enable-background:new 0 0 26 43;" xml:space="preserve">
<path d="M13,0C5.832,0,0,5.832,0,13c0,4.486,2.27,8.577,6,10.953v13.461c0,0.53,0.211,1.039,0.586,1.414l3.586,3.586
	C10.547,42.789,11.056,43,11.586,43h2.828c0.53,0,1.039-0.211,1.414-0.586l3.586-3.586C19.789,38.453,20,37.944,20,37.414v-2.828
	c0-0.53-0.211-1.039-0.586-1.414L19.242,33l0.172-0.172C19.789,32.453,20,31.944,20,31.414v-2.828c0-0.53-0.211-1.039-0.586-1.414
	L19.242,27l0.172-0.172C19.789,26.453,20,25.944,20,25.414v-1.461c3.73-2.375,6-6.467,6-10.953C26,5.832,20.168,0,13,0z"/>
</svg>
