<?xml version="1.0" encoding="iso-8859-1"?>
<!-- Generator: Adobe Illustrator 22.0.1, SVG Export Plug-In . SVG Version: 6.00 Build 0)  -->
<svg version="1.1" id="Layer_1" xmlns="http://www.w3.org/2000/svg" xmlns:xlink="http://www.w3.org/1999/xlink" x="0px" y="0px"
	 viewBox="0 0 36 36" style="enable-background:new 0 0 36 36;" xml:space="preserve">
<path d="M33.364,2.657C31.666,0.959,29.406,0.024,27,0.024c-2.406,0-4.667,0.935-6.364,2.634l-2.999,2.999
	c-2.435,2.435-3.263,6.115-2.108,9.376c0.101,0.285,0.264,0.539,0.471,0.747l-0.255,0.255c-0.212-0.212-0.471-0.376-0.763-0.477
	c-0.864-0.297-1.764-0.462-2.675-0.488c-0.086-0.002-0.167-0.003-0.247-0.003c-2.316,0-4.514,0.871-6.191,2.452l-3.086,2.911
	c-1.749,1.649-2.751,3.881-2.821,6.285c-0.07,2.402,0.799,4.689,2.449,6.438c1.649,1.749,3.881,2.751,6.285,2.821
	c0.081,0.003,0.174,0.004,0.267,0.004c2.302,0,4.493-0.871,6.17-2.453l3.086-2.911c1.749-1.649,2.751-3.881,2.821-6.285
	c0.034-1.152-0.151-2.286-0.549-3.368c-0.102-0.276-0.261-0.522-0.463-0.724l0.214-0.214c0.208,0.208,0.461,0.37,0.747,0.471
	c0.984,0.348,1.997,0.525,3.011,0.525c2.407,0,4.667-0.935,6.365-2.633l2.999-2.999c1.698-1.698,2.633-3.958,2.633-6.364
	C35.997,6.614,35.062,4.354,33.364,2.657z"/>
</svg>
