<?xml version="1.0" encoding="iso-8859-1"?>
<!-- Generator: Adobe Illustrator 22.0.1, SVG Export Plug-In . SVG Version: 6.00 Build 0)  -->
<svg version="1.1" id="Layer_1" xmlns="http://www.w3.org/2000/svg" xmlns:xlink="http://www.w3.org/1999/xlink" x="0px" y="0px"
	 viewBox="0 0 34 36" style="enable-background:new 0 0 34 36;" xml:space="preserve">
<path d="M31,2.951c-7.109,0-12.63-2.621-12.685-2.647C17.91,0.106,17.454,0,16.999,0c-0.457,0-0.914,0.106-1.324,0.308
	C15.626,0.332,10.134,2.951,3,2.951c-1.654,0-3,1.346-3,3c0,24.537,15.438,29.702,16.096,29.91C16.393,35.954,16.695,36,17,36
	s0.607-0.046,0.899-0.138C18.562,35.653,34,30.488,34,5.951C34,4.296,32.654,2.951,31,2.951z"/>
</svg>
