<?xml version="1.0" encoding="iso-8859-1"?>
<!-- Generator: Adobe Illustrator 22.0.1, SVG Export Plug-In . SVG Version: 6.00 Build 0)  -->
<svg version="1.1" id="Layer_1" xmlns="http://www.w3.org/2000/svg" xmlns:xlink="http://www.w3.org/1999/xlink" x="0px" y="0px"
	 viewBox="0 0 39 37" style="enable-background:new 0 0 39 37;" xml:space="preserve">
<path d="M34.544,20.051C34.695,20.017,34.849,20,35.001,20c0.135,0,0.271,0.014,0.404,0.041l1.197,0.243
	c0.132,0.027,0.265,0.04,0.398,0.04c0.457,0,0.906-0.157,1.266-0.452C38.731,19.492,39,18.924,39,18.324V13c0-3.308-2.692-6-6-6
	h-2.062C30.444,3.059,27.073,0,23,0s-7.444,3.059-7.938,7H13c-3.308,0-6,2.692-6,6v1.062C3.059,14.556,0,17.927,0,22
	s3.059,7.444,7,7.938V31c0,3.308,2.692,6,6,6h5.324c0.6,0,1.169-0.27,1.548-0.734c0.38-0.465,0.531-1.075,0.412-1.663l-0.243-1.199
	c-0.057-0.282-0.054-0.572,0.011-0.861c0.167-0.749,0.801-1.368,1.541-1.505c0.138-0.025,0.277-0.038,0.412-0.038
	c0.476,0,0.904,0.156,1.273,0.462C23.737,31.843,24,32.404,24,33c0,0.134-0.014,0.271-0.041,0.407l-0.242,1.196
	c-0.119,0.588,0.032,1.199,0.412,1.663C24.508,36.731,25.077,37,25.677,37H33c3.308,0,6-2.692,6-6v-5.323
	c0-0.6-0.269-1.168-0.734-1.548c-0.36-0.295-0.809-0.452-1.266-0.452c-0.132,0-0.265,0.013-0.397,0.04l-1.198,0.243
	c-0.125,0.025-0.258,0.038-0.391,0.038c-0.597,0-1.177-0.269-1.553-0.72c-0.393-0.472-0.539-1.055-0.423-1.685
	C33.174,20.852,33.793,20.219,34.544,20.051z"/>
</svg>
