<?xml version="1.0" encoding="iso-8859-1"?>
<!-- Generator: Adobe Illustrator 22.0.1, SVG Export Plug-In . SVG Version: 6.00 Build 0)  -->
<svg version="1.1" id="Layer_1" xmlns="http://www.w3.org/2000/svg" xmlns:xlink="http://www.w3.org/1999/xlink" x="0px" y="0px"
	 viewBox="0 0 38 38" style="enable-background:new 0 0 38 38;" xml:space="preserve">
<path d="M36.846,29.789l-6.635-6.636c-0.724-0.722-1.739-1.135-2.786-1.135c-0.35,0-0.697,0.046-1.03,0.135l-0.612-0.612
	C27.222,19.298,28,16.678,28,14c0-7.72-6.28-14-14-14C6.28,0,0,6.28,0,14c0,7.72,6.28,14,14,14c2.679,0,5.298-0.778,7.541-2.216
	l0.598,0.598C22.048,26.718,22,27.068,22,27.426c0,1.053,0.41,2.042,1.153,2.785l6.635,6.636C30.535,37.591,31.524,38,32.574,38
	c1.054,0,2.043-0.41,2.786-1.156l1.486-1.486C37.59,34.616,38,33.627,38,32.574C38,31.521,37.59,30.532,36.846,29.789z"/>
</svg>
