<?xml version="1.0" encoding="iso-8859-1"?>
<!-- Generator: Adobe Illustrator 22.0.1, SVG Export Plug-In . SVG Version: 6.00 Build 0)  -->
<svg version="1.1" id="Layer_1" xmlns="http://www.w3.org/2000/svg" xmlns:xlink="http://www.w3.org/1999/xlink" x="0px" y="0px"
	 viewBox="0 0 39 39" style="enable-background:new 0 0 39 39;" xml:space="preserve">
<path d="M38.259,8.619l-0.517-1.523c-0.222-0.655-1.374-2.745-2.234-3.605c-0.86-0.86-2.949-2.011-3.604-2.233l-1.523-0.517
	c-1.444-0.491-2.976-0.74-4.55-0.74c-3.963,0-7.808,1.572-10.55,4.314c-3.063,3.063-3.99,7.019-2.636,11.023L2.282,25.701
	C0.811,27.172,0,29.128,0,31.209c0,2.081,0.811,4.038,2.282,5.509C3.754,38.19,5.71,39,7.791,39c2.082,0,4.038-0.811,5.509-2.283
	L23.647,26.37c0.559,0.195,1.111,0.345,1.65,0.446c0.639,0.121,1.286,0.182,1.92,0.182c2.741,0,5.323-1.134,7.468-3.28
	C38.569,19.835,40.005,13.767,38.259,8.619z"/>
</svg>
