<?xml version="1.0" encoding="iso-8859-1"?>
<!-- Generator: Adobe Illustrator 22.0.1, SVG Export Plug-In . SVG Version: 6.00 Build 0)  -->
<svg version="1.1" id="Layer_1" xmlns="http://www.w3.org/2000/svg" xmlns:xlink="http://www.w3.org/1999/xlink" x="0px" y="0px"
	 viewBox="0 0 36 38" style="enable-background:new 0 0 36 38;" xml:space="preserve">
<path d="M33.74,21.839C33.913,20.894,34,19.943,34,19c0-0.943-0.087-1.894-0.26-2.839l1.794-2.28
	c0.506-0.643,0.569-1.529,0.16-2.237l-2.479-4.29c-0.361-0.624-1.024-0.999-1.731-0.999c-0.095,0-0.19,0.007-0.286,0.02
	l-2.873,0.414c-1.452-1.225-3.123-2.189-4.912-2.833l-1.08-2.7C22.03,0.498,21.294,0,20.477,0h-4.953
	c-0.818,0-1.553,0.498-1.857,1.257l-1.08,2.7C10.797,4.6,9.127,5.564,7.674,6.789L4.802,6.375c-0.095-0.014-0.191-0.02-0.286-0.02
	c-0.707,0-1.37,0.375-1.731,0.999l-2.479,4.29c-0.409,0.708-0.346,1.594,0.16,2.237l1.794,2.28C2.087,17.106,2,18.057,2,19
	c0,0.943,0.087,1.894,0.26,2.839l-1.794,2.28c-0.506,0.643-0.569,1.529-0.16,2.237l2.479,4.29c0.361,0.624,1.024,1,1.731,1
	c0.095,0,0.19-0.007,0.286-0.021l2.873-0.414c1.452,1.225,3.123,2.189,4.912,2.832l1.08,2.7C13.97,37.502,14.706,38,15.523,38h4.953
	c0.818,0,1.553-0.498,1.857-1.257l1.08-2.7c1.789-0.644,3.46-1.607,4.912-2.832l2.873,0.414c0.096,0.014,0.191,0.021,0.286,0.021
	c0.707,0,1.37-0.375,1.731-1l2.479-4.29c0.409-0.708,0.346-1.594-0.16-2.237L33.74,21.839z"/>
</svg>
