<?xml version="1.0" encoding="iso-8859-1"?>
<!-- Generator: Adobe Illustrator 22.0.1, SVG Export Plug-In . SVG Version: 6.00 Build 0)  -->
<svg version="1.1" id="Layer_1" xmlns="http://www.w3.org/2000/svg" xmlns:xlink="http://www.w3.org/1999/xlink" x="0px" y="0px"
	 viewBox="0 0 32 32" style="enable-background:new 0 0 32 32;" xml:space="preserve">
<path d="M29.657,21.073l-1.352-10.817c-0.176-1.402-0.817-2.66-1.827-3.609c-1.185-3.681-4.265-6.49-8.016-7.359
	C17.92-1.49,17.018-2,16-2s-1.92,0.51-2.462,1.288C9.787,0.157,6.706,2.966,5.521,6.647c-1.01,0.949-1.651,2.206-1.827,3.608
	L2.343,21.073C1.004,21.373,0,22.572,0,24v3c0,1.654,1.346,3,3,3h7.343c0.825,2.328,3.05,4,5.657,4c2.608,0,4.832-1.672,5.657-4H29
	c1.654,0,3-1.346,3-3v-3C32,22.572,30.996,21.373,29.657,21.073z"/>
</svg>
