<?xml version="1.0" encoding="iso-8859-1"?>
<!-- Generator: Adobe Illustrator 22.0.1, SVG Export Plug-In . SVG Version: 6.00 Build 0)  -->
<svg version="1.1" id="Layer_1" xmlns="http://www.w3.org/2000/svg" xmlns:xlink="http://www.w3.org/1999/xlink" x="0px" y="0px"
	 viewBox="0 0 42 21" style="enable-background:new 0 0 42 21;" xml:space="preserve">
<path d="M41.801,2.196c-0.226-0.769-0.738-1.403-1.442-1.787c-0.436-0.239-0.933-0.367-1.435-0.367h0
	c-1.099,0-2.108,0.599-2.635,1.563c-0.049,0.087-5.379,9.437-15.367,9.437c-9.954,0-15.322-9.357-15.375-9.452
	c-0.52-0.95-1.529-1.547-2.626-1.547c-0.499,0-0.995,0.126-1.435,0.366C0.033,1.205-0.502,3.031,0.29,4.481
	c0.123,0.225,1.087,1.947,2.902,4.036L2.387,9.483c-0.513,0.616-0.755,1.395-0.682,2.192c0.073,0.799,0.453,1.521,1.07,2.033
	c0.534,0.446,1.216,0.693,1.917,0.693c0.873,0,1.694-0.375,2.264-1.03l-0.021,0.04c-0.784,1.456-0.236,3.279,1.221,4.063
	c0.434,0.234,0.926,0.358,1.42,0.358c1.107,0,2.119-0.605,2.643-1.579l0.439-0.817c0.007,0.003,0.014,0.006,0.021,0.008
	l-0.235,1.173c-0.325,1.621,0.731,3.205,2.352,3.53c0.197,0.039,0.394,0.059,0.59,0.059c1.097,0,2.083-0.601,2.605-1.516
	c0.297,1.344,1.498,2.353,2.93,2.353c1.432,0,2.634-1.009,2.93-2.354c0.522,0.915,1.508,1.517,2.606,1.517
	c0.196,0,0.393-0.019,0.587-0.058c1.625-0.326,2.681-1.909,2.356-3.531l-0.235-1.173c0.007-0.003,0.013-0.005,0.02-0.008
	l0.439,0.817c0.525,0.975,1.538,1.579,2.643,1.579c0.495,0,0.986-0.124,1.422-0.359c1.455-0.783,2.003-2.606,1.22-4.062l-0.021-0.04
	c0.568,0.655,1.39,1.03,2.264,1.03c0.701,0,1.383-0.247,1.921-0.696c0.613-0.509,0.993-1.231,1.066-2.03
	c0.073-0.798-0.169-1.576-0.682-2.193l-0.804-0.966c1.815-2.089,2.779-3.811,2.902-4.036C41.94,3.776,42.027,2.965,41.801,2.196z"/>
</svg>
