<?xml version="1.0" encoding="iso-8859-1"?>
<!-- Generator: Adobe Illustrator 22.0.1, SVG Export Plug-In . SVG Version: 6.00 Build 0)  -->
<svg version="1.1" id="Layer_1" xmlns="http://www.w3.org/2000/svg" xmlns:xlink="http://www.w3.org/1999/xlink" x="0px" y="0px"
	 viewBox="0 0 28 39" style="enable-background:new 0 0 28 39;" xml:space="preserve">
<path d="M26,33.171V33v-5c0-3.199-1.315-6.27-3.547-8.5C24.685,17.27,26,14.199,26,11V6V5.829C27.164,5.416,28,4.304,28,3
	c0-1.654-1.346-3-3-3H3C1.346,0,0,1.346,0,3c0,1.304,0.836,2.416,2,2.829V6v5c0,3.199,1.315,6.27,3.547,8.5
	C3.315,21.73,2,24.801,2,28v5v0.171C0.836,33.584,0,34.696,0,36c0,1.654,1.346,3,3,3h22c1.654,0,3-1.346,3-3
	C28,34.696,27.164,33.584,26,33.171z"/>
</svg>
