<?xml version="1.0" encoding="iso-8859-1"?>
<!-- Generator: Adobe Illustrator 22.0.1, SVG Export Plug-In . SVG Version: 6.00 Build 0)  -->
<svg version="1.1" id="Layer_1" xmlns="http://www.w3.org/2000/svg" xmlns:xlink="http://www.w3.org/1999/xlink" x="0px" y="0px"
	 viewBox="0 0 36 36" style="enable-background:new 0 0 36 36;" xml:space="preserve">
<path d="M35.919,12.433c-0.018-0.505-0.227-0.984-0.584-1.341L25.201,0.958c-0.031-0.031-0.063-0.061-0.097-0.091l-0.373-0.326
	c-0.365-0.32-0.834-0.495-1.317-0.495c-0.024,0-0.049,0-0.073,0.001l-0.908,0.033c-0.505,0.018-0.984,0.227-1.341,0.584
	l-1.488,1.488C18.577,3.181,18.011,4.547,18.011,6c0,0.602,0.099,1.194,0.29,1.754l-3.273,2.649
	c-0.64-0.256-1.328-0.391-2.028-0.391c-1.116,0-2.18,0.333-3.078,0.951C9.617,10.908,9.308,10.88,9,10.88
	c-1.369,0-2.655,0.532-3.621,1.499C4.412,13.345,3.88,14.631,3.88,16s0.532,2.655,1.499,3.622L8.758,23l-7.879,7.879
	c-1.17,1.17-1.17,3.073,0,4.242C1.445,35.688,2.199,36,3,36s1.555-0.312,2.121-0.879L13,27.242l3.379,3.379
	c0.966,0.966,2.252,1.498,3.621,1.498s2.655-0.532,3.621-1.498c1.212-1.212,1.716-2.92,1.416-4.549
	c1.023-1.502,1.218-3.432,0.558-5.098l2.662-3.288c0.551,0.18,1.136,0.274,1.734,0.274c1.456,0,2.861-0.57,3.856-1.565l1.195-1.195
	c0.031-0.031,0.062-0.064,0.091-0.097l0.326-0.373c0.336-0.384,0.513-0.881,0.494-1.391L35.919,12.433z"/>
</svg>
