<?xml version="1.0" encoding="iso-8859-1"?>
<!-- Generator: Adobe Illustrator 22.0.1, SVG Export Plug-In . SVG Version: 6.00 Build 0)  -->
<svg version="1.1" id="Layer_1" xmlns="http://www.w3.org/2000/svg" xmlns:xlink="http://www.w3.org/1999/xlink" x="0px" y="0px"
	 viewBox="0 0 36 34" style="enable-background:new 0 0 36 34;" xml:space="preserve">
<path d="M35.121,26.879L25.242,17l9.879-9.879c0.862-0.862,1.117-2.146,0.65-3.271C35.307,2.728,34.219,2,33,2h-5.515
	c-2.403,0-4.663,0.936-6.364,2.636L17,8.757l-1.003-1.003C15.866,3.456,12.329,0,8,0C3.589,0,0,3.589,0,8
	c0,4.329,3.456,7.866,7.754,7.996L8.757,17l-1.004,1.004C3.456,18.135,0,21.671,0,26c0,4.411,3.589,8,8,8
	c4.329,0,7.866-3.456,7.996-7.754L17,25.243l4.121,4.122c1.702,1.7,3.962,2.636,6.365,2.636H33c1.219,0,2.307-0.728,2.772-1.854
	C36.238,29.024,35.983,27.741,35.121,26.879z"/>
</svg>
