<?xml version="1.0" encoding="iso-8859-1"?>
<!-- Generator: Adobe Illustrator 22.0.1, SVG Export Plug-In . SVG Version: 6.00 Build 0)  -->
<svg version="1.1" id="Layer_1" xmlns="http://www.w3.org/2000/svg" xmlns:xlink="http://www.w3.org/1999/xlink" x="0px" y="0px"
	 viewBox="0 0 36 28" style="enable-background:new 0 0 36 28;" xml:space="preserve">
<path d="M33,7H17V3c0-1.218-0.727-2.306-1.852-2.772C14.783,0.077,14.396,0,14,0c-0.802,0-1.556,0.313-2.123,0.88L0.879,11.879
	C0.312,12.445,0,13.199,0,14c0,0.801,0.312,1.555,0.879,2.121l11,11C12.445,27.688,13.199,28,14,28c0.395,0,0.781-0.077,1.147-0.228
	C16.273,27.306,17,26.218,17,25v-4h16c1.654,0,3-1.346,3-3v-8C36,8.346,34.654,7,33,7z"/>
</svg>
