<?xml version="1.0" encoding="iso-8859-1"?>
<!-- Generator: Adobe Illustrator 22.0.1, SVG Export Plug-In . SVG Version: 6.00 Build 0)  -->
<svg version="1.1" id="Layer_1" xmlns="http://www.w3.org/2000/svg" xmlns:xlink="http://www.w3.org/1999/xlink" x="0px" y="0px"
	 viewBox="0 0 36 28" style="enable-background:new 0 0 36 28;" xml:space="preserve">
<path d="M35.121,11.879l-11-11C23.555,0.312,22.801,0,22,0c-0.395,0-0.781,0.077-1.147,0.228C19.727,0.694,19,1.782,19,3v4H3
	c-1.654,0-3,1.346-3,3v8c0,1.654,1.346,3,3,3h16v4c0,1.218,0.727,2.306,1.852,2.772C21.217,27.923,21.604,28,22,28
	c0.802,0,1.556-0.313,2.123-0.88l10.999-10.999C35.688,15.554,36,14.801,36,14C36,13.199,35.688,12.445,35.121,11.879z"/>
</svg>
