<?xml version="1.0" encoding="iso-8859-1"?>
<!-- Generator: Adobe Illustrator 22.0.1, SVG Export Plug-In . SVG Version: 6.00 Build 0)  -->
<svg version="1.1" id="Layer_1" xmlns="http://www.w3.org/2000/svg" xmlns:xlink="http://www.w3.org/1999/xlink" x="0px" y="0px"
	 viewBox="0 0 36 36" style="enable-background:new 0 0 36 36;" xml:space="preserve">
<path d="M35.771,16.854c-0.153-0.369-0.372-0.698-0.652-0.977l-4.998-4.998C29.555,10.312,28.801,10,28,10
	c-0.801,0-1.555,0.312-2.121,0.879c-1.13,1.13-1.168,2.945-0.115,4.121H21v-4.764C21.551,10.73,22.255,11,23,11
	c0.801,0,1.555-0.312,2.121-0.879c1.17-1.17,1.17-3.073,0-4.242l-5-5C19.555,0.312,18.801,0,18,0c-0.801,0-1.555,0.312-2.121,0.879
	l-5,5c-1.17,1.17-1.17,3.073,0,4.242C11.445,10.688,12.199,11,13,11c0.745,0,1.449-0.27,2-0.764V15h-4.764
	c1.053-1.176,1.015-2.991-0.115-4.121C9.555,10.312,8.801,10,8,10c-0.801,0-1.555,0.312-2.121,0.879l-5,5
	c-1.17,1.17-1.17,3.073,0,4.242l5,5C6.445,25.688,7.199,26,8,26s1.555-0.312,2.121-0.879c1.13-1.13,1.168-2.945,0.115-4.121H15
	v4.764C14.449,25.27,13.745,25,13,25c-0.801,0-1.555,0.312-2.121,0.879c-1.17,1.17-1.17,3.073,0,4.242l4.999,4.999
	c0.278,0.278,0.606,0.498,0.975,0.651C17.221,35.923,17.607,36,18,36c0.393,0,0.779-0.077,1.147-0.229
	c0.37-0.153,0.698-0.373,0.977-0.653l4.997-4.997c1.17-1.17,1.17-3.073,0-4.242C24.555,25.312,23.801,25,23,25
	c-0.745,0-1.449,0.27-2,0.764V21h4.764c-1.053,1.176-1.015,2.991,0.115,4.121C26.445,25.688,27.199,26,28,26
	s1.555-0.312,2.121-0.879l4.999-4.999c0.279-0.278,0.498-0.607,0.65-0.975C36.072,18.418,36.072,17.582,35.771,16.854z"/>
</svg>
