<?xml version="1.0" encoding="iso-8859-1"?>
<!-- Generator: Adobe Illustrator 22.1.0, SVG Export Plug-In . SVG Version: 6.00 Build 0)  -->
<svg version="1.1" id="Layer_1" xmlns="http://www.w3.org/2000/svg" xmlns:xlink="http://www.w3.org/1999/xlink" x="0px" y="0px"
	 viewBox="0 0 20 20" style="enable-background:new 0 0 20 20;" xml:space="preserve">
<path d="M20,5.979c0,1.606-0.623,3.116-1.755,4.252l-1,1.005C16.112,12.373,14.604,13,13,13c-0.005,1.598-0.628,3.099-1.755,4.23
	l-1,1.005C9.112,19.373,7.604,20,6,20c-1.604,0-3.112-0.627-4.246-1.766C0.623,17.099,0,15.589,0,13.983s0.623-3.116,1.755-4.252
	l1-1.005C3.864,7.612,5.358,7.021,7,7.013c0-0.01,0-0.02,0-0.03c0-1.606,0.623-3.116,1.755-4.252l1-1.005
	C10.847,0.629,12.394,0,14,0c1.606,0,3.154,0.629,4.246,1.728C19.377,2.863,20,4.373,20,5.979z"/>
</svg>
