<?xml version="1.0" encoding="iso-8859-1"?>
<!-- Generator: Adobe Illustrator 22.1.0, SVG Export Plug-In . SVG Version: 6.00 Build 0)  -->
<svg version="1.1" id="Layer_1" xmlns="http://www.w3.org/2000/svg" xmlns:xlink="http://www.w3.org/1999/xlink" x="0px" y="0px"
	 viewBox="0 0 20 20" style="enable-background:new 0 0 20 20;" xml:space="preserve">
<path d="M20,7.5c0,4.142-3.358,7.5-7.5,7.5c-0.125,0-0.246-0.013-0.369-0.019c-1.688,1.665-3.351,3.311-3.596,3.555
	C7.591,19.48,6.335,20,5,20s-2.591-0.52-3.535-1.465C0.521,17.591,0,16.335,0,15c0-1.335,0.52-2.59,1.464-3.535
	c0.279-0.278,1.978-2,3.554-3.604C5.012,7.74,5,7.622,5,7.5C5,3.358,8.358,0,12.5,0S20,3.358,20,7.5z"/>
</svg>
