<?xml version="1.0" encoding="utf-8"?>
<!-- Generator: Adobe Illustrator 19.1.1, SVG Export Plug-In . SVG Version: 6.00 Build 0)  -->
<svg version="1.1" xmlns="http://www.w3.org/2000/svg" xmlns:xlink="http://www.w3.org/1999/xlink" x="0px" y="0px"
	 viewBox="0 0 20 20" enable-background="new 0 0 20 20" xml:space="preserve">
<g id="Слой_2" display="none">
</g>
<g id="Android_x5F_4" display="none">
</g>
<g id="Android_x5F_5" display="none">
</g>
<g id="Windows_x5F_8" display="none">
</g>
<g id="Windows_x5F_10" display="none">
</g>
<g id="Color" display="none">
</g>
<g id="IOS" display="none">
</g>
<g id="IOS_copy">
	<path d="M15.9,10c0,0.6-0.4,1-1,1H11v3.9c0,0.6-0.4,1-1,1s-1-0.4-1-1V11H5.1c-0.6,0-1-0.4-1-1s0.4-1,1-1H9V5.1c0-0.6,0.4-1,1-1
		s1,0.4,1,1V9h3.9C15.5,9,15.9,9.4,15.9,10z M20,10c0,5.5-4.5,10-10,10S0,15.5,0,10S4.5,0,10,0S20,4.5,20,10z M18,10
		c0-4.4-3.6-8-8-8s-8,3.6-8,8s3.6,8,8,8S18,14.4,18,10z"/>
</g>
</svg>
