<?xml version="1.0" encoding="utf-8"?>
<!-- Generator: Adobe Illustrator 19.1.1, SVG Export Plug-In . SVG Version: 6.00 Build 0)  -->
<svg version="1.1" id="Layer_9" xmlns="http://www.w3.org/2000/svg" xmlns:xlink="http://www.w3.org/1999/xlink" x="0px" y="0px"
	 viewBox="0 0 20 20" enable-background="new 0 0 20 20" xml:space="preserve">
<path d="M10,0C4.5,0,0,4.5,0,10s4.5,10,10,10s10-4.5,10-10S15.5,0,10,0z M14.9,11H11v3.9c0,0.6-0.4,1-1,1s-1-0.4-1-1V11H5.1
	c-0.6,0-1-0.4-1-1s0.4-1,1-1H9V5c0-0.6,0.4-1,1-1s1,0.4,1,1v4h3.9c0.6,0,1,0.4,1,1S15.5,11,14.9,11z"/>
</svg>
