<?xml version="1.0" encoding="utf-8"?>
<!-- Generator: Adobe Illustrator 19.1.1, SVG Export Plug-In . SVG Version: 6.00 Build 0)  -->
<svg version="1.1" xmlns="http://www.w3.org/2000/svg" xmlns:xlink="http://www.w3.org/1999/xlink" x="0px" y="0px"
	 viewBox="0 0 20 20" enable-background="new 0 0 20 20" xml:space="preserve">
<g id="Слой_2" display="none">
</g>
<g id="Android_x5F_4" display="none">
</g>
<g id="Android_x5F_5" display="none">
</g>
<g id="Windows_x5F_8" display="none">
</g>
<g id="Windows_x5F_10" display="none">
</g>
<g id="Color" display="none">
</g>
<g id="IOS" display="none">
</g>
<g id="IOS_copy">
	<path d="M19,7h-6V1c0-0.6-0.4-1-1-1H8C7.4,0,7,0.4,7,1v6H1C0.4,7,0,7.4,0,8v4c0,0.6,0.4,1,1,1h6v6c0,0.6,0.4,1,1,1h4
		c0.6,0,1-0.4,1-1v-6h6c0.6,0,1-0.4,1-1V8C20,7.4,19.6,7,19,7z M18,11h-6c-0.6,0-1,0.4-1,1v6H9v-6c0-0.6-0.4-1-1-1H2V9h6
		c0.6,0,1-0.4,1-1V2h2v6c0,0.6,0.4,1,1,1h6V11z"/>
</g>
</svg>
