<?xml version="1.0" encoding="utf-8"?>
<!-- Generator: Adobe Illustrator 19.1.1, SVG Export Plug-In . SVG Version: 6.00 Build 0)  -->
<svg version="1.1" id="Layer_9" xmlns="http://www.w3.org/2000/svg" xmlns:xlink="http://www.w3.org/1999/xlink" x="0px" y="0px"
	 viewBox="0 0 20 20" enable-background="new 0 0 20 20" xml:space="preserve">
<path d="M12,20H8c-0.6,0-1-0.4-1-1v-6H1c-0.6,0-1-0.4-1-1V8c0-0.6,0.4-1,1-1h6V1c0-0.6,0.4-1,1-1h4c0.6,0,1,0.4,1,1v6h6
	c0.6,0,1,0.4,1,1v4c0,0.6-0.4,1-1,1h-6v6C13,19.6,12.6,20,12,20z"/>
</svg>
