<?xml version="1.0" encoding="utf-8"?>
<!-- Generator: Adobe Illustrator 19.1.1, SVG Export Plug-In . SVG Version: 6.00 Build 0)  -->
<svg version="1.1" xmlns="http://www.w3.org/2000/svg" xmlns:xlink="http://www.w3.org/1999/xlink" x="0px" y="0px"
	 viewBox="0 0 20 20" enable-background="new 0 0 20 20" xml:space="preserve">
<g id="Слой_2" display="none">
</g>
<g id="Android_x5F_4" display="none">
</g>
<g id="Android_x5F_5" display="none">
</g>
<g id="Windows_x5F_8" display="none">
</g>
<g id="Windows_x5F_10" display="none">
</g>
<g id="Color" display="none">
</g>
<g id="IOS" display="none">
</g>
<g id="IOS_copy">
	<path d="M14.2,7.2L11.4,10l2.8,2.8c0.4,0.4,0.4,1,0,1.4c-0.2,0.2-0.5,0.3-0.7,0.3s-0.5-0.1-0.7-0.3L10,11.4l-2.8,2.8
		c-0.2,0.2-0.5,0.3-0.7,0.3S6,14.4,5.8,14.2c-0.4-0.4-0.4-1,0-1.4L8.6,10L5.8,7.2c-0.4-0.4-0.4-1,0-1.4s1-0.4,1.4,0L10,8.6l2.8-2.8
		c0.4-0.4,1-0.4,1.4,0S14.6,6.8,14.2,7.2z M20,10c0,5.5-4.5,10-10,10S0,15.5,0,10S4.5,0,10,0S20,4.5,20,10z M18,10c0-4.4-3.6-8-8-8
		s-8,3.6-8,8s3.6,8,8,8S18,14.4,18,10z"/>
</g>
</svg>
