<?xml version="1.0" encoding="utf-8"?>
<!-- Generator: Adobe Illustrator 19.1.1, SVG Export Plug-In . SVG Version: 6.00 Build 0)  -->
<svg version="1.1" id="Layer_9" xmlns="http://www.w3.org/2000/svg" xmlns:xlink="http://www.w3.org/1999/xlink" x="0px" y="0px"
	 viewBox="0 0 20 20" enable-background="new 0 0 20 20" xml:space="preserve">
<path d="M10,0C4.5,0,0,4.5,0,10s4.5,10,10,10s10-4.5,10-10S15.5,0,10,0z M14.2,12.8c0.4,0.4,0.4,1,0,1.4c-0.2,0.2-0.5,0.3-0.7,0.3
	s-0.5-0.1-0.7-0.3L10,11.4l-2.8,2.8c-0.2,0.2-0.5,0.3-0.7,0.3S6,14.4,5.8,14.2c-0.4-0.4-0.4-1,0-1.4L8.6,10L5.8,7.2
	c-0.4-0.4-0.4-1,0-1.4s1-0.4,1.4,0L10,8.6l2.8-2.8c0.4-0.4,1-0.4,1.4,0c0.4,0.4,0.4,1,0,1.4L11.4,10L14.2,12.8z"/>
</svg>
