<?xml version="1.0" encoding="utf-8"?>
<!-- Generator: Adobe Illustrator 19.1.1, SVG Export Plug-In . SVG Version: 6.00 Build 0)  -->
<svg version="1.1" id="Layer_9" xmlns="http://www.w3.org/2000/svg" xmlns:xlink="http://www.w3.org/1999/xlink" x="0px" y="0px"
	 viewBox="0 0 18 18" enable-background="new 0 0 18 18" xml:space="preserve">
<path d="M15,2c0.3,0,0.5,0.1,0.7,0.3c0.4,0.4,0.4,1,0,1.4L10.4,9l5.3,5.3c0.4,0.4,0.4,1,0,1.4C15.5,15.9,15.3,16,15,16
	s-0.5-0.1-0.7-0.3L9,10.4l-5.3,5.3C3.5,15.9,3.2,16,3,16s-0.5-0.1-0.7-0.3c-0.4-0.4-0.4-1,0-1.4L7.6,9L2.3,3.7c-0.4-0.4-0.4-1,0-1.4
	C2.5,2.1,2.8,2,3,2s0.5,0.1,0.7,0.3L9,7.6l5.3-5.3C14.5,2.1,14.7,2,15,2 M15,0c-0.8,0-1.6,0.3-2.1,0.9L9,4.8L5.1,0.9
	C4.6,0.3,3.8,0,3,0S1.4,0.3,0.9,0.9C0.3,1.5,0,2.2,0,3s0.3,1.6,0.9,2.1L4.8,9l-3.9,3.9C0.3,13.5,0,14.2,0,15s0.3,1.6,0.9,2.1
	C1.5,17.7,2.2,18,3,18s1.6-0.3,2.1-0.9L9,13.2l3.9,3.9c0.5,0.6,1.3,0.9,2.1,0.9s1.6-0.3,2.1-0.9c0.6-0.5,0.9-1.3,0.9-2.1
	s-0.3-1.6-0.9-2.1L13.2,9l3.9-3.9C17.7,4.6,18,3.8,18,3s-0.3-1.6-0.9-2.1C16.6,0.3,15.8,0,15,0L15,0z"/>
</svg>
