<?xml version="1.0" encoding="utf-8"?>
<!-- Generator: Adobe Illustrator 19.1.1, SVG Export Plug-In . SVG Version: 6.00 Build 0)  -->
<svg version="1.1" id="Layer_9" xmlns="http://www.w3.org/2000/svg" xmlns:xlink="http://www.w3.org/1999/xlink" x="0px" y="0px"
	 viewBox="0 0 18 18" enable-background="new 0 0 18 18" xml:space="preserve">
<path d="M2,0C0.9,0.1,0.1,1.1,0.2,2.2c0,0.5,0.3,0.9,0.6,1.3l5.6,5.6l-5.6,5.6c-0.9,0.7-1,2-0.3,2.8s2,1,2.8,0.3
	c0.1-0.1,0.2-0.2,0.3-0.3l5.6-5.6l5.6,5.6c0.7,0.9,2,1,2.8,0.3c0.8-0.7,1-2,0.3-2.8c-0.1-0.1-0.2-0.2-0.3-0.3L12,9l5.6-5.6
	c0.8-0.8,0.8-2,0-2.8C17.3,0.2,16.7,0,16.2,0s-1,0.2-1.4,0.6L9.2,6.2L3.6,0.6C3.2,0.2,2.7,0,2.2,0C2.1,0,2,0,2,0z"/>
</svg>
