<?xml version="1.0" encoding="utf-8"?>
<!-- Generator: Adobe Illustrator 19.1.1, SVG Export Plug-In . SVG Version: 6.00 Build 0)  -->
<svg version="1.1" id="Layer_9" xmlns="http://www.w3.org/2000/svg" xmlns:xlink="http://www.w3.org/1999/xlink" x="0px" y="0px"
	 viewBox="0 0 22 22" enable-background="new 0 0 22 22" xml:space="preserve">
<path d="M17.8,0c-0.8,0-1.5,0.3-2.2,0.7l0,0C15.4,0.9,15.2,1,15,1.2l0,0l0,0l-0.2,0.2l-0.1,0.1l0,0l-0.3,0.3L2,14.3
	c-0.1,0.1-0.2,0.3-0.3,0.4l-1.7,6c-0.2,0.5,0.1,1.1,0.7,1.2c0.2,0.1,0.4,0.1,0.5,0l6-1.6c0.2,0,0.3-0.1,0.5-0.3L20.1,7.7l0.5-0.5
	L20.8,7l0,0c0.2-0.2,0.3-0.4,0.5-0.7c0.1-0.2,0.3-0.4,0.4-0.7l0,0C22,4.9,22.1,4,21.9,3.3c0-0.2-0.1-0.3-0.2-0.5
	c0-0.1,0-0.2-0.1-0.3c-0.1-0.2-0.2-0.5-0.4-0.7l0,0c-0.1-0.2-0.3-0.4-0.5-0.6l0,0c-0.6-0.6-1.3-0.9-2-1.1h-0.1l0,0
	C18.4,0,18.1,0,17.8,0C17.9,0,17.8,0,17.8,0z M15.7,3.3l3,3L7.2,17.8l-3-2.9L15.7,3.3z M3.2,16.8l2.1,2.1l-2.9,0.8L3.2,16.8z"/>
</svg>
