<?xml version="1.0" encoding="utf-8"?>
<!-- Generator: Adobe Illustrator 19.1.1, SVG Export Plug-In . SVG Version: 6.00 Build 0)  -->
<svg version="1.1" id="Layer_9" xmlns="http://www.w3.org/2000/svg" xmlns:xlink="http://www.w3.org/1999/xlink" x="0px" y="0px"
	 viewBox="0 0 22 22" enable-background="new 0 0 22 22" xml:space="preserve">
<path d="M20.8,1.2C20,0.4,19,0,18,0c-1.1,0-2.2,0.5-3,1.2L2,14.3c-0.1,0.1-0.2,0.3-0.3,0.4l-1.7,6c-0.1,0.3,0,0.7,0.3,1
	C0.5,21.9,0.7,22,1,22c0.1,0,0.2,0,0.3,0l6-1.6c0.2,0,0.3-0.1,0.4-0.3L20.8,7C21.6,6.2,22,5.2,22,4.1S21.6,1.9,20.8,1.2z M16.4,2.7
	c0.8-0.8,2.2-0.9,3-0.1C19.8,3,20,3.5,20,4.1s-0.2,1.1-0.6,1.5l-0.6,0.6l-3-3L16.4,2.7z M3.5,15.7l2.9,2.8l-4,1.1L3.5,15.7z"/>
</svg>
