<?xml version="1.0" encoding="utf-8"?>
<!-- Generator: Adobe Illustrator 19.1.1, SVG Export Plug-In . SVG Version: 6.00 Build 0)  -->
<svg version="1.1" xmlns="http://www.w3.org/2000/svg" xmlns:xlink="http://www.w3.org/1999/xlink" x="0px" y="0px"
	 viewBox="0 0 22 22" enable-background="new 0 0 22 22" xml:space="preserve">
<g id="Слой_2" display="none">
</g>
<g id="Android_x5F_4" display="none">
</g>
<g id="Android_x5F_5" display="none">
</g>
<g id="Windows_x5F_8" display="none">
</g>
<g id="Windows_x5F_10" display="none">
</g>
<g id="Color" display="none">
</g>
<g id="IOS" display="none">
</g>
<g id="IOS_copy">
	<path d="M20.8,1.2c-1.6-1.6-4.2-1.6-5.8,0l-0.7,0.7l0,0L2,14.3c-0.1,0.1-0.2,0.3-0.3,0.4l-1.7,6c-0.1,0.3,0,0.7,0.2,1
		C0.5,21.9,0.7,22,1,22c0.1,0,0.2,0,0.3,0l6-1.6c0.2,0,0.3-0.1,0.4-0.3L20.4,7.5c0.1-0.1,0.2-0.2,0.2-0.3L20.8,7
		C22.4,5.4,22.4,2.8,20.8,1.2z M6.5,18.5l-2.9-2.9l0-0.1L15.8,3.4l3,3L6.5,18.5z"/>
</g>
</svg>
