<?xml version="1.0" encoding="utf-8"?>
<!-- Generator: Adobe Illustrator 19.1.1, SVG Export Plug-In . SVG Version: 6.00 Build 0)  -->
<svg version="1.1" xmlns="http://www.w3.org/2000/svg" xmlns:xlink="http://www.w3.org/1999/xlink" x="0px" y="0px"
	 viewBox="0 0 20 21" enable-background="new 0 0 20 21" xml:space="preserve">
<g id="Слой_2" display="none">
</g>
<g id="Android_x5F_4" display="none">
</g>
<g id="Android_x5F_5" display="none">
</g>
<g id="Windows_x5F_8" display="none">
</g>
<g id="Windows_x5F_10" display="none">
</g>
<g id="Color" display="none">
</g>
<g id="IOS" display="none">
</g>
<g id="IOS_copy">
	<path d="M19,10c-0.6,0-1,0.5-1,1c0,4.4-3.6,8-8,8s-8-3.6-8-8s3.6-8,8-8c3.2,0,5.1,2,5.9,3H12c-0.6,0-1,0.4-1,1s0.4,1,1,1h7V1
		c0-0.6-0.4-1-1-1s-1,0.4-1,1v3.2C15.8,2.9,13.5,1,10,1C4.5,1,0,5.5,0,11s4.5,10,10,10s10-4.5,10-10C20,10.4,19.6,10,19,10z"/>
</g>
</svg>
