<?xml version="1.0" encoding="utf-8"?>
<!-- Generator: Adobe Illustrator 19.1.1, SVG Export Plug-In . SVG Version: 6.00 Build 0)  -->
<svg version="1.1" xmlns="http://www.w3.org/2000/svg" xmlns:xlink="http://www.w3.org/1999/xlink" x="0px" y="0px"
	 viewBox="0 0 22 21" enable-background="new 0 0 22 21" xml:space="preserve">
<g id="Слой_2" display="none">
</g>
<g id="Android_x5F_4" display="none">
</g>
<g id="Android_x5F_5" display="none">
</g>
<g id="Windows_x5F_8" display="none">
</g>
<g id="Windows_x5F_10" display="none">
</g>
<g id="Color" display="none">
</g>
<g id="IOS" display="none">
</g>
<g id="IOS_copy">
	<path d="M4.8,21c-0.2,0-0.4-0.1-0.6-0.2c-0.3-0.2-0.5-0.7-0.4-1.1l1.7-6.5L0.4,9C0,8.8-0.1,8.3,0,7.9s0.5-0.7,0.9-0.7l6.7-0.4
		l2.4-6.3C10.2,0.3,10.6,0,11,0s0.8,0.3,0.9,0.6l2.4,6.3l6.7,0.4c0.4,0,0.8,0.3,0.9,0.7s0,0.8-0.3,1.1l-5.2,4.2l1.7,6.5
		c0.1,0.4,0,0.8-0.4,1.1c-0.3,0.2-0.8,0.3-1.1,0L11,17.2l-5.6,3.6C5.2,20.9,5,21,4.8,21z M11,15c0.2,0,0.4,0.1,0.5,0.2l4,2.6
		l-1.2-4.6c-0.1-0.4,0-0.8,0.3-1l3.7-3l-4.8-0.3c-0.4,0-0.7-0.3-0.9-0.6L11,3.8L9.3,8.2C9.1,8.6,8.8,8.8,8.4,8.9L3.6,9.1l3.7,3
		c0.3,0.2,0.4,0.7,0.3,1l-1.2,4.6l4-2.6C10.6,15.1,10.8,15,11,15z"/>
</g>
</svg>
