<?xml version="1.0" encoding="utf-8"?>
<!-- Generator: Adobe Illustrator 19.1.1, SVG Export Plug-In . SVG Version: 6.00 Build 0)  -->
<svg version="1.1" id="Layer_9" xmlns="http://www.w3.org/2000/svg" xmlns:xlink="http://www.w3.org/1999/xlink" x="0px" y="0px"
	 viewBox="0 0 22 21" enable-background="new 0 0 22 21" xml:space="preserve">
<path d="M4.9,21c-0.2,0-0.4-0.1-0.6-0.2c-0.3-0.2-0.5-0.7-0.4-1.1l1.7-6.5L0.4,9C0.1,8.7,0,8.3,0.1,7.9S0.6,7.2,1,7.2l6.7-0.4
	l2.4-6.3c0.2-0.2,0.6-0.5,1-0.5s0.8,0.3,0.9,0.6l2.4,6.3l6.7,0.4c0.4,0,0.8,0.3,0.9,0.7c0.1,0.4,0,0.8-0.3,1.1l-5.2,4.2l1.7,6.5
	c0.1,0.4,0,0.8-0.4,1.1c-0.3,0.2-0.8,0.3-1.1,0l-5.6-3.7l-5.6,3.6C5.3,20.9,5.1,21,4.9,21z"/>
</svg>
