<?xml version="1.0" encoding="utf-8"?>
<!-- Generator: Adobe Illustrator 19.1.1, SVG Export Plug-In . SVG Version: 6.00 Build 0)  -->
<svg version="1.1" xmlns="http://www.w3.org/2000/svg" xmlns:xlink="http://www.w3.org/1999/xlink" x="0px" y="0px"
	 viewBox="0 0 22 20" enable-background="new 0 0 22 20" xml:space="preserve">
<g id="Слой_2" display="none">
</g>
<g id="Android_x5F_4" display="none">
</g>
<g id="Android_x5F_5" display="none">
</g>
<g id="Windows_x5F_8" display="none">
</g>
<g id="Windows_x5F_10" display="none">
</g>
<g id="Color" display="none">
</g>
<g id="IOS" display="none">
</g>
<g id="IOS_copy">
	<path d="M15.5,0c-1.7,0-3.3,0.7-4.5,1.8C9.8,0.7,8.2,0,6.5,0C2.9,0,0,2.9,0,6.4c0,5.5,5,8.8,8.2,10.9c0.9,0.6,1.6,1,2.1,1.5
		l0.6,0.5l0.6-0.5c0.5-0.4,1.3-0.9,2.1-1.5C17,15.1,22,11.9,22,6.4C22,2.9,19.1,0,15.5,0z M12.7,15.6C12,16,11.5,16.4,11,16.7
		c-0.5-0.4-1-0.7-1.7-1.1C6.2,13.6,2,10.8,2,6.4C2,4,4,2,6.5,2C8,2,9.3,2.7,10.2,4L11,5.2L11.8,4c0.8-1.2,2.2-2,3.7-2
		C18,2,20,4,20,6.4C20,10.8,15.8,13.6,12.7,15.6z"/>
</g>
</svg>
