<?xml version="1.0" encoding="utf-8"?>
<!-- Generator: Adobe Illustrator 19.1.1, SVG Export Plug-In . SVG Version: 6.00 Build 0)  -->
<svg version="1.1" xmlns="http://www.w3.org/2000/svg" xmlns:xlink="http://www.w3.org/1999/xlink" x="0px" y="0px"
	 viewBox="0 0 23 23" enable-background="new 0 0 23 23" xml:space="preserve">
<g id="Слой_2" display="none">
</g>
<g id="Android_x5F_4" display="none">
</g>
<g id="Android_x5F_5" display="none">
</g>
<g id="Windows_x5F_8" display="none">
</g>
<g id="Windows_x5F_10" display="none">
</g>
<g id="Color" display="none">
</g>
<g id="IOS" display="none">
</g>
<g id="IOS_copy">
	<path d="M17,4c1.1,0,2,0.9,2,2s-0.9,2-2,2c-1.1,0-2-0.9-2-2S15.9,4,17,4z M23,8c0,4.4-3.6,8-8,8c-0.3,0-0.7,0-1-0.1v2.1
		c0,0.6-0.4,1-1,1h-2v2c0,0.6-0.4,1-1,1H7.4l-0.7,0.7C6.5,22.9,6.3,23,6,23H1.1c-0.6,0-1-0.4-1-1v-5c0-0.3,0.1-0.5,0.3-0.7l6.8-6.8
		C7.1,9,7,8.5,7,8c0-4.4,3.6-8,8-8S23,3.6,23,8z M12,15.4c-0.6-0.2-1.2-0.6-1.7-1l-3.7,3.7c-0.2,0.2-0.5,0.3-0.7,0.3
		s-0.5-0.1-0.7-0.3c-0.4-0.4-0.4-1,0-1.4l3.6-3.6c-0.4-0.5-0.7-1-1-1.5l-5.8,5.8V21h3.5l0.7-0.7c0.2-0.2,0.4-0.3,0.7-0.3h2v-2
		c0-0.6,0.4-1,1-1h2V15.4z M21,8c0-3.3-2.7-6-6-6S9,4.7,9,8s2.7,6,6,6S21,11.3,21,8z"/>
</g>
</svg>
