<?xml version="1.0" encoding="utf-8"?>
<!-- Generator: Adobe Illustrator 19.1.1, SVG Export Plug-In . SVG Version: 6.00 Build 0)  -->
<svg version="1.1" id="Layer_9" xmlns="http://www.w3.org/2000/svg" xmlns:xlink="http://www.w3.org/1999/xlink" x="0px" y="0px"
	 viewBox="0 0 23 23" enable-background="new 0 0 23 23" xml:space="preserve">
<path d="M15.5,0C11.4,0,8,3.4,8,7.5s3.4,7.5,7.5,7.5S23,11.6,23,7.5S19.7,0,15.5,0z M17,4c1.1,0,2,0.9,2,2s-0.9,2-2,2s-2-0.9-2-2
	S15.9,4,17,4z M6.4,10.3l-6.1,6.1C0.1,16.6,0,16.8,0,17.1v5c0,0.6,0.4,1,1,1h4.9c0.3,0,0.5-0.1,0.7-0.3l0.7-0.7h2.8c0.6,0,1-0.4,1-1
	v-2h2c0.6,0,1-0.4,1-1V17c-1.6-0.4-3.1-1-4.4-2l-3.9,3.7C5.6,18.9,5.3,19,5.1,19c-0.3,0-0.5-0.1-0.7-0.3c-0.4-0.4-0.4-1,0-1.4
	l3.9-3.7C7.5,12.6,6.8,11.5,6.4,10.3z"/>
</svg>
