<?xml version="1.0" encoding="utf-8"?>
<!-- Generator: Adobe Illustrator 19.1.1, SVG Export Plug-In . SVG Version: 6.00 Build 0)  -->
<svg version="1.1" xmlns="http://www.w3.org/2000/svg" xmlns:xlink="http://www.w3.org/1999/xlink" x="0px" y="0px"
	 viewBox="0 0 22 22" enable-background="new 0 0 22 22" xml:space="preserve">
<g id="Слой_2" display="none">
</g>
<g id="Android_x5F_4" display="none">
</g>
<g id="Android_x5F_5" display="none">
</g>
<g id="Windows_x5F_8" display="none">
</g>
<g id="Windows_x5F_10" display="none">
</g>
<g id="Color" display="none">
</g>
<g id="IOS" display="none">
</g>
<g id="IOS_copy">
	<path d="M20.5,1.5C19.6,0.5,18.4,0,17,0c-1.3,0-2.6,0.5-3.5,1.4l-2.1,2.1c-1.7,1.7-1.9,4.3-0.6,6.2l-1,1C9,10.3,8,10,7,10
		c-1.3,0-2.6,0.5-3.5,1.5l-2.1,2.1c-1.9,1.9-1.9,5.1,0,7C2.4,21.5,3.6,22,5,22c1.3,0,2.6-0.5,3.5-1.4l2.1-2.1
		c1.7-1.7,1.9-4.3,0.6-6.2l1-1C13,11.7,14,12,15,12c1.3,0,2.6-0.5,3.5-1.5l2.1-2.1C22.5,6.5,22.5,3.4,20.5,1.5z M9.1,17L7,19.1
		c-1.1,1.1-3,1.2-4.2,0c-1.2-1.2-1.2-3,0-4.2L5,12.9C5.5,12.3,6.3,12,7,12c0.4,0,0.9,0.1,1.3,0.3l-2,2c-0.4,0.4-0.4,1,0,1.4
		C6.5,15.9,6.7,16,7,16s0.5-0.1,0.7-0.3l2-2C10.2,14.8,10,16.1,9.1,17z M19.1,7L17,9.1c-0.9,0.9-2.2,1.1-3.3,0.6l2-2
		c0.4-0.4,0.4-1,0-1.4s-1-0.4-1.4,0l-2,2C11.8,7.2,12,5.9,12.9,5L15,2.9C15.5,2.3,16.3,2,17,2c0.8,0,1.5,0.3,2.1,0.9
		C20.3,4,20.3,5.9,19.1,7z"/>
</g>
</svg>
