<?xml version="1.0" encoding="utf-8"?>
<!-- Generator: Adobe Illustrator 19.1.1, SVG Export Plug-In . SVG Version: 6.00 Build 0)  -->
<svg version="1.1" id="Layer_9" xmlns="http://www.w3.org/2000/svg" xmlns:xlink="http://www.w3.org/1999/xlink" x="0px" y="0px"
	 viewBox="0 0 18 22" enable-background="new 0 0 18 22" xml:space="preserve">
<path d="M9,0C5.7,0,3,2.8,3,6.2V8H1.9C0.9,8,0,8.9,0,9.9V20c0,1.1,0.8,1.9,1.9,1.9h14.2c1,0,1.9-0.9,1.9-1.9V9.9
	c0-1-0.8-1.9-1.9-1.9H15V6.2C15,2.8,12.3,0,9,0z M9,2c2.2,0,4,1.9,4,4.2V8H5V6.2C5,3.9,6.8,2,9,2z M9,13c0.8,0,1.4,0.6,1.4,1.4
	c0,0.4-0.2,0.8-0.5,1v1.3c0,0.5-0.4,0.9-0.9,0.9s-0.9-0.4-0.9-0.9v-1.3c-0.3-0.3-0.5-0.6-0.5-1C7.6,13.6,8.2,13,9,13z"/>
</svg>
