<?xml version="1.0" encoding="utf-8"?>
<!-- Generator: Adobe Illustrator 19.1.1, SVG Export Plug-In . SVG Version: 6.00 Build 0)  -->
<svg version="1.1" xmlns="http://www.w3.org/2000/svg" xmlns:xlink="http://www.w3.org/1999/xlink" x="0px" y="0px"
	 viewBox="0 0 18 22" enable-background="new 0 0 18 22" xml:space="preserve">
<g id="Слой_2" display="none">
</g>
<g id="Android_x5F_4" display="none">
</g>
<g id="Android_x5F_5" display="none">
</g>
<g id="Windows_x5F_8" display="none">
</g>
<g id="Windows_x5F_10" display="none">
</g>
<g id="Color" display="none">
</g>
<g id="IOS" display="none">
</g>
<g id="IOS_copy">
	<path d="M16.1,8H5V6.2C5,3.9,6.8,2,9,2s4,1.9,4,4.2h2C15,2.8,12.3,0,9,0S3,2.8,3,6.2V8H1.9C0.8,8,0,8.9,0,9.9v10.1
		C0,21.1,0.8,22,1.9,22h14.2c1,0,1.9-0.9,1.9-1.9V9.9C18,8.9,17.2,8,16.1,8z M16,20H2V10h14V20z M8.1,15.4c-0.3-0.3-0.5-0.6-0.5-1
		C7.6,13.6,8.2,13,9,13c0.8,0,1.4,0.6,1.4,1.4c0,0.4-0.2,0.8-0.5,1v1.3c0,0.5-0.4,0.9-0.9,0.9s-0.9-0.4-0.9-0.9V15.4z"/>
</g>
</svg>
