<?xml version="1.0" encoding="utf-8"?>
<!-- Generator: Adobe Illustrator 19.1.1, SVG Export Plug-In . SVG Version: 6.00 Build 0)  -->
<svg version="1.1" id="Layer_9" xmlns="http://www.w3.org/2000/svg" xmlns:xlink="http://www.w3.org/1999/xlink" x="0px" y="0px"
	 viewBox="0 0 18 22" enable-background="new 0 0 18 22" xml:space="preserve">
<path d="M9,0.1c-3.3,0-6,2.8-6,6.2v1.8H1.9C0.9,8.1,0,9,0,10v10.1C0,21.2,0.8,22,1.9,22h14.2c1,0,1.9-0.9,1.9-1.9V10
	c0-1-0.8-1.9-1.9-1.9H5V6.3C5,4,6.8,2.1,9,2.1s4,1.9,4,4.2h2C15,2.9,12.3,0.1,9,0.1z M9,13.1c0.8,0,1.4,0.6,1.4,1.4
	c0,0.4-0.2,0.8-0.5,1v1.3c0,0.5-0.4,0.9-0.9,0.9s-0.9-0.4-0.9-0.9v-1.3c-0.3-0.3-0.5-0.6-0.5-1C7.6,13.7,8.2,13.1,9,13.1z"/>
</svg>
