<?xml version="1.0" encoding="utf-8"?>
<!-- Generator: Adobe Illustrator 19.1.1, SVG Export Plug-In . SVG Version: 6.00 Build 0)  -->
<svg version="1.1" xmlns="http://www.w3.org/2000/svg" xmlns:xlink="http://www.w3.org/1999/xlink" x="0px" y="0px"
	 viewBox="0 0 20 22" enable-background="new 0 0 20 22" xml:space="preserve">
<g id="Слой_2" display="none">
</g>
<g id="Android_x5F_4" display="none">
</g>
<g id="Android_x5F_5" display="none">
</g>
<g id="Windows_x5F_8" display="none">
</g>
<g id="Windows_x5F_10" display="none">
</g>
<g id="Color" display="none">
</g>
<g id="IOS" display="none">
</g>
<g id="IOS_copy">
	<path d="M10,22.1l-0.5-0.2C9.2,21.7,0,17,0,4V3.2L0.8,3c2.8-0.6,4.3-1.3,5.5-1.9C7.5,0.5,8.5,0,10,0s2.5,0.5,3.7,1.1
		c1.2,0.6,2.7,1.3,5.5,1.9L20,3.2V4c0,12.6-9.1,17.7-9.5,17.9L10,22.1z M2,4.8c0.3,9.7,6.2,14,8,15c1.7-1.1,7.7-5.7,8-15
		c-2.5-0.6-4-1.4-5.2-1.9C11.7,2.3,11.1,2,10,2S8.3,2.3,7.2,2.9C6.1,3.4,4.6,4.2,2,4.8z"/>
</g>
</svg>
