<?xml version="1.0" encoding="utf-8"?>
<!-- Generator: Adobe Illustrator 19.1.1, SVG Export Plug-In . SVG Version: 6.00 Build 0)  -->
<svg version="1.1" id="Layer_9" xmlns="http://www.w3.org/2000/svg" xmlns:xlink="http://www.w3.org/1999/xlink" x="0px" y="0px"
	 viewBox="0 0 19 22" enable-background="new 0 0 19 22" xml:space="preserve">
<path d="M16.7,22H2.4c-0.9,0-1.7-0.7-1.9-1.7v-0.2c-0.1-0.4-0.2-0.9-0.5-3.4c0-0.2,0-0.6,0.1-1c0.3-0.8,1-0.9,1.2-0.9
	c0.5,0,0.9,0.3,1.2,0.6c0.1,0.1,0.2,0.2,0.4,0.3c0.5,0.4,0.8,0.5,1.3,0.5c1,0,1.8-0.8,1.8-1.7c0-1-0.8-1.7-1.8-1.7
	c-0.4,0-0.8,0.2-1.3,0.5c-0.2,0.1-0.3,0.3-0.5,0.4C2,14,1.7,14.3,1.2,14.3c-0.3,0-1-0.1-1.2-1.2c0-0.1-0.1-0.3,0-0.6
	C0.3,9.1,0.4,8,0.5,7.8C0.7,6,1.9,5.9,2.3,5.9c0.1,0,0.2,0,0.3,0l0,0c0,0,3.1,0.4,4.3,0.5c0-0.1-0.1-0.2-0.2-0.3
	C6.2,5.3,5.8,4.7,5.8,3.7C5.8,1.6,7.5,0,9.6,0s3.8,1.7,3.8,3.7c0,1-0.3,1.4-0.8,2.2L12.5,6c-0.1,0.1-0.1,0.2-0.2,0.3
	c1.3-0.1,4.6-0.5,4.6-0.5c0.1,0,0.3,0,0.4,0C18.8,6.4,19,7.4,19,8v11.8C19,21.1,18.1,22,16.7,22z"/>
</svg>
