<?xml version="1.0" encoding="utf-8"?>
<!-- Generator: Adobe Illustrator 19.1.1, SVG Export Plug-In . SVG Version: 6.00 Build 0)  -->
<svg version="1.1" xmlns="http://www.w3.org/2000/svg" xmlns:xlink="http://www.w3.org/1999/xlink" x="0px" y="0px"
	 viewBox="0 0 19 22" enable-background="new 0 0 19 22" xml:space="preserve">
<g id="Слой_2" display="none">
</g>
<g id="Android_x5F_4" display="none">
</g>
<g id="Android_x5F_5" display="none">
</g>
<g id="Windows_x5F_8" display="none">
</g>
<g id="Windows_x5F_10" display="none">
</g>
<g id="Color" display="none">
</g>
<g id="IOS" display="none">
</g>
<g id="IOS_copy">
	<path d="M17.4,5.9c-0.1,0-0.3,0-0.4,0c0,0-3.3,0.3-4.6,0.5c0-0.1,0.1-0.2,0.2-0.4c0.5-0.8,0.8-1.3,0.8-2.3c0-2.1-1.7-3.7-3.8-3.7
		C7.5,0,5.8,1.7,5.8,3.7c0,0.9,0.3,1.6,0.9,2.4c0.1,0.1,0.1,0.2,0.2,0.3C5.7,6.3,2.6,5.9,2.6,5.9C2,5.8,1.5,6,1.3,6.2
		C0.9,6.5,0.6,7.1,0.5,7.8C0.5,8.1,0.3,9.2,0,12.6c0,0.2,0,0.4,0,0.6c0,0.2,0.2,0.9,0.8,1.2c0.7,0.2,1.2-0.2,1.6-0.5
		c0.1-0.1,0.3-0.2,0.5-0.4c0.5-0.4,0.9-0.5,1.3-0.5c1,0,1.8,0.8,1.8,1.7c0,1-0.8,1.7-1.8,1.7c-0.5,0-0.8-0.1-1.3-0.5
		c-0.1-0.1-0.3-0.2-0.4-0.3c-0.3-0.3-0.8-0.8-1.5-0.6c-0.3,0.1-0.7,0.3-0.9,0.9C0,16.1,0,16.6,0,16.8c0.2,2.5,0.4,3,0.5,3.4l0,0.2
		c0.2,1,1,1.7,1.9,1.7h14.3c1.3,0,2.3-0.9,2.3-2.3V8C19,7.4,18.8,6.4,17.4,5.9z M17,19.8c0,0.2,0,0.3-0.3,0.3H2.5c0,0,0-0.1,0-0.1
		l0-0.2c-0.1-0.3-0.1-0.6-0.3-1.9c0.7,0.4,1.3,0.6,2.1,0.6c2.1,0,3.8-1.7,3.8-3.7c0-2.1-1.7-3.7-3.8-3.7c-0.9,0-1.6,0.3-2.1,0.7
		c0.2-2.7,0.4-3.3,0.4-3.4c0,0,0-0.1,0-0.1c0-0.1,0-0.1,0-0.2C3.3,8,5.7,8.3,6.7,8.4c0.9,0.1,1.6-0.3,2-0.9C9,7,9.2,6.1,8.3,5
		C7.9,4.4,7.8,4.1,7.8,3.7c0-1,0.8-1.7,1.8-1.7c1,0,1.8,0.8,1.8,1.7c0,0.4-0.1,0.5-0.6,1.3c-0.8,1.3-0.5,2.2-0.2,2.6
		c0.4,0.6,1.1,0.9,1.9,0.8c1-0.1,3.6-0.4,4.4-0.5c0,0,0,0,0,0c0,0,0,0,0,0c0,0,0,0,0,0.1V19.8z"/>
</g>
</svg>
