<?xml version="1.0" encoding="utf-8"?>
<!-- Generator: Adobe Illustrator 19.1.1, SVG Export Plug-In . SVG Version: 6.00 Build 0)  -->
<svg version="1.1" xmlns="http://www.w3.org/2000/svg" xmlns:xlink="http://www.w3.org/1999/xlink" x="0px" y="0px"
	 viewBox="0 0 22 22" enable-background="new 0 0 22 22" xml:space="preserve">
<g id="Слой_2" display="none">
</g>
<g id="Android_x5F_4" display="none">
</g>
<g id="Android_x5F_5" display="none">
</g>
<g id="Windows_x5F_8" display="none">
</g>
<g id="Windows_x5F_10" display="none">
</g>
<g id="Color" display="none">
</g>
<g id="IOS" display="none">
</g>
<g id="IOS_copy">
	<path d="M22,18c-0.1-0.8-0.5-1.6-1.1-2.1C17.3,12.7,13.2,9,12.3,8c1.1-2,0.8-4.4-0.9-6.1l-0.3-0.3C9.6,0.1,6.4,0.1,5,0c0,0,0,0,0,0
		C4.6,0,4.3,0.3,4.1,0.6C4,1,4.1,1.4,4.3,1.7l2.6,2.6l-0.7,2l-2,0.7L1.7,4.3C1.4,4.1,1,4,0.6,4.1C0.3,4.3,0.1,4.6,0,5
		c0,2.1,0.2,4.7,1.6,6.1l0.3,0.3c1,1,2.4,1.6,3.7,1.5c0.8,0,1.6-0.2,2.4-0.6l7.8,8.6c0.6,0.6,1.6,1.1,2.6,1.1c0.8,0,1.7-0.3,2.5-1.1
		C22,19.9,22.1,18.7,22,18z M3.3,10.1L3,9.8C2.5,9.3,2.2,8.4,2.1,7.4l1.2,1.2C3.6,8.9,4,9,4.3,8.9l3-1c0.3-0.1,0.5-0.3,0.6-0.6l1-3
		c0.1-0.3,0-0.7-0.2-1L7.4,2.1C8.4,2.2,9.3,2.5,9.8,3l0.3,0.3c1.3,1.3,1.3,3.4,0,4.7l-2,2C6.7,11.4,4.6,11.4,3.3,10.1z M19.7,19.7
		c-1.2,1.2-2.5,0-2.5,0c0,0,0,0,0,0l-7.7-8.4l1.7-1.8c1,1.1,3.4,3.3,8.4,7.7c0.2,0.2,0.5,0.6,0.5,1.1C20.3,18.8,20.1,19.2,19.7,19.7
		z"/>
</g>
</svg>
