<?xml version="1.0" encoding="utf-8"?>
<!-- Generator: Adobe Illustrator 19.1.1, SVG Export Plug-In . SVG Version: 6.00 Build 0)  -->
<svg version="1.1" id="Layer_9" xmlns="http://www.w3.org/2000/svg" xmlns:xlink="http://www.w3.org/1999/xlink" x="0px" y="0px"
	 viewBox="0 0 22 22" enable-background="new 0 0 22 22" xml:space="preserve">
<path d="M5,0C4.6,0,4.2,0.3,4.1,0.6C3.9,1,4,1.4,4.3,1.7l2.6,2.6L6.3,6.2L4.4,6.8L1.8,4.2C1.5,3.9,1.1,3.8,0.7,4
	C0.3,4.2,0.1,4.5,0.1,4.9c0,2.1,0.2,4.7,1.6,6.2L2,11.4c1,1,2.3,1.6,3.7,1.6s2.8-0.5,3.8-1.6l2-2.1c2.1-2.1,2.1-5.4,0-7.5l-0.3-0.3
	C9.8,0.2,7.1,0,5,0z M14,9.3c-0.3,0.5-0.7,1-1.1,1.4l-2,2.1c-0.4,0.4-0.9,0.8-1.4,1.1l6.3,7c0.5,0.5,1.4,1.1,2.6,1.1
	c0.9,0,1.8-0.4,2.5-1.1c1.1-1.1,1.2-2.3,1.1-3.1c-0.1-0.8-0.5-1.6-1.1-2.2L14,9.3z"/>
</svg>
