<?xml version="1.0" encoding="utf-8"?>
<!-- Generator: Adobe Illustrator 19.1.1, SVG Export Plug-In . SVG Version: 6.00 Build 0)  -->
<svg version="1.1" xmlns="http://www.w3.org/2000/svg" xmlns:xlink="http://www.w3.org/1999/xlink" x="0px" y="0px"
	 viewBox="0 0 22 22" enable-background="new 0 0 22 22" xml:space="preserve">
<g id="Слой_2" display="none">
</g>
<g id="Android_x5F_4" display="none">
</g>
<g id="Android_x5F_5" display="none">
</g>
<g id="Windows_x5F_8" display="none">
</g>
<g id="Windows_x5F_10" display="none">
</g>
<g id="Color" display="none">
</g>
<g id="IOS" display="none">
</g>
<g id="IOS_copy">
	<path d="M13.1,22H9l-0.5-3.2c-0.4-0.1-0.7-0.2-1.1-0.4l-2.7,1.8l-3-3l1.8-2.7c-0.2-0.3-0.3-0.7-0.4-1L0,13V8.8l3.1-0.5
		c0.1-0.4,0.3-0.7,0.4-1.1L1.7,4.7l3-3l2.7,1.9c0.3-0.2,0.7-0.3,1-0.4L9,0h4.2l0.5,3.2c0.3,0.1,0.7,0.2,1,0.4l2.6-1.9l2.9,2.9
		l-1.8,2.7c0.2,0.3,0.3,0.7,0.4,1L22,8.8V13l-3.1,0.6c-0.1,0.3-0.2,0.7-0.4,1.1l1.9,2.6l-3,3l-2.7-1.8c-0.4,0.2-0.7,0.3-1,0.4
		L13.1,22z M10.6,20h0.8l0.5-2.8l0.6-0.2c0.6-0.2,1.2-0.4,1.8-0.7l0.5-0.3l2.3,1.6l0.6-0.6l-1.7-2.3l0.4-0.6
		c0.3-0.5,0.5-1.1,0.7-1.7l0.2-0.6l2.7-0.6v-0.8L17.2,10L17,9.4c-0.2-0.6-0.4-1.2-0.7-1.8L16,7.1l1.6-2.3l-0.5-0.5L14.8,6l-0.6-0.4
		c-0.5-0.3-1.1-0.5-1.7-0.7l-0.6-0.2L11.5,2h-0.8l-0.5,2.8L9.6,4.9C9,5.1,8.4,5.4,7.7,5.7L7.2,5.9L4.9,4.3L4.3,4.9l1.6,2.3L5.5,7.7
		C5.2,8.2,5,8.8,4.9,9.3L4.8,10L2,10.5v0.8l2.7,0.5l0.2,0.6c0.2,0.5,0.4,1.2,0.7,1.8l0.3,0.5L4.3,17l0.6,0.6L7.3,16l0.6,0.4
		c0.5,0.3,1.1,0.5,1.7,0.7l0.6,0.2L10.6,20z M11,14.9c-2.2,0-4-1.8-4-4c0-2.2,1.8-4,4-4s4,1.8,4,4C15,13.2,13.2,14.9,11,14.9z M11,9
		c-1.1,0-2,0.9-2,2c0,1.1,0.9,2,2,2s2-0.9,2-2C13,9.8,12.1,9,11,9z"/>
</g>
</svg>
