<?xml version="1.0" encoding="utf-8"?>
<!-- Generator: Adobe Illustrator 19.1.1, SVG Export Plug-In . SVG Version: 6.00 Build 0)  -->
<svg version="1.1" xmlns="http://www.w3.org/2000/svg" xmlns:xlink="http://www.w3.org/1999/xlink" x="0px" y="0px"
	 viewBox="0 0 24 16" enable-background="new 0 0 24 16" xml:space="preserve">
<g id="Слой_2" display="none">
</g>
<g id="Android_x5F_4" display="none">
</g>
<g id="Android_x5F_5" display="none">
</g>
<g id="Windows_x5F_8" display="none">
</g>
<g id="Windows_x5F_10" display="none">
</g>
<g id="Color" display="none">
</g>
<g id="IOS" display="none">
</g>
<g id="IOS_copy">
	<path d="M19.5,16H5c-2.8,0-5-2.2-5-5c0-2,1.2-3.8,3-4.6C3.3,4.5,5,3,7,3c0.4,0,0.8,0.1,1.1,0.2C9.4,1.2,11.6,0,14,0
		c3.9,0,7,3.1,7,7c0,0.1,0,0.2,0,0.3c1.8,0.6,3,2.3,3,4.2C24,14,22,16,19.5,16z M5,7C5,7,5,7,5,7l0,0.9L4.3,8.1C2.9,8.4,2,9.6,2,11
		c0,1.7,1.3,3,3,3h14.5c1.4,0,2.5-1.1,2.5-2.5c0-1.3-1-2.3-2.2-2.5l-1-0.1l0.2-1C19,7.6,19,7.3,19,7c0-2.8-2.2-5-5-5
		c-1.9,0-3.7,1.1-4.5,2.9L9,5.9L8,5.3C7.7,5.1,7.4,5,7,5C5.9,5,5,5.9,5,7C5,7,5,7,5,7z"/>
</g>
</svg>
