<svg version="1.1" id="Layer_1" xmlns="http://www.w3.org/2000/svg" x="0px" y="0px" viewBox="0 0 20 20">
<path d="M10,0C4.5,0,0,4.5,0,10c0,5.5,4.5,10,10,10c5.5,0,10-4.5,10-10C20,4.5,15.5,0,10,0z M13.3,15.3c-0.3,0.3-0.5,0.5-0.9,0.6
	c-0.3,0.1-0.7,0.2-1,0.2c-0.1,0-0.1,0-0.2,0c-0.2,0-0.3,0-0.5-0.1c-0.2-0.1-0.4-0.1-0.6-0.2c-0.2-0.1-0.4-0.2-0.6-0.2
	c-0.2-0.1-0.4-0.1-0.7-0.1c-0.2,0-0.5,0.1-0.7,0.2c-0.2,0.1-0.4,0.2-0.6,0.4l-0.6-1c0.2-0.1,1-1.7,1-2.9c0-0.3-0.1-0.6-0.2-1H6v-1
	h1.5C7.3,9.1,7,8.1,7,7c0-2.9,2.5-3,3-3c0,0,3,0,3,3h-2c0-1.1-1-1-1-1C9,6,9,7,9,7c0,0.9,0.3,1.8,0.5,2.6c0,0.1,0.1,0.2,0.1,0.3H11
	v1H9.9c0.1,0.3,0.1,0.7,0.1,1c0,0.4-0.1,1-0.2,1.5c0.1,0,0.3,0.1,0.4,0.1c0.2,0.1,0.5,0.2,0.7,0.3c0.2,0.1,0.4,0.1,0.6,0.2
	c0,0,0,0,0,0l0,0c0.4,0,0.6-0.2,0.7-0.6l1.4,1.5C13.5,15,13.4,15.2,13.3,15.3z"/>
</svg>
