<?xml version="1.0" encoding="utf-8"?>
<!-- Generator: Adobe Illustrator 19.1.1, SVG Export Plug-In . SVG Version: 6.00 Build 0)  -->
<svg version="1.1" xmlns="http://www.w3.org/2000/svg" xmlns:xlink="http://www.w3.org/1999/xlink" x="0px" y="0px"
	 viewBox="0 0 20 20" enable-background="new 0 0 20 20" xml:space="preserve">
<g id="Слой_2" display="none">
</g>
<g id="Android_x5F_4" display="none">
</g>
<g id="Android_x5F_5" display="none">
</g>
<g id="Windows_x5F_8" display="none">
</g>
<g id="Windows_x5F_10" display="none">
</g>
<g id="Color" display="none">
</g>
<g id="IOS" display="none">
</g>
<g id="IOS_copy">
	<path d="M10,0C4.5,0,0,4.5,0,10s4.5,10,10,10s10-4.5,10-10S15.5,0,10,0z M10,18c-4.4,0-8-3.6-8-8s3.6-8,8-8s8,3.6,8,8
		S14.4,18,10,18z M9,7.7c0,2.1,4.5,1.3,4.5,4.8c0,2.5-2.4,2.8-2.8,2.8v1.4H9.6v-1.4c-0.4,0-3-0.3-3-3.3h2c0,0.3,0,1.7,1.5,1.7
		c1.3,0,1.3-1,1.3-1.2c0-2.2-4.5-1.3-4.5-4.8c0-2.1,1.9-2.8,2.8-2.8V3.4h1.1v1.5c0.7,0.1,2.6,0.6,2.6,3.2h-2c0-0.6-0.1-1.7-1.3-1.7
		C9,6.5,9,7.5,9,7.7z"/>
</g>
</svg>
