<?xml version="1.0" encoding="utf-8"?>
<!-- Generator: Adobe Illustrator 19.1.1, SVG Export Plug-In . SVG Version: 6.00 Build 0)  -->
<svg version="1.1" id="Layer_9" xmlns="http://www.w3.org/2000/svg" xmlns:xlink="http://www.w3.org/1999/xlink" x="0px" y="0px"
	 viewBox="0 0 18 22" enable-background="new 0 0 18 22" xml:space="preserve">
<path d="M9,0C7.9,0,7,0.9,7,2v0.3C4.1,3.1,2,5.8,2,9v4.2C2,14.1,1.7,15,1.2,16l-1,1.5c-0.2,0.3-0.2,0.7,0,1S0.6,19,1,19h5
	c0,1.6,1.4,3,3,3s3-1.4,3-3h5c0.4,0,0.7-0.2,0.9-0.5c0.2-0.3,0.2-0.7,0-1l-1-1.4c-0.6-1-0.8-1.9-0.8-2.8V9c0-3.2-2.1-5.9-5-6.7V2
	C11,0.9,10.1,0,9,0z M8,19h2c0,0.6-0.4,1-1,1S8,19.6,8,19z"/>
</svg>
