<?xml version="1.0" encoding="utf-8"?>
<!-- Generator: Adobe Illustrator 19.1.1, SVG Export Plug-In . SVG Version: 6.00 Build 0)  -->
<svg version="1.1" xmlns="http://www.w3.org/2000/svg" xmlns:xlink="http://www.w3.org/1999/xlink" x="0px" y="0px"
	 viewBox="0 0 18 22" enable-background="new 0 0 18 22" xml:space="preserve">
<g id="Слой_2" display="none">
</g>
<g id="Android_x5F_4" display="none">
</g>
<g id="Android_x5F_5" display="none">
</g>
<g id="Windows_x5F_8" display="none">
</g>
<g id="Windows_x5F_10" display="none">
</g>
<g id="Color" display="none">
</g>
<g id="IOS" display="none">
</g>
<g id="IOS_copy">
	<path d="M17.8,17.4l-1-1.5c-0.6-1-0.9-1.9-0.9-2.8V9c0-3.2-2.1-5.8-5-6.7V2c0-1.1-0.9-2-2-2S7,0.9,7,2v0.3C4.1,3.2,2,5.8,2,9v4.2
		c0,0.9-0.3,1.8-0.8,2.7l-1,1.5c-0.2,0.3-0.2,0.7,0,1S0.6,19,1,19h5c0,1.7,1.3,3,3,3s3-1.3,3-3h5c0.4,0,0.7-0.2,0.9-0.5
		S18,17.8,17.8,17.4z M9,20c-0.6,0-1-0.4-1-1h2C10,19.6,9.6,20,9,20z M2.9,17C3.6,15.7,4,14.5,4,13.2V9c0-2.8,2.2-5,5-5s5,2.2,5,5
		v4.2c0,1.2,0.4,2.5,1.1,3.8H2.9z"/>
</g>
</svg>
