<?xml version="1.0" encoding="utf-8"?>
<!-- Generator: Adobe Illustrator 19.1.1, SVG Export Plug-In . SVG Version: 6.00 Build 0)  -->
<svg version="1.1" xmlns="http://www.w3.org/2000/svg" xmlns:xlink="http://www.w3.org/1999/xlink" x="0px" y="0px"
	 viewBox="0 0 20 20" enable-background="new 0 0 20 20" xml:space="preserve">
<g id="Слой_2" display="none">
</g>
<g id="Android_x5F_4" display="none">
</g>
<g id="Android_x5F_5" display="none">
</g>
<g id="Windows_x5F_8" display="none">
</g>
<g id="Windows_x5F_10" display="none">
</g>
<g id="Color" display="none">
</g>
<g id="IOS" display="none">
</g>
<g id="IOS_copy">
	<path d="M18.6,2H16V1c0-0.6-0.4-1-1-1c-0.6,0-1,0.4-1,1v1H6V1c0-0.6-0.4-1-1-1C4.4,0,4,0.4,4,1v1H1.4C0.6,2,0,2.6,0,3.4v15.3
		C0,19.4,0.6,20,1.4,20h17.3c0.8,0,1.4-0.6,1.4-1.4V3.4C20,2.6,19.4,2,18.6,2z M4,4c0,0.6,0.4,1,1,1c0.6,0,1-0.4,1-1h8
		c0,0.6,0.4,1,1,1c0.6,0,1-0.4,1-1h2v2H2V4H4z M2,18V8h16v10H2z M5,10h2v2H5V10z M9,10h2v2H9V10z M13,10h2v2h-2V10z M5,14h2v2H5V14z
		 M9,14h2v2H9V14z M13,14h2v2h-2V14z"/>
</g>
</svg>
