<?xml version="1.0" encoding="utf-8"?>
<!-- Generator: Adobe Illustrator 19.1.1, SVG Export Plug-In . SVG Version: 6.00 Build 0)  -->
<svg version="1.1" id="Layer_9" xmlns="http://www.w3.org/2000/svg" xmlns:xlink="http://www.w3.org/1999/xlink" x="0px" y="0px"
	 viewBox="0 0 20 20" enable-background="new 0 0 20 20" xml:space="preserve">
<path d="M5,0C4.4,0,4,0.4,4,1v1H1.4C0.6,2,0,2.6,0,3.4V6h20V3.4C20,2.6,19.4,2,18.6,2H17v2c0,0.6-0.4,1-1,1c-0.2,0-0.4-0.1-0.5-0.2
	C15.8,4.7,16,4.4,16,4V1c0-0.6-0.4-1-1-1s-1,0.4-1,1v1H7v2c0,0.6-0.4,1-1,1C5.8,5,5.6,4.9,5.5,4.8C5.8,4.7,6,4.4,6,4V1
	C6,0.4,5.6,0,5,0z M0,8v10.6C0,19.4,0.6,20,1.4,20h17.2c0.8,0,1.4-0.6,1.4-1.4V8H0z M5,11h2v2H5V11z M9,11h2v2H9V11z M13,11h2v2h-2
	V11z M5,15h2v2H5V15z M9,15h2v2H9V15z M13,15h2v2h-2V15z"/>
</svg>
