<?xml version="1.0" encoding="utf-8"?>
<!-- Generator: Adobe Illustrator 19.1.1, SVG Export Plug-In . SVG Version: 6.00 Build 0)  -->
<svg version="1.1" id="Layer_9" xmlns="http://www.w3.org/2000/svg" xmlns:xlink="http://www.w3.org/1999/xlink" x="0px" y="0px"
	 viewBox="0 0 23 18" enable-background="new 0 0 23 18" xml:space="preserve">
<path d="M19.6,2L21,3.5L8.3,16L2,9.8l1.4-1.4l4.9,4.8L19.6,2 M19.6,0c-0.5,0-1,0.2-1.4,0.6l-9.9,9.8L4.8,7C4.4,6.6,3.9,6.4,3.4,6.4
	S2.4,6.6,2,7L0.6,8.4C0.2,8.8,0,9.3,0,9.8s0.2,1,0.6,1.4l6.3,6.2C7.3,17.8,7.8,18,8.3,18s1-0.2,1.4-0.6L22.4,4.8
	C22.8,4.4,23,3.9,23,3.4s-0.2-1-0.6-1.4L21,0.6C20.6,0.2,20.1,0,19.6,0L19.6,0z"/>
</svg>
