<?xml version="1.0" encoding="utf-8"?>
<!-- Generator: Adobe Illustrator 19.1.1, SVG Export Plug-In . SVG Version: 6.00 Build 0)  -->
<svg version="1.1" id="Layer_9" xmlns="http://www.w3.org/2000/svg" xmlns:xlink="http://www.w3.org/1999/xlink" x="0px" y="0px"
	 viewBox="0 0 30 18" enable-background="new 0 0 30 18" xml:space="preserve">
<path d="M28.6,8.4C28.4,8.1,22.4,0,14.8,0S1.2,8.1,1,8.4L0.6,9L1,9.6C1.2,9.9,7.2,18,14.8,18s13.6-8.1,13.8-8.4L29,9L28.6,8.4z
	 M14.8,14c-2.8,0-5-2.2-5-5s2.2-5,5-5s5,2.2,5,5S17.6,14,14.8,14z M14.8,7c1.1,0,2,0.9,2,2s-0.9,2-2,2s-2-0.9-2-2S13.7,7,14.8,7z"/>
</svg>
