<?xml version="1.0" encoding="utf-8"?>
<!-- Generator: Adobe Illustrator 19.1.1, SVG Export Plug-In . SVG Version: 6.00 Build 0)  -->
<svg version="1.1" xmlns="http://www.w3.org/2000/svg" xmlns:xlink="http://www.w3.org/1999/xlink" x="0px" y="0px"
	 viewBox="0 0 30 18" enable-background="new 0 0 30 18" xml:space="preserve">
<g id="Слой_2" display="none">
</g>
<g id="Android_x5F_4" display="none">
</g>
<g id="Android_x5F_5" display="none">
</g>
<g id="Windows_x5F_8" display="none">
</g>
<g id="Windows_x5F_10" display="none">
</g>
<g id="Color" display="none">
</g>
<g id="IOS" display="none">
</g>
<g id="IOS_copy">
	<path d="M15,18C7.4,18,1.4,9.9,1.2,9.6L0.8,9l0.4-0.6C1.4,8.1,7.4,0,15,0s13.6,8.1,13.8,8.4L29.2,9l-0.4,0.6
		C28.6,9.9,22.6,18,15,18z M3.3,9c1.5,1.8,6.2,7,11.7,7s10.3-5.2,11.7-7C25.3,7.2,20.5,2,15,2S4.7,7.2,3.3,9z M15,15
		c-3.3,0-6-2.7-6-6s2.7-6,6-6s6,2.7,6,6S18.3,15,15,15z M15,5c-2.2,0-4,1.8-4,4s1.8,4,4,4s4-1.8,4-4S17.2,5,15,5z M13,9
		c0,1.1,0.9,2,2,2c1.1,0,2-0.9,2-2s-0.9-2-2-2C13.9,7,13,7.9,13,9z"/>
</g>
</svg>
