<?xml version="1.0" encoding="utf-8"?>
<!-- Generator: Adobe Illustrator 19.1.1, SVG Export Plug-In . SVG Version: 6.00 Build 0)  -->
<svg version="1.1" xmlns="http://www.w3.org/2000/svg" xmlns:xlink="http://www.w3.org/1999/xlink" x="0px" y="0px"
	 viewBox="0 0 27 14" enable-background="new 0 0 27 14" xml:space="preserve">
<g id="Слой_2" display="none">
</g>
<g id="Android_x5F_4" display="none">
</g>
<g id="Android_x5F_5" display="none">
</g>
<g id="Windows_x5F_8" display="none">
</g>
<g id="Windows_x5F_10" display="none">
</g>
<g id="Color" display="none">
</g>
<g id="IOS" display="none">
</g>
<g id="IOS_copy">
	<path d="M26.8,7.6l-2.9-3.4c1.3-1.4,2-2.6,2-2.8C26.1,1,26,0.4,25.5,0.1C25-0.1,24.4,0,24.1,0.5C24.1,0.6,20.5,7,14,7
		C7.5,7,3.9,0.6,3.9,0.5C3.6,0,3-0.1,2.5,0.1C2,0.4,1.9,1,2.1,1.5c0.1,0.1,0.8,1.3,2,2.8L1.2,7.6C0.9,8,0.9,8.6,1.3,9
		C1.5,9.2,1.8,9.3,2,9.3c0.3,0,0.6-0.1,0.8-0.3l2.8-3.3C5.9,6,6.3,6.3,6.8,6.6l-2.1,3.6c-0.3,0.5-0.1,1.1,0.4,1.4
		c0.2,0.1,0.3,0.1,0.5,0.1c0.3,0,0.7-0.2,0.9-0.5l2.1-3.6c0.4,0.2,0.9,0.4,1.4,0.6l-1.2,4c-0.2,0.5,0.1,1.1,0.7,1.3
		c0.1,0,0.2,0,0.3,0c0.4,0,0.8-0.3,1-0.7l1.3-4.1c0.4,0.1,0.8,0.1,1.2,0.2V13c0,0.6,0.4,1,1,1s1-0.4,1-1V8.9c0.4,0,0.8-0.1,1.2-0.2
		l1.3,4.1c0.1,0.4,0.5,0.7,1,0.7c0.1,0,0.2,0,0.3,0c0.5-0.2,0.8-0.7,0.7-1.3l-1.2-4c0.5-0.2,1-0.4,1.4-0.6l2.1,3.6
		c0.2,0.3,0.5,0.5,0.9,0.5c0.2,0,0.3,0,0.5-0.1c0.5-0.3,0.6-0.9,0.4-1.4l-2.1-3.6c0.4-0.3,0.8-0.6,1.2-0.9l2.8,3.3
		c0.2,0.2,0.5,0.3,0.8,0.3c0.2,0,0.5-0.1,0.7-0.2C27.1,8.6,27.1,8,26.8,7.6z"/>
</g>
</svg>
