<?xml version="1.0" encoding="utf-8"?>
<!-- Generator: Adobe Illustrator 19.1.1, SVG Export Plug-In . SVG Version: 6.00 Build 0)  -->
<svg version="1.1" id="Layer_9" xmlns="http://www.w3.org/2000/svg" xmlns:xlink="http://www.w3.org/1999/xlink" x="0px" y="0px"
	 viewBox="0 0 26 14" enable-background="new 0 0 26 14" xml:space="preserve">
<path d="M3.7,0c-1.1,0.1-2,1-1.9,2.1c0,0.3,0.1,0.7,0.3,1c0,0,0.3,0.5,0.9,1.2L0.3,7.6c-0.4,0.4-0.4,1,0,1.4s1,0.4,1.4,0l0.1-0.1
	l2.6-3.2c0.4,0.3,0.7,0.6,1.2,1l-2.1,3.6c-0.3,0.5-0.1,1.1,0.4,1.4s1.1,0.1,1.4-0.4l0,0l2.1-3.5C7.8,8,8.3,8.2,8.8,8.4l-1.3,4
	c-0.2,0.5,0.1,1.1,0.6,1.3s1.1-0.1,1.3-0.6V13l1.3-4.1C11.1,9,11.5,9,11.9,9.1V13c0,0.6,0.4,1,1,1c0.6,0,1-0.4,1-1l0,0V8.9
	c0.4,0,0.8-0.1,1.2-0.2l1.3,4.1c0.1,0.5,0.7,0.9,1.2,0.7c0.5-0.1,0.9-0.7,0.7-1.2v-0.1l-1.3-4c0.5-0.2,1-0.4,1.4-0.6l2.1,3.5
	c0.3,0.5,0.9,0.7,1.4,0.4s0.7-0.9,0.4-1.4l0,0l-2.1-3.6c0.4-0.3,0.8-0.6,1.2-1l2.8,3.3c0.3,0.4,1,0.5,1.4,0.2s0.5-1,0.2-1.4
	l-0.1-0.1l-2.9-3.4c0.6-0.6,0.9-1,0.9-1C24.3,2.2,24,0.9,23,0.3s-2.3-0.1-2.9,0.9l0,0c0,0-2.4,3.8-7.3,3.8S5.5,1,5.5,1
	C5.1,0.3,4.4-0.1,3.7,0z"/>
</svg>
