<?xml version="1.0" encoding="utf-8"?>
<!-- Generator: Adobe Illustrator 19.1.1, SVG Export Plug-In . SVG Version: 6.00 Build 0)  -->
<svg version="1.1" id="Layer_9" xmlns="http://www.w3.org/2000/svg" xmlns:xlink="http://www.w3.org/1999/xlink" x="0px" y="0px"
	 viewBox="0 0 20 20" enable-background="new 0 0 20 20" xml:space="preserve">
<path d="M10,0C4.5,0,0,4.5,0,10s4.5,10,10,10s10-4.5,10-10S15.5,0,10,0z M11,15H9v-2h2V15z M12,10c-0.5,0.6-1,1.2-1,2H9
	c0-1.5,0.9-2.6,1.5-3.3C10.7,8.4,11,8.1,11,8c0-0.8-0.6-0.9-1-1C9.2,7,9,7.5,9,8H7c0-1.2,0.8-3,3-3c1.2,0,3,0.8,3,3
	C13,8.8,12.5,9.4,12,10z"/>
</svg>
