<?xml version="1.0" encoding="utf-8"?>
<!-- Generator: Adobe Illustrator 19.1.1, SVG Export Plug-In . SVG Version: 6.00 Build 0)  -->
<svg version="1.1" xmlns="http://www.w3.org/2000/svg" xmlns:xlink="http://www.w3.org/1999/xlink" x="0px" y="0px"
	 viewBox="0 0 20 20" enable-background="new 0 0 20 20" xml:space="preserve">
<g id="Слой_2" display="none">
</g>
<g id="Android_x5F_4" display="none">
</g>
<g id="Android_x5F_5" display="none">
</g>
<g id="Windows_x5F_8" display="none">
</g>
<g id="Windows_x5F_10" display="none">
</g>
<g id="Color" display="none">
</g>
<g id="IOS" display="none">
</g>
<g id="IOS_copy">
	<path d="M10,20C4.5,20,0,15.5,0,10S4.5,0,10,0s10,4.5,10,10S15.5,20,10,20z M10,2c-4.4,0-8,3.6-8,8s3.6,8,8,8s8-3.6,8-8
		S14.4,2,10,2z M11,13H9v2h2V13z M12,10c0.5-0.6,1-1.2,1-2c0-2.2-1.8-3-3-3C7.8,5,7,6.8,7,8l2,0c0-0.5,0.2-1,1-1c0.5,0,1,0.2,1,1
		c0,0.1-0.3,0.5-0.5,0.7C9.9,9.4,9,10.5,9,12h2C11,11.2,11.5,10.6,12,10z"/>
</g>
</svg>
