<?xml version="1.0" encoding="utf-8"?>
<!-- Generator: Adobe Illustrator 19.1.1, SVG Export Plug-In . SVG Version: 6.00 Build 0)  -->
<svg version="1.1" id="Layer_9" xmlns="http://www.w3.org/2000/svg" xmlns:xlink="http://www.w3.org/1999/xlink" x="0px" y="0px"
	 viewBox="0 0 20 20" enable-background="new 0 0 20 20" xml:space="preserve">
<path d="M10,0C4.5,0,0,4.5,0,10s4.5,10,10,10s10-4.5,10-10S15.5,0,10,0z M11,14.8c0,0.1-0.1,0.2-0.2,0.2H9.2C9.1,15,9,14.9,9,14.8
	v-1.6C9,13.1,9.1,13,9.2,13h1.6c0.1,0,0.2,0.1,0.2,0.2C11,13.2,11,14.8,11,14.8z M11,10.8c0,0.1-0.1,0.2-0.2,0.2H9.2
	C9.1,11,9,10.9,9,10.8V5.2C9,5.1,9.1,5,9.2,5h1.6C10.9,5,11,5.1,11,5.2C11,5.2,11,10.8,11,10.8z"/>
</svg>
