<?xml version="1.0" encoding="utf-8"?>
<!-- Generator: Adobe Illustrator 19.1.1, SVG Export Plug-In . SVG Version: 6.00 Build 0)  -->
<svg version="1.1" xmlns="http://www.w3.org/2000/svg" xmlns:xlink="http://www.w3.org/1999/xlink" x="0px" y="0px"
	 viewBox="0 0 18 20" enable-background="new 0 0 18 20" xml:space="preserve">
<g id="Слой_2" display="none">
</g>
<g id="Android_x5F_4" display="none">
</g>
<g id="Android_x5F_5" display="none">
</g>
<g id="Windows_x5F_8" display="none">
</g>
<g id="Windows_x5F_10" display="none">
</g>
<g id="Color" display="none">
</g>
<g id="IOS" display="none">
</g>
<g id="IOS_copy">
	<path d="M12,5c0,2.2-3,3-3,3S6,7.2,6,5H12z M18,19c0,0.6-0.4,1-1,1H1c-0.6,0-1-0.4-1-1c0-0.6,0.4-1,1-1h1v-3c0-1.5,0.7-2.7,2-3.7
		L5.5,10L3.9,8.7C2.7,7.7,2,6.4,2,5V2H1C0.4,2,0,1.6,0,1c0-0.6,0.4-1,1-1h16c0.6,0,1,0.4,1,1c0,0.6-0.4,1-1,1h-1v3
		c0,1.4-0.7,2.7-2,3.7L12.5,10l1.5,1.3c1.3,1,1.9,2.3,1.9,3.7v3h1C17.6,18,18,18.4,18,19z M12,18h2v-3c0-0.9-0.4-1.5-1.2-2.2
		l-2.4-2.1C10.1,10.6,10,10.3,10,10s0.1-0.6,0.4-0.8l2.4-2C13.6,6.5,14,5.8,14,5V2H4v3c0,0.8,0.4,1.5,1.2,2.2l2.4,2.1
		C7.9,9.4,8,9.7,8,10s-0.1,0.6-0.4,0.8l-2.4,2C4.4,13.5,4,14.1,4,15v3h2c0-2,3-4,3-4S12,16,12,18z"/>
</g>
</svg>
