<?xml version="1.0" encoding="utf-8"?>
<!-- Generator: Adobe Illustrator 19.1.1, SVG Export Plug-In . SVG Version: 6.00 Build 0)  -->
<svg version="1.1" id="Layer_9" xmlns="http://www.w3.org/2000/svg" xmlns:xlink="http://www.w3.org/1999/xlink" x="0px" y="0px"
	 viewBox="0 0 22 22" enable-background="new 0 0 22 22" xml:space="preserve">
<path d="M11.9,0L11.9,0c-0.6,0.1-1,0.6-0.9,1.2c0,0.2,0.1,0.4,0.3,0.6l0.3,0.3c-1.9,2.3-3,5.2-3.4,6.3l-3,1.5L4.7,9.4
	C4.5,9,4.1,8.9,3.8,9C3.3,9.1,2.9,9.6,3,10.2c0,0.2,0.1,0.4,0.3,0.6l1,1l6,6l1,1c0.4,0.4,1,0.4,1.4,0c0.4-0.4,0.4-1,0-1.4l-0.5-0.5
	l1.5-3c1.1-0.4,4-1.5,6.3-3.4l0.3,0.3c0.4,0.4,1,0.4,1.4,0c0.4-0.4,0.4-1,0-1.4l-1-1l-7-7l-1-1C12.5,0.1,12.2-0.1,11.9,0z M5.9,14.7
	l-5.6,5.6l1.4,1.4l5.6-5.6L5.9,14.7z"/>
</svg>
