<?xml version="1.0" encoding="utf-8"?>
<!-- Generator: Adobe Illustrator 19.1.1, SVG Export Plug-In . SVG Version: 6.00 Build 0)  -->
<svg version="1.1" xmlns="http://www.w3.org/2000/svg" xmlns:xlink="http://www.w3.org/1999/xlink" x="0px" y="0px"
	 viewBox="0 0 22 22" enable-background="new 0 0 22 22" xml:space="preserve">
<g id="Слой_2" display="none">
</g>
<g id="Android_x5F_4" display="none">
</g>
<g id="Android_x5F_5" display="none">
</g>
<g id="Windows_x5F_8" display="none">
</g>
<g id="Windows_x5F_10" display="none">
</g>
<g id="Color" display="none">
</g>
<g id="IOS" display="none">
</g>
<g id="IOS_copy">
	<path d="M21.7,9.3l-1-1l-7-7l-1-1c-0.4-0.4-1-0.4-1.4,0s-0.4,1,0,1.4L11.6,2c-2,2.3-3.1,5.2-3.4,6.3l-3,1.5L4.7,9.3
		c-0.4-0.4-1-0.4-1.4,0s-0.4,1,0,1.4l1,1L6.6,14l-6.3,6.3l1.4,1.4L8,15.4l2.3,2.3l1,1c0.2,0.2,0.5,0.3,0.7,0.3s0.5-0.1,0.7-0.3
		c0.4-0.4,0.4-1,0-1.4l-0.5-0.5l1.5-3c1.1-0.4,4-1.5,6.3-3.4l0.3,0.3c0.2,0.2,0.5,0.3,0.7,0.3s0.5-0.1,0.7-0.3
		C22.1,10.3,22.1,9.7,21.7,9.3z M12.7,12c-0.3,0.1-0.5,0.3-0.6,0.5l-1.4,2.8l-4-4l2.8-1.4C9.7,9.8,9.9,9.6,10,9.3c0,0,1-3.4,3.1-5.8
		L18.6,9C16.1,11,12.7,12,12.7,12z"/>
</g>
</svg>
