<?xml version="1.0" encoding="utf-8"?>
<!-- Generator: Adobe Illustrator 19.1.1, SVG Export Plug-In . SVG Version: 6.00 Build 0)  -->
<svg version="1.1" xmlns="http://www.w3.org/2000/svg" xmlns:xlink="http://www.w3.org/1999/xlink" x="0px" y="0px"
	 viewBox="0 0 18 18" enable-background="new 0 0 18 18" xml:space="preserve">
<g id="Слой_2" display="none">
</g>
<g id="Android_x5F_4" display="none">
</g>
<g id="Android_x5F_5" display="none">
</g>
<g id="Windows_x5F_8" display="none">
</g>
<g id="Windows_x5F_10" display="none">
</g>
<g id="Color" display="none">
</g>
<g id="IOS" display="none">
</g>
<g id="IOS_copy">
	<path d="M1.9,18c-1,0-1.9-0.9-1.9-1.9V1.9C0,0.9,0.8,0,1.9,0C2,0,2.2,0,2.3,0.1l14.1,7C16.8,7.3,18,7.9,18,9c0,1.1-1.2,1.7-1.6,1.9
		l-14.1,7C2.2,18,2,18,1.9,18z M2,2.2v13.7l13.6-6.7c0.1,0,0.1-0.1,0.2-0.1c-0.1,0-0.1-0.1-0.2-0.1L2,2.2z"/>
</g>
</svg>
