<?xml version="1.0" encoding="utf-8"?>
<!-- Generator: Adobe Illustrator 19.1.1, SVG Export Plug-In . SVG Version: 6.00 Build 0)  -->
<svg version="1.1" id="Layer_9" xmlns="http://www.w3.org/2000/svg" xmlns:xlink="http://www.w3.org/1999/xlink" x="0px" y="0px"
	 viewBox="0 0 16 20" enable-background="new 0 0 16 20" xml:space="preserve">
<path d="M1,0C0.4,0,0,0.4,0,1v18c0,0.6,0.4,1,1,1h4c0.6,0,1-0.4,1-1V1c0-0.6-0.4-1-1-1H1z M11,0c-0.6,0-1,0.4-1,1v18
	c0,0.6,0.4,1,1,1h4c0.6,0,1-0.4,1-1V1c0-0.6-0.4-1-1-1H11z"/>
</svg>
