<?xml version="1.0" encoding="utf-8"?>
<!-- Generator: Adobe Illustrator 19.1.1, SVG Export Plug-In . SVG Version: 6.00 Build 0)  -->
<svg version="1.1" xmlns="http://www.w3.org/2000/svg" xmlns:xlink="http://www.w3.org/1999/xlink" x="0px" y="0px"
	 viewBox="0 0 16 20" enable-background="new 0 0 16 20" xml:space="preserve">
<g id="Слой_2" display="none">
</g>
<g id="Android_x5F_4" display="none">
</g>
<g id="Android_x5F_5" display="none">
</g>
<g id="Windows_x5F_8" display="none">
</g>
<g id="Windows_x5F_10" display="none">
</g>
<g id="Color" display="none">
</g>
<g id="IOS" display="none">
</g>
<g id="IOS_copy">
	<path d="M5,0H1C0.4,0,0,0.4,0,1v18c0,0.6,0.4,1,1,1h4c0.6,0,1-0.4,1-1V1C6,0.4,5.6,0,5,0z M4,18H2V2h2V18z M15,0h-4
		c-0.6,0-1,0.4-1,1v18c0,0.6,0.4,1,1,1h4c0.6,0,1-0.4,1-1V1C16,0.4,15.6,0,15,0z M14,18h-2V2h2V18z"/>
</g>
</svg>
