<?xml version="1.0" encoding="utf-8"?>
<!-- Generator: Adobe Illustrator 19.1.1, SVG Export Plug-In . SVG Version: 6.00 Build 0)  -->
<svg version="1.1" id="Layer_9" xmlns="http://www.w3.org/2000/svg" xmlns:xlink="http://www.w3.org/1999/xlink" x="0px" y="0px"
	 viewBox="0 0 22 20" enable-background="new 0 0 22 20" xml:space="preserve">
<path d="M3.3,0C2.4,0,1.6,0.4,1,1S0,2.4,0,3.3S0.3,5,1,5.6l1.4,1.3C3,7.5,4,7.9,4.9,7.8l0.6,0.7l2.9-3.2L7.9,4.7
	C8,3.8,7.6,2.9,7,2.2L5.6,1C4.9,0.4,4.1,0,3.3,0z M17.9,0c-1.3,0-2.4,0.5-3.2,1.4L4.9,12.2c-0.9-0.1-1.8,0.3-2.5,0.9L1,14.4
	c-0.6,0.6-1,1.4-1,2.3s0.3,1.7,1,2.3c0.6,0.6,1.4,1,2.3,1s1.7-0.4,2.3-1L7,17.7c0.6-0.6,1-1.6,0.9-2.5L22,0H17.9z M3.5,2.6
	c0.3,0,0.5,0.1,0.7,0.3l1,1c0.4,0.4,0.4,1,0,1.4s-1,0.4-1.4,0l-1-1c-0.4-0.4-0.4-1,0-1.4C3,2.6,3.3,2.6,3.5,2.6z M14.1,11.5l-3,3.2
	l3.6,3.9c0.8,0.9,2,1.4,3.2,1.4H22L14.1,11.5z M4.5,14.5c0.3,0,0.5,0.1,0.7,0.3c0.4,0.4,0.4,1,0,1.4l-1,1c-0.2,0.2-0.4,0.3-0.7,0.3
	S3,17.4,2.8,17.2c-0.4-0.4-0.4-1,0-1.4l1-1C4,14.6,4.3,14.5,4.5,14.5z"/>
</svg>
