<?xml version="1.0" encoding="utf-8"?>
<!-- Generator: Adobe Illustrator 19.1.1, SVG Export Plug-In . SVG Version: 6.00 Build 0)  -->
<svg version="1.1" xmlns="http://www.w3.org/2000/svg" xmlns:xlink="http://www.w3.org/1999/xlink" x="0px" y="0px"
	 viewBox="0 0 22 19" enable-background="new 0 0 22 19" xml:space="preserve">
<g id="Слой_2" display="none">
</g>
<g id="Android_x5F_4" display="none">
</g>
<g id="Android_x5F_5" display="none">
</g>
<g id="Windows_x5F_8" display="none">
</g>
<g id="Windows_x5F_10" display="none">
</g>
<g id="Color" display="none">
</g>
<g id="IOS" display="none">
</g>
<g id="IOS_copy">
	<path d="M11,15c1.1,0,2,0.9,2,2s-0.9,2-2,2c-1.1,0-2-0.9-2-2S9.9,15,11,15z M15.2,11.7c-2.3-2.3-6.1-2.3-8.4,0l1.4,1.4
		c1.5-1.5,4-1.5,5.6,0L15.2,11.7z M18.7,8.2c-4.3-4.3-11.2-4.3-15.4,0l1.4,1.4c3.5-3.5,9.1-3.5,12.6,0L18.7,8.2z M22.2,4.6
		C16-1.5,6-1.5-0.2,4.6l1.4,1.4c5.4-5.4,14.2-5.4,19.6,0L22.2,4.6z"/>
</g>
</svg>
