<?xml version="1.0" encoding="utf-8"?>
<!-- Generator: Adobe Illustrator 19.1.1, SVG Export Plug-In . SVG Version: 6.00 Build 0)  -->
<svg version="1.1" xmlns="http://www.w3.org/2000/svg" xmlns:xlink="http://www.w3.org/1999/xlink" x="0px" y="0px"
	 viewBox="0 0 26 22" enable-background="new 0 0 26 22" xml:space="preserve">
<g id="IOS">
</g>
<g id="IOS_copy">
	<path d="M25,22c-0.5,0-1-0.4-1-1c0-0.4-0.3-8.6-12-9.1v3.8c0,0.4-0.2,0.7-0.5,0.9c-0.3,0.2-0.7,0.1-1-0.1l-10-7.3
		C0.2,9.1,0,8.8,0,8.5c0-0.3,0.1-0.6,0.4-0.8l10-7.5c0.3-0.2,0.7-0.3,1-0.1C11.8,0.3,12,0.6,12,1v3.9c4.2,0.2,7.6,1.6,10,4.2
		c4.4,4.7,4,11.7,4,12C25.9,21.6,25.5,22,25,22C25,22,25,22,25,22z M2.7,8.5l7.3,5.4v-2.9c0-0.6,0.4-1,1-1c6,0,9.6,1.8,11.8,4
		c-0.5-1.2-1.2-2.4-2.2-3.5c-2.2-2.4-5.4-3.6-9.5-3.6c-0.6,0-1-0.4-1-1V3L2.7,8.5z"/>
</g>
</svg>
