<?xml version="1.0" encoding="utf-8"?>
<!-- Generator: Adobe Illustrator 19.1.1, SVG Export Plug-In . SVG Version: 6.00 Build 0)  -->
<svg version="1.1" id="Layer_9" xmlns="http://www.w3.org/2000/svg" xmlns:xlink="http://www.w3.org/1999/xlink" x="0px" y="0px"
	 viewBox="0 0 26 22" enable-background="new 0 0 26 22" xml:space="preserve">
<path d="M0.1,8.8c0,0.1,0,0.1,0.1,0.2c0,0,0,0,0,0c0,0,0.1,0.1,0.1,0.1c0,0,0.1,0.1,0.1,0.1l10,7.3c0.3,0.2,0.7,0.3,1,0.1
	c0.3-0.2,0.5-0.5,0.5-0.9v-3.8c11.7,0.4,12,8.7,12,9.1c0,0.1,0,0.1,0,0.2c0,0.1,0,0.1,0,0.2c0,0.1,0.1,0.1,0.1,0.2
	c0,0.1,0.1,0.1,0.1,0.2c0,0,0.1,0.1,0.2,0.1c0.1,0,0.1,0.1,0.2,0.1c0.1,0,0.1,0,0.2,0.1c0.1,0,0.1,0,0.2,0c0,0,0,0,0.1,0
	c0,0,0,0,0,0c0,0,0,0,0,0c0,0,0.1,0,0.1,0c0.1,0,0.2,0,0.3-0.1c0,0,0.1-0.1,0.1-0.1c0.1,0,0.1-0.1,0.2-0.1c0,0,0.1-0.1,0.1-0.1
	c0-0.1,0.1-0.1,0.1-0.2c0-0.1,0-0.1,0-0.2c0-0.1,0-0.1,0-0.2c0-0.3,0.4-7.3-4-12c-2.4-2.6-5.8-4-10-4.2V1c0-0.4-0.2-0.7-0.6-0.9
	c-0.3-0.2-0.7-0.1-1,0.1l-10,7.5c0,0-0.1,0.1-0.1,0.1c0,0-0.1,0.1-0.1,0.1c0,0,0,0,0,0C0.1,8,0.1,8,0.1,8.1C0,8.2,0,8.2,0,8.3
	c0,0.1,0,0.1,0,0.2c0,0.1,0,0.1,0,0.2C0,8.7,0,8.8,0.1,8.8z"/>
</svg>
