<?xml version="1.0" encoding="utf-8"?>
<!-- Generator: Adobe Illustrator 19.1.1, SVG Export Plug-In . SVG Version: 6.00 Build 0)  -->
<svg version="1.1" xmlns="http://www.w3.org/2000/svg" xmlns:xlink="http://www.w3.org/1999/xlink" x="0px" y="0px"
	 viewBox="0 0 19 20" enable-background="new 0 0 19 20" xml:space="preserve">
<g id="Слой_2" display="none">
</g>
<g id="Android_x5F_4" display="none">
</g>
<g id="Android_x5F_5" display="none">
</g>
<g id="Windows_x5F_8" display="none">
</g>
<g id="Windows_x5F_10" display="none">
</g>
<g id="Color" display="none">
</g>
<g id="IOS" display="none">
</g>
<g id="IOS_copy">
	<path d="M11.7,0.3c-0.4-0.4-1-0.4-1.4,0s-0.4,1,0,1.4L14.6,6H6c-3.6,0-6,2.4-6,6v7c0,0.6,0.4,1,1,1s1-0.4,1-1v-7c0-2.5,1.5-4,4-4
		h8.6l-4.3,4.3c-0.4,0.4-0.4,1,0,1.4c0.2,0.2,0.5,0.3,0.7,0.3s0.5-0.1,0.7-0.3L18.4,7L11.7,0.3z"/>
</g>
</svg>
