<?xml version="1.0" encoding="utf-8"?>
<!-- Generator: Adobe Illustrator 19.1.1, SVG Export Plug-In . SVG Version: 6.00 Build 0)  -->
<svg version="1.1" xmlns="http://www.w3.org/2000/svg" xmlns:xlink="http://www.w3.org/1999/xlink" x="0px" y="0px"
	 viewBox="0 0 26 22" enable-background="new 0 0 26 22" xml:space="preserve">
<g id="IOS">
</g>
<g id="IOS_copy">
	<path d="M1,22c-0.5,0-1-0.4-1-0.9c0-0.3-0.4-7.3,4-12c2.4-2.6,5.8-4,10-4.2V1c0-0.4,0.2-0.7,0.6-0.9c0.3-0.2,0.7-0.1,1,0.1l10,7.5
		C25.9,7.8,26,8.1,26,8.5c0,0.3-0.2,0.6-0.4,0.8l-10,7.3c-0.3,0.2-0.7,0.3-1,0.1c-0.3-0.2-0.5-0.5-0.5-0.9v-3.8
		C2.3,12.4,2,20.7,2,21C2,21.6,1.6,22,1,22C1,22,1,22,1,22z M16,3v2.9c0,0.6-0.4,1-1,1c-4.1,0-7.3,1.2-9.5,3.6
		c-1,1.1-1.7,2.3-2.2,3.5c2.2-2.2,5.8-4,11.8-4c0.6,0,1,0.4,1,1v2.9l7.3-5.4L16,3z"/>
</g>
</svg>
