<?xml version="1.0" encoding="utf-8"?>
<!-- Generator: Adobe Illustrator 19.1.1, SVG Export Plug-In . SVG Version: 6.00 Build 0)  -->
<svg version="1.1" xmlns="http://www.w3.org/2000/svg" xmlns:xlink="http://www.w3.org/1999/xlink" x="0px" y="0px"
	 viewBox="0 0 24 24" enable-background="new 0 0 24 24" xml:space="preserve">
<g id="Слой_2" display="none">
</g>
<g id="Android_x5F_4" display="none">
</g>
<g id="Android_x5F_5" display="none">
</g>
<g id="Windows_x5F_8" display="none">
</g>
<g id="Windows_x5F_10" display="none">
</g>
<g id="Color" display="none">
</g>
<g id="IOS" display="none">
</g>
<g id="IOS_copy">
	<path d="M22.7,12.7l0.7-0.7l-0.7-0.7c0,0,0,0,0,0l-3-3c-0.4-0.4-1-0.4-1.4,0s-0.4,1,0,1.4l1.3,1.3H13V4.4l1.3,1.3
		C14.5,5.9,14.7,6,15,6s0.5-0.1,0.7-0.3c0.4-0.4,0.4-1,0-1.4l-3-3c0,0,0,0,0,0L12,0.6l-0.7,0.7c0,0,0,0,0,0l-3,3
		c-0.4,0.4-0.4,1,0,1.4s1,0.4,1.4,0L11,4.4V11H4.4l1.3-1.3c0.4-0.4,0.4-1,0-1.4s-1-0.4-1.4,0L0.6,12l3.7,3.7C4.5,15.9,4.7,16,5,16
		s0.5-0.1,0.7-0.3c0.4-0.4,0.4-1,0-1.4L4.4,13H11v6.6l-1.3-1.3c-0.4-0.4-1-0.4-1.4,0s-0.4,1,0,1.4l3.7,3.7l3.7-3.7
		c0.4-0.4,0.4-1,0-1.4s-1-0.4-1.4,0L13,19.6V13h6.6l-1.3,1.3c-0.4,0.4-0.4,1,0,1.4c0.2,0.2,0.5,0.3,0.7,0.3s0.5-0.1,0.7-0.3
		L22.7,12.7C22.7,12.7,22.7,12.7,22.7,12.7z"/>
</g>
</svg>
