<?xml version="1.0" encoding="utf-8"?>
<!-- Generator: Adobe Illustrator 19.1.1, SVG Export Plug-In . SVG Version: 6.00 Build 0)  -->
<svg version="1.1" xmlns="http://www.w3.org/2000/svg" xmlns:xlink="http://www.w3.org/1999/xlink" x="0px" y="0px"
	 viewBox="0 0 22 20" enable-background="new 0 0 22 20" xml:space="preserve">
<g id="Слой_2" display="none">
</g>
<g id="Android_x5F_4" display="none">
</g>
<g id="Android_x5F_5" display="none">
</g>
<g id="Windows_x5F_8" display="none">
</g>
<g id="Windows_x5F_10" display="none">
</g>
<g id="Color" display="none">
</g>
<g id="IOS" display="none">
</g>
<g id="IOS_copy">
	<path d="M11.8,15c0.1,0,0.2,0.1,0.2,0.2v1.6c0,0.1-0.1,0.2-0.2,0.2h-1.6c-0.1,0-0.2-0.1-0.2-0.2v-1.6c0-0.1,0.1-0.2,0.2-0.2H11.8z
		 M10.2,7C10.1,7,10,7.1,10,7.2v5.6c0,0.1,0.1,0.2,0.2,0.2h1.6c0.1,0,0.2-0.1,0.2-0.2V7.2C12,7.1,11.9,7,11.8,7H10.2z M22,18.1
		c0-0.2,0-0.3-0.1-0.5l-9-16C12.7,1.2,12.1,0,11,0C9.9,0,9.3,1.2,9.1,1.5L0.2,17.6c-0.1,0.1-0.1,0.3-0.1,0.5c0,1,0.9,1.9,1.9,1.9
		h18.1C21.1,20,22,19.2,22,18.1z M10.9,2.4c0,0,0.1-0.1,0.1-0.2c0,0.1,0.1,0.2,0.1,0.2L19.8,18H2.3L10.9,2.4z"/>
</g>
</svg>
