<?xml version="1.0" encoding="utf-8"?>
<!-- Generator: Adobe Illustrator 19.1.1, SVG Export Plug-In . SVG Version: 6.00 Build 0)  -->
<svg version="1.1" id="Layer_9" xmlns="http://www.w3.org/2000/svg" xmlns:xlink="http://www.w3.org/1999/xlink" x="0px" y="0px"
	 viewBox="0 0 22 20" enable-background="new 0 0 22 20" xml:space="preserve">
<path d="M21.9,17.6l-9-16C12.8,1.2,12.1,0,11,0S9.3,1.2,9.1,1.5L0.2,17.6c-0.1,0.1-0.1,0.3-0.1,0.5C0.1,19.1,1,20,2,20h18.1
	c1.1,0,1.9-0.8,1.9-1.9C22,17.9,22,17.8,21.9,17.6z M12.1,16.8c0,0.1-0.1,0.2-0.2,0.2h-1.6c-0.1,0-0.2-0.1-0.2-0.2v-1.6
	c0-0.1,0.1-0.2,0.2-0.2h1.6c0.1,0,0.2,0.1,0.2,0.2C12.1,15.2,12.1,16.8,12.1,16.8z M12.1,12.8c0,0.1-0.1,0.2-0.2,0.2h-1.6
	c-0.1,0-0.2-0.1-0.2-0.2V7.2c0-0.1,0.1-0.2,0.2-0.2h1.6c0.1,0,0.2,0.1,0.2,0.2C12.1,7.2,12.1,12.8,12.1,12.8z"/>
</svg>
