<?xml version="1.0" encoding="utf-8"?>
<!-- Generator: Adobe Illustrator 19.1.1, SVG Export Plug-In . SVG Version: 6.00 Build 0)  -->
<svg version="1.1" id="Layer_9" xmlns="http://www.w3.org/2000/svg" xmlns:xlink="http://www.w3.org/1999/xlink" x="0px" y="0px"
	 viewBox="0 0 20 20" enable-background="new 0 0 20 20" xml:space="preserve">
<path d="M10.2,0.2c-5.5,0-10,4.5-10,10s4.5,10,10,10s10-4.5,10-10S15.7,0.2,10.2,0.2z M10.2,6.2c1,0,1.7,0.3,2.2,0.9
	s0.8,1.4,0.8,2.4v1.4c0,1.1-0.3,1.9-0.8,2.4c-0.5,0.6-1.3,0.9-2.2,0.9c-1,0-1.7-0.3-2.2-0.9S7.2,12,7.2,10.9V9.5
	c0-1.1,0.3-1.9,0.8-2.4C8.5,6.5,9.2,6.2,10.2,6.2z M10.2,7.6C9.9,7.6,9.6,7.7,9.4,8C9.2,8.3,9.2,8.6,9.2,9.1v2c0,0.6,0.1,1,0.3,1.3
	c0.2,0.3,0.4,0.4,0.8,0.4c0.3,0,0.6-0.1,0.8-0.4c0-0.2,0.1-0.7,0.1-1.2V9.3c0-0.6-0.1-1-0.2-1.3C10.8,7.7,10.6,7.6,10.2,7.6z"/>
</svg>
