<?xml version="1.0" encoding="utf-8"?>
<!-- Generator: Adobe Illustrator 19.1.1, SVG Export Plug-In . SVG Version: 6.00 Build 0)  -->
<svg version="1.1" xmlns="http://www.w3.org/2000/svg" xmlns:xlink="http://www.w3.org/1999/xlink" x="0px" y="0px"
	 viewBox="0 0 20 20" enable-background="new 0 0 20 20" xml:space="preserve">
<g id="Слой_2" display="none">
</g>
<g id="Android_x5F_4" display="none">
</g>
<g id="Android_x5F_5" display="none">
</g>
<g id="Windows_x5F_8" display="none">
</g>
<g id="Windows_x5F_10" display="none">
</g>
<g id="Color" display="none">
</g>
<g id="IOS" display="none">
</g>
<g id="IOS_copy">
	<path d="M10,0C4.5,0,0,4.5,0,10s4.5,10,10,10s10-4.5,10-10S15.5,0,10,0z M10,18c-4.4,0-8-3.6-8-8s3.6-8,8-8s8,3.6,8,8
		S14.4,18,10,18z M10,6C9,6,8.3,6.3,7.8,6.9C7.3,7.4,7,8.2,7,9.3v1.4c0,1,0.3,1.9,0.8,2.4C8.3,13.7,9.1,14,10,14
		c1,0,1.7-0.3,2.2-0.9c0.5-0.6,0.8-1.4,0.8-2.4V9.3c0-1-0.3-1.9-0.8-2.4C11.7,6.3,11,6,10,6z M11,11c0,0.6-0.1,1-0.2,1.2
		c-0.2,0.3-0.4,0.4-0.8,0.4c-0.3,0-0.6-0.1-0.8-0.4C9.1,11.9,9,11.5,9,10.9v-2C9,8.4,9.1,8,9.2,7.8C9.4,7.5,9.7,7.4,10,7.4
		c0.3,0,0.6,0.1,0.8,0.4C10.9,8.1,11,8.5,11,9.1V11z"/>
</g>
</svg>
