<?xml version="1.0" encoding="utf-8"?>
<!-- Generator: Adobe Illustrator 19.1.1, SVG Export Plug-In . SVG Version: 6.00 Build 0)  -->
<svg version="1.1" id="Layer_9" xmlns="http://www.w3.org/2000/svg" xmlns:xlink="http://www.w3.org/1999/xlink" x="0px" y="0px"
	 viewBox="0 0 20 20" enable-background="new 0 0 20 20" xml:space="preserve">
<path d="M10,0C4.5,0,0,4.5,0,10s4.5,10,10,10s10-4.5,10-10S15.5,0,10,0z M13,14H7.2v-1.2l2.7-2.7c0.7-0.7,1-1.3,1-1.7
	c0-0.3-0.1-0.6-0.2-0.8c-0.2-0.2-0.4-0.3-0.7-0.3c-0.3,0-0.5,0.1-0.7,0.4C9,8,8.9,8.3,8.9,8.6H7c0-0.5,0.1-0.9,0.4-1.3
	s0.6-0.7,1.1-1C9,6.1,9.5,6,10,6c0.9,0,1.6,0.2,2.1,0.6s0.7,1,0.7,1.7c0,0.3-0.1,0.6-0.2,0.9c-0.1,0.3-0.3,0.6-0.6,0.9
	s-0.7,0.8-1.2,1.3l-1.1,1.2H13V14z"/>
</svg>
