<?xml version="1.0" encoding="utf-8"?>
<!-- Generator: Adobe Illustrator 19.1.1, SVG Export Plug-In . SVG Version: 6.00 Build 0)  -->
<svg version="1.1" id="Layer_9" xmlns="http://www.w3.org/2000/svg" xmlns:xlink="http://www.w3.org/1999/xlink" x="0px" y="0px"
	 viewBox="0 0 20 20" enable-background="new 0 0 20 20" xml:space="preserve">
<path d="M10,0C4.5,0,0,4.5,0,10s4.5,10,10,10s10-4.5,10-10S15.5,0,10,0z M12.1,13.4c-0.5,0.4-1.3,0.6-2.2,0.6c-0.5,0-1-0.1-1.5-0.3
	c-0.5-0.2-0.8-0.5-1.1-0.8C7.1,12.6,7,12.2,7,11.7h1.9c0,0.2,0.1,0.4,0.3,0.6s0.5,0.3,0.8,0.3s0.6-0.1,0.8-0.3
	c0.2-0.2,0.3-0.4,0.3-0.7c0-0.4-0.1-0.7-0.3-0.8c-0.2-0.2-0.5-0.2-0.9-0.2H9V9.3l0,0h0.9c0.7,0,1.1-0.3,1.1-1c0-0.3-0.1-0.5-0.3-0.6
	c-0.2-0.2-0.4-0.2-0.7-0.2S9.5,7.6,9.3,7.7C9.1,7.7,9,7.9,9,8.1H7.1c0-0.4,0.1-0.8,0.4-1.1c0.2-0.3,0.6-0.6,1-0.8S9.4,6,9.9,6
	c0.9,0,1.6,0.2,2.2,0.6c0.5,0.4,0.8,0.9,0.8,1.6c0,0.3-0.1,0.7-0.3,0.9c-0.2,0.3-0.5,0.5-0.9,0.7c0.4,0.1,0.8,0.4,1,0.7
	c0.2,0.3,0.3,0.8,0.3,1.2C13,12.4,12.7,13,12.1,13.4z"/>
</svg>
