<?xml version="1.0" encoding="utf-8"?>
<!-- Generator: Adobe Illustrator 19.1.1, SVG Export Plug-In . SVG Version: 6.00 Build 0)  -->
<svg version="1.1" xmlns="http://www.w3.org/2000/svg" xmlns:xlink="http://www.w3.org/1999/xlink" x="0px" y="0px"
	 viewBox="0 0 20 20" enable-background="new 0 0 20 20" xml:space="preserve">
<g id="Слой_2" display="none">
</g>
<g id="Android_x5F_4" display="none">
</g>
<g id="Android_x5F_5" display="none">
</g>
<g id="Windows_x5F_8" display="none">
</g>
<g id="Windows_x5F_10" display="none">
</g>
<g id="Color" display="none">
</g>
<g id="IOS" display="none">
</g>
<g id="IOS_copy">
	<path d="M10,20C4.5,20,0,15.5,0,10S4.5,0,10,0s10,4.5,10,10S15.5,20,10,20z M10,2c-4.4,0-8,3.6-8,8s3.6,8,8,8s8-3.6,8-8
		S14.4,2,10,2z M9,9.2h0.9c0.7,0,1.1-0.3,1.1-1c0-0.3-0.1-0.5-0.3-0.6c-0.2-0.2-0.4-0.2-0.7-0.2c-0.3,0-0.5,0.1-0.7,0.2
		C9.1,7.7,9,7.9,9,8.1H7.1c0-0.4,0.1-0.8,0.4-1.1c0.2-0.3,0.6-0.6,1-0.8C8.9,6.1,9.4,6,9.9,6c0.9,0,1.6,0.2,2.2,0.6
		c0.5,0.4,0.8,0.9,0.8,1.6c0,0.3-0.1,0.7-0.3,0.9c-0.2,0.3-0.5,0.5-1,0.7c0.4,0.1,0.8,0.4,1,0.7c0.2,0.3,0.4,0.7,0.4,1.1
		c0,0.7-0.3,1.3-0.8,1.7c-0.6,0.4-1.3,0.6-2.2,0.6c-0.5,0-1-0.1-1.5-0.3c-0.5-0.2-0.8-0.5-1.1-0.8C7.1,12.6,7,12.2,7,11.7h1.9
		c0,0.2,0.1,0.4,0.3,0.6c0.2,0.2,0.5,0.3,0.8,0.3c0.3,0,0.6-0.1,0.8-0.3c0.2-0.2,0.3-0.4,0.3-0.7c0-0.4-0.1-0.7-0.3-0.8
		c-0.2-0.2-0.5-0.2-0.9-0.2H9V9.2z"/>
</g>
</svg>
