<?xml version="1.0" encoding="utf-8"?>
<!-- Generator: Adobe Illustrator 19.1.1, SVG Export Plug-In . SVG Version: 6.00 Build 0)  -->
<svg version="1.1" xmlns="http://www.w3.org/2000/svg" xmlns:xlink="http://www.w3.org/1999/xlink" x="0px" y="0px"
	 viewBox="0 0 20 20" enable-background="new 0 0 20 20" xml:space="preserve">
<g id="Слой_2" display="none">
</g>
<g id="Android_x5F_4" display="none">
</g>
<g id="Android_x5F_5" display="none">
</g>
<g id="Windows_x5F_8" display="none">
</g>
<g id="Windows_x5F_10" display="none">
</g>
<g id="Color" display="none">
</g>
<g id="IOS" display="none">
</g>
<g id="IOS_copy">
	<path d="M10,20C4.5,20,0,15.5,0,10S4.5,0,10,0s10,4.5,10,10S15.5,20,10,20z M10,2c-4.4,0-8,3.6-8,8s3.6,8,8,8s8-3.6,8-8
		S14.4,2,10,2z M7.2,10l0.5-4h5v1.4H9.3L9.1,9c0.1-0.1,0.3-0.1,0.6-0.2c0.2-0.1,0.5-0.1,0.7-0.1c0.9,0,1.5,0.2,2,0.7
		c0.5,0.5,0.7,1.1,0.7,2c0,0.5-0.1,1-0.4,1.4c-0.2,0.4-0.6,0.7-1,0.9c-0.4,0.2-1,0.3-1.6,0.3c-0.5,0-1-0.1-1.5-0.3
		c-0.5-0.2-0.8-0.5-1.1-0.8C7.1,12.5,7,12.1,7,11.7h2c0,0.3,0.1,0.5,0.3,0.7c0.2,0.2,0.4,0.3,0.7,0.3c0.7,0,1-0.5,1-1.4
		c0-0.8-0.4-1.3-1.2-1.3c-0.5,0-0.8,0.1-1,0.4L7.2,10z"/>
</g>
</svg>
