<?xml version="1.0" encoding="utf-8"?>
<!-- Generator: Adobe Illustrator 19.1.1, SVG Export Plug-In . SVG Version: 6.00 Build 0)  -->
<svg version="1.1" id="Layer_9" xmlns="http://www.w3.org/2000/svg" xmlns:xlink="http://www.w3.org/1999/xlink" x="0px" y="0px"
	 viewBox="0 0 20 20" enable-background="new 0 0 20 20" xml:space="preserve">
<path d="M10,0C4.5,0,0,4.5,0,10s4.5,10,10,10s10-4.5,10-10S15.5,0,10,0z M12.6,12.7c-0.2,0.4-0.6,0.7-1,0.9c-0.4,0.3-1,0.4-1.6,0.4
	c-0.5,0-1-0.1-1.5-0.3c-0.5-0.2-0.8-0.5-1.1-0.8C7.1,12.5,7,12.1,7,11.6h2c0,0.3,0.1,0.5,0.3,0.7s0.4,0.3,0.7,0.3c0.7,0,1-0.5,1-1.4
	c0-0.8-0.4-1.3-1.2-1.3c-0.5,0-0.8,0.1-1,0.4L7.2,10l0.5-4h5v1.4H9.3L9.1,9c0.1-0.1,0.3-0.1,0.6-0.2c0.2-0.1,0.5-0.1,0.7-0.1
	c0.9,0,1.5,0.2,2,0.7s0.7,1.1,0.7,2C13,11.9,12.9,12.3,12.6,12.7z"/>
</svg>
