<?xml version="1.0" encoding="utf-8"?>
<!-- Generator: Adobe Illustrator 19.1.1, SVG Export Plug-In . SVG Version: 6.00 Build 0)  -->
<svg version="1.1" id="Layer_9" xmlns="http://www.w3.org/2000/svg" xmlns:xlink="http://www.w3.org/1999/xlink" x="0px" y="0px"
	 viewBox="0 0 20 20" enable-background="new 0 0 20 20" xml:space="preserve">
<path d="M10,0C4.5,0,0,4.5,0,10s4.5,10,10,10s10-4.5,10-10S15.5,0,10,0z M11.3,6h0.3v1.4h-0.1c-0.7,0-1.3,0.2-1.8,0.5
	S8.9,8.7,8.8,9.2c0.4-0.4,1-0.6,1.7-0.6c0.7,0,1.3,0.2,1.7,0.7c0.4,0.5,0.7,1.1,0.7,1.9c0,0.5-0.1,1-0.4,1.4s-0.6,0.7-1.1,1
	C11,13.9,10.6,14,10,14s-1.1-0.1-1.6-0.4c-0.4-0.2-0.8-0.6-1.1-1s-0.4-1-0.4-1.6v-0.7c0-0.8,0.2-1.5,0.6-2.2
	c0.4-0.6,0.9-1.2,1.6-1.5C9.7,6.2,10.5,6,11.3,6z M9.9,10c-0.3,0-0.5,0-0.7,0.2s-0.3,0.2-0.4,0.4v0.6c0,1,0.4,1.5,1.1,1.5
	c0.3,0,0.5-0.1,0.7-0.4c0.3-0.3,0.4-0.6,0.4-1c0-0.4-0.1-0.7-0.3-0.9S10.2,10,9.9,10z"/>
</svg>
