<?xml version="1.0" encoding="utf-8"?>
<!-- Generator: Adobe Illustrator 19.1.1, SVG Export Plug-In . SVG Version: 6.00 Build 0)  -->
<svg version="1.1" xmlns="http://www.w3.org/2000/svg" xmlns:xlink="http://www.w3.org/1999/xlink" x="0px" y="0px"
	 viewBox="0 0 20 20" enable-background="new 0 0 20 20" xml:space="preserve">
<g id="Слой_2" display="none">
</g>
<g id="Android_x5F_4" display="none">
</g>
<g id="Android_x5F_5" display="none">
</g>
<g id="Windows_x5F_8" display="none">
</g>
<g id="Windows_x5F_10" display="none">
</g>
<g id="Color" display="none">
</g>
<g id="IOS" display="none">
</g>
<g id="IOS_copy">
	<path d="M10,20C4.5,20,0,15.5,0,10S4.5,0,10,0s10,4.5,10,10S15.5,20,10,20z M10,2c-4.4,0-8,3.6-8,8s3.6,8,8,8s8-3.6,8-8
		S14.4,2,10,2z M11.6,6v1.4h-0.1c-0.7,0-1.3,0.2-1.8,0.5C9.3,8.2,9,8.7,8.9,9.2c0.4-0.4,1-0.6,1.7-0.6c0.7,0,1.3,0.2,1.7,0.7
		c0.4,0.5,0.6,1.1,0.6,1.9c0,0.5-0.1,0.9-0.4,1.4c-0.3,0.4-0.6,0.7-1,1C11.1,13.9,10.6,14,10,14c-0.6,0-1.1-0.1-1.6-0.4
		C8,13.4,7.6,13,7.3,12.5c-0.3-0.5-0.4-1-0.4-1.6v-0.7c0-0.8,0.2-1.5,0.6-2.2c0.4-0.6,0.9-1.1,1.6-1.5C9.8,6.2,10.5,6,11.3,6H11.6z
		 M9.9,10c-0.3,0-0.5,0.1-0.6,0.2c-0.2,0.1-0.3,0.2-0.4,0.4v0.5c0,1,0.4,1.5,1.1,1.5c0.3,0,0.5-0.1,0.7-0.4c0.2-0.2,0.3-0.6,0.3-0.9
		c0-0.4-0.1-0.7-0.3-0.9C10.5,10.2,10.2,10,9.9,10z"/>
</g>
</svg>
