<?xml version="1.0" encoding="utf-8"?>
<!-- Generator: Adobe Illustrator 19.1.1, SVG Export Plug-In . SVG Version: 6.00 Build 0)  -->
<svg version="1.1" xmlns="http://www.w3.org/2000/svg" xmlns:xlink="http://www.w3.org/1999/xlink" x="0px" y="0px"
	 viewBox="0 0 20 20" enable-background="new 0 0 20 20" xml:space="preserve">
<g id="Слой_2" display="none">
</g>
<g id="Android_x5F_4" display="none">
</g>
<g id="Android_x5F_5" display="none">
</g>
<g id="Windows_x5F_8" display="none">
</g>
<g id="Windows_x5F_10" display="none">
</g>
<g id="Color" display="none">
</g>
<g id="IOS" display="none">
</g>
<g id="IOS_copy">
	<path d="M10,20C4.5,20,0,15.5,0,10S4.5,0,10,0s10,4.5,10,10S15.5,20,10,20z M10,2c-4.4,0-8,3.6-8,8s3.6,8,8,8s8-3.6,8-8
		S14.4,2,10,2z M12.8,8.2c0,0.4-0.1,0.7-0.3,1c-0.2,0.3-0.5,0.5-0.9,0.7c0.4,0.2,0.7,0.4,1,0.7c0.2,0.3,0.4,0.7,0.4,1.1
		c0,0.7-0.3,1.2-0.8,1.6C11.7,13.8,10.9,14,10,14c-0.9,0-1.7-0.2-2.2-0.6C7.3,13,7,12.4,7,11.8c0-0.4,0.1-0.8,0.4-1.1
		c0.2-0.3,0.6-0.6,1-0.8C8,9.7,7.7,9.5,7.5,9.2c-0.2-0.3-0.3-0.6-0.3-1c0-0.7,0.3-1.2,0.8-1.6C8.5,6.2,9.1,6,10,6
		c0.9,0,1.6,0.2,2.1,0.6C12.6,7,12.8,7.5,12.8,8.2z M11,11.6c0-0.3-0.1-0.6-0.3-0.7c-0.2-0.2-0.4-0.3-0.7-0.3
		c-0.3,0-0.5,0.1-0.7,0.3C9.1,11,9,11.3,9,11.6c0,0.3,0.1,0.6,0.3,0.7s0.4,0.3,0.7,0.3c0.3,0,0.5-0.1,0.7-0.3
		C10.9,12.2,11,11.9,11,11.6z M10,7.4c-0.3,0-0.5,0.1-0.6,0.2C9.2,7.8,9.2,8,9.2,8.3c0,0.3,0.1,0.5,0.2,0.7C9.5,9.1,9.7,9.2,10,9.2
		c0.3,0,0.5-0.1,0.6-0.3c0.1-0.2,0.2-0.4,0.2-0.7c0-0.3-0.1-0.5-0.2-0.7C10.5,7.5,10.3,7.4,10,7.4z"/>
</g>
</svg>
