<?xml version="1.0" encoding="utf-8"?>
<!-- Generator: Adobe Illustrator 19.1.1, SVG Export Plug-In . SVG Version: 6.00 Build 0)  -->
<svg version="1.1" id="Layer_9" xmlns="http://www.w3.org/2000/svg" xmlns:xlink="http://www.w3.org/1999/xlink" x="0px" y="0px"
	 viewBox="0 0 20 20" enable-background="new 0 0 20 20" xml:space="preserve">
<path d="M10.3,0.3c-5.5,0-10,4.5-10,10s4.5,10,10,10s10-4.5,10-10S15.8,0.3,10.3,0.3z M10.3,6.3c0.9,0,1.6,0.2,2.1,0.6
	s0.8,0.9,0.8,1.6c0,0.4-0.1,0.7-0.3,1c-0.2,0.3-0.5,0.5-0.9,0.7c0.4,0.2,0.8,0.4,1,0.8c0.2,0.3,0.3,0.7,0.3,1.1
	c0,0.7-0.3,1.3-0.8,1.7c-0.5,0.3-1.2,0.5-2.2,0.5c-0.9,0-1.7-0.2-2.2-0.6s-0.8-1-0.8-1.6c0-0.4,0.1-0.8,0.3-1.1
	c0.2-0.3,0.6-0.6,1-0.8C8.1,10,8,9.8,7.8,9.5c-0.2-0.3-0.3-0.6-0.3-1c0-0.7,0.2-1.2,0.8-1.6C8.6,6.5,9.4,6.3,10.3,6.3z M10.3,7.7
	C9.9,7.7,9.8,7.8,9.6,8C9.6,8.2,9.4,8.4,9.4,8.7c0,0.3,0.1,0.5,0.2,0.7c0.1,0.2,0.4,0.3,0.6,0.3c0.3,0,0.5-0.1,0.6-0.3
	c0.1-0.2,0.2-0.4,0.2-0.7S10.9,8.2,10.9,8C10.8,7.8,10.6,7.7,10.3,7.7z M10.3,10.9c-0.3,0-0.5,0.1-0.7,0.3c-0.2,0.1-0.3,0.4-0.3,0.7
	c0,0.3,0.1,0.6,0.3,0.8c0.2,0.2,0.4,0.3,0.8,0.3c0.3,0,0.5-0.1,0.7-0.3c0.2-0.2,0.3-0.4,0.3-0.8c0-0.3-0.1-0.5-0.3-0.7
	S10.6,10.9,10.3,10.9z"/>
</svg>
