<?xml version="1.0" encoding="utf-8"?>
<!-- Generator: Adobe Illustrator 19.1.1, SVG Export Plug-In . SVG Version: 6.00 Build 0)  -->
<svg version="1.1" id="Layer_9" xmlns="http://www.w3.org/2000/svg" xmlns:xlink="http://www.w3.org/1999/xlink" x="0px" y="0px"
	 viewBox="0 0 20 20" enable-background="new 0 0 20 20" xml:space="preserve">
<path d="M10,0C4.5,0,0,4.5,0,10s4.5,10,10,10s10-4.5,10-10S15.5,0,10,0z M10,6c0.6,0,1.1,0.1,1.5,0.4C12,6.7,12.3,7,12.6,7.5
	C12.9,8,13,8.5,13,9.2v0.7c0,0.9-0.2,1.6-0.6,2.2c-0.4,0.6-0.9,1.1-1.6,1.5C10.2,13.8,9.4,14,8.4,14H8.3v-1.4h0.4
	c1.4-0.1,2.1-0.6,2.3-1.7c-0.4,0.4-0.9,0.5-1.4,0.5c-0.8,0-1.4-0.2-1.8-0.7C7.2,10.2,7,9.6,7,8.8c0-0.5,0.1-1,0.4-1.4s0.6-0.8,1.1-1
	S9.4,6,10,6z M10,7.4c-0.3,0-0.5,0.1-0.7,0.4S9,8.4,9,8.8s0.1,0.7,0.3,1c0.2,0.2,0.4,0.3,0.8,0.3c0.4,0,0.7-0.2,0.9-0.5V8.8
	c0-0.5-0.1-0.9-0.3-1.1C10.5,7.5,10.3,7.4,10,7.4z"/>
</svg>
