<?xml version="1.0" encoding="utf-8"?>
<!-- Generator: Adobe Illustrator 19.1.1, SVG Export Plug-In . SVG Version: 6.00 Build 0)  -->
<svg version="1.1" xmlns="http://www.w3.org/2000/svg" xmlns:xlink="http://www.w3.org/1999/xlink" x="0px" y="0px"
	 viewBox="0 0 20 20" enable-background="new 0 0 20 20" xml:space="preserve">
<g id="Слой_2" display="none">
</g>
<g id="Android_x5F_4" display="none">
</g>
<g id="Android_x5F_5" display="none">
</g>
<g id="Windows_x5F_8" display="none">
</g>
<g id="Windows_x5F_10" display="none">
</g>
<g id="Color" display="none">
</g>
<g id="IOS" display="none">
</g>
<g id="IOS_copy">
	<path d="M10,20C4.5,20,0,15.5,0,10S4.5,0,10,0s10,4.5,10,10S15.5,20,10,20z M10,2c-4.4,0-8,3.6-8,8s3.6,8,8,8s8-3.6,8-8
		S14.4,2,10,2z M11,10.9c-0.4,0.3-0.9,0.5-1.4,0.5c-0.8,0-1.4-0.2-1.9-0.7C7.2,10.2,7,9.6,7,8.8c0-0.5,0.1-1,0.4-1.4
		C7.6,7,8,6.6,8.5,6.4C8.9,6.1,9.4,6,10,6c0.6,0,1.1,0.1,1.5,0.4C12,6.6,12.3,7,12.6,7.5C12.9,8,13,8.5,13,9.1v0.7
		c0,0.9-0.2,1.6-0.6,2.2c-0.4,0.6-0.9,1.1-1.6,1.5C10.2,13.8,9.4,14,8.4,14H8.3v-1.4l0.4,0C10.1,12.5,10.8,11.9,11,10.9z M10.1,10.1
		c0.4,0,0.7-0.2,0.9-0.5V8.9c0-0.5-0.1-0.9-0.3-1.1c-0.2-0.2-0.4-0.4-0.8-0.4c-0.3,0-0.5,0.1-0.7,0.4C9.1,8.1,9,8.4,9,8.8
		c0,0.4,0.1,0.7,0.3,1C9.5,10,9.7,10.1,10.1,10.1z"/>
</g>
</svg>
