<?xml version="1.0" encoding="iso-8859-1"?>
<!-- Generator: Adobe Illustrator 22.1.0, SVG Export Plug-In . SVG Version: 6.00 Build 0)  -->
<svg version="1.1" id="Sharp" xmlns="http://www.w3.org/2000/svg" xmlns:xlink="http://www.w3.org/1999/xlink" x="0px" y="0px"
	 viewBox="0 0 10 10" style="enable-background:new 0 0 10 10;" xml:space="preserve">
<path d="M6.741,4.812C6.905,4.406,7,3.965,7,3.5C7,1.567,5.433,0,3.5,0S0,1.567,0,3.5C0,5.433,1.567,7,3.5,7
	c0.465,0,0.906-0.095,1.312-0.26L8.072,10H10V8.072L6.741,4.812z M3,4C2.448,4,2,3.552,2,3c0-0.552,0.448-1,1-1s1,0.448,1,1
	C4,3.552,3.552,4,3,4z"/>
</svg>
