<?xml version="1.0" encoding="iso-8859-1"?>
<!-- Generator: Adobe Illustrator 22.1.0, SVG Export Plug-In . SVG Version: 6.00 Build 0)  -->
<svg version="1.1" id="Sharp" xmlns="http://www.w3.org/2000/svg" xmlns:xlink="http://www.w3.org/1999/xlink" x="0px" y="0px"
	 viewBox="0 0 12 12" style="enable-background:new 0 0 12 12;" xml:space="preserve">
<path d="M12,7.5C12,8.328,11.328,9,10.5,9C10.13,9,9,8.75,9,8.75V12H0V8.75C0,8.75,1.13,9,1.5,9C2.328,9,3,8.328,3,7.5
	S2.328,6,1.5,6C1.13,6,0,6.25,0,6.25V3h3.25C3.25,3,3,1.87,3,1.5C3,0.672,3.672,0,4.5,0S6,0.672,6,1.5C6,1.87,5.75,3,5.75,3H9v3.25
	C9,6.25,10.13,6,10.5,6C11.328,6,12,6.672,12,7.5z"/>
</svg>
