<?xml version="1.0" encoding="iso-8859-1"?>
<!-- Generator: Adobe Illustrator 22.1.0, SVG Export Plug-In . SVG Version: 6.00 Build 0)  -->
<svg version="1.1" id="Sharp" xmlns="http://www.w3.org/2000/svg" xmlns:xlink="http://www.w3.org/1999/xlink" x="0px" y="0px"
	 viewBox="0 0 10 10" style="enable-background:new 0 0 10 10;" xml:space="preserve">
<path d="M9,5c0-0.26-0.029-0.513-0.077-0.76l0.988-0.734L8.749,1.494L7.606,1.988C7.227,1.66,6.789,1.404,6.305,1.236L6.162,0H3.838
	L3.695,1.236C3.211,1.404,2.773,1.66,2.394,1.988L1.251,1.494L0.089,3.506L1.077,4.24C1.029,4.487,1,4.74,1,5
	s0.029,0.513,0.077,0.76L0.089,6.494l1.162,2.012l1.143-0.494C2.773,8.34,3.211,8.596,3.695,8.764L3.838,10h2.324l0.143-1.236
	C6.789,8.596,7.227,8.34,7.606,8.012l1.143,0.494l1.162-2.012L8.923,5.76C8.971,5.513,9,5.26,9,5z M7,5c0,1.104-0.896,2-2,2
	S3,6.104,3,5c0-1.105,0.896-2,2-2S7,3.895,7,5z"/>
</svg>
