<?xml version="1.0" encoding="iso-8859-1"?>
<!-- Generator: Adobe Illustrator 22.1.0, SVG Export Plug-In . SVG Version: 6.00 Build 0)  -->
<svg version="1.1" id="Sharp" xmlns="http://www.w3.org/2000/svg" xmlns:xlink="http://www.w3.org/1999/xlink" x="0px" y="0px"
	 viewBox="0 0 10 11" style="enable-background:new 0 0 10 11;" xml:space="preserve">
<path d="M10,9v1H6c0,0.552-0.448,1-1,1s-1-0.448-1-1H0V9l1-1c0,0,0-0.791,0-3c0-1.862,1.278-3.413,3-3.859C4,1.093,4,1.05,4,1
	c0-0.552,0.448-1,1-1s1,0.448,1,1c0,0.04,0,0.089,0,0.141C7.722,1.587,9,3.138,9,5c0,0.871,0,3,0,3L10,9z"/>
</svg>
