<?xml version="1.0" encoding="iso-8859-1"?>
<!-- Generator: Adobe Illustrator 22.1.0, SVG Export Plug-In . SVG Version: 6.00 Build 0)  -->
<svg version="1.1" id="Sharp" xmlns="http://www.w3.org/2000/svg" xmlns:xlink="http://www.w3.org/1999/xlink" x="0px" y="0px"
	 viewBox="0 0 16 7" style="enable-background:new 0 0 16 7;" xml:space="preserve">
<path d="M13.125,3.167c-0.313,0.255-0.657,0.502-1.04,0.728l0.925,1.766l-1.771,0.928l-0.997-1.903C9.852,4.798,9.438,4.882,9,4.935
	V7H7V4.935C6.564,4.882,6.151,4.799,5.763,4.687L4.76,6.591L2.99,5.659l0.928-1.761c-0.384-0.227-0.73-0.475-1.044-0.731L1.231,4.42
	L0.019,2.83l1.439-1.098c-0.152-0.191-0.283-0.37-0.393-0.531l1.6-1.2C3.285,0.935,4.992,3,8,3c2.993,0,4.711-2.07,5.333-3
	l1.602,1.202c-0.11,0.161-0.241,0.34-0.393,0.531l1.439,1.098l-1.213,1.59L13.125,3.167z"/>
</svg>
