<?xml version="1.0" encoding="iso-8859-1"?>
<!-- Generator: Adobe Illustrator 22.1.0, SVG Export Plug-In . SVG Version: 6.00 Build 0)  -->
<svg version="1.1" id="Sharp" xmlns="http://www.w3.org/2000/svg" xmlns:xlink="http://www.w3.org/1999/xlink" x="0px" y="0px"
	 viewBox="0 0 10 10" style="enable-background:new 0 0 10 10;" xml:space="preserve">
<path d="M5,0C2.25,0,0,2.25,0,5s2.25,5,5,5s5-2.25,5-5S7.75,0,5,0z M5.574,7.692C5.542,7.776,5.497,7.848,5.437,7.909
	C5.377,7.97,5.306,8.019,5.221,8.053C5.137,8.087,5.042,8.104,4.938,8.104c-0.105,0-0.199-0.017-0.284-0.052
	C4.571,8.019,4.498,7.97,4.439,7.909C4.38,7.848,4.334,7.776,4.301,7.692C4.269,7.608,4.253,7.519,4.253,7.424
	c0-0.099,0.017-0.19,0.049-0.273C4.334,7.067,4.38,6.994,4.439,6.933c0.059-0.061,0.132-0.11,0.215-0.146
	c0.085-0.036,0.179-0.054,0.284-0.054c0.104,0,0.199,0.018,0.283,0.054c0.085,0.036,0.156,0.084,0.216,0.146
	c0.059,0.061,0.105,0.133,0.137,0.217c0.032,0.083,0.049,0.174,0.049,0.273C5.623,7.519,5.606,7.608,5.574,7.692z M6.905,4.139
	c-0.06,0.148-0.139,0.288-0.24,0.419c-0.1,0.131-0.216,0.257-0.345,0.379c-0.13,0.122-0.268,0.245-0.412,0.37
	C5.827,5.379,5.759,5.452,5.703,5.524C5.649,5.597,5.605,5.673,5.571,5.753C5.539,5.825,5.52,5.904,5.506,5.986H4.364
	c0.005-0.061,0.004-0.133,0.012-0.188c0.023-0.149,0.06-0.287,0.113-0.412s0.122-0.242,0.208-0.35
	c0.086-0.108,0.192-0.216,0.319-0.325c0.101-0.084,0.194-0.166,0.28-0.245c0.084-0.08,0.159-0.159,0.221-0.238
	s0.109-0.164,0.143-0.251C5.694,3.89,5.71,3.796,5.71,3.695c0-0.237-0.057-0.415-0.174-0.532C5.418,3.046,5.247,2.988,5.02,2.988
	c-0.091,0-0.18,0.013-0.268,0.039C4.665,3.054,4.588,3.096,4.52,3.155C4.452,3.214,4.397,3.288,4.356,3.379S4.292,3.578,4.29,3.703
	H3.007C3.009,3.41,3.064,3.157,3.17,2.944C3.277,2.73,3.42,2.554,3.6,2.414c0.18-0.14,0.391-0.244,0.635-0.312
	C4.478,2.034,4.74,2,5.02,2c0.31,0,0.587,0.036,0.832,0.109c0.245,0.072,0.451,0.178,0.62,0.316C6.64,2.563,6.769,2.735,6.859,2.94
	c0.09,0.205,0.134,0.439,0.134,0.701C6.993,3.825,6.964,3.991,6.905,4.139z"/>
</svg>
