<?xml version="1.0" encoding="iso-8859-1"?>
<!-- Generator: Adobe Illustrator 22.1.0, SVG Export Plug-In . SVG Version: 6.00 Build 0)  -->
<svg version="1.1" id="Sharp" xmlns="http://www.w3.org/2000/svg" xmlns:xlink="http://www.w3.org/1999/xlink" x="0px" y="0px"
	 viewBox="0 0 12 12" style="enable-background:new 0 0 12 12;" xml:space="preserve">
<path d="M7.9,5.3L6.6,3.9L9.3,1H12L7.9,5.3z M4.8,3.5L12,11H9.3L5.9,7.4L4.8,8.5C4.9,8.8,5,9.2,5,9.5C5,10.9,3.9,12,2.5,12
	S0,10.9,0,9.5C0,8.1,1.1,7,2.5,7c0.3,0,0.6,0.1,0.9,0.2L4.6,6L3.4,4.8C3.1,4.9,2.8,5,2.5,5C1.1,5,0,3.9,0,2.5C0,1.1,1.1,0,2.5,0
	S5,1.1,5,2.5C5,2.8,4.9,3.2,4.8,3.5z M3.5,2.5c0-0.5-0.5-1-1-1s-1,0.5-1,1s0.5,1,1,1S3.5,3,3.5,2.5z M3.5,9.5c0-0.5-0.5-1-1-1
	s-1,0.5-1,1s0.5,1,1,1S3.5,10,3.5,9.5z M5.495,6c0,0.173,0.14,0.313,0.313,0.313C5.98,6.313,6.12,6.173,6.12,6
	c0-0.173-0.14-0.313-0.313-0.313C5.635,5.688,5.495,5.827,5.495,6z"/>
</svg>
