<?xml version="1.0" encoding="iso-8859-1"?>
<!-- Generator: Adobe Illustrator 22.1.0, SVG Export Plug-In . SVG Version: 6.00 Build 0)  -->
<svg version="1.1" id="Sharp" xmlns="http://www.w3.org/2000/svg" xmlns:xlink="http://www.w3.org/1999/xlink" x="0px" y="0px"
	 viewBox="0 0 10 10" style="enable-background:new 0 0 10 10;" xml:space="preserve">
<path d="M5,0C2.25,0,0,2.25,0,5s2.25,5,5,5s5-2.25,5-5S7.75,0,5,0z M7,8H3.113V7.195l1.835-2.04
	c0.138-0.157,0.254-0.301,0.349-0.431c0.095-0.13,0.171-0.249,0.23-0.357c0.058-0.108,0.1-0.209,0.124-0.303
	c0.025-0.094,0.037-0.184,0.037-0.271c0-0.263-0.064-0.469-0.191-0.62c-0.127-0.15-0.309-0.226-0.545-0.226
	c-0.132,0-0.25,0.025-0.352,0.075S4.411,3.143,4.342,3.231C4.273,3.319,4.22,3.424,4.184,3.546C4.148,3.668,4.129,3.801,4.129,3.944
	H3c0-0.266,0.045-0.516,0.136-0.752c0.091-0.235,0.222-0.441,0.393-0.618c0.172-0.176,0.379-0.315,0.622-0.418
	c0.243-0.103,0.516-0.154,0.82-0.154c0.299,0,0.563,0.039,0.792,0.116c0.23,0.077,0.423,0.188,0.578,0.331
	c0.156,0.144,0.274,0.32,0.355,0.528C6.777,3.186,6.817,3.42,6.817,3.68c0,0.198-0.03,0.389-0.09,0.573
	C6.668,4.438,6.583,4.622,6.474,4.806C6.365,4.99,6.233,5.176,6.079,5.365C5.924,5.553,5.752,5.749,5.563,5.952L4.562,7.053H7V8z"/>
</svg>
