<?xml version="1.0" encoding="iso-8859-1"?>
<!-- Generator: Adobe Illustrator 22.1.0, SVG Export Plug-In . SVG Version: 6.00 Build 0)  -->
<svg version="1.1" id="Sharp" xmlns="http://www.w3.org/2000/svg" xmlns:xlink="http://www.w3.org/1999/xlink" x="0px" y="0px"
	 viewBox="0 0 10 10" style="enable-background:new 0 0 10 10;" xml:space="preserve">
<path d="M5,0C2.25,0,0,2.25,0,5s2.25,5,5,5s5-2.25,5-5S7.75,0,5,0z M6.878,6.773c-0.081,0.238-0.204,0.448-0.37,0.629
	C6.343,7.584,6.135,7.729,5.886,7.837C5.635,7.945,5.34,7.999,5.001,7.999c-0.254,0-0.501-0.039-0.739-0.116
	c-0.238-0.077-0.45-0.189-0.633-0.337C3.446,7.399,3.296,7.218,3.182,7.004C3.069,6.791,3.009,6.547,3,6.273h1.161
	C4.186,6.52,4.272,6.711,4.42,6.848c0.146,0.137,0.34,0.205,0.578,0.205c0.149,0,0.275-0.028,0.381-0.085
	c0.103-0.057,0.189-0.134,0.256-0.232C5.7,6.639,5.749,6.523,5.78,6.389c0.03-0.134,0.046-0.279,0.046-0.433
	S5.807,5.661,5.769,5.532C5.731,5.404,5.673,5.294,5.595,5.203S5.417,5.042,5.298,4.992c-0.119-0.05-0.26-0.075-0.422-0.075
	c-0.109,0-0.203,0.009-0.283,0.028s-0.15,0.043-0.213,0.073c-0.062,0.03-0.117,0.064-0.164,0.103
	c-0.049,0.039-0.092,0.079-0.133,0.12L3.15,5.011l0.341-3.005h3.314v0.979H4.453L4.308,4.255c0.04-0.021,0.091-0.045,0.15-0.071
	c0.06-0.025,0.128-0.05,0.205-0.073C4.74,4.088,4.824,4.069,4.915,4.054C5.005,4.04,5.099,4.032,5.197,4.032
	c0.285,0,0.539,0.045,0.761,0.136C6.182,4.259,6.371,4.389,6.525,4.56C6.679,4.73,6.797,4.939,6.878,5.185S7,5.71,7,6.022
	C7,6.285,6.959,6.535,6.878,6.773z"/>
</svg>
