<?xml version="1.0" encoding="utf-8"?>
<!-- Generator: Adobe Illustrator 21.0.2, SVG Export Plug-In . SVG Version: 6.00 Build 0)  -->
<svg version="1.1" id="Layer_1" xmlns="http://www.w3.org/2000/svg" xmlns:xlink="http://www.w3.org/1999/xlink" x="0px" y="0px"
	 viewBox="0 0 18 18" style="enable-background:new 0 0 18 18;" xml:space="preserve">
<style type="text/css">
	.st0{fill:#98CCFD;}
	.st1{fill:#4788C7;}
</style>
<polygon class="st0" points="7.5,17.5 7.5,10.5 0.5,10.5 0.5,7.5 7.5,7.5 7.5,0.5 10.5,0.5 10.5,7.5 17.5,7.5 17.5,10.5 10.5,10.5 
	10.5,17.5 "/>
<path class="st1" d="M10,1v6v1h1h6v2h-6h-1v1v6H8v-6v-1H7H1V8h6h1V7V1H10 M11,0H7v7H0v4h7v7h4v-7h7V7h-7V0L11,0z"/>
</svg>
