<?xml version="1.0" encoding="utf-8"?>
<!-- Generator: Adobe Illustrator 21.0.2, SVG Export Plug-In . SVG Version: 6.00 Build 0)  -->
<svg version="1.1" id="Layer_1" xmlns="http://www.w3.org/2000/svg" xmlns:xlink="http://www.w3.org/1999/xlink" x="0px" y="0px"
	 viewBox="0 0 18 18" style="enable-background:new 0 0 18 18;" xml:space="preserve">
<style type="text/css">
	.st0{fill:#98CCFD;}
	.st1{fill:#4788C7;}
</style>
<polygon class="st0" points="9,11.4 3.6,16.8 1.2,14.4 6.6,9 1.2,3.6 3.6,1.2 9,6.6 14.4,1.2 16.8,3.6 11.4,9 16.8,14.4 14.4,16.8 
	"/>
<path class="st1" d="M14.4,1.9l1.7,1.7l-4.7,4.7L10.7,9l0.7,0.7l4.7,4.7l-1.7,1.7l-4.7-4.7L9,10.7l-0.7,0.7l-4.7,4.7l-1.7-1.7
	l4.7-4.7L7.3,9L6.6,8.3L1.9,3.6l1.7-1.7l4.7,4.7L9,7.3l0.7-0.7L14.4,1.9 M14.4,0.5L9,5.9L3.6,0.5L0.5,3.6L5.9,9l-5.4,5.4l3.1,3.1
	L9,12.1l5.4,5.4l3.1-3.1L12.1,9l5.4-5.4L14.4,0.5L14.4,0.5z"/>
</svg>
