<?xml version="1.0" encoding="utf-8"?>
<!-- Generator: Adobe Illustrator 21.0.2, SVG Export Plug-In . SVG Version: 6.00 Build 0)  -->
<svg version="1.1" id="Layer_1" xmlns="http://www.w3.org/2000/svg" xmlns:xlink="http://www.w3.org/1999/xlink" x="0px" y="0px"
	 viewBox="0 0 18 18" style="enable-background:new 0 0 18 18;" xml:space="preserve">
<style type="text/css">
	.st0{fill:#DFF0FE;}
	.st1{fill:#4788C7;}
	.st2{fill:#B6DCFE;}
</style>
<g>
	<polygon class="st0" points="2.3,12.7 3.9,11 7.2,13.9 5.3,15.7 0.8,17.2 	"/>
</g>
<path class="st1" d="M4,11.7l2.5,2.2l-1.4,1.4l-3.5,1.1l1.1-3.5L4,11.7 M3.9,10.3l-2.1,2.1L0,18l5.6-1.8l2.3-2.3L3.9,10.3L3.9,10.3z
	"/>
<polygon class="st1" points="1.1,14.8 0,18 3.3,16.9 "/>
<path class="st2" d="M12.9,2l0.9-0.9c0.4-0.4,1-0.6,1.5-0.6c0.6,0,1.1,0.2,1.5,0.6c0.8,0.8,0.8,2.2,0,3.1L16,5.1L12.9,2z"/>
<path class="st1" d="M15.3,1c0.4,0,0.9,0.2,1.2,0.5S17,2.2,17,2.7s-0.2,0.9-0.5,1.2L16,4.4L13.6,2l0.5-0.5C14.5,1.2,14.9,1,15.3,1
	 M15.3,0c-0.7,0-1.4,0.3-1.9,0.8L12.2,2L16,5.8l1.2-1.2c1-1,1-2.7,0-3.8l0,0C16.7,0.3,16,0,15.3,0L15.3,0z"/>
<path class="st2" d="M5.9,15.2c0-0.1-0.1-0.1-0.1-0.2c-0.2-0.3-0.5-0.4-0.9-0.5c-0.2-0.8-0.8-1.2-1.4-1.4c-0.1-0.5-0.4-0.8-0.7-1
	l8.5-8.5l3.1,3.1L5.9,15.2z"/>
<path class="st1" d="M11.3,4.3l2.4,2.4l-7.8,7.8c-0.2-0.1-0.4-0.3-0.6-0.3C5,13.4,4.5,13,3.9,12.8c-0.1-0.2-0.2-0.5-0.4-0.6
	L11.3,4.3 M11.3,2.9l-9.5,9.5c0,0,0,0,0,0c0.1,0,1.2,0,1.2,1.2c0,0,1.4,0,1.4,1.4c1.4,0,1.2,1.2,1.2,1.2l9.5-9.5L11.3,2.9L11.3,2.9z
	"/>
<rect x="11.9" y="2.3" transform="matrix(0.7071 -0.7071 0.7071 0.7071 0.7911 10.8711)" class="st0" width="3.3" height="4.3"/>
<path class="st1" d="M13.1,2.5l2.4,2.4l-1.6,1.6l-2.4-2.4L13.1,2.5 M13.1,1.1l-3,3l3.8,3.8l3-3L13.1,1.1L13.1,1.1z"/>
</svg>
