<?xml version="1.0" encoding="utf-8"?>
<!-- Generator: Adobe Illustrator 21.0.2, SVG Export Plug-In . SVG Version: 6.00 Build 0)  -->
<svg version="1.1" id="Layer_1" xmlns="http://www.w3.org/2000/svg" xmlns:xlink="http://www.w3.org/1999/xlink" x="0px" y="0px"
	 viewBox="0 0 18 18" style="enable-background:new 0 0 18 18;" xml:space="preserve">
<style type="text/css">
	.st0{fill:#98CCFD;}
	.st1{fill:#4788C7;}
</style>
<path class="st0" d="M9,17.5c-4.7,0-8.5-3.8-8.5-8.5S4.3,0.5,9,0.5c2.3,0,4.4,0.9,6,2.5l0.4,0.4l2.1-2.1v6.3h-6.3l2-2l-0.4-0.4
	c-1-1-2.4-1.6-3.9-1.6C6,3.5,3.5,6,3.5,9S6,14.5,9,14.5c2.1,0,4-1.2,4.9-3h3.2C16,15.1,12.8,17.5,9,17.5z"/>
<path class="st1" d="M9,1c2.1,0,4.1,0.8,5.6,2.3l0.7,0.7l0.7-0.7L17,2.4V7h-4.6l0.8-0.8l0.7-0.7l-0.7-0.7C12.1,3.6,10.6,3,9,3
	C5.7,3,3,5.7,3,9s2.7,6,6,6c2.2,0,4.1-1.2,5.2-3h2.2c-1.2,3-4.1,5-7.4,5c-4.4,0-8-3.6-8-8S4.6,1,9,1 M18,0l-2.6,2.6
	C13.7,1,11.5,0,9,0C4,0,0,4,0,9s4,9,9,9c4.3,0,7.9-3,8.8-7h-4.2c-0.8,1.8-2.5,3-4.6,3c-2.8,0-5-2.2-5-5s2.2-5,5-5
	c1.4,0,2.6,0.6,3.5,1.5L10,8h8V0L18,0z"/>
</svg>
