<?xml version="1.0" encoding="utf-8"?>
<!-- Generator: Adobe Illustrator 21.0.2, SVG Export Plug-In . SVG Version: 6.00 Build 0)  -->
<svg version="1.1" id="Layer_1" xmlns="http://www.w3.org/2000/svg" xmlns:xlink="http://www.w3.org/1999/xlink" x="0px" y="0px"
	 viewBox="0 0 18 18" style="enable-background:new 0 0 18 18;" xml:space="preserve">
<style type="text/css">
	.st0{fill:#98CCFD;}
	.st1{fill:#4788C7;}
</style>
<polygon class="st0" points="9,14.1 4.1,16.7 5,11.2 1.1,7.3 6.5,6.5 9,1.6 11.5,6.5 16.9,7.3 13,11.2 13.9,16.7 "/>
<path class="st1" d="M9,2.7l1.9,3.8L11.1,7L11.6,7l4.2,0.6l-3,3L12.4,11l0.1,0.5l0.7,4.2l-3.8-2L9,13.5l-0.5,0.2l-3.8,2l0.7-4.2
	L5.6,11l-0.4-0.4l-3-3L6.4,7L6.9,7l0.2-0.5L9,2.7 M9,0.4L6.2,6.1L0,7l4.5,4.4l-1,6.2L9,14.7l5.6,2.9l-1-6.2L18,7l-6.2-0.9L9,0.4
	L9,0.4z"/>
</svg>
