<?xml version="1.0" encoding="utf-8"?>
<!-- Generator: Adobe Illustrator 21.0.2, SVG Export Plug-In . SVG Version: 6.00 Build 0)  -->
<svg version="1.1" id="Layer_1" xmlns="http://www.w3.org/2000/svg" xmlns:xlink="http://www.w3.org/1999/xlink" x="0px" y="0px"
	 viewBox="0 0 18 16" style="enable-background:new 0 0 18 16;" xml:space="preserve">
<style type="text/css">
	.st0{fill:#98CCFD;}
	.st1{fill:#4788C7;}
</style>
<path class="st0" d="M9,15.4c-1.5-1-8.5-5.9-8.5-10.3c0-2.6,2.1-4.6,4.6-4.6c1.3,0,2.6,0.6,3.5,1.6L9,2.5l0.4-0.4
	c0.9-1,2.2-1.6,3.5-1.6c2.6,0,4.6,2.1,4.6,4.6C17.5,9.5,10.5,14.4,9,15.4z"/>
<path class="st1" d="M12.9,1C15.1,1,17,2.9,17,5.1c0,3.5-5.3,7.9-8,9.7C6.3,13,1,8.6,1,5.1C1,2.9,2.9,1,5.1,1c1.2,0,2.3,0.5,3.1,1.4
	L9,3.3l0.8-0.9C10.5,1.5,11.7,1,12.9,1 M12.9,0C11.3,0,9.9,0.7,9,1.8C8.1,0.7,6.7,0,5.1,0C2.3,0,0,2.3,0,5.1C0,10.3,9,16,9,16
	s9-5.7,9-10.9C18,2.3,15.7,0,12.9,0L12.9,0z"/>
</svg>
