<?xml version="1.0" encoding="utf-8"?>
<!-- Generator: Adobe Illustrator 21.0.2, SVG Export Plug-In . SVG Version: 6.00 Build 0)  -->
<svg version="1.1" id="Layer_1" xmlns="http://www.w3.org/2000/svg" xmlns:xlink="http://www.w3.org/1999/xlink" x="0px" y="0px"
	 viewBox="0 0 18 18" style="enable-background:new 0 0 18 18;" xml:space="preserve">
<style type="text/css">
	.st0{fill:none;stroke:#4788C7;stroke-width:2;stroke-miterlimit:10;}
	.st1{fill:#98CCFD;}
	.st2{fill:#4788C7;}
</style>
<path class="st0" d="M13.6,4.1C12.9,2.3,11.1,1,9,1C6.2,1,4,3.2,4,6c0,0.2,0,2.9,0,2.9"/>
<path class="st1" d="M0.5,17.5V9c0-0.8,0.7-1.5,1.5-1.5h14c0.8,0,1.5,0.7,1.5,1.5v8.5H0.5z"/>
<path class="st2" d="M16,8c0.6,0,1,0.4,1,1v8H1V9c0-0.6,0.4-1,1-1H16 M16,7H2C0.9,7,0,7.9,0,9v9h18V9C18,7.9,17.1,7,16,7L16,7z"/>
</svg>
