<?xml version="1.0" encoding="utf-8"?>
<!-- Generator: Adobe Illustrator 21.0.2, SVG Export Plug-In . SVG Version: 6.00 Build 0)  -->
<svg version="1.1" id="Layer_1" xmlns="http://www.w3.org/2000/svg" xmlns:xlink="http://www.w3.org/1999/xlink" x="0px" y="0px"
	 viewBox="0 0 16 18" style="enable-background:new 0 0 16 18;" xml:space="preserve">
<style type="text/css">
	.st0{fill:#98CCFD;}
	.st1{fill:#4788C7;}
	.st2{fill:#DFF0FE;}
</style>
<path class="st0" d="M8,17.5C6.9,17,0.6,14.1,0.5,2.9L8,0.5l7.5,2.4C15.4,14.1,9.1,17,8,17.5z"/>
<path class="st1" d="M8,1l7,2.2c-0.2,10-5.6,13-7,13.6c-1.4-0.6-6.7-3.6-7-13.6L8,1 M8,0L0,2.6C0,15.4,8,18,8,18s8-2.6,8-15.4L8,0
	L8,0z"/>
<path class="st2" d="M8,14.6c-1.5-1-4.4-3.7-4.9-9.9L8,3.2l4.9,1.6C12.4,11,9.5,13.6,8,14.6z"/>
</svg>
