<?xml version="1.0" encoding="utf-8"?>
<!-- Generator: Adobe Illustrator 21.0.2, SVG Export Plug-In . SVG Version: 6.00 Build 0)  -->
<svg version="1.1" id="Layer_1" xmlns="http://www.w3.org/2000/svg" xmlns:xlink="http://www.w3.org/1999/xlink" x="0px" y="0px"
	 viewBox="0 0 18 18" style="enable-background:new 0 0 18 18;" xml:space="preserve">
<style type="text/css">
	.st0{fill:#98CCFD;}
	.st1{fill:#4788C7;}
</style>
<path class="st0" d="M4.5,17.5v-4.4l-0.7,0.2c-0.3,0.1-0.6,0.2-0.8,0.2c-1.4,0-2.5-1.1-2.5-2.5S1.6,8.5,3,8.5c0.3,0,0.5,0.1,0.8,0.2
	l0.7,0.2V4.5h4.4L8.7,3.8C8.6,3.5,8.5,3.3,8.5,3c0-1.4,1.1-2.5,2.5-2.5s2.5,1.1,2.5,2.5c0,0.3-0.1,0.5-0.2,0.8l-0.2,0.7h4.4v4.1
	c-0.2,0-0.3-0.1-0.5-0.1c-1.4,0-2.5,1.1-2.5,2.5s1.1,2.5,2.5,2.5c0.2,0,0.3,0,0.5-0.1v4.1H4.5z"/>
<path class="st1" d="M11,1c1.1,0,2,0.9,2,2c0,0.2,0,0.4-0.1,0.7L12.4,5h1.4H17v3c-1.7,0-3,1.3-3,3s1.3,3,3,3v3H5v-3.2v-1.4l-1.3,0.5
	C3.4,13,3.2,13,3,13c-1.1,0-2-0.9-2-2s0.9-2,2-2c0.2,0,0.4,0,0.7,0.1L5,9.6V8.2V5h3.2h1.4L9.1,3.7C9,3.4,9,3.2,9,3C9,1.9,9.9,1,11,1
	 M11,0C9.3,0,8,1.3,8,3c0,0.4,0.1,0.7,0.2,1H4v4.2C3.7,8.1,3.4,8,3,8c-1.7,0-3,1.3-3,3s1.3,3,3,3c0.4,0,0.7-0.1,1-0.2V18h14v-5.3
	c-0.3,0.2-0.6,0.3-1,0.3c-1.1,0-2-0.9-2-2s0.9-2,2-2c0.4,0,0.7,0.1,1,0.3V4h-4.2C13.9,3.7,14,3.4,14,3C14,1.3,12.7,0,11,0L11,0z"/>
</svg>
