<?xml version="1.0" encoding="utf-8"?>
<!-- Generator: Adobe Illustrator 21.0.2, SVG Export Plug-In . SVG Version: 6.00 Build 0)  -->
<svg version="1.1" id="Layer_1" xmlns="http://www.w3.org/2000/svg" xmlns:xlink="http://www.w3.org/1999/xlink" x="0px" y="0px"
	 viewBox="0 0 18 18" style="enable-background:new 0 0 18 18;" xml:space="preserve">
<style type="text/css">
	.st0{fill:#98CCFD;}
	.st1{fill:#4788C7;}
</style>
<path class="st0" d="M3,17.5c-0.7,0-1.3-0.3-1.8-0.7c-1-1-1-2.6,0-3.6l6.5-6.4l3.5,3.6l-6.5,6.4C4.3,17.2,3.7,17.5,3,17.5L3,17.5z"
	/>
<path class="st1" d="M7.7,7.5l2.8,2.9l-6.1,6.1C4.1,16.8,3.6,17,3,17c-0.5,0-1.1-0.2-1.4-0.6c-0.8-0.8-0.8-2.1,0-2.9L7.7,7.5
	 M7.8,6.1l-6.9,6.8c-1.2,1.2-1.2,3.1,0,4.3C1.5,17.7,2.2,18,3,18c0.8,0,1.5-0.3,2.1-0.9l6.9-6.8L7.8,6.1L7.8,6.1z"/>
<path class="st0" d="M12.9,11.5c-1.6,0-3.2-0.7-4.5-2C6.2,7.2,5.9,3.9,7.7,2.1c1-1,2.7-1.6,4.2-1.6c0.7,0,1.3,0.1,1.9,0.4l-3,3
	l0.8,2.5l2.5,0.8l3-3c0.9,2,0,4.8-1.3,6.1C15.1,11.1,14.1,11.5,12.9,11.5L12.9,11.5z"/>
<path class="st1" d="M11.9,1L11.9,1c0.3,0,0.6,0,0.9,0.1l-2.2,2.2l-0.4,0.4l0.2,0.6l0.7,2l0.2,0.5L11.7,7l2,0.7l0.6,0.2l0.4-0.4
	l2.2-2.2c0.3,1.7-0.4,3.8-1.4,4.8c-0.6,0.6-1.5,1-2.6,1c-1.4,0-2.9-0.7-4.1-1.9c-1-1-1.7-2.3-1.8-3.6C6.9,4.3,7.3,3.2,8,2.5
	C8.9,1.6,10.5,1,11.9,1 M11.9,0c-1.7,0-3.6,0.7-4.6,1.8c-2,2-1.7,5.6,0.8,8.1c1.4,1.4,3.2,2.1,4.8,2.1c1.2,0,2.4-0.4,3.3-1.3
	c1.5-1.5,2.4-4.7,1.3-6.9l-0.4-0.4L14,6.7L12,6l-0.7-2l3.2-3.2l-0.3-0.3C13.5,0.2,12.7,0,11.9,0L11.9,0z"/>
</svg>
