<?xml version="1.0" encoding="utf-8"?>
<!-- Generator: Adobe Illustrator 21.0.2, SVG Export Plug-In . SVG Version: 6.00 Build 0)  -->
<svg version="1.1" id="Layer_1" xmlns="http://www.w3.org/2000/svg" xmlns:xlink="http://www.w3.org/1999/xlink" x="0px" y="0px"
	 viewBox="0 0 18 18" style="enable-background:new 0 0 18 18;" xml:space="preserve">
<style type="text/css">
	.st0{fill:#98CCFD;}
	.st1{fill:#4788C7;}
</style>
<g>
	<g>
		<path class="st0" d="M7.9,17.5l-0.4-2.2l-0.3-0.1c-1.1-0.3-2-0.9-2.8-1.6l-0.2-0.2l-2,0.8l-1.1-1.9l1.7-1.4l-0.1-0.3
			C2.6,10.1,2.5,9.5,2.5,9s0.1-1.1,0.2-1.6l0.1-0.3L1.1,5.7l1.1-1.9l2,0.8l0.2-0.2C5.2,3.6,6.2,3,7.3,2.7l0.3-0.1l0.4-2.2h2.2
			l0.4,2.2l0.3,0.1c1.1,0.3,2,0.9,2.8,1.6l0.2,0.2l2-0.8l1.1,1.9l-1.7,1.4l0.1,0.3c0.1,0.5,0.2,1.1,0.2,1.6s-0.1,1.1-0.2,1.6
			l-0.1,0.3l1.7,1.4l-1.1,1.9l-2-0.8l-0.2,0.2c-0.8,0.8-1.8,1.3-2.8,1.6l-0.3,0.1l-0.4,2.2H7.9z M9,5.5C7.1,5.5,5.5,7.1,5.5,9
			s1.6,3.5,3.5,3.5s3.5-1.6,3.5-3.5S10.9,5.5,9,5.5z"/>
	</g>
	<g>
		<path class="st1" d="M9.7,1l0.2,1.4L10,3.1l0.6,0.2c1,0.3,1.9,0.8,2.6,1.5l0.5,0.4l0.6-0.2l1.4-0.5l0.7,1.1l-1.1,0.9l-0.5,0.4
			l0.2,0.6C14.9,8,15,8.5,15,9c0,0.5-0.1,1-0.2,1.5l-0.2,0.6l0.5,0.4l1.1,0.9l-0.7,1.1l-1.4-0.5l-0.6-0.2l-0.5,0.4
			c-0.7,0.7-1.6,1.2-2.6,1.5L10,14.9l-0.1,0.6L9.7,17H8.3l-0.2-1.4L8,14.9l-0.6-0.2c-1-0.3-1.9-0.8-2.6-1.5l-0.5-0.4l-0.6,0.2
			l-1.4,0.5l-0.7-1.1l1.1-0.9l0.5-0.4l-0.2-0.6C3.1,10,3,9.5,3,9s0.1-1,0.2-1.5l0.2-0.6L2.9,6.5L1.7,5.6l0.7-1.1l1.4,0.5l0.6,0.2
			l0.5-0.4C5.5,4,6.4,3.5,7.4,3.2L8,3.1l0.1-0.6L8.3,1H9.7 M9,13c2.2,0,4-1.8,4-4s-1.8-4-4-4S5,6.8,5,9S6.8,13,9,13 M10.5,0h-3
			L7.1,2.3C6,2.6,4.9,3.2,4.1,4L2,3.2L0.5,5.8l1.8,1.5C2.1,7.8,2,8.4,2,9s0.1,1.2,0.2,1.7l-1.8,1.5L2,14.8L4.1,14
			c0.8,0.8,1.9,1.4,3,1.7L7.5,18h3l0.4-2.3c1.2-0.3,2.2-0.9,3-1.7l2.1,0.8l1.5-2.6l-1.8-1.5C15.9,10.2,16,9.6,16,9s-0.1-1.2-0.2-1.7
			l1.8-1.5L16,3.2L13.9,4c-0.8-0.8-1.9-1.4-3-1.7L10.5,0L10.5,0z M9,12c-1.7,0-3-1.3-3-3s1.3-3,3-3s3,1.3,3,3S10.7,12,9,12L9,12z"/>
	</g>
</g>
</svg>
