<?xml version="1.0" encoding="utf-8"?>
<!-- Generator: Adobe Illustrator 21.0.2, SVG Export Plug-In . SVG Version: 6.00 Build 0)  -->
<svg version="1.1" id="Layer_1" xmlns="http://www.w3.org/2000/svg" xmlns:xlink="http://www.w3.org/1999/xlink" x="0px" y="0px"
	 viewBox="0 0 18 12" style="enable-background:new 0 0 18 12;" xml:space="preserve">
<style type="text/css">
	.st0{fill:#98CCFD;}
	.st1{fill:#4788C7;}
</style>
<g>
	<g>
		<path class="st0" d="M3,11.5c-1.4,0-2.5-1.1-2.5-2.5c0-1.1,0.7-2,1.7-2.4l0.3-0.1V6.2c0.1-1.6,1.4-2.7,3-2.7c0.2,0,0.4,0,0.5,0.1
			l0.5,0.1l0.1-0.5C7,1.6,8.4,0.5,10,0.5s3,1.1,3.4,2.6l0.1,0.4h0.4H14c1.4,0,2.5,1.1,2.5,2.5c0,0.2,0,0.4-0.1,0.6l-0.1,0.3l0.2,0.2
			c0.6,0.5,0.9,1.2,0.9,1.9c0,1.4-1.1,2.5-2.5,2.5H3z"/>
	</g>
	<g>
		<path class="st1" d="M10,1c1.4,0,2.6,0.9,2.9,2.3L13.1,4h0.8C14,4,14,4,14,4c1.1,0,2,0.9,2,2c0,0.1,0,0.3-0.1,0.5l-0.1,0.6
			l0.5,0.4C16.7,7.9,17,8.4,17,9c0,1.1-0.9,2-2,2H3c-1.1,0-2-0.9-2-2c0-0.8,0.5-1.6,1.4-1.9L3,6.9V6.3C3.2,5,4.2,4,5.5,4
			c0.1,0,0.3,0,0.4,0l0.9,0.2L7,3.3C7.4,1.9,8.6,1,10,1 M10,0C8.1,0,6.5,1.3,6.1,3.1C5.9,3,5.7,3,5.5,3C3.7,3,2.2,4.4,2,6.2
			C0.9,6.6,0,7.7,0,9c0,1.7,1.3,3,3,3h12c1.7,0,3-1.3,3-3c0-0.9-0.4-1.7-1.1-2.3C17,6.5,17,6.2,17,6c0-1.7-1.3-3-3-3h-0.1
			C13.4,1.3,11.9,0,10,0L10,0z"/>
	</g>
</g>
</svg>
