<?xml version="1.0" encoding="utf-8"?>
<!-- Generator: Adobe Illustrator 21.0.2, SVG Export Plug-In . SVG Version: 6.00 Build 0)  -->
<svg version="1.1" id="Layer_1" xmlns="http://www.w3.org/2000/svg" xmlns:xlink="http://www.w3.org/1999/xlink" x="0px" y="0px"
	 viewBox="0 0 18 18" style="enable-background:new 0 0 18 18;" xml:space="preserve">
<style type="text/css">
	.st0{fill:#98CCFD;}
	.st1{fill:#4788C7;}
	.st2{fill:none;stroke:#FFFFFF;stroke-width:2;stroke-miterlimit:10;}
</style>
<path class="st0" d="M9,17.5c-4.7,0-8.5-3.8-8.5-8.5S4.3,0.5,9,0.5s8.5,3.8,8.5,8.5S13.7,17.5,9,17.5z"/>
<path class="st1" d="M9,1c4.4,0,8,3.6,8,8s-3.6,8-8,8s-8-3.6-8-8S4.6,1,9,1 M9,0C4,0,0,4,0,9s4,9,9,9s9-4,9-9S14,0,9,0L9,0z"/>
<path class="st2" d="M11,7L11,7c0-1.1-0.9-2-2-2H9C7.9,5,7,5.9,7,7l0,0c0,0.9,0.6,1.6,1.4,1.9l1.2,0.3c0.8,0.2,1.4,1,1.4,1.9l0,0
	c0,1.1-0.9,2-2,2H9c-1.1,0-2-0.9-2-2v0"/>
<line class="st2" x1="9" y1="3" x2="9" y2="4.5"/>
<line class="st2" x1="9" y1="13.5" x2="9" y2="15"/>
</svg>
