<?xml version="1.0" encoding="utf-8"?>
<!-- Generator: Adobe Illustrator 21.0.2, SVG Export Plug-In . SVG Version: 6.00 Build 0)  -->
<svg version="1.1" id="Layer_1" xmlns="http://www.w3.org/2000/svg" xmlns:xlink="http://www.w3.org/1999/xlink" x="0px" y="0px"
	 viewBox="0 0 18 18" style="enable-background:new 0 0 18 18;" xml:space="preserve">
<style type="text/css">
	.st0{fill:#98CCFD;}
	.st1{fill:#4788C7;}
	.st2{fill:#B6DCFE;}
</style>
<g>
	<circle class="st0" cx="9" cy="16" r="1.5"/>
</g>
<path class="st1" d="M9,15c0.6,0,1,0.4,1,1c0,0.6-0.4,1-1,1s-1-0.4-1-1S8.4,15,9,15 M9,14c-1.1,0-2,0.9-2,2s0.9,2,2,2s2-0.9,2-2
	S10.1,14,9,14L9,14z"/>
<circle class="st2" cx="9" cy="2" r="1.5"/>
<path class="st1" d="M9,1c0.6,0,1,0.4,1,1S9.6,3,9,3S8,2.6,8,2S8.4,1,9,1 M9,0C7.9,0,7,0.9,7,2s0.9,2,2,2s2-0.9,2-2S10.1,0,9,0L9,0z
	"/>
<path class="st2" d="M1.5,15.5v-2c1.7-0.2,3-1.7,3-3.5V7c0-2.5,2-4.5,4.5-4.5s4.5,2,4.5,4.5v3c0,1.8,1.3,3.2,3,3.5v2H1.5z"/>
<path class="st1" d="M9,3c2.2,0,4,1.8,4,4v3c0,1.9,1.3,3.4,3,3.9V15H2v-1.1c1.7-0.4,3-2,3-3.9V7C5,4.8,6.8,3,9,3 M9,2
	C6.2,2,4,4.2,4,7v3c0,1.7-1.3,3-3,3v3h16v-3c-1.7,0-3-1.3-3-3V7C14,4.2,11.8,2,9,2L9,2z"/>
</svg>
