<?xml version="1.0" encoding="utf-8"?>
<!-- Generator: Adobe Illustrator 21.0.2, SVG Export Plug-In . SVG Version: 6.00 Build 0)  -->
<svg version="1.1" id="Layer_1" xmlns="http://www.w3.org/2000/svg" xmlns:xlink="http://www.w3.org/1999/xlink" x="0px" y="0px"
	 viewBox="0 0 18 18" style="enable-background:new 0 0 18 18;" xml:space="preserve">
<style type="text/css">
	.st0{fill:#FFFFFF;}
	.st1{fill:#4788C7;}
	.st2{fill:#98CCFD;}
	.st3{fill:#B6DCFE;}
</style>
<rect x="0.5" y="0.5" class="st0" width="17" height="17"/>
<path class="st1" d="M17,1v16H1V1H17 M18,0H0v18h18V0L18,0z"/>
<rect x="0.5" y="0.5" class="st2" width="17" height="3"/>
<path class="st1" d="M17,1v2H1V1H17 M18,0H0v4h18V0L18,0z"/>
<rect x="9" y="7" class="st3" width="2" height="2"/>
<rect x="12" y="7" class="st3" width="2" height="2"/>
<rect x="6" y="7" class="st3" width="2" height="2"/>
<rect x="9" y="10" class="st3" width="2" height="2"/>
<rect x="12" y="10" class="st3" width="2" height="2"/>
<rect x="6" y="10" class="st3" width="2" height="2"/>
<rect x="3" y="10" class="st3" width="2" height="2"/>
<rect x="9" y="13" class="st3" width="2" height="2"/>
<rect x="6" y="13" class="st3" width="2" height="2"/>
<rect x="3" y="13" class="st3" width="2" height="2"/>
</svg>
