<?xml version="1.0" encoding="utf-8"?>
<!-- Generator: Adobe Illustrator 21.0.2, SVG Export Plug-In . SVG Version: 6.00 Build 0)  -->
<svg version="1.1" id="Layer_1" xmlns="http://www.w3.org/2000/svg" xmlns:xlink="http://www.w3.org/1999/xlink" x="0px" y="0px"
	 viewBox="0 0 18 12" style="enable-background:new 0 0 18 12;" xml:space="preserve">
<style type="text/css">
	.st0{fill:#FFFFFF;}
	.st1{fill:#4788C7;}
	.st2{fill:#98CCFD;}
	.st3{fill:#DFF0FE;}
</style>
<path class="st0" d="M9,11.5c-4.1,0-7.5-4.3-8.4-5.5C1.5,4.8,5,0.5,9,0.5c4.1,0,7.5,4.3,8.4,5.5C16.5,7.2,13,11.5,9,11.5z"/>
<path class="st1" d="M9,1c3.5,0,6.7,3.6,7.8,5c-1.1,1.4-4.2,5-7.8,5S2.3,7.4,1.2,6C2.3,4.6,5.5,1,9,1 M9,0C4,0,0,6,0,6s4,6,9,6
	s9-6,9-6S14,0,9,0L9,0z"/>
<circle class="st2" cx="9" cy="6" r="4"/>
<circle class="st1" cx="9" cy="6" r="2"/>
<circle class="st3" cx="10" cy="5" r="1"/>
</svg>
