<?xml version="1.0" encoding="utf-8"?>
<!-- Generator: Adobe Illustrator 21.0.2, SVG Export Plug-In . SVG Version: 6.00 Build 0)  -->
<svg version="1.1" id="Layer_1" xmlns="http://www.w3.org/2000/svg" xmlns:xlink="http://www.w3.org/1999/xlink" x="0px" y="0px"
	 viewBox="0 0 18 14" style="enable-background:new 0 0 18 14;" xml:space="preserve">
<style type="text/css">
	.st0{fill:none;stroke:#4788C7;stroke-linecap:round;stroke-miterlimit:10;}
	.st1{fill:#98CCFD;}
	.st2{fill:#4788C7;}
</style>
<line class="st0" x1="10.7" y1="12.9" x2="10" y2="9.3"/>
<line class="st0" x1="17.5" y1="8.6" x2="14.8" y2="6.3"/>
<line class="st0" x1="15.8" y1="10.3" x2="13.1" y2="7.2"/>
<line class="st0" x1="13.5" y1="11.9" x2="11.6" y2="8.2"/>
<line class="st0" x1="7.3" y1="12.9" x2="8" y2="9.3"/>
<line class="st0" x1="0.5" y1="8.6" x2="3.2" y2="6.3"/>
<line class="st0" x1="2.2" y1="10.3" x2="4.9" y2="7.2"/>
<line class="st0" x1="4.5" y1="11.9" x2="6.4" y2="8.2"/>
<g>
	<path class="st1" d="M9,11.5c-4.1,0-7.5-4.3-8.4-5.5C1.5,4.8,5,0.5,9,0.5c4.1,0,7.5,4.3,8.4,5.5C16.5,7.2,13,11.5,9,11.5z"/>
	<g>
		<path class="st2" d="M9,1c3.5,0,6.7,3.6,7.8,5c-1.1,1.4-4.2,5-7.8,5S2.3,7.4,1.2,6C2.3,4.6,5.5,1,9,1 M9,0C4,0,0,6,0,6s4,6,9,6
			s9-6,9-6S14,0,9,0L9,0z"/>
	</g>
</g>
</svg>
