<?xml version="1.0" encoding="utf-8"?>
<!-- Generator: Adobe Illustrator 21.0.2, SVG Export Plug-In . SVG Version: 6.00 Build 0)  -->
<svg version="1.1" id="Layer_1" xmlns="http://www.w3.org/2000/svg" xmlns:xlink="http://www.w3.org/1999/xlink" x="0px" y="0px"
	 viewBox="0 0 18 18" style="enable-background:new 0 0 18 18;" xml:space="preserve">
<style type="text/css">
	.st0{fill:#98CCFD;}
	.st1{fill:#4788C7;}
	.st2{fill:#FFFFFF;}
</style>
<path class="st0" d="M9,17.5c-4.7,0-8.5-3.8-8.5-8.5S4.3,0.5,9,0.5s8.5,3.8,8.5,8.5S13.7,17.5,9,17.5z"/>
<path class="st1" d="M9,1c4.4,0,8,3.6,8,8s-3.6,8-8,8s-8-3.6-8-8S4.6,1,9,1 M9,0C4,0,0,4,0,9s4,9,9,9s9-4,9-9S14,0,9,0L9,0z"/>
<path class="st2" d="M8,11.1c0-0.1-0.1-0.4-0.1-0.8c0-2,2.1-2.1,2.1-3.6c0-0.1-0.1-1-1.1-1c-1.1,0-1.9,0.6-2.2,0.9V4.5
	c0.4-0.2,1.2-0.6,2.5-0.6c3,0,3,2.1,3,2.5c0,2.4-2.5,2.5-2.5,4.1c0,0.3,0.1,0.6,0.2,0.6L8,11.1L8,11.1z M9,14.1
	c-0.5,0-1.3-0.3-1.3-1.2c0-0.4,0.3-1.1,1.3-1.1c0.9,0,1.3,0.7,1.3,1.1C10.3,13.5,9.9,14.1,9,14.1z"/>
</svg>
