<?xml version="1.0" encoding="utf-8"?>
<!-- Generator: Adobe Illustrator 21.0.2, SVG Export Plug-In . SVG Version: 6.00 Build 0)  -->
<svg version="1.1" id="Layer_1" xmlns="http://www.w3.org/2000/svg" xmlns:xlink="http://www.w3.org/1999/xlink" x="0px" y="0px"
	 viewBox="0 0 16 18" style="enable-background:new 0 0 16 18;" xml:space="preserve">
<style type="text/css">
	.st0{fill:#DFF0FE;}
	.st1{fill:#4788C7;}
	.st2{fill:#98CCFD;}
</style>
<path class="st0" d="M1.5,17.5V15c0-2.3,1.2-4.4,3.2-5.6L5.4,9L4.7,8.6C2.7,7.4,1.5,5.3,1.5,3V0.5h13V3c0,2.3-1.2,4.4-3.2,5.6
	L10.6,9l0.7,0.4c2,1.2,3.2,3.3,3.2,5.6v2.5H1.5z"/>
<path class="st1" d="M14,1v2c0,2.1-1.1,4-2.9,5.1L9.6,9l1.4,0.9c1.8,1.1,2.9,3,2.9,5.1v2H2v-2c0-2.1,1.1-4,2.9-5.1L6.4,9L4.9,8.1
	C3.1,7,2,5.1,2,3V1H14 M15,0H1v3c0,2.6,1.4,4.8,3.4,6c-2,1.2-3.4,3.4-3.4,6v3h14v-3c0-2.6-1.4-4.8-3.4-6c2-1.2,3.4-3.4,3.4-6V0L15,0
	z"/>
<path class="st1" d="M15.5,1h-15C0.2,1,0,0.8,0,0.5v0C0,0.2,0.2,0,0.5,0h15C15.8,0,16,0.2,16,0.5v0C16,0.8,15.8,1,15.5,1z"/>
<g>
	<g>
		<path class="st2" d="M12,3c0,2.2-1.8,4-4,4S4,5.2,4,3H12z"/>
	</g>
</g>
<rect x="3" y="2" class="st0" width="10" height="2"/>
<g>
	<path class="st2" d="M12,18c0-2.7-1.6-4.9-4-6c-2.4,1.1-4,3.3-4,6H12z"/>
</g>
<path class="st1" d="M15.5,18h-15C0.2,18,0,17.8,0,17.5l0,0C0,17.2,0.2,17,0.5,17h15c0.3,0,0.5,0.2,0.5,0.5l0,0
	C16,17.8,15.8,18,15.5,18z"/>
</svg>
