<?xml version="1.0" encoding="utf-8"?>
<!-- Generator: Adobe Illustrator 21.0.2, SVG Export Plug-In . SVG Version: 6.00 Build 0)  -->
<svg version="1.1" id="Layer_1" xmlns="http://www.w3.org/2000/svg" xmlns:xlink="http://www.w3.org/1999/xlink" x="0px" y="0px"
	 viewBox="0 0 18 18" style="enable-background:new 0 0 18 18;" xml:space="preserve">
<style type="text/css">
	.st0{fill:#4788C7;}
	.st1{fill:#98CCFD;}
</style>
<polygon class="st0" points="8,11 7,10 0,17 0,18 1,18 "/>
<g>
	<path class="st1" d="M3.3,7.1c1-0.8,2.2-1.2,3.4-1.2c0.5,0,0.9,0.1,1.4,0.2l0.3,0.1l4-5.4l4.9,4.9l-5.4,4l0.1,0.3
		c0.4,1.7,0,3.5-1.1,4.8L3.3,7.1z"/>
	<path class="st0" d="M12.4,1.5l4,4L11.8,9l-0.6,0.4l0.2,0.7c0.4,1.3,0.1,2.8-0.6,3.9L4.1,7.2c0.8-0.5,1.7-0.8,2.7-0.8
		c0.4,0,0.8,0.1,1.3,0.2l0.7,0.2L9,6.2L12.4,1.5 M12.3,0L8.2,5.6c-0.5-0.1-1-0.2-1.5-0.2c-1.5,0-3,0.6-4.1,1.7l8.3,8.3
		c1.5-1.5,2-3.7,1.5-5.6L18,5.7L12.3,0L12.3,0z"/>
</g>
</svg>
