<?xml version="1.0" encoding="utf-8"?>
<!-- Generator: Adobe Illustrator 21.0.2, SVG Export Plug-In . SVG Version: 6.00 Build 0)  -->
<svg version="1.1" id="Layer_1" xmlns="http://www.w3.org/2000/svg" xmlns:xlink="http://www.w3.org/1999/xlink" x="0px" y="0px"
	 viewBox="0 0 18 16" style="enable-background:new 0 0 18 16;" xml:space="preserve">
<style type="text/css">
	.st0{fill:#98CCFD;}
	.st1{fill:#4788C7;}
	.st2{fill:#B6DCFE;}
</style>
<path class="st0" d="M13.3,14.5c-0.4,0-0.8-0.2-1.1-0.4l-7.9-8l2.2-2.2l10.6,10.6H13.3z"/>
<path class="st1" d="M6.6,4.6L16,14h-2.6c-0.3,0-0.5-0.1-0.7-0.3L5,6.1L6.6,4.6 M6.6,3.2l-3,2.9l8.3,8.3c0.4,0.4,0.9,0.6,1.4,0.6H18
	v-0.4L6.6,3.2L6.6,3.2z"/>
<g>
	<g>
		<path class="st1" d="M3.5,0C1.6,0,0,1.6,0,3.5S1.6,7,3.5,7S7,5.4,7,3.5S5.4,0,3.5,0z M3.5,5.3c-1,0-1.8-0.8-1.8-1.8
			s0.8-1.8,1.8-1.8s1.8,0.8,1.8,1.8S4.5,5.3,3.5,5.3z"/>
	</g>
</g>
<path class="st2" d="M4.5,9.7l7.8-7.8c0.3-0.3,0.7-0.4,1.1-0.4h3.8L6.7,11.9L4.5,9.7z"/>
<path class="st1" d="M15.9,2l-9.2,9.2L5.2,9.7l7.4-7.4C12.8,2.1,13.1,2,13.3,2H15.9 M18,1h-4.7c-0.5,0-1,0.2-1.4,0.6L3.8,9.7
	l2.9,2.9L18,1.4V1L18,1z"/>
<g>
	<g>
		<path class="st1" d="M3.5,9C1.6,9,0,10.6,0,12.5S1.6,16,3.5,16S7,14.4,7,12.5S5.4,9,3.5,9z M3.5,14.3c-1,0-1.8-0.8-1.8-1.8
			s0.8-1.8,1.8-1.8s1.8,0.8,1.8,1.8S4.5,14.3,3.5,14.3z"/>
	</g>
</g>
</svg>
