<?xml version="1.0" encoding="utf-8"?>
<!-- Generator: Adobe Illustrator 21.0.2, SVG Export Plug-In . SVG Version: 6.00 Build 0)  -->
<svg version="1.1" id="Layer_1" xmlns="http://www.w3.org/2000/svg" xmlns:xlink="http://www.w3.org/1999/xlink" x="0px" y="0px"
	 viewBox="0 0 18 13" style="enable-background:new 0 0 18 13;" xml:space="preserve">
<style type="text/css">
	.st0{fill:#4788C7;}
</style>
<g>
	<g>
		<path class="st0" d="M6,9.7l3,3l3-3C11.2,9,10.2,8.5,9,8.5S6.8,9,6,9.7z"/>
	</g>
	<g>
		<path class="st0" d="M0,3.7l1.5,1.5C3.4,3.3,6.1,2.1,9,2.1s5.6,1.2,7.5,3.1L18,3.7C15.7,1.4,12.5,0,9,0S2.3,1.4,0,3.7z"/>
	</g>
	<g>
		<path class="st0" d="M3,6.7l1.5,1.5C5.7,7.1,7.2,6.4,9,6.4s3.3,0.7,4.5,1.9L15,6.7c-1.5-1.5-3.7-2.5-6-2.5S4.5,5.2,3,6.7z"/>
	</g>
</g>
</svg>
