<?xml version="1.0" encoding="utf-8"?>
<!-- Generator: Adobe Illustrator 21.0.2, SVG Export Plug-In . SVG Version: 6.00 Build 0)  -->
<svg version="1.1" id="Layer_1" xmlns="http://www.w3.org/2000/svg" xmlns:xlink="http://www.w3.org/1999/xlink" x="0px" y="0px"
	 viewBox="0 0 18 16" style="enable-background:new 0 0 18 16;" xml:space="preserve">
<style type="text/css">
	.st0{fill:#98CCFD;}
	.st1{fill:#4788C7;}
</style>
<path class="st0" d="M14.5,15.5V9c0-0.8-0.7-1.5-1.5-1.5H7.5V11L0.8,6l6.7-5v3.5H13c2.5,0,4.5,2,4.5,4.5v6.5H14.5z"/>
<path class="st1" d="M7,2v2v1h1h5c2.2,0,4,1.8,4,4v6h-2V9c0-1.1-0.9-2-2-2H8H7v1v2L1.7,6L7,2 M8,0L0,6l8,6V8h5c0.6,0,1,0.4,1,1v7h4
	V9c0-2.8-2.2-5-5-5H8V0L8,0z"/>
</svg>
