<?xml version="1.0" encoding="utf-8"?>
<!-- Generator: Adobe Illustrator 21.0.2, SVG Export Plug-In . SVG Version: 6.00 Build 0)  -->
<svg version="1.1" id="Layer_1" xmlns="http://www.w3.org/2000/svg" xmlns:xlink="http://www.w3.org/1999/xlink" x="0px" y="0px"
	 viewBox="0 0 18 16" style="enable-background:new 0 0 18 16;" xml:space="preserve">
<style type="text/css">
	.st0{fill:#98CCFD;}
	.st1{fill:#4788C7;}
</style>
<g>
	<path class="st0" d="M0.5,15.5V9c0-2.5,2-4.5,4.5-4.5h5.5V1l6.7,5l-6.7,5V7.5H5C4.2,7.5,3.5,8.2,3.5,9v6.5H0.5z"/>
</g>
<g>
	<path class="st1" d="M11,2l5.3,4L11,10V8V7h-1H5C3.9,7,3,7.9,3,9v6H1V9c0-2.2,1.8-4,4-4h5h1V4V2 M10,0v4H5C2.2,4,0,6.2,0,9v7h4V9
		c0-0.6,0.4-1,1-1h5v4l8-6L10,0L10,0z"/>
</g>
</svg>
