<?xml version="1.0" encoding="utf-8"?>
<!-- Generator: Adobe Illustrator 21.0.2, SVG Export Plug-In . SVG Version: 6.00 Build 0)  -->
<svg version="1.1" id="Layer_1" xmlns="http://www.w3.org/2000/svg" xmlns:xlink="http://www.w3.org/1999/xlink" x="0px" y="0px"
	 viewBox="0 0 18 18" style="enable-background:new 0 0 18 18;" xml:space="preserve">
<style type="text/css">
	.st0{fill:#98CCFD;}
	.st1{fill:#4788C7;}
</style>
<polygon class="st0" points="6.7,14.5 7.5,14.5 7.5,10.5 3.5,10.5 3.5,11.3 0.8,9 3.5,6.7 3.5,7.5 7.5,7.5 7.5,3.5 6.7,3.5 9,0.8 
	11.3,3.5 10.5,3.5 10.5,7.5 14.5,7.5 14.5,6.7 17.2,9 14.5,11.3 14.5,10.5 10.5,10.5 10.5,14.5 11.3,14.5 9,17.2 "/>
<path class="st1" d="M9,1.6L10.2,3H10v1v3v1h1h3h1V7.8L16.4,9L15,10.2V10h-1h-3h-1v1v3v1h0.2L9,16.4L7.8,15H8v-1v-3v-1H7H4H3v0.2
	L1.6,9L3,7.8V8h1h3h1V7V4V3H7.8L9,1.6 M9,0L5.7,4H7v3H4V5.7L0,9l4,3.3V11h3v3H5.7L9,18l3.3-4H11v-3h3v1.3L18,9l-4-3.3V7h-3V4h1.3
	L9,0L9,0z"/>
</svg>
