<?xml version="1.0" encoding="utf-8"?>
<!-- Generator: Adobe Illustrator 21.0.2, SVG Export Plug-In . SVG Version: 6.00 Build 0)  -->
<svg version="1.1" id="Layer_1" xmlns="http://www.w3.org/2000/svg" xmlns:xlink="http://www.w3.org/1999/xlink" x="0px" y="0px"
	 viewBox="0 0 18 16" style="enable-background:new 0 0 18 16;" xml:space="preserve">
<style type="text/css">
	.st0{fill:#98CCFD;}
	.st1{fill:#4788C7;}
	.st2{fill:#FFFFFF;}
</style>
<g>
	<path class="st0" d="M1,15.5c-0.3,0-0.4-0.2-0.5-0.3c0-0.1-0.1-0.3,0-0.5l8-13.8C8.7,0.7,8.9,0.6,9,0.6s0.3,0,0.5,0.3l8,13.8
		c0.1,0.2,0,0.5,0,0.5s-0.2,0.3-0.5,0.3L1,15.5L1,15.5z"/>
</g>
<path class="st1" d="M9,1.1L9,1.1l8,13.8l0,0.1H1l0-0.1L9,1.1C9,1.1,9,1.1,9,1.1 M9,0.1c-0.4,0-0.7,0.2-0.9,0.5l-8,13.8
	C-0.3,15.1,0.2,16,1,16H17c0.8,0,1.3-0.9,0.9-1.6l-8-13.8C9.7,0.3,9.4,0.1,9,0.1L9,0.1z"/>
<path class="st2" d="M9,13.4c-0.3,0-0.5-0.1-0.7-0.3s-0.3-0.4-0.3-0.6c0-0.3,0.1-0.5,0.3-0.6s0.4-0.2,0.7-0.2c0.3,0,0.5,0.1,0.7,0.2
	s0.3,0.4,0.3,0.6c0,0.3-0.1,0.5-0.3,0.6C9.6,13.3,9.3,13.4,9,13.4z M9.9,5.7l-0.2,5.2H8.3L8.1,5.7H9.9z"/>
</svg>
