<?xml version="1.0" encoding="utf-8"?>
<!-- Generator: Adobe Illustrator 21.0.2, SVG Export Plug-In . SVG Version: 6.00 Build 0)  -->
<svg version="1.1" id="Layer_1" xmlns="http://www.w3.org/2000/svg" xmlns:xlink="http://www.w3.org/1999/xlink" x="0px" y="0px"
	 viewBox="0 0 18 18" style="enable-background:new 0 0 18 18;" xml:space="preserve">
<style type="text/css">
	.st0{fill:#98CCFD;}
	.st1{fill:#4788C7;}
	.st2{fill:#FFFFFF;}
</style>
<g>
	<circle class="st0" cx="9" cy="9" r="8.5"/>
</g>
<path class="st1" d="M9,1c4.4,0,8,3.6,8,8s-3.6,8-8,8s-8-3.6-8-8S4.6,1,9,1 M9,0C4,0,0,4,0,9s4,9,9,9s9-4,9-9S14,0,9,0L9,0z"/>
<g>
	<path class="st2" d="M8.1,11.6h3.4v1.5H6.1v-0.6c0-2.8,3.6-3.4,3.6-5.2c0-1-0.8-1.1-1.2-1.1c-0.7,0-1.4,0.3-2,0.8V5.6
		C7.2,5.1,8,4.9,8.9,4.9c2.6,0,2.6,1.9,2.6,2.3C11.5,9.8,8.3,10.3,8.1,11.6z"/>
</g>
</svg>
