<?xml version="1.0" encoding="utf-8"?>
<!-- Generator: Adobe Illustrator 21.0.2, SVG Export Plug-In . SVG Version: 6.00 Build 0)  -->
<svg version="1.1" id="Layer_1" xmlns="http://www.w3.org/2000/svg" xmlns:xlink="http://www.w3.org/1999/xlink" x="0px" y="0px"
	 viewBox="0 0 18 18" style="enable-background:new 0 0 18 18;" xml:space="preserve">
<style type="text/css">
	.st0{fill:#98CCFD;}
	.st1{fill:#4788C7;}
	.st2{fill:#FFFFFF;}
</style>
<g>
	<circle class="st0" cx="9" cy="9" r="8.5"/>
</g>
<path class="st1" d="M9,1c4.4,0,8,3.6,8,8s-3.6,8-8,8s-8-3.6-8-8S4.6,1,9,1 M9,0C4,0,0,4,0,9s4,9,9,9s9-4,9-9S14,0,9,0L9,0z"/>
<g>
	<path class="st2" d="M6.3,12.9v-1.6c0.5,0.4,1.2,0.6,1.9,0.6c0.5,0,0.8-0.1,1.1-0.3c0.3-0.2,0.4-0.5,0.4-0.8c0-0.4-0.2-0.6-0.5-0.8
		C8.9,9.8,8.4,9.7,7.9,9.7H7.1V8.3h0.7c1.1,0,1.6-0.3,1.6-1.1c0-0.7-0.4-1-1.2-1c-0.5,0-1.1,0.2-1.6,0.5V5.3c0.6-0.3,1.2-0.4,2-0.4
		c0.8,0,1.5,0.2,1.9,0.6c0.5,0.4,0.7,0.9,0.7,1.5c0,1.1-0.5,1.7-1.6,2v0c0.6,0.1,1,0.3,1.4,0.6c0.3,0.3,0.5,0.8,0.5,1.3
		c0,0.8-0.3,1.4-0.8,1.8s-1.3,0.7-2.3,0.7C7.5,13.3,6.8,13.1,6.3,12.9z"/>
</g>
</svg>
