<?xml version="1.0" encoding="utf-8"?>
<!-- Generator: Adobe Illustrator 21.0.2, SVG Export Plug-In . SVG Version: 6.00 Build 0)  -->
<svg version="1.1" id="Layer_1" xmlns="http://www.w3.org/2000/svg" xmlns:xlink="http://www.w3.org/1999/xlink" x="0px" y="0px"
	 viewBox="0 0 18 18" style="enable-background:new 0 0 18 18;" xml:space="preserve">
<style type="text/css">
	.st0{fill:#98CCFD;}
	.st1{fill:#4788C7;}
	.st2{fill:#FFFFFF;}
</style>
<g>
	<circle class="st0" cx="9" cy="9" r="8.5"/>
</g>
<path class="st1" d="M9,1c4.4,0,8,3.6,8,8s-3.6,8-8,8s-8-3.6-8-8S4.6,1,9,1 M9,0C4,0,0,4,0,9s4,9,9,9s9-4,9-9S14,0,9,0L9,0z"/>
<g>
	<path class="st2" d="M11,5v5.1h1v1.3h-1v1.7H9.4v-1.7H5.9v-1.4c0.3-0.4,0.6-0.7,1-1.1s0.7-0.8,1-1.3c0.3-0.4,0.6-0.9,0.9-1.3
		C8.9,5.9,9.2,5.4,9.4,5L11,5L11,5z M7.5,10.1h1.9V7.3C9.3,7.5,9.1,7.8,9,8C8.8,8.3,8.6,8.5,8.5,8.8C8.3,9,8.1,9.3,8,9.5
		C7.8,9.7,7.6,9.9,7.5,10.1z"/>
</g>
</svg>
