<?xml version="1.0" encoding="utf-8"?>
<!-- Generator: Adobe Illustrator 21.0.2, SVG Export Plug-In . SVG Version: 6.00 Build 0)  -->
<svg version="1.1" id="Layer_1" xmlns="http://www.w3.org/2000/svg" xmlns:xlink="http://www.w3.org/1999/xlink" x="0px" y="0px"
	 viewBox="0 0 18 18" style="enable-background:new 0 0 18 18;" xml:space="preserve">
<style type="text/css">
	.st0{fill:#98CCFD;}
	.st1{fill:#4788C7;}
	.st2{fill:#FFFFFF;}
</style>
<g>
	<circle class="st0" cx="9" cy="9" r="8.5"/>
</g>
<path class="st1" d="M9,1c4.4,0,8,3.6,8,8s-3.6,8-8,8s-8-3.6-8-8S4.6,1,9,1 M9,0C4,0,0,4,0,9s4,9,9,9s9-4,9-9S14,0,9,0L9,0z"/>
<g>
	<path class="st2" d="M6.4,12.9v-1.5c0.6,0.3,1.1,0.5,1.8,0.5c0.5,0,0.8-0.1,1.1-0.3c0.3-0.2,0.4-0.5,0.4-0.9c0-0.8-0.6-1.2-1.7-1.2
		c-0.4,0-0.9,0-1.4,0.1L6.9,5h4.3v1.5H8.2L8.1,8.1c0.3,0,0.5,0,0.8,0c0.8,0,1.5,0.2,2,0.7c0.5,0.4,0.7,1,0.7,1.8
		c0,0.8-0.3,1.5-0.8,2c-0.6,0.5-1.3,0.8-2.3,0.8C7.6,13.3,7,13.1,6.4,12.9z"/>
</g>
</svg>
