<?xml version="1.0" encoding="utf-8"?>
<!-- Generator: Adobe Illustrator 21.0.2, SVG Export Plug-In . SVG Version: 6.00 Build 0)  -->
<svg version="1.1" id="Layer_1" xmlns="http://www.w3.org/2000/svg" xmlns:xlink="http://www.w3.org/1999/xlink" x="0px" y="0px"
	 viewBox="0 0 18 18" style="enable-background:new 0 0 18 18;" xml:space="preserve">
<style type="text/css">
	.st0{fill:#98CCFD;}
	.st1{fill:#4788C7;}
	.st2{fill:#FFFFFF;}
</style>
<g>
	<circle class="st0" cx="9" cy="9" r="8.5"/>
</g>
<path class="st1" d="M9,1c4.4,0,8,3.6,8,8s-3.6,8-8,8s-8-3.6-8-8S4.6,1,9,1 M9,0C4,0,0,4,0,9s4,9,9,9s9-4,9-9S14,0,9,0L9,0z"/>
<g>
	<path class="st2" d="M11.9,10.4c0,0.9-0.6,2.8-2.8,2.8c-0.5,0-2.9-0.1-2.9-3.8c0-1.1,0.4-4.6,3.7-4.6c0.6,0,1.1,0.1,1.5,0.2v1.5
		c-0.4-0.2-0.9-0.3-1.3-0.3c-1.9,0-2,2.1-2,2.5h0c0.4-0.5,1-0.8,1.7-0.8C10.1,7.9,11.9,8.1,11.9,10.4z M10.2,10.5
		c0-0.9-0.4-1.3-1.1-1.3c-1,0-1.1,1-1.1,1.2c0,1.3,0.9,1.4,1.1,1.4C9.3,11.9,10.2,11.8,10.2,10.5z"/>
</g>
</svg>
