<?xml version="1.0" encoding="utf-8"?>
<!-- Generator: Adobe Illustrator 21.0.2, SVG Export Plug-In . SVG Version: 6.00 Build 0)  -->
<svg version="1.1" id="Layer_1" xmlns="http://www.w3.org/2000/svg" xmlns:xlink="http://www.w3.org/1999/xlink" x="0px" y="0px"
	 viewBox="0 0 18 18" style="enable-background:new 0 0 18 18;" xml:space="preserve">
<style type="text/css">
	.st0{fill:#98CCFD;}
	.st1{fill:#4788C7;}
	.st2{fill:#FFFFFF;}
</style>
<g>
	<circle class="st0" cx="9" cy="9" r="8.5"/>
</g>
<path class="st1" d="M9,1c4.4,0,8,3.6,8,8s-3.6,8-8,8s-8-3.6-8-8S4.6,1,9,1 M9,0C4,0,0,4,0,9s4,9,9,9s9-4,9-9S14,0,9,0L9,0z"/>
<g>
	<path class="st2" d="M6.1,10.9c0-1.5,1.3-2,1.6-2.1C7.3,8.7,6.4,8.1,6.4,7c0-0.5,0.3-2.2,2.6-2.2c2.4,0,2.6,1.8,2.6,2.1
		c0,1.1-0.9,1.6-1.4,1.8c0.3,0.1,1.6,0.6,1.6,2.1c0,2.2-2.4,2.3-2.9,2.3C6.8,13.3,6.1,11.9,6.1,10.9z M7.8,10.8C7.8,11,7.8,12,9,12
		c0.2,0,1.2-0.1,1.2-1.2c0-0.2-0.1-1.2-1.2-1.2C7.9,9.6,7.8,10.6,7.8,10.8z M8,7.2c0,0.9,0.8,1,1,1c0.8,0,1-0.9,1-1c0-0.1-0.1-1-1-1
		C8.1,6.2,8,7.1,8,7.2z"/>
</g>
</svg>
