<?xml version="1.0" encoding="utf-8"?>
<!-- Generator: Adobe Illustrator 21.0.2, SVG Export Plug-In . SVG Version: 6.00 Build 0)  -->
<svg version="1.1" id="Layer_1" xmlns="http://www.w3.org/2000/svg" xmlns:xlink="http://www.w3.org/1999/xlink" x="0px" y="0px"
	 viewBox="0 0 18 18" style="enable-background:new 0 0 18 18;" xml:space="preserve">
<style type="text/css">
	.st0{fill:#98CCFD;}
	.st1{fill:#4788C7;}
	.st2{fill:#FFFFFF;}
</style>
<g>
	<circle class="st0" cx="9" cy="9" r="8.5"/>
</g>
<path class="st1" d="M9,1c4.4,0,8,3.6,8,8s-3.6,8-8,8s-8-3.6-8-8S4.6,1,9,1 M9,0C4,0,0,4,0,9s4,9,9,9s9-4,9-9S14,0,9,0L9,0z"/>
<path class="st2" d="M11.8,8.7c0,4.5-3,4.6-3.5,4.6c-0.7,0-1.2-0.1-1.7-0.3v-1.5c0.4,0.3,0.9,0.4,1.5,0.4c1.8,0,2-1.6,2-2.4l0,0
	c-0.4,0.5-0.9,0.8-1.6,0.8C8,10.2,6.1,10,6.1,7.7c0-0.8,0.4-2.9,2.9-2.9C11.7,4.9,11.8,8.1,11.8,8.7z M10,7.7c0-0.3-0.1-1.5-1.1-1.5
	c-0.5,0-1.1,0.4-1.1,1.3c0,0.5,0.2,1.3,1.1,1.3C9.3,8.9,10,8.6,10,7.7z"/>
</svg>
