<?xml version="1.0" encoding="utf-8"?>
<!-- Generator: Adobe Illustrator 21.0.2, SVG Export Plug-In . SVG Version: 6.00 Build 0)  -->
<svg version="1.1" id="Layer_1" xmlns="http://www.w3.org/2000/svg" xmlns:xlink="http://www.w3.org/1999/xlink" x="0px" y="0px"
	 viewBox="0 0 18 18" style="enable-background:new 0 0 18 18;" xml:space="preserve">
<style type="text/css">
	.st0{fill:#98CCFD;}
	.st1{fill:#4788C7;}
</style>
<g>
	<polygon class="st0" points="6.8,14.3 3.2,14.8 3.7,11.2 0.8,9 3.7,6.8 3.2,3.2 6.8,3.7 9,0.8 11.2,3.7 14.8,3.2 14.3,6.8 17.2,9 
		14.3,11.2 14.8,14.8 11.2,14.3 9,17.2 	"/>
	<path class="st1" d="M9,1.7l1.6,2.1L11,4.3l0.6-0.1l2.6-0.4l-0.4,2.6L13.7,7l0.5,0.4L16.3,9l-2.1,1.6L13.7,11l0.1,0.6l0.4,2.6
		l-2.6-0.4L11,13.7l-0.4,0.5L9,16.3l-1.6-2.1L7,13.7l-0.6,0.1l-2.6,0.4l0.4-2.6L4.3,11l-0.5-0.4L1.7,9l2.1-1.6L4.3,7L4.2,6.5
		L3.8,3.8l2.6,0.4L7,4.3l0.4-0.5L9,1.7 M9,0L6.6,3.2l-4-0.6l0.6,4L0,9l3.2,2.4l-0.6,4l4-0.6L9,18l2.4-3.2l4,0.6l-0.6-4L18,9
		l-3.2-2.4l0.6-4l-4,0.6L9,0L9,0z"/>
</g>
</svg>
