<?xml version="1.0" encoding="iso-8859-1"?>
<!-- Generator: Adobe Illustrator 22.0.1, SVG Export Plug-In . SVG Version: 6.00 Build 0)  -->
<svg version="1.1" id="Layer_1" xmlns="http://www.w3.org/2000/svg" xmlns:xlink="http://www.w3.org/1999/xlink" x="0px" y="0px"
	 viewBox="0 0 26 26" style="enable-background:new 0 0 26 26;" xml:space="preserve">
<path d="M17,26H9c-0.552,0-1-0.448-1-1v-7H1c-0.552,0-1-0.448-1-1V9c0-0.552,0.448-1,1-1h7V1c0-0.552,0.448-1,1-1h8
	c0.552,0,1,0.448,1,1v7h7c0.552,0,1,0.448,1,1v8c0,0.552-0.448,1-1,1h-7v7C18,25.552,17.552,26,17,26z M10,24h6v-7
	c0-0.552,0.448-1,1-1h7v-6h-7c-0.552,0-1-0.448-1-1V2h-6v7c0,0.552-0.448,1-1,1H2v6h7c0.552,0,1,0.448,1,1V24z"/>
</svg>
