<?xml version="1.0" encoding="iso-8859-1"?>
<!-- Generator: Adobe Illustrator 22.0.1, SVG Export Plug-In . SVG Version: 6.00 Build 0)  -->
<svg version="1.1" id="Layer_1" xmlns="http://www.w3.org/2000/svg" xmlns:xlink="http://www.w3.org/1999/xlink" x="0px" y="0px"
	 viewBox="0 0 26 26" style="enable-background:new 0 0 26 26;" xml:space="preserve">
<path d="M13,0C5.832,0,0,5.832,0,13s5.832,13,13,13s13-5.832,13-13S20.168,0,13,0z M13,24C6.935,24,2,19.065,2,13S6.935,2,13,2
	s11,4.935,11,11S19.065,24,13,24z M17.834,16.543c0.391,0.391,0.391,1.023,0,1.414c-0.195,0.195-0.451,0.293-0.707,0.293
	s-0.512-0.098-0.707-0.293l-3.481-3.481l-3.481,3.481C9.262,18.152,9.006,18.25,8.75,18.25s-0.512-0.098-0.707-0.293
	c-0.391-0.391-0.391-1.023,0-1.414l3.481-3.481L8.043,9.58c-0.391-0.391-0.391-1.023,0-1.414s1.023-0.391,1.414,0l3.481,3.481
	l3.604-3.604c0.391-0.391,1.023-0.391,1.414,0s0.391,1.023,0,1.414l-3.604,3.604L17.834,16.543z"/>
</svg>
