<?xml version="1.0" encoding="iso-8859-1"?>
<!-- Generator: Adobe Illustrator 22.0.1, SVG Export Plug-In . SVG Version: 6.00 Build 0)  -->
<svg version="1.1" id="Layer_1" xmlns="http://www.w3.org/2000/svg" xmlns:xlink="http://www.w3.org/1999/xlink" x="0px" y="0px"
	 viewBox="0 0 26 26" style="enable-background:new 0 0 26 26;" xml:space="preserve">
<path d="M24.828,3.927L22.071,1.17c-1.56-1.559-4.097-1.559-5.657,0L1.293,16.294c-0.157,0.157-0.258,0.362-0.285,0.583l-1,7.999
	c-0.039,0.306,0.067,0.613,0.285,0.831C0.481,25.896,0.736,26,1,26c0.041,0,0.083-0.002,0.124-0.008l8-1
	c0.221-0.027,0.426-0.128,0.583-0.285L24.828,9.583C25.584,8.828,26,7.823,26,6.755C26,5.686,25.584,4.682,24.828,3.927z
	 M2.386,21.972l0.496-3.972H6v1c0,0.552,0.448,1,1,1h1v3.117l-3.972,0.496L2.386,21.972z M9,18.001H8v-1c0-0.552-0.448-1-1-1H4.414
	l7.585-7.587L17.585,14L10,21.586V19C10,18.448,9.552,18.001,9,18.001z M13.413,7l1.586-1.586l5.586,5.586l-1.586,1.586L13.413,7z
	 M23.414,8.169l-1.416,1.416L16.412,4l1.416-1.416c0.78-0.779,2.049-0.779,2.829,0l2.757,2.757C23.792,5.719,24,6.221,24,6.755
	C24,7.289,23.792,7.791,23.414,8.169z"/>
</svg>
