<?xml version="1.0" encoding="iso-8859-1"?>
<!-- Generator: Adobe Illustrator 22.0.1, SVG Export Plug-In . SVG Version: 6.00 Build 0)  -->
<svg version="1.1" id="Layer_1" xmlns="http://www.w3.org/2000/svg" xmlns:xlink="http://www.w3.org/1999/xlink" x="0px" y="0px"
	 viewBox="0 0 26 26" style="enable-background:new 0 0 26 26;" xml:space="preserve">
<path d="M13,0C5.832,0,0,5.832,0,13s5.832,13,13,13s13-5.832,13-13S20.168,0,13,0z M13,24C6.935,24,2,19.065,2,13S6.935,2,13,2
	s11,4.935,11,11S19.065,24,13,24z M22.707,13.707l-3,3C19.512,16.902,19.256,17,19,17s-0.512-0.098-0.707-0.293l-3-3
	c-0.391-0.391-0.391-1.023,0-1.414s1.023-0.391,1.414,0L18,13.586V13c0-2.757-2.243-5-5-5s-5,2.243-5,5s2.243,5,5,5
	c0.552,0,1,0.448,1,1s-0.448,1-1,1c-3.86,0-7-3.14-7-7s3.14-7,7-7s7,3.14,7,7v0.586l1.293-1.293c0.391-0.391,1.023-0.391,1.414,0
	S23.098,13.316,22.707,13.707z"/>
</svg>
