<?xml version="1.0" encoding="iso-8859-1"?>
<!-- Generator: Adobe Illustrator 22.0.1, SVG Export Plug-In . SVG Version: 6.00 Build 0)  -->
<svg version="1.1" id="Layer_1" xmlns="http://www.w3.org/2000/svg" xmlns:xlink="http://www.w3.org/1999/xlink" x="0px" y="0px"
	 viewBox="0 0 30 28" style="enable-background:new 0 0 30 28;" xml:space="preserve">
<path d="M23.652,28c-0.17,0-0.34-0.043-0.494-0.131L15,23.23l-8.158,4.639c-0.343,0.195-0.771,0.17-1.088-0.064
	c-0.318-0.235-0.468-0.635-0.382-1.021l1.99-8.976l-7.019-6.124c-0.301-0.262-0.417-0.678-0.295-1.058
	c0.122-0.38,0.457-0.651,0.854-0.69l9.387-0.928l3.8-8.419C14.25,0.23,14.607,0,15,0s0.75,0.23,0.912,0.589l3.8,8.419l9.387,0.928
	c0.397,0.039,0.733,0.311,0.854,0.69c0.122,0.38,0.005,0.796-0.295,1.058l-7.019,6.124l1.99,8.976
	c0.086,0.386-0.064,0.786-0.382,1.021C24.071,27.934,23.862,28,23.652,28z M15,21.08c0.17,0,0.341,0.043,0.494,0.131l6.694,3.807
	l-1.631-7.356c-0.08-0.357,0.043-0.729,0.319-0.97l5.723-4.993l-7.66-0.757c-0.356-0.035-0.666-0.258-0.813-0.584L15,3.431
	l-3.126,6.926c-0.147,0.326-0.458,0.549-0.813,0.584l-7.66,0.757l5.723,4.993c0.276,0.24,0.398,0.613,0.319,0.97l-1.631,7.356
	l6.694-3.807C14.659,21.123,14.83,21.08,15,21.08z"/>
</svg>
