<?xml version="1.0" encoding="iso-8859-1"?>
<!-- Generator: Adobe Illustrator 22.0.1, SVG Export Plug-In . SVG Version: 6.00 Build 0)  -->
<svg version="1.1" id="Layer_1" xmlns="http://www.w3.org/2000/svg" xmlns:xlink="http://www.w3.org/1999/xlink" x="0px" y="0px"
	 viewBox="0 0 28 24" style="enable-background:new 0 0 28 24;" xml:space="preserve">
<path d="M20,0c-2.495,0-4.264,1.021-6,2.613C12.264,1.021,10.495,0,8,0C3.589,0,0,3.589,0,8c0,1.198,0.259,2.352,0.771,3.429
	c1.18,2.485,11.414,11.329,12.577,12.33C13.535,23.919,13.768,24,14,24s0.465-0.081,0.652-0.242c1.163-1,11.397-9.845,12.577-12.33
	C27.741,10.352,28,9.198,28,8C28,3.589,24.411,0,20,0z M25.423,10.571C24.708,12.076,18.299,17.948,14,21.678
	c-4.299-3.73-10.708-9.602-11.423-11.107C2.194,9.764,2,8.899,2,8c0-3.309,2.691-6,6-6c1.837,0,3.177,0.759,4.568,2.018
	l-1.275,1.275c-0.391,0.391-0.391,1.023,0,1.414C11.488,6.902,11.744,7,12,7s0.512-0.098,0.707-0.293l2-2
	C16.378,3.036,17.847,2,20,2c3.309,0,6,2.691,6,6C26,8.899,25.806,9.764,25.423,10.571z"/>
</svg>
