<?xml version="1.0" encoding="iso-8859-1"?>
<!-- Generator: Adobe Illustrator 22.0.1, SVG Export Plug-In . SVG Version: 6.00 Build 0)  -->
<svg version="1.1" id="Layer_1" xmlns="http://www.w3.org/2000/svg" xmlns:xlink="http://www.w3.org/1999/xlink" x="0px" y="0px"
	 viewBox="0 0 24 26" style="enable-background:new 0 0 24 26;" xml:space="preserve">
<path d="M22,10h-2V8c0-4.411-3.589-8-8-8S4,3.589,4,8v2H2c-1.103,0-2,0.897-2,2v12c0,1.103,0.897,2,2,2h20c1.103,0,2-0.897,2-2V12
	C24,10.897,23.103,10,22,10z M6,8c0-3.309,2.691-6,6-6s6,2.691,6,6v2H6V8z M2,24V12h20l0.001,12H2z M12,14c-2.206,0-4,1.794-4,4
	s1.794,4,4,4s4-1.794,4-4S14.206,14,12,14z M12,20c-1.103,0-2-0.897-2-2s0.897-2,2-2s2,0.897,2,2S13.103,20,12,20z"/>
</svg>
