<?xml version="1.0" encoding="iso-8859-1"?>
<!-- Generator: Adobe Illustrator 22.0.1, SVG Export Plug-In . SVG Version: 6.00 Build 0)  -->
<svg version="1.1" id="Layer_1" xmlns="http://www.w3.org/2000/svg" xmlns:xlink="http://www.w3.org/1999/xlink" x="0px" y="0px"
	 viewBox="0 0 24 28" style="enable-background:new 0 0 24 28;" xml:space="preserve">
<path d="M12,27.984c-0.22,0-0.438-0.072-0.621-0.216c-0.077-0.062-1.939-1.541-5.056-4.408c-1.447-1.332-4.073-4.198-5.402-8.437
	C0.109,12.335,0,8.455,0,5c0-0.552,0.447-1,1-1c6.511,0,10.26-3.67,10.297-3.708C11.484,0.105,11.739,0,12.004,0l0,0
	c0.266,0,0.52,0.105,0.707,0.293C12.747,0.328,16.532,4,23,4c0.553,0,1,0.448,1,1c0,3.455-0.109,7.335-0.921,9.924
	c-1.329,4.239-3.955,7.105-5.402,8.437c-3.116,2.867-4.979,4.346-5.056,4.408C12.438,27.913,12.22,27.984,12,27.984z M2.002,5.974
	c0.014,2.284,0.113,6.073,0.827,8.352c1.189,3.793,3.548,6.367,4.848,7.563c2.028,1.866,3.534,3.148,4.323,3.803
	c0.789-0.655,2.295-1.937,4.323-3.803c1.3-1.196,3.658-3.77,4.848-7.563c0.714-2.279,0.813-6.067,0.827-8.352
	c-5.142-0.267-8.589-2.532-9.995-3.652C10.596,3.441,7.145,5.707,2.002,5.974z"/>
</svg>
