<?xml version="1.0" encoding="iso-8859-1"?>
<!-- Generator: Adobe Illustrator 22.0.1, SVG Export Plug-In . SVG Version: 6.00 Build 0)  -->
<svg version="1.1" id="Layer_1" xmlns="http://www.w3.org/2000/svg" xmlns:xlink="http://www.w3.org/1999/xlink" x="0px" y="0px"
	 viewBox="0 0 26 26" style="enable-background:new 0 0 26 26;" xml:space="preserve">
<path d="M15.5,0C9.71,0,5,4.71,5,10.5c0,1.495,0.319,2.915,0.884,4.203l-4.768,4.788c-1.486,1.486-1.486,3.905,0,5.392
	c0.743,0.744,1.72,1.115,2.696,1.115c0.976,0,1.952-0.371,2.694-1.113l4.79-4.769C12.585,20.681,14.005,21,15.5,21
	C21.29,21,26,16.29,26,10.5S21.29,0,15.5,0z M5.094,23.469c-0.707,0.707-1.856,0.706-2.563,0c-0.707-0.707-0.707-1.857,0.001-2.565
	l4.373-4.392c0.704,1.004,1.579,1.878,2.582,2.582L5.094,23.469z M15.5,19C10.813,19,7,15.187,7,10.5S10.813,2,15.5,2
	S24,5.813,24,10.5S20.187,19,15.5,19z M21.996,9.91c0.049,0.55-0.356,1.036-0.906,1.086C21.059,10.999,21.029,11,20.999,11
	c-0.512,0-0.948-0.391-0.995-0.91c-0.193-2.141-1.953-3.901-4.094-4.094c-0.55-0.05-0.956-0.536-0.906-1.086
	c0.05-0.55,0.529-0.949,1.086-0.906C19.229,4.287,21.713,6.771,21.996,9.91z"/>
</svg>
