<?xml version="1.0" encoding="iso-8859-1"?>
<!-- Generator: Adobe Illustrator 22.0.1, SVG Export Plug-In . SVG Version: 6.00 Build 0)  -->
<svg version="1.1" id="Layer_1" xmlns="http://www.w3.org/2000/svg" xmlns:xlink="http://www.w3.org/1999/xlink" x="0px" y="0px"
	 viewBox="0 0 28 28" style="enable-background:new 0 0 28 28;" xml:space="preserve">
<path d="M16,28h-4c-0.489,0-0.906-0.354-0.986-0.835l-0.455-2.726c-0.52-0.171-1.024-0.379-1.508-0.624L6.803,25.42
	c-0.398,0.285-0.942,0.239-1.288-0.107l-2.828-2.828c-0.346-0.346-0.391-0.891-0.107-1.288l1.606-2.248
	c-0.245-0.484-0.453-0.989-0.624-1.508l-2.726-0.455C0.354,16.906,0,16.489,0,16v-4c0-0.489,0.354-0.906,0.835-0.986l2.726-0.455
	c0.171-0.52,0.379-1.024,0.624-1.508L2.58,6.803C2.296,6.405,2.341,5.86,2.687,5.515l2.828-2.828C5.86,2.341,6.405,2.295,6.803,2.58
	l2.248,1.606c0.484-0.245,0.989-0.453,1.508-0.624l0.455-2.726C11.094,0.354,11.511,0,12,0h4c0.489,0,0.906,0.354,0.986,0.835
	l0.455,2.726c0.52,0.171,1.024,0.379,1.508,0.624l2.248-1.606c0.397-0.285,0.943-0.238,1.288,0.107l2.828,2.828
	c0.346,0.346,0.391,0.891,0.107,1.288l-1.606,2.248c0.245,0.484,0.453,0.989,0.624,1.508l2.726,0.455C27.646,11.094,28,11.511,28,12
	v4c0,0.489-0.354,0.906-0.835,0.986l-2.726,0.455c-0.171,0.52-0.379,1.024-0.624,1.508l1.606,2.248
	c0.284,0.397,0.239,0.942-0.107,1.288l-2.828,2.828c-0.345,0.346-0.891,0.392-1.288,0.107l-2.248-1.606
	c-0.484,0.245-0.989,0.453-1.508,0.624l-0.455,2.726C16.906,27.646,16.489,28,16,28z M12.847,26h2.306l0.418-2.507
	c0.064-0.388,0.351-0.702,0.73-0.802c0.783-0.207,1.529-0.516,2.217-0.917c0.34-0.199,0.765-0.179,1.085,0.05L21.67,23.3l1.63-1.63
	l-1.477-2.067c-0.229-0.32-0.248-0.745-0.05-1.085c0.401-0.688,0.71-1.434,0.917-2.217c0.101-0.38,0.415-0.666,0.802-0.73L26,15.153
	v-2.306l-2.507-0.418c-0.388-0.064-0.702-0.351-0.802-0.73c-0.207-0.783-0.516-1.529-0.917-2.217
	c-0.198-0.34-0.179-0.765,0.05-1.085L23.3,6.33L21.67,4.7l-2.067,1.477c-0.32,0.229-0.745,0.248-1.085,0.05
	c-0.688-0.401-1.434-0.71-2.217-0.917c-0.38-0.101-0.666-0.415-0.73-0.802L15.153,2h-2.306l-0.418,2.507
	c-0.064,0.388-0.351,0.702-0.73,0.802c-0.783,0.207-1.529,0.516-2.217,0.917c-0.34,0.198-0.765,0.179-1.085-0.05L6.33,4.7L4.7,6.33
	l1.477,2.067c0.229,0.32,0.248,0.745,0.05,1.085c-0.401,0.688-0.71,1.434-0.917,2.217c-0.101,0.38-0.415,0.666-0.802,0.73L2,12.847
	v2.306l2.507,0.418c0.388,0.064,0.702,0.351,0.802,0.73c0.207,0.783,0.516,1.529,0.917,2.217c0.198,0.34,0.179,0.765-0.05,1.085
	L4.7,21.67l1.63,1.63l2.067-1.477c0.32-0.229,0.745-0.249,1.085-0.05c0.688,0.401,1.434,0.71,2.217,0.917
	c0.38,0.101,0.666,0.415,0.73,0.802L12.847,26z M14,19c-2.757,0-5-2.243-5-5s2.243-5,5-5s5,2.243,5,5S16.757,19,14,19z M14,11
	c-1.654,0-3,1.346-3,3s1.346,3,3,3s3-1.346,3-3S15.654,11,14,11z"/>
</svg>
