<?xml version="1.0" encoding="iso-8859-1"?>
<!-- Generator: Adobe Illustrator 22.0.1, SVG Export Plug-In . SVG Version: 6.00 Build 0)  -->
<svg version="1.1" id="Layer_1" xmlns="http://www.w3.org/2000/svg" xmlns:xlink="http://www.w3.org/1999/xlink" x="0px" y="0px"
	 viewBox="0 0 30 22" style="enable-background:new 0 0 30 22;" xml:space="preserve">
<path d="M25.971,11.206C25.988,10.972,26,10.739,26,10.5C26,4.71,21.29,0,15.5,0c-4.208,0-7.936,2.458-9.612,6.287
	C2.446,7.228,0,10.384,0,14c0,4.411,3.589,8,8,8h16.5c3.032,0,5.5-2.467,5.5-5.5C30,13.977,28.29,11.852,25.971,11.206z M24.5,20H8
	c-3.309,0-6-2.691-6-6c0-2.24,1.258-4.231,3.146-5.259c-0.07,0.401-0.124,0.803-0.145,1.207c-0.028,0.552,0.396,1.022,0.947,1.05
	c0.535,0.031,1.021-0.396,1.051-0.947C7.045,9.15,7.246,8.248,7.596,7.369C8.889,4.107,11.991,2,15.5,2c4.687,0,8.5,3.813,8.5,8.5
	c0,0.171-0.01,0.335-0.02,0.5H23c-0.553,0-1,0.448-1,1s0.447,1,1,1h1.5c1.93,0,3.5,1.57,3.5,3.5S26.43,20,24.5,20z"/>
</svg>
