<?xml version="1.0" encoding="iso-8859-1"?>
<!-- Generator: Adobe Illustrator 22.0.1, SVG Export Plug-In . SVG Version: 6.00 Build 0)  -->
<svg version="1.1" id="Layer_1" xmlns="http://www.w3.org/2000/svg" xmlns:xlink="http://www.w3.org/1999/xlink" x="0px" y="0px"
	 viewBox="0 0 26 28" style="enable-background:new 0 0 26 28;" xml:space="preserve">
<path d="M19,17c0,0.552-0.448,1-1,1h-2c-0.552,0-1-0.448-1-1s0.448-1,1-1h2C18.552,16,19,16.448,19,17z M25.7,23.051
	C25.333,23.646,24.697,24,23.999,24h-6.1c-0.465,2.279-2.484,4-4.899,4s-4.434-1.721-4.899-4h-6.1c-0.698,0-1.334-0.354-1.702-0.949
	c-0.367-0.594-0.399-1.321-0.087-1.946c0.018-0.035,0.037-0.069,0.059-0.102l2.555-3.892c0.138-0.289,0.228-0.595,0.268-0.912
	l0.914-7.324c0.486-3.891,2.825-6.358,6.335-6.798l0.763-1.525C11.275,0.214,11.621,0,12,0h2c0.379,0,0.725,0.214,0.895,0.553
	l0.763,1.525c3.51,0.44,5.849,2.907,6.335,6.798l0.914,7.326c0.04,0.315,0.13,0.621,0.268,0.91l2.555,3.892
	c0.021,0.033,0.041,0.067,0.059,0.102C26.1,21.73,26.067,22.458,25.7,23.051z M15.816,24h-5.631c0.414,1.161,1.514,2,2.816,2
	S15.402,25.161,15.816,24z M23.99,22l-2.522-3.843c-0.021-0.033-0.041-0.067-0.059-0.102c-0.252-0.505-0.416-1.044-0.487-1.603
	l-0.914-7.328C19.589,5.772,17.684,4,14.5,4h-3C8.316,4,6.411,5.772,5.992,9.124L5.134,16H12c0.552,0,1,0.448,1,1s-0.448,1-1,1
	l-7.387-0.001c-0.009,0.018-0.013,0.038-0.022,0.056c-0.018,0.035-0.037,0.069-0.059,0.102L2.01,22H23.99z"/>
</svg>
