<?xml version="1.0" encoding="iso-8859-1"?>
<!-- Generator: Adobe Illustrator 22.0.1, SVG Export Plug-In . SVG Version: 6.00 Build 0)  -->
<svg version="1.1" id="Layer_1" xmlns="http://www.w3.org/2000/svg" xmlns:xlink="http://www.w3.org/1999/xlink" x="0px" y="0px"
	 viewBox="0 0 26 26" style="enable-background:new 0 0 26 26;" xml:space="preserve">
<path d="M13,26C5.832,26,0,20.168,0,13S5.832,0,13,0s13,5.832,13,13S20.168,26,13,26z M13,2C6.935,2,2,6.935,2,13s4.935,11,11,11
	s11-4.935,11-11S19.065,2,13,2z M11.707,17.707l8-8c0.391-0.391,0.391-1.023,0-1.414s-1.023-0.391-1.414,0L11,15.586l-3.293-3.293
	c-0.391-0.391-1.023-0.391-1.414,0s-0.391,1.023,0,1.414l4,4C10.488,17.902,10.744,18,11,18S11.512,17.902,11.707,17.707z"/>
</svg>
