<?xml version="1.0" encoding="iso-8859-1"?>
<!-- Generator: Adobe Illustrator 22.0.1, SVG Export Plug-In . SVG Version: 6.00 Build 0)  -->
<svg version="1.1" id="Layer_1" xmlns="http://www.w3.org/2000/svg" xmlns:xlink="http://www.w3.org/1999/xlink" x="0px" y="0px"
	 viewBox="0 0 30 23" style="enable-background:new 0 0 30 23;" xml:space="preserve">
<path d="M12,23c-0.256,0-0.512-0.098-0.707-0.293l-11-11c-0.391-0.391-0.391-1.023,0-1.414l4-4c0.391-0.391,1.023-0.391,1.414,0
	L12,12.586L24.293,0.293c0.391-0.391,1.023-0.391,1.414,0l4,4c0.391,0.391,0.391,1.023,0,1.414l-17,17
	C12.512,22.902,12.256,23,12,23z M2.414,11L12,20.586L27.586,5L25,2.414L12.707,14.707c-0.391,0.391-1.023,0.391-1.414,0L5,8.414
	L2.414,11z"/>
</svg>
