<?xml version="1.0" encoding="iso-8859-1"?>
<!-- Generator: Adobe Illustrator 22.0.1, SVG Export Plug-In . SVG Version: 6.00 Build 0)  -->
<svg version="1.1" id="Layer_1" xmlns="http://www.w3.org/2000/svg" xmlns:xlink="http://www.w3.org/1999/xlink" x="0px" y="0px"
	 viewBox="0 0 32 22" style="enable-background:new 0 0 32 22;" xml:space="preserve">
<path d="M16,5c-3.309,0-6,2.691-6,6s2.691,6,6,6s6-2.691,6-6S19.309,5,16,5z M16,15c-2.206,0-4-1.794-4-4s1.794-4,4-4s4,1.794,4,4
	S18.206,15,16,15z M15.998,22c-7.934,0-13.315-6.175-15.261-8.83c-0.844-1.146-0.963-2.635-0.309-3.884
	c0.097-0.179,0.199-0.337,0.313-0.488C2.696,6.158,8.108,0,15.998,0c7.859,0,13.294,6.146,15.266,8.79
	c0.121,0.166,0.222,0.328,0.309,0.496c0.665,1.258,0.545,2.756-0.313,3.91C29.301,15.842,23.889,22,15.998,22z M15.998,2
	C9.017,2,4.123,7.592,2.343,9.995c-0.06,0.079-0.108,0.155-0.15,0.233c-0.293,0.561-0.238,1.223,0.156,1.758
	C4.115,14.396,8.979,20,15.998,20c6.981,0,11.875-5.592,13.656-7.995c0.401-0.54,0.457-1.207,0.149-1.787l-0.002-0.004
	c-0.043-0.082-0.093-0.162-0.148-0.238C27.869,7.585,22.952,2,15.998,2z"/>
</svg>
