<?xml version="1.0" encoding="iso-8859-1"?>
<!-- Generator: Adobe Illustrator 22.0.1, SVG Export Plug-In . SVG Version: 6.00 Build 0)  -->
<svg version="1.1" id="Layer_1" xmlns="http://www.w3.org/2000/svg" xmlns:xlink="http://www.w3.org/1999/xlink" x="0px" y="0px"
	 viewBox="0 0 34 18" style="enable-background:new 0 0 34 18;" xml:space="preserve">
<path d="M33.422,8.473l-4.975-3.231c1.597-1.943,2.393-3.671,2.466-3.836c0.224-0.504-0.002-1.094-0.506-1.318
	c-0.504-0.228-1.095,0-1.32,0.505C29.049,0.677,25.225,9,17,9S4.951,0.677,4.913,0.593c-0.226-0.505-0.815-0.73-1.32-0.505
	c-0.504,0.225-0.73,0.814-0.506,1.318c0.073,0.165,0.87,1.893,2.466,3.836l-4.975,3.23c-0.463,0.301-0.595,0.92-0.294,1.384
	c0.192,0.295,0.512,0.455,0.84,0.455c0.187,0,0.375-0.052,0.543-0.161l5.261-3.416c0.501,0.489,1.045,0.969,1.65,1.422l-3.663,4.688
	c-0.34,0.435-0.263,1.063,0.172,1.403c0.183,0.143,0.4,0.212,0.615,0.212c0.297,0,0.591-0.132,0.789-0.385l3.776-4.833
	c0.581,0.325,1.189,0.626,1.847,0.875l-1.951,5.667c-0.18,0.521,0.098,1.091,0.62,1.271c0.108,0.037,0.218,0.055,0.326,0.055
	c0.415,0,0.803-0.26,0.945-0.675l1.984-5.763c0.623,0.135,1.28,0.221,1.962,0.269V17c0,0.553,0.448,1,1,1s1-0.447,1-1v-6.06
	c0.682-0.048,1.338-0.134,1.961-0.269l1.984,5.763c0.143,0.415,0.53,0.675,0.945,0.675c0.108,0,0.218-0.018,0.326-0.055
	c0.522-0.18,0.8-0.749,0.62-1.271l-1.951-5.667c0.658-0.249,1.266-0.551,1.848-0.875l3.776,4.833
	c0.197,0.253,0.492,0.385,0.789,0.385c0.215,0,0.433-0.069,0.615-0.212c0.435-0.34,0.512-0.969,0.172-1.403l-3.663-4.688
	c0.605-0.453,1.15-0.933,1.65-1.422l5.261,3.417c0.168,0.109,0.357,0.161,0.543,0.161c0.327,0,0.648-0.16,0.84-0.455
	C34.018,9.393,33.886,8.773,33.422,8.473z"/>
</svg>
