<?xml version="1.0" encoding="iso-8859-1"?>
<!-- Generator: Adobe Illustrator 22.0.1, SVG Export Plug-In . SVG Version: 6.00 Build 0)  -->
<svg version="1.1" id="Layer_1" xmlns="http://www.w3.org/2000/svg" xmlns:xlink="http://www.w3.org/1999/xlink" x="0px" y="0px"
	 viewBox="0 0 26 26" style="enable-background:new 0 0 26 26;" xml:space="preserve">
<path d="M13,26C5.832,26,0,20.168,0,13S5.832,0,13,0s13,5.832,13,13S20.168,26,13,26z M13,2C6.935,2,2,6.935,2,13s4.935,11,11,11
	s11-4.935,11-11S19.065,2,13,2z M11,19c0,1.105,0.895,2,2,2s2-0.895,2-2s-0.895-2-2-2S11,17.895,11,19z M13.707,15.707l2.586-2.586
	C17.378,12.036,18,10.534,18,9c0-2.206-1.794-4-4-4h-2C9.794,5,8,6.794,8,9c0,0.553,0.448,1,1,1s1-0.447,1-1c0-1.103,0.897-2,2-2h2
	c1.103,0,2,0.897,2,2c0,1.008-0.409,1.994-1.121,2.707l-2.586,2.586c-0.391,0.391-0.391,1.023,0,1.414
	C12.488,15.902,12.744,16,13,16S13.512,15.902,13.707,15.707z"/>
</svg>
