<?xml version="1.0" encoding="iso-8859-1"?>
<!-- Generator: Adobe Illustrator 22.0.1, SVG Export Plug-In . SVG Version: 6.00 Build 0)  -->
<svg version="1.1" id="Layer_1" xmlns="http://www.w3.org/2000/svg" xmlns:xlink="http://www.w3.org/1999/xlink" x="0px" y="0px"
	 viewBox="0 0 22 24" style="enable-background:new 0 0 22 24;" xml:space="preserve">
<path d="M19.946,18.167c-0.405-3.376-3.182-5.424-4.504-5.866C15,12.154,15,12.096,15,12s0-0.154,0.441-0.302
	c1.322-0.441,4.099-2.49,4.504-5.866C21.135,5.434,22,4.322,22,3c0-1.654-1.346-3-3-3H3C1.346,0,0,1.346,0,3
	c0,1.322,0.865,2.434,2.054,2.833c0.405,3.376,3.182,5.424,4.504,5.866C7,11.846,7,11.904,7,12s0,0.154-0.441,0.302
	c-1.322,0.441-4.099,2.49-4.504,5.866C0.865,18.566,0,19.678,0,21c0,1.654,1.346,3,3,3h16c1.654,0,3-1.346,3-3
	C22,19.678,21.135,18.566,19.946,18.167z M3,2h16c0.552,0,1,0.448,1,1s-0.448,1-1,1H3C2.448,4,2,3.552,2,3S2.448,2,3,2z
	 M7.191,14.198C8.392,13.799,9,13.059,9,12s-0.608-1.799-1.809-2.198C6.753,9.655,4.599,8.394,4.104,5.999h13.791
	c-0.495,2.395-2.648,3.656-3.087,3.803C13.608,10.201,13,10.941,13,12s0.608,1.799,1.809,2.198c0.439,0.147,2.592,1.407,3.087,3.802
	H4.104C4.599,15.605,6.753,14.345,7.191,14.198z M19,22H3c-0.552,0-1-0.448-1-1s0.448-1,1-1h16c0.552,0,1,0.448,1,1S19.552,22,19,22
	z"/>
</svg>
