<?xml version="1.0" encoding="iso-8859-1"?>
<!-- Generator: Adobe Illustrator 22.0.1, SVG Export Plug-In . SVG Version: 6.00 Build 0)  -->
<svg version="1.1" id="Layer_1" xmlns="http://www.w3.org/2000/svg" xmlns:xlink="http://www.w3.org/1999/xlink" x="0px" y="0px"
	 viewBox="0 0 28 28" style="enable-background:new 0 0 28 28;" xml:space="preserve">
<path d="M27.707,6.293l-1-1l-4-4l-1-1c-0.391-0.391-1.023-0.391-1.414,0s-0.391,1.023,0,1.414l0.223,0.223l-10.372,8.568
	C9.565,10.184,8.923,10,8.246,10c-1.068,0-2.073,0.416-2.827,1.171l-1.125,1.121C4.106,12.479,4,12.733,4,12.999
	s0.105,0.521,0.293,0.708l4.292,4.294l-8.292,8.292c-0.391,0.391-0.391,1.023,0,1.414C0.488,27.902,0.744,28,1,28
	s0.512-0.098,0.707-0.293l8.292-8.292l4.29,4.292C14.477,23.895,14.731,24,14.996,24s0.52-0.105,0.707-0.293l1.125-1.125
	C17.584,21.826,18,20.822,18,19.754c0-0.678-0.184-1.321-0.499-1.9l8.57-10.37l0.223,0.223C26.488,7.902,26.744,8,27,8
	s0.512-0.098,0.707-0.293C28.098,7.316,28.098,6.684,27.707,6.293z M15.414,21.168l-0.418,0.418l-4.286-4.288
	c-0.001-0.002-0.002-0.004-0.003-0.005s-0.004-0.002-0.005-0.003l-4.286-4.289l0.417-0.415c0.756-0.756,2.073-0.756,2.829,0
	l5.753,5.754C15.792,18.718,16,19.22,16,19.754S15.792,20.79,15.414,21.168z M24.65,6.064l-8.454,10.229l-4.492-4.492L21.936,3.35
	l1.357,1.357L24.65,6.064z"/>
</svg>
