<?xml version="1.0" encoding="iso-8859-1"?>
<!-- Generator: Adobe Illustrator 22.0.1, SVG Export Plug-In . SVG Version: 6.00 Build 0)  -->
<svg version="1.1" id="Layer_1" xmlns="http://www.w3.org/2000/svg" xmlns:xlink="http://www.w3.org/1999/xlink" x="0px" y="0px"
	 viewBox="0 0 24 24" style="enable-background:new 0 0 24 24;" xml:space="preserve">
<path d="M6.001,19.002c0,0.552-0.448,1-1,1s-1-0.448-1-1c0-0.552,0.448-1,1-1S6.001,18.449,6.001,19.002z M5.001,3.999
	c-0.552,0-1,0.448-1,1s0.448,1,1,1s1-0.448,1-1S5.554,3.999,5.001,3.999z M23.711,21.126c0.387,0.39,0.385,1.021-0.004,1.41
	C22.762,23.48,21.507,24,20.17,24c-1.336,0-2.591-0.52-3.536-1.464l-6.183-6.255l-0.829,0.838C9.873,17.72,10,18.358,10,19
	c0,2.756-2.241,5-4.999,5S0,21.758,0,19.002c0-2.461,1.766-4.508,4.165-4.909l2.063-2.089L4.164,9.907C1.765,9.506,0,7.46,0,5
	c0-2.756,2.244-5,5.001-5S10,2.244,10,5c0,0.643-0.127,1.282-0.378,1.884l0.829,0.843l6.178-6.257
	c1.955-1.953,5.127-1.953,7.077-0.005c0.389,0.389,0.391,1.018,0.004,1.41l-9.03,9.13L23.711,21.126z M7.633,10.581l1.413-1.431
	L7.693,7.775c-0.322-0.327-0.38-0.831-0.141-1.222c0.298-0.487,0.449-1.01,0.449-1.554c0-1.654-1.346-2.999-3.001-2.999S2,3.346,2,5
	c0,1.548,1.173,2.823,2.728,2.965C4.963,7.988,5.183,8.091,5.349,8.26L7.633,10.581z M7.695,16.223l2.031-2.054
	c0.008-0.008,0.01-0.019,0.019-0.028c0.007-0.007,0.017-0.009,0.025-0.016l2.785-2.816c0.006-0.006,0.008-0.015,0.014-0.021
	c0.006-0.005,0.013-0.007,0.019-0.012l8.883-8.982c-0.409-0.195-0.854-0.294-1.299-0.294c-0.769,0-1.537,0.292-2.122,0.877
	L5.348,15.742c-0.166,0.168-0.386,0.272-0.621,0.294C3.173,16.178,2,17.453,2,19.002c0,1.654,1.346,2.999,3.001,2.999
	s3.001-1.345,3.001-2.999c0-0.543-0.151-1.066-0.449-1.555C7.313,17.055,7.372,16.55,7.695,16.223z M21.471,21.706l-8.196-8.28
	l-1.417,1.433l6.195,6.268C18.938,22.01,20.371,22.238,21.471,21.706z"/>
</svg>
