<?xml version="1.0" encoding="iso-8859-1"?>
<!-- Generator: Adobe Illustrator 22.0.1, SVG Export Plug-In . SVG Version: 6.00 Build 0)  -->
<svg version="1.1" id="Layer_1" xmlns="http://www.w3.org/2000/svg" xmlns:xlink="http://www.w3.org/1999/xlink" x="0px" y="0px"
	 viewBox="0 0 30 24" style="enable-background:new 0 0 30 24;" xml:space="preserve">
<path d="M15,24c-2.206,0-4-1.794-4-4s1.794-4,4-4s4,1.794,4,4S17.206,24,15,24z M15,18c-1.103,0-2,0.897-2,2s0.897,2,2,2
	s2-0.897,2-2S16.103,18,15,18z M26.029,10.857c-0.27,0-0.539-0.108-0.736-0.323C22.641,7.652,18.89,6,15,6S7.359,7.652,4.708,10.534
	c-0.374,0.407-1.007,0.434-1.413,0.06L0.354,7.89C0.158,7.71,0.042,7.46,0.031,7.195C0.02,6.93,0.115,6.672,0.294,6.477
	C4.081,2.36,9.441,0,15,0s10.919,2.36,14.706,6.477c0.18,0.195,0.274,0.453,0.263,0.719C29.958,7.46,29.842,7.71,29.646,7.89
	l-2.941,2.704C26.513,10.771,26.271,10.857,26.029,10.857z M15,4c4.115,0,8.093,1.616,11.064,4.466l1.472-1.353
	C24.183,3.852,19.669,2,15,2S5.817,3.852,2.464,7.113l1.472,1.353C6.907,5.616,10.885,4,15,4z M20.147,16.267
	c-0.27,0-0.539-0.108-0.736-0.322C18.257,14.69,16.69,14,15,14s-3.257,0.69-4.411,1.944c-0.375,0.405-1.006,0.434-1.413,0.059
	l-2.941-2.704c-0.195-0.18-0.312-0.43-0.322-0.694c-0.011-0.266,0.083-0.523,0.263-0.719C8.448,9.416,11.664,8,15,8
	s6.552,1.416,8.824,3.886c0.18,0.195,0.274,0.453,0.263,0.719c-0.011,0.265-0.127,0.515-0.322,0.694l-2.941,2.704
	C20.631,16.18,20.389,16.267,20.147,16.267z M15,12c1.89,0,3.722,0.682,5.159,1.896l1.48-1.36C19.807,10.894,17.484,10,15,10
	s-4.807,0.894-6.639,2.536l1.48,1.36C11.278,12.682,13.11,12,15,12z"/>
</svg>
