<?xml version="1.0" encoding="iso-8859-1"?>
<!-- Generator: Adobe Illustrator 22.0.1, SVG Export Plug-In . SVG Version: 6.00 Build 0)  -->
<svg version="1.1" id="Layer_1" xmlns="http://www.w3.org/2000/svg" xmlns:xlink="http://www.w3.org/1999/xlink" x="0px" y="0px"
	 viewBox="0 0 26 26" style="enable-background:new 0 0 26 26;" xml:space="preserve">
<path d="M13,0C5.832,0,0,5.832,0,13s5.832,13,13,13s13-5.832,13-13S20.168,0,13,0z M13,24C6.935,24,2,19.065,2,13S6.935,2,13,2
	s11,4.935,11,11S19.065,24,13,24z M19,18c0,0.553-0.448,1-1,1s-1-0.447-1-1c0-2.757-2.243-5-5-5H8.414l3.293,3.293
	c0.391,0.391,0.391,1.023,0,1.414C11.512,17.902,11.256,18,11,18s-0.512-0.098-0.707-0.293l-5-5c-0.391-0.391-0.391-1.023,0-1.414
	l5-5c0.391-0.391,1.023-0.391,1.414,0s0.391,1.023,0,1.414L8.414,11H12C15.86,11,19,14.141,19,18z"/>
</svg>
