<?xml version="1.0" encoding="iso-8859-1"?>
<!-- Generator: Adobe Illustrator 22.0.1, SVG Export Plug-In . SVG Version: 6.00 Build 0)  -->
<svg version="1.1" id="Layer_1" xmlns="http://www.w3.org/2000/svg" xmlns:xlink="http://www.w3.org/1999/xlink" x="0px" y="0px"
	 viewBox="0 0 26 26" style="enable-background:new 0 0 26 26;" xml:space="preserve">
<path d="M13,0C5.832,0,0,5.832,0,13s5.832,13,13,13s13-5.832,13-13S20.168,0,13,0z M13,24C6.935,24,2,19.065,2,13S6.935,2,13,2
	s11,4.935,11,11S19.065,24,13,24z M20.707,12.707l-5,5C15.512,17.902,15.256,18,15,18s-0.512-0.098-0.707-0.293
	c-0.391-0.391-0.391-1.023,0-1.414L17.586,13H14c-2.757,0-5,2.243-5,5c0,0.553-0.447,1-1,1s-1-0.447-1-1c0-3.859,3.141-7,7-7h3.586
	l-3.293-3.293c-0.391-0.391-0.391-1.023,0-1.414s1.023-0.391,1.414,0l5,5C21.098,11.684,21.098,12.316,20.707,12.707z"/>
</svg>
