<?xml version="1.0" encoding="iso-8859-1"?>
<!-- Generator: Adobe Illustrator 22.0.1, SVG Export Plug-In . SVG Version: 6.00 Build 0)  -->
<svg version="1.1" id="Layer_1" xmlns="http://www.w3.org/2000/svg" xmlns:xlink="http://www.w3.org/1999/xlink" x="0px" y="0px"
	 viewBox="0 0 24 24" style="enable-background:new 0 0 24 24;" xml:space="preserve">
<path d="M22,0H2C0.897,0,0,0.897,0,2v20c0,1.103,0.897,2,2,2h20c1.103,0,2-0.897,2-2V2C24,0.897,23.103,0,22,0z M2,22V2h20l0.002,20
	H2z M19.923,12.382c-0.051,0.123-0.125,0.234-0.217,0.326l-1.999,1.999C17.512,14.902,17.256,15,17,15s-0.512-0.098-0.707-0.293
	c-0.391-0.391-0.391-1.023,0-1.414L16.586,13H13v3.586l0.293-0.293c0.391-0.391,1.023-0.391,1.414,0s0.391,1.023,0,1.414
	l-1.999,1.999c-0.092,0.093-0.203,0.166-0.326,0.217C12.26,19.974,12.13,20,12,20s-0.26-0.026-0.382-0.077
	c-0.123-0.051-0.234-0.124-0.326-0.217l-1.999-1.999c-0.391-0.391-0.391-1.023,0-1.414s1.023-0.391,1.414,0L11,16.586V13H7.414
	l0.293,0.293c0.391,0.391,0.391,1.023,0,1.414C7.512,14.902,7.256,15,7,15s-0.512-0.098-0.707-0.293l-1.999-1.999
	c-0.093-0.092-0.166-0.203-0.217-0.326c-0.101-0.244-0.101-0.52,0-0.764c0.051-0.123,0.124-0.234,0.217-0.326l1.999-1.999
	c0.391-0.391,1.023-0.391,1.414,0s0.391,1.023,0,1.414L7.414,11H11V7.414l-0.293,0.293c-0.391,0.391-1.023,0.391-1.414,0
	s-0.391-1.023,0-1.414l1.999-1.999c0.092-0.093,0.203-0.166,0.326-0.217c0.244-0.101,0.519-0.101,0.764,0
	c0.123,0.051,0.234,0.125,0.327,0.217l1.999,1.999c0.391,0.391,0.391,1.023,0,1.414C14.512,7.902,14.256,8,14,8
	s-0.512-0.098-0.707-0.293L13,7.414V11h3.586l-0.293-0.293c-0.391-0.391-0.391-1.023,0-1.414s1.023-0.391,1.414,0l1.999,1.999
	c0.093,0.092,0.166,0.203,0.217,0.327C20.024,11.862,20.024,12.138,19.923,12.382z"/>
</svg>
