<?xml version="1.0" encoding="iso-8859-1"?>
<!-- Generator: Adobe Illustrator 22.0.1, SVG Export Plug-In . SVG Version: 6.00 Build 0)  -->
<svg version="1.1" id="Layer_1" xmlns="http://www.w3.org/2000/svg" xmlns:xlink="http://www.w3.org/1999/xlink" x="0px" y="0px"
	 viewBox="0 0 28 24" style="enable-background:new 0 0 28 24;" xml:space="preserve">
<path d="M14,16c1.105,0,2,0.895,2,2s-0.895,2-2,2s-2-0.895-2-2S12.895,16,14,16z M27.763,22.972c0.338-0.62,0.31-1.375-0.056-1.941
	L15.673,0.906C15.308,0.339,14.682,0,14,0s-1.308,0.339-1.673,0.906L0.311,21.002c-0.383,0.595-0.412,1.35-0.074,1.97
	C0.583,23.605,1.251,24,1.982,24h24.035C26.749,24,27.417,23.605,27.763,22.972z M26.018,22L2.009,22.058L14,2.004L26.018,22z
	 M14,15c0.508,0,0.935-0.381,0.994-0.886l0.927-5.04c0.041-0.533-0.144-1.064-0.507-1.457c-0.727-0.785-2.1-0.786-2.826,0
	c-0.363,0.392-0.548,0.923-0.504,1.494l0.923,5.003C13.065,14.619,13.492,15,14,15z"/>
</svg>
