<?xml version="1.0" encoding="iso-8859-1"?>
<!-- Generator: Adobe Illustrator 22.0.1, SVG Export Plug-In . SVG Version: 6.00 Build 0)  -->
<svg version="1.1" id="Layer_1" xmlns="http://www.w3.org/2000/svg" xmlns:xlink="http://www.w3.org/1999/xlink" x="0px" y="0px"
	 viewBox="0 0 26 26" style="enable-background:new 0 0 26 26;" xml:space="preserve">
<path d="M13.7,20h-1.4C10.48,20,9,18.52,9,16.7V9.3C9,7.48,10.48,6,12.3,6h1.4C15.52,6,17,7.48,17,9.3v7.4
	C17,18.52,15.52,20,13.7,20z M12.3,8C11.583,8,11,8.583,11,9.3v7.4c0,0.717,0.583,1.3,1.3,1.3h1.4c0.717,0,1.3-0.583,1.3-1.3V9.3
	C15,8.583,14.417,8,13.7,8H12.3z M13,0C5.832,0,0,5.832,0,13s5.832,13,13,13s13-5.832,13-13S20.168,0,13,0z M13,24
	C6.935,24,2,19.065,2,13S6.935,2,13,2s11,4.935,11,11S19.065,24,13,24z"/>
</svg>
