<?xml version="1.0" encoding="iso-8859-1"?>
<!-- Generator: Adobe Illustrator 22.0.1, SVG Export Plug-In . SVG Version: 6.00 Build 0)  -->
<svg version="1.1" id="Layer_1" xmlns="http://www.w3.org/2000/svg" xmlns:xlink="http://www.w3.org/1999/xlink" x="0px" y="0px"
	 viewBox="0 0 26 26" style="enable-background:new 0 0 26 26;" xml:space="preserve">
<path d="M13,0C5.832,0,0,5.832,0,13s5.832,13,13,13s13-5.832,13-13S20.168,0,13,0z M13,24C6.935,24,2,19.065,2,13S6.935,2,13,2
	s11,4.935,11,11S19.065,24,13,24z M16,19c0,0.553-0.448,1-1,1h-4c-0.552,0-1-0.447-1-1s0.448-1,1-1h1V9.414l-1.293,1.293
	c-0.391,0.391-1.023,0.391-1.414,0s-0.391-1.023,0-1.414l3-3c0.285-0.286,0.714-0.374,1.09-0.217C13.756,6.23,14,6.596,14,7v11h1
	C15.552,18,16,18.447,16,19z"/>
</svg>
