<?xml version="1.0" encoding="iso-8859-1"?>
<!-- Generator: Adobe Illustrator 22.0.1, SVG Export Plug-In . SVG Version: 6.00 Build 0)  -->
<svg version="1.1" id="Layer_1" xmlns="http://www.w3.org/2000/svg" xmlns:xlink="http://www.w3.org/1999/xlink" x="0px" y="0px"
	 viewBox="0 0 26 26" style="enable-background:new 0 0 26 26;" xml:space="preserve">
<path d="M16,20h-6c-0.552,0-1-0.447-1-1c0-0.229,0.073-2.284,2.594-4.17c0.151-0.113,0.353-0.247,0.587-0.4
	C13.235,13.736,15,12.575,15,10.969L15,9.5C15,8.673,14.327,8,13.5,8h-1.25C11.561,8,11,8.705,11,9.571c0,0.553-0.448,1-1,1
	s-1-0.447-1-1C9,7.603,10.458,6,12.25,6h1.25C15.43,6,17,7.57,17,9.5l0,1.469c0,2.685-2.42,4.276-3.72,5.132
	c-0.194,0.128-0.362,0.237-0.488,0.331c-0.75,0.561-1.186,1.116-1.44,1.568H16c0.552,0,1,0.447,1,1S16.552,20,16,20z M26,13
	c0,7.168-5.832,13-13,13S0,20.168,0,13S5.832,0,13,0S26,5.832,26,13z M24,13c0-6.065-4.935-11-11-11S2,6.935,2,13s4.935,11,11,11
	S24,19.065,24,13z"/>
</svg>
