<?xml version="1.0" encoding="iso-8859-1"?>
<!-- Generator: Adobe Illustrator 22.0.1, SVG Export Plug-In . SVG Version: 6.00 Build 0)  -->
<svg version="1.1" id="Layer_1" xmlns="http://www.w3.org/2000/svg" xmlns:xlink="http://www.w3.org/1999/xlink" x="0px" y="0px"
	 viewBox="0 0 26 26" style="enable-background:new 0 0 26 26;" xml:space="preserve">
<path d="M17,9.3v1.4c0,0.895-0.361,1.705-0.941,2.3C16.639,13.595,17,14.405,17,15.3v1.4c0,1.819-1.48,3.3-3.3,3.3H12
	c-1.654,0-3-1.346-3-3c0-0.553,0.447-1,1-1s1,0.447,1,1c0,0.552,0.448,1,1,1h1.7c0.717,0,1.3-0.583,1.3-1.3v-1.4
	c0-0.717-0.583-1.3-1.3-1.3H12c-0.553,0-1-0.447-1-1s0.447-1,1-1h1.7c0.717,0,1.3-0.583,1.3-1.3V9.3C15,8.583,14.417,8,13.7,8H12
	c-0.552,0-1,0.448-1,1c0,0.553-0.447,1-1,1S9,9.553,9,9c0-1.654,1.346-3,3-3h1.7C15.52,6,17,7.48,17,9.3z M26,13
	c0,7.168-5.832,13-13,13S0,20.168,0,13S5.832,0,13,0S26,5.832,26,13z M24,13c0-6.065-4.935-11-11-11S2,6.935,2,13s4.935,11,11,11
	S24,19.065,24,13z"/>
</svg>
