<?xml version="1.0" encoding="iso-8859-1"?>
<!-- Generator: Adobe Illustrator 22.0.1, SVG Export Plug-In . SVG Version: 6.00 Build 0)  -->
<svg version="1.1" id="Layer_1" xmlns="http://www.w3.org/2000/svg" xmlns:xlink="http://www.w3.org/1999/xlink" x="0px" y="0px"
	 viewBox="0 0 26 26" style="enable-background:new 0 0 26 26;" xml:space="preserve">
<path d="M13,0C5.832,0,0,5.832,0,13s5.832,13,13,13s13-5.832,13-13S20.168,0,13,0z M13,24C6.935,24,2,19.065,2,13S6.935,2,13,2
	s11,4.935,11,11S19.065,24,13,24z M14,20c-0.553,0-1-0.447-1-1v-2H8.125c-0.367,0-0.705-0.201-0.879-0.523
	c-0.175-0.323-0.159-0.716,0.042-1.023l5.875-9c0.241-0.37,0.696-0.538,1.122-0.411C14.709,6.168,15,6.558,15,7v8h1
	c0.553,0,1,0.447,1,1s-0.447,1-1,1h-1v2C15,19.553,14.553,20,14,20z M9.972,15H13v-4.639L9.972,15z"/>
</svg>
