<?xml version="1.0" encoding="iso-8859-1"?>
<!-- Generator: Adobe Illustrator 22.0.1, SVG Export Plug-In . SVG Version: 6.00 Build 0)  -->
<svg version="1.1" id="Layer_1" xmlns="http://www.w3.org/2000/svg" xmlns:xlink="http://www.w3.org/1999/xlink" x="0px" y="0px"
	 viewBox="0 0 26 26" style="enable-background:new 0 0 26 26;" xml:space="preserve">
<path d="M13.5,20H12c-1.654,0-3-1.346-3-3c0-0.553,0.448-1,1-1s1,0.447,1,1c0,0.552,0.449,1,1,1h1.5c0.827,0,1.5-0.673,1.5-1.5v-2
	c0-0.827-0.673-1.5-1.5-1.5H11c-0.291,0-0.568-0.127-0.758-0.348s-0.274-0.513-0.231-0.801l0.75-5C10.834,6.362,11.255,6,11.75,6H16
	c0.552,0,1,0.447,1,1s-0.448,1-1,1h-3.389l-0.45,3H13.5c1.93,0,3.5,1.57,3.5,3.5v2C17,18.43,15.43,20,13.5,20z M26,13
	c0,7.168-5.832,13-13,13S0,20.168,0,13S5.832,0,13,0S26,5.832,26,13z M24,13c0-6.065-4.935-11-11-11S2,6.935,2,13s4.935,11,11,11
	S24,19.065,24,13z"/>
</svg>
