<?xml version="1.0" encoding="iso-8859-1"?>
<!-- Generator: Adobe Illustrator 22.0.1, SVG Export Plug-In . SVG Version: 6.00 Build 0)  -->
<svg version="1.1" id="Layer_1" xmlns="http://www.w3.org/2000/svg" xmlns:xlink="http://www.w3.org/1999/xlink" x="0px" y="0px"
	 viewBox="0 0 26 26" style="enable-background:new 0 0 26 26;" xml:space="preserve">
<path d="M13,26C5.832,26,0,20.168,0,13S5.832,0,13,0s13,5.832,13,13S20.168,26,13,26z M13,2C6.935,2,2,6.935,2,13s4.935,11,11,11
	s11-4.935,11-11S19.065,2,13,2z M16.249,11.573c0.156-0.326,0.251-0.687,0.251-1.073v-2C16.5,7.121,15.379,6,14,6h-2
	c-1.379,0-2.5,1.121-2.5,2.5v2c0,0.385,0.095,0.746,0.251,1.073C8.997,12.118,8.5,13,8.5,14v3c0,1.654,1.346,3,3,3h3
	c1.654,0,3-1.346,3-3v-3C17.5,13,17.003,12.118,16.249,11.573z M11.5,8.5C11.5,8.225,11.725,8,12,8h2c0.275,0,0.5,0.225,0.5,0.5v2
	c0,0.275-0.225,0.5-0.5,0.5h-2c-0.275,0-0.5-0.225-0.5-0.5V8.5z M15.5,17c0,0.552-0.448,1-1,1h-3c-0.552,0-1-0.448-1-1v-3
	c0-0.552,0.448-1,1-1h3c0.552,0,1,0.448,1,1V17z"/>
</svg>
