<svg xmlns="http://www.w3.org/2000/svg" x="0px" y="0px" viewBox="0 0 24 28">
<path d="M12,27.988c-0.256,0-0.512-0.098-0.707-0.293L0.299,16.701c-0.391-0.391-0.391-1.023,0-1.414l3.994-3.994
	c0.391-0.391,1.023-0.391,1.414,0L8,13.586V1c0-0.553,0.448-1,1-1h6c0.552,0,1,0.447,1,1v12.586l2.293-2.293
	c0.391-0.391,1.023-0.391,1.414,0l4,4C23.895,15.48,24,15.735,24,16c0,0.266-0.105,0.52-0.293,0.707l-11,10.988
	C12.512,27.891,12.256,27.988,12,27.988z M2.42,15.994L12,25.574L21.585,16L19,13.414l-3.293,3.293
	c-0.287,0.286-0.716,0.372-1.09,0.217C14.244,16.77,14,16.404,14,16V2h-4v14c0,0.404-0.244,0.77-0.617,0.924
	c-0.375,0.155-0.804,0.069-1.09-0.217L5,13.414L2.42,15.994z"/>
</svg>
