<svg xmlns="http://www.w3.org/2000/svg" x="0px" y="0px" viewBox="0 0 24 28">
<path d="M12.707,0.305l11,10.988C23.895,11.48,24,11.734,24,12c0,0.265-0.105,0.52-0.293,0.707l-4,4c-0.39,0.39-1.024,0.39-1.414,0
	L16,14.414V27c0,0.552-0.448,1-1,1H9c-0.552,0-1-0.448-1-1V14.414l-2.293,2.293c-0.39,0.39-1.024,0.39-1.414,0l-3.994-3.994
	c-0.39-0.39-0.39-1.024,0-1.414L11.293,0.305C11.488,0.109,11.744,0.012,12,0.012S12.512,0.109,12.707,0.305z M5,14.586l3.293-3.293
	c0.286-0.286,0.715-0.372,1.09-0.217C9.756,11.23,10,11.596,10,12v14h4V12c0-0.404,0.244-0.77,0.617-0.924
	c0.374-0.155,0.803-0.069,1.09,0.217L19,14.586L21.585,12L12,2.426l-9.581,9.58L5,14.586z"/>
</svg>
