<?xml version="1.0" encoding="UTF-8"?>
<svg width="16px" height="16px" viewBox="0 0 16 16" version="1.1" xmlns="http://www.w3.org/2000/svg" xmlns:xlink="http://www.w3.org/1999/xlink">
    <path d="M2.72792206,8 L10.2426407,8 L6.48528137,4.24264069 L2.72792206,8 Z M0.828427125,7.07106781 L5.07106781,2.82842712 L4.36396103,2.12132034 C3.97343674,1.73079605 3.97343674,1.09763107 4.36396103,0.707106781 C4.75448532,0.316582489 5.3876503,0.316582489 5.77817459,0.707106781 L13.9099026,8.83883476 C14.1051647,9.03409691 14.1051647,9.3506794 13.9099026,9.54594155 L8.60660172,14.8492424 C7.82555313,15.630291 6.55922318,15.630291 5.77817459,14.8492424 L0.828427125,9.89949494 C0.0473785412,9.11844635 0.0473785412,7.8521164 0.828427125,7.07106781 Z M14,16 C12.8954305,16 12,15.1791887 12,14.1666667 C12,13.5264922 12.599624,12.3941396 13.7988719,10.7696089 C13.8136949,10.7495293 13.8314414,10.7317828 13.851521,10.7169598 C13.962593,10.634965 14.1191046,10.6585368 14.2010993,10.7696088 L14.2011179,10.7695951 C15.4003726,12.3941332 16,13.5264904 16,14.1666667 C16,15.1791887 15.1045695,16 14,16 Z"></path>
</svg>