<?xml version="1.0" encoding="UTF-8"?>
<svg width="16px" height="16px" viewBox="0 0 16 16" version="1.1" xmlns="http://www.w3.org/2000/svg" xmlns:xlink="http://www.w3.org/1999/xlink">
    <path d="M8,0 C12.418278,-8.11624501e-16 16,3.581722 16,8 C16,12.418278 12.418278,16 8,16 C3.581722,16 5.41083001e-16,12.418278 0,8 C-5.41083001e-16,3.581722 3.581722,8.11624501e-16 8,0 Z M7.53465887,10.9946443 C7.8259829,10.8414862 8.1740171,10.8414862 8.46534113,10.9946443 L10.7844508,12.2138724 C10.833116,12.2394572 10.888858,12.2482859 10.9430474,12.2389917 C11.0791315,12.2156514 11.1705285,12.0864124 11.1471882,11.9503283 L10.7042777,9.36796169 C10.6486397,9.04356763 10.7561882,8.71256743 10.9918743,8.48283027 L12.8680735,6.65398807 C12.9074444,6.61561092 12.9330662,6.56532532 12.9409723,6.51091606 C12.9608267,6.37427984 12.8661563,6.24741913 12.7295201,6.22756473 L10.1366766,5.85080251 C9.81096648,5.80347406 9.52940089,5.59890468 9.38373888,5.30376121 L8.22418402,2.95424644 C8.19985146,2.90494329 8.15994458,2.86503641 8.11064143,2.84070385 C7.98682801,2.77959827 7.83692155,2.83043302 7.77581598,2.95424644 L6.61626112,5.30376121 C6.47059911,5.59890468 6.18903352,5.80347406 5.86332336,5.85080251 L3.27047987,6.22756473 C3.21607061,6.23547086 3.16578501,6.26109265 3.12740786,6.30046356 C3.03103255,6.39933445 3.03305563,6.55761277 3.13192652,6.65398807 L5.0081257,8.48283027 C5.24381179,8.71256743 5.35136027,9.04356763 5.29572233,9.36796169 L4.85281179,11.9503283 C4.84351758,12.0045177 4.85234625,12.0602597 4.87793101,12.1089249 C4.94218122,12.231136 5.093338,12.2781226 5.21554915,12.2138724 L7.53465887,10.9946443 Z"></path>
</svg>