<?xml version="1.0" encoding="UTF-8"?>
<svg width="16px" height="16px" viewBox="0 0 16 16" version="1.1" xmlns="http://www.w3.org/2000/svg" xmlns:xlink="http://www.w3.org/1999/xlink">
    <path d="M13.7935807,7.62755777 C15.1145639,8.41164118 16,9.85241825 16,11.5 C16,13.9852814 13.9852814,16 11.5,16 C9.45454552,16 7.72783801,14.635282 7.18074016,12.7667088 L4.53782812,14.1561699 C4.00009908,14.4388708 3.33500921,14.2321296 3.05230832,13.6944006 C2.93973534,13.4802741 2.9008892,13.2350092 2.94178373,12.9965758 L3.55818007,9.40270933 L0.947083254,6.85751898 C0.512051319,6.43346765 0.503149781,5.73704306 0.927201115,5.30201112 C1.09606058,5.12877912 1.31731723,5.01604323 1.55671797,4.98125626 L5.16516502,4.45691822 L6.7789116,1.1871105 C7.04777612,0.642331475 7.70736454,0.418658577 8.25214356,0.687523099 C8.46907743,0.794586362 8.6446677,0.970176636 8.75173097,1.1871105 L10.3654775,4.45691822 L13.9739246,4.98125626 C14.5751239,5.06861564 14.9916735,5.62680278 14.9043142,6.22800213 C14.8695272,6.46740286 14.7567913,6.68865951 14.5835593,6.85751898 L13.7935807,7.62755777 Z M11.5,14 C12.8807119,14 14,12.8807119 14,11.5 C14,10.1192881 12.8807119,9 11.5,9 C10.1192881,9 9,10.1192881 9,11.5 C9,12.8807119 10.1192881,14 11.5,14 Z"></path>
</svg>