<?xml version="1.0" encoding="UTF-8"?>
<svg width="16px" height="16px" viewBox="0 0 16 16" version="1.1" xmlns="http://www.w3.org/2000/svg" xmlns:xlink="http://www.w3.org/1999/xlink">
    <path d="M11.5908627,13.0050763 L9.40380592,10.8180195 C9.20854378,10.6227573 9.20854378,10.3061748 9.40380592,10.1109127 L10.1109127,9.40380592 C10.3061748,9.20854378 10.6227573,9.20854378 10.8180195,9.40380592 L13.0050763,11.5908627 L14.0629214,9.68674155 C14.197028,9.44534968 14.5014296,9.35837778 14.7428215,9.49248438 C14.9015541,9.58066915 15,9.74797945 15,9.92956301 L15,14.5 C15,14.7761424 14.7761424,15 14.5,15 L9.92956301,15 C9.65342064,15 9.42956301,14.7761424 9.42956301,14.5 C9.42956301,14.3184164 9.52800896,14.1511061 9.68674155,14.0629214 L11.5908627,13.0050763 Z M2.99492373,11.5908627 L5.18198052,9.40380592 C5.37724266,9.20854378 5.69382515,9.20854378 5.8890873,9.40380592 L6.59619408,10.1109127 C6.79145622,10.3061748 6.79145622,10.6227573 6.59619408,10.8180195 L4.40177984,13.0124337 L6.25458344,14.0652839 C6.49467051,14.2017127 6.57870217,14.5069391 6.4422734,14.7470261 C6.35341426,14.9034003 6.18741507,15 6.0075573,15 L1.5,15 C1.22385763,15 1,14.7761424 1,14.5 L1,9.92956301 C1,9.65342064 1.22385763,9.42956301 1.5,9.42956301 C1.68158356,9.42956301 1.84889386,9.52800896 1.93707864,9.68674155 L2.99492373,11.5908627 Z M2.99492373,4.40913729 L1.93707864,6.31325845 C1.80297205,6.55465032 1.4985704,6.64162222 1.25717853,6.50751562 C1.09844594,6.41933085 1,6.25202055 1,6.07043699 L1,1.5 C1,1.22385763 1.22385763,1 1.5,1 L6.07043699,1 C6.34657936,1 6.57043699,1.22385763 6.57043699,1.5 C6.57043699,1.68158356 6.47199104,1.84889386 6.31325845,1.93707864 L4.40913729,2.99492373 L6.59619408,5.18198052 C6.79145622,5.37724266 6.79145622,5.69382515 6.59619408,5.8890873 L5.8890873,6.59619408 C5.69382515,6.79145622 5.37724266,6.79145622 5.18198052,6.59619408 L2.99492373,4.40913729 Z M11.5908627,2.99492373 L9.68674155,1.93707864 C9.44534968,1.80297205 9.35837778,1.4985704 9.49248438,1.25717853 C9.58066915,1.09844594 9.74797945,1 9.92956301,1 L14.5,1 C14.7761424,1 15,1.22385763 15,1.5 L15,6.07043699 C15,6.34657936 14.7761424,6.57043699 14.5,6.57043699 C14.3184164,6.57043699 14.1511061,6.47199104 14.0629214,6.31325845 L13.0050763,4.40913729 L10.8180195,6.59619408 C10.6227573,6.79145622 10.3061748,6.79145622 10.1109127,6.59619408 L9.40380592,5.8890873 C9.20854378,5.69382515 9.20854378,5.37724266 9.40380592,5.18198052 L11.5908627,2.99492373 Z"></path>
</svg>