<?xml version="1.0" encoding="UTF-8"?>
<svg width="16px" height="16px" viewBox="0 0 16 16" version="1.1" xmlns="http://www.w3.org/2000/svg" xmlns:xlink="http://www.w3.org/1999/xlink">
    <path d="M8.00003246,11.2452243 L10.9333445,12.7873577 L10.3731318,9.5210667 L12.7462311,7.20786659 L9.46668849,6.73132116 L8.00003246,3.75955146 L6.53337644,6.73132116 L3.25383386,7.20786659 L5.62693316,9.5210667 L5.06672041,12.7873577 L8.00003246,11.2452243 Z M8.00003246,13.5047757 L4.65229855,15.2647836 C4.04124282,15.5860346 3.28545887,15.3511015 2.96420786,14.7400457 C2.83628403,14.4967201 2.79214068,14.21801 2.83861174,13.947063 L3.47797202,10.2193065 L0.769598393,7.5792947 C0.275243921,7.09741818 0.265128538,6.3060266 0.747005053,5.81167213 C0.938890809,5.61481758 1.19031882,5.48670861 1.46236511,5.44717797 L5.20524541,4.90330563 L6.87911237,1.51168073 C7.18464024,0.892613652 7.93417253,0.638439903 8.5532396,0.94396777 C8.79975536,1.06563057 8.99928976,1.26516497 9.12095256,1.51168073 L10.7948195,4.90330563 L14.5376998,5.44717797 C15.2208809,5.54644999 15.6942327,6.18075356 15.5949607,6.86393464 C15.5554301,7.13598093 15.4273211,7.38740894 15.2304665,7.5792947 L12.5220929,10.2193065 L13.1614532,13.947063 C13.2781545,14.6274836 12.8211697,15.2736785 12.1407491,15.3903797 C11.8698021,15.4368508 11.591092,15.3927074 11.3477664,15.2647836 L8.00003246,13.5047757 Z"></path>
</svg>