<?xml version="1.0" encoding="UTF-8"?>
<svg width="16px" height="16px" viewBox="0 0 16 16" version="1.1" xmlns="http://www.w3.org/2000/svg" xmlns:xlink="http://www.w3.org/1999/xlink">
    <path d="M11.3168882,12 L4.68320834,12 L4.00647988,13.428197 C3.84102333,13.7773836 3.48919734,14 3.10279446,14 L2.31562769,14 C2.03948531,14 1.81562769,13.7761424 1.81562769,13.5 C1.81562769,13.4254342 1.83230534,13.3518124 1.86443935,13.2845259 L7.09765728,2.32651745 C7.33566339,1.82814857 7.93261326,1.61708284 8.43098214,1.85508895 C8.63742379,1.95367932 8.80381896,2.12007415 8.90240975,2.3265156 L14.1356556,13.284525 C14.2546592,13.5337092 14.1491269,13.8321843 13.8999427,13.9511879 C13.832656,13.9833222 13.7590339,14 13.6844677,14 L12.8973026,14 C12.5108998,14 12.1590738,13.7773837 11.9936172,13.4281972 L11.3168882,12 Z M10.3692194,10 L8.0000472,5 L5.63087659,10 L10.3692194,10 Z"></path>
</svg>