<?xml version="1.0" encoding="iso-8859-1"?>
<!-- Generator: Adobe Illustrator 22.1.0, SVG Export Plug-In . SVG Version: 6.00 Build 0)  -->
<svg version="1.1" id="Filled_3_" xmlns="http://www.w3.org/2000/svg" xmlns:xlink="http://www.w3.org/1999/xlink" x="0px" y="0px"
	 viewBox="0 0 11 10" style="enable-background:new 0 0 11 10;" xml:space="preserve">
<path d="M10.655,1.967c0.236,0.478,0.34,0.95,0.344,1.408c0.022,2.11-2.053,3.929-2.935,4.703L7.886,8.235C7.15,8.901,5.5,10,5.5,10
	S3.85,8.902,3.114,8.235L2.935,8.078C2.053,7.304-0.022,5.485,0,3.375c0.005-0.458,0.108-0.93,0.344-1.408
	C0.923,0.796,1.96,0.002,3.3,0c0.845-0.001,1.856,0.5,2.2,1.066C5.878,0.5,6.855-0.001,7.7,0C9.04,0.002,10.077,0.796,10.655,1.967z
	"/>
</svg>
