<?xml version="1.0" encoding="iso-8859-1"?>
<!-- Generator: Adobe Illustrator 22.1.0, SVG Export Plug-In . SVG Version: 6.00 Build 0)  -->
<svg version="1.1" id="Filled_3_" xmlns="http://www.w3.org/2000/svg" xmlns:xlink="http://www.w3.org/1999/xlink" x="0px" y="0px"
	 viewBox="0 0 11 11" style="enable-background:new 0 0 11 11;" xml:space="preserve">
<path d="M3,11c-0.801,0-1.555-0.312-2.121-0.879C0.312,9.554,0,8.801,0,8s0.312-1.555,0.879-2.122l1.416-1.416l1.414,1.414
	L2.293,7.292C2.104,7.481,2,7.732,2,8c0,0.267,0.104,0.518,0.293,0.707c0.378,0.379,1.036,0.378,1.414,0l1.416-1.416l1.414,1.414
	l-1.416,1.416C4.554,10.688,3.801,11,3,11z M10.121,5.121C10.688,4.554,11,3.8,11,2.999s-0.312-1.555-0.879-2.121
	c-1.17-1.17-3.072-1.17-4.242,0L4.406,2.35L5.82,3.765l1.473-1.473c0.39-0.39,1.024-0.39,1.414,0C8.896,2.481,9,2.732,9,2.999
	S8.896,3.517,8.707,3.706L7.262,5.152l1.414,1.414L10.121,5.121z M7.248,5.165L5.834,3.751L3.709,5.876l1.414,1.414L7.248,5.165z"/>
</svg>
