<?xml version="1.0" encoding="iso-8859-1"?>
<!-- Generator: Adobe Illustrator 22.1.0, SVG Export Plug-In . SVG Version: 6.00 Build 0)  -->
<svg version="1.1" id="Filled_3_" xmlns="http://www.w3.org/2000/svg" xmlns:xlink="http://www.w3.org/1999/xlink" x="0px" y="0px"
	 viewBox="0 0 10 10" style="enable-background:new 0 0 10 10;" xml:space="preserve">
<path d="M10,4c0,2.209-1.791,4-4,4C5.414,8,4.861,7.867,4.36,7.64L2.293,9.707c-0.391,0.391-1.024,0.391-1.414,0L0.293,9.121
	c-0.391-0.39-0.391-1.023,0-1.414L2.36,5.64C2.133,5.139,2,4.586,2,4c0-2.209,1.791-4,4-4c0.586,0,1.139,0.133,1.64,0.36L5,3l2,2
	l2.64-2.64C9.867,2.861,10,3.414,10,4z"/>
</svg>
