<?xml version="1.0" encoding="iso-8859-1"?>
<!-- Generator: Adobe Illustrator 22.1.0, SVG Export Plug-In . SVG Version: 6.00 Build 0)  -->
<svg version="1.1" id="Filled_3_" xmlns="http://www.w3.org/2000/svg" xmlns:xlink="http://www.w3.org/1999/xlink" x="0px" y="0px"
	 viewBox="0 0 6 12" style="enable-background:new 0 0 6 12;" xml:space="preserve">
<path d="M6,8c0,1-0.6,2.4-2,2.8V12H2v-1.2C0.6,10.4,0,9,0,8h2c0,0.5,0.2,1,1,1s1-0.5,1-1S3.8,7.4,2.6,6.9C1.6,6.5,0,5.9,0,4
	c0-1.6,1-2.5,2-2.8V0h2v1.2C5.4,1.6,6,3,6,4H5H4c0-0.5-0.2-1-1-1C2.5,3,2,3.2,2,4c0,0.5,0.2,0.6,1.4,1.1C4.4,5.5,6,6.1,6,8z"/>
</svg>
