<?xml version="1.0" encoding="iso-8859-1"?>
<!-- Generator: Adobe Illustrator 22.1.0, SVG Export Plug-In . SVG Version: 6.00 Build 0)  -->
<svg version="1.1" id="Filled_3_" xmlns="http://www.w3.org/2000/svg" xmlns:xlink="http://www.w3.org/1999/xlink" x="0px" y="0px"
	 viewBox="0 0 10 11" style="enable-background:new 0 0 10 11;" xml:space="preserve">
<path d="M10,9v1H6c0,0.552-0.448,1-1,1s-1-0.448-1-1H0V9l0.707-0.707C0.895,8.105,1,7.851,1,7.586V5c0-1.861,1.279-3.406,3-3.853
	C4,1.097,4,1.052,4,1c0-0.552,0.448-1,1-1s1,0.448,1,1c0,0.04,0,0.088,0,0.14c1.761,0.468,3,2.154,3,4.032v2.414
	c0,0.265,0.105,0.52,0.293,0.707L10,9z"/>
</svg>
