<?xml version="1.0" encoding="iso-8859-1"?>
<!-- Generator: Adobe Illustrator 22.1.0, SVG Export Plug-In . SVG Version: 6.00 Build 0)  -->
<svg version="1.1" id="Filled_3_" xmlns="http://www.w3.org/2000/svg" xmlns:xlink="http://www.w3.org/1999/xlink" x="0px" y="0px"
	 viewBox="0 0 8 10" style="enable-background:new 0 0 8 10;" xml:space="preserve">
<path d="M0.5,0h2C2.776,0,3,0.224,3,0.5v9C3,9.776,2.776,10,2.5,10h-2C0.224,10,0,9.776,0,9.5v-9C0,0.224,0.224,0,0.5,0z M5.5,10h2
	C7.776,10,8,9.776,8,9.5v-9C8,0.224,7.776,0,7.5,0h-2C5.224,0,5,0.224,5,0.5v9C5,9.776,5.224,10,5.5,10z"/>
</svg>
