<?xml version="1.0" encoding="iso-8859-1"?>
<!-- Generator: Adobe Illustrator 22.1.0, SVG Export Plug-In . SVG Version: 6.00 Build 0)  -->
<svg version="1.1" id="Filled_3_" xmlns="http://www.w3.org/2000/svg" xmlns:xlink="http://www.w3.org/1999/xlink" x="0px" y="0px"
	 viewBox="0 0 14 10" style="enable-background:new 0 0 14 10;" xml:space="preserve">
<path d="M7,2c2.18,0,4.16,0.88,5.6,2.3L14,2.88l0.01-0.01C12.21,1.1,9.73,0,7,0S1.8,1.09,0,2.86v0.02L1.4,4.3C2.84,2.88,4.82,2,7,2z
	 M7,4C5.36,4,3.88,4.65,2.8,5.73l1.4,1.42C4.93,6.44,5.91,6,7,6s2.07,0.44,2.8,1.15l1.4-1.42C10.12,4.65,8.64,4,7,4z M7,8
	C6.45,8,5.96,8.22,5.6,8.58L7,10l1.4-1.42C8.04,8.22,7.55,8,7,8z"/>
</svg>
