<?xml version="1.0" encoding="iso-8859-1"?>
<!-- Generator: Adobe Illustrator 22.1.0, SVG Export Plug-In . SVG Version: 6.00 Build 0)  -->
<svg version="1.1" id="Filled_3_" xmlns="http://www.w3.org/2000/svg" xmlns:xlink="http://www.w3.org/1999/xlink" x="0px" y="0px"
	 viewBox="0 0 10 10" style="enable-background:new 0 0 10 10;" xml:space="preserve">
<path d="M5,0C2.25,0,0,2.25,0,5s2.25,5,5,5s5-2.25,5-5S7.75,0,5,0z M6.862,6.783C6.77,7.029,6.64,7.241,6.469,7.421
	c-0.17,0.18-0.376,0.322-0.615,0.425C5.612,7.949,5.344,8,5.046,8C4.735,8,4.453,7.943,4.2,7.829
	C3.948,7.715,3.733,7.556,3.556,7.35C3.38,7.145,3.243,6.899,3.146,6.614C3.048,6.328,3,6.014,3,5.67V5.22
	c0-0.472,0.067-0.906,0.199-1.3c0.133-0.394,0.326-0.734,0.579-1.018C4.03,2.617,4.34,2.396,4.707,2.237
	C5.074,2.079,5.492,2,5.959,2h0.163v0.958H6.055c-0.274,0-0.519,0.036-0.738,0.107S4.911,3.237,4.753,3.368S4.467,3.659,4.37,3.847
	C4.273,4.035,4.208,4.245,4.177,4.479c0.14-0.145,0.309-0.261,0.504-0.348C4.876,4.044,5.099,4,5.349,4
	c0.274,0,0.514,0.053,0.72,0.159c0.206,0.106,0.379,0.25,0.516,0.43c0.139,0.181,0.242,0.392,0.311,0.632
	C6.966,5.461,7,5.717,7,5.988C7,6.272,6.954,6.537,6.862,6.783z M5.793,5.572C5.833,5.702,5.852,5.844,5.852,6
	c0,0.153-0.021,0.294-0.06,0.425S5.696,6.667,5.624,6.761C5.553,6.855,5.465,6.929,5.363,6.982c-0.103,0.054-0.217,0.08-0.341,0.08
	c-0.127,0-0.245-0.025-0.353-0.076C4.562,6.935,4.47,6.858,4.393,6.755C4.319,6.651,4.259,6.522,4.217,6.366
	C4.174,6.211,4.153,6.03,4.153,5.823v-0.35c0.032-0.073,0.075-0.142,0.129-0.207C4.337,5.2,4.4,5.142,4.472,5.093
	c0.071-0.049,0.151-0.089,0.24-0.117c0.087-0.028,0.183-0.042,0.287-0.042c0.133,0,0.252,0.026,0.357,0.078
	C5.46,5.065,5.549,5.138,5.624,5.234C5.699,5.329,5.755,5.442,5.793,5.572z"/>
</svg>
