<?xml version="1.0" encoding="iso-8859-1"?>
<!-- Generator: Adobe Illustrator 22.1.0, SVG Export Plug-In . SVG Version: 6.00 Build 0)  -->
<svg version="1.1" id="Filled_3_" xmlns="http://www.w3.org/2000/svg" xmlns:xlink="http://www.w3.org/1999/xlink" x="0px" y="0px"
	 viewBox="0 0 10 10" style="enable-background:new 0 0 10 10;" xml:space="preserve">
<path d="M5.759,3.635C5.801,3.79,5.822,3.973,5.822,4.183v0.478c-0.07,0.137-0.174,0.254-0.311,0.35
	C5.374,5.108,5.21,5.157,5.02,5.157c-0.144,0-0.269-0.029-0.375-0.086C4.54,5.014,4.452,4.934,4.383,4.834
	C4.314,4.733,4.261,4.617,4.226,4.485C4.191,4.354,4.173,4.212,4.173,4.061c0-0.145,0.018-0.285,0.053-0.418
	C4.261,3.509,4.314,3.39,4.383,3.285c0.069-0.105,0.154-0.19,0.254-0.252C4.738,2.97,4.853,2.939,4.984,2.939
	c0.119,0,0.23,0.025,0.332,0.075c0.102,0.052,0.191,0.129,0.267,0.232C5.659,3.349,5.717,3.479,5.759,3.635z M10,5
	c0,2.727-2.273,5-5,5S0,7.727,0,5c0-2.727,2.273-5,5-5S10,2.273,10,5z M7,4.392c0-0.357-0.048-0.683-0.143-0.977
	C6.762,3.122,6.628,2.869,6.454,2.66C6.28,2.451,6.069,2.288,5.82,2.173C5.572,2.058,5.296,2,4.992,2
	C4.687,2,4.412,2.055,4.167,2.164c-0.246,0.11-0.455,0.259-0.627,0.447C3.367,2.799,3.234,3.02,3.14,3.271
	C3.047,3.521,3,3.789,3,4.074c0,0.282,0.037,0.543,0.112,0.783c0.074,0.24,0.185,0.449,0.332,0.625
	c0.147,0.175,0.328,0.314,0.544,0.414c0.216,0.101,0.463,0.151,0.743,0.151c0.209,0,0.405-0.041,0.588-0.121
	C5.503,5.846,5.665,5.737,5.806,5.6C5.785,5.83,5.732,6.035,5.65,6.212c-0.083,0.178-0.2,0.327-0.35,0.447
	C5.149,6.781,4.963,6.872,4.743,6.935C4.523,6.998,4.264,7.03,3.965,7.03H3.884V8h0.093c0.508,0,0.95-0.076,1.328-0.229
	c0.377-0.153,0.692-0.37,0.943-0.65C6.499,6.84,6.687,6.503,6.813,6.109C6.937,5.716,7,5.279,7,4.799V4.392z"/>
</svg>
