<?xml version="1.0" encoding="iso-8859-1"?>
<!-- Generator: Adobe Illustrator 22.1.0, SVG Export Plug-In . SVG Version: 6.00 Build 0)  -->
<svg version="1.1" id="IOS_copy" xmlns="http://www.w3.org/2000/svg" xmlns:xlink="http://www.w3.org/1999/xlink" x="0px" y="0px"
	 viewBox="0 0 16 22" style="enable-background:new 0 0 16 22;" xml:space="preserve">
<path style="fill:#FFA000;" d="M15.691,3.573c-0.34-1.598-1.618-2.816-3.226-3.102C11.116,0.231,9.442,0,8,0
	S4.884,0.231,3.535,0.471C1.927,0.757,0.649,1.976,0.309,3.573C0.137,4.384,0,5.26,0,6c0,0.791,0.157,1.739,0.346,2.596
	c0.327,1.479,1.443,2.656,2.91,3.034C3.943,11.807,4.618,11.962,5,12v8l2,2h2l2-2v-1l-1-1l1-1v-1l-1-1l1-1v-2
	c0.382-0.038,1.057-0.193,1.744-0.37c1.466-0.378,2.583-1.555,2.91-3.034C15.843,7.739,16,6.791,16,6
	C16,5.26,15.863,4.384,15.691,3.573z M12,3.9C12,4.5,11.5,5,10.9,5H5.1C4.5,5,4,4.5,4,3.9V2.5C4,2.2,5.8,2,8,2s4,0.3,4,0.6V3.9z"/>
<rect x="7" y="11.1" style="fill:#D68600;" width="1" height="10.9"/>
</svg>
