<?xml version="1.0" encoding="utf-8"?>
<!-- Generator: Adobe Illustrator 19.1.1, SVG Export Plug-In . SVG Version: 6.00 Build 0)  -->
<svg version="1.1" id="IOS_copy" xmlns="http://www.w3.org/2000/svg" xmlns:xlink="http://www.w3.org/1999/xlink" x="0px" y="0px"
	 viewBox="0 0 22 22" enable-background="new 0 0 22 22" xml:space="preserve">
<path fill="#1976D2" d="M11.3,10.7c-2.2-2.2-2.2-5.8,0-8l1.1-1.1c2.2-2.2,5.8-2.2,8,0c2.2,2.2,2.2,5.7,0.1,8l-1.1,1.1
	C17,12.9,13.5,12.9,11.3,10.7z M18.3,3.8c-1-1-2.7-1-3.7,0l-1.1,1.1c-1,1-1,2.7,0,3.7c1,1,2.7,1,3.8,0l1.1-1.1
	C19.3,6.5,19.3,4.8,18.3,3.8z M1.7,20.3c-2.2-2.2-2.2-5.8,0-8l1.1-1.1c2.2-2.2,5.8-2.2,8,0c2.2,2.2,2.2,5.7,0.1,8l-1.1,1.1
	C7.4,22.6,3.9,22.5,1.7,20.3z M8.7,13.4c-1-1-2.7-1-3.7,0l-1.1,1.1c-1,1-1,2.7,0,3.7c1,1,2.7,1,3.8,0l1.1-1.1
	C9.7,16.1,9.7,14.4,8.7,13.4z"/>
<path fill="#42A5F5" d="M6.5,15.5c-0.6-0.6-0.6-1.5,0-2.1l6.9-6.9c0.6-0.6,1.5-0.6,2.1,0c0.6,0.6,0.6,1.5,0,2.1l-6.9,6.9
	C8.1,16.1,7.1,16.1,6.5,15.5z"/>
</svg>
