<?xml version="1.0" encoding="utf-8"?>
<!-- Generator: Adobe Illustrator 19.1.1, SVG Export Plug-In . SVG Version: 6.00 Build 0)  -->
<svg version="1.1" id="IOS_copy" xmlns="http://www.w3.org/2000/svg" xmlns:xlink="http://www.w3.org/1999/xlink" x="0px" y="0px"
	 viewBox="0 0 16 20" enable-background="new 0 0 16 20" xml:space="preserve">
<path fill="#FB8C00" d="M14.2,20H1.8c-1,0-1.8-0.8-1.8-1.8V9.8C0,8.8,0.8,8,1.8,8h12.4c1,0,1.8,0.8,1.8,1.8v8.4
	C16,19.2,15.2,20,14.2,20"/>
<path fill="#C76E00" d="M10,14c0,1.1-0.9,2-2,2c-1.1,0-2-0.9-2-2c0-1.1,0.9-2,2-2C9.1,12,10,12.9,10,14"/>
<path fill="#37474F" d="M13,8h-2V5c0-0.5-0.2-3-3-3S5,4.5,5,5v3H3V5c0-1.7,1-5,5-5s5,3.3,5,5V8z"/>
</svg>
