<?xml version="1.0" encoding="iso-8859-1"?>
<!-- Generator: Adobe Illustrator 22.1.0, SVG Export Plug-In . SVG Version: 6.00 Build 0)  -->
<svg version="1.1" id="IOS_copy" xmlns="http://www.w3.org/2000/svg" xmlns:xlink="http://www.w3.org/1999/xlink" x="0px" y="0px"
	 viewBox="0 0 18 22" style="enable-background:new 0 0 18 22;" xml:space="preserve">
<path style="fill:#FF5252;" d="M9,1.3v19.5c-7.1-4-7.9-13-8-15.9C4.4,4.6,7.6,2.4,9,1.3z"/>
<path style="fill:#D32F2F;" d="M17,4.9c-0.1,2.9-1,11.9-8,15.9V1.3C10.3,2.4,13.3,4.6,17,4.9z"/>
<path style="fill:#9FA8DA;" d="M18,4c-5.1,0-9-4-9-4v2.64c1.45,1.11,3.92,2.67,6.95,3.18C15.71,9.09,14.54,16.12,9,19.68V22
	C18.5,17,18,4,18,4z"/>
<path style="fill:#C5CAE9;" d="M0.005,4C5.102,4,9,0,9,0v2.64C7.551,3.75,5.082,5.31,2.054,5.82C2.293,9.09,3.463,16.12,9,19.68V22
	C-0.495,17,0.005,4,0.005,4z"/>
</svg>
