<?xml version="1.0" encoding="iso-8859-1"?>
<!-- Generator: Adobe Illustrator 22.1.0, SVG Export Plug-In . SVG Version: 6.00 Build 0)  -->
<svg version="1.1" id="IOS_copy" xmlns="http://www.w3.org/2000/svg" xmlns:xlink="http://www.w3.org/1999/xlink" x="0px" y="0px"
	 viewBox="0 0 22 22" style="enable-background:new 0 0 22 22;" xml:space="preserve">
<path style="fill:#616161;" d="M21.995,20.218l-6.669-6.669C16.373,12.136,17,10.393,17,8.5C17,3.806,13.194,0,8.5,0S0,3.806,0,8.5
	S3.806,17,8.5,17c1.893,0,3.636-0.627,5.049-1.674l6.669,6.669L21.995,20.218z"/>
<path style="fill:#BBDEFB;" d="M15,8.5c0,3.6-2.9,6.5-6.5,6.5S2,12.1,2,8.5S4.9,2,8.5,2S15,4.9,15,8.5"/>
<path style="fill:#E3F2FD;" d="M11,7.5c-0.4,0-0.8-0.1-1.1-0.4c-0.8-0.8-2-0.8-2.8,0C6.5,7.7,5.5,7.7,5,7.1C4.4,6.5,4.4,5.5,5,5
	c1.9-2,5.1-2,7,0c0.6,0.6,0.6,1.5,0,2.1C11.7,7.4,11.4,7.5,11,7.5z"/>
<rect x="16.149" y="17.797" transform="matrix(0.7071 0.7071 -0.7071 0.7071 19.0534 -7.8922)" style="fill:#37474F;" width="5.808" height="2.513"/>
</svg>
