<?xml version="1.0" encoding="utf-8"?>
<!-- Generator: Adobe Illustrator 19.1.1, SVG Export Plug-In . SVG Version: 6.00 Build 0)  -->
<svg version="1.1" id="IOS_copy" xmlns="http://www.w3.org/2000/svg" xmlns:xlink="http://www.w3.org/1999/xlink" x="0px" y="0px"
	 viewBox="0 0 20 20" enable-background="new 0 0 20 20" xml:space="preserve">
<path fill="#607D8B" d="M19.1,14.9c-0.1-0.1-5.1-3.9-6.2-5.3C12.4,9,13,7.5,13,5.7c0-1.1-0.1-2.3-1.2-3.3c-1.9-1.9-5-2.8-7.5-2.1
	L9,5c0,0,0,1.3-1.3,2.7C6.3,9,5,9,5,9L0.2,4.3c-0.6,2.6,0.2,5.6,2.1,7.5C3.4,12.9,4.6,13,5.7,13c1.8,0,3.3-0.7,3.8-0.3
	c1.6,1.3,5.3,6.2,5.4,6.3c1.2,1.2,3.1,1.2,4.3,0.1C20.3,18,20.3,16.1,19.1,14.9z M17,18c-0.6,0-1-0.4-1-1s0.4-1,1-1c0.6,0,1,0.4,1,1
	S17.6,18,17,18z"/>
</svg>
