<?xml version="1.0" encoding="utf-8"?>
<!-- Generator: Adobe Illustrator 19.1.1, SVG Export Plug-In . SVG Version: 6.00 Build 0)  -->
<svg version="1.1" id="IOS_copy" xmlns="http://www.w3.org/2000/svg" xmlns:xlink="http://www.w3.org/1999/xlink" x="0px" y="0px"
	 viewBox="0 0 22 22" enable-background="new 0 0 22 22" xml:space="preserve">
<path fill="#607D8B" d="M19.2,12.1c0.1-0.4,0.1-0.8,0.1-1.1s0-0.8-0.1-1.1l2.3-1.7c0.2-0.2,0.3-0.5,0.2-0.7l-2.3-3.9
	c-0.1-0.2-0.4-0.3-0.7-0.2l-2.6,1.2c-0.6-0.5-1.3-0.9-2-1.2l-0.3-2.9c0-0.3-0.3-0.5-0.5-0.5H8.7C8.5,0,8.2,0.2,8.2,0.5L7.9,3.4
	C7.2,3.6,6.5,4,5.9,4.5L3.3,3.3C3,3.2,2.7,3.3,2.6,3.5L0.3,7.5C0.2,7.7,0.3,8,0.5,8.2l2.3,1.7c-0.1,0.4-0.1,0.8-0.1,1.1
	s0,0.8,0.1,1.1l-2.3,1.7c-0.2,0.2-0.3,0.5-0.2,0.7l2.3,3.9c0.1,0.2,0.4,0.3,0.7,0.2l2.6-1.2c0.6,0.5,1.3,0.9,2,1.2l0.3,2.9
	c0,0.3,0.3,0.5,0.5,0.5h4.5c0.3,0,0.5-0.2,0.5-0.5l0.3-2.9c0.7-0.3,1.4-0.7,2-1.2l2.6,1.2c0.3,0.1,0.6,0,0.7-0.2l2.3-3.9
	c0.1-0.2,0.1-0.6-0.2-0.7L19.2,12.1z M11,16.2c-2.9,0-5.2-2.3-5.2-5.2c0-2.9,2.3-5.2,5.2-5.2c2.9,0,5.2,2.3,5.2,5.2
	C16.2,13.9,13.9,16.2,11,16.2"/>
<path fill="#455A64" d="M11,5c-3.3,0-6,2.7-6,6c0,3.3,2.7,6,6,6c3.3,0,6-2.7,6-6C17,7.7,14.3,5,11,5 M11,14c-1.7,0-3-1.3-3-3
	s1.3-3,3-3c1.7,0,3,1.3,3,3S12.7,14,11,14"/>
</svg>
