<?xml version="1.0" encoding="utf-8"?>
<!-- Generator: Adobe Illustrator 19.1.1, SVG Export Plug-In . SVG Version: 6.00 Build 0)  -->
<svg version="1.1" id="IOS_copy" xmlns="http://www.w3.org/2000/svg" xmlns:xlink="http://www.w3.org/1999/xlink" x="0px" y="0px"
	 viewBox="0 0 24 15" enable-background="new 0 0 24 15" xml:space="preserve">
<path fill="#BBDEFB" d="M20.5,7.1C20.8,6.4,21,5.7,21,5c0-2.8-2.2-5-5-5c-2,0-3.7,1.2-4.5,2.9C10.8,2.3,9.9,2,9,2C6.8,2,5,3.8,5,6
	c0,0.4,0.1,0.8,0.2,1.2C4.8,7.1,4.4,7,4,7c-2.2,0-4,1.8-4,4c0,2.2,1.8,4,4,4c0,0,0,0,0,0h16c2.2,0,4-1.8,4-4C24,9,22.5,7.3,20.5,7.1
	z"/>
</svg>
