<?xml version="1.0" encoding="utf-8"?>
<!-- Generator: Adobe Illustrator 19.1.1, SVG Export Plug-In . SVG Version: 6.00 Build 0)  -->
<svg version="1.1" id="IOS_copy" xmlns="http://www.w3.org/2000/svg" xmlns:xlink="http://www.w3.org/1999/xlink" x="0px" y="0px"
	 viewBox="0 0 20 20" enable-background="new 0 0 20 20" xml:space="preserve">
<path fill="#FFC107" d="M20,10c0,5.5-4.5,10-10,10C4.5,20,0,15.5,0,10C0,4.5,4.5,0,10,0C15.5,0,20,4.5,20,10"/>
<path fill="#FFE082" d="M10,3c-3.9,0-7,3.1-7,7s3.1,7,7,7s7-3.1,7-7S13.9,3,10,3z M10.3,14.1v1.1H9.4v-1.1c-0.3,0-2.3-0.2-2.3-2.5
	h1.6c0,0.3,0,1.3,1.2,1.3c1,0,1-0.8,1-0.9c0-1.7-3.5-1-3.5-3.7c0-1.6,1.5-2.1,2.1-2.2V4.9h0.9v1.2c0.5,0.1,2,0.5,2,2.5h-1.5
	c0-0.4-0.1-1.3-1-1.3C9,7.3,9,8.1,9,8.2c0,1.6,3.5,1,3.5,3.7C12.4,13.8,10.6,14,10.3,14.1z"/>
</svg>
