<?xml version="1.0" encoding="utf-8"?>
<!-- Generator: Adobe Illustrator 19.1.1, SVG Export Plug-In . SVG Version: 6.00 Build 0)  -->
<svg version="1.1" id="IOS_copy" xmlns="http://www.w3.org/2000/svg" xmlns:xlink="http://www.w3.org/1999/xlink" x="0px" y="0px"
	 viewBox="0 0 20 20" enable-background="new 0 0 20 20" xml:space="preserve">
<path fill="#4CAF50" d="M20,10c0,5.5-4.5,10-10,10C4.5,20,0,15.5,0,10C0,4.5,4.5,0,10,0C15.5,0,20,4.5,20,10"/>
<path fill="#E8F5E9" d="M13.4,12.5c0,2.5-2.4,2.8-2.8,2.8v1.4H9.6v-1.4c-0.4,0-3-0.3-3-3.3h2c0,0.3,0,1.7,1.5,1.7
	c1.3,0,1.3-1,1.3-1.2c0-2.2-4.5-1.3-4.5-4.8c0-2.1,1.9-2.8,2.8-2.8V3.4h1.1v1.5c0.7,0.1,2.6,0.6,2.6,3.2h-2c0-0.6-0.1-1.7-1.3-1.7
	C9,6.5,9,7.5,9,7.7C9,9.8,13.4,9,13.4,12.5"/>
</svg>
