<?xml version="1.0" encoding="utf-8"?>
<!-- Generator: Adobe Illustrator 19.1.1, SVG Export Plug-In . SVG Version: 6.00 Build 0)  -->
<svg version="1.1" id="IOS_copy" xmlns="http://www.w3.org/2000/svg" xmlns:xlink="http://www.w3.org/1999/xlink" x="0px" y="0px"
	 viewBox="0 0 18 22" enable-background="new 0 0 18 22" xml:space="preserve">
<path fill="#DB8509" d="M10,4c0,0.6-0.4,1-1,1l0,0C8.4,5,8,4.5,8,4V1c0-0.6,0.4-1,1-1l0,0c0.6,0,1,0.4,1,1V4z M9,22c1.1,0,2-0.9,2-2
	c0-1.1-0.9-2-2-2c-1.1,0-2,0.9-2,2C7,21.1,7.9,22,9,22z"/>
<path fill="#FFC107" d="M15,11.7V8c0-3.3-2.7-6-6-6C5.7,2,3,4.7,3,8v3.7L0,17c0,1,4,2,9,2s9-1,9-2L15,11.7z"/>
<path fill="#FFD54F" d="M5,6v5.7v0.5l-0.3,0.5l-2.8,5.5c0.5,0.1,1.1,0.3,1.8,0.4l3-5.9L7,12.3v-0.5V6c0-1.9,1.3-3.4,3-3.9
	C9.7,2.1,9.3,2,9,2C6.8,2,5,3.8,5,6z"/>
</svg>
