<?xml version="1.0" encoding="utf-8"?>
<!-- Generator: Adobe Illustrator 19.1.1, SVG Export Plug-In . SVG Version: 6.00 Build 0)  -->
<svg version="1.1" id="IOS_copy" xmlns="http://www.w3.org/2000/svg" xmlns:xlink="http://www.w3.org/1999/xlink" x="0px" y="0px"
	 viewBox="0 0 20 20" enable-background="new 0 0 20 20" xml:space="preserve">
<path fill="#CFD8DC" d="M0,18V6h20v12c0,1.1-0.9,2-2,2H2C0.9,20,0,19.1,0,18"/>
<path fill="#F44336" d="M20,4v3H0V4c0-1.1,0.9-2,2-2h16C19.1,2,20,2.8,20,4"/>
<path fill="#B71C1C" d="M7,4c0,1.1-0.9,2-2,2C3.9,6,3,5.1,3,4c0-1.1,0.9-2,2-2C6.1,2,7,2.9,7,4 M17,4c0-1.1-0.9-2-2-2
	c-1.1,0-2,0.9-2,2c0,1.1,0.9,2,2,2C16.1,6,17,5.1,17,4"/>
<path fill="#B0BEC5" d="M6,4c0,0.6-0.4,1-1,1l0,0C4.4,5,4,4.6,4,4V1c0-0.6,0.4-1,1-1l0,0c0.6,0,1,0.4,1,1V4z M16,1c0-0.6-0.4-1-1-1
	l0,0c-0.6,0-1,0.4-1,1v3c0,0.6,0.4,1,1,1l0,0c0.6,0,1-0.4,1-1V1z"/>
<path fill="#90A4AE" d="M5,11H3V9h2V11z M8,9H6v2h2V9z M11,9H9v2h2V9z M14,9h-2v2h2V9z M17,9h-2v2h2V9z M5,12H3v2h2V12z M8,12H6v2h2
	V12z M11,12H9v2h2V12z M14,12h-2v2h2V12z M17,12h-2v2h2V12z M5,15H3v2h2V15z M8,15H6v2h2V15z M11,15H9v2h2V15z M14,15h-2v2h2V15z
	 M17,15h-2v2h2V15z"/>
</svg>
