<?xml version="1.0" encoding="utf-8"?>
<!-- Generator: Adobe Illustrator 19.1.1, SVG Export Plug-In . SVG Version: 6.00 Build 0)  -->
<svg version="1.1" id="IOS_copy" xmlns="http://www.w3.org/2000/svg" xmlns:xlink="http://www.w3.org/1999/xlink" x="0px" y="0px"
	 viewBox="0 0 20 20" enable-background="new 0 0 20 20" xml:space="preserve">
<path fill="#00ACC1" d="M20,10c0,5.5-4.5,10-10,10C4.5,20,0,15.5,0,10C0,4.5,4.5,0,10,0C15.5,0,20,4.5,20,10"/>
<path fill="#EEEEEE" d="M17,10c0,3.9-3.1,7-7,7c-3.9,0-7-3.1-7-7c0-3.9,3.1-7,7-7C13.9,3,17,6.1,17,10"/>
<path d="M14.4,13.1l-2.9-2.9c0-0.1,0-0.1,0-0.2c0-0.4-0.2-0.8-0.5-1.1V5H9v3.9C8.7,9.2,8.5,9.6,8.5,10c0,0.8,0.7,1.5,1.5,1.5
	c0,0,0.1,0,0.1,0l2.9,2.9L14.4,13.1z"/>
</svg>
