<?xml version="1.0" encoding="utf-8"?>
<!-- Generator: Adobe Illustrator 19.1.1, SVG Export Plug-In . SVG Version: 6.00 Build 0)  -->
<svg version="1.1" id="IOS_copy" xmlns="http://www.w3.org/2000/svg" xmlns:xlink="http://www.w3.org/1999/xlink" x="0px" y="0px"
	 viewBox="0 0 24 15" enable-background="new 0 0 24 15" xml:space="preserve">
<g>
	<path fill="#FFFFFF" d="M12,3C6.5,3,0,8,0,8s6.5,5,12,5c5.5,0,12-5,12-5S17.5,3,12,3z"/>
</g>
<path fill="#009688" d="M12,3c-1.3,0-2.5,0.2-3.6,0.5C7.5,4.4,7,5.7,7,7c0,2.8,2.2,5,5,5c2.8,0,5-2.2,5-5c0-1.3-0.5-2.6-1.4-3.5
	C14.5,3.2,13.3,3,12,3z"/>
<circle fill="#263238" cx="12" cy="7" r="2"/>
<path fill="#FFFFFF" d="M12,5c0-0.6,0.4-1,1-1c0.6,0,1,0.4,1,1s-0.4,1-1,1C12.4,6,12,5.6,12,5"/>
<path fill="#FFA726" d="M0,8c0,0,5-8,12-8s12,8,12,8s-7-5-12-5S0,8,0,8z M12,15c7,0,12-7,12-7s-7,5-12,5S0,8,0,8S5,15,12,15z"/>
</svg>
