<?xml version="1.0" encoding="iso-8859-1"?>
<!-- Generator: Adobe Illustrator 22.1.0, SVG Export Plug-In . SVG Version: 6.00 Build 0)  -->
<svg version="1.1" id="IOS_copy" xmlns="http://www.w3.org/2000/svg" xmlns:xlink="http://www.w3.org/1999/xlink" x="0px" y="0px"
	 viewBox="0 0 22 16" style="enable-background:new 0 0 22 16;" xml:space="preserve">
<path style="fill:#5D4037;" d="M21,10.99c-1.56,0-2.65-1.34-3.07-1.95c0.61-0.35,1.17-0.72,1.65-1.06
	C19.69,9.72,20.33,10.43,21,10.99z"/>
<path style="fill:#5D4037;" d="M20.07,12.98c-0.47,0.07-0.96-0.04-1.39-0.25c-0.42-0.21-0.81-0.5-1.15-0.83
	c-0.6-0.56-1.23-1.46-1.54-1.92c0.62-0.25,1.2-0.53,1.74-0.82C18.095,11.83,19.61,12.96,20.07,12.98z"/>
<path style="fill:#5D4037;" d="M17,15.01c-0.63-0.4-1.14-0.97-1.55-1.59c-0.55-0.87-0.96-1.86-1.24-2.85
	c0.58-0.14,1.14-0.33,1.66-0.53C15.78,11.89,16.27,13.78,17,15.01z"/>
<path style="fill:#5D4037;" d="M14,15.78c-0.53-0.84-0.82-1.99-1.15-2.93c-0.05-0.15-0.33-1.12-0.55-1.92
	c0.57-0.06,1.12-0.16,1.65-0.29c-0.05,0.7-0.07,1.41-0.07,2.11C13.89,13.74,13.93,14.93,14,15.78z"/>
<path style="fill:#5D4037;" d="M11.84,10.97L10.99,16l-0.83-5.03C10.44,10.99,10.72,11,11,11S11.56,10.99,11.84,10.97z"/>
<path style="fill:#5D4037;" d="M2.399,7.98c0.48,0.34,1.04,0.71,1.65,1.06c-0.42,0.61-1.51,1.95-3.07,1.95
	C1.649,10.43,2.289,9.72,2.399,7.98z"/>
<path style="fill:#5D4037;" d="M4.249,9.16c0.54,0.29,1.12,0.57,1.74,0.82c-0.31,0.46-0.94,1.36-1.54,1.92
	c-0.34,0.33-0.73,0.62-1.15,0.83c-0.43,0.21-0.92,0.32-1.39,0.25C2.369,12.96,3.884,11.83,4.249,9.16z"/>
<path style="fill:#5D4037;" d="M6.109,10.04c0.52,0.2,1.08,0.39,1.66,0.53c-0.28,0.99-0.69,1.98-1.24,2.85
	c-0.41,0.62-0.92,1.19-1.55,1.59C5.709,13.78,6.199,11.89,6.109,10.04z"/>
<path style="fill:#5D4037;" d="M8.099,12.75c0-0.7-0.02-1.41-0.07-2.11c0.53,0.13,1.08,0.23,1.65,0.29c-0.22,0.8-0.5,1.77-0.55,1.92
	c-0.33,0.94-0.62,2.09-1.15,2.93C8.049,14.93,8.089,13.74,8.099,12.75z"/>
<path style="fill:#FFB74D;" d="M11,0C4.58,0,0,5.87,0,5.87s0,0.01,0.01,0.01C0.29,6.19,4.78,11,11,11s10.71-4.81,10.99-5.12
	C22,5.88,22,5.87,22,5.87S17.42,0,11,0z"/>
<path style="fill:#FFA726;" d="M22,5.87c0,0,0,0.01-0.01,0.01C21.71,6.19,17.22,11,11,11c-0.84,0-1.65-0.09-2.42-0.24
	C12.32,10.15,15,8.48,15,6.5C15,4.01,10.75,2,5.5,2C5.13,2,4.77,2.01,4.42,2.03C6.21,0.92,8.46,0,11,0C17.42,0,22,5.87,22,5.87z"/>
</svg>
