<?xml version="1.0" encoding="utf-8"?>
<!-- Generator: Adobe Illustrator 19.1.1, SVG Export Plug-In . SVG Version: 6.00 Build 0)  -->
<svg version="1.1" id="IOS_copy" xmlns="http://www.w3.org/2000/svg" xmlns:xlink="http://www.w3.org/1999/xlink" x="0px" y="0px"
	 viewBox="0 0 20 20" enable-background="new 0 0 20 20" xml:space="preserve">
<path fill="#AB47BC" d="M20,10c0,5.5-4.5,10-10,10C4.5,20,0,15.5,0,10C0,4.5,4.5,0,10,0C15.5,0,20,4.5,20,10"/>
<g>
	<path fill="#F3E5F5" d="M9.9,13c-0.4,0-0.8,0.1-1.1,0.4c-0.3,0.3-0.4,0.6-0.4,1.1c0,0.4,0.1,0.8,0.4,1.1C9.1,15.9,9.5,16,9.9,16
		c0.4,0,0.8-0.1,1.1-0.4c0.3-0.3,0.4-0.6,0.4-1.1c0-0.4-0.1-0.8-0.4-1.1C10.7,13.1,10.3,13,9.9,13z"/>
	<path fill="#F3E5F5" d="M13,4.8C12.3,4.3,11.3,4,10,4c-1.3,0-2.3,0.3-3,0.9C6.4,5.5,6,6.3,6,7.4V8h2.9l0-0.6c0-0.4,0.1-0.7,0.3-1
		C9.4,6.2,9.7,6.1,10,6.1c0.7,0,1.1,0.4,1.1,1.2c0,0.3-0.1,0.6-0.3,0.9c-0.2,0.3-0.5,0.6-1,0.9c-0.4,0.3-0.7,0.7-0.9,1.2
		c-0.2,0.5-0.3,0.9-0.3,1.7h2.4c0-0.4,0.1-0.6,0.2-0.8c0.1-0.3,0.3-0.5,0.6-0.8l1-0.9c0.4-0.4,0.7-0.8,0.9-1.1C13.9,8,14,7.6,14,7.2
		C14,6.2,13.7,5.4,13,4.8z"/>
</g>
</svg>
