<?xml version="1.0" encoding="utf-8"?>
<!-- Generator: Adobe Illustrator 19.1.1, SVG Export Plug-In . SVG Version: 6.00 Build 0)  -->
<svg version="1.1" id="IOS_copy" xmlns="http://www.w3.org/2000/svg" xmlns:xlink="http://www.w3.org/1999/xlink" x="0px" y="0px"
	 viewBox="0 0 14 22" enable-background="new 0 0 14 22" xml:space="preserve">
<path fill="#BBDEFB" d="M8.1,11C9.5,9.6,12,6.9,12,5c0-2.7-2.2-4-5-4C4.2,1,2,2.3,2,5c0,1.9,2.5,4.6,3.9,6C4.5,12.4,2,15.1,2,17
	c0,2.7,2.2,4,5,4c2.8,0,5-1.3,5-4C12,15.1,9.5,12.4,8.1,11z"/>
<path fill="#6D4C41" d="M12,4H2V2h10V4z M12,18H2v2h10V18z"/>
<path fill="#8D6E63" d="M14,2H0V0h14V2z M14,20H0v2h14V20z"/>
<path fill="#FF9800" d="M4,18c1-2,3-4,3-4s2,2,3,4H4z M4.4,6C4.9,6.9,5.9,8.1,7,9.3C8.2,8.1,9.1,6.9,9.6,6H4.4z"/>
</svg>
