<?xml version="1.0" encoding="utf-8"?>
<!-- Generator: Adobe Illustrator 15.0.0, SVG Export Plug-In . SVG Version: 6.00 Build 0)  -->
<!DOCTYPE svg PUBLIC "-//W3C//DTD SVG 1.1//EN" "http://www.w3.org/Graphics/SVG/1.1/DTD/svg11.dtd">
<svg version="1.1" id="Слой_1" xmlns="http://www.w3.org/2000/svg" xmlns:xlink="http://www.w3.org/1999/xlink" x="0px" y="0px"
	 width="22px" height="22px" viewBox="0 0 22 22" enable-background="new 0 0 22 22" xml:space="preserve">
<polygon fill="#B0BEC5" points="1,19.3 0,22 2.7,21 9.9,13.8 8.2,12.1 "/>
<polygon fill="#D84315" points="13,13.4 8.7,9 17.1,1.8 20.2,4.9 "/>
<g>
	<path fill="#FF5722" d="M22,4.9l-0.8,0.8c-0.4,0.4-1.2,0.4-1.602,0L16.4,2.5c-0.4-0.4-0.4-1.2,0-1.6L17.1,0L22,4.9z M12.2,18
		l0.898-0.9c1.2-1.198,1.2-3.198,0-4.398L9.3,8.9c-1.2-1.2-3.2-1.2-4.4,0L4,9.8L12.2,18z"/>
</g>
</svg>
