<?xml version="1.0" encoding="iso-8859-1"?>
<!-- Generator: Adobe Illustrator 22.1.0, SVG Export Plug-In . SVG Version: 6.00 Build 0)  -->
<svg version="1.1" id="IOS_copy" xmlns="http://www.w3.org/2000/svg" xmlns:xlink="http://www.w3.org/1999/xlink" x="0px" y="0px"
	 viewBox="0 0 22 20" style="enable-background:new 0 0 22 20;" xml:space="preserve">
<path style="fill:#3F51B5;" d="M6.2,5.8C6.7,5.1,7,4.4,7,3.5C7,1.6,5.4,0,3.5,0S0,1.6,0,3.5S1.6,7,3.5,7c3,0,4.5,4,4.5,4s3.8,3,7,5
	c1.5,1,3.3,2,4.5,2c1.9,0,2.5-1,2.5-1L6.2,5.8z M2,3.5C2,2.7,2.7,2,3.5,2S5,2.7,5,3.5S4.3,5,3.5,5S2,4.3,2,3.5z"/>
<path style="fill:#283593;" d="M12.24,10.08l-2.79,2.03c0.49,0.37,1.07,0.8,1.7,1.26l2.8-2.08L12.24,10.08z"/>
<path style="fill:#03A9F4;" d="M22,3c0,0-0.5-1-2.5-1l0,0c-1.5,0-2.8,1-4.3,2C12,6.1,8,9,8,9s-1.5,4-4.5,4C1.6,13,0,14.6,0,16.5
	S1.6,20,3.5,20S7,18.4,7,16.5c0-0.8-0.3-1.5-0.7-2.1L22,3z M3.5,18C2.7,18,2,17.3,2,16.5S2.7,15,3.5,15S5,15.7,5,16.5
	C5,17.3,4.3,18,3.5,18z"/>
</svg>
