<?xml version="1.0" encoding="utf-8"?>
<!-- Generator: Adobe Illustrator 19.1.1, SVG Export Plug-In . SVG Version: 6.00 Build 0)  -->
<svg version="1.1" id="IOS_copy" xmlns="http://www.w3.org/2000/svg" xmlns:xlink="http://www.w3.org/1999/xlink" x="0px" y="0px"
	 viewBox="0 0 23 18" enable-background="new 0 0 23 18" xml:space="preserve">
<path fill="#2196F3" d="M11.5,15c0.8,0,1.5,0.7,1.5,1.5S12.3,18,11.5,18c-0.8,0-1.5-0.7-1.5-1.5S10.7,15,11.5,15z M16.1,11.9
	c-2.5-2.5-6.6-2.5-9.1,0L9.1,14c1.3-1.3,3.5-1.3,4.9,0L16.1,11.9z M19.6,8.4c-4.4-4.4-11.7-4.4-16.1,0l2.1,2.1
	c3.3-3.3,8.6-3.3,11.9,0L19.6,8.4z M23,4.8c-6.3-6.5-16.7-6.5-23,0L2.1,7c5.2-5.3,13.6-5.3,18.8,0L23,4.8z"/>
</svg>
