<?xml version="1.0" encoding="iso-8859-1"?>
<!-- Generator: Adobe Illustrator 19.1.1, SVG Export Plug-In . SVG Version: 6.00 Build 0)  -->
<svg version="1.1" id="Layer_1" xmlns="http://www.w3.org/2000/svg" xmlns:xlink="http://www.w3.org/1999/xlink" x="0px" y="0px"
	 viewBox="0 0 22 20" enable-background="new 0 0 22 20" xml:space="preserve">
<rect x="3" y="4" fill="#424242" width="16" height="2"/>
<path fill="#616161" d="M0,11h22V8c0-1.105-0.895-2-2-2H2C0.895,6,0,6.895,0,8V11z"/>
<path fill="#616161" d="M2,18h18c1.105,0,2-0.895,2-2v-5H0v5C0,17.105,0.895,18,2,18z"/>
<path fill="#00E676" d="M18,8c0,0.551,0.448,1,1,1s1-0.449,1-1s-0.448-1-1-1S18,7.449,18,8"/>
<rect x="5" fill="#90CAF9" width="12" height="6"/>
<path fill="#242424" d="M18,14H4c-0.552,0-1-0.448-1-1s0.448-1,1-1h14c0.552,0,1,0.448,1,1S18.552,14,18,14"/>
<rect x="5" y="14" fill="#90CAF9" width="12" height="6"/>
<rect x="5" y="14" fill="#42A5F5" width="12" height="2"/>
</svg>
