<?xml version="1.0" encoding="iso-8859-1"?>
<!-- Generator: Adobe Illustrator 22.1.0, SVG Export Plug-In . SVG Version: 6.00 Build 0)  -->
<svg version="1.1" id="IOS_copy" xmlns="http://www.w3.org/2000/svg" xmlns:xlink="http://www.w3.org/1999/xlink" x="0px" y="0px"
	 viewBox="0 0 22 20" style="enable-background:new 0 0 22 20;" xml:space="preserve">
<path style="fill:#FFC107;" d="M20.756,20H1.244c-0.398,0-0.796-0.2-1.095-0.6c-0.199-0.4-0.199-0.9,0-1.3L9.905,0.6
	C10.204,0.2,10.602,0,11,0s0.796,0.2,1.095,0.6l9.756,17.5c0.199,0.4,0.199,0.9,0,1.3C21.552,19.8,21.154,20,20.756,20z"/>
<path style="fill:#5D4037;" d="M10,15h2V7h-2V15z M12,17c0-0.552-0.448-1-1-1s-1,0.448-1,1s0.448,1,1,1S12,17.552,12,17z"/>
</svg>
