<?xml version="1.0" encoding="utf-8"?>
<!-- Generator: Adobe Illustrator 19.1.1, SVG Export Plug-In . SVG Version: 6.00 Build 0)  -->
<svg version="1.1" id="IOS_copy" xmlns="http://www.w3.org/2000/svg" xmlns:xlink="http://www.w3.org/1999/xlink" x="0px" y="0px"
	 viewBox="0 0 20 20" enable-background="new 0 0 20 20" xml:space="preserve">
<path fill="#2196F3" d="M20,10.2c0,5.5-4.5,10-10,10c-5.5,0-10-4.5-10-10c0-5.5,4.5-10,10-10C15.5,0.2,20,4.6,20,10.2"/>
<g>
	<path fill="#FFFFFF" d="M13.5,11.1c0,1.3-0.3,2.3-0.9,3c-0.6,0.7-1.5,1.1-2.6,1.1c-1.1,0-2-0.4-2.6-1.1c-0.6-0.7-0.9-1.7-0.9-3V9.3
		c0-1.3,0.3-2.3,0.9-3C8,5.5,8.9,5.2,10,5.2c1.1,0,2,0.4,2.6,1.1c0.6,0.7,0.9,1.7,0.9,3V11.1z M11.2,9c0-0.7-0.1-1.2-0.3-1.6
		c-0.2-0.3-0.5-0.5-0.9-0.5c-0.4,0-0.7,0.2-0.9,0.5C8.9,7.7,8.8,8.2,8.8,8.8v2.5c0,0.7,0.1,1.3,0.3,1.6c0.2,0.3,0.5,0.5,0.9,0.5
		c0.4,0,0.7-0.2,0.9-0.5c0.2-0.3,0.3-0.8,0.3-1.5V9z"/>
</g>
</svg>
