<?xml version="1.0" encoding="utf-8"?>
<!-- Generator: Adobe Illustrator 19.1.1, SVG Export Plug-In . SVG Version: 6.00 Build 0)  -->
<svg version="1.1" id="IOS_copy" xmlns="http://www.w3.org/2000/svg" xmlns:xlink="http://www.w3.org/1999/xlink" x="0px" y="0px"
	 viewBox="0 0 20 20" enable-background="new 0 0 20 20" xml:space="preserve">
<path fill="#2196F3" d="M20,10c0,5.5-4.5,10-10,10C4.5,20,0,15.5,0,10C0,4.5,4.5,0,10,0C15.5,0,20,4.5,20,10"/>
<g>
	<path fill="#FFFFFF" d="M13.5,15H6.7v-1.5l3.1-3.3C10.6,9.3,11,8.6,11,8.1c0-0.4-0.1-0.7-0.3-1c-0.2-0.2-0.4-0.3-0.8-0.3
		c-0.3,0-0.6,0.1-0.8,0.4C8.9,7.5,8.8,7.9,8.8,8.3H6.5c0-0.6,0.1-1.2,0.4-1.7c0.3-0.5,0.7-0.9,1.2-1.2C8.7,5.1,9.3,5,10,5
		c1.1,0,1.9,0.2,2.4,0.7c0.6,0.5,0.9,1.2,0.9,2.1c0,0.4-0.1,0.8-0.2,1.1c-0.1,0.4-0.4,0.8-0.7,1.2c-0.3,0.4-0.8,0.9-1.5,1.6
		l-1.3,1.5h3.8V15z"/>
</g>
</svg>
