<?xml version="1.0" encoding="iso-8859-1"?>
<!-- Generator: Adobe Illustrator 22.1.0, SVG Export Plug-In . SVG Version: 6.00 Build 0)  -->
<svg version="1.1" id="IOS_copy" xmlns="http://www.w3.org/2000/svg" xmlns:xlink="http://www.w3.org/1999/xlink" x="0px" y="0px"
	 viewBox="0 0 20 20" style="enable-background:new 0 0 20 20;" xml:space="preserve">
<path style="fill:#2196F3;" d="M20,10c0,5.5-4.5,10-10,10S0,15.5,0,10S4.5,0,10,0S20,4.5,20,10"/>
<g>
	<path style="fill:#FFFFFF;" d="M8.776,9.04h1.087c0.861,0,1.292-0.422,1.292-1.265c0-0.328-0.103-0.596-0.308-0.803
		s-0.494-0.311-0.868-0.311c-0.306,0-0.571,0.089-0.796,0.267C8.957,7.105,8.845,7.326,8.845,7.59H6.541
		c0-0.524,0.146-0.991,0.438-1.401s0.696-0.73,1.213-0.96c0.518-0.23,1.086-0.345,1.706-0.345c1.107,0,1.978,0.253,2.611,0.759
		s0.95,1.201,0.95,2.085c0,0.429-0.131,0.833-0.393,1.214c-0.263,0.38-0.645,0.688-1.146,0.926c0.528,0.191,0.943,0.482,1.244,0.871
		c0.301,0.391,0.451,0.872,0.451,1.446c0,0.889-0.342,1.6-1.025,2.133s-1.581,0.8-2.693,0.8c-0.651,0-1.257-0.124-1.815-0.373
		c-0.558-0.248-0.98-0.592-1.268-1.031c-0.287-0.44-0.431-0.94-0.431-1.501h2.317c0,0.306,0.123,0.569,0.369,0.793
		s0.549,0.335,0.909,0.335c0.405,0,0.729-0.113,0.971-0.338c0.241-0.227,0.362-0.515,0.362-0.865c0-0.501-0.125-0.856-0.376-1.066
		s-0.597-0.314-1.039-0.314H8.776V9.04z"/>
</g>
</svg>
