<?xml version="1.0" encoding="utf-8"?>
<!-- Generator: Adobe Illustrator 19.1.1, SVG Export Plug-In . SVG Version: 6.00 Build 0)  -->
<svg version="1.1" id="IOS_copy" xmlns="http://www.w3.org/2000/svg" xmlns:xlink="http://www.w3.org/1999/xlink" x="0px" y="0px"
	 viewBox="0 0 20 20" enable-background="new 0 0 20 20" xml:space="preserve">
<path fill="#2196F3" d="M20,10c0,5.5-4.5,10-10,10C4.5,20,0,15.5,0,10C0,4.5,4.5,0,10,0C15.5,0,20,4.5,20,10"/>
<g>
	<path fill="#FFFFFF" d="M6.7,10l0.6-5h5.9v1.8h-4L9,8.7c0.2-0.1,0.4-0.2,0.7-0.3c0.3-0.1,0.5-0.1,0.8-0.1c1,0,1.8,0.3,2.3,0.9
		c0.5,0.6,0.8,1.4,0.8,2.4c0,0.6-0.1,1.2-0.4,1.7c-0.3,0.5-0.7,0.9-1.2,1.2C11.3,14.9,10.7,15,10,15c-0.6,0-1.2-0.1-1.8-0.4
		c-0.6-0.3-1-0.6-1.3-1c-0.3-0.4-0.5-0.9-0.5-1.5h2.3c0,0.4,0.1,0.6,0.4,0.9c0.2,0.2,0.5,0.3,0.8,0.3c0.8,0,1.2-0.6,1.2-1.7
		c0-1-0.5-1.6-1.4-1.6c-0.5,0-0.9,0.2-1.2,0.5L6.7,10z"/>
</g>
</svg>
