<?xml version="1.0" encoding="iso-8859-1"?>
<!-- Generator: Adobe Illustrator 22.1.0, SVG Export Plug-In . SVG Version: 6.00 Build 0)  -->
<svg version="1.1" id="IOS_copy" xmlns="http://www.w3.org/2000/svg" xmlns:xlink="http://www.w3.org/1999/xlink" x="0px" y="0px"
	 viewBox="0 0 20 20" style="enable-background:new 0 0 20 20;" xml:space="preserve">
<path style="fill:#2196F3;" d="M20,10c0,5.5-4.5,10-10,10S0,15.5,0,10S4.5,0,10,0S20,4.5,20,10"/>
<g>
	<path style="fill:#FFFFFF;" d="M11.905,5v1.812h-0.103c-0.861,0-1.568,0.206-2.123,0.619C9.127,7.843,8.786,8.416,8.658,9.149
		c0.52-0.51,1.176-0.766,1.969-0.766c0.861,0,1.547,0.314,2.058,0.943s0.766,1.453,0.766,2.475c0,0.633-0.149,1.215-0.448,1.743
		c-0.298,0.528-0.715,0.942-1.25,1.241c-0.536,0.298-1.13,0.447-1.781,0.447c-0.706,0-1.338-0.16-1.894-0.482
		c-0.556-0.32-0.989-0.78-1.299-1.377c-0.31-0.598-0.47-1.285-0.479-2.064v-0.923c0-1.025,0.22-1.947,0.659-2.765
		C7.4,6.804,8.028,6.162,8.843,5.697S10.564,5,11.557,5H11.905z M9.827,10.147c-0.306,0-0.561,0.071-0.766,0.212
		c-0.205,0.142-0.357,0.314-0.458,0.52v0.69c0,1.258,0.436,1.887,1.306,1.887c0.351,0,0.644-0.157,0.878-0.472
		c0.235-0.314,0.353-0.708,0.353-1.183c0-0.488-0.12-0.885-0.358-1.193C10.541,10.301,10.224,10.147,9.827,10.147z"/>
</g>
</svg>
