<?xml version="1.0" encoding="iso-8859-1"?>
<!-- Generator: Adobe Illustrator 22.1.0, SVG Export Plug-In . SVG Version: 6.00 Build 0)  -->
<svg version="1.1" id="IOS_copy" xmlns="http://www.w3.org/2000/svg" xmlns:xlink="http://www.w3.org/1999/xlink" x="0px" y="0px"
	 viewBox="0 0 20 20" style="enable-background:new 0 0 20 20;" xml:space="preserve">
<path style="fill:#2196F3;" d="M20,10c0,5.5-4.5,10-10,10S0,15.5,0,10S4.5,0,10,0S20,4.5,20,10"/>
<g>
	<path style="fill:#FFFFFF;" d="M13.101,7.782c0,0.483-0.121,0.912-0.362,1.285s-0.574,0.672-0.998,0.896
		c0.483,0.232,0.866,0.553,1.148,0.961c0.282,0.407,0.424,0.887,0.424,1.438c0,0.884-0.301,1.583-0.902,2.095
		c-0.602,0.514-1.42,0.77-2.454,0.77s-1.854-0.258-2.461-0.772s-0.909-1.212-0.909-2.092c0-0.552,0.142-1.032,0.424-1.442
		s0.663-0.729,1.142-0.957C7.728,9.74,7.396,9.441,7.158,9.067c-0.24-0.374-0.359-0.802-0.359-1.285
		c0-0.848,0.282-1.523,0.848-2.027S8.979,5,9.95,5c0.966,0,1.733,0.25,2.3,0.749C12.818,6.248,13.101,6.925,13.101,7.782z
		 M11.331,12.219c0-0.433-0.125-0.779-0.376-1.039s-0.588-0.39-1.012-0.39c-0.419,0-0.754,0.129-1.005,0.386
		c-0.251,0.258-0.376,0.605-0.376,1.043c0,0.424,0.123,0.766,0.369,1.025s0.588,0.39,1.025,0.39c0.429,0,0.765-0.125,1.008-0.376
		C11.209,13.007,11.331,12.661,11.331,12.219z M11.126,7.878c0-0.387-0.103-0.698-0.308-0.933S10.324,6.593,9.95,6.593
		c-0.369,0-0.656,0.114-0.861,0.342S8.781,7.477,8.781,7.878c0,0.396,0.103,0.715,0.308,0.957s0.494,0.362,0.868,0.362
		s0.662-0.121,0.865-0.362C11.024,8.593,11.126,8.274,11.126,7.878z"/>
</g>
</svg>
