<?xml version="1.0" encoding="iso-8859-1"?>
<!-- Generator: Adobe Illustrator 22.1.0, SVG Export Plug-In . SVG Version: 6.00 Build 0)  -->
<svg version="1.1" id="IOS_copy" xmlns="http://www.w3.org/2000/svg" xmlns:xlink="http://www.w3.org/1999/xlink" x="0px" y="0px"
	 viewBox="0 0 20 20" style="enable-background:new 0 0 20 20;" xml:space="preserve">
<path style="fill:#2196F3;" d="M20,10c0,5.5-4.5,10-10,10S0,15.5,0,10S4.5,0,10,0S20,4.5,20,10"/>
<g>
	<path style="fill:#FFFFFF;" d="M8.152,15.232V13.42h0.103c0.861,0,1.568-0.206,2.123-0.619c0.552-0.412,0.893-0.985,1.021-1.718
		c-0.52,0.51-1.176,0.766-1.969,0.766c-0.861,0-1.547-0.314-2.058-0.943S6.606,9.453,6.606,8.431c0-0.633,0.149-1.215,0.448-1.743
		c0.298-0.528,0.715-0.942,1.25-1.241C8.84,5.149,9.434,5,10.085,5c0.706,0,1.338,0.16,1.894,0.482
		c0.556,0.32,0.989,0.78,1.299,1.377c0.31,0.598,0.47,1.285,0.479,2.064v0.923c0,1.025-0.22,1.947-0.659,2.765
		c-0.441,0.817-1.069,1.459-1.884,1.924S9.493,15.232,8.5,15.232H8.152z M10.23,10.085c0.306,0,0.561-0.071,0.766-0.212
		c0.205-0.142,0.357-0.314,0.458-0.52v-0.69c0-1.258-0.436-1.887-1.306-1.887c-0.351,0-0.644,0.157-0.878,0.472
		C9.035,7.562,8.917,7.956,8.917,8.431c0,0.488,0.12,0.885,0.358,1.193C9.516,9.931,9.833,10.085,10.23,10.085z"/>
</g>
</svg>
