<?xml version="1.0" encoding="iso-8859-1"?>
<!-- Generator: Adobe Illustrator 22.0.1, SVG Export Plug-In . SVG Version: 6.00 Build 0)  -->
<svg version="1.1" id="Layer_1" xmlns="http://www.w3.org/2000/svg" xmlns:xlink="http://www.w3.org/1999/xlink" x="0px" y="0px"
	 viewBox="0 0 20 20" style="enable-background:new 0 0 20 20;" xml:space="preserve">
<path style="fill:#2196F3;" d="M20,10c0,5.523-4.479,10-10,10C4.478,20,0,15.523,0,10S4.478,0,10,0C15.521,0,20,4.477,20,10"/>
<path style="fill:#EEEEEE;" d="M17,10c0,3.866-3.134,7-7,7c-3.867,0-7-3.134-7-7c0-3.866,3.133-7,7-7C13.866,3,17,6.134,17,10"/>
<polygon style="fill:#FF3D00;" points="14.95,5.05 11.414,11.414 8.586,8.586 "/>
<polygon style="fill:#3F51B5;" points="5.05,14.95 11.414,11.414 8.586,8.586 "/>
<circle style="fill:#FFFFFF;" cx="10" cy="10" r="1"/>
</svg>
