<?xml version="1.0" encoding="iso-8859-1"?>
<!-- Generator: Adobe Illustrator 22.0.1, SVG Export Plug-In . SVG Version: 6.00 Build 0)  -->
<svg version="1.1" id="Layer_1" xmlns="http://www.w3.org/2000/svg" xmlns:xlink="http://www.w3.org/1999/xlink" x="0px" y="0px"
	 viewBox="0 0 20 21" style="enable-background:new 0 0 20 21;" xml:space="preserve">
<path style="fill:#7CB342;" d="M20,11c0,5.522-4.479,10-10,10C4.478,21,0,16.522,0,11S4.478,1,10,1C15.521,1,20,5.477,20,11"/>
<path style="fill:#DCEDC8;" d="M10,11V1C7.239,1,4.739,2.119,2.929,3.929L10,11z"/>
<path style="fill:#FFFFFF;" d="M12.961,4.664C12.229,5.478,11.179,6,10,6C8.821,6,7.771,5.478,7.038,4.664C4.654,5.78,3,8.194,3,11
	c0,3.866,3.133,7,7,7c3.866,0,7-3.134,7-7C17,8.194,15.345,5.781,12.961,4.664z"/>
<path style="fill:#DCEDC8;" d="M6.017,1.83C6.015,1.888,6,1.942,6,2c0,2.206,1.794,4,4,4c2.206,0,4-1.794,4-4
	c0-0.058-0.015-0.113-0.017-0.17C12.762,1.298,11.416,1,10,1C8.584,1,7.238,1.298,6.017,1.83z"/>
<path d="M9.711,12.089l1.348-1.348L3.62,3.301C3.13,3.708,2.679,4.16,2.275,4.651L9.711,12.089z"/>
<path d="M11.5,11c0,0.828-0.672,1.5-1.5,1.5c-0.828,0-1.5-0.672-1.5-1.5S9.172,9.5,10,9.5C10.828,9.5,11.5,10.172,11.5,11"/>
<circle style="fill:#33691E;" cx="10" cy="2" r="2"/>
</svg>
