<?xml version="1.0" encoding="iso-8859-1"?>
<!-- Generator: Adobe Illustrator 22.0.1, SVG Export Plug-In . SVG Version: 6.00 Build 0)  -->
<svg version="1.1" id="Layer_1" xmlns="http://www.w3.org/2000/svg" xmlns:xlink="http://www.w3.org/1999/xlink" x="0px" y="0px"
	 viewBox="0 0 16 21" style="enable-background:new 0 0 16 21;" xml:space="preserve">
<path style="fill:#9575CD;" d="M1,3l0,15c0,1.65,1.35,3,3,3h8c1.65,0,3-1.35,3-3l0-15l-3-1l-2-2H6L4,2L1,3z"/>
<path style="fill:#7454B3;" d="M4,18L4,18c-0.552,0-1-0.448-1-1V9c0-0.552,0.448-1,1-1l0,0c0.552,0,1,0.448,1,1v8
	C5,17.552,4.552,18,4,18z"/>
<path style="fill:#7454B3;" d="M12,18L12,18c-0.552,0-1-0.448-1-1V9c0-0.552,0.448-1,1-1l0,0c0.552,0,1,0.448,1,1v8
	C13,17.552,12.552,18,12,18z"/>
<path style="fill:#7454B3;" d="M8,18L8,18c-0.552,0-1-0.448-1-1V9c0-0.552,0.448-1,1-1l0,0c0.552,0,1,0.448,1,1v8
	C9,17.552,8.552,18,8,18z"/>
<path style="fill:#B39DDB;" d="M16,5H0V3.917C0,2.858,0.858,2,1.917,2h12.167C15.142,2,16,2.858,16,3.917V5z"/>
</svg>
