<?xml version="1.0" encoding="iso-8859-1"?>
<!-- Generator: Adobe Illustrator 22.0.1, SVG Export Plug-In . SVG Version: 6.00 Build 0)  -->
<svg version="1.1" id="Layer_1" xmlns="http://www.w3.org/2000/svg" xmlns:xlink="http://www.w3.org/1999/xlink" x="0px" y="0px"
	 viewBox="0 0 18 18" style="enable-background:new 0 0 18 18;" xml:space="preserve">
<polygon style="fill:#FF3D00;" points="18,18 0,18 0,0 15,0 18,3 "/>
<path style="fill:#FFFFFF;" d="M15.208,9H2.792C2.354,9,2,9.354,2,9.792v5.417C2,15.646,2.354,16,2.792,16h12.417
	C15.646,16,16,15.646,16,15.208V9.791C16,9.354,15.646,9,15.208,9z"/>
<path style="fill:#DD2C00;" d="M2,0v4.208C2,4.646,2.354,5,2.792,5h9.417C12.646,5,13,4.646,13,4.208V0H2z"/>
<path style="fill:#B0BEC5;" d="M6,0v4.208C6,4.646,6.354,5,6.792,5h6.417C13.646,5,14,4.646,14,4.208V0H6z"/>
<rect x="10" y="1" style="fill:#263238;" width="2" height="3"/>
<rect x="4" y="11" style="fill:#CFD8DC;" width="10" height="2"/>
</svg>
