<?xml version="1.0" encoding="utf-8"?>
<!-- Generator: Adobe Illustrator 22.1.0, SVG Export Plug-In . SVG Version: 6.00 Build 0)  -->
<svg version="1.1" id="Layer_1" xmlns="http://www.w3.org/2000/svg" xmlns:xlink="http://www.w3.org/1999/xlink" x="0px" y="0px"
	 viewBox="0 0 18 20" enable-background="new 0 0 18 20" xml:space="preserve">
<rect x="1" y="17" fill="#B39DDB" width="16" height="3"/>
<polygon fill="#37474F" points="11,12.4 11,10 7,10 7,12.3 1.1,14 1,15 17,15 17,14 "/>
<path fill="#546E7A" d="M18,18H-0.1L0,15.1C0,14.5,0.5,14,1.1,14H17c0.6,0,1.1,0.5,1.1,1.1L18,18z"/>
<path fill="#F4511E" d="M7,11c0,0-2-5.3-2-7.8S6.3,0,8.5,0h1C11.7,0,13,0.8,13,3.2S11,11,11,11H7z"/>
</svg>
