<?xml version="1.0" encoding="iso-8859-1"?>
<!-- Generator: Adobe Illustrator 21.1.0, SVG Export Plug-In . SVG Version: 6.00 Build 0)  -->
<svg version="1.1" id="Layer_1" xmlns="http://www.w3.org/2000/svg" xmlns:xlink="http://www.w3.org/1999/xlink" x="0px" y="0px"
	 viewBox="0 0 11 11" enable-background="new 0 0 11 11" xml:space="preserve">
<path d="M7.346,0C6.686,0,6.053,0.173,5.5,0.498C4.947,0.173,4.314,0,3.654,0C1.837,0,0.296,1.325,0.053,3.09
	C0.017,3.265,0,3.443,0,3.631C0,6.773,3.952,9.24,4.745,9.703L5,9.85l0.5,0.289L6,9.85l0.251-0.145C7.048,9.24,11,6.773,11,3.631
	c0-0.176-0.015-0.343-0.046-0.508C10.701,1.34,9.155,0,7.346,0L7.346,0z"/>
</svg>
