<?xml version="1.0" encoding="iso-8859-1"?>
<!-- Generator: Adobe Illustrator 21.1.0, SVG Export Plug-In . SVG Version: 6.00 Build 0)  -->
<svg version="1.1" id="Layer_1" xmlns="http://www.w3.org/2000/svg" xmlns:xlink="http://www.w3.org/1999/xlink" x="0px" y="0px"
	 viewBox="0 0 9 9" enable-background="new 0 0 9 9" xml:space="preserve">
<path fill="#06070E" d="M6.498,0c-0.669,0-1.298,0.26-1.77,0.732L3.727,1.733c-0.363,0.363-0.594,0.823-0.682,1.31
	C2.55,3.13,2.095,3.365,1.734,3.726L0.732,4.728C0.26,5.2,0,5.829,0,6.498c0,0.669,0.26,1.297,0.732,1.77
	C1.207,8.74,1.835,9,2.502,9C3.169,9,3.796,8.74,4.27,8.268l1.003-1.003c0.361-0.361,0.592-0.817,0.68-1.301
	c0.494-0.091,0.95-0.328,1.313-0.692L8.268,4.27C8.74,3.799,9,3.171,9,2.501c0-0.669-0.26-1.297-0.732-1.769
	C7.796,0.26,7.168,0,6.498,0L6.498,0z"/>
</svg>
