<?xml version="1.0" encoding="iso-8859-1"?>
<!-- Generator: Adobe Illustrator 21.1.0, SVG Export Plug-In . SVG Version: 6.00 Build 0)  -->
<svg version="1.1" id="Layer_1" xmlns="http://www.w3.org/2000/svg" xmlns:xlink="http://www.w3.org/1999/xlink" x="0px" y="0px"
	 viewBox="0 0 10 10" enable-background="new 0 0 10 10" xml:space="preserve">
<path d="M4,0C3.457,0,2.976,0.16,2.625,0.277C2.139,0.436,1.759,0.849,1.639,1.353C1.619,1.436,1.607,1.52,1.601,1.603
	C1.518,1.608,1.436,1.621,1.355,1.64c-0.51,0.121-0.912,0.49-1.077,0.986C0.16,2.975,0,3.455,0,4c0,2.243,1.757,4,4,4
	c0.156,0,0.306-0.013,0.445-0.034l1.294,1.295C6.231,9.752,6.823,10,7.5,10s1.269-0.248,1.76-0.738
	c0.988-0.988,0.988-2.534,0.002-3.522L7.966,4.445C7.987,4.306,8,4.156,8,4C8,1.757,6.243,0,4,0L4,0z"/>
</svg>
