<?xml version="1.0" encoding="iso-8859-1"?>
<!-- Generator: Adobe Illustrator 21.1.0, SVG Export Plug-In . SVG Version: 6.00 Build 0)  -->
<svg version="1.1" id="Layer_1" xmlns="http://www.w3.org/2000/svg" xmlns:xlink="http://www.w3.org/1999/xlink" x="0px" y="0px"
	 viewBox="0 0 11 11" enable-background="new 0 0 11 11" xml:space="preserve">
<path d="M7.5,0C7.1,0,6.723,0.156,6.44,0.439C6.079,0.8,5.941,1.301,6.026,1.769C4.638,2.91,3.807,3.001,3.667,3.009
	C3.611,3.002,3.555,2.999,3.5,2.999c-0.562,0-1.072,0.31-1.331,0.809C1.866,4.39,1.975,5.094,2.44,5.559l0.439,0.44l-1.54,1.54
	L0.632,8.246l0.707,0.707L2.046,9.66l0.707,0.707L3.46,9.66L5,8.121l0.44,0.44c0.277,0.28,0.652,0.436,1.054,0.436
	c0.228,0,0.45-0.051,0.659-0.151c0.57-0.282,0.898-0.877,0.839-1.498c0.004-0.102,0.076-0.953,1.238-2.372
	C9.319,4.992,9.409,5,9.5,5c0.398,0,0.774-0.155,1.057-0.435c0.587-0.59,0.587-1.54,0.005-2.124L8.561,0.439
	C8.278,0.156,7.901,0,7.5,0L7.5,0z"/>
</svg>
