<?xml version="1.0" encoding="iso-8859-1"?>
<!-- Generator: Adobe Illustrator 21.1.0, SVG Export Plug-In . SVG Version: 6.00 Build 0)  -->
<svg version="1.1" id="Layer_1" xmlns="http://www.w3.org/2000/svg" xmlns:xlink="http://www.w3.org/1999/xlink" x="0px" y="0px"
	 viewBox="0 0 9 10" enable-background="new 0 0 9 10" xml:space="preserve">
<path d="M1.502,0L1.502,0C1.242,0,0.986,0.068,0.76,0.195C0.287,0.469,0,0.967,0,1.5v7c0,0.536,0.289,1.034,0.753,1.301
	C0.981,9.932,1.239,10,1.5,10c0.268,0,0.531-0.071,0.76-0.207l5.996-3.498C8.716,6.025,9,5.529,9,5c0-0.527-0.282-1.022-0.737-1.292
	L2.256,0.203C2.025,0.07,1.765,0,1.502,0L1.502,0z"/>
</svg>
