<?xml version="1.0" encoding="iso-8859-1"?>
<!-- Generator: Adobe Illustrator 21.1.0, SVG Export Plug-In . SVG Version: 6.00 Build 0)  -->
<svg version="1.1" id="Layer_1" xmlns="http://www.w3.org/2000/svg" xmlns:xlink="http://www.w3.org/1999/xlink" x="0px" y="0px"
	 viewBox="0 0 11 9" enable-background="new 0 0 11 9" xml:space="preserve">
<path d="M11,6.471L8.109,4.501L11,2.528V1H8.101L5.488,2.714L4.976,2.365C4.952,1.751,4.707,1.172,4.269,0.733
	C3.796,0.26,3.169,0,2.5,0C1.832,0,1.205,0.26,0.733,0.732S0.001,1.831,0.001,2.5c0,0.668,0.26,1.296,0.732,1.768
	C0.817,4.352,0.906,4.429,1,4.5C0.907,4.57,0.817,4.647,0.733,4.731C0.26,5.204,0,5.831,0,6.5c0,0.668,0.26,1.296,0.732,1.768
	c0.472,0.472,1.1,0.732,1.768,0.732c0.667,0,1.295-0.259,1.767-0.73C4.71,7.826,4.956,7.245,4.979,6.631l0.517-0.337L8.102,8H11
	V6.471z"/>
</svg>
