<?xml version="1.0" encoding="iso-8859-1"?>
<!-- Generator: Adobe Illustrator 22.0.1, SVG Export Plug-In . SVG Version: 6.00 Build 0)  -->
<svg version="1.1" id="Layer_1" xmlns="http://www.w3.org/2000/svg" xmlns:xlink="http://www.w3.org/1999/xlink" x="0px" y="0px"
	 viewBox="0 0 36 36" style="enable-background:new 0 0 36 36;" xml:space="preserve">
<g>
	<g>
		<polygon style="fill:#BAE0BD;" points="14.5,35.5 14.5,21.5 0.5,21.5 0.5,14.5 14.5,14.5 14.5,0.5 21.5,0.5 21.5,14.5 35.5,14.5 
			35.5,21.5 21.5,21.5 21.5,35.5 		"/>
	</g>
	<g>
		<path style="fill:#5E9C76;" d="M21,1v13v1h1h13v6H22h-1v1v13h-6V22v-1h-1H1v-6h13h1v-1V1H21 M22,0h-8v14H0v8h14v14h8V22h14v-8H22
			V0L22,0z"/>
	</g>
</g>
</svg>
