<?xml version="1.0" encoding="utf-8"?>
<!-- Generator: Adobe Illustrator 21.0.2, SVG Export Plug-In . SVG Version: 6.00 Build 0)  -->
<svg version="1.1" id="Layer_1" xmlns="http://www.w3.org/2000/svg" xmlns:xlink="http://www.w3.org/1999/xlink" x="0px" y="0px"
	 viewBox="0 0 36 36" style="enable-background:new 0 0 36 36;" xml:space="preserve">
<g>
	<circle style="fill:#F78F8F;" cx="18" cy="18" r="17.5"/>
	<g>
		<path style="fill:#C74343;" d="M18,1c9.4,0,17,7.6,17,17s-7.6,17-17,17S1,27.4,1,18S8.6,1,18,1 M18,0C8.1,0,0,8.1,0,18
			s8.1,18,18,18s18-8.1,18-18S27.9,0,18,0L18,0z"/>
	</g>
</g>
<rect x="8.1" y="16" transform="matrix(0.7071 -0.7071 0.7071 0.7071 -7.4558 18)" style="fill:#FFFFFF;" width="19.8" height="4"/>
<rect x="16" y="8.1" transform="matrix(0.7071 -0.7071 0.7071 0.7071 -7.4558 18)" style="fill:#FFFFFF;" width="4" height="19.8"/>
</svg>
