<?xml version="1.0" encoding="iso-8859-1"?>
<!-- Generator: Adobe Illustrator 22.0.1, SVG Export Plug-In . SVG Version: 6.00 Build 0)  -->
<svg version="1.1" id="Layer_1" xmlns="http://www.w3.org/2000/svg" xmlns:xlink="http://www.w3.org/1999/xlink" x="0px" y="0px"
	 viewBox="0 0 34 34" style="enable-background:new 0 0 34 34;" xml:space="preserve">
<g>
	<g>
		<polygon style="fill:#F78F8F;" points="17,21.95 6.101,32.849 1.151,27.899 12.05,17 1.151,6.101 6.101,1.151 17,12.05 
			27.899,1.151 32.849,6.101 21.95,17 32.849,27.899 27.899,32.849 		"/>
	</g>
	<g>
		<path style="fill:#C74343;" d="M27.899,1.858L32.142,6.1L21.95,16.293L21.243,17l0.707,0.707l10.192,10.192l-4.243,4.243
			L17.707,21.95L17,21.243l-0.707,0.707L6.101,32.142l-4.243-4.243L12.05,17.707L12.757,17l-0.707-0.707L1.858,6.1l4.243-4.243
			L16.293,12.05L17,12.757l0.707-0.707L27.899,1.858 M27.899,0.444L17,11.343L6.101,0.444L0.444,6.1L11.343,17L0.444,27.899
			l5.657,5.657L17,22.657l10.899,10.899l5.657-5.657L22.657,17L33.556,6.1L27.899,0.444L27.899,0.444z"/>
	</g>
</g>
</svg>
