<?xml version="1.0" encoding="iso-8859-1"?>
<!-- Generator: Adobe Illustrator 22.0.1, SVG Export Plug-In . SVG Version: 6.00 Build 0)  -->
<svg version="1.1" id="Layer_1" xmlns="http://www.w3.org/2000/svg" xmlns:xlink="http://www.w3.org/1999/xlink" x="0px" y="0px"
	 viewBox="0 0 36 36" style="enable-background:new 0 0 36 36;" xml:space="preserve">
<g>
	<polygon style="fill:#F5CE85;" points="3.692,26.013 7.14,22.566 13.887,28.442 10.02,32.311 0.768,35.229 	"/>
	<path style="fill:#967A44;" d="M7.163,23.249l5.992,5.218L9.752,31.87l-8.217,2.593l2.596-8.183L7.163,23.249 M7.116,21.882
		l-3.863,3.863L0,35.996l10.286-3.246l4.333-4.333L7.116,21.882L7.116,21.882z"/>
</g>
<g>
	<polygon style="fill:#36404D;" points="1.818,30.291 0.005,36.005 5.738,34.195 	"/>
</g>
<g>
	<path style="fill:#F78F8F;" d="M25.937,3.751l1.944-1.944C28.724,0.964,29.845,0.5,31.037,0.5c1.191,0,2.312,0.464,3.155,1.307
		c1.74,1.74,1.74,4.572,0,6.312l-1.944,1.944L25.937,3.751z"/>
	<g>
		<path style="fill:#C74343;" d="M31.037,1c1.059,0,2.054,0.412,2.803,1.161c1.545,1.545,1.545,4.06,0,5.605l-1.591,1.591
			l-5.605-5.605l1.591-1.591C28.983,1.412,29.978,1,31.037,1 M31.037,0c-1.27,0-2.54,0.485-3.51,1.454l-2.298,2.298l7.019,7.019
			l2.298-2.298c1.938-1.938,1.938-5.081,0-7.019l0,0C33.577,0.485,32.307,0,31.037,0L31.037,0z"/>
	</g>
</g>
<g>
	<path style="fill:#FFEEA3;" d="M10.674,31.655c-0.081-0.253-0.211-0.517-0.416-0.757c-0.396-0.465-0.971-0.739-1.713-0.818
		c-0.215-1.695-1.572-2.372-2.574-2.548c-0.151-1.225-0.917-1.844-1.685-2.113L23.545,6.143l6.312,6.312L10.674,31.655z"/>
	<g>
		<path style="fill:#BA9B48;" d="M23.546,6.85l5.605,5.605L10.815,30.806c-0.053-0.079-0.112-0.157-0.177-0.233
			c-0.301-0.353-0.817-0.758-1.665-0.931c-0.342-1.456-1.492-2.235-2.569-2.525c-0.194-0.844-0.67-1.451-1.27-1.84L23.546,6.85
			 M23.545,5.435L3.253,25.746c0,0,0.01,0,0.027,0c0.255,0,2.218,0.07,2.218,2.238c0,0,2.577,0.08,2.577,2.573
			c2.563,0,2.212,2.194,2.212,2.194l20.278-20.296L23.545,5.435L23.545,5.435z"/>
	</g>
</g>
<g>
	<polygon style="fill:#D9E7F5;" points="21.707,8 26.998,2.708 33.272,9.039 28.001,14.293 	"/>
	<g>
		<path style="fill:#788B9C;" d="M26.997,3.417l5.57,5.619l-4.565,4.551L22.414,8L26.997,3.417 M27,2l-6,6l7,7l5.979-5.959L27,2
			L27,2z"/>
	</g>
</g>
</svg>
