<?xml version="1.0" encoding="iso-8859-1"?>
<!-- Generator: Adobe Illustrator 22.0.1, SVG Export Plug-In . SVG Version: 6.00 Build 0)  -->
<svg version="1.1" id="Layer_1" xmlns="http://www.w3.org/2000/svg" xmlns:xlink="http://www.w3.org/1999/xlink" x="0px" y="0px"
	 viewBox="0 0 36 36" style="enable-background:new 0 0 36 36;" xml:space="preserve">
<g>
	<g>
		<path style="fill:#8BB7F0;" d="M18,35.5C8.351,35.5,0.5,27.649,0.5,18S8.351,0.5,18,0.5c4.854,0,9.532,2.054,12.837,5.635
			l0.353,0.383L35.5,2.207V14.5H23.207l4.441-4.441l-0.312-0.352C24.967,7.033,21.563,5.5,18,5.5C11.107,5.5,5.5,11.107,5.5,18
			S11.107,30.5,18,30.5c5.159,0,9.796-3.2,11.65-8h5.251C32.87,30.186,26.008,35.5,18,35.5z"/>
	</g>
	<g>
		<path style="fill:#4E7AB5;" d="M18,1c4.714,0,9.258,1.995,12.469,5.474l0.706,0.765l0.736-0.736L35,3.414V14H24.414l3.255-3.255
			l0.666-0.666L27.71,9.375C25.246,6.595,21.706,5,18,5C10.832,5,5,10.832,5,18s5.832,13,13,13c5.25,0,9.981-3.186,11.989-8h4.25
			C32.067,30.126,25.559,35,18,35C8.626,35,1,27.374,1,18S8.626,1,18,1 M18,0C8.059,0,0,8.059,0,18c0,9.941,8.059,18,18,18
			c8.564,0,15.718-5.987,17.539-14h-6.236c-1.649,4.658-6.08,8-11.303,8c-6.627,0-12-5.373-12-12c0-6.627,5.373-12,12-12
			c3.569,0,6.768,1.563,8.962,4.038L22,15h14V1l-4.796,4.796C27.919,2.237,23.227,0,18,0L18,0z"/>
	</g>
</g>
</svg>
