<?xml version="1.0" encoding="iso-8859-1"?>
<!-- Generator: Adobe Illustrator 22.0.1, SVG Export Plug-In . SVG Version: 6.00 Build 0)  -->
<svg version="1.1" id="Layer_1" xmlns="http://www.w3.org/2000/svg" xmlns:xlink="http://www.w3.org/1999/xlink" x="0px" y="0px"
	 viewBox="0 0 36 36" style="enable-background:new 0 0 36 36;" xml:space="preserve">
<g>
	<polygon style="fill:#FFEEA3;" points="18,28.747 7.535,34.21 9.498,22.57 1.068,14.306 12.745,12.575 18,2.004 23.255,12.575 
		34.932,14.306 26.502,22.57 28.465,34.21 	"/>
	<path style="fill:#BA9B48;" d="M18,3.128l4.691,9.436l0.232,0.468l0.516,0.077l10.424,1.545l-7.525,7.377l-0.373,0.365l0.087,0.515
		l1.752,10.391l-9.341-4.877L18,28.183l-0.463,0.242l-9.341,4.877L9.948,22.91l0.087-0.515L9.662,22.03l-7.525-7.377l10.424-1.545
		l0.516-0.077l0.232-0.468L18,3.128 M18,0.881l-5.586,11.238L0,13.959l8.962,8.785L6.875,35.119L18,29.311l11.125,5.808
		l-2.086-12.375L36,13.959l-12.414-1.84L18,0.881L18,0.881z"/>
</g>
</svg>
