<?xml version="1.0" encoding="iso-8859-1"?>
<!-- Generator: Adobe Illustrator 22.0.1, SVG Export Plug-In . SVG Version: 6.00 Build 0)  -->
<svg version="1.1" id="Layer_1" xmlns="http://www.w3.org/2000/svg" xmlns:xlink="http://www.w3.org/1999/xlink" x="0px" y="0px"
	 viewBox="0 0 36 32" style="enable-background:new 0 0 36 32;" xml:space="preserve">
<g>
	<path style="fill:#F78F8F;" d="M18.001,31.403C15.774,29.927,0.5,19.465,0.5,10.286C0.5,4.89,4.89,0.5,10.286,0.5
		c2.787,0,5.461,1.23,7.338,3.376L18,4.307l0.376-0.431C20.253,1.73,22.927,0.5,25.714,0.5c5.396,0,9.786,4.39,9.786,9.786
		C35.5,19.527,20.229,29.935,18.001,31.403z"/>
	<path style="fill:#C74343;" d="M25.714,1C30.834,1,35,5.166,35,10.286c0,8.675-14.051,18.543-16.999,20.516
		C15.056,28.819,1,18.902,1,10.286C1,5.166,5.166,1,10.286,1c2.643,0,5.181,1.168,6.961,3.205L18,5.067l0.753-0.861
		C20.534,2.168,23.071,1,25.714,1 M25.714,0C22.624,0,19.885,1.391,18,3.547C16.115,1.391,13.376,0,10.286,0
		C4.605,0,0,4.605,0,10.286C0,20.529,18,32,18,32s18-11.402,18-21.714C36,4.605,31.395,0,25.714,0L25.714,0z"/>
</g>
</svg>
