<?xml version="1.0" encoding="utf-8"?>
<!-- Generator: Adobe Illustrator 21.0.2, SVG Export Plug-In . SVG Version: 6.00 Build 0)  -->
<svg version="1.1" id="Layer_1" xmlns="http://www.w3.org/2000/svg" xmlns:xlink="http://www.w3.org/1999/xlink" x="0px" y="0px"
	 viewBox="0 0 36 36" style="enable-background:new 0 0 36 36;" xml:space="preserve">
<g>
	<g>
		<path style="fill:#F5CE85;" d="M3.5,35.5l-3-3v-2.3l11.6-11.6l-1.2-1.2c-0.5-0.5-0.5-1.3,0-1.8l1.8-1.8l0-0.2
			c-0.1-0.6-0.1-1.1-0.1-1.6c0-6.3,5.2-11.5,11.5-11.5S35.5,5.7,35.5,12S30.3,23.5,24,23.5c-0.5,0-1,0-1.6-0.1l-0.2,0l-1.8,1.8
			c-0.2,0.2-0.5,0.4-0.9,0.4c-0.3,0-0.6-0.1-0.9-0.4l-1.2-1.2l-3.6,3.6h-2.3v2.3l-1.7,1.7H7.5v2.3l-1.7,1.7H3.5z M24,4.5
			c-2,0-3.9,0.8-5.3,2.2l-0.4,0.4L29,17.7l0.4-0.4c2.9-2.9,2.9-7.7,0-10.6C27.9,5.3,26,4.5,24,4.5z"/>
	</g>
	<g>
		<path style="fill:#967A44;" d="M24,1c6.1,0,11,4.9,11,11s-4.9,11-11,11c-0.4,0-0.9,0-1.5-0.1L22,22.8l-0.4,0.4l-1.6,1.6
			c-0.1,0.1-0.3,0.2-0.5,0.2s-0.4-0.1-0.5-0.2l-0.9-0.9l-0.7-0.7l-0.7,0.7L13.6,27H12h-1v1v1.6L9.6,31H8H7v1v1.6L5.6,35H3.7L1,32.3
			v-1.9l11.1-11.1l0.7-0.7l-0.7-0.7L11.2,17c-0.3-0.3-0.3-0.8,0-1l1.6-1.6l0.4-0.4l-0.1-0.5C13,12.9,13,12.4,13,12
			C13,5.9,17.9,1,24,1 M29,18.4l0.7-0.7c3.1-3.1,3.1-8.2,0-11.3C28.1,4.8,26.1,4,24,4s-4.1,0.8-5.7,2.3l-0.7,0.7l0.7,0.7l9.9,9.9
			L29,18.4 M24,0c-6.6,0-12,5.4-12,12c0,0.6,0.1,1.1,0.1,1.6l-1.6,1.6c-0.7,0.7-0.7,1.8,0,2.5l0.9,0.9L0,30v2.7L3.3,36H6l2-2v-2h2
			l2-2v-2h2l3.4-3.4l0.9,0.9c0.3,0.3,0.8,0.5,1.2,0.5s0.9-0.2,1.2-0.5l1.6-1.6c0.5,0.1,1.1,0.1,1.6,0.1c6.6,0,12-5.4,12-12
			S30.6,0,24,0L24,0z M29,17l-9.9-9.9C20.4,5.7,22.2,5,24,5s3.6,0.7,5,2.1C31.7,9.8,31.7,14.2,29,17L29,17z"/>
	</g>
</g>
<rect x="15" y="19.2" transform="matrix(0.7072 -0.707 0.707 0.7072 -11.0085 17.4156)" style="fill:#967A44;" width="1" height="5.5"/>
</svg>
