<?xml version="1.0" encoding="iso-8859-1"?>
<!-- Generator: Adobe Illustrator 22.0.1, SVG Export Plug-In . SVG Version: 6.00 Build 0)  -->
<svg version="1.1" id="Layer_1" xmlns="http://www.w3.org/2000/svg" xmlns:xlink="http://www.w3.org/1999/xlink" x="0px" y="0px"
	 viewBox="0 0 36 36" style="enable-background:new 0 0 36 36;" xml:space="preserve">
<g>
	<path style="fill:#8BB7F0;" d="M24.75,19.5c-2.204,0-4.275-0.858-5.833-2.417S16.5,13.454,16.5,11.25s0.858-4.275,2.417-5.833
		l2.5-2.5C22.975,1.358,25.046,0.5,27.25,0.5s4.275,0.858,5.833,2.417C34.642,4.475,35.5,6.546,35.5,8.75s-0.858,4.275-2.417,5.833
		l-2.5,2.5C29.025,18.642,26.954,19.5,24.75,19.5z M27.25,3.5c-1.402,0-2.72,0.546-3.712,1.538l-2.5,2.5
		C20.046,8.53,19.5,9.848,19.5,11.25s0.546,2.72,1.538,3.712c0.992,0.992,2.311,1.538,3.712,1.538s2.72-0.546,3.712-1.538l2.5-2.5
		C31.954,11.47,32.5,10.152,32.5,8.75s-0.546-2.72-1.538-3.712C29.97,4.046,28.652,3.5,27.25,3.5z"/>
	<path style="fill:#4E7AB5;" d="M27.25,1c2.07,0,4.016,0.806,5.48,2.27C34.194,4.734,35,6.68,35,8.75c0,2.07-0.806,4.016-2.27,5.48
		l-0.865,0.865L30.23,16.73C28.766,18.194,26.82,19,24.75,19c-2.07,0-4.016-0.806-5.48-2.27C17.806,15.266,17,13.32,17,11.25
		c0-2.07,0.806-4.016,2.27-5.48l2.5-2.5C23.234,1.806,25.18,1,27.25,1 M24.75,17c1.536,0,2.98-0.598,4.066-1.684l2.5-2.5
		C32.402,11.73,33,10.286,33,8.75c0-1.536-0.598-2.98-1.684-4.066C30.23,3.598,28.786,3,27.25,3c-1.536,0-2.98,0.598-4.066,1.684
		l-2.5,2.5C19.598,8.27,19,9.714,19,11.25c0,1.536,0.598,2.98,1.684,4.066C21.77,16.402,23.214,17,24.75,17 M27.25,0
		c-2.239,0-4.479,0.854-6.187,2.563c-0.892,0.891-1.609,1.608-2.5,2.5c-3.417,3.417-3.417,8.957,0,12.374
		C20.271,19.146,22.511,20,24.75,20c2.239,0,4.479-0.854,6.187-2.563c0.891-0.892,1.608-1.608,2.5-2.5
		c3.417-3.417,3.417-8.957,0-12.374C31.729,0.854,29.489,0,27.25,0L27.25,0z M24.75,16c-1.269,0-2.462-0.494-3.359-1.391
		C20.494,13.712,20,12.519,20,11.25c0-1.269,0.494-2.462,1.391-3.359l2.5-2.5C24.788,4.494,25.981,4,27.25,4
		c1.269,0,2.462,0.494,3.359,1.391C31.506,6.288,32,7.481,32,8.75c0,1.269-0.494,2.462-1.391,3.359l-2.5,2.5
		C27.212,15.506,26.019,16,24.75,16L24.75,16z"/>
</g>
<g>
	<path style="fill:#8BB7F0;" d="M8.75,35.5c-2.204,0-4.275-0.858-5.833-2.417S0.5,29.454,0.5,27.25s0.858-4.275,2.417-5.833l2.5-2.5
		c1.559-1.558,3.63-2.417,5.833-2.417s4.275,0.858,5.833,2.417s2.417,3.63,2.417,5.833s-0.858,4.275-2.417,5.833l-2.5,2.5
		C13.025,34.642,10.954,35.5,8.75,35.5z M11.25,19.5c-1.402,0-2.72,0.546-3.712,1.538l-2.5,2.5C4.046,24.53,3.5,25.848,3.5,27.25
		s0.546,2.72,1.538,3.712C6.03,31.954,7.348,32.5,8.75,32.5c1.402,0,2.72-0.546,3.712-1.538l2.5-2.5
		c0.992-0.992,1.538-2.31,1.538-3.712s-0.546-2.721-1.538-3.712S12.652,19.5,11.25,19.5z"/>
	<path style="fill:#4E7AB5;" d="M11.25,17c2.07,0,4.016,0.806,5.48,2.27c3.022,3.022,3.022,7.939,0,10.96l-2.5,2.5
		C12.766,34.194,10.82,35,8.75,35c-2.07,0-4.016-0.806-5.48-2.27C1.806,31.266,1,29.32,1,27.25s0.806-4.016,2.27-5.48l0.865-0.865
		L5.77,19.27C7.234,17.806,9.18,17,11.25,17 M8.75,33c1.536,0,2.98-0.598,4.066-1.684l1.635-1.635l0.865-0.865
		C16.402,27.73,17,26.286,17,24.75c0-1.536-0.598-2.98-1.684-4.066C14.23,19.598,12.786,19,11.25,19s-2.98,0.598-4.066,1.684
		l-1.635,1.635l-0.865,0.865C3.598,24.27,3,25.714,3,27.25c0,1.536,0.598,2.98,1.684,4.066C5.77,32.402,7.214,33,8.75,33 M11.25,16
		c-2.239,0-4.479,0.854-6.187,2.563c-0.892,0.892-1.608,1.608-2.5,2.5c-3.417,3.417-3.417,8.957,0,12.374
		C4.271,35.146,6.511,36,8.75,36s4.479-0.854,6.187-2.563c0.892-0.892,1.608-1.608,2.5-2.5c3.417-3.417,3.417-8.957,0-12.374
		C15.729,16.854,13.489,16,11.25,16L11.25,16z M8.75,32c-1.269,0-2.462-0.494-3.359-1.391C4.494,29.712,4,28.519,4,27.25
		c0-1.269,0.494-2.462,1.391-3.359l0.865-0.865l1.635-1.635C8.788,20.494,9.981,20,11.25,20s2.462,0.494,3.359,1.391
		C15.506,22.288,16,23.481,16,24.75c0,1.269-0.494,2.462-1.391,3.359l-0.865,0.865l-1.635,1.635C11.212,31.506,10.019,32,8.75,32
		L8.75,32z"/>
</g>
<g>
	<path style="fill:#8BB7F0;" d="M13,24.5c-0.4,0-0.777-0.156-1.061-0.439c-0.585-0.585-0.585-1.536,0-2.121l10-10
		C22.223,11.656,22.6,11.5,23,11.5s0.777,0.156,1.061,0.439c0.585,0.585,0.585,1.536,0,2.121l-10,10
		C13.777,24.344,13.4,24.5,13,24.5z"/>
	<path style="fill:#4E7AB5;" d="M23,12c0.267,0,0.518,0.104,0.707,0.293c0.39,0.39,0.39,1.024,0,1.414l-10,10
		C13.518,23.896,13.267,24,13,24c-0.267,0-0.518-0.104-0.707-0.293c-0.39-0.39-0.39-1.024,0-1.414l10-10
		C22.482,12.104,22.733,12,23,12 M23,11c-0.512,0-1.023,0.195-1.414,0.586l-10,10c-0.781,0.781-0.781,2.047,0,2.828
		C11.977,24.805,12.488,25,13,25c0.512,0,1.023-0.195,1.414-0.586l10-10c0.781-0.781,0.781-2.047,0-2.828
		C24.023,11.195,23.512,11,23,11L23,11z"/>
</g>
</svg>
