<?xml version="1.0" encoding="iso-8859-1"?>
<!-- Generator: Adobe Illustrator 22.0.1, SVG Export Plug-In . SVG Version: 6.00 Build 0)  -->
<svg version="1.1" id="Layer_1" xmlns="http://www.w3.org/2000/svg" xmlns:xlink="http://www.w3.org/1999/xlink" x="0px" y="0px"
	 viewBox="0 0 36 36" style="enable-background:new 0 0 36 36;" xml:space="preserve">
<g>
	<path style="fill:#D9E7F5;" d="M26.5,17.214V12c0-4.687-3.813-8.5-8.5-8.5S9.5,7.313,9.5,12v5.214h-3V12
		C6.5,5.659,11.659,0.5,18,0.5S29.5,5.659,29.5,12v5.214H26.5z"/>
	<path style="fill:#788B9C;" d="M18,1c6.065,0,11,4.935,11,11v4.714h-2V12c0-4.963-4.037-9-9-9s-9,4.037-9,9v4.714H7V12
		C7,5.935,11.935,1,18,1 M18,0C11.383,0,6,5.383,6,12v5.714h4V12c0-4.411,3.589-8,8-8s8,3.589,8,8v5.714h4V12
		C30,5.383,24.617,0,18,0L18,0z"/>
</g>
<g>
	<path style="fill:#F5CE85;" d="M0.5,35.5V18c0-1.93,1.57-3.5,3.5-3.5h28c1.93,0,3.5,1.57,3.5,3.5v17.5H0.5z"/>
	<path style="fill:#967A44;" d="M32,15c1.654,0,3,1.346,3,3v17H1V18c0-1.654,1.346-3,3-3H32 M32,14H4c-2.209,0-4,1.791-4,4v18h36V18
		C36,15.791,34.209,14,32,14L32,14z"/>
</g>
<rect x="1" y="33" style="fill:#FFEEA3;" width="34" height="2"/>
<rect x="1" y="29" style="fill:#FFEEA3;" width="34" height="2"/>
<rect x="1" y="25" style="fill:#FFEEA3;" width="34" height="2"/>
<rect x="1" y="21" style="fill:#FFEEA3;" width="34" height="2"/>
<path style="fill:#FFEEA3;" d="M1.184,17C1.072,17.314,1,17.648,1,18v1h34v-1c0-0.352-0.072-0.686-0.184-1H1.184z"/>
</svg>
