<?xml version="1.0" encoding="iso-8859-1"?>
<!-- Generator: Adobe Illustrator 22.0.1, SVG Export Plug-In . SVG Version: 6.00 Build 0)  -->
<svg version="1.1" id="Layer_1" xmlns="http://www.w3.org/2000/svg" xmlns:xlink="http://www.w3.org/1999/xlink" x="0px" y="0px"
	 viewBox="0 0 32 36" style="enable-background:new 0 0 32 36;" xml:space="preserve">
<g>
	<path style="fill:#FFEEA3;" d="M16,35.468C14.38,34.846,0.643,28.869,0.501,5.507L16,0.525l15.499,4.982
		C31.357,28.848,17.621,34.843,16,35.468z"/>
	<g>
		<path style="fill:#BA9B48;" d="M16,1.05l14.996,4.82C30.729,28.164,18.2,34.07,15.998,34.936
			C13.79,34.076,1.271,28.215,1.004,5.87L16,1.05 M16,0L0,5.143C0,30.855,16,36,16,36s16-5.214,16-30.857L16,0L16,0z"/>
	</g>
</g>
<path style="fill:#FFC49C;" d="M15.988,29.296c-3.005-1.969-8.721-7.311-9.807-19.837L16,6.302l9.82,3.156
	C24.739,21.962,19.052,27.299,15.988,29.296z"/>
</svg>
