<?xml version="1.0" encoding="iso-8859-1"?>
<!-- Generator: Adobe Illustrator 22.0.1, SVG Export Plug-In . SVG Version: 6.00 Build 0)  -->
<svg version="1.1" id="Layer_1" xmlns="http://www.w3.org/2000/svg" xmlns:xlink="http://www.w3.org/1999/xlink" x="0px" y="0px"
	 viewBox="0 0 36 36" style="enable-background:new 0 0 36 36;" xml:space="preserve">
<g>
	<g>
		<path style="fill:#BAE0BD;" d="M8.5,35.5V24.973l-0.801,0.605C6.9,26.181,5.967,26.5,5,26.5c-2.481,0-4.5-2.019-4.5-4.5
			s2.019-4.5,4.5-4.5c0.967,0,1.9,0.319,2.699,0.921L8.5,19.027V8.5h10.527l-0.605-0.801C17.819,6.9,17.5,5.967,17.5,5
			c0-2.481,2.019-4.5,4.5-4.5s4.5,2.019,4.5,4.5c0,0.967-0.319,1.9-0.921,2.699L24.973,8.5H35.5v9.268
			C35.016,17.59,34.514,17.5,34,17.5c-2.481,0-4.5,2.019-4.5,4.5s2.019,4.5,4.5,4.5c0.514,0,1.016-0.09,1.5-0.268V35.5H8.5z"/>
	</g>
	<g>
		<path style="fill:#5E9C76;" d="M22,1c2.206,0,4,1.794,4,4c0,0.858-0.284,1.687-0.82,2.397L23.968,9h2.009H35v8.104
			C34.672,17.035,34.339,17,34,17c-2.757,0-5,2.243-5,5s2.243,5,5,5c0.339,0,0.672-0.035,1-0.104V35H9v-9.023v-2.009L7.397,25.18
			C6.687,25.716,5.858,26,5,26c-2.206,0-4-1.794-4-4s1.794-4,4-4c0.858,0,1.687,0.284,2.397,0.82L9,20.032v-2.009V9h9.023h2.009
			L18.82,7.397C18.284,6.687,18,5.858,18,5C18,2.794,19.794,1,22,1 M22,0c-2.761,0-5,2.239-5,5c0,1.131,0.39,2.162,1.023,3H8v10.023
			C7.162,17.39,6.131,17,5,17c-2.761,0-5,2.239-5,5s2.239,5,5,5c1.131,0,2.162-0.39,3-1.023V36h28V25.445
			C35.41,25.789,34.732,26,34,26c-2.209,0-4-1.791-4-4c0-2.209,1.791-4,4-4c0.732,0,1.41,0.211,2,0.555V8H25.977
			C26.61,7.162,27,6.131,27,5C27,2.239,24.761,0,22,0L22,0z"/>
	</g>
</g>
</svg>
