<?xml version="1.0" encoding="iso-8859-1"?>
<!-- Generator: Adobe Illustrator 22.0.1, SVG Export Plug-In . SVG Version: 6.00 Build 0)  -->
<svg version="1.1" id="Layer_1" xmlns="http://www.w3.org/2000/svg" xmlns:xlink="http://www.w3.org/1999/xlink" x="0px" y="0px"
	 viewBox="0 0 36 36" style="enable-background:new 0 0 36 36;" xml:space="preserve">
<g>
	<path style="fill:#B6C9D6;" d="M2.824,35.5c-0.621,0-1.205-0.242-1.644-0.681c-0.905-0.906-0.905-2.38,0-3.286l11.252-10.728
		l2.857,2.672L4.459,34.828C4.028,35.258,3.444,35.5,2.824,35.5z"/>
	<path style="fill:#788B9C;" d="M12.437,21.493l2.143,2.004L4.113,34.466C3.769,34.81,3.311,35,2.824,35
		c-0.487,0-0.945-0.19-1.29-0.534c-0.711-0.711-0.711-1.868-0.017-2.562L12.437,21.493 M12.43,20.118L0.827,31.18
		c-1.103,1.103-1.103,2.891,0,3.993C1.378,35.724,2.101,36,2.824,36c0.723,0,1.445-0.276,1.997-0.827L16,23.457L12.43,20.118
		L12.43,20.118z"/>
</g>
<g>
	<circle style="fill:#D1EDFF;" cx="22.5" cy="13.5" r="13"/>
	<path style="fill:#788B9C;" d="M22.5,1C29.393,1,35,6.607,35,13.5S29.393,26,22.5,26S10,20.393,10,13.5S15.607,1,22.5,1 M22.5,0
		C15.044,0,9,6.044,9,13.5S15.044,27,22.5,27S36,20.956,36,13.5S29.956,0,22.5,0L22.5,0z"/>
</g>
</svg>
