<?xml version="1.0" encoding="iso-8859-1"?>
<!-- Generator: Adobe Illustrator 22.0.1, SVG Export Plug-In . SVG Version: 6.00 Build 0)  -->
<svg version="1.1" id="Layer_1" xmlns="http://www.w3.org/2000/svg" xmlns:xlink="http://www.w3.org/1999/xlink" x="0px" y="0px"
	 viewBox="0 0 36 36" style="enable-background:new 0 0 36 36;" xml:space="preserve">
<g>
	<path style="fill:#DCD5F2;" d="M5.535,35.5c-1.354,0-2.625-0.53-3.578-1.493c-1.953-1.973-1.938-5.168,0.035-7.121l16.215-16.083
		l7.086,7.156L9.078,34.043C8.13,34.982,6.871,35.5,5.535,35.5C5.535,35.5,5.535,35.5,5.535,35.5z M5.5,28.5c-1.103,0-2,0.897-2,2
		s0.897,2,2,2s2-0.897,2-2S6.603,28.5,5.5,28.5z"/>
	<path style="fill:#8B75A1;" d="M18.204,11.511l6.383,6.446L8.727,33.687C7.872,34.534,6.739,35,5.536,35
		c-1.22,0-2.365-0.477-3.223-1.344c-1.76-1.777-1.745-4.655,0.032-6.415L18.204,11.511 M5.5,33C6.879,33,8,31.879,8,30.5
		S6.879,28,5.5,28S3,29.121,3,30.5S4.121,33,5.5,33 M18.21,10.096L1.641,26.531c-2.172,2.151-2.19,5.656-0.039,7.829
		C2.684,35.452,4.11,36,5.536,36c1.408,0,2.815-0.533,3.895-1.602L26,17.963L18.21,10.096L18.21,10.096z M5.5,32
		C4.672,32,4,31.328,4,30.5S4.672,29,5.5,29S7,29.672,7,30.5S6.328,32,5.5,32L5.5,32z"/>
</g>
<g>
	<path style="fill:#DCD5F2;" d="M26.298,22.5c-3.151,0-6.391-1.446-8.888-3.968c-4.498-4.542-5.185-11.182-1.53-14.8
		C17.832,1.799,21.233,0.5,24.344,0.5c1.521,0,2.883,0.294,4.051,0.875l0.224,0.226l-5.952,5.951l1.453,4.359l4.358,1.453
		L34.4,7.441l0.261,0.264c1.945,4.01,0.272,9.792-2.466,12.503C30.681,21.708,28.642,22.5,26.298,22.5L26.298,22.5z"/>
	<path style="fill:#8B75A1;" d="M24.344,1c1.301,0,2.475,0.225,3.498,0.669l-5.31,5.31l-0.437,0.437l0.195,0.586l1.276,3.828
		l0.158,0.474l0.474,0.158l3.828,1.276l0.586,0.195l0.437-0.437l5.291-5.291c1.644,3.804,0.055,9.117-2.499,11.646
		C30.425,21.258,28.507,22,26.297,22c-3.018,0-6.128-1.392-8.532-3.82c-2.112-2.133-3.421-4.795-3.687-7.496
		c-0.258-2.623,0.506-4.966,2.153-6.597C18.097,2.241,21.357,1,24.344,1 M24.344,0c-3.329,0-6.81,1.391-8.815,3.377
		c-3.856,3.818-3.173,10.761,1.527,15.507C19.737,21.592,23.147,23,26.297,23c2.371,0,4.594-0.797,6.249-2.436
		c2.93-2.901,4.608-8.979,2.527-13.153l-0.672-0.678l-6.059,6.059l-3.828-1.276l-1.276-3.828l6.084-6.084l-0.631-0.637
		C27.381,0.296,25.879,0,24.344,0L24.344,0z"/>
</g>
</svg>
