<?xml version="1.0" encoding="iso-8859-1"?>
<!-- Generator: Adobe Illustrator 22.0.1, SVG Export Plug-In . SVG Version: 6.00 Build 0)  -->
<svg version="1.1" id="Layer_1" xmlns="http://www.w3.org/2000/svg" xmlns:xlink="http://www.w3.org/1999/xlink" x="0px" y="0px"
	 viewBox="0 0 36 36" style="enable-background:new 0 0 36 36;" xml:space="preserve">
<g>
	<path style="fill:#DCD5F2;" d="M15.424,35.5l-0.737-4.42l-0.307-0.085c-2.193-0.61-4.209-1.772-5.829-3.36l-0.227-0.223
		l-4.191,1.57l-2.577-4.463l3.463-2.85L4.939,21.36C4.647,20.227,4.5,19.096,4.5,18s0.147-2.227,0.439-3.36l0.079-0.308l-3.463-2.85
		l2.577-4.463l4.191,1.571l0.228-0.223c1.619-1.588,3.635-2.75,5.828-3.36l0.307-0.085L15.424,0.5h5.152l0.737,4.421l0.307,0.085
		c2.193,0.609,4.209,1.771,5.829,3.359l0.227,0.223l4.191-1.57l2.577,4.463l-3.463,2.85l0.079,0.308
		C31.353,15.773,31.5,16.904,31.5,18c0,1.097-0.147,2.228-0.439,3.36l-0.079,0.308l3.463,2.85l-2.577,4.463l-4.191-1.57
		l-0.227,0.223c-1.62,1.588-3.636,2.75-5.829,3.36l-0.307,0.085l-0.737,4.42H15.424z M18,10.5c-4.136,0-7.5,3.364-7.5,7.5
		s3.364,7.5,7.5,7.5s7.5-3.364,7.5-7.5S22.136,10.5,18,10.5z"/>
	<path style="fill:#8B75A1;" d="M20.153,1l0.615,3.689l0.105,0.628l0.614,0.171c2.113,0.588,4.054,1.706,5.613,3.235l0.455,0.446
		l0.596-0.223l3.496-1.31l2.153,3.729l-2.889,2.379l-0.491,0.404l0.158,0.616C30.858,15.859,31,16.947,31,18
		c0,1.053-0.142,2.141-0.424,3.236l-0.158,0.616l0.491,0.404l2.889,2.379l-2.153,3.729l-3.496-1.31l-0.596-0.223l-0.455,0.446
		c-1.559,1.529-3.5,2.648-5.612,3.235l-0.614,0.171l-0.105,0.628L20.153,35h-4.306l-0.615-3.689l-0.105-0.628l-0.614-0.171
		c-2.113-0.587-4.053-1.706-5.612-3.235l-0.455-0.446L7.85,27.055l-3.497,1.31l-2.153-3.729l2.889-2.379l0.491-0.404l-0.158-0.616
		C5.142,20.141,5,19.053,5,18s0.142-2.141,0.424-3.236l0.158-0.616l-0.491-0.404l-2.889-2.379l2.153-3.729l3.496,1.31l0.596,0.223
		l0.455-0.446c1.559-1.529,3.5-2.648,5.613-3.235l0.614-0.171l0.105-0.628L15.847,1H20.153 M18,26c4.411,0,8-3.589,8-8s-3.589-8-8-8
		s-8,3.589-8,8S13.589,26,18,26 M21,0h-6l-0.754,4.524c-2.31,0.642-4.381,1.853-6.045,3.485l-4.29-1.607l-3,5.196l3.543,2.917
		C4.168,15.631,4,16.795,4,18s0.168,2.369,0.455,3.485l-3.543,2.917l3,5.196l4.29-1.607c1.664,1.632,3.735,2.843,6.045,3.485L15,36
		h6l0.754-4.524c2.31-0.642,4.381-1.853,6.045-3.485l4.29,1.607l3-5.196l-3.543-2.917C31.832,20.369,32,19.205,32,18
		s-0.168-2.369-0.455-3.485l3.543-2.917l-3-5.196l-4.29,1.607c-1.664-1.632-3.735-2.842-6.045-3.485L21,0L21,0z M18,25
		c-3.866,0-7-3.134-7-7s3.134-7,7-7s7,3.134,7,7S21.866,25,18,25L18,25z"/>
</g>
</svg>
