<?xml version="1.0" encoding="iso-8859-1"?>
<!-- Generator: Adobe Illustrator 22.0.1, SVG Export Plug-In . SVG Version: 6.00 Build 0)  -->
<svg version="1.1" id="Layer_1" xmlns="http://www.w3.org/2000/svg" xmlns:xlink="http://www.w3.org/1999/xlink" x="0px" y="0px"
	 viewBox="0 0 36 24" style="enable-background:new 0 0 36 24;" xml:space="preserve">
<g>
	<g>
		<path style="fill:#C2E8FF;" d="M6,23.5c-3.032,0-5.5-2.467-5.5-5.5c0-2.337,1.485-4.423,3.697-5.191l0.304-0.105l0.03-0.32
			C4.847,9.029,7.628,6.5,11,6.5c0.364,0,0.738,0.035,1.145,0.107l0.463,0.083l0.111-0.457C13.535,2.857,16.529,0.5,20,0.5
			c3.423,0,6.407,2.318,7.257,5.637l0.101,0.394L28,6.5c3.032,0,5.5,2.467,5.5,5.5c0,0.412-0.052,0.839-0.153,1.27l-0.071,0.302
			l0.238,0.198C34.775,14.819,35.5,16.361,35.5,18c0,3.033-2.468,5.5-5.5,5.5H6z"/>
	</g>
	<g>
		<path style="fill:#7496C4;" d="M20,1c3.194,0,5.979,2.163,6.772,5.261l0.201,0.786l0.81-0.035l0.122-0.007
			C27.937,7.003,27.968,7,28,7c2.757,0,5,2.243,5,5c0,0.373-0.047,0.762-0.14,1.155l-0.143,0.603l0.477,0.396
			C34.342,15.108,35,16.51,35,18c0,2.757-2.243,5-5,5H6c-2.757,0-5-2.243-5-5c0-2.124,1.351-4.021,3.362-4.719l0.607-0.211
			l0.06-0.64C5.32,9.334,7.887,7,11,7c0.335,0,0.681,0.033,1.057,0.1l0.926,0.165l0.221-0.914C13.967,3.2,16.761,1,20,1 M20,0
			c-3.768,0-6.919,2.608-7.767,6.115C11.832,6.044,11.421,6,11,6c-3.642,0-6.632,2.782-6.966,6.336C1.687,13.151,0,15.376,0,18
			c0,3.314,2.686,6,6,6h24c3.314,0,6-2.686,6-6c0-1.856-0.843-3.514-2.167-4.615C33.938,12.94,34,12.477,34,12c0-3.314-2.686-6-6-6
			c-0.087,0-0.172,0.009-0.259,0.013C26.856,2.558,23.731,0,20,0L20,0z"/>
	</g>
</g>
</svg>
