<?xml version="1.0" encoding="utf-8"?>
<!-- Generator: Adobe Illustrator 21.0.2, SVG Export Plug-In . SVG Version: 6.00 Build 0)  -->
<svg version="1.1" id="Layer_1" xmlns="http://www.w3.org/2000/svg" xmlns:xlink="http://www.w3.org/1999/xlink" x="0px" y="0px"
	 viewBox="0 0 36 36" style="enable-background:new 0 0 36 36;" xml:space="preserve">
<g>
	<circle style="fill:#BAE0BD;" cx="18" cy="18" r="17.5"/>
	<g>
		<path style="fill:#5E9C76;" d="M18,1c9.4,0,17,7.6,17,17s-7.6,17-17,17S1,27.4,1,18S8.6,1,18,1 M18,0C8.1,0,0,8.1,0,18
			s8.1,18,18,18s18-8.1,18-18S27.9,0,18,0L18,0z"/>
	</g>
</g>
<path style="fill:#5E9C76;" d="M19.2,27h-2.4c-2.7,0-4.8-2.2-4.8-4.8V22h2v0.2c0,1.6,1.3,2.8,2.8,2.8h2.4c1.6,0,2.8-1.3,2.8-2.8
	c0-1.3-0.9-2.5-2.2-2.7l-4.1-0.9C13.5,18,12,16.1,12,13.8c0-2.7,2.2-4.8,4.8-4.8h2.4c2.7,0,4.8,2.2,4.8,4.8V14h-2v-0.2
	c0-1.6-1.3-2.8-2.8-2.8h-2.4c-1.6,0-2.8,1.3-2.8,2.8c0,1.3,0.9,2.5,2.2,2.7l4.1,0.9c2.2,0.5,3.7,2.4,3.7,4.7
	C24,24.8,21.8,27,19.2,27z"/>
<rect x="17" y="6" style="fill:#5E9C76;" width="2" height="3"/>
<rect x="17" y="27" style="fill:#5E9C76;" width="2" height="3"/>
</svg>
