<?xml version="1.0" encoding="iso-8859-1"?>
<!-- Generator: Adobe Illustrator 22.0.1, SVG Export Plug-In . SVG Version: 6.00 Build 0)  -->
<svg version="1.1" id="Layer_1" xmlns="http://www.w3.org/2000/svg" xmlns:xlink="http://www.w3.org/1999/xlink" x="0px" y="0px"
	 viewBox="0 0 34 36" style="enable-background:new 0 0 34 36;" xml:space="preserve">
<g>
	<circle style="fill:#E8D47B;" cx="17" cy="32" r="3.5"/>
	<path style="fill:#BA9B48;" d="M17,29c1.654,0,3,1.346,3,3s-1.346,3-3,3s-3-1.346-3-3S15.346,29,17,29 M17,28c-2.209,0-4,1.791-4,4
		s1.791,4,4,4s4-1.791,4-4S19.209,28,17,28L17,28z"/>
</g>
<g>
	<circle style="fill:#FFEEA3;" cx="17" cy="2" r="1.5"/>
	<g>
		<path style="fill:#BA9B48;" d="M17,1c0.551,0,1,0.449,1,1s-0.449,1-1,1s-1-0.449-1-1S16.449,1,17,1 M17,0c-1.105,0-2,0.895-2,2
			s0.895,2,2,2s2-0.895,2-2S18.105,0,17,0L17,0z"/>
	</g>
</g>
<g>
	<path style="fill:#FFEEA3;" d="M0.5,31.5v-3.019c3.352-0.256,6-3.065,6-6.481v-8C6.5,8.21,11.21,3.5,17,3.5S27.5,8.21,27.5,14v8
		c0,3.416,2.648,6.225,6,6.481V31.5H0.5z"/>
	<g>
		<path style="fill:#BA9B48;" d="M17,4c5.514,0,10,4.486,10,10v8c0,3.52,2.612,6.442,6,6.929V31H1l0-2.071
			C4.388,28.442,7,25.52,7,22v-8C7,8.486,11.486,4,17,4 M17,3L17,3C10.925,3,6,7.925,6,14v8c0,3.314-2.686,6-6,6h0v4h34v-4h0
			c-3.314,0-6-2.686-6-6v-8C28,7.925,23.075,3,17,3L17,3z"/>
	</g>
</g>
</svg>
