<?xml version="1.0" encoding="iso-8859-1"?>
<!-- Generator: Adobe Illustrator 22.0.1, SVG Export Plug-In . SVG Version: 6.00 Build 0)  -->
<svg version="1.1" id="Layer_1" xmlns="http://www.w3.org/2000/svg" xmlns:xlink="http://www.w3.org/1999/xlink" x="0px" y="0px"
	 viewBox="0 0 36 36" style="enable-background:new 0 0 36 36;" xml:space="preserve">
<g>
	<rect x="0.5" y="0.5" style="fill:#FFFFFF;" width="35" height="35"/>
	<g>
		<path style="fill:#788B9C;" d="M35,1v34H1V1H35 M36,0H0v36h36V0L36,0z"/>
	</g>
</g>
<g>
	<rect x="0.5" y="0.5" style="fill:#F78F8F;" width="35" height="7"/>
	<g>
		<path style="fill:#C74343;" d="M35,1v6H1V1H35 M36,0H0v8h36V0L36,0z"/>
	</g>
</g>
<rect x="19" y="13" style="fill:#C5D4DE;" width="4" height="4"/>
<rect x="25" y="13" style="fill:#C5D4DE;" width="4" height="4"/>
<rect x="13" y="13" style="fill:#C5D4DE;" width="4" height="4"/>
<rect x="19" y="19" style="fill:#C5D4DE;" width="4" height="4"/>
<rect x="25" y="19" style="fill:#C5D4DE;" width="4" height="4"/>
<rect x="13" y="19" style="fill:#C5D4DE;" width="4" height="4"/>
<rect x="7" y="19" style="fill:#C5D4DE;" width="4" height="4"/>
<rect x="19" y="25" style="fill:#C5D4DE;" width="4" height="4"/>
<rect x="13" y="25" style="fill:#C5D4DE;" width="4" height="4"/>
<rect x="7" y="25" style="fill:#C5D4DE;" width="4" height="4"/>
</svg>
