<?xml version="1.0" encoding="iso-8859-1"?>
<!-- Generator: Adobe Illustrator 22.0.1, SVG Export Plug-In . SVG Version: 6.00 Build 0)  -->
<svg version="1.1" id="Layer_1" xmlns="http://www.w3.org/2000/svg" xmlns:xlink="http://www.w3.org/1999/xlink" x="0px" y="0px"
	 viewBox="0 0 36 22" style="enable-background:new 0 0 36 22;" xml:space="preserve">
<g>
	<ellipse style="fill:#FFFFFF;" cx="18" cy="11" rx="17.369" ry="10.5"/>
	<g>
		<path style="fill:#BA9B48;" d="M18,1c8.013,0,14.913,7.769,16.729,10C32.913,13.231,26.013,21,18,21S3.087,13.231,1.271,11
			C3.087,8.769,9.987,1,18,1 M18,0C8.059,0,0,11,0,11s8.059,11,18,11s18-11,18-11S27.941,0,18,0L18,0z"/>
	</g>
</g>
<g>
	<circle style="fill:#8BB7F0;" cx="18" cy="11" r="8.5"/>
	<path style="fill:#4E7AB5;" d="M18,3c4.411,0,8,3.589,8,8s-3.589,8-8,8s-8-3.589-8-8S13.589,3,18,3 M18,2c-4.971,0-9,4.029-9,9
		c0,4.971,4.029,9,9,9s9-4.029,9-9C27,6.029,22.971,2,18,2L18,2z"/>
</g>
<g>
	<circle style="fill:#36404D;" cx="18" cy="11" r="4"/>
</g>
<g>
	<circle style="fill:#FFFFFF;" cx="21.5" cy="8.5" r="1.5"/>
</g>
</svg>
