<?xml version="1.0" encoding="utf-8"?>
<!-- Generator: Adobe Illustrator 21.0.2, SVG Export Plug-In . SVG Version: 6.00 Build 0)  -->
<svg version="1.1" id="Layer_1" xmlns="http://www.w3.org/2000/svg" xmlns:xlink="http://www.w3.org/1999/xlink" x="0px" y="0px"
	 viewBox="0 0 36 25" style="enable-background:new 0 0 36 25;" xml:space="preserve">
<path style="fill:#66798F;" d="M21.4,24.9c-0.2,0-0.4-0.2-0.5-0.4l-1.4-7.3c-0.1-0.3,0.1-0.5,0.4-0.6c0.3,0,0.5,0.1,0.6,0.4l1.4,7.3
	C21.9,24.6,21.7,24.9,21.4,24.9C21.4,24.9,21.4,24.9,21.4,24.9z"/>
<path style="fill:#66798F;" d="M35,15.5c-0.1,0-0.2,0-0.3-0.1l-5.3-4.6c-0.2-0.2-0.2-0.5-0.1-0.7c0.2-0.2,0.5-0.2,0.7-0.1l5.3,4.6
	c0.2,0.2,0.2,0.5,0.1,0.7C35.2,15.4,35.1,15.5,35,15.5z"/>
<path style="fill:#66798F;" d="M31.6,19.5c-0.1,0-0.3-0.1-0.4-0.2l-5.5-6.2c-0.2-0.2-0.2-0.5,0-0.7c0.2-0.2,0.5-0.2,0.7,0l5.5,6.2
	c0.2,0.2,0.2,0.5,0,0.7C31.9,19.5,31.7,19.5,31.6,19.5z"/>
<path style="fill:#66798F;" d="M26.9,22.9c-0.2,0-0.4-0.1-0.4-0.3l-3.8-7.3c-0.1-0.2,0-0.5,0.2-0.7c0.2-0.1,0.5,0,0.7,0.2l3.8,7.3
	c0.1,0.2,0,0.5-0.2,0.7C27.1,22.8,27,22.9,26.9,22.9z"/>
<path style="fill:#66798F;" d="M14.6,24.9C14.6,24.9,14.6,24.9,14.6,24.9c-0.4-0.1-0.5-0.3-0.5-0.6l1.4-7.3c0.1-0.3,0.3-0.5,0.6-0.4
	c0.3,0.1,0.5,0.3,0.4,0.6l-1.4,7.3C15.1,24.8,14.9,24.9,14.6,24.9z"/>
<path style="fill:#66798F;" d="M1,15.5c-0.1,0-0.3-0.1-0.4-0.2c-0.2-0.2-0.2-0.5,0.1-0.7L6,10c0.2-0.2,0.5-0.2,0.7,0.1
	c0.2,0.2,0.2,0.5-0.1,0.7l-5.3,4.6C1.3,15.5,1.1,15.5,1,15.5z"/>
<path style="fill:#66798F;" d="M4.4,19.5c-0.1,0-0.2,0-0.3-0.1c-0.2-0.2-0.2-0.5,0-0.7l5.5-6.2c0.2-0.2,0.5-0.2,0.7,0
	c0.2,0.2,0.2,0.5,0,0.7l-5.5,6.2C4.7,19.5,4.5,19.5,4.4,19.5z"/>
<path style="fill:#66798F;" d="M9.1,22.9c-0.1,0-0.2,0-0.2-0.1c-0.2-0.1-0.3-0.4-0.2-0.7l3.8-7.3c0.1-0.2,0.4-0.3,0.7-0.2
	c0.2,0.1,0.3,0.4,0.2,0.7l-3.8,7.3C9.4,22.8,9.2,22.9,9.1,22.9z"/>
<g>
	<ellipse style="fill:#FFEEA3;" cx="18" cy="11" rx="17.4" ry="10.5"/>
	<g>
		<path style="fill:#BA9B48;" d="M18,1c8,0,14.9,7.8,16.7,10C32.9,13.2,26,21,18,21S3.1,13.2,1.3,11C3.1,8.8,10,1,18,1 M18,0
			C8.1,0,0,11,0,11s8.1,11,18,11s18-11,18-11S27.9,0,18,0L18,0z"/>
	</g>
</g>
</svg>
