<?xml version="1.0" encoding="iso-8859-1"?>
<!-- Generator: Adobe Illustrator 22.0.1, SVG Export Plug-In . SVG Version: 6.00 Build 0)  -->
<svg version="1.1" id="Layer_1" xmlns="http://www.w3.org/2000/svg" xmlns:xlink="http://www.w3.org/1999/xlink" x="0px" y="0px"
	 viewBox="0 0 36 36" style="enable-background:new 0 0 36 36;" xml:space="preserve">
<g>
	<circle style="fill:#8BB7F0;" cx="18" cy="18" r="17.5"/>
	<g>
		<path style="fill:#4E7AB5;" d="M18,1c9.374,0,17,7.626,17,17s-7.626,17-17,17S1,27.374,1,18S8.626,1,18,1 M18,0
			C8.059,0,0,8.059,0,18c0,9.941,8.059,18,18,18s18-8.059,18-18C36,8.059,27.941,0,18,0L18,0z"/>
	</g>
</g>
<path style="fill:#FFFFFF;" d="M16.316,21.677c-0.081-0.211-0.255-0.716-0.255-1.458c0-3.518,3.634-3.645,3.634-6.284
	c0-0.251-0.11-1.75-1.92-1.75c-1.899,0-3.294,1.057-3.901,1.592v-3.658C14.497,9.745,15.897,9,18.2,9c5.265,0,5.336,3.622,5.336,4.4
	c0,4.202-4.315,4.403-4.315,7.171c0,0.581,0.203,0.968,0.292,1.106H16.316z M18.091,27c-0.911,0-2.261-0.602-2.261-2.018
	c0-0.746,0.565-1.993,2.261-1.993c1.654,0,2.224,1.226,2.224,1.993C20.315,25.815,19.723,27,18.091,27z"/>
</svg>
