<?xml version="1.0" encoding="iso-8859-1"?>
<!-- Generator: Adobe Illustrator 22.0.1, SVG Export Plug-In . SVG Version: 6.00 Build 0)  -->
<svg version="1.1" id="Layer_1" xmlns="http://www.w3.org/2000/svg" xmlns:xlink="http://www.w3.org/1999/xlink" x="0px" y="0px"
	 viewBox="0 0 36 36" style="enable-background:new 0 0 36 36;" xml:space="preserve">
<g>
	<circle style="fill:#F78F8F;" cx="18" cy="18" r="17.5"/>
	<g>
		<path style="fill:#C74343;" d="M18,1c9.374,0,17,7.626,17,17s-7.626,17-17,17S1,27.374,1,18S8.626,1,18,1 M18,0
			C8.059,0,0,8.059,0,18c0,9.941,8.059,18,18,18s18-8.059,18-18C36,8.059,27.941,0,18,0L18,0z"/>
	</g>
</g>
<path style="fill:#FFFFFF;" d="M18.181,27c-0.659,0-1.202-0.2-1.631-0.599c-0.428-0.399-0.642-0.883-0.642-1.452
	c0-0.593,0.216-1.079,0.649-1.458s0.974-0.568,1.625-0.568c0.659,0,1.198,0.191,1.618,0.574c0.42,0.383,0.63,0.867,0.63,1.452
	c0,0.593-0.208,1.083-0.624,1.47C19.39,26.806,18.849,27,18.181,27z M20.208,9l-0.482,12.206h-3.163L16.106,9H20.208z"/>
</svg>
