<?xml version="1.0" encoding="iso-8859-1"?>
<!-- Generator: Adobe Illustrator 22.0.1, SVG Export Plug-In . SVG Version: 6.00 Build 0)  -->
<svg version="1.1" id="Layer_1" xmlns="http://www.w3.org/2000/svg" xmlns:xlink="http://www.w3.org/1999/xlink" x="0px" y="0px"
	 viewBox="0 0 30 36" style="enable-background:new 0 0 30 36;" xml:space="preserve">
<g>
	<g>
		<path style="fill:#F2FAFF;" d="M3.5,32.5V29c0-4.573,2.713-8.711,6.911-10.542L11.462,18l-1.051-0.458
			C6.213,15.711,3.5,11.573,3.5,7V3.5h23V7c0,4.573-2.713,8.711-6.911,10.542L18.538,18l1.051,0.458
			C23.787,20.289,26.5,24.427,26.5,29v3.5H3.5z"/>
	</g>
	<g>
		<path style="fill:#788B9C;" d="M26,4v3c0,4.374-2.595,8.332-6.61,10.083L17.287,18l2.102,0.917C23.405,20.668,26,24.626,26,29v3H4
			v-3c0-4.374,2.595-8.332,6.61-10.083L12.713,18l-2.102-0.917C6.595,15.332,4,11.374,4,7V4H26 M27,3H3v4
			c0,4.924,2.968,9.15,7.211,11C5.968,19.85,3,24.076,3,29v4h24v-4c0-4.924-2.968-9.15-7.211-11C24.032,16.15,27,11.924,27,7V3L27,3
			z"/>
	</g>
</g>
<g>
	<g>
		<polygon style="fill:#8BB7F0;" points="3.5,5.5 3.5,3.5 0.5,3.5 0.5,0.5 29.5,0.5 29.5,3.5 26.5,3.5 26.5,5.5 		"/>
	</g>
	<g>
		<path style="fill:#4E7AB5;" d="M29,1v2h-2h-1v1v1H4V4V3H3H1V1H29 M30,0H0v4h3v2h24V4h3V0L30,0z"/>
	</g>
</g>
<g>
	<path style="fill:#D98B57;" d="M6,32h18c0-7.698-9-10.286-9-10.286S6,24.356,6,32z"/>
</g>
<g>
	<path style="fill:#D98B57;" d="M7,10.319C8.174,13.621,11.295,16,15,16s6.826-2.379,8-5.681H7z"/>
</g>
<g>
	<g>
		<polygon style="fill:#8BB7F0;" points="0.5,35.5 0.5,32.5 3.5,32.5 3.5,30.5 26.5,30.5 26.5,32.5 29.5,32.5 29.5,35.5 		"/>
	</g>
	<g>
		<path style="fill:#4E7AB5;" d="M26,31v1v1h1h2v2H1v-2h2h1v-1v-1H26 M27,30H3v2H0v4h30v-4h-3V30L27,30z"/>
	</g>
</g>
</svg>
