<?xml version="1.0" encoding="iso-8859-1"?>
<!-- Generator: Adobe Illustrator 22.0.1, SVG Export Plug-In . SVG Version: 6.00 Build 0)  -->
<svg version="1.1" id="Layer_1" xmlns="http://www.w3.org/2000/svg" xmlns:xlink="http://www.w3.org/1999/xlink" x="0px" y="0px"
	 viewBox="0 0 36 36" style="enable-background:new 0 0 36 36;" xml:space="preserve">
<polygon style="fill:#36404D;" points="20,17.25 18.75,16 0,34.75 0,36 1.25,36 "/>
<g>
	<path style="fill:#F78F8F;" d="M5.858,14.266c2.07-1.897,4.739-2.936,7.57-2.936c0.973,0,1.942,0.125,2.882,0.372l0.33,0.087
		l8.053-11.022l10.541,10.541L24.211,19.36l0.087,0.33c0.972,3.699-0.01,7.656-2.563,10.452L5.858,14.266z"/>
	<path style="fill:#C74343;" d="M24.753,1.533l9.715,9.715l-10.276,7.508l-0.551,0.402l0.173,0.659
		c0.884,3.363,0.078,6.951-2.105,9.592L6.59,14.29c1.917-1.593,4.31-2.46,6.838-2.46c0.93,0,1.857,0.12,2.755,0.356l0.659,0.173
		l0.402-0.551L24.753,1.533 M24.634,0l-8.197,11.219c-0.985-0.259-1.997-0.389-3.009-0.389c-2.999,0-5.996,1.139-8.285,3.428
		l16.599,16.599c3.061-3.061,4.066-7.39,3.039-11.294L36,11.366L24.634,0L24.634,0z"/>
</g>
</svg>
