<?xml version="1.0" encoding="iso-8859-1"?>
<!-- Generator: Adobe Illustrator 22.0.1, SVG Export Plug-In . SVG Version: 6.00 Build 0)  -->
<svg version="1.1" id="Layer_1" xmlns="http://www.w3.org/2000/svg" xmlns:xlink="http://www.w3.org/1999/xlink" x="0px" y="0px"
	 viewBox="0 0 36 32" style="enable-background:new 0 0 36 32;" xml:space="preserve">
<g>
	<path style="fill:#BDB2DE;" d="M27.541,29.5c-0.833,0-1.616-0.325-2.205-0.914L8.142,11.393l4.598-4.598L35.444,29.5H27.541z"/>
	<g>
		<path style="fill:#8B75A1;" d="M12.739,7.502L34.237,29h-6.696c-0.7,0-1.357-0.272-1.852-0.767l-16.84-16.84L12.739,7.502
			 M12.739,6.088l-5.305,5.305L24.982,28.94c0.679,0.679,1.599,1.06,2.559,1.06H36v-0.651L12.739,6.088L12.739,6.088z"/>
	</g>
</g>
<polygon style="fill:#8B75A1;" points="18.758,21.862 23.209,17.411 17.828,12.031 14.579,17.683 "/>
<g>
	<g>
		<path style="fill:#F78F8F;" d="M7,13.5c-3.584,0-6.5-2.916-6.5-6.5S3.416,0.5,7,0.5s6.5,2.916,6.5,6.5S10.584,13.5,7,13.5z M7,3.5
			C5.07,3.5,3.5,5.07,3.5,7s1.57,3.5,3.5,3.5s3.5-1.57,3.5-3.5S8.93,3.5,7,3.5z"/>
	</g>
	<g>
		<path style="fill:#C74343;" d="M7,1c3.308,0,6,2.692,6,6c0,3.308-2.692,6-6,6s-6-2.692-6-6C1,3.692,3.692,1,7,1 M7,11
			c2.206,0,4-1.794,4-4S9.206,3,7,3S3,4.794,3,7S4.794,11,7,11 M7,0C3.134,0,0,3.134,0,7c0,3.866,3.134,7,7,7s7-3.134,7-7
			C14,3.134,10.866,0,7,0L7,0z M7,10c-1.657,0-3-1.343-3-3c0-1.657,1.343-3,3-3c1.657,0,3,1.343,3,3C10,8.657,8.657,10,7,10L7,10z"
			/>
	</g>
</g>
<g>
	<path style="fill:#DCD5F2;" d="M8.36,20.285l16.86-16.86C25.809,2.837,26.622,2.5,27.453,2.5h7.998L13.014,24.938L8.36,20.285z"/>
	<g>
		<path style="fill:#8B75A1;" d="M34.244,3l-21.23,21.23l-3.946-3.946L25.574,3.778C26.076,3.276,26.743,3,27.453,3H34.244 M36,2
			h-8.547c-0.97,0-1.9,0.385-2.586,1.071L7.654,20.284l5.36,5.36L36,2.658V2L36,2z"/>
	</g>
</g>
<g>
	<g>
		<path style="fill:#F78F8F;" d="M7,31.5c-3.584,0-6.5-2.916-6.5-6.5s2.916-6.5,6.5-6.5s6.5,2.916,6.5,6.5S10.584,31.5,7,31.5z
			 M7,21.5c-1.93,0-3.5,1.57-3.5,3.5s1.57,3.5,3.5,3.5s3.5-1.57,3.5-3.5S8.93,21.5,7,21.5z"/>
	</g>
	<g>
		<path style="fill:#C74343;" d="M7,19c3.308,0,6,2.692,6,6c0,3.308-2.692,6-6,6s-6-2.692-6-6C1,21.692,3.692,19,7,19 M7,29
			c2.206,0,4-1.794,4-4s-1.794-4-4-4s-4,1.794-4,4S4.794,29,7,29 M7,18c-3.866,0-7,3.134-7,7c0,3.866,3.134,7,7,7s7-3.134,7-7
			C14,21.134,10.866,18,7,18L7,18z M7,28c-1.657,0-3-1.343-3-3c0-1.657,1.343-3,3-3c1.657,0,3,1.343,3,3C10,26.657,8.657,28,7,28
			L7,28z"/>
	</g>
</g>
<circle style="fill:#8B75A1;" cx="17.5" cy="15.5" r="1.5"/>
</svg>
