<?xml version="1.0" encoding="iso-8859-1"?>
<!-- Generator: Adobe Illustrator 22.0.1, SVG Export Plug-In . SVG Version: 6.00 Build 0)  -->
<svg version="1.1" id="Layer_1" xmlns="http://www.w3.org/2000/svg" xmlns:xlink="http://www.w3.org/1999/xlink" x="0px" y="0px"
	 viewBox="0 0 36 25.442" style="enable-background:new 0 0 36 25.442;" xml:space="preserve">
<g>
	<g>
		<path style="fill:#8BB7F0;" d="M12.718,19.453c1.459-1.291,3.316-1.996,5.282-1.996s3.823,0.706,5.282,1.996L18,24.735
			L12.718,19.453z"/>
		<path style="fill:#4E7AB5;" d="M18,17.957c1.662,0,3.242,0.538,4.539,1.532L18,24.028l-4.539-4.539
			C14.758,18.495,16.338,17.957,18,17.957 M18,16.957c-2.343,0-4.465,0.95-6,2.485l6,6l6-6C22.465,17.906,20.343,16.957,18,16.957
			L18,16.957z"/>
	</g>
	<g>
		<path style="fill:#8BB7F0;" d="M0.711,7.446C5.381,2.953,11.501,0.486,18,0.486s12.619,2.467,17.289,6.959l-2.3,2.3
			C28.928,5.862,23.625,3.729,18,3.729c-5.624,0-10.927,2.133-14.989,6.017L0.711,7.446z"/>
		<path style="fill:#4E7AB5;" d="M18,0.986c6.198,0,12.044,2.29,16.572,6.47L32.978,9.05C28.871,5.289,23.591,3.229,18,3.229
			c-5.591,0-10.871,2.06-14.977,5.821L1.428,7.456C5.956,3.276,11.802,0.986,18,0.986 M18-0.014c-7.029,0-13.393,2.849-18,7.456
			l3.007,3.007C6.848,6.608,12.152,4.229,18,4.229s11.152,2.379,14.993,6.22L36,7.442C31.393,2.836,25.029-0.014,18-0.014L18-0.014z
			"/>
	</g>
	<g>
		<path style="fill:#8BB7F0;" d="M26.989,15.745c-2.455-2.281-5.628-3.531-8.989-3.531s-6.534,1.25-8.989,3.531l-2.299-2.298
			C9.779,10.557,13.768,8.972,18,8.972s8.221,1.585,11.288,4.476L26.989,15.745z"/>
		<path style="fill:#4E7AB5;" d="M18,9.471c3.931,0,7.645,1.411,10.564,3.992l-1.594,1.594c-2.495-2.163-5.644-3.343-8.971-3.343
			s-6.476,1.18-8.971,3.343l-1.593-1.594C10.355,10.882,14.069,9.471,18,9.471 M18,8.471c-4.686,0-8.929,1.899-12,4.97l3.004,3.004
			c2.305-2.305,5.487-3.732,8.996-3.732s6.691,1.428,8.996,3.732L30,13.442C26.929,10.371,22.686,8.471,18,8.471L18,8.471z"/>
	</g>
</g>
</svg>
