<?xml version="1.0" encoding="iso-8859-1"?>
<!-- Generator: Adobe Illustrator 22.0.1, SVG Export Plug-In . SVG Version: 6.00 Build 0)  -->
<svg version="1.1" id="Layer_1" xmlns="http://www.w3.org/2000/svg" xmlns:xlink="http://www.w3.org/1999/xlink" x="0px" y="0px"
	 viewBox="0 0 36 32" style="enable-background:new 0 0 36 32;" xml:space="preserve">
<g>
	<g>
		<path style="fill:#8BB7F0;" d="M30.5,31.5V16c0-1.378-1.121-2.5-2.5-2.5H14.5V21L1.166,11L14.5,1v7.5H28
			c4.136,0,7.5,3.364,7.5,7.5v15.5H30.5z"/>
	</g>
	<g>
		<path style="fill:#4E7AB5;" d="M14,2v6v1h1h13c3.86,0,7,3.14,7,7v15h-4V16c0-1.654-1.346-3-3-3H15h-1v1v6L2,11L14,2 M15,0
			L0.333,11L15,22v-8h13c1.105,0,2,0.895,2,2v16h6V16c0-4.418-3.582-8-8-8H15V0L15,0z"/>
	</g>
</g>
</svg>
