<?xml version="1.0" encoding="iso-8859-1"?>
<!-- Generator: Adobe Illustrator 22.0.1, SVG Export Plug-In . SVG Version: 6.00 Build 0)  -->
<svg version="1.1" id="Layer_1" xmlns="http://www.w3.org/2000/svg" xmlns:xlink="http://www.w3.org/1999/xlink" x="0px" y="0px"
	 viewBox="0 0 36 32" style="enable-background:new 0 0 36 32;" xml:space="preserve">
<g>
	<g>
		<path style="fill:#8BB7F0;" d="M0.5,31.5V16c0-4.136,3.364-7.5,7.5-7.5h13.5V1l13.334,10L21.5,21v-7.5H8
			c-1.379,0-2.5,1.122-2.5,2.5v15.5H0.5z"/>
	</g>
	<g>
		<path style="fill:#4E7AB5;" d="M22,2l12,9l-12,9v-6v-1h-1H8c-1.654,0-3,1.346-3,3v15H1V16c0-3.86,3.14-7,7-7h13h1V8V2 M21,0v8H8
			c-4.418,0-8,3.582-8,8v16h6V16c0-1.105,0.895-2,2-2h13v8l14.667-11L21,0L21,0z"/>
	</g>
</g>
</svg>
