<?xml version="1.0" encoding="iso-8859-1"?>
<!-- Generator: Adobe Illustrator 22.0.1, SVG Export Plug-In . SVG Version: 6.00 Build 0)  -->
<svg version="1.1" id="Layer_1" xmlns="http://www.w3.org/2000/svg" xmlns:xlink="http://www.w3.org/1999/xlink" x="0px" y="0px"
	 viewBox="0 0 36 36" style="enable-background:new 0 0 36 36;" xml:space="preserve">
<g>
	<g>
		<polygon style="fill:#8BB7F0;" points="12.4,28.5 15.5,28.5 15.5,20.5 7.5,20.5 7.5,23.599 0.781,18 7.5,12.401 7.5,15.5 
			15.5,15.5 15.5,7.5 12.4,7.5 18,0.781 23.6,7.5 20.5,7.5 20.5,15.5 28.5,15.5 28.5,12.401 35.219,18 28.5,23.599 28.5,20.5 
			20.5,20.5 20.5,28.5 23.6,28.5 18,35.219 		"/>
	</g>
	<g>
		<path style="fill:#4E7AB5;" d="M18,1.562L22.532,7H21h-1v1v7v1h1h7h1v-1v-1.532L34.438,18L29,22.532V21v-1h-1h-7h-1v1v7v1h1h1.532
			L18,34.438L13.468,29H15h1v-1v-7v-1h-1H8H7v1v1.532L1.562,18L7,13.468V15v1h1h7h1v-1V8V7h-1h-1.532L18,1.562 M18,0l-6.667,8H15v7
			H8v-3.667L0,18l8,6.667V21h7v7h-3.667L18,36l6.667-8H21v-7h7v3.667L36,18l-8-6.667V15h-7V8h3.667L18,0L18,0z"/>
	</g>
</g>
</svg>
