<?xml version="1.0" encoding="iso-8859-1"?>
<!-- Generator: Adobe Illustrator 22.0.1, SVG Export Plug-In . SVG Version: 6.00 Build 0)  -->
<svg version="1.1" id="Layer_1" xmlns="http://www.w3.org/2000/svg" xmlns:xlink="http://www.w3.org/1999/xlink" x="0px" y="0px"
	 viewBox="0 0 36 31.996" style="enable-background:new 0 0 36 31.996;" xml:space="preserve">
<g>
	<path style="fill:#FFEEA3;" d="M2.093,31.496c-0.575,0-1.089-0.297-1.376-0.794c-0.288-0.498-0.288-1.092,0-1.59L16.624,1.559
		C16.911,1.062,17.425,0.764,18,0.764s1.089,0.297,1.376,0.795l15.907,27.552c0.288,0.498,0.288,1.092,0,1.59
		c-0.288,0.498-0.802,0.794-1.376,0.794H2.093z"/>
	<path style="fill:#BA9B48;" d="M18,1.264c0.189,0,0.66,0.053,0.944,0.545l15.907,27.552c0.284,0.492,0.095,0.926,0,1.09
		c-0.095,0.164-0.376,0.545-0.944,0.545H2.093c-0.568,0-0.849-0.381-0.944-0.545c-0.095-0.164-0.284-0.598,0-1.09L17.056,1.809
		C17.34,1.318,17.811,1.264,18,1.264 M18,0.264c-0.704,0-1.408,0.348-1.81,1.045L0.283,28.861c-0.804,1.393,0.201,3.135,1.81,3.135
		h31.814c1.609,0,2.614-1.741,1.81-3.135L19.81,1.309C19.408,0.613,18.704,0.264,18,0.264L18,0.264z"/>
</g>
<path style="fill:#36404D;" d="M18.069,26.853c-0.565,0-1.031-0.171-1.398-0.514s-0.551-0.757-0.551-1.244
	c0-0.508,0.185-0.925,0.556-1.25s0.835-0.487,1.392-0.487c0.565,0,1.027,0.164,1.387,0.492s0.54,0.743,0.54,1.244
	c0,0.508-0.178,0.928-0.535,1.26C19.105,26.687,18.641,26.853,18.069,26.853z M19.806,11.425l-0.413,10.462h-2.711L16.29,11.425
	H19.806z"/>
</svg>
