<?xml version="1.0" encoding="iso-8859-1"?>
<!-- Generator: Adobe Illustrator 22.0.1, SVG Export Plug-In . SVG Version: 6.00 Build 0)  -->
<svg version="1.1" id="Layer_1" xmlns="http://www.w3.org/2000/svg" xmlns:xlink="http://www.w3.org/1999/xlink" x="0px" y="0px"
	 viewBox="0 0 36 36" style="enable-background:new 0 0 36 36;" xml:space="preserve">
<g>
	<circle style="fill:#8BB7F0;" cx="18" cy="18" r="17.5"/>
	<g>
		<path style="fill:#4E7AB5;" d="M18,1c9.374,0,17,7.626,17,17c0,9.374-7.626,17-17,17S1,27.374,1,18C1,8.626,8.626,1,18,1 M18,0
			C8.059,0,0,8.059,0,18s8.059,18,18,18s18-8.059,18-18S27.941,0,18,0L18,0z"/>
	</g>
</g>
<g>
	<path style="fill:#FFFFFF;" d="M17.847,26.525c-3.857,0-5.786-2.708-5.786-8.125c0-2.81,0.521-4.951,1.566-6.424
		c1.042-1.473,2.555-2.21,4.536-2.21c3.767,0,5.65,2.753,5.65,8.26c0,2.742-0.514,4.844-1.543,6.306
		C21.243,25.795,19.768,26.525,17.847,26.525z M18.005,12.491c-1.544,0-2.317,1.94-2.317,5.82c0,3.654,0.757,5.481,2.271,5.481
		c1.477,0,2.215-1.883,2.215-5.65S19.451,12.491,18.005,12.491z"/>
</g>
</svg>
