<?xml version="1.0" encoding="iso-8859-1"?>
<!-- Generator: Adobe Illustrator 22.0.1, SVG Export Plug-In . SVG Version: 6.00 Build 0)  -->
<svg version="1.1" id="Layer_1" xmlns="http://www.w3.org/2000/svg" xmlns:xlink="http://www.w3.org/1999/xlink" x="0px" y="0px"
	 viewBox="0 0 36 36" style="enable-background:new 0 0 36 36;" xml:space="preserve">
<g>
	<circle style="fill:#8BB7F0;" cx="18" cy="18" r="17.5"/>
	<g>
		<path style="fill:#4E7AB5;" d="M18,1c9.374,0,17,7.626,17,17c0,9.374-7.626,17-17,17S1,27.374,1,18C1,8.626,8.626,1,18,1 M18,0
			C8.059,0,0,8.059,0,18s8.059,18,18,18s18-8.059,18-18S27.941,0,18,0L18,0z"/>
	</g>
</g>
<g>
	<path style="fill:#FFFFFF;" d="M20.683,9.677v16.566h-3.56V13.7c-0.196,0.173-1.489,1.175-3.447,1.413v-3.006
		c1.982-0.503,4.185-1.925,4.848-2.43H20.683z"/>
</g>
</svg>
