<?xml version="1.0" encoding="iso-8859-1"?>
<!-- Generator: Adobe Illustrator 22.0.1, SVG Export Plug-In . SVG Version: 6.00 Build 0)  -->
<svg version="1.1" id="Layer_1" xmlns="http://www.w3.org/2000/svg" xmlns:xlink="http://www.w3.org/1999/xlink" x="0px" y="0px"
	 viewBox="0 0 36 36" style="enable-background:new 0 0 36 36;" xml:space="preserve">
<g>
	<circle style="fill:#8BB7F0;" cx="18" cy="18" r="17.5"/>
	<g>
		<path style="fill:#4E7AB5;" d="M18,1c9.374,0,17,7.626,17,17c0,9.374-7.626,17-17,17S1,27.374,1,18C1,8.626,8.626,1,18,1 M18,0
			C8.059,0,0,8.059,0,18s8.059,18,18,18s18-8.059,18-18S27.941,0,18,0L18,0z"/>
	</g>
</g>
<g>
	<path style="fill:#FFFFFF;" d="M16.129,23.282H23v2.961h-10.78v-1.22c0-5.67,7.164-6.746,7.164-10.306
		c0-1.924-1.578-2.102-2.384-2.102c-1.394,0-2.727,0.554-4,1.661v-3.141c1.409-0.912,2.998-1.367,4.769-1.367
		c5.128,0,5.255,3.899,5.255,4.599C23.022,19.526,16.544,20.672,16.129,23.282z"/>
</g>
</svg>
