<?xml version="1.0" encoding="iso-8859-1"?>
<!-- Generator: Adobe Illustrator 22.0.1, SVG Export Plug-In . SVG Version: 6.00 Build 0)  -->
<svg version="1.1" id="Layer_1" xmlns="http://www.w3.org/2000/svg" xmlns:xlink="http://www.w3.org/1999/xlink" x="0px" y="0px"
	 viewBox="0 0 36 36" style="enable-background:new 0 0 36 36;" xml:space="preserve">
<g>
	<circle style="fill:#8BB7F0;" cx="18" cy="18" r="17.5"/>
	<g>
		<path style="fill:#4E7AB5;" d="M18,1c9.374,0,17,7.626,17,17c0,9.374-7.626,17-17,17C8.626,35,1,27.374,1,18C1,8.626,8.626,1,18,1
			 M18,0C8.059,0,0,8.059,0,18s8.059,18,18,18s18-8.059,18-18S27.941,0,18,0L18,0z"/>
	</g>
</g>
<g>
	<path style="fill:#FFFFFF;" d="M12.604,25.712v-3.108c1.085,0.791,2.35,1.187,3.797,1.187c0.912,0,1.621-0.196,2.131-0.588
		c0.507-0.392,0.762-0.938,0.762-1.639c0-0.723-0.315-1.281-0.943-1.672c-0.63-0.392-1.494-0.588-2.594-0.588h-1.503V16.57h1.39
		c2.109,0,3.164-0.701,3.164-2.102c0-1.318-0.81-1.978-2.43-1.978c-1.085,0-2.14,0.35-3.164,1.051v-2.915
		c1.138-0.573,2.463-0.859,3.978-0.859c1.657,0,2.947,0.373,3.871,1.119c0.922,0.746,1.384,1.714,1.384,2.904
		c0,2.117-1.074,3.443-3.221,3.978v0.057c1.145,0.143,2.049,0.559,2.712,1.249c0.663,0.688,0.994,1.534,0.994,2.536
		c0,1.514-0.554,2.712-1.661,3.593c-1.107,0.881-2.637,1.322-4.588,1.322C15.01,26.525,13.651,26.254,12.604,25.712z"/>
</g>
</svg>
