<?xml version="1.0" encoding="iso-8859-1"?>
<!-- Generator: Adobe Illustrator 22.0.1, SVG Export Plug-In . SVG Version: 6.00 Build 0)  -->
<svg version="1.1" id="Layer_1" xmlns="http://www.w3.org/2000/svg" xmlns:xlink="http://www.w3.org/1999/xlink" x="0px" y="0px"
	 viewBox="0 0 36 36" style="enable-background:new 0 0 36 36;" xml:space="preserve">
<g>
	<circle style="fill:#8BB7F0;" cx="18" cy="18" r="17.5"/>
	<g>
		<path style="fill:#4E7AB5;" d="M18,1c9.374,0,17,7.626,17,17c0,9.374-7.626,17-17,17S1,27.374,1,18C1,8.626,8.626,1,18,1 M18,0
			C8.059,0,0,8.059,0,18s8.059,18,18,18s18-8.059,18-18S27.941,0,18,0L18,0z"/>
	</g>
</g>
<g>
	<path style="fill:#FFFFFF;" d="M22.038,10.038v10.215h1.944v2.667h-1.944v3.322h-3.254v-3.322h-7.061v-2.791
		c0.625-0.701,1.273-1.467,1.944-2.299c0.67-0.832,1.318-1.69,1.944-2.571c0.625-0.881,1.205-1.768,1.745-2.662
		c0.537-0.891,0.997-1.745,1.374-2.559H22.038z M14.919,20.254h3.865v-5.661c-0.264,0.49-0.55,0.986-0.859,1.485
		c-0.309,0.502-0.633,0.994-0.972,1.482c-0.339,0.485-0.681,0.957-1.027,1.411C15.579,19.428,15.243,19.854,14.919,20.254z"/>
</g>
</svg>
