<?xml version="1.0" encoding="iso-8859-1"?>
<!-- Generator: Adobe Illustrator 22.0.1, SVG Export Plug-In . SVG Version: 6.00 Build 0)  -->
<svg version="1.1" id="Layer_1" xmlns="http://www.w3.org/2000/svg" xmlns:xlink="http://www.w3.org/1999/xlink" x="0px" y="0px"
	 viewBox="0 0 36 36" style="enable-background:new 0 0 36 36;" xml:space="preserve">
<g>
	<circle style="fill:#8BB7F0;" cx="18" cy="18" r="17.5"/>
	<g>
		<path style="fill:#4E7AB5;" d="M18,1c9.374,0,17,7.626,17,17c0,9.374-7.626,17-17,17S1,27.374,1,18C1,8.626,8.626,1,18,1 M18,0
			C8.059,0,0,8.059,0,18s8.059,18,18,18s18-8.059,18-18S27.941,0,18,0L18,0z"/>
	</g>
</g>
<g>
	<path style="fill:#FFFFFF;" d="M12.885,25.825v-3.051c1.107,0.678,2.288,1.017,3.538,1.017c0.942,0,1.677-0.223,2.207-0.672
		c0.532-0.448,0.799-1.057,0.799-1.826c0-1.605-1.135-2.407-3.403-2.407c-0.836,0-1.801,0.064-2.893,0.192l0.61-9.04h8.578v2.915
		h-5.854l-0.226,3.243c0.58-0.045,1.08-0.068,1.502-0.068c1.665,0,2.968,0.437,3.91,1.311c0.942,0.874,1.414,2.049,1.414,3.526
		c0,1.635-0.562,2.971-1.685,4.007c-1.122,1.036-2.644,1.553-4.565,1.553C15.258,26.525,13.947,26.292,12.885,25.825z"/>
</g>
</svg>
