<?xml version="1.0" encoding="iso-8859-1"?>
<!-- Generator: Adobe Illustrator 22.0.1, SVG Export Plug-In . SVG Version: 6.00 Build 0)  -->
<svg version="1.1" id="Layer_1" xmlns="http://www.w3.org/2000/svg" xmlns:xlink="http://www.w3.org/1999/xlink" x="0px" y="0px"
	 viewBox="0 0 36 36" style="enable-background:new 0 0 36 36;" xml:space="preserve">
<g>
	<circle style="fill:#8BB7F0;" cx="18" cy="18" r="17.5"/>
	<g>
		<path style="fill:#4E7AB5;" d="M18,1c9.374,0,17,7.626,17,17c0,9.374-7.626,17-17,17S1,27.374,1,18C1,8.626,8.626,1,18,1 M18,0
			C8.059,0,0,8.059,0,18s8.059,18,18,18s18-8.059,18-18S27.941,0,18,0L18,0z"/>
	</g>
</g>
<g>
	<path style="fill:#FFFFFF;" d="M23.823,20.853c0,1.781-1.163,5.673-5.605,5.673c-0.912,0-5.808-0.175-5.808-7.526
		c0-2.157,0.804-9.232,7.345-9.232c1.251,0,2.222,0.147,2.915,0.441v2.983c-0.821-0.467-1.718-0.701-2.689-0.701
		c-3.794,0-4.03,4.181-4.045,4.927h0.068c0.768-1.062,1.903-1.593,3.403-1.593C20.244,15.824,23.823,16.192,23.823,20.853z
		 M20.333,21.079c0-1.74-0.713-2.61-2.137-2.61c-2.009,0-2.147,2.091-2.147,2.452c0,2.581,1.846,2.87,2.17,2.87
		C18.542,23.791,20.333,23.532,20.333,21.079z"/>
</g>
</svg>
