<?xml version="1.0" encoding="iso-8859-1"?>
<!-- Generator: Adobe Illustrator 22.0.1, SVG Export Plug-In . SVG Version: 6.00 Build 0)  -->
<svg version="1.1" id="Layer_1" xmlns="http://www.w3.org/2000/svg" xmlns:xlink="http://www.w3.org/1999/xlink" x="0px" y="0px"
	 viewBox="0 0 36 36" style="enable-background:new 0 0 36 36;" xml:space="preserve">
<g>
	<circle style="fill:#8BB7F0;" cx="18" cy="18" r="17.5"/>
	<g>
		<path style="fill:#4E7AB5;" d="M18,1c9.374,0,17,7.626,17,17c0,9.374-7.626,17-17,17S1,27.374,1,18C1,8.626,8.626,1,18,1 M18,0
			C8.059,0,0,8.059,0,18s8.059,18,18,18s18-8.059,18-18S27.941,0,18,0L18,0z"/>
	</g>
</g>
<g>
	<path style="fill:#FFFFFF;" d="M12.184,21.881c0-2.979,2.642-3.944,3.177-4.125c-0.821-0.407-2.589-1.56-2.589-3.684
		c0-1.051,0.699-4.305,5.198-4.305c4.738,0,5.233,3.65,5.233,4.26c0,2.117-1.873,3.243-2.725,3.65
		c0.527,0.181,3.209,1.173,3.209,4.17c0,4.315-4.899,4.656-5.751,4.656C13.653,26.503,12.184,23.82,12.184,21.881z M15.564,21.576
		c0,0.369,0.066,2.373,2.383,2.373c0.347,0,2.386-0.181,2.386-2.373c0-0.324-0.175-2.396-2.386-2.396
		C15.786,19.18,15.564,21.229,15.564,21.576z M16.061,14.4c0,1.77,1.667,2.057,1.931,2.057c1.671,0,1.944-1.77,1.944-2.057
		c0-0.294-0.273-2.068-1.944-2.068C16.203,12.332,16.061,14.114,16.061,14.4z"/>
</g>
</svg>
