<?xml version="1.0" encoding="iso-8859-1"?>
<!-- Generator: Adobe Illustrator 22.0.1, SVG Export Plug-In . SVG Version: 6.00 Build 0)  -->
<svg version="1.1" id="Layer_1" xmlns="http://www.w3.org/2000/svg" xmlns:xlink="http://www.w3.org/1999/xlink" x="0px" y="0px"
	 viewBox="0 0 36 36" style="enable-background:new 0 0 36 36;" xml:space="preserve">
<g>
	<circle style="fill:#8BB7F0;" cx="18" cy="18" r="17.5"/>
	<g>
		<path style="fill:#4E7AB5;" d="M18,1c9.374,0,17,7.626,17,17s-7.626,17-17,17S1,27.374,1,18S8.626,1,18,1 M18,0
			C8.059,0,0,8.059,0,18s8.059,18,18,18s18-8.059,18-18S27.941,0,18,0L18,0z"/>
	</g>
</g>
<g>
	<path style="fill:#FFFFFF;" d="M23.565,17.362c0,8.952-5.944,9.163-7.051,9.163c-1.326,0-2.467-0.211-3.424-0.633v-2.938
		c0.851,0.557,1.876,0.836,3.074,0.836c3.5,0,3.925-3.3,3.932-4.882l-0.068-0.023c-0.716,1.062-1.804,1.595-3.266,1.595
		c-0.663,0-4.599-0.395-4.599-4.995c0-1.628,0.805-5.718,5.718-5.718C23.376,9.768,23.565,16.164,23.565,17.362z M19.96,15.464
		c0-0.563-0.254-2.973-2.181-2.973c-0.969,0-2.124,0.827-2.124,2.689c0,1.053,0.383,2.644,2.204,2.644
		C18.664,17.824,19.96,17.199,19.96,15.464z"/>
</g>
</svg>
