<?xml version="1.0" encoding="iso-8859-1"?>
<!-- Generator: Adobe Illustrator 22.0.1, SVG Export Plug-In . SVG Version: 6.00 Build 0)  -->
<svg version="1.1" id="Layer_1" xmlns="http://www.w3.org/2000/svg" xmlns:xlink="http://www.w3.org/1999/xlink" x="0px" y="0px"
	 viewBox="0 0 14 14" style="enable-background:new 0 0 14 14;" xml:space="preserve">
<path d="M7,0C3.134,0,0,3.134,0,7c0,3.866,3.134,7,7,7s7-3.134,7-7C14,3.134,10.866,0,7,0z M9.707,8.293
	c0.391,0.391,0.391,1.023,0,1.414C9.512,9.902,9.256,10,9,10S8.488,9.902,8.293,9.707L7,8.414L5.707,9.707
	C5.512,9.902,5.256,10,5,10S4.488,9.902,4.293,9.707c-0.391-0.391-0.391-1.023,0-1.414L5.586,7L4.293,5.707
	c-0.391-0.391-0.391-1.023,0-1.414s1.023-0.391,1.414,0L7,5.586l1.293-1.293c0.391-0.391,1.023-0.391,1.414,0s0.391,1.023,0,1.414
	L8.414,7L9.707,8.293z"/>
</svg>
