<?xml version="1.0" encoding="iso-8859-1"?>
<!-- Generator: Adobe Illustrator 22.0.1, SVG Export Plug-In . SVG Version: 6.00 Build 0)  -->
<svg version="1.1" id="Layer_1" xmlns="http://www.w3.org/2000/svg" xmlns:xlink="http://www.w3.org/1999/xlink" x="0px" y="0px"
	 viewBox="0 0 12 12" style="enable-background:new 0 0 12 12;" xml:space="preserve">
<path d="M8.828,6l2.586-2.586c0.781-0.781,0.781-2.047,0-2.828c-0.781-0.781-2.047-0.781-2.828,0L6,3.172L3.414,0.586
	c-0.781-0.781-2.047-0.781-2.828,0c-0.781,0.781-0.781,2.047,0,2.828L3.172,6L0.586,8.586c-0.781,0.781-0.781,2.047,0,2.828
	c0.781,0.781,2.047,0.781,2.828,0L6,8.828l2.586,2.586c0.781,0.781,2.047,0.781,2.828,0c0.781-0.781,0.781-2.047,0-2.828L8.828,6z"
	/>
</svg>
