<?xml version="1.0" encoding="iso-8859-1"?>
<!-- Generator: Adobe Illustrator 22.0.1, SVG Export Plug-In . SVG Version: 6.00 Build 0)  -->
<svg version="1.1" id="Layer_1" xmlns="http://www.w3.org/2000/svg" xmlns:xlink="http://www.w3.org/1999/xlink" x="0px" y="0px"
	 viewBox="0 0 14 14" style="enable-background:new 0 0 14 14;" xml:space="preserve">
<path d="M12.831,10.831L14,12h-4V8l1.392,1.392C11.791,8.664,12,7.851,12,7c0-2.757-2.243-5-5-5S2,4.243,2,7s2.243,5,5,5
	c0.553,0,1,0.448,1,1s-0.447,1-1,1c-3.859,0-7-3.14-7-7s3.141-7,7-7s7,3.14,7,7C14,8.386,13.583,9.691,12.831,10.831z"/>
</svg>
