<?xml version="1.0" encoding="iso-8859-1"?>
<!-- Generator: Adobe Illustrator 22.0.1, SVG Export Plug-In . SVG Version: 6.00 Build 0)  -->
<svg version="1.1" id="Layer_1" xmlns="http://www.w3.org/2000/svg" xmlns:xlink="http://www.w3.org/1999/xlink" x="0px" y="0px"
	 viewBox="0 0 14 14" style="enable-background:new 0 0 14 14;" xml:space="preserve">
<path d="M9,0C6.239,0,4,2.239,4,5c0,0.595,0.122,1.158,0.313,1.687L0,11v2.992L3,14v-2h2l2.313-2.313C7.842,9.878,8.405,10,9,10
	c2.761,0,5-2.239,5-5S11.761,0,9,0z M9.5,6C8.672,6,8,5.328,8,4.5C8,3.672,8.672,3,9.5,3C10.328,3,11,3.672,11,4.5
	C11,5.328,10.328,6,9.5,6z"/>
</svg>
