<?xml version="1.0" encoding="iso-8859-1"?>
<!-- Generator: Adobe Illustrator 22.0.1, SVG Export Plug-In . SVG Version: 6.00 Build 0)  -->
<svg version="1.1" id="Layer_1" xmlns="http://www.w3.org/2000/svg" xmlns:xlink="http://www.w3.org/1999/xlink" x="0px" y="0px"
	 viewBox="0 0 14 14" style="enable-background:new 0 0 14 14;" xml:space="preserve">
<path d="M14,4c0,1.068-0.416,2.073-1.172,2.828l-2,2C10.073,9.584,9.068,10,8,10c-0.598,0-1.176-0.13-1.702-0.378
	c-0.635-0.299-0.791-1.13-0.295-1.626l0.001-0.001c0.305-0.305,0.762-0.364,1.156-0.189c0.739,0.327,1.666,0.196,2.253-0.392
	l1.951-1.951c0.359-0.359,0.6-0.83,0.631-1.336c0.036-0.581-0.174-1.134-0.582-1.542s-0.96-0.618-1.542-0.582
	C9.366,2.035,8.895,2.277,8.537,2.635L8.194,2.978c-0.756-0.33-1.562-0.487-2.367-0.461l1.345-1.345c1.51-1.511,4.145-1.511,5.656,0
	C13.584,1.927,14,2.932,14,4z M5.463,11.403c-0.359,0.359-0.83,0.6-1.336,0.631c-0.581,0.036-1.134-0.174-1.542-0.582
	c-0.408-0.408-0.618-0.96-0.582-1.542c0.031-0.506,0.273-0.977,0.631-1.336l1.951-1.951c0.588-0.588,1.515-0.719,2.253-0.392
	c0.394,0.174,0.851,0.115,1.156-0.19l0.001-0.001c0.496-0.496,0.34-1.327-0.295-1.626C7.176,4.169,6.598,4.038,6,4.038
	c-1.068,0-2.073,0.416-2.828,1.171l-2,2C0.416,7.965,0,8.97,0,10.038s0.416,2.073,1.172,2.828c1.511,1.512,4.146,1.511,5.656,0
	l1.345-1.345c-0.805,0.026-1.611-0.131-2.367-0.461L5.463,11.403z"/>
</svg>
