<?xml version="1.0" encoding="iso-8859-1"?>
<!-- Generator: Adobe Illustrator 22.0.1, SVG Export Plug-In . SVG Version: 6.00 Build 0)  -->
<svg version="1.1" id="Layer_1" xmlns="http://www.w3.org/2000/svg" xmlns:xlink="http://www.w3.org/1999/xlink" x="0px" y="0px"
	 viewBox="0 0 14 14" style="enable-background:new 0 0 14 14;" xml:space="preserve">
<path d="M14,7v5c0,1.105-0.895,2-2,2H2c-1.105,0-2-0.895-2-2V7c0-1.105,0.895-2,2-2c0-2.757,2.243-5,5-5
	c0.925,0,1.83,0.255,2.615,0.738c0.47,0.29,0.617,0.905,0.328,1.376c-0.29,0.47-0.906,0.616-1.376,0.328C8.098,2.153,7.556,2,7,2
	C5.346,2,4,3.346,4,5h8C13.105,5,14,5.895,14,7z"/>
</svg>
