<?xml version="1.0" encoding="iso-8859-1"?>
<!-- Generator: Adobe Illustrator 22.0.1, SVG Export Plug-In . SVG Version: 6.00 Build 0)  -->
<svg version="1.1" id="Layer_1" xmlns="http://www.w3.org/2000/svg" xmlns:xlink="http://www.w3.org/1999/xlink" x="0px" y="0px"
	 viewBox="0 0 12 14" style="enable-background:new 0 0 12 14;" xml:space="preserve">
<path d="M12,4.5C12,3.672,11.329,3,10.501,3c0,0,0,0-0.001,0c-0.001,0-0.003,0-0.004,0c-0.11,0-0.217,0.014-0.321,0.037
	c-0.515,0.08-1.309,0.302-1.984,0.51C7.825,3.66,7.498,3.272,7.684,2.936C7.859,2.618,8,2.277,8,2c0-1.105-0.895-2-2-2S4,0.895,4,2
	c0,0.275,0.139,0.614,0.314,0.931c0.185,0.336-0.142,0.725-0.509,0.611C3.131,3.333,2.34,3.112,1.819,3.036
	C1.717,3.014,1.613,3.001,1.506,3.001C1.504,3.001,1.501,3,1.5,3l0,0C0.672,3,0,3.672,0,4.5l0,0v3C0,7.5,1.848,7,2.5,7
	C3.328,7,4,7.672,4,8.5S3.328,10,2.5,10C2,10,0,9.5,0,9.5v3C0,13.328,0.672,14,1.5,14l9,0c0.828,0,1.5-0.672,1.5-1.5V4.5L12,4.5z"/>
</svg>
