<?xml version="1.0" encoding="iso-8859-1"?>
<!-- Generator: Adobe Illustrator 22.0.1, SVG Export Plug-In . SVG Version: 6.00 Build 0)  -->
<svg version="1.1" id="Layer_1" xmlns="http://www.w3.org/2000/svg" xmlns:xlink="http://www.w3.org/1999/xlink" x="0px" y="0px"
	 viewBox="0 0 14 14" style="enable-background:new 0 0 14 14;" xml:space="preserve">
<path d="M13.707,12.293l-2.822-2.822C11.584,8.49,12,7.294,12,6c0-3.309-2.691-6-6-6S0,2.691,0,6s2.691,6,6,6
	c1.294,0,2.49-0.416,3.471-1.115l2.822,2.822C12.488,13.902,12.744,14,13,14s0.512-0.098,0.707-0.293
	C14.098,13.316,14.098,12.683,13.707,12.293z M2,6c0-2.206,1.794-4,4-4s4,1.794,4,4s-1.794,4-4,4S2,8.206,2,6z"/>
</svg>
