<?xml version="1.0" encoding="iso-8859-1"?>
<!-- Generator: Adobe Illustrator 22.0.1, SVG Export Plug-In . SVG Version: 6.00 Build 0)  -->
<svg version="1.1" id="Layer_1" xmlns="http://www.w3.org/2000/svg" xmlns:xlink="http://www.w3.org/1999/xlink" x="0px" y="0px"
	 viewBox="0 0 14 14" style="enable-background:new 0 0 14 14;" xml:space="preserve">
<path d="M12.473,8.898c-1.442,1.442-2.995,1.335-4.501,0.43c-1.611,1.611-3.853,3.853-3.988,3.988c-0.911,0.911-2.389,0.911-3.3,0
	c-0.911-0.911-0.911-2.389,0-3.3C0.821,9.878,3.1,7.599,4.672,6.028c-0.905-1.507-1.012-3.06,0.43-4.501
	c1.5-1.5,3.685-1.886,5.547-1.175L7.5,3.5L8,6l2.5,0.5l3.148-3.148C14.359,5.213,13.973,7.398,12.473,8.898z"/>
</svg>
