<?xml version="1.0" encoding="iso-8859-1"?>
<!-- Generator: Adobe Illustrator 22.0.1, SVG Export Plug-In . SVG Version: 6.00 Build 0)  -->
<svg version="1.1" id="Layer_1" xmlns="http://www.w3.org/2000/svg" xmlns:xlink="http://www.w3.org/1999/xlink" x="0px" y="0px"
	 viewBox="0 0 14 14" style="enable-background:new 0 0 14 14;" xml:space="preserve">
<g>
	<path d="M14,7.361V6.639c0-0.127-0.096-0.234-0.223-0.248l-0.256-0.028c-0.327-0.036-0.586-0.283-0.654-0.605
		c-0.044-0.209-0.099-0.415-0.164-0.616c-0.101-0.313-0.001-0.655,0.264-0.85l0.206-0.152c0.103-0.075,0.132-0.216,0.068-0.326
		l-0.361-0.626c-0.064-0.11-0.2-0.155-0.317-0.104l-0.24,0.106c-0.301,0.132-0.648,0.048-0.868-0.196
		c-0.142-0.157-0.291-0.307-0.449-0.449c-0.244-0.22-0.328-0.567-0.196-0.868l0.105-0.24c0.051-0.117,0.006-0.253-0.104-0.317
		l-0.626-0.361c-0.11-0.064-0.251-0.034-0.327,0.068L9.709,1.032c-0.195,0.265-0.537,0.365-0.85,0.264
		c-0.201-0.065-0.406-0.12-0.616-0.164C7.921,1.065,7.674,0.806,7.638,0.479L7.61,0.223C7.596,0.096,7.489,0,7.361,0H6.639
		C6.511,0,6.404,0.096,6.39,0.223L6.362,0.479C6.326,0.806,6.079,1.065,5.757,1.132C5.547,1.176,5.342,1.231,5.141,1.296
		c-0.313,0.101-0.655,0.001-0.85-0.264L4.139,0.826C4.064,0.723,3.923,0.693,3.813,0.757L3.187,1.118
		c-0.11,0.064-0.155,0.2-0.104,0.317l0.105,0.24c0.132,0.301,0.048,0.648-0.196,0.868C2.835,2.685,2.685,2.835,2.544,2.992
		c-0.22,0.244-0.567,0.328-0.868,0.196l-0.24-0.106C1.319,3.032,1.182,3.077,1.118,3.187L0.757,3.813
		c-0.064,0.11-0.034,0.251,0.068,0.326l0.206,0.152c0.265,0.195,0.365,0.537,0.264,0.85c-0.065,0.201-0.12,0.406-0.164,0.616
		C1.065,6.079,0.805,6.326,0.478,6.362L0.264,6.386C0.095,6.404,0,6.511,0,6.639v0.722C0,7.489,0.096,7.596,0.223,7.61l0.256,0.028
		c0.327,0.036,0.586,0.283,0.654,0.605c0.044,0.209,0.099,0.415,0.164,0.616c0.101,0.313,0.001,0.655-0.264,0.85L0.826,9.861
		c-0.103,0.075-0.132,0.216-0.069,0.326l0.361,0.626c0.064,0.11,0.2,0.155,0.317,0.104l0.24-0.106
		c0.301-0.132,0.648-0.048,0.868,0.196c0.142,0.157,0.291,0.307,0.449,0.449c0.244,0.22,0.328,0.567,0.196,0.868l-0.105,0.24
		c-0.051,0.117-0.006,0.253,0.104,0.317l0.626,0.361c0.11,0.064,0.251,0.034,0.326-0.068l0.151-0.206
		c0.195-0.265,0.537-0.366,0.85-0.264c0.201,0.065,0.406,0.12,0.616,0.164c0.322,0.067,0.569,0.326,0.605,0.654l0.028,0.256
		C6.404,13.904,6.511,14,6.639,14h0.722c0.127,0,0.234-0.096,0.248-0.223l0.028-0.256c0.036-0.327,0.283-0.586,0.605-0.654
		c0.209-0.044,0.415-0.099,0.616-0.164c0.313-0.101,0.655-0.001,0.85,0.264l0.151,0.206c0.075,0.103,0.216,0.132,0.326,0.068
		l0.626-0.361c0.11-0.064,0.155-0.2,0.104-0.317l-0.105-0.24c-0.132-0.301-0.048-0.648,0.196-0.868
		c0.157-0.142,0.307-0.291,0.449-0.449c0.22-0.244,0.567-0.328,0.868-0.196l0.24,0.106c0.117,0.051,0.253,0.006,0.317-0.104
		l0.361-0.626c0.064-0.11,0.034-0.251-0.069-0.326l-0.206-0.152c-0.265-0.195-0.365-0.537-0.264-0.85
		c0.065-0.201,0.12-0.406,0.164-0.616c0.067-0.322,0.327-0.569,0.654-0.605c0.093-0.01,0.181-0.02,0.256-0.028
		C13.905,7.596,14,7.489,14,7.361z M7,11c-2.209,0-4-1.791-4-4c0-2.209,1.791-4,4-4s4,1.791,4,4C11,9.209,9.209,11,7,11z M8,7
		c0,0.552-0.448,1-1,1S6,7.552,6,7s0.448-1,1-1S8,6.448,8,7z"/>
</g>
</svg>
