<?xml version="1.0" encoding="iso-8859-1"?>
<!-- Generator: Adobe Illustrator 22.0.1, SVG Export Plug-In . SVG Version: 6.00 Build 0)  -->
<svg version="1.1" id="Layer_1" xmlns="http://www.w3.org/2000/svg" xmlns:xlink="http://www.w3.org/1999/xlink" x="0px" y="0px"
	 viewBox="0 0 14 14" style="enable-background:new 0 0 14 14;" xml:space="preserve">
<g>
	<path d="M7,0C3.134,0,0,3.134,0,7c0,3.866,3.134,7,7,7s7-3.134,7-7C14,3.134,10.866,0,7,0z M8,10.598V12H6v-1.394
		c-1.198-0.259-1.928-1.005-1.952-2.089h1.709c0.044,0.513,0.557,0.84,1.299,0.84c0.669,0,1.128-0.322,1.128-0.786
		c0-0.391-0.308-0.601-1.113-0.762L6.143,7.623C4.854,7.378,4.19,6.675,4.19,5.567c0-1.084,0.69-1.866,1.81-2.154V2h2v1.419
		c1.088,0.289,1.792,1.049,1.815,2.065H8.16C8.121,4.986,7.647,4.639,7.017,4.639S5.972,4.937,5.972,5.406
		c0,0.386,0.312,0.61,1.055,0.757l0.908,0.176c1.392,0.269,2.017,0.898,2.017,2.017C9.952,9.528,9.227,10.322,8,10.598z"/>
</g>
</svg>
