<?xml version="1.0" encoding="iso-8859-1"?>
<!-- Generator: Adobe Illustrator 22.0.1, SVG Export Plug-In . SVG Version: 6.00 Build 0)  -->
<svg version="1.1" id="Layer_1" xmlns="http://www.w3.org/2000/svg" xmlns:xlink="http://www.w3.org/1999/xlink" x="0px" y="0px"
	 viewBox="0 0 12 14" style="enable-background:new 0 0 12 14;" xml:space="preserve">
<path d="M12,11c0,0.552-0.448,1-1,1H7.408C7.464,12.157,7.5,12.324,7.5,12.5C7.5,13.328,6.828,14,6,14s-1.5-0.672-1.5-1.5
	c0-0.176,0.036-0.343,0.092-0.5H1c-0.552,0-1-0.448-1-1c0-0.517,0.397-0.927,0.9-0.98C1.596,9.141,2,8.062,2,6.929V5
	c0-1.862,1.278-3.413,3-3.859V1c0-0.552,0.448-1,1-1s1,0.448,1,1v0.141C8.722,1.587,10,3.138,10,5v1.929
	c0,1.133,0.404,2.212,1.1,3.091C11.603,10.073,12,10.483,12,11z"/>
</svg>
