<?xml version="1.0" encoding="iso-8859-1"?>
<!-- Generator: Adobe Illustrator 22.0.1, SVG Export Plug-In . SVG Version: 6.00 Build 0)  -->
<svg version="1.1" id="Layer_1" xmlns="http://www.w3.org/2000/svg" xmlns:xlink="http://www.w3.org/1999/xlink" x="0px" y="0px"
	 viewBox="0 0 14 14" style="enable-background:new 0 0 14 14;" xml:space="preserve">
<path d="M12,0H2C0.895,0,0,0.895,0,2v10c0,1.105,0.895,2,2,2h10c1.105,0,2-0.895,2-2V2C14,0.895,13.105,0,12,0z M12,4H2V2h10V4z
	 M12,8h-2V6h2V8z M8,8H6V6h2V8z M4,8H2V6h2V8z M8,12H6v-2h2V12z M4,12H2v-2h2V12z"/>
</svg>
