<?xml version="1.0" encoding="iso-8859-1"?>
<!-- Generator: Adobe Illustrator 22.0.1, SVG Export Plug-In . SVG Version: 6.00 Build 0)  -->
<svg version="1.1" id="Layer_1" xmlns="http://www.w3.org/2000/svg" xmlns:xlink="http://www.w3.org/1999/xlink" x="0px" y="0px"
	 viewBox="0 0 14 14" style="enable-background:new 0 0 14 14;" xml:space="preserve">
<path d="M7,0C3.134,0,0,3.134,0,7c0,3.866,3.134,7,7,7s7-3.134,7-7C14,3.134,10.866,0,7,0z M10.707,5.707l-4,4
	C6.512,9.902,6.256,10,6,10S5.488,9.902,5.293,9.707l-2-2c-0.391-0.391-0.391-1.023,0-1.414s1.023-0.391,1.414,0L6,7.586
	l3.293-3.293c0.391-0.391,1.023-0.391,1.414,0S11.098,5.316,10.707,5.707z"/>
</svg>
