<?xml version="1.0" encoding="iso-8859-1"?>
<!-- Generator: Adobe Illustrator 22.0.1, SVG Export Plug-In . SVG Version: 6.00 Build 0)  -->
<svg version="1.1" id="Layer_1" xmlns="http://www.w3.org/2000/svg" xmlns:xlink="http://www.w3.org/1999/xlink" x="0px" y="0px"
	 viewBox="0 0 14 14" style="enable-background:new 0 0 14 14;" xml:space="preserve">
<path d="M9.2,7.786C9.59,8.176,9.59,8.809,9.2,9.2C9.004,9.395,8.749,9.493,8.493,9.493S7.981,9.395,7.786,9.2L6,7.414V4
	c0-0.552,0.448-1,1-1s1,0.448,1,1v2.586L9.2,7.786z M14,7c0,3.86-3.14,7-7,7s-7-3.14-7-7s3.14-7,7-7S14,3.14,14,7z M12,7
	c0-2.757-2.243-5-5-5S2,4.243,2,7s2.243,5,5,5S12,9.757,12,7z"/>
</svg>
