<?xml version="1.0" encoding="iso-8859-1"?>
<!-- Generator: Adobe Illustrator 22.0.1, SVG Export Plug-In . SVG Version: 6.00 Build 0)  -->
<svg version="1.1" id="Layer_1" xmlns="http://www.w3.org/2000/svg" xmlns:xlink="http://www.w3.org/1999/xlink" x="0px" y="0px"
	 viewBox="0 0 18 12" style="enable-background:new 0 0 18 12;" xml:space="preserve">
<path d="M11,6c0,1.105-0.895,2-2,2S7,7.105,7,6c0-1.105,0.895-2,2-2S11,4.895,11,6z M18,6c0,0.207-0.078,0.388-0.185,0.547
	C17.815,6.547,15,12,9,12S0.183,6.544,0.183,6.544C0.077,6.386,0,6.206,0,6c0-0.205,0.077-0.385,0.182-0.543C0.182,5.457,3.6,0,9,0
	s8.816,5.455,8.816,5.455C17.923,5.614,18,5.794,18,6z M13,6c0-2.209-1.791-4-4-4S5,3.791,5,6c0,2.209,1.791,4,4,4S13,8.209,13,6z"
	/>
</svg>
