<?xml version="1.0" encoding="iso-8859-1"?>
<!-- Generator: Adobe Illustrator 22.0.1, SVG Export Plug-In . SVG Version: 6.00 Build 0)  -->
<svg version="1.1" id="Layer_1" xmlns="http://www.w3.org/2000/svg" xmlns:xlink="http://www.w3.org/1999/xlink" x="0px" y="0px"
	 viewBox="0 0 18 12" style="enable-background:new 0 0 18 12;" xml:space="preserve">
<path d="M17.818,5.457C17.818,5.457,14.4,0,9,0S0.184,5.455,0.184,5.455C0.077,5.614,0,5.794,0,6c0,0.207,0.078,0.388,0.185,0.547
	C0.185,6.547,3,12,9,12s8.817-5.456,8.817-5.456C17.923,6.386,18,6.206,18,6C18,5.795,17.923,5.615,17.818,5.457z M9,10
	c-2.209,0-4-1.791-4-4h2c0,1.105,0.895,2,2,2s2-0.895,2-2h2C13,8.209,11.209,10,9,10z"/>
</svg>
