<?xml version="1.0" encoding="iso-8859-1"?>
<!-- Generator: Adobe Illustrator 22.0.1, SVG Export Plug-In . SVG Version: 6.00 Build 0)  -->
<svg version="1.1" id="Layer_1" xmlns="http://www.w3.org/2000/svg" xmlns:xlink="http://www.w3.org/1999/xlink" x="0px" y="0px"
	 viewBox="0 0 14 14" style="enable-background:new 0 0 14 14;" xml:space="preserve">
<path d="M7,0C3.134,0,0,3.134,0,7c0,3.866,3.134,7,7,7s7-3.134,7-7C14,3.134,10.866,0,7,0z M7,12c-0.552,0-1-0.448-1-1
	c0-0.552,0.448-1,1-1s1,0.448,1,1C8,11.552,7.552,12,7,12z M8.426,7.172C7.969,7.594,7.69,7.87,7.69,8.207H6.31
	c0-0.958,0.654-1.562,1.18-2.048c0.551-0.509,0.889-0.849,0.889-1.4c0-0.76-0.619-1.379-1.379-1.379S5.621,3.998,5.621,4.759H4.241
	C4.241,3.237,5.479,2,7,2s2.759,1.237,2.759,2.759C9.759,5.941,9.02,6.623,8.426,7.172z"/>
</svg>
