<?xml version="1.0" encoding="iso-8859-1"?>
<!-- Generator: Adobe Illustrator 22.0.1, SVG Export Plug-In . SVG Version: 6.00 Build 0)  -->
<svg version="1.1" id="Layer_1" xmlns="http://www.w3.org/2000/svg" xmlns:xlink="http://www.w3.org/1999/xlink" x="0px" y="0px"
	 viewBox="0 0 10 12" style="enable-background:new 0 0 10 12;" xml:space="preserve">
<path d="M9.458,10.125C9.264,8.168,8.433,6.959,7.632,6c0.801-0.959,1.632-2.168,1.826-4.125C9.776,1.708,10,1.385,10,1
	c0-0.552-0.447-1-1-1H1C0.447,0,0,0.448,0,1c0,0.385,0.224,0.708,0.542,0.875C0.736,3.832,1.567,5.041,2.368,6
	c-0.801,0.959-1.632,2.168-1.826,4.125C0.224,10.292,0,10.615,0,11c0,0.552,0.447,1,1,1h1.375h5.25H9c0.553,0,1-0.448,1-1
	C10,10.615,9.776,10.292,9.458,10.125z M5,5.99L4.28,5.157C3.493,4.25,2.802,3.435,2.581,2H7.42c-0.221,1.435-0.912,2.25-1.7,3.157
	L5,5.99z M5,9c-0.459,0-1.071,0.433-1.591,1H2.581c0.221-1.435,0.912-2.25,1.7-3.157L5,6.01l0.72,0.833
	C6.507,7.75,7.198,8.565,7.42,10H6.591C6.071,9.433,5.459,9,5,9z"/>
</svg>
