<?xml version="1.0" encoding="iso-8859-1"?>
<!-- Generator: Adobe Illustrator 22.0.1, SVG Export Plug-In . SVG Version: 6.00 Build 0)  -->
<svg version="1.1" id="Layer_1" xmlns="http://www.w3.org/2000/svg" xmlns:xlink="http://www.w3.org/1999/xlink" x="0px" y="0px"
	 viewBox="0 0 14 14" style="enable-background:new 0 0 14 14;" xml:space="preserve">
<path d="M7.953,7.943c1.396,1.396,1.396,3.66,0,5.057l-2.769-2.769l-3.476,3.476C1.512,13.902,1.256,14,1,14
	s-0.512-0.098-0.707-0.293c-0.391-0.391-0.391-1.023,0-1.414l3.476-3.476L1,6.047c1.396-1.396,3.66-1.396,5.057,0L7.953,7.943z
	 M14,4c0-0.255-0.103-0.483-0.261-0.66l-3.116-3.104C10.451,0.096,10.24,0,10,0C9.691,0,9.426,0.148,9.242,0.368L6.744,3.744
	l3.513,3.513l3.395-2.511C13.861,4.561,14,4.3,14,4z"/>
</svg>
