<?xml version="1.0" encoding="iso-8859-1"?>
<!-- Generator: Adobe Illustrator 22.0.1, SVG Export Plug-In . SVG Version: 6.00 Build 0)  -->
<svg version="1.1" id="Layer_1" xmlns="http://www.w3.org/2000/svg" xmlns:xlink="http://www.w3.org/1999/xlink" x="0px" y="0px"
	 viewBox="0 0 14 14" style="enable-background:new 0 0 14 14;" xml:space="preserve">
<path d="M12,7c0-0.376-0.216-0.691-0.522-0.862L1.563,0.196C1.401,0.082,1.214,0,1,0C0.448,0,0,0.448,0,1
	c0,0.001,0.001,0.003,0.001,0.004L0,1.004V7v5.995l0.001,0C0.001,12.997,0,12.999,0,13c0,0.552,0.448,1,1,1
	c0.214,0,0.401-0.082,0.563-0.196l9.914-5.942C11.784,7.691,12,7.376,12,7z"/>
</svg>
