<?xml version="1.0" encoding="iso-8859-1"?>
<!-- Generator: Adobe Illustrator 22.0.1, SVG Export Plug-In . SVG Version: 6.00 Build 0)  -->
<svg version="1.1" id="Layer_1" xmlns="http://www.w3.org/2000/svg" xmlns:xlink="http://www.w3.org/1999/xlink" x="0px" y="0px"
	 viewBox="0 0 16 14" style="enable-background:new 0 0 16 14;" xml:space="preserve">
<path d="M10.887,0H5.113C4.399,0,3.738,0.381,3.381,1L0.494,6c-0.357,0.619-0.357,1.381,0,2l2.887,5c0.357,0.619,1.018,1,1.732,1
	h5.773c0.715,0,1.375-0.381,1.732-1l2.887-5c0.357-0.619,0.357-1.381,0-2l-2.887-5C12.262,0.381,11.601,0,10.887,0z M11,8H5
	C4.448,8,4,7.552,4,7c0-0.552,0.448-1,1-1h6c0.552,0,1,0.448,1,1C12,7.552,11.552,8,11,8z"/>
</svg>
