<?xml version="1.0" encoding="iso-8859-1"?>
<!-- Generator: Adobe Illustrator 22.0.1, SVG Export Plug-In . SVG Version: 6.00 Build 0)  -->
<svg version="1.1" id="Layer_1" xmlns="http://www.w3.org/2000/svg" xmlns:xlink="http://www.w3.org/1999/xlink" x="0px" y="0px"
	 viewBox="0 0 10 12" style="enable-background:new 0 0 10 12;" xml:space="preserve">
<path d="M4,1v10c0,0.552-0.448,1-1,1H1c-0.552,0-1-0.448-1-1V1c0-0.552,0.448-1,1-1h2C3.552,0,4,0.448,4,1z M9,0H7
	C6.448,0,6,0.448,6,1v10c0,0.552,0.448,1,1,1h2c0.552,0,1-0.448,1-1V1C10,0.448,9.552,0,9,0z"/>
</svg>
