<?xml version="1.0" encoding="iso-8859-1"?>
<!-- Generator: Adobe Illustrator 22.0.1, SVG Export Plug-In . SVG Version: 6.00 Build 0)  -->
<svg version="1.1" id="Layer_1" xmlns="http://www.w3.org/2000/svg" xmlns:xlink="http://www.w3.org/1999/xlink" x="0px" y="0px"
	 viewBox="0 0 14 14" style="enable-background:new 0 0 14 14;" xml:space="preserve">
<path d="M14,2h-3L7.5,5.5L5.859,3.859C5.942,3.585,6,3.301,6,3c0-1.654-1.346-3-3-3S0,1.346,0,3s1.346,3,3,3
	c0.571,0,1.099-0.169,1.554-0.446L6,7L4.554,8.446C4.099,8.169,3.571,8,3,8c-1.654,0-3,1.346-3,3s1.346,3,3,3s3-1.346,3-3
	c0-0.301-0.058-0.585-0.141-0.859L7.5,8.5L11,12h3L9,7L14,2z M3,4C2.448,4,2,3.551,2,3s0.448-1,1-1s1,0.449,1,1S3.552,4,3,4z M3,12
	c-0.552,0-1-0.449-1-1s0.448-1,1-1s1,0.449,1,1S3.552,12,3,12z"/>
</svg>
