<?xml version="1.0" encoding="iso-8859-1"?>
<!-- Generator: Adobe Illustrator 22.0.1, SVG Export Plug-In . SVG Version: 6.00 Build 0)  -->
<svg version="1.1" id="Layer_1" xmlns="http://www.w3.org/2000/svg" xmlns:xlink="http://www.w3.org/1999/xlink" x="0px" y="0px"
	 viewBox="0 0 18 12" style="enable-background:new 0 0 18 12;" xml:space="preserve">
<path d="M17.485,3.515l-1.418,1.418C14.257,3.121,11.757,2,9,2S3.743,3.121,1.932,4.932L0.515,3.515C2.686,1.343,5.686,0,9,0
	C12.314,0,15.314,1.343,17.485,3.515z M6.173,9.173L9,12l2.827-2.827C11.103,8.449,10.103,8,9,8S6.897,8.449,6.173,9.173z
	 M3.346,6.346l1.413,1.413C5.846,6.673,7.346,6,9,6s3.154,0.673,4.241,1.759l1.413-1.413C13.206,4.897,11.206,4,9,4
	S4.794,4.897,3.346,6.346z"/>
</svg>
