<?xml version="1.0" encoding="iso-8859-1"?>
<!-- Generator: Adobe Illustrator 22.0.1, SVG Export Plug-In . SVG Version: 6.00 Build 0)  -->
<svg version="1.1" id="Layer_1" xmlns="http://www.w3.org/2000/svg" xmlns:xlink="http://www.w3.org/1999/xlink" x="0px" y="0px"
	 viewBox="0 0 14 10" style="enable-background:new 0 0 14 10;" xml:space="preserve">
<path d="M14,5c0,0.552-0.447,1-1,1H3.414l2.293,2.293c0.391,0.391,0.391,1.023,0,1.414C5.512,9.902,5.256,10,5,10
	S4.488,9.902,4.293,9.707L0.294,5.708C0.201,5.615,0.128,5.505,0.077,5.382c-0.101-0.244-0.101-0.52,0-0.764
	c0.051-0.123,0.124-0.233,0.217-0.326l3.999-3.999c0.391-0.391,1.023-0.391,1.414,0s0.391,1.023,0,1.414L3.414,4H13
	C13.553,4,14,4.448,14,5z"/>
</svg>
