<?xml version="1.0" encoding="iso-8859-1"?>
<!-- Generator: Adobe Illustrator 22.0.1, SVG Export Plug-In . SVG Version: 6.00 Build 0)  -->
<svg version="1.1" id="Layer_1" xmlns="http://www.w3.org/2000/svg" xmlns:xlink="http://www.w3.org/1999/xlink" x="0px" y="0px"
	 viewBox="0 0 14 10" style="enable-background:new 0 0 14 10;" xml:space="preserve">
<path d="M13.706,5.708L9.707,9.707C9.512,9.902,9.256,10,9,10S8.488,9.902,8.293,9.707c-0.391-0.391-0.391-1.023,0-1.414L10.586,6H1
	C0.447,6,0,5.552,0,5s0.447-1,1-1h9.586L8.293,1.707c-0.391-0.391-0.391-1.023,0-1.414s1.023-0.391,1.414,0l3.999,3.999
	c0.093,0.092,0.166,0.203,0.217,0.326c0.101,0.244,0.101,0.52,0,0.764C13.872,5.505,13.799,5.615,13.706,5.708z"/>
</svg>
