<?xml version="1.0" encoding="iso-8859-1"?>
<!-- Generator: Adobe Illustrator 22.0.1, SVG Export Plug-In . SVG Version: 6.00 Build 0)  -->
<svg version="1.1" id="Layer_1" xmlns="http://www.w3.org/2000/svg" xmlns:xlink="http://www.w3.org/1999/xlink" x="0px" y="0px"
	 viewBox="0 0 14 14" style="enable-background:new 0 0 14 14;" xml:space="preserve">
<path d="M8.143,6.983c0,1.558-0.459,2.354-1.143,2.354S5.862,8.541,5.862,6.983c0-1.548,0.454-2.319,1.138-2.319
	S8.143,5.435,8.143,6.983z M14,7c0,3.866-3.134,7-7,7s-7-3.134-7-7c0-3.866,3.134-7,7-7S14,3.134,14,7z M9.959,6.988
	c0-2.344-1.147-3.701-2.959-3.701c-1.816,0-2.959,1.362-2.959,3.696s1.128,3.73,2.959,3.73C8.826,10.713,9.959,9.312,9.959,6.988z"
	/>
</svg>
