<?xml version="1.0" encoding="iso-8859-1"?>
<!-- Generator: Adobe Illustrator 22.0.1, SVG Export Plug-In . SVG Version: 6.00 Build 0)  -->
<svg version="1.1" id="Layer_1" xmlns="http://www.w3.org/2000/svg" xmlns:xlink="http://www.w3.org/1999/xlink" x="0px" y="0px"
	 viewBox="0 0 14 14" style="enable-background:new 0 0 14 14;" xml:space="preserve">
<path d="M7,0C3.134,0,0,3.134,0,7c0,3.866,3.134,7,7,7s7-3.134,7-7C14,3.134,10.866,0,7,0z M9.729,10.618H4.373V9.422L6.6,7.327
	C7.635,6.37,7.898,6.014,7.898,5.599c0-0.518-0.381-0.864-0.962-0.864c-0.605,0-1.025,0.41-1.025,0.991V5.76H4.271V5.73
	c0-1.401,1.094-2.349,2.729-2.349c1.577,0,2.632,0.845,2.632,2.09c0,0.781-0.459,1.475-1.709,2.588L6.761,9.129v0.093h2.969V10.618z
	"/>
</svg>
