<?xml version="1.0" encoding="iso-8859-1"?>
<!-- Generator: Adobe Illustrator 22.0.1, SVG Export Plug-In . SVG Version: 6.00 Build 0)  -->
<svg version="1.1" id="Layer_1" xmlns="http://www.w3.org/2000/svg" xmlns:xlink="http://www.w3.org/1999/xlink" x="0px" y="0px"
	 viewBox="0 0 14 14" style="enable-background:new 0 0 14 14;" xml:space="preserve">
<path d="M7,0C3.134,0,0,3.134,0,7c0,3.866,3.134,7,7,7s7-3.134,7-7C14,3.134,10.866,0,7,0z M6.939,10.713
	c-1.646,0-2.754-0.898-2.817-2.28h1.709C5.855,8.97,6.29,9.302,6.968,9.302c0.635,0,1.074-0.361,1.074-0.889
	c0-0.542-0.415-0.874-1.099-0.874H6.08V6.304h0.864c0.601,0,0.996-0.337,0.996-0.85s-0.386-0.83-1.011-0.83
	c-0.615,0-1.03,0.366-1.05,0.918H4.253c0.024-1.377,1.079-2.256,2.715-2.256c1.562,0,2.637,0.786,2.637,1.924
	c0,0.811-0.542,1.45-1.333,1.597V6.9c0.972,0.103,1.592,0.742,1.592,1.65C9.864,9.825,8.663,10.713,6.939,10.713z"/>
</svg>
