<?xml version="1.0" encoding="iso-8859-1"?>
<!-- Generator: Adobe Illustrator 22.0.1, SVG Export Plug-In . SVG Version: 6.00 Build 0)  -->
<svg version="1.1" id="Layer_1" xmlns="http://www.w3.org/2000/svg" xmlns:xlink="http://www.w3.org/1999/xlink" x="0px" y="0px"
	 viewBox="0 0 14 14" style="enable-background:new 0 0 14 14;" xml:space="preserve">
<path d="M7,0C3.134,0,0,3.134,0,7c0,3.866,3.134,7,7,7s7-3.134,7-7C14,3.134,10.866,0,7,0z M6.966,10.618
	c-1.636,0-2.729-0.962-2.754-2.241h1.626C5.921,8.895,6.39,9.236,6.98,9.236c0.654,0,1.118-0.449,1.118-1.138
	c0-0.703-0.469-1.172-1.123-1.172c-0.498,0-0.85,0.225-1.074,0.581H4.324l0.332-4.126h4.688v1.396H6.038L5.906,6.414h0.093
	c0.273-0.439,0.771-0.723,1.494-0.723c1.338,0,2.295,0.991,2.295,2.363C9.788,9.578,8.665,10.618,6.966,10.618z"/>
</svg>
