<?xml version="1.0" encoding="iso-8859-1"?>
<!-- Generator: Adobe Illustrator 22.0.1, SVG Export Plug-In . SVG Version: 6.00 Build 0)  -->
<svg version="1.1" id="Layer_1" xmlns="http://www.w3.org/2000/svg" xmlns:xlink="http://www.w3.org/1999/xlink" x="0px" y="0px"
	 viewBox="0 0 14 14" style="enable-background:new 0 0 14 14;" xml:space="preserve">
<path d="M8.209,8.23c0,0.62-0.488,1.104-1.113,1.104S5.986,8.846,5.986,8.221c0-0.615,0.479-1.089,1.109-1.089
	C7.73,7.132,8.209,7.605,8.209,8.23z M14,7c0,3.866-3.134,7-7,7s-7-3.134-7-7c0-3.866,3.134-7,7-7S14,3.134,14,7z M9.928,8.177
	c0-1.338-0.986-2.329-2.32-2.329c-0.814,0-1.449,0.366-1.762,1.025H5.752C5.689,5.569,6.24,4.671,7.109,4.671
	c0.479,0,0.865,0.249,0.977,0.635H9.84C9.654,4.119,8.535,3.289,7.115,3.289c-1.891,0-3.057,1.431-3.057,3.74
	c0,1.035,0.248,1.914,0.723,2.539c0.508,0.742,1.328,1.143,2.328,1.143C8.76,10.711,9.928,9.661,9.928,8.177z"/>
</svg>
