<?xml version="1.0" encoding="iso-8859-1"?>
<!-- Generator: Adobe Illustrator 22.0.1, SVG Export Plug-In . SVG Version: 6.00 Build 0)  -->
<svg version="1.1" id="Layer_1" xmlns="http://www.w3.org/2000/svg" xmlns:xlink="http://www.w3.org/1999/xlink" x="0px" y="0px"
	 viewBox="0 0 14 14" style="enable-background:new 0 0 14 14;" xml:space="preserve">
<path d="M6.035,5.396c0-0.508,0.4-0.884,0.963-0.884c0.557,0,0.957,0.376,0.957,0.884s-0.4,0.879-0.957,0.879
	S6.035,5.904,6.035,5.396z M6.998,7.496c-0.67,0-1.133,0.405-1.133,0.981c0,0.581,0.463,0.977,1.133,0.977
	c0.668,0,1.127-0.396,1.127-0.977C8.125,7.901,7.662,7.496,6.998,7.496z M14,7c0,3.866-3.134,7-7,7s-7-3.134-7-7
	c0-3.866,3.134-7,7-7S14,3.134,14,7z M10.01,8.628c0-0.898-0.645-1.611-1.605-1.787V6.749C9.195,6.578,9.723,5.972,9.723,5.23
	c0-1.128-1.139-1.943-2.725-1.943c-1.588,0-2.725,0.815-2.725,1.943c0,0.742,0.527,1.348,1.318,1.519v0.093
	C4.619,7.066,3.99,7.774,3.99,8.643c0,1.24,1.205,2.07,3.002,2.07C8.795,10.713,10.01,9.874,10.01,8.628z"/>
</svg>
