<?xml version="1.0" encoding="iso-8859-1"?>
<!-- Generator: Adobe Illustrator 22.0.1, SVG Export Plug-In . SVG Version: 6.00 Build 0)  -->
<svg version="1.1" id="Layer_1" xmlns="http://www.w3.org/2000/svg" xmlns:xlink="http://www.w3.org/1999/xlink" x="0px" y="0px"
	 viewBox="0 0 14 14" style="enable-background:new 0 0 14 14;" xml:space="preserve">
<path d="M8.013,5.779c0,0.619-0.479,1.088-1.108,1.088c-0.635,0-1.113-0.469-1.113-1.094c0-0.619,0.488-1.104,1.113-1.104
	S8.013,5.154,8.013,5.779z M14,7c0,3.866-3.134,7-7,7s-7-3.134-7-7c0-3.866,3.134-7,7-7S14,3.134,14,7z M9.942,6.975
	c0-1.035-0.249-1.908-0.723-2.543C8.702,3.693,7.886,3.289,6.89,3.289c-1.65,0-2.817,1.055-2.817,2.539
	c0,1.338,0.986,2.324,2.319,2.324c0.815,0,1.445-0.367,1.763-1.021c0,0,0.024,0,0.044,0s0.049,0,0.049,0
	C8.311,8.436,7.759,9.334,6.89,9.334c-0.479,0-0.864-0.25-0.977-0.641H4.161c0.186,1.191,1.304,2.018,2.72,2.018
	C8.775,10.711,9.942,9.285,9.942,6.975z"/>
</svg>
