<?xml version="1.0" encoding="iso-8859-1"?>
<!-- Generator: Adobe Illustrator 21.1.0, SVG Export Plug-In . SVG Version: 6.00 Build 0)  -->
<svg version="1.1" id="Layer_1" xmlns="http://www.w3.org/2000/svg" xmlns:xlink="http://www.w3.org/1999/xlink" x="0px" y="0px"
	 viewBox="0 0 28 27" style="enable-background:new 0 0 28 27;" xml:space="preserve">
<linearGradient id="SVGID_1_" gradientUnits="userSpaceOnUse" x1="14.0001" y1="0" x2="14.0001" y2="27">
	<stop  offset="0" style="stop-color:#1A6DFF"/>
	<stop  offset="1" style="stop-color:#C822FF"/>
</linearGradient>
<path style="fill:url(#SVGID_1_);" d="M21.301,27c-0.341,0-0.684-0.083-1-0.25l-0.028-0.016L14,23.151l-6.274,3.582
	c-0.749,0.398-1.61,0.34-2.274-0.141c-0.664-0.479-0.991-1.28-0.854-2.087l1.321-7.155l-5.27-5.034
	c-0.592-0.583-0.796-1.42-0.542-2.196C0.36,9.345,1.019,8.791,1.825,8.673l7.132-0.966l3.125-6.491C12.449,0.464,13.183,0,14,0
	c0.817,0,1.551,0.464,1.916,1.21l3.126,6.496l7.122,0.966c0.817,0.119,1.476,0.674,1.729,1.449c0.254,0.776,0.05,1.613-0.532,2.185
	l-5.28,5.043l1.318,7.142c0.14,0.822-0.187,1.622-0.851,2.101C22.176,26.863,21.74,27,21.301,27z M21.247,24.987
	c0.026,0.013,0.073,0.027,0.13-0.015c0.067-0.048,0.057-0.108,0.053-0.131l-1.512-8.191l6.051-5.779
	c0.006-0.006,0.049-0.048,0.023-0.127c-0.026-0.079-0.084-0.087-0.107-0.09l-8.178-1.11l-3.591-7.46
	c-0.033-0.065-0.199-0.072-0.235,0.005l-3.589,7.455l-8.188,1.11c-0.014,0.002-0.07,0.011-0.096,0.089
	c-0.026,0.08,0.017,0.122,0.033,0.138l6.041,5.771l-1.515,8.204c-0.001,0.008-0.012,0.068,0.056,0.117
	c0.066,0.049,0.117,0.021,0.139,0.01L14,20.849L21.247,24.987z"/>
</svg>
