<?xml version="1.0" encoding="iso-8859-1"?>
<!-- Generator: Adobe Illustrator 21.1.0, SVG Export Plug-In . SVG Version: 6.00 Build 0)  -->
<svg version="1.1" id="Layer_1" xmlns="http://www.w3.org/2000/svg" xmlns:xlink="http://www.w3.org/1999/xlink" x="0px" y="0px"
	 viewBox="0 0 28 25" style="enable-background:new 0 0 28 25;" xml:space="preserve">
<linearGradient id="SVGID_1_" gradientUnits="userSpaceOnUse" x1="14" y1="0" x2="14" y2="25">
	<stop  offset="0" style="stop-color:#1A6DFF"/>
	<stop  offset="1" style="stop-color:#C822FF"/>
</linearGradient>
<path style="fill:url(#SVGID_1_);" d="M20.24,0c-2.5,0-4.8,1.2-6.24,3.16C12.56,1.2,10.26,0,7.76,0C3.48,0,0,3.5,0,7.8
	C0,18.05,10.51,25,14,25s14-6.95,14-17.2C28,3.5,24.52,0,20.24,0z M14,23C11.68,23,2,16.93,2,7.8C2,4.6,4.58,2,7.76,2
	c2.33,0,4.42,1.4,5.32,3.57L13.26,6h1.48l0.18-0.43C15.82,3.4,17.91,2,20.24,2C23.42,2,26,4.6,26,7.8C26,16.93,16.32,23,14,23z"/>
</svg>
