<?xml version="1.0" encoding="iso-8859-1"?>
<!-- Generator: Adobe Illustrator 21.1.0, SVG Export Plug-In . SVG Version: 6.00 Build 0)  -->
<svg version="1.1" id="Layer_1" xmlns="http://www.w3.org/2000/svg" xmlns:xlink="http://www.w3.org/1999/xlink" x="0px" y="0px"
	 viewBox="0 0 22 29" style="enable-background:new 0 0 22 29;" xml:space="preserve">
<linearGradient id="SVGID_1_" gradientUnits="userSpaceOnUse" x1="11" y1="0" x2="11" y2="29">
	<stop  offset="0" style="stop-color:#1A6DFF"/>
	<stop  offset="1" style="stop-color:#C822FF"/>
</linearGradient>
<path style="fill:url(#SVGID_1_);" d="M19,11h-1V5c0-2.757-2.243-5-5-5H9C6.243,0,4,2.243,4,5v6H3c-1.654,0-3,1.346-3,3v12
	c0,1.654,1.346,3,3,3h16c1.654,0,3-1.346,3-3V14C22,12.346,20.654,11,19,11z M6,5c0-1.654,1.346-3,3-3h4c1.654,0,3,1.346,3,3v6H6V5z
	 M20,26c0,0.552-0.449,1-1,1H3c-0.551,0-1-0.448-1-1V14c0-0.552,0.449-1,1-1h16c0.551,0,1,0.448,1,1V26z"/>
<linearGradient id="SVGID_2_" gradientUnits="userSpaceOnUse" x1="11" y1="15" x2="11" y2="24.8125">
	<stop  offset="0" style="stop-color:#6DC7FF"/>
	<stop  offset="1" style="stop-color:#E6ABFF"/>
</linearGradient>
<path style="fill:url(#SVGID_2_);" d="M14,18c0-1.657-1.343-3-3-3s-3,1.343-3,3c0,0.885,0.39,1.672,1,2.221V23c0,1.105,0.895,2,2,2
	s2-0.895,2-2v-2.779C13.61,19.672,14,18.885,14,18z"/>
</svg>
