<?xml version="1.0" encoding="iso-8859-1"?>
<!-- Generator: Adobe Illustrator 21.1.0, SVG Export Plug-In . SVG Version: 6.00 Build 0)  -->
<svg version="1.1" id="Layer_1" xmlns="http://www.w3.org/2000/svg" xmlns:xlink="http://www.w3.org/1999/xlink" x="0px" y="0px"
	 viewBox="0 0 24 31" style="enable-background:new 0 0 24 31;" xml:space="preserve">
<linearGradient id="SVGID_1_" gradientUnits="userSpaceOnUse" x1="11.9999" y1="1.721299e-04" x2="11.9999" y2="31">
	<stop  offset="0" style="stop-color:#1A6DFF"/>
	<stop  offset="1" style="stop-color:#C822FF"/>
</linearGradient>
<path style="fill:url(#SVGID_1_);" d="M19,31H1.008c-0.552,0-1-0.447-1-1v-8c0-0.007,0-0.146-0.007-0.325
	c-0.016-0.423,0.236-0.811,0.629-0.967c0.395-0.155,0.844-0.05,1.122,0.27C2.322,21.627,3.144,22,4.007,22
	c0.92,0,1.776-0.414,2.349-1.136c0.583-0.732,0.783-1.654,0.564-2.596c-0.243-1.048-1.106-1.922-2.147-2.175
	c-1.139-0.276-2.268,0.07-3.021,0.929c-0.279,0.319-0.728,0.426-1.122,0.27C0.237,17.136-0.016,16.748,0,16.325
	C0.007,16.146,0.008,16.007,0.008,16V8c0-0.553,0.448-1,1-1h6.415C7.15,6.376,7.005,5.696,7.005,5c0-1.534,0.689-2.962,1.892-3.917
	c1.202-0.955,2.765-1.303,4.291-0.945c1.791,0.415,3.229,1.836,3.664,3.619c0.271,1.11,0.164,2.246-0.269,3.243H23
	c0.552,0,1,0.447,1,1v18C24,28.757,21.757,31,19,31z M2,29h17c1.654,0,3-1.346,3-3V9h-7.352c-0.416,0-0.788-0.258-0.936-0.646
	c-0.147-0.389-0.038-0.828,0.274-1.104c0.854-0.754,1.199-1.882,0.921-3.02c-0.253-1.04-1.127-1.902-2.173-2.146
	c-0.942-0.219-1.863-0.017-2.595,0.563C9.419,3.223,9.005,4.079,9.005,5c0,0.86,0.37,1.681,1.016,2.25
	c0.312,0.275,0.421,0.715,0.274,1.104C10.147,8.742,9.775,9,9.359,9H2v5.5c0.995-0.432,2.138-0.62,3.245-0.35
	c1.785,0.434,3.203,1.889,3.619,3.683c0.354,1.525,0.009,3.09-0.946,4.292C6.963,23.327,5.54,24,4.007,24
	C3.311,24,2.624,23.896,2,23.625V29z"/>
<linearGradient id="SVGID_2_" gradientUnits="userSpaceOnUse" x1="15.5039" y1="18" x2="15.5039" y2="27">
	<stop  offset="0" style="stop-color:#6DC7FF"/>
	<stop  offset="1" style="stop-color:#E6ABFF"/>
</linearGradient>
<path style="fill:url(#SVGID_2_);" d="M11.008,27H18c1.105,0,2-0.895,2-2v-7L11.008,27z"/>
</svg>
