<?xml version="1.0" encoding="iso-8859-1"?>
<!-- Generator: Adobe Illustrator 21.1.0, SVG Export Plug-In . SVG Version: 6.00 Build 0)  -->
<svg version="1.1" id="Layer_1" xmlns="http://www.w3.org/2000/svg" xmlns:xlink="http://www.w3.org/1999/xlink" x="0px" y="0px"
	 viewBox="0 0 20 34" style="enable-background:new 0 0 20 34;" xml:space="preserve">
<linearGradient id="SVGID_1_" gradientUnits="userSpaceOnUse" x1="12.5" y1="5" x2="12.5" y2="10">
	<stop  offset="0" style="stop-color:#6DC7FF"/>
	<stop  offset="1" style="stop-color:#E6ABFF"/>
</linearGradient>
<path style="fill:url(#SVGID_1_);" d="M15,10h-5V5C12.761,5,15,7.239,15,10z"/>
<linearGradient id="SVGID_2_" gradientUnits="userSpaceOnUse" x1="10" y1="0.5" x2="10" y2="33.5683">
	<stop  offset="0" style="stop-color:#1A6DFF"/>
	<stop  offset="1" style="stop-color:#C822FF"/>
</linearGradient>
<path style="fill:url(#SVGID_2_);" d="M20,10c0-5.514-4.486-10-10-10S0,4.486,0,10c0,5.176,3.954,9.446,9,9.949V22H6v9
	c0,1.654,1.346,3,3,3h2c1.654,0,3-1.346,3-3v-9h-3v-2.051C16.046,19.446,20,15.176,20,10z M11,32H9c-0.551,0-1-0.448-1-1v-3h4v3
	C12,31.552,11.551,32,11,32z M12,24v2H8v-2H12z M2,10c0-4.411,3.589-8,8-8s8,3.589,8,8s-3.589,8-8,8S2,14.411,2,10z"/>
</svg>
