<?xml version="1.0" encoding="iso-8859-1"?>
<!-- Generator: Adobe Illustrator 21.1.0, SVG Export Plug-In . SVG Version: 6.00 Build 0)  -->
<svg version="1.1" id="Layer_1" xmlns="http://www.w3.org/2000/svg" xmlns:xlink="http://www.w3.org/1999/xlink" x="0px" y="0px"
	 viewBox="0 0 27 27" style="enable-background:new 0 0 27 27;" xml:space="preserve">
<linearGradient id="SVGID_1_" gradientUnits="userSpaceOnUse" x1="13.5002" y1="4.882812e-04" x2="13.5002" y2="27">
	<stop  offset="0" style="stop-color:#1A6DFF"/>
	<stop  offset="1" style="stop-color:#C822FF"/>
</linearGradient>
<path style="fill:url(#SVGID_1_);" d="M13.473,27c-0.251,0-0.502-0.006-0.753-0.021c-1.236-0.073-2.237-0.977-2.433-2.195
	c-0.072-0.446-0.143-0.886-0.205-1.257c-0.431-0.147-0.851-0.321-1.254-0.522c-0.329,0.239-0.715,0.518-1.045,0.752
	c-0.989,0.711-2.329,0.645-3.252-0.168c-0.397-0.354-0.769-0.725-1.11-1.104c-0.825-0.93-0.893-2.275-0.169-3.277l0.325-0.452
	c0.143-0.196,0.287-0.396,0.417-0.579c-0.205-0.423-0.377-0.842-0.516-1.257L2.215,16.71c-1.207-0.194-2.109-1.186-2.191-2.41
	c-0.031-0.522-0.031-1.05-0.001-1.577c0.075-1.24,0.978-2.24,2.197-2.436l0.155-0.025c0.358-0.058,0.755-0.122,1.1-0.181
	C3.621,9.65,3.796,9.232,3.997,8.828L3.249,7.786C2.536,6.789,2.601,5.45,3.408,4.531c0.373-0.411,0.743-0.78,1.11-1.11
	C5.446,2.599,6.79,2.53,7.792,3.25l0.416,0.299C8.418,3.7,8.632,3.854,8.826,3.992c0.426-0.208,0.847-0.382,1.258-0.52l0.208-1.262
	c0.194-1.205,1.186-2.105,2.41-2.188c0.52-0.029,1.047-0.029,1.577,0c1.233,0.075,2.233,0.976,2.435,2.19l0.061,0.37
	c0.048,0.299,0.099,0.612,0.146,0.892c0.443,0.15,0.862,0.325,1.251,0.521l1.047-0.749c0.979-0.713,2.318-0.65,3.248,0.159
	c0.394,0.354,0.765,0.725,1.115,1.114c0.821,0.925,0.89,2.269,0.171,3.272c-0.235,0.324-0.512,0.707-0.744,1.034
	c0.21,0.43,0.383,0.85,0.517,1.257l0.373,0.062c0.304,0.049,0.62,0.101,0.9,0.15c1.2,0.191,2.101,1.186,2.176,2.414
	c0.032,0.541,0.034,1.069,0.005,1.571l0,0.004c-0.075,1.229-0.975,2.228-2.19,2.43c-0.408,0.062-0.869,0.14-1.262,0.207
	c-0.147,0.43-0.322,0.85-0.522,1.253c0.238,0.328,0.518,0.715,0.751,1.046c0.713,0.991,0.645,2.33-0.17,3.249
	c-0.345,0.392-0.717,0.767-1.103,1.113c-0.935,0.82-2.279,0.891-3.276,0.169c-0.327-0.238-0.706-0.512-1.031-0.742
	c-0.42,0.205-0.838,0.377-1.257,0.517l-0.208,1.262C16.514,26,15.52,26.9,14.293,26.975C14.032,26.994,13.753,27,13.473,27z
	 M8.798,20.954c0.266,0,0.533,0.062,0.78,0.189c0.417,0.216,0.851,0.396,1.294,0.539c0.607,0.189,1.052,0.706,1.154,1.346
	c0.068,0.397,0.151,0.914,0.223,1.358c0.06,0.371,0.292,0.579,0.589,0.597c0.441,0.026,0.886,0.027,1.32-0.004
	c0.3-0.019,0.532-0.229,0.578-0.515l0.232-1.418c0.107-0.661,0.553-1.176,1.167-1.37c0.438-0.137,0.873-0.314,1.295-0.53
	c0.55-0.298,1.236-0.249,1.768,0.136c0.35,0.245,0.804,0.573,1.184,0.851c0.231,0.166,0.55,0.15,0.773-0.046
	c0.321-0.288,0.638-0.607,0.934-0.942c0.192-0.217,0.208-0.53,0.041-0.764c-0.271-0.383-0.597-0.832-0.854-1.186
	c-0.375-0.522-0.425-1.198-0.133-1.77c0.217-0.418,0.398-0.852,0.54-1.295c0.192-0.608,0.71-1.053,1.351-1.154
	c0.424-0.073,0.978-0.167,1.443-0.237c0.279-0.047,0.489-0.278,0.508-0.574c0.024-0.425,0.022-0.875-0.005-1.337
	c-0.018-0.289-0.224-0.516-0.512-0.562c-0.288-0.051-0.595-0.101-0.89-0.148l-0.458-0.075c-0.718-0.112-1.234-0.552-1.438-1.16
	c-0.131-0.435-0.308-0.866-0.535-1.312c-0.292-0.563-0.242-1.243,0.136-1.766c0.245-0.35,0.577-0.809,0.848-1.183
	c0.171-0.238,0.156-0.551-0.04-0.771c-0.298-0.332-0.618-0.652-0.948-0.948c-0.214-0.187-0.522-0.201-0.757-0.032l-1.197,0.856
	c-0.504,0.373-1.186,0.429-1.762,0.133c-0.401-0.213-0.832-0.392-1.295-0.54c-0.611-0.193-1.055-0.712-1.156-1.353
	c-0.053-0.309-0.117-0.697-0.176-1.064l-0.059-0.365c-0.049-0.291-0.281-0.501-0.579-0.52c-0.448-0.025-0.898-0.025-1.335,0
	c-0.281,0.02-0.515,0.23-0.561,0.513l-0.223,1.353c-0.113,0.725-0.558,1.242-1.175,1.438c-0.422,0.131-0.857,0.311-1.297,0.535
	C9.005,6.149,8.327,6.096,7.804,5.72C7.581,5.562,7.306,5.364,7.038,5.171l-0.41-0.295C6.385,4.699,6.072,4.717,5.85,4.912
	C5.539,5.193,5.217,5.515,4.9,5.864C4.72,6.068,4.706,6.386,4.876,6.623L5.728,7.81C6.1,8.324,6.152,9.003,5.861,9.575
	c-0.22,0.422-0.401,0.854-0.542,1.292c-0.188,0.61-0.708,1.059-1.354,1.159c-0.37,0.063-0.847,0.141-1.272,0.21l-0.156,0.025
	c-0.293,0.047-0.5,0.279-0.519,0.578c-0.025,0.447-0.025,0.897,0,1.334c0.019,0.286,0.227,0.516,0.517,0.562l1.347,0.223
	c0.718,0.112,1.234,0.552,1.438,1.161C5.46,16.564,5.638,17,5.857,17.434c0.292,0.561,0.241,1.241-0.138,1.765
	c-0.148,0.212-0.336,0.472-0.521,0.729l-0.322,0.446c-0.177,0.245-0.161,0.557,0.036,0.779c0.289,0.32,0.608,0.639,0.946,0.939
	c0.216,0.189,0.525,0.207,0.764,0.037c0.382-0.271,0.832-0.598,1.186-0.854C8.103,21.062,8.449,20.954,8.798,20.954z M10.264,23.588
	c0.001,0,0.003,0.001,0.004,0.001C10.267,23.589,10.265,23.588,10.264,23.588z M10.053,23.354c0,0.002,0.001,0.003,0.001,0.005
	C10.054,23.357,10.053,23.356,10.053,23.354z M18.36,22.917c-0.004,0.002-0.009,0.005-0.014,0.007
	C18.351,22.922,18.355,22.919,18.36,22.917z M18.038,22.911c0.001,0.002,0.003,0.003,0.005,0.004
	C18.041,22.914,18.039,22.912,18.038,22.911z M4.075,18.34c0.001,0.002,0.002,0.005,0.003,0.007
	C4.077,18.345,4.076,18.342,4.075,18.34z M4.091,18.037c-0.001,0.002-0.003,0.004-0.004,0.006
	C4.088,18.041,4.089,18.039,4.091,18.037z M23.365,16.948c-0.002,0-0.003,0.001-0.005,0.001
	C23.362,16.949,23.363,16.949,23.365,16.948z M23.588,16.738c0,0.001,0,0.001-0.001,0.002
	C23.587,16.739,23.587,16.739,23.588,16.738z M3.414,10.26c0,0.003-0.001,0.005-0.002,0.007C3.413,10.265,3.414,10.263,3.414,10.26z
	 M3.643,10.053c-0.002,0-0.004,0.001-0.007,0.001C3.638,10.054,3.64,10.053,3.643,10.053z M4.103,8.975
	C4.103,8.976,4.103,8.976,4.103,8.975L4.103,8.975z M22.915,8.96c-0.001,0.002-0.002,0.003-0.003,0.005
	C22.913,8.963,22.914,8.962,22.915,8.96z M22.925,8.656c0,0.002,0.001,0.003,0.002,0.004C22.926,8.659,22.925,8.658,22.925,8.656z
	 M18.02,4.104c-0.002,0.002-0.004,0.004-0.007,0.005L18.02,4.104z M8.959,4.087c0.002,0.001,0.003,0.002,0.005,0.004
	C8.963,4.089,8.961,4.088,8.959,4.087z M8.661,4.075C8.66,4.076,8.658,4.076,8.657,4.077C8.658,4.076,8.66,4.076,8.661,4.075z
	 M16.948,3.637c0,0.002,0.001,0.004,0.001,0.006C16.949,3.641,16.949,3.639,16.948,3.637z M16.738,3.415c0,0,0.001,0,0.001,0
	C16.739,3.415,16.738,3.415,16.738,3.415z"/>
<linearGradient id="SVGID_2_" gradientUnits="userSpaceOnUse" x1="13.5" y1="0" x2="13.5" y2="26.7547">
	<stop  offset="0" style="stop-color:#1A6DFF"/>
	<stop  offset="1" style="stop-color:#C822FF"/>
</linearGradient>
<path style="fill:url(#SVGID_2_);" d="M13.5,19C10.467,19,8,16.532,8,13.5S10.467,8,13.5,8s5.5,2.468,5.5,5.5S16.533,19,13.5,19z
	 M13.5,10c-1.93,0-3.5,1.57-3.5,3.5s1.57,3.5,3.5,3.5s3.5-1.57,3.5-3.5S15.43,10,13.5,10z"/>
</svg>
