<?xml version="1.0" encoding="iso-8859-1"?>
<!-- Generator: Adobe Illustrator 21.1.0, SVG Export Plug-In . SVG Version: 6.00 Build 0)  -->
<svg version="1.1" id="Layer_1" xmlns="http://www.w3.org/2000/svg" xmlns:xlink="http://www.w3.org/1999/xlink" x="0px" y="0px"
	 viewBox="0 0 30 22" style="enable-background:new 0 0 30 22;" xml:space="preserve">
<linearGradient id="SVGID_1_" gradientUnits="userSpaceOnUse" x1="15" y1="0" x2="15" y2="22">
	<stop  offset="0" style="stop-color:#1A6DFF"/>
	<stop  offset="1" style="stop-color:#C822FF"/>
</linearGradient>
<path style="fill:url(#SVGID_1_);" d="M27.284,12.578C27.748,11.809,28,10.92,28,10c0-2.757-2.243-5-5-5
	c-0.838,0-1.647,0.216-2.368,0.604C19.612,2.36,16.577,0,13,0C8.589,0,5,3.589,5,8v0.295C2.112,9.158,0,11.836,0,15
	c0,3.859,3.14,7,7,7h18c2.757,0,5-2.243,5-5C30,15.07,28.889,13.411,27.284,12.578z M25,20H7c-2.757,0-5-2.243-5-5s2.243-5,5-5h2
	c0.552,0,1-0.448,1-1c0-0.552-0.448-1-1-1H7c0-3.309,2.691-6,6-6s6,2.691,6,6v1c0,0.552,0.448,1,1,1s1-0.448,1-1V8
	c0-0.069-0.009-0.135-0.01-0.203C21.539,7.296,22.247,7,23,7c1.654,0,3,1.346,3,3c0,0.758-0.299,1.469-0.806,2.02
	C25.128,12.017,25.067,12,25,12h-1c-0.552,0-1,0.448-1,1c0,0.552,0.448,1,1,1h1c1.654,0,3,1.346,3,3S26.654,20,25,20z"/>
</svg>
