<?xml version="1.0" encoding="iso-8859-1"?>
<!-- Generator: Adobe Illustrator 21.1.0, SVG Export Plug-In . SVG Version: 6.00 Build 0)  -->
<svg version="1.1" id="Layer_1" xmlns="http://www.w3.org/2000/svg" xmlns:xlink="http://www.w3.org/1999/xlink" x="0px" y="0px"
	 viewBox="0 0 24 28" style="enable-background:new 0 0 24 28;" xml:space="preserve">
<linearGradient id="SVGID_1_" gradientUnits="userSpaceOnUse" x1="-21.7291" y1="-93.001" x2="-19.2458" y2="-93.001" gradientTransform="matrix(6.123234e-17 1 1 -6.123234e-17 104.999 44.999)">
	<stop  offset="0" style="stop-color:#6DC7FF"/>
	<stop  offset="1" style="stop-color:#E6ABFF"/>
</linearGradient>
<path style="fill:url(#SVGID_1_);" d="M15.998,22.999c0,2.209-1.791,4-4,4s-4-1.791-4-4H15.998z"/>
<linearGradient id="SVGID_2_" gradientUnits="userSpaceOnUse" x1="-42.6598" y1="-93" x2="-40.9979" y2="-93" gradientTransform="matrix(6.123234e-17 1 1 -6.123234e-17 104.999 44.999)">
	<stop  offset="0" style="stop-color:#6DC7FF"/>
	<stop  offset="1" style="stop-color:#E6ABFF"/>
</linearGradient>
<path style="fill:url(#SVGID_2_);" d="M14.999,4.999v-2c0-1.105-0.897-2-2.001-2h-2c-1.105,0-1.999,0.895-1.999,2v2H14.999z"/>
<linearGradient id="SVGID_3_" gradientUnits="userSpaceOnUse" x1="-45.5573" y1="75.004" x2="-16.2861" y2="75.004" gradientTransform="matrix(6.123234e-17 1 -1 6.123234e-17 86.999 44.999)">
	<stop  offset="0" style="stop-color:#1A6DFF"/>
	<stop  offset="1" style="stop-color:#C822FF"/>
</linearGradient>
<path style="fill:url(#SVGID_3_);" d="M20.62,8.02C20.18,5.78,19,4.15,16,4.02V3c0-1.65-1.35-3-3-3h-2C9.34,0,8,1.35,8,3v1.02
	c-2,0.13-4.18,1.76-4.63,4L0.16,23.03C0.08,23.28,0,23.53,0,23.8c0,0.07-0.01,0.13-0.01,0.2c0,1.65,1.35,3,3.01,3h6v-0.03
	c1,0.64,1.87,1.03,3,1.03s2-0.39,3-1.03V27h6c1.65,0,3-1.25,3-2.9c0-0.07-0.01-0.1-0.01-0.1H24v-0.2c0-0.27-0.08-0.52-0.16-0.77
	L20.62,8.02z M10,3c0-0.55,0.45-1,1-1h2c0.55,0,1,0.45,1,1v1h-4V3z M3,25c-0.54,0-0.97-0.42-0.99-0.95l0.09-0.48
	C2.26,23.24,2.6,23,3,23h4c0,0.71,0.15,1.39,0.42,2H3z M3,21c-0.13,0-0.26,0.02-0.39,0.04L5.33,8.41C5.62,7.01,6.85,6,8.28,6h7.44
	c1.42,0,2.66,1.01,2.94,2.41l2.72,12.63C21.26,21.02,21.13,21,21,21H3z M12,26c-1.66,0-3-1.35-3-3h6C15,24.65,13.65,26,12,26z
	 M21,25h-4.43c0.27-0.61,0.43-1.29,0.43-2h4c0.39,0,0.73,0.24,0.89,0.57l0.1,0.48C21.96,24.58,21.53,25,21,25z"/>
</svg>
