<?xml version="1.0" encoding="iso-8859-1"?>
<!-- Generator: Adobe Illustrator 21.1.0, SVG Export Plug-In . SVG Version: 6.00 Build 0)  -->
<svg version="1.1" id="Layer_1" xmlns="http://www.w3.org/2000/svg" xmlns:xlink="http://www.w3.org/1999/xlink" x="0px" y="0px"
	 viewBox="0 0 26 26" style="enable-background:new 0 0 26 26;" xml:space="preserve">
<linearGradient id="SVGID_1_" gradientUnits="userSpaceOnUse" x1="13" y1="0" x2="13" y2="26">
	<stop  offset="0" style="stop-color:#1A6DFF"/>
	<stop  offset="1" style="stop-color:#C822FF"/>
</linearGradient>
<path style="fill:url(#SVGID_1_);" d="M23,2h-2V1c0-0.553-0.448-1-1-1s-1,0.447-1,1v1H7V1c0-0.553-0.448-1-1-1S5,0.447,5,1v1H3
	C1.346,2,0,3.346,0,5v18c0,1.654,1.346,3,3,3h20c1.654,0,3-1.346,3-3V5C26,3.346,24.654,2,23,2z M3,4h2v1c0,0.553,0.448,1,1,1
	s1-0.447,1-1V4h12v1c0,0.553,0.448,1,1,1s1-0.447,1-1V4h2c0.551,0,1,0.448,1,1v3H2V5C2,4.448,2.449,4,3,4z M23,24H3
	c-0.551,0-1-0.448-1-1V10h22v13C24,23.552,23.551,24,23,24z"/>
<linearGradient id="SVGID_2_" gradientUnits="userSpaceOnUse" x1="6" y1="12" x2="6" y2="16">
	<stop  offset="0" style="stop-color:#6DC7FF"/>
	<stop  offset="1" style="stop-color:#E6ABFF"/>
</linearGradient>
<rect x="4" y="12" style="fill:url(#SVGID_2_);" width="4" height="4"/>
<linearGradient id="SVGID_3_" gradientUnits="userSpaceOnUse" x1="20" y1="12" x2="20" y2="16">
	<stop  offset="0" style="stop-color:#6DC7FF"/>
	<stop  offset="1" style="stop-color:#E6ABFF"/>
</linearGradient>
<rect x="18" y="12" style="fill:url(#SVGID_3_);" width="4" height="4"/>
<linearGradient id="SVGID_4_" gradientUnits="userSpaceOnUse" x1="13" y1="12" x2="13" y2="16">
	<stop  offset="0" style="stop-color:#6DC7FF"/>
	<stop  offset="1" style="stop-color:#E6ABFF"/>
</linearGradient>
<rect x="11" y="12" style="fill:url(#SVGID_4_);" width="4" height="4"/>
<linearGradient id="SVGID_5_" gradientUnits="userSpaceOnUse" x1="6" y1="18" x2="6" y2="22">
	<stop  offset="0" style="stop-color:#6DC7FF"/>
	<stop  offset="1" style="stop-color:#E6ABFF"/>
</linearGradient>
<rect x="4" y="18" style="fill:url(#SVGID_5_);" width="4" height="4"/>
<linearGradient id="SVGID_6_" gradientUnits="userSpaceOnUse" x1="20" y1="18" x2="20" y2="22">
	<stop  offset="0" style="stop-color:#6DC7FF"/>
	<stop  offset="1" style="stop-color:#E6ABFF"/>
</linearGradient>
<rect x="18" y="18" style="fill:url(#SVGID_6_);" width="4" height="4"/>
<linearGradient id="SVGID_7_" gradientUnits="userSpaceOnUse" x1="13" y1="18" x2="13" y2="22">
	<stop  offset="0" style="stop-color:#6DC7FF"/>
	<stop  offset="1" style="stop-color:#E6ABFF"/>
</linearGradient>
<rect x="11" y="18" style="fill:url(#SVGID_7_);" width="4" height="4"/>
</svg>
