<?xml version="1.0" encoding="iso-8859-1"?>
<!-- Generator: Adobe Illustrator 21.1.0, SVG Export Plug-In . SVG Version: 6.00 Build 0)  -->
<svg version="1.1" id="Layer_1" xmlns="http://www.w3.org/2000/svg" xmlns:xlink="http://www.w3.org/1999/xlink" x="0px" y="0px"
	 viewBox="0 0 24 24" style="enable-background:new 0 0 24 24;" xml:space="preserve">
<linearGradient id="SVGID_1_" gradientUnits="userSpaceOnUse" x1="12" y1="0" x2="12" y2="24">
	<stop  offset="0" style="stop-color:#1A6DFF"/>
	<stop  offset="1" style="stop-color:#C822FF"/>
</linearGradient>
<path style="fill:url(#SVGID_1_);" d="M19,24H5c-2.757,0-5-2.243-5-5V5c0-2.757,2.243-5,5-5h14c2.757,0,5,2.243,5,5v14
	C24,21.757,21.757,24,19,24z M5,2C3.346,2,2,3.346,2,5v14c0,1.654,1.346,3,3,3h14c1.654,0,3-1.346,3-3V5c0-1.654-1.346-3-3-3H5z"/>
<linearGradient id="SVGID_2_" gradientUnits="userSpaceOnUse" x1="14.5" y1="0.2083" x2="14.5" y2="23.7917">
	<stop  offset="0" style="stop-color:#1A6DFF"/>
	<stop  offset="1" style="stop-color:#C822FF"/>
</linearGradient>
<path style="fill:url(#SVGID_2_);" d="M20,11h-5.184C14.514,10.153,13.847,9.486,13,9.184V4h-2v5.184C9.839,9.598,9,10.698,9,12
	c0,1.654,1.346,3,3,3c1.302,0,2.402-0.839,2.816-2H20V11z M12,13c-0.552,0-1-0.448-1-1s0.448-1,1-1s1,0.448,1,1S12.552,13,12,13z"/>
</svg>
