<?xml version="1.0" encoding="iso-8859-1"?>
<!-- Generator: Adobe Illustrator 21.1.0, SVG Export Plug-In . SVG Version: 6.00 Build 0)  -->
<svg version="1.1" id="Layer_1" xmlns="http://www.w3.org/2000/svg" xmlns:xlink="http://www.w3.org/1999/xlink" x="0px" y="0px"
	 viewBox="0 0 30 17" style="enable-background:new 0 0 30 17;" xml:space="preserve">
<linearGradient id="SVGID_1_" gradientUnits="userSpaceOnUse" x1="15" y1="2.751361e-04" x2="15" y2="17">
	<stop  offset="0" style="stop-color:#1A6DFF"/>
	<stop  offset="1" style="stop-color:#C822FF"/>
</linearGradient>
<path style="fill:url(#SVGID_1_);" d="M29.346,0.066c-0.514-0.191-1.085,0.071-1.282,0.582C28.028,0.741,24.352,10,15,10
	S1.972,0.741,1.943,0.665C1.757,0.144,1.186-0.125,0.665,0.058c-0.52,0.185-0.792,0.757-0.607,1.277
	C0.078,1.39,1.16,4.198,3.673,6.919l-2.067,4.134c-0.247,0.494-0.047,1.095,0.447,1.342C2.197,12.466,2.35,12.5,2.499,12.5
	c0.367,0,0.72-0.202,0.895-0.553l1.788-3.576c0.86,0.734,1.837,1.42,2.946,1.993L7.03,14.757c-0.134,0.536,0.192,1.079,0.728,1.213
	C7.839,15.991,7.921,16,8.001,16c0.448,0,0.855-0.303,0.969-0.757l1.02-4.08c1.21,0.425,2.541,0.716,4.01,0.807V16
	c0,0.552,0.448,1,1,1c0.552,0,1-0.448,1-1v-4.031c1.469-0.09,2.799-0.382,4.01-0.807l1.02,4.08C21.144,15.697,21.551,16,21.999,16
	c0.081,0,0.162-0.009,0.244-0.03c0.536-0.134,0.861-0.677,0.728-1.213l-1.098-4.393c1.108-0.573,2.085-1.259,2.946-1.993
	l1.788,3.576c0.175,0.351,0.528,0.553,0.895,0.553c0.15,0,0.303-0.034,0.446-0.105c0.494-0.247,0.694-0.848,0.447-1.342
	l-2.067-4.134c2.512-2.721,3.595-5.529,3.615-5.584C30.125,0.819,29.859,0.256,29.346,0.066z"/>
</svg>
