<?xml version="1.0" encoding="iso-8859-1"?>
<!-- Generator: Adobe Illustrator 21.1.0, SVG Export Plug-In . SVG Version: 6.00 Build 0)  -->
<svg version="1.1" id="Layer_1" xmlns="http://www.w3.org/2000/svg" xmlns:xlink="http://www.w3.org/1999/xlink" x="0px" y="0px"
	 viewBox="0 0 22 34" style="enable-background:new 0 0 22 34;" xml:space="preserve">
<linearGradient id="SVGID_1_" gradientUnits="userSpaceOnUse" x1="11" y1="15" x2="11" y2="17">
	<stop  offset="0" style="stop-color:#6DC7FF"/>
	<stop  offset="1" style="stop-color:#E6ABFF"/>
</linearGradient>
<rect x="2" y="15" style="fill:url(#SVGID_1_);" width="18" height="2"/>
<linearGradient id="SVGID_2_" gradientUnits="userSpaceOnUse" x1="11" y1="0" x2="11" y2="34">
	<stop  offset="0" style="stop-color:#1A6DFF"/>
	<stop  offset="1" style="stop-color:#C822FF"/>
</linearGradient>
<path style="fill:url(#SVGID_2_);" d="M20,13c0-3.069-1.547-5.781-3.899-7.407L16.82,2H18c0.552,0,1-0.447,1-1s-0.448-1-1-1H4
	C3.448,0,3,0.447,3,1s0.448,1,1,1h1.18l0.719,3.593C3.547,7.219,2,9.931,2,13c-1.103,0-2,0.897-2,2v2c0,1.103,0.897,2,2,2h5.18
	l2.839,14.196C10.113,33.663,10.523,34,11,34s0.887-0.337,0.98-0.804L14.82,19H20c1.103,0,2-0.897,2-2v-2C22,13.897,21.103,13,20,13
	z M14.78,2l-0.524,2.619C13.245,4.225,12.149,4,11,4S8.755,4.225,7.744,4.619L7.22,2H14.78z M11,6c3.86,0,7,3.141,7,7H4
	C4,9.141,7.14,6,11,6z M11,27.901L9.22,19h3.561L11,27.901z M2,17v-2h18l0.001,2H2z"/>
</svg>
