<?xml version="1.0" encoding="iso-8859-1"?>
<!-- Generator: Adobe Illustrator 21.1.0, SVG Export Plug-In . SVG Version: 6.00 Build 0)  -->
<svg version="1.1" id="Layer_1" xmlns="http://www.w3.org/2000/svg" xmlns:xlink="http://www.w3.org/1999/xlink" x="0px" y="0px"
	 viewBox="0 0 25 24" style="enable-background:new 0 0 25 24;" xml:space="preserve">
<linearGradient id="SVGID_1_" gradientUnits="userSpaceOnUse" x1="-23.0037" y1="52.4963" x2="0.9962" y2="52.4963" gradientTransform="matrix(6.123234e-17 1 -1 6.123234e-17 64.9962 23.0037)">
	<stop  offset="0" style="stop-color:#1A6DFF"/>
	<stop  offset="1" style="stop-color:#C822FF"/>
</linearGradient>
<path style="fill:url(#SVGID_1_);" d="M4.564,24c-0.776,0-1.552-0.184-2.256-0.549l0,0C0.863,22.701,0,21.339,0,19.806V4.201
	c0-1.533,0.863-2.895,2.309-3.645C3.675-0.166,5.321-0.185,6.707,0.5l15.885,7.801C24.099,9.037,25,10.421,25,12.003
	s-0.9,2.966-2.409,3.704L6.705,23.508C6.032,23.836,5.298,24,4.564,24z M4.563,2C4.106,2,3.649,2.109,3.235,2.328
	C2.448,2.736,2,3.418,2,4.201v15.605c0,0.783,0.448,1.465,1.229,1.87h0c0.808,0.42,1.778,0.433,2.595,0.036l15.886-7.801
	C22.519,13.516,23,12.803,23,12.003c0-0.8-0.481-1.513-1.287-1.906L5.823,2.294C5.427,2.097,4.995,2,4.563,2z"/>
</svg>
