<?xml version="1.0" encoding="iso-8859-1"?>
<!-- Generator: Adobe Illustrator 21.1.0, SVG Export Plug-In . SVG Version: 6.00 Build 0)  -->
<svg version="1.1" id="Layer_1" xmlns="http://www.w3.org/2000/svg" xmlns:xlink="http://www.w3.org/1999/xlink" x="0px" y="0px"
	 viewBox="0 0 22 24" style="enable-background:new 0 0 22 24;" xml:space="preserve">
<linearGradient id="SVGID_1_" gradientUnits="userSpaceOnUse" x1="3.5" y1="0" x2="3.5" y2="24">
	<stop  offset="0" style="stop-color:#1A6DFF"/>
	<stop  offset="1" style="stop-color:#C822FF"/>
</linearGradient>
<path style="fill:url(#SVGID_1_);" d="M5,24H2c-1.103,0-2-0.897-2-2V2c0-1.103,0.897-2,2-2h3c1.103,0,2,0.897,2,2v20
	C7,23.103,6.103,24,5,24z M2,2v20h3.002L5,2H2z"/>
<linearGradient id="SVGID_2_" gradientUnits="userSpaceOnUse" x1="18.5" y1="0" x2="18.5" y2="24">
	<stop  offset="0" style="stop-color:#1A6DFF"/>
	<stop  offset="1" style="stop-color:#C822FF"/>
</linearGradient>
<path style="fill:url(#SVGID_2_);" d="M20,24h-3c-1.103,0-2-0.897-2-2V2c0-1.103,0.897-2,2-2h3c1.103,0,2,0.897,2,2v20
	C22,23.103,21.103,24,20,24z M17,2v20h3.002L20,2H17z"/>
</svg>
