<?xml version="1.0" encoding="iso-8859-1"?>
<!-- Generator: Adobe Illustrator 21.1.0, SVG Export Plug-In . SVG Version: 6.00 Build 0)  -->
<svg version="1.1" id="Layer_1" xmlns="http://www.w3.org/2000/svg" xmlns:xlink="http://www.w3.org/1999/xlink" x="0px" y="0px"
	 viewBox="0 0 24 30" style="enable-background:new 0 0 24 30;" xml:space="preserve">
<linearGradient id="SVGID_1_" gradientUnits="userSpaceOnUse" x1="12" y1="11.25" x2="12" y2="14.813">
	<stop  offset="0" style="stop-color:#6DC7FF"/>
	<stop  offset="1" style="stop-color:#E6ABFF"/>
</linearGradient>
<circle style="fill:url(#SVGID_1_);" cx="12" cy="13" r="3"/>
<linearGradient id="SVGID_2_" gradientUnits="userSpaceOnUse" x1="11.9997" y1="0" x2="11.9997" y2="30">
	<stop  offset="0" style="stop-color:#1A6DFF"/>
	<stop  offset="1" style="stop-color:#C822FF"/>
</linearGradient>
<path style="fill:url(#SVGID_2_);" d="M23.208,23.109l-7.244-10.474c-0.06-0.652-0.265-1.261-0.601-1.785l2.318-3.091
	C18.096,7.905,18.535,8,19,8c2.206,0,4-1.794,4-4s-1.794-4-4-4s-4,1.794-4,4c0,1.016,0.393,1.935,1.019,2.641l-2.138,2.851
	C13.318,9.188,12.684,9,12,9s-1.318,0.188-1.882,0.492L7.981,6.641C8.607,5.935,9,5.016,9,4c0-2.206-1.794-4-4-4S1,1.794,1,4
	s1.794,4,4,4c0.465,0,0.904-0.095,1.319-0.241l2.318,3.091c-0.337,0.525-0.541,1.134-0.601,1.787l-7.3,10.689
	c-0.68,1.051-0.899,2.287-0.617,3.479c0.299,1.266,1.123,2.351,2.319,3.056C2.598,29.955,2.773,30,2.946,30
	c0.317,0,0.628-0.15,0.822-0.429l8.233-11.822l8.249,11.823C20.443,29.85,20.754,30,21.071,30c0.182,0,0.366-0.05,0.531-0.153
	c1.195-0.75,2.009-1.873,2.292-3.164C24.16,25.462,23.922,24.201,23.208,23.109z M19,2c1.103,0,2,0.897,2,2s-0.897,2-2,2
	s-2-0.897-2-2S17.897,2,19,2z M14,13c0,1.103-0.897,2-2,2s-2-0.897-2-2s0.897-2,2-2S14,11.897,14,13z M3,4c0-1.103,0.897-2,2-2
	s2,0.897,2,2S6.103,6,5,6S3,5.103,3,4z M2.729,27.562c-0.329-0.352-0.557-0.767-0.664-1.217c-0.155-0.657-0.031-1.344,0.336-1.912
	l6.282-9.198c0.41,0.606,0.987,1.087,1.658,1.394L2.729,27.562z M21.939,26.255c-0.104,0.472-0.333,0.91-0.669,1.285l-7.612-10.911
	c0.675-0.31,1.253-0.795,1.664-1.406l6.226,9.001C21.952,24.843,22.091,25.563,21.939,26.255z"/>
</svg>
