<?xml version="1.0" encoding="iso-8859-1"?>
<!-- Generator: Adobe Illustrator 21.1.0, SVG Export Plug-In . SVG Version: 6.00 Build 0)  -->
<svg version="1.1" id="Layer_1" xmlns="http://www.w3.org/2000/svg" xmlns:xlink="http://www.w3.org/1999/xlink" x="0px" y="0px"
	 viewBox="0 0 28 24" style="enable-background:new 0 0 28 24;" xml:space="preserve">
<linearGradient id="SVGID_1_" gradientUnits="userSpaceOnUse" x1="14" y1="0.4167" x2="14" y2="23.8335">
	<stop  offset="0" style="stop-color:#1A6DFF"/>
	<stop  offset="1" style="stop-color:#C822FF"/>
</linearGradient>
<circle style="fill:url(#SVGID_1_);" cx="14" cy="21" r="3"/>
<linearGradient id="SVGID_2_" gradientUnits="userSpaceOnUse" x1="13.9983" y1="-1.818989e-12" x2="13.9983" y2="23.8357">
	<stop  offset="0" style="stop-color:#1A6DFF"/>
	<stop  offset="1" style="stop-color:#C822FF"/>
</linearGradient>
<path style="fill:url(#SVGID_2_);" d="M5.156,11.472l-1.361-1.465C6.577,7.423,10.201,6,14,6c3.797,0,7.42,1.422,10.202,4.003
	l-1.36,1.467C20.431,9.232,17.291,8,14,8C10.708,8,7.567,9.233,5.156,11.472z"/>
<linearGradient id="SVGID_3_" gradientUnits="userSpaceOnUse" x1="13.9968" y1="0" x2="13.9968" y2="23.8357">
	<stop  offset="0" style="stop-color:#1A6DFF"/>
	<stop  offset="1" style="stop-color:#C822FF"/>
</linearGradient>
<path style="fill:url(#SVGID_3_);" d="M1.352,6.821L0.02,5.329C3.87,1.893,8.835,0,14,0c5.162,0,10.125,1.891,13.974,5.324
	l-1.331,1.492C23.16,3.711,18.67,2,14,2C9.327,2,4.835,3.712,1.352,6.821z"/>
<linearGradient id="SVGID_4_" gradientUnits="userSpaceOnUse" x1="14.0007" y1="0" x2="14.0007" y2="23.7523">
	<stop  offset="0" style="stop-color:#1A6DFF"/>
	<stop  offset="1" style="stop-color:#C822FF"/>
</linearGradient>
<path style="fill:url(#SVGID_4_);" d="M19.244,15.958C17.791,14.695,15.928,14,14,14c-1.928,0-3.79,0.695-5.243,1.957l-1.312-1.51
	C9.263,12.869,11.59,12,14,12c2.41,0,4.738,0.869,6.556,2.448L19.244,15.958z"/>
</svg>
