<?xml version="1.0" encoding="iso-8859-1"?>
<!-- Generator: Adobe Illustrator 21.1.0, SVG Export Plug-In . SVG Version: 6.00 Build 0)  -->
<svg version="1.1" id="Layer_1" xmlns="http://www.w3.org/2000/svg" xmlns:xlink="http://www.w3.org/1999/xlink" x="0px" y="0px"
	 viewBox="0 0 26 24" style="enable-background:new 0 0 26 24;" xml:space="preserve">
<linearGradient id="SVGID_1_" gradientUnits="userSpaceOnUse" x1="13.0016" y1="0.0018" x2="13.0016" y2="24">
	<stop  offset="0" style="stop-color:#1A6DFF"/>
	<stop  offset="1" style="stop-color:#C822FF"/>
</linearGradient>
<path style="fill:url(#SVGID_1_);" d="M16.484,24h-4.1C11.069,24,10,22.879,10,21.5v-3c0-1.379,1.069-2.5,2.385-2.5h3.693
	c0.946,0,1.747-0.74,1.863-1.722c0.07-0.604-0.09-1.183-0.45-1.63C17.156,12.238,16.68,12,16.188,12H10v1.995
	c0,0.762-0.404,1.448-1.057,1.79c-0.687,0.357-1.503,0.26-2.084-0.244l-5.818-5.217C0.389,9.772,0.003,8.918,0.003,8
	s0.386-1.772,1.06-2.343l5.783-5.187c0.596-0.516,1.412-0.612,2.093-0.259C9.596,0.557,10,1.243,10,2.005V4h6.692
	c5.044,0,9.219,4.409,9.307,9.828v0.001c0.041,2.615-0.898,5.116-2.645,7.043C21.551,22.86,19.047,24,16.484,24z M12.385,18
	C12.18,18,12,18.233,12,18.5v3c0,0.267,0.18,0.5,0.385,0.5h4.1c1.999,0,3.963-0.901,5.389-2.472
	c1.403-1.549,2.159-3.562,2.126-5.667l0,0C23.929,9.526,20.651,6,16.692,6H8V2.122L2.377,7.164C2.132,7.373,2.003,7.671,2.003,8
	s0.129,0.627,0.353,0.817l5.662,5.076L8,10h8.188c1.096,0,2.137,0.506,2.856,1.389c0.703,0.873,1.016,1.98,0.883,3.122
	C19.692,16.501,18.037,18,16.078,18H12.385z"/>
</svg>
