<?xml version="1.0" encoding="iso-8859-1"?>
<!-- Generator: Adobe Illustrator 21.1.0, SVG Export Plug-In . SVG Version: 6.00 Build 0)  -->
<svg version="1.1" id="Layer_1" xmlns="http://www.w3.org/2000/svg" xmlns:xlink="http://www.w3.org/1999/xlink" x="0px" y="0px"
	 viewBox="0 0 26 24" style="enable-background:new 0 0 26 24;" xml:space="preserve">
<linearGradient id="SVGID_1_" gradientUnits="userSpaceOnUse" x1="3.8246" y1="0.0018" x2="3.8246" y2="24" gradientTransform="matrix(-1.8895 0 0 1 20.2265 0)">
	<stop  offset="0" style="stop-color:#1A6DFF"/>
	<stop  offset="1" style="stop-color:#C822FF"/>
</linearGradient>
<path style="fill:url(#SVGID_1_);" d="M9.517,24h4.1c1.316,0,2.363-1.119,2.363-2.498v-3c0-1.379-1.048-2.502-2.363-2.502H9.938
	c-0.946,0-1.747-0.74-1.863-1.722c-0.07-0.604,0.09-1.183,0.45-1.63C8.86,12.238,9.336,12,9.828,12h6.174v1.995
	c0,0.762,0.404,1.448,1.057,1.79c0.687,0.357,1.503,0.26,2.084-0.244l5.819-5.217C25.614,9.772,26,8.918,26,8
	s-0.386-1.772-1.06-2.343l-5.784-5.187c-0.596-0.516-1.412-0.612-2.093-0.259c-0.657,0.345-1.062,1.031-1.062,1.793V4H9.309
	c-5.044,0-9.22,4.409-9.308,9.828v0.001c-0.041,2.615,0.899,5.116,2.645,7.043C4.45,22.86,6.954,24,9.517,24z M13.617,18
	c0.205,0,0.385,0.233,0.385,0.5v3c0,0.267-0.18,0.5-0.385,0.5h-4.1c-1.999,0-3.963-0.901-5.389-2.472
	c-1.403-1.549-2.159-3.562-2.126-5.667l0,0C2.072,9.526,5.349,6,9.309,6h8.693V2.122l5.624,5.042C23.871,7.373,24,7.671,24,8
	s-0.129,0.627-0.353,0.817l-5.663,5.076L18.002,10H9.828c-1.096,0-2.137,0.506-2.857,1.389c-0.703,0.873-1.016,1.98-0.883,3.122
	C6.324,16.501,7.979,18,9.938,18H13.617z"/>
</svg>
