<?xml version="1.0" encoding="iso-8859-1"?>
<!-- Generator: Adobe Illustrator 21.1.0, SVG Export Plug-In . SVG Version: 6.00 Build 0)  -->
<svg version="1.1" id="Layer_1" xmlns="http://www.w3.org/2000/svg" xmlns:xlink="http://www.w3.org/1999/xlink" x="0px" y="0px"
	 viewBox="0 0 26 26" style="enable-background:new 0 0 26 26;" xml:space="preserve">
<linearGradient id="SVGID_1_" gradientUnits="userSpaceOnUse" x1="13.0012" y1="57.999" x2="13.0012" y2="32.001" gradientTransform="matrix(1 0 0 -1 0 58)">
	<stop  offset="0" style="stop-color:#1A6DFF"/>
	<stop  offset="1" style="stop-color:#C822FF"/>
</linearGradient>
<path style="fill:url(#SVGID_1_);" d="M13.001,25.999c-0.667,0-1.284-0.302-1.692-0.827l-2.958-3.609
	c-0.384-0.483-0.456-1.116-0.196-1.664C8.421,19.342,8.965,19,9.576,19H10v-3H7v0.426c0,0.608-0.341,1.151-0.89,1.418
	c-0.557,0.261-1.19,0.189-1.661-0.184L0.81,14.677C0.304,14.283,0.002,13.666,0.002,13s0.301-1.283,0.827-1.692L4.438,8.35
	C4.92,7.967,5.552,7.895,6.1,8.151C6.659,8.423,7,8.966,7,9.574V10h3V7H9.576c-0.61,0-1.154-0.342-1.419-0.893
	c-0.262-0.554-0.19-1.187,0.184-1.658l2.984-3.641c0.393-0.506,1.01-0.808,1.677-0.808s1.283,0.302,1.692,0.827l2.958,3.609
	c0.384,0.483,0.456,1.116,0.196,1.664C17.581,6.658,17.037,7,16.427,7H16l0,3h3V9.574c0-0.609,0.341-1.152,0.891-1.418
	c0.557-0.264,1.189-0.19,1.66,0.184l3.641,2.983C25.699,11.717,26,12.334,26,13s-0.301,1.283-0.827,1.692l-3.61,2.958
	c-0.483,0.385-1.115,0.457-1.664,0.197C19.341,17.578,19,17.035,19,16.426V16h-3l0,3h0.426c0.61,0,1.154,0.342,1.419,0.893
	c0.262,0.554,0.19,1.187-0.184,1.658l-2.984,3.641C14.285,25.697,13.668,25.999,13.001,25.999z M10.475,21l2.396,2.924
	c0.089,0.113,0.186,0.094,0.244,0.02L15.527,21H15c-0.552,0-1-0.447-1-1l0-5c0-0.266,0.105-0.52,0.293-0.707S14.735,14,15,14h5
	c0.552,0,1,0.447,1,1v0.526l2.925-2.396C23.982,13.085,24,13.048,24,13s-0.018-0.085-0.056-0.114L21,10.474V11c0,0.553-0.448,1-1,1
	h-5c-0.265,0-0.52-0.105-0.707-0.293S14,11.266,14,11l0-5c0-0.553,0.448-1,1-1h0.527l-2.396-2.924
	c-0.089-0.113-0.186-0.094-0.244-0.02L10.475,5h0.523c0.551,0,0.999,0.446,1,0.997L12,11c0,0.553-0.448,1-1,1H6
	c-0.552,0-1-0.447-1-1v-0.525L2.078,12.87C2.021,12.915,2.002,12.952,2.002,13s0.018,0.085,0.056,0.114L5,15.525V15
	c0-0.553,0.448-1,1-1h5c0.552,0,1,0.447,1,1v5c0,0.553-0.448,1-1,1H10.475z"/>
</svg>
