<?xml version="1.0" encoding="iso-8859-1"?>
<!-- Generator: Adobe Illustrator 21.1.0, SVG Export Plug-In . SVG Version: 6.00 Build 0)  -->
<svg version="1.1" id="Layer_1" xmlns="http://www.w3.org/2000/svg" xmlns:xlink="http://www.w3.org/1999/xlink" x="0px" y="0px"
	 viewBox="0 0 26 26" style="enable-background:new 0 0 26 26;" xml:space="preserve">
<linearGradient id="SVGID_1_" gradientUnits="userSpaceOnUse" x1="13" y1="0" x2="13" y2="26">
	<stop  offset="0" style="stop-color:#1A6DFF"/>
	<stop  offset="1" style="stop-color:#C822FF"/>
</linearGradient>
<path style="fill:url(#SVGID_1_);" d="M13,26C5.832,26,0,20.168,0,13S5.832,0,13,0s13,5.832,13,13S20.168,26,13,26z M13,2
	C6.935,2,2,6.935,2,13s4.935,11,11,11s11-4.935,11-11S19.065,2,13,2z"/>
<linearGradient id="SVGID_2_" gradientUnits="userSpaceOnUse" x1="13" y1="0.3333" x2="13" y2="25.5921">
	<stop  offset="0" style="stop-color:#1A6DFF"/>
	<stop  offset="1" style="stop-color:#C822FF"/>
</linearGradient>
<path style="fill:url(#SVGID_2_);" d="M14,19h-2c-1.105,0-2-0.895-2-2V9c0-1.105,0.895-2,2-2h2c1.105,0,2,0.895,2,2v8
	C16,18.105,15.105,19,14,19z M12.5,17h1c0.276,0,0.5-0.224,0.5-0.5v-7C14,9.224,13.776,9,13.5,9h-1C12.224,9,12,9.224,12,9.5v7
	C12,16.776,12.224,17,12.5,17z"/>
</svg>
