<?xml version="1.0" encoding="iso-8859-1"?>
<!-- Generator: Adobe Illustrator 21.1.0, SVG Export Plug-In . SVG Version: 6.00 Build 0)  -->
<svg version="1.1" id="Layer_1" xmlns="http://www.w3.org/2000/svg" xmlns:xlink="http://www.w3.org/1999/xlink" x="0px" y="0px"
	 viewBox="0 0 17 27" style="enable-background:new 0 0 17 27;" xml:space="preserve">
<linearGradient id="SVGID_1_" gradientUnits="userSpaceOnUse" x1="8.4996" y1="0" x2="8.4996" y2="26.9995">
	<stop  offset="0" style="stop-color:#1A6DFF"/>
	<stop  offset="1" style="stop-color:#C822FF"/>
</linearGradient>
<path style="fill:url(#SVGID_1_);" d="M7.981,27c-0.166,0-0.333-0.041-0.486-0.127c-0.269-0.151-6.59-3.759-7.409-9.94
	C-0.396,13.288,1.136,9.59,4.643,5.93l-3.45-4.304c-0.24-0.3-0.288-0.711-0.121-1.058C1.237,0.221,1.588,0,1.973,0H16
	c0.553,0,1,0.448,1,1v14c0,0.384-0.22,0.734-0.566,0.901c-0.347,0.166-0.758,0.12-1.058-0.12l-4.3-3.433
	c-7.273,7.77-2.59,12.735-2.381,12.948c0.348,0.355,0.383,0.915,0.081,1.31C8.581,26.861,8.284,27,7.981,27z M4.056,2l2.705,3.375
	c0.321,0.401,0.286,0.981-0.081,1.34C3.2,10.117,1.648,13.462,2.067,16.66c0.317,2.42,1.723,4.419,3.136,5.866
	c-0.113-0.564-0.182-1.18-0.182-1.844c0-3.409,1.771-6.905,5.263-10.39c0.358-0.359,0.932-0.391,1.33-0.073L15,12.922V2H4.056z"/>
</svg>
