<?xml version="1.0" encoding="iso-8859-1"?>
<!-- Generator: Adobe Illustrator 21.1.0, SVG Export Plug-In . SVG Version: 6.00 Build 0)  -->
<svg version="1.1" id="Layer_1" xmlns="http://www.w3.org/2000/svg" xmlns:xlink="http://www.w3.org/1999/xlink" x="0px" y="0px"
	 viewBox="0 0 29 23" style="enable-background:new 0 0 29 23;" xml:space="preserve">
<linearGradient id="SVGID_1_" gradientUnits="userSpaceOnUse" x1="14.4999" y1="-9.712501e-04" x2="14.4999" y2="23">
	<stop  offset="0" style="stop-color:#1A6DFF"/>
	<stop  offset="1" style="stop-color:#C822FF"/>
</linearGradient>
<path style="fill:url(#SVGID_1_);" d="M11.785,23c-0.667,0-1.321-0.232-1.842-0.654l-9.573-7.77
	c-0.424-0.345-0.494-0.966-0.155-1.396l2.428-3.083c0.166-0.21,0.409-0.345,0.675-0.375C3.585,9.694,3.85,9.771,4.058,9.94
	l7.323,5.943L24.256,0.361c0.171-0.206,0.417-0.335,0.684-0.357c0.264-0.027,0.531,0.062,0.735,0.235l2.975,2.541
	c0.416,0.355,0.469,0.979,0.12,1.399L14.043,21.937C13.481,22.612,12.659,23,11.785,23z M2.396,13.645l8.807,7.147
	C11.415,20.964,11.636,21,11.785,21c0.277,0,0.539-0.124,0.719-0.341L26.601,3.661l-1.454-1.242L12.289,17.923
	c-0.35,0.422-0.974,0.483-1.4,0.138l-7.304-5.928L2.396,13.645z"/>
</svg>
