<?xml version="1.0" encoding="iso-8859-1"?>
<!-- Generator: Adobe Illustrator 21.1.0, SVG Export Plug-In . SVG Version: 6.00 Build 0)  -->
<svg version="1.1" id="Layer_1" xmlns="http://www.w3.org/2000/svg" xmlns:xlink="http://www.w3.org/1999/xlink" x="0px" y="0px"
	 viewBox="0 0 24 24" style="enable-background:new 0 0 24 24;" xml:space="preserve">
<linearGradient id="SVGID_1_" gradientUnits="userSpaceOnUse" x1="-75.2935" y1="-301.2548" x2="-92.2641" y2="-284.2843" gradientTransform="matrix(0.7071 -0.7071 0.7071 0.7071 278.2599 159.7788)">
	<stop  offset="0" style="stop-color:#1A6DFF"/>
	<stop  offset="1" style="stop-color:#C822FF"/>
</linearGradient>
<path style="fill:url(#SVGID_1_);" d="M23.707,20.879l-2.828,2.828c-0.391,0.391-1.024,0.39-1.414,0L12,16.243l-7.464,7.464
	c-0.391,0.391-1.024,0.39-1.414,0l-2.828-2.828c-0.39-0.39-0.391-1.023,0-1.414L7.757,12L0.293,4.536
	c-0.39-0.39-0.391-1.023,0-1.414l2.828-2.828c0.391-0.391,1.024-0.39,1.414,0L12,7.757l7.464-7.464c0.391-0.391,1.024-0.39,1.414,0
	l2.828,2.828c0.39,0.39,0.391,1.023,0,1.414L16.243,12l7.464,7.464C24.097,19.855,24.098,20.488,23.707,20.879z M20.171,21.586
	l1.414-1.414l-7.464-7.464c-0.39-0.39-0.391-1.023,0-1.414l7.464-7.464l-1.414-1.414l-7.464,7.464c-0.391,0.391-1.024,0.39-1.414,0
	L3.829,2.414L2.414,3.829l7.464,7.464c0.39,0.39,0.391,1.023,0,1.414l-7.464,7.464l1.414,1.414l7.464-7.464
	c0.391-0.391,1.024-0.39,1.414,0L20.171,21.586z"/>
</svg>
