<?xml version="1.0" encoding="iso-8859-1"?>
<!-- Generator: Adobe Illustrator 21.1.0, SVG Export Plug-In . SVG Version: 6.00 Build 0)  -->
<svg version="1.1" id="Layer_1" xmlns="http://www.w3.org/2000/svg" xmlns:xlink="http://www.w3.org/1999/xlink" x="0px" y="0px"
	 viewBox="0 0 22 27" style="enable-background:new 0 0 22 27;" xml:space="preserve">
<linearGradient id="SVGID_1_" gradientUnits="userSpaceOnUse" x1="11" y1="47.3828" x2="11" y2="42.7108" gradientTransform="matrix(1 0 0 -5.25 0 250)">
	<stop  offset="0" style="stop-color:#1A6DFF"/>
	<stop  offset="1" style="stop-color:#C822FF"/>
</linearGradient>
<path style="fill:url(#SVGID_1_);" d="M14,27H8.004C6.902,27,6,26.098,6,24.996V14H1.937c-0.749,0-1.41-0.423-1.725-1.105
	c-0.312-0.679-0.207-1.456,0.275-2.027l8.347-9.856c0.54-0.638,1.33-1.004,2.165-1.004s1.624,0.366,2.165,1.004l8.346,9.856
	c0.484,0.571,0.589,1.348,0.276,2.027C21.473,13.577,20.812,14,20.063,14H16v11C16,26.104,15.104,27,14,27z M2.161,12H8v13l6,0
	l0.004-13h5.839l-8.195-9.693c-0.221-0.26-0.499-0.299-0.645-0.299s-0.425,0.039-0.645,0.299L2.161,12z M20.021,12h0.011H20.021z"/>
</svg>
