<?xml version="1.0" encoding="iso-8859-1"?>
<!-- Generator: Adobe Illustrator 21.1.0, SVG Export Plug-In . SVG Version: 6.00 Build 0)  -->
<svg version="1.1" id="Layer_1" xmlns="http://www.w3.org/2000/svg" xmlns:xlink="http://www.w3.org/1999/xlink" x="0px" y="0px"
	 viewBox="0 0 27 27" style="enable-background:new 0 0 27 27;" xml:space="preserve">
<linearGradient id="SVGID_1_" gradientUnits="userSpaceOnUse" x1="13.5" y1="-1.818989e-12" x2="13.5" y2="27">
	<stop  offset="0" style="stop-color:#1A6DFF"/>
	<stop  offset="1" style="stop-color:#C822FF"/>
</linearGradient>
<path style="fill:url(#SVGID_1_);" d="M13.5,27c-0.569,0-1.137-0.205-1.591-0.615L10.41,25.03l-1.974,0.424
	c-1.194,0.26-2.38-0.426-2.756-1.592L5.06,21.94l-1.923-0.62c-1.164-0.375-1.849-1.561-1.591-2.757L1.97,16.59l-1.355-1.498
	c-0.82-0.908-0.82-2.275,0-3.183L1.97,10.41L1.546,8.436C1.288,7.24,1.973,6.055,3.138,5.68L5.06,5.06l0.62-1.923
	c0.375-1.164,1.558-1.849,2.757-1.591L10.41,1.97l1.498-1.355c0.908-0.82,2.275-0.82,3.183,0h0L16.59,1.97l1.974-0.424
	c1.196-0.257,2.381,0.427,2.756,1.592l0.62,1.922l1.923,0.62c1.164,0.375,1.849,1.561,1.591,2.757L25.03,10.41l1.355,1.498
	c0.82,0.908,0.82,2.275,0,3.183L25.03,16.59l0.424,1.974c0.258,1.196-0.427,2.381-1.592,2.756l-1.922,0.62l-0.62,1.923
	c-0.375,1.164-1.56,1.849-2.757,1.591L16.59,25.03l-1.498,1.355C14.637,26.795,14.069,27,13.5,27z M10.992,22.86l2.258,2.042
	c0.143,0.129,0.358,0.129,0.5,0l2.257-2.042l2.976,0.64c0.19,0.04,0.374-0.067,0.434-0.25l0.934-2.897l2.897-0.934
	c0.183-0.059,0.291-0.245,0.25-0.433l-0.64-2.977l2.042-2.258c0.129-0.143,0.129-0.357,0-0.5l-2.042-2.257l0.64-2.976
	c0.041-0.188-0.067-0.374-0.25-0.434l-2.897-0.934l-0.934-2.897c-0.059-0.183-0.243-0.293-0.433-0.25l-2.977,0.64L13.75,2.098
	c-0.143-0.129-0.358-0.129-0.501,0L10.992,4.14l-2.976-0.64c-0.189-0.035-0.374,0.067-0.434,0.25L6.648,6.648L3.751,7.583
	C3.568,7.642,3.46,7.828,3.501,8.016l0.64,2.977L2.098,13.25c-0.129,0.143-0.129,0.357,0,0.5l2.042,2.257l-0.64,2.976
	c-0.041,0.188,0.067,0.374,0.25,0.434l2.897,0.934l0.934,2.897c0.059,0.183,0.241,0.292,0.433,0.25L10.992,22.86z"/>
</svg>
