<?xml version="1.0" encoding="iso-8859-1"?>
<!-- Generator: Adobe Illustrator 21.1.0, SVG Export Plug-In . SVG Version: 6.00 Build 0)  -->
<svg version="1.1" id="Layer_1" xmlns="http://www.w3.org/2000/svg" xmlns:xlink="http://www.w3.org/1999/xlink" x="0px" y="0px"
	 viewBox="0 0 26 26" style="enable-background:new 0 0 26 26;" xml:space="preserve">
<linearGradient id="SVGID_1_" gradientUnits="userSpaceOnUse" x1="13" y1="0" x2="13" y2="26">
	<stop  offset="0" style="stop-color:#1A6DFF"/>
	<stop  offset="1" style="stop-color:#C822FF"/>
</linearGradient>
<path style="fill:url(#SVGID_1_);" d="M15,26h-4c-0.553,0-1-0.448-1-1v-9H1c-0.553,0-1-0.448-1-1v-4c0-0.552,0.447-1,1-1h9V1
	c0-0.552,0.447-1,1-1h4c0.553,0,1,0.448,1,1v9h9c0.553,0,1,0.448,1,1v4c0,0.552-0.447,1-1,1h-9v9C16,25.552,15.553,26,15,26z M12,24
	h2v-9c0-0.552,0.447-1,1-1h9v-2h-9c-0.553,0-1-0.448-1-1V2h-2v9c0,0.552-0.447,1-1,1H2v2h9c0.553,0,1,0.448,1,1V24z"/>
</svg>
