<?xml version="1.0" encoding="iso-8859-1"?>
<!-- Generator: Adobe Illustrator 22.0.1, SVG Export Plug-In . SVG Version: 6.00 Build 0)  -->
<svg version="1.1" id="Layer_1" xmlns="http://www.w3.org/2000/svg" xmlns:xlink="http://www.w3.org/1999/xlink" x="0px" y="0px"
	 viewBox="0 0 24 24" style="enable-background:new 0 0 24 24;" xml:space="preserve">
<polygon style="fill:#ED7899;" points="23,18 17,12 23,6 18,1 12,7 6,1 1,6 7,12 1,18 6,23 12,17 18,23 "/>
<path style="fill:#8D6C9F;" d="M18,24c-0.256,0-0.512-0.098-0.707-0.293L12,18.414l-5.293,5.293c-0.391,0.391-1.023,0.391-1.414,0
	l-5-5c-0.391-0.391-0.391-1.023,0-1.414L5.586,12L0.293,6.707c-0.391-0.391-0.391-1.023,0-1.414l5-5
	c0.391-0.391,1.023-0.391,1.414,0L12,5.586l5.293-5.293c0.391-0.391,1.023-0.391,1.414,0l5,5c0.391,0.391,0.391,1.023,0,1.414
	L18.414,12l5.293,5.293c0.391,0.391,0.391,1.023,0,1.414l-5,5C18.512,23.902,18.256,24,18,24z M12,16
	c0.256,0,0.512,0.098,0.707,0.293L18,21.586L21.586,18l-5.293-5.293c-0.391-0.391-0.391-1.023,0-1.414L21.586,6L18,2.414
	l-5.293,5.293c-0.391,0.391-1.023,0.391-1.414,0L6,2.414L2.414,6l5.293,5.293c0.391,0.391,0.391,1.023,0,1.414L2.414,18L6,21.586
	l5.293-5.293C11.488,16.098,11.744,16,12,16z"/>
</svg>
