<?xml version="1.0" encoding="iso-8859-1"?>
<!-- Generator: Adobe Illustrator 22.0.1, SVG Export Plug-In . SVG Version: 6.00 Build 0)  -->
<svg version="1.1" id="Layer_1" xmlns="http://www.w3.org/2000/svg" xmlns:xlink="http://www.w3.org/1999/xlink" x="0px" y="0px"
	 viewBox="0 0 26 26" style="enable-background:new 0 0 26 26;" xml:space="preserve">
<circle style="fill:#72CAAF;" cx="13" cy="13" r="12"/>
<path style="fill:#FAEFDE;" d="M22.707,12.293c-0.391-0.391-1.023-0.391-1.414,0L20,13.586V13c0-3.86-3.14-7-7-7s-7,3.14-7,7
	s3.14,7,7,7c0.552,0,1-0.448,1-1s-0.448-1-1-1c-2.757,0-5-2.243-5-5s2.243-5,5-5s5,2.243,5,5v0.586l-1.293-1.293
	c-0.391-0.391-1.023-0.391-1.414,0s-0.391,1.023,0,1.414l3,3C18.488,16.902,18.744,17,19,17s0.512-0.098,0.707-0.293l3-3
	C23.098,13.316,23.098,12.684,22.707,12.293z"/>
<path style="fill:#8D6C9F;" d="M13,26C5.832,26,0,20.168,0,13S5.832,0,13,0s13,5.832,13,13S20.168,26,13,26z M13,2
	C6.935,2,2,6.935,2,13s4.935,11,11,11s11-4.935,11-11S19.065,2,13,2z"/>
</svg>
