<?xml version="1.0" encoding="iso-8859-1"?>
<!-- Generator: Adobe Illustrator 22.0.1, SVG Export Plug-In . SVG Version: 6.00 Build 0)  -->
<svg version="1.1" id="Layer_1" xmlns="http://www.w3.org/2000/svg" xmlns:xlink="http://www.w3.org/1999/xlink" x="0px" y="0px"
	 viewBox="0 0 30 28" style="enable-background:new 0 0 30 28;" xml:space="preserve">
<polygon style="fill:#F9E3AE;" points="21.28,17.41 23.65,27.25 15,21.82 6.35,27.25 7.07,24.25 7.55,22.25 8.72,17.41 1,10.56 
	11.23,9.62 15,0.25 18,7.71 18.77,9.62 20,9.73 29,10.56 "/>
<polygon style="fill:#F6D397;" points="21.28,17.41 23.65,27.25 15,21.82 15,0.25 18,7.71 18.77,9.62 20,9.73 29,10.56 "/>
<path style="fill:#8D6C9F;" d="M23.652,28c-0.17,0-0.341-0.043-0.494-0.131L15,23.23l-8.158,4.639
	c-0.343,0.195-0.77,0.17-1.088-0.064c-0.318-0.235-0.468-0.635-0.383-1.021l1.991-8.976l-7.02-6.124
	c-0.301-0.262-0.417-0.678-0.295-1.058c0.121-0.38,0.457-0.651,0.854-0.69l9.387-0.928l3.801-8.419C14.25,0.23,14.606,0,15,0
	s0.75,0.23,0.911,0.588l3.801,8.419l9.387,0.928c0.396,0.039,0.732,0.311,0.854,0.69c0.122,0.38,0.006,0.796-0.295,1.058
	l-7.02,6.124l1.991,8.976c0.085,0.386-0.064,0.786-0.383,1.021C24.07,27.934,23.862,28,23.652,28z M15,21.08
	c0.171,0,0.341,0.043,0.494,0.131l6.694,3.807l-1.632-7.356c-0.079-0.357,0.043-0.729,0.319-0.97l5.723-4.993l-7.659-0.757
	c-0.355-0.035-0.666-0.258-0.813-0.583L15,3.431l-3.127,6.927c-0.146,0.326-0.457,0.548-0.813,0.583l-7.659,0.757l5.723,4.993
	c0.276,0.24,0.398,0.613,0.319,0.97l-1.632,7.356l6.694-3.807C14.659,21.123,14.829,21.08,15,21.08z"/>
</svg>
