<?xml version="1.0" encoding="iso-8859-1"?>
<!-- Generator: Adobe Illustrator 22.0.1, SVG Export Plug-In . SVG Version: 6.00 Build 0)  -->
<svg version="1.1" id="Layer_1" xmlns="http://www.w3.org/2000/svg" xmlns:xlink="http://www.w3.org/1999/xlink" x="0px" y="0px"
	 viewBox="0 0 28 24" style="enable-background:new 0 0 28 24;" xml:space="preserve">
<path style="fill:#ED7899;" d="M20,1c-2.551,0-4.25,1.25-6,3c-1.75-1.75-3.449-3-6-3C4.134,1,1,4.134,1,8
	c0,1.074,0.242,2.091,0.674,3C2.797,13.365,14,23,14,23s11.203-9.635,12.326-12C26.758,10.091,27,9.074,27,8C27,4.134,23.866,1,20,1
	z"/>
<path style="fill:#E0678F;" d="M14,23.029l-2-1.75c0,0,0-2.111,0-2.749c0-0.642,0.245-1.283,0.735-1.772l5.019-4.999
	c0.979-0.975,2.562-0.972,3.536,0.007c0.975,0.978,0.971,2.561-0.007,3.535l0.592,0.603L14,23.029z"/>
<path style="fill:#F283A5;" d="M13.986,4.015C12.241,2.272,10.544,1.029,8,1.029c-0.616,0-1.211,0.088-1.78,0.237l5.066,5.465
	l2.73-2.685C14.007,4.036,13.987,4.016,13.986,4.015z"/>
<path style="fill:#8D6C9F;" d="M20,0c-2.495,0-4.264,1.021-6,2.613C12.264,1.021,10.495,0,8,0C3.589,0,0,3.589,0,8
	c0,1.198,0.259,2.352,0.771,3.429c1.18,2.485,11.414,11.329,12.577,12.33C13.535,23.919,13.768,24,14,24s0.465-0.081,0.652-0.242
	c1.163-1,11.397-9.845,12.577-12.33C27.741,10.352,28,9.198,28,8C28,3.589,24.411,0,20,0z M25.423,10.571
	C24.708,12.076,18.299,17.948,14,21.678c-4.299-3.73-10.708-9.602-11.423-11.107C2.194,9.764,2,8.899,2,8c0-3.309,2.691-6,6-6
	c1.837,0,3.177,0.759,4.568,2.018l-1.275,1.275c-0.391,0.391-0.391,1.023,0,1.414C11.488,6.902,11.744,7,12,7
	s0.512-0.098,0.707-0.293l2-2C16.378,3.036,17.847,2,20,2c3.309,0,6,2.691,6,6C26,8.899,25.806,9.764,25.423,10.571z"/>
</svg>
