<?xml version="1.0" encoding="iso-8859-1"?>
<!-- Generator: Adobe Illustrator 22.0.1, SVG Export Plug-In . SVG Version: 6.00 Build 0)  -->
<svg version="1.1" id="Layer_1" xmlns="http://www.w3.org/2000/svg" xmlns:xlink="http://www.w3.org/1999/xlink" x="0px" y="0px"
	 viewBox="0 0 26 24" style="enable-background:new 0 0 26 24;" xml:space="preserve">
<path style="fill:#FFEB9B;" d="M23.536,2.464c-1.953-1.953-5.118-1.953-7.071,0c-0.976,0.976-4.024,4.024-5,5
	c-0.167,0.167-0.301,0.354-0.439,0.538C9.737,7.996,8.447,8.482,7.464,9.464c-0.976,0.976-4.024,4.024-5,5
	c-1.953,1.953-1.953,5.118,0,7.071s5.118,1.953,7.071,0c0.976-0.976,4.024-4.024,5-5c0.167-0.167,0.301-0.354,0.439-0.538
	c1.288,0.006,2.578-0.479,3.561-1.462c0.976-0.976,4.024-4.024,5-5C25.488,7.583,25.488,4.417,23.536,2.464z"/>
<path style="fill:#8D6C9F;" d="M11.28,18.312C11.462,18.122,11.715,18,12,18c0.552,0,1,0.448,1,1c0,0.268-0.109,0.508-0.28,0.688
	c0,0-1.495,1.572-2.477,2.555c-1.17,1.17-2.707,1.754-4.243,1.755c-1.537,0-3.073-0.585-4.243-1.755
	c-2.339-2.339-2.339-6.146,0-8.485l5-5c2.34-2.34,6.147-2.34,8.486,0c0.836,0.836,1.402,1.889,1.637,3.044
	c0.11,0.541-0.24,1.069-0.781,1.179c-0.539,0.108-1.069-0.24-1.179-0.781c-0.156-0.769-0.533-1.47-1.091-2.027
	c-1.56-1.56-4.098-1.56-5.657,0l-5,5c-1.56,1.559-1.56,4.097,0,5.657s4.098,1.56,5.657,0L11.28,18.312z M24.243,1.757
	c-2.339-2.34-6.146-2.339-8.486,0c-0.487,0.487-2.474,2.55-2.474,2.55C13.109,4.488,13,4.73,13,5c0,0.552,0.448,1,1,1
	c0.283,0,0.535-0.119,0.717-0.308c0,0,2.152-2.218,2.454-2.521c1.56-1.56,4.098-1.56,5.657,0s1.56,4.098,0,5.657l-5,5
	c-1.56,1.56-4.098,1.56-5.657,0c-0.356-0.357-0.639-0.77-0.839-1.229c-0.111-0.255-0.196-0.524-0.252-0.799
	c-0.11-0.542-0.638-0.891-1.179-0.781s-0.891,0.638-0.781,1.179C9.205,12.612,9.332,13.017,9.5,13.4
	c0.3,0.688,0.723,1.309,1.258,1.843c1.169,1.17,2.706,1.755,4.243,1.755s3.073-0.585,4.243-1.755l5-5
	C26.582,7.903,26.582,4.097,24.243,1.757z"/>
</svg>
