<?xml version="1.0" encoding="iso-8859-1"?>
<!-- Generator: Adobe Illustrator 22.0.1, SVG Export Plug-In . SVG Version: 6.00 Build 0)  -->
<svg version="1.1" id="Layer_1" xmlns="http://www.w3.org/2000/svg" xmlns:xlink="http://www.w3.org/1999/xlink" x="0px" y="0px"
	 viewBox="0 0 24 26" style="enable-background:new 0 0 24 26;" xml:space="preserve">
<rect x="1" y="11" style="fill:#C2CDE7;" width="22" height="14"/>
<path style="fill:#ACB7D0;" d="M20,18c-0.917,0-15.082,0-16,0c-1.105,0-2,0.895-2,2H1v5h22v-5h-1C22,18.895,21.105,18,20,18z"/>
<circle style="fill:#F5C872;" cx="12" cy="18" r="3"/>
<path style="fill:#8D6C9F;" d="M22,10H6V8c0-3.309,2.691-6,6-6c3.007,0,5.591,2.21,6.01,5.142c0.078,0.546,0.584,0.923,1.132,0.848
	c0.547-0.078,0.927-0.584,0.849-1.131C19.431,2.948,15.995,0,12,0C7.589,0,4,3.589,4,8v2H2c-1.103,0-2,0.897-2,2v12
	c0,1.103,0.897,2,2,2h20c1.103,0,2-0.897,2-2V12C24,10.897,23.103,10,22,10z M2,24V12h20l0.001,12H2z M12,14c-2.206,0-4,1.794-4,4
	s1.794,4,4,4s4-1.794,4-4S14.206,14,12,14z M12,20c-1.103,0-2-0.897-2-2s0.897-2,2-2s2,0.897,2,2S13.103,20,12,20z"/>
</svg>
