<?xml version="1.0" encoding="iso-8859-1"?>
<!-- Generator: Adobe Illustrator 22.0.1, SVG Export Plug-In . SVG Version: 6.00 Build 0)  -->
<svg version="1.1" id="Layer_1" xmlns="http://www.w3.org/2000/svg" xmlns:xlink="http://www.w3.org/1999/xlink" x="0px" y="0px"
	 viewBox="0 0 28 28" style="enable-background:new 0 0 28 28;" xml:space="preserve">
<path style="fill:#72CAAF;" d="M27,20c0,2-0.973,5.984-1.008,6.125C25.867,26.631,25.516,27,25,27H15H8
	c-0.601,0-1.067-0.527-0.992-1.124C7.008,25.876,8,22,8,20c-1.25,0-1.5,1-3.5,1C2.567,21,1,19.433,1,17.5S2.567,14,4.5,14
	c2,0,2.25,1,3.5,1c0-2-0.992-6.876-0.992-6.876C6.933,7.527,7.399,7,8,7c0,0,4,1,6,1c0-1.25-1-1.5-1-3.5C13,2.567,14.567,1,16.5,1
	S20,2.567,20,4.5c0,2-1,2.25-1,3.5c2,0,6-1,6-1c0.516,0,0.907,0.392,0.993,0.875C26.018,8.018,27,13,27,15c-1.25,0-1.5-1-3.5-1
	c-1.933,0-3.5,1.567-3.5,3.5s1.567,3.5,3.5,3.5C25.5,21,25.75,20,27,20z"/>
<path style="fill:#8D6C9F;" d="M25,28H8c-0.573,0-1.119-0.246-1.499-0.676c-0.379-0.43-0.557-1.002-0.485-1.572
	c0.005-0.042,0.013-0.083,0.023-0.125c0.008-0.029,0.586-2.303,0.842-4.182C6.357,21.714,5.645,22,4.5,22C2.019,22,0,19.981,0,17.5
	S2.019,13,4.5,13c1.156,0,1.872,0.292,2.396,0.563c-0.248-2.177-0.861-5.201-0.868-5.239C5.944,7.678,6.122,7.105,6.501,6.676
	C6.881,6.246,7.427,6,8,6c0.082,0,0.163,0.01,0.242,0.03c0.03,0.008,2.396,0.595,4.313,0.852C12.286,6.359,12,5.646,12,4.5
	C12,2.019,14.019,0,16.5,0S21,2.019,21,4.5c0,1.146-0.286,1.859-0.555,2.382c1.917-0.257,4.282-0.844,4.313-0.852
	C24.837,6.01,24.918,6,25,6c0.971,0,1.802,0.715,1.977,1.7C27.368,9.745,28,13.295,28,15c0,0.552-0.447,1-1,1
	c-0.808,0-1.351-0.297-1.787-0.535C24.756,15.215,24.361,15,23.5,15c-1.379,0-2.5,1.122-2.5,2.5s1.121,2.5,2.5,2.5
	c0.861,0,1.256-0.215,1.713-0.465C25.649,19.297,26.192,19,27,19c0.553,0,1,0.448,1,1c0,2.177-1.027,6.325-1.037,6.367
	C26.718,27.358,25.947,28,25,28z M8,26h16.984c0.001-0.012,0.021-0.049,0.037-0.115c0.19-0.766,0.646-2.799,0.862-4.441
	C25.36,21.713,24.647,22,23.5,22c-2.481,0-4.5-2.019-4.5-4.5s2.019-4.5,4.5-4.5c1.157,0,1.872,0.292,2.397,0.563
	c-0.148-1.329-0.451-3.221-0.87-5.406c0-0.004-0.019-0.102-0.02-0.106V8.028C24.099,8.246,20.833,9,19,9c-0.553,0-1-0.448-1-1
	c0-0.807,0.297-1.351,0.535-1.787C18.784,5.756,19,5.362,19,4.5C19,3.122,17.879,2,16.5,2S14,3.122,14,4.5
	c0,0.862,0.216,1.256,0.465,1.713C14.703,6.649,15,7.193,15,8c0,0.552-0.447,1-1,1c-1.824,0-5.065-0.746-5.993-0.969
	C8.097,8.465,9,12.997,9,15c0,0.552-0.447,1-1,1c-0.808,0-1.351-0.297-1.787-0.535C5.756,15.215,5.361,15,4.5,15
	C3.121,15,2,16.122,2,17.5S3.121,20,4.5,20c0.861,0,1.256-0.215,1.713-0.465C6.649,19.297,7.192,19,8,19c0.553,0,1,0.448,1,1
	C9,21.917,8.175,25.298,8,26z"/>
</svg>
