<?xml version="1.0" encoding="iso-8859-1"?>
<!-- Generator: Adobe Illustrator 22.0.1, SVG Export Plug-In . SVG Version: 6.00 Build 0)  -->
<svg version="1.1" id="Layer_1" xmlns="http://www.w3.org/2000/svg" xmlns:xlink="http://www.w3.org/1999/xlink" x="0px" y="0px"
	 viewBox="0 0 28 28" style="enable-background:new 0 0 28 28;" xml:space="preserve">
<path style="fill:#F9DD8F;" d="M27,16v-4l-3.342-0.557c-0.231-0.875-0.575-1.702-1.02-2.465l1.969-2.756l-2.828-2.828l-2.756,1.969
	c-0.763-0.445-1.59-0.788-2.465-1.02L16,1h-4l-0.557,3.342c-0.875,0.231-1.701,0.575-2.465,1.02L6.222,3.393L3.393,6.222
	l1.969,2.756c-0.445,0.763-0.789,1.59-1.02,2.465L1,12v4l3.342,0.557c0.231,0.875,0.575,1.701,1.02,2.465l-1.969,2.756l2.828,2.828
	l2.756-1.969c0.763,0.445,1.59,0.789,2.465,1.02L12,27h4l0.557-3.342c0.875-0.231,1.702-0.575,2.465-1.02l2.756,1.969l2.828-2.828
	l-1.969-2.756c0.445-0.763,0.789-1.59,1.02-2.465L27,16z"/>
<circle style="fill:#FAEFDE;" cx="14" cy="14" r="4"/>
<path style="fill:#8D6C9F;" d="M16,28h-4c-0.489,0-0.906-0.354-0.986-0.836l-0.454-2.726c-0.52-0.171-1.024-0.379-1.509-0.624
	L6.803,25.42c-0.396,0.283-0.942,0.239-1.288-0.106l-2.828-2.828c-0.346-0.346-0.391-0.891-0.106-1.288l1.605-2.248
	c-0.245-0.485-0.453-0.989-0.624-1.508l-2.726-0.455C0.354,16.906,0,16.489,0,16v-4c0-0.489,0.354-0.906,0.836-0.986l2.726-0.455
	C3.732,10.04,3.94,9.536,4.186,9.051L2.58,6.803C2.296,6.405,2.341,5.86,2.687,5.515l2.828-2.828C5.86,2.34,6.406,2.295,6.803,2.58
	l2.248,1.605c0.484-0.244,0.989-0.453,1.509-0.624l0.454-2.726C11.094,0.354,11.511,0,12,0h4c0.489,0,0.906,0.354,0.986,0.836
	l0.454,2.726c0.52,0.171,1.024,0.379,1.509,0.624l2.248-1.605c0.396-0.285,0.941-0.24,1.288,0.107l2.828,2.828
	c0.346,0.346,0.391,0.891,0.106,1.288l-1.605,2.248c0.245,0.485,0.453,0.989,0.624,1.508l2.726,0.455C27.646,11.094,28,11.511,28,12
	v4c0,0.489-0.354,0.906-0.836,0.986l-2.726,0.455c-0.171,0.519-0.379,1.023-0.624,1.508l1.605,2.248
	c0.284,0.397,0.239,0.942-0.106,1.288l-2.828,2.828c-0.347,0.346-0.892,0.391-1.288,0.106l-2.248-1.605
	c-0.484,0.245-0.989,0.453-1.509,0.624l-0.454,2.726C16.906,27.646,16.489,28,16,28z M12.848,26h2.305l0.418-2.506
	c0.064-0.388,0.351-0.702,0.73-0.803c0.783-0.207,1.529-0.516,2.218-0.917c0.34-0.199,0.765-0.179,1.085,0.05L21.67,23.3l1.631-1.63
	l-1.477-2.067c-0.229-0.32-0.249-0.745-0.05-1.085c0.401-0.689,0.71-1.435,0.916-2.216c0.101-0.38,0.414-0.667,0.803-0.731
	L26,15.153v-2.306l-2.507-0.418c-0.389-0.064-0.702-0.351-0.803-0.731c-0.206-0.781-0.515-1.526-0.916-2.216
	c-0.199-0.34-0.18-0.765,0.05-1.085l1.477-2.067L21.67,4.7l-2.067,1.477c-0.321,0.229-0.746,0.247-1.085,0.05
	c-0.688-0.401-1.433-0.71-2.217-0.917c-0.38-0.101-0.666-0.415-0.73-0.803L15.152,2h-2.305L12.43,4.506
	c-0.064,0.388-0.351,0.702-0.73,0.803c-0.784,0.207-1.529,0.516-2.217,0.917c-0.34,0.197-0.765,0.179-1.085-0.05L6.33,4.7
	L4.699,6.33l1.477,2.067c0.229,0.32,0.249,0.745,0.05,1.085c-0.401,0.689-0.71,1.435-0.916,2.216
	c-0.101,0.38-0.414,0.667-0.803,0.731L2,12.847v2.306l2.507,0.418c0.389,0.064,0.702,0.351,0.803,0.731
	c0.206,0.781,0.515,1.526,0.916,2.216c0.199,0.34,0.18,0.765-0.05,1.085L4.699,21.67L6.33,23.3l2.066-1.476
	c0.319-0.229,0.745-0.249,1.085-0.05c0.688,0.401,1.435,0.71,2.218,0.917c0.38,0.101,0.666,0.415,0.73,0.803L12.848,26z M27,16h0.01
	H27z M14,19c-2.757,0-5-2.243-5-5s2.243-5,5-5s5,2.243,5,5S16.757,19,14,19z M14,11c-1.654,0-3,1.346-3,3s1.346,3,3,3s3-1.346,3-3
	S15.654,11,14,11z"/>
</svg>
