<?xml version="1.0" encoding="iso-8859-1"?>
<!-- Generator: Adobe Illustrator 22.0.1, SVG Export Plug-In . SVG Version: 6.00 Build 0)  -->
<svg version="1.1" id="Layer_1" xmlns="http://www.w3.org/2000/svg" xmlns:xlink="http://www.w3.org/1999/xlink" x="0px" y="0px"
	 viewBox="0 0 30 22" style="enable-background:new 0 0 30 22;" xml:space="preserve">
<path style="fill:#C5E4FA;" d="M24.881,12.038C24.958,11.549,25,11.008,25,10.5C25,5.253,20.747,1,15.5,1
	c-4.011,0-7.441,2.485-8.834,6C6.648,7.045,6.634,7.092,6.617,7.137C3.413,7.779,1,10.608,1,14c0,3.866,3.134,7,7,7h16.5
	c2.485,0,4.5-2.015,4.5-4.5C29,14.145,27.185,12.235,24.881,12.038z"/>
<path style="fill:#B8DDF4;" d="M1.683,17C2.807,19.363,5.209,21,8,21h16.5c2.314,0,4.198-1.753,4.45-4H1.683z"/>
<path style="fill:#E3F2FF;" d="M15.5,1c-2.827,0-5.361,1.238-7.101,3.197c-0.141,0.389-0.135,0.77,0.135,1.091
	c0.711,0.845,1.973,0.952,2.817,0.242C12.54,4.529,13.975,4,15.5,4s2.96,0.529,4.148,1.53C20.023,5.846,20.48,6,20.936,6
	c0.569,0,1.135-0.242,1.53-0.712c0.267-0.317,0.278-0.692,0.143-1.075C20.868,2.246,18.333,1,15.5,1z"/>
<path style="fill:#8D6C9F;" d="M25.971,11.206C25.988,10.972,26,10.739,26,10.5C26,4.71,21.29,0,15.5,0
	c-4.208,0-7.936,2.458-9.612,6.287C2.446,7.228,0,10.384,0,14c0,4.411,3.589,8,8,8h16.5c3.032,0,5.5-2.467,5.5-5.5
	C30,13.977,28.29,11.852,25.971,11.206z M24.5,20H8c-3.309,0-6-2.691-6-6c0-2.24,1.258-4.231,3.146-5.259
	c-0.07,0.401-0.124,0.803-0.145,1.207c-0.028,0.552,0.396,1.022,0.947,1.05c0.542,0.031,1.021-0.396,1.051-0.947
	C7.045,9.15,7.246,8.248,7.596,7.369C8.889,4.107,11.991,2,15.5,2c4.687,0,8.5,3.813,8.5,8.5c0,0.171-0.01,0.335-0.02,0.5H23
	c-0.553,0-1,0.448-1,1s0.447,1,1,1h1.5c1.93,0,3.5,1.57,3.5,3.5S26.43,20,24.5,20z"/>
</svg>
