<?xml version="1.0" encoding="iso-8859-1"?>
<!-- Generator: Adobe Illustrator 22.0.1, SVG Export Plug-In . SVG Version: 6.00 Build 0)  -->
<svg version="1.1" id="Layer_1" xmlns="http://www.w3.org/2000/svg" xmlns:xlink="http://www.w3.org/1999/xlink" x="0px" y="0px"
	 viewBox="0 0 26 26" style="enable-background:new 0 0 26 26;" xml:space="preserve">
<circle style="fill:#F9E3AE;" cx="13" cy="13" r="12"/>
<path style="fill:#8D6C9F;" d="M13,0C5.832,0,0,5.832,0,13s5.832,13,13,13s13-5.832,13-13S20.168,0,13,0z M13,24
	C6.935,24,2,19.065,2,13S6.935,2,13,2s11,4.935,11,11S19.065,24,13,24z M10,10c0,1.103,0.897,2,2,2v-2c0-0.552,0.447-1,1-1
	s1,0.448,1,1v2c2.206,0,4,1.794,4,4s-1.794,4-4,4v1c0,0.552-0.447,1-1,1s-1-0.448-1-1v-1c-2.206,0-4-1.794-4-4c0-0.552,0.447-1,1-1
	s1,0.448,1,1c0,1.103,0.897,2,2,2v-2c0-0.552,0.447-1,1-1s1,0.448,1,1v2c1.103,0,2-0.897,2-2s-0.897-2-2-2h-2c-2.206,0-4-1.794-4-4
	s1.794-4,4-4V5c0-0.552,0.447-1,1-1s1,0.448,1,1v1c2.206,0,4,1.794,4,4c0,0.552-0.447,1-1,1s-1-0.448-1-1c0-1.103-0.897-2-2-2h-2
	C10.897,8,10,8.897,10,10z"/>
</svg>
