<?xml version="1.0" encoding="iso-8859-1"?>
<!-- Generator: Adobe Illustrator 22.0.1, SVG Export Plug-In . SVG Version: 6.00 Build 0)  -->
<svg version="1.1" id="Layer_1" xmlns="http://www.w3.org/2000/svg" xmlns:xlink="http://www.w3.org/1999/xlink" x="0px" y="0px"
	 viewBox="0 0 26 28" style="enable-background:new 0 0 26 28;" xml:space="preserve">
<path style="fill:#C2CDE7;" d="M17,23c0,2.209-1.791,4-4,4s-4-1.791-4-4H17z"/>
<path style="fill:#F9E3AE;" d="M23.999,23c0.743,0,1.227-0.782,0.894-1.447l-2.589-3.945c-0.201-0.402-0.333-0.835-0.39-1.282
	c0,0-0.898-7.201-0.914-7.326c-0.5-4-3-6-6.5-6h-3C8,3,5.5,5,5,9c-0.016,0.125-0.914,7.326-0.914,7.326
	c-0.057,0.446-0.189,0.879-0.39,1.282l-2.589,3.945C0.774,22.218,1.258,23,2.001,23H23.999z"/>
<path style="fill:#F6D397;" d="M22.304,17.608c-0.098-0.196-0.178-0.399-0.242-0.608H3.939c-0.064,0.208-0.145,0.412-0.242,0.608
	l-2.589,3.945C0.774,22.218,1.258,23,2.001,23h21.997c0.743,0,1.227-0.782,0.894-1.447L22.304,17.608z"/>
<path style="fill:#FAEFDE;" d="M20.032,6c-1.12-1.987-3.068-3-5.532-3h-3C9.036,3,7.088,4.013,5.968,6H20.032z"/>
<path style="fill:#8D6C9F;" d="M19,17c0,0.552-0.448,1-1,1h-2c-0.552,0-1-0.448-1-1s0.448-1,1-1h2C18.552,16,19,16.448,19,17z
	 M25.7,23.051C25.333,23.646,24.696,24,23.998,24h-6.099c-0.465,2.279-2.484,4-4.899,4s-4.434-1.721-4.899-4H2.002
	c-0.698,0-1.334-0.354-1.702-0.949c-0.367-0.594-0.399-1.321-0.087-1.946c0.018-0.035,0.037-0.069,0.059-0.102l2.555-3.892
	c0.138-0.289,0.228-0.595,0.268-0.912l0.914-7.324c0.486-3.891,2.824-6.358,6.335-6.798l0.763-1.525C11.275,0.214,11.621,0,12,0h2
	c0.379,0,0.725,0.214,0.895,0.553l0.763,1.525c3.51,0.44,5.849,2.907,6.335,6.798l0.914,7.326c0.04,0.315,0.13,0.621,0.268,0.91
	l2.555,3.892c0.021,0.033,0.041,0.067,0.059,0.102C26.099,21.73,26.066,22.458,25.7,23.051z M15.816,24h-5.631
	c0.414,1.161,1.514,2,2.816,2S15.402,25.161,15.816,24z M23.99,22l-2.522-3.843c-0.021-0.033-0.041-0.067-0.059-0.102
	c-0.252-0.505-0.416-1.044-0.487-1.603l-0.914-7.328C19.589,5.772,17.684,4,14.5,4h-3C8.316,4,6.411,5.772,5.992,9.124L5.135,16H12
	c0.552,0,1,0.448,1,1s-0.448,1-1,1l-7.387-0.001c-0.009,0.018-0.013,0.038-0.022,0.056c-0.018,0.035-0.037,0.069-0.059,0.102
	L2.01,22H23.99z"/>
</svg>
