<?xml version="1.0" encoding="iso-8859-1"?>
<!-- Generator: Adobe Illustrator 22.0.1, SVG Export Plug-In . SVG Version: 6.00 Build 0)  -->
<svg version="1.1" id="Layer_1" xmlns="http://www.w3.org/2000/svg" xmlns:xlink="http://www.w3.org/1999/xlink" x="0px" y="0px"
	 viewBox="0 0 26 26" style="enable-background:new 0 0 26 26;" xml:space="preserve">
<path style="fill:#85CBF8;" d="M24,25H2c-0.552,0-1-0.448-1-1V4c0-0.552,0.448-1,1-1h22c0.552,0,1,0.448,1,1v20
	C25,24.552,24.552,25,24,25z"/>
<rect x="1" y="3" style="fill:#ACE3FF;" width="24" height="6"/>
<path style="fill:#ED7899;" d="M25,25H1v-2h1c0-1.105,0.895-2,2-2h18c1.105,0,2,0.895,2,2h1V25z"/>
<rect x="5" y="9" style="fill:#FAEFDE;" width="16" height="7"/>
<path style="fill:#8D6C9F;" d="M21,8H5C4.448,8,4,8.448,4,9v7c0,0.552,0.448,1,1,1h16c0.552,0,1-0.448,1-1V9C22,8.448,21.552,8,21,8
	z M20,15H6v-5h14V15z M24,2h-2V1c0-0.552-0.448-1-1-1s-1,0.448-1,1v1h-6V1c0-0.552-0.448-1-1-1s-1,0.448-1,1v1H6V1
	c0-0.552-0.448-1-1-1S4,0.448,4,1v1H2C0.897,2,0,2.897,0,4v20c0,1.103,0.897,2,2,2h22c1.103,0,2-0.897,2-2V4C26,2.897,25.103,2,24,2
	z M2,24V4h2v1c0,0.552,0.448,1,1,1s1-0.448,1-1V4h6v1c0,0.552,0.448,1,1,1s1-0.448,1-1V4h6v1c0,0.552,0.448,1,1,1s1-0.448,1-1V4h2
	l0.001,20H2z M22,21c0,0.552-0.448,1-1,1H5c-0.552,0-1-0.448-1-1s0.448-1,1-1h16C21.552,20,22,20.448,22,21z"/>
</svg>
