<?xml version="1.0" encoding="iso-8859-1"?>
<!-- Generator: Adobe Illustrator 22.0.1, SVG Export Plug-In . SVG Version: 6.00 Build 0)  -->
<svg version="1.1" id="Layer_1" xmlns="http://www.w3.org/2000/svg" xmlns:xlink="http://www.w3.org/1999/xlink" x="0px" y="0px"
	 viewBox="0 0 30 23" style="enable-background:new 0 0 30 23;" xml:space="preserve">
<polygon style="fill:#72CAAF;" points="1,11 5,7 12,14 25,1 29,5 12,22 "/>
<path style="fill:#97E0BB;" d="M13.704,16.296L27,3l-2-2L12,14L5,7L3,9l7.296,7.296C11.237,17.237,12.763,17.237,13.704,16.296z"/>
<path style="fill:#8D6C9F;" d="M12,23c-0.256,0-0.512-0.098-0.707-0.293l-11-11c-0.391-0.391-0.391-1.023,0-1.414l4-4
	c0.391-0.391,1.023-0.391,1.414,0L12,12.586L24.293,0.293c0.391-0.391,1.023-0.391,1.414,0l4,4c0.391,0.391,0.391,1.023,0,1.414
	l-17,17C12.512,22.902,12.256,23,12,23z M2.414,11L12,20.586L27.586,5L25,2.414L12.707,14.707c-0.391,0.391-1.023,0.391-1.414,0
	L5,8.414L2.414,11z"/>
</svg>
