<?xml version="1.0" encoding="iso-8859-1"?>
<!-- Generator: Adobe Illustrator 22.0.1, SVG Export Plug-In . SVG Version: 6.00 Build 0)  -->
<svg version="1.1" id="Layer_1" xmlns="http://www.w3.org/2000/svg" xmlns:xlink="http://www.w3.org/1999/xlink" x="0px" y="0px"
	 viewBox="0 0 26 26" style="enable-background:new 0 0 26 26;" xml:space="preserve">
<circle style="fill:#FAEFDE;" cx="13" cy="13" r="12"/>
<path style="fill:#8D6C9F;" d="M13,26C5.832,26,0,20.168,0,13S5.832,0,13,0s13,5.832,13,13S20.168,26,13,26z M13,2
	C6.935,2,2,6.935,2,13s4.935,11,11,11s11-4.935,11-11S19.065,2,13,2z M18.707,18.707c0.391-0.391,0.391-1.023,0-1.414L14,12.586V6
	c0-0.552-0.447-1-1-1s-1,0.448-1,1v7c0,0.265,0.105,0.52,0.293,0.707l5,5C17.488,18.902,17.744,19,18,19
	S18.512,18.902,18.707,18.707z"/>
</svg>
