<?xml version="1.0" encoding="iso-8859-1"?>
<!-- Generator: Adobe Illustrator 22.0.1, SVG Export Plug-In . SVG Version: 6.00 Build 0)  -->
<svg version="1.1" id="Layer_1" xmlns="http://www.w3.org/2000/svg" xmlns:xlink="http://www.w3.org/1999/xlink" x="0px" y="0px"
	 viewBox="0 0 32 22" style="enable-background:new 0 0 32 22;" xml:space="preserve">
<path style="fill:#FFF7F0;" d="M15.998,1c7.408,0,12.583,5.866,14.457,8.378c0.091,0.126,0.167,0.247,0.234,0.375
	c0.483,0.914,0.394,2.005-0.232,2.848C28.586,15.126,23.433,21,15.998,21c-7.476,0-12.599-5.889-14.456-8.423
	c-0.616-0.836-0.703-1.919-0.234-2.815C1.379,9.63,1.453,9.515,1.544,9.393C3.413,6.87,8.563,1,15.998,1"/>
<path style="fill:#FAEFDE;" d="M16,21c7.732,0,15-9,15-10h-1c0,0-6,2-14,2S2,11,2,11H1C1,12,8.268,21,16,21z"/>
<circle style="fill:#85CBF8;" cx="16" cy="11" r="5"/>
<path style="fill:#8D6C9F;" d="M16,5c-3.309,0-6,2.691-6,6s2.691,6,6,6s6-2.691,6-6S19.309,5,16,5z M16,15c-2.206,0-4-1.794-4-4
	s1.794-4,4-4s4,1.794,4,4S18.206,15,16,15z M15.998,22c-7.934,0-13.315-6.175-15.261-8.83c-0.844-1.146-0.963-2.635-0.309-3.884
	c0.097-0.179,0.199-0.337,0.313-0.488C2.696,6.158,8.108,0,15.998,0c7.859,0,13.294,6.146,15.266,8.79
	c0.121,0.166,0.222,0.328,0.309,0.496c0.665,1.258,0.545,2.756-0.313,3.91C29.301,15.842,23.889,22,15.998,22z M15.998,2
	C9.017,2,4.123,7.592,2.343,9.995c-0.06,0.079-0.108,0.155-0.15,0.233c-0.293,0.561-0.238,1.223,0.156,1.758
	C4.115,14.396,8.979,20,15.998,20c6.981,0,11.875-5.592,13.656-7.995c0.401-0.54,0.457-1.207,0.149-1.787l-0.002-0.004
	c-0.043-0.082-0.093-0.162-0.148-0.238C27.869,7.585,22.952,2,15.998,2z"/>
</svg>
