<?xml version="1.0" encoding="iso-8859-1"?>
<!-- Generator: Adobe Illustrator 22.0.1, SVG Export Plug-In . SVG Version: 6.00 Build 0)  -->
<svg version="1.1" id="Layer_1" xmlns="http://www.w3.org/2000/svg" xmlns:xlink="http://www.w3.org/1999/xlink" x="0px" y="0px"
	 viewBox="0 0 26 26" style="enable-background:new 0 0 26 26;" xml:space="preserve">
<circle style="fill:#ED7899;" cx="13" cy="13" r="12"/>
<path style="fill:#F9EFDE;" d="M11,19c0,1.105,0.895,2,2,2s2-0.895,2-2s-0.895-2-2-2S11,17.895,11,19z M13,16
	c0.508,0,0.935-0.381,0.994-0.886l0.927-8.04c0.041-0.533-0.144-1.064-0.507-1.457c-0.727-0.785-2.1-0.786-2.826,0
	c-0.363,0.392-0.548,0.923-0.504,1.494l0.923,8.003C12.065,15.619,12.492,16,13,16z"/>
<path style="fill:#8D6C9F;" d="M13,26C5.832,26,0,20.168,0,13S5.832,0,13,0s13,5.832,13,13S20.168,26,13,26z M13,2
	C6.935,2,2,6.935,2,13s4.935,11,11,11s11-4.935,11-11S19.065,2,13,2z"/>
</svg>
