<?xml version="1.0" encoding="iso-8859-1"?>
<!-- Generator: Adobe Illustrator 22.0.1, SVG Export Plug-In . SVG Version: 6.00 Build 0)  -->
<svg version="1.1" id="Layer_1" xmlns="http://www.w3.org/2000/svg" xmlns:xlink="http://www.w3.org/1999/xlink" x="0px" y="0px"
	 viewBox="0 0 22 24" style="enable-background:new 0 0 22 24;" xml:space="preserve">
<path style="fill:#C5E4FA;" d="M19,5c0,3.5-2.926,5.434-3.875,5.75C14.75,10.875,14,11.125,14,12s0.75,1.125,1.125,1.25
	C16.074,13.566,19,15.5,19,19H3c0-3.5,2.926-5.434,3.875-5.75C7.25,13.125,8,12.875,8,12s-0.75-1.125-1.125-1.25
	C5.926,10.434,3,8.5,3,5H19z"/>
<polygon style="fill:#DEF0FF;" points="17.237,14.667 16.773,15.303 14.943,17.743 14,19 19.125,19 "/>
<path style="fill:#DEF0FF;" d="M11.5,19l0.9-1.2l3.244-4.325c-0.619-0.328-1.124-0.782-1.51-1.32L13.8,12.6l-3,4L9,19H11.5z"/>
<path style="fill:#CDA1A7;" d="M3,5C1.895,5,1,4.105,1,3s0.895-2,2-2h16c1.105,0,2,0.895,2,2s-0.895,2-2,2H3z"/>
<path style="fill:#CDA1A7;" d="M3,23c-1.105,0-2-0.895-2-2s0.895-2,2-2h16c1.105,0,2,0.895,2,2s-0.895,2-2,2H3z"/>
<path style="fill:#8D6C9F;" d="M19.946,18.167c-0.405-3.376-3.182-5.424-4.504-5.866C15,12.154,15,12.096,15,12s0-0.154,0.441-0.302
	c1.322-0.441,4.099-2.49,4.504-5.866C21.135,5.434,22,4.322,22,3c0-1.654-1.346-3-3-3H3C1.346,0,0,1.346,0,3
	c0,1.322,0.865,2.434,2.054,2.833c0.405,3.376,3.182,5.424,4.504,5.866C7,11.846,7,11.904,7,12s0,0.154-0.441,0.302
	c-1.322,0.441-4.099,2.49-4.504,5.866C0.865,18.566,0,19.678,0,21c0,1.654,1.346,3,3,3h16c1.654,0,3-1.346,3-3
	C22,19.678,21.135,18.566,19.946,18.167z M3,2h16c0.552,0,1,0.448,1,1s-0.448,1-1,1H3C2.448,4,2,3.552,2,3S2.448,2,3,2z
	 M7.191,14.198C8.392,13.799,9,13.059,9,12s-0.608-1.799-1.809-2.198C6.753,9.655,4.599,8.394,4.104,5.999h13.791
	c-0.495,2.395-2.648,3.656-3.087,3.803C13.608,10.201,13,10.941,13,12s0.608,1.799,1.809,2.198c0.439,0.147,2.592,1.407,3.087,3.802
	H4.104C4.599,15.605,6.753,14.345,7.191,14.198z M19,22H3c-0.552,0-1-0.448-1-1s0.448-1,1-1h16c0.552,0,1,0.448,1,1S19.552,22,19,22
	z"/>
</svg>
