<?xml version="1.0" encoding="iso-8859-1"?>
<!-- Generator: Adobe Illustrator 22.0.1, SVG Export Plug-In . SVG Version: 6.00 Build 0)  -->
<svg version="1.1" id="Layer_1" xmlns="http://www.w3.org/2000/svg" xmlns:xlink="http://www.w3.org/1999/xlink" x="0px" y="0px"
	 viewBox="0 0 28 28" style="enable-background:new 0 0 28 28;" xml:space="preserve">
<path style="fill:#ED7899;" d="M26,6l-4-4l-11.799,9.742c-1.179-1.02-2.956-0.983-4.076,0.136L5,13l9.996,10l1.125-1.125
	c1.12-1.12,1.157-2.899,0.134-4.078L26,6z"/>
<path style="fill:#F283A5;" d="M24,4l-2-2l-11.799,9.742c-1.179-1.02-2.956-0.983-4.076,0.136L5,13l4.999,5.001L24,4z"/>
<path style="fill:#8D6C9F;" d="M27.707,6.293l-1-1l-4-4l-1-1c-0.391-0.391-1.023-0.391-1.414,0s-0.391,1.023,0,1.414l0.223,0.223
	l-10.384,8.578C8.623,9.729,6.65,9.939,5.419,11.171l-1.125,1.121C4.106,12.479,4,12.733,4,12.999s0.105,0.521,0.293,0.708
	l4.292,4.294l-8.292,8.292c-0.391,0.391-0.391,1.023,0,1.414C0.488,27.902,0.744,28,1,28s0.512-0.098,0.707-0.293l8.292-8.292
	l4.29,4.292C14.477,23.895,14.731,24,14.996,24s0.52-0.105,0.707-0.293l1.125-1.125C17.584,21.826,18,20.822,18,19.754
	c0-0.678-0.184-1.321-0.499-1.9l8.57-10.37l0.223,0.223C26.488,7.902,26.744,8,27,8s0.512-0.098,0.707-0.293
	C28.098,7.316,28.098,6.684,27.707,6.293z M15.414,21.168l-0.418,0.418l-4.286-4.288c-0.001-0.002-0.002-0.004-0.003-0.005
	s-0.004-0.002-0.005-0.003l-4.286-4.289l0.417-0.415c0.756-0.756,2.073-0.756,2.829,0l5.753,5.754C15.792,18.718,16,19.22,16,19.754
	S15.792,20.79,15.414,21.168z M24.65,6.064l-8.454,10.229l-4.492-4.492L21.936,3.35l1.357,1.357L24.65,6.064z"/>
</svg>
