<?xml version="1.0" encoding="iso-8859-1"?>
<!-- Generator: Adobe Illustrator 22.0.1, SVG Export Plug-In . SVG Version: 6.00 Build 0)  -->
<svg version="1.1" id="Layer_1" xmlns="http://www.w3.org/2000/svg" xmlns:xlink="http://www.w3.org/1999/xlink" x="0px" y="0px"
	 viewBox="0 0 24 26" style="enable-background:new 0 0 24 26;" xml:space="preserve">
<path style="fill:#72CAAF;" d="M1,2.075v21.85c0,0.834,0.935,1.35,1.67,0.921l19.795-10.982c0.716-0.418,0.713-1.429-0.004-1.844
	L2.665,1.152C1.93,0.727,1,1.243,1,2.075z"/>
<path style="fill:#8D6C9F;" d="M2.108,25.999c-0.366,0-0.734-0.094-1.064-0.282C0.391,25.341,0,24.671,0,23.925V2.075
	c0-0.744,0.389-1.413,1.04-1.789c0.656-0.38,1.471-0.378,2.125,0l19.776,10.856c0.668,0.387,1.057,1.054,1.058,1.796
	s-0.384,1.41-1.031,1.788L3.155,25.72C2.837,25.906,2.474,25.999,2.108,25.999z M2.098,2.001c-0.021,0-0.04,0.007-0.059,0.018
	L2,2.075v21.85c0.083,0.082,0.124,0.079,0.165,0.058l19.814-10.993L2.184,2.029C2.151,2.01,2.123,2.001,2.098,2.001z"/>
</svg>
