<?xml version="1.0" encoding="iso-8859-1"?>
<!-- Generator: Adobe Illustrator 22.0.1, SVG Export Plug-In . SVG Version: 6.00 Build 0)  -->
<svg version="1.1" id="Layer_1" xmlns="http://www.w3.org/2000/svg" xmlns:xlink="http://www.w3.org/1999/xlink" x="0px" y="0px"
	 viewBox="0 0 24 24" style="enable-background:new 0 0 24 24;" xml:space="preserve">
<path style="fill:#ED7899;" d="M22,23H2c-0.552,0-1-0.448-1-1V2c0-0.552,0.448-1,1-1h20c0.552,0,1,0.448,1,1v20
	C23,22.552,22.552,23,22,23z"/>
<path style="fill:#8D6C9F;" d="M22,24H2c-1.103,0-2-0.897-2-2V2c0-1.103,0.897-2,2-2h20c1.103,0,2,0.897,2,2v20
	C24,23.103,23.103,24,22,24z M2,2v20h20.002L22,2H2z"/>
</svg>
