<?xml version="1.0" encoding="iso-8859-1"?>
<!-- Generator: Adobe Illustrator 22.0.1, SVG Export Plug-In . SVG Version: 6.00 Build 0)  -->
<svg version="1.1" id="Layer_1" xmlns="http://www.w3.org/2000/svg" xmlns:xlink="http://www.w3.org/1999/xlink" x="0px" y="0px"
	 viewBox="0 0 26 26" style="enable-background:new 0 0 26 26;" xml:space="preserve">
<circle style="fill:#ED7899;" cx="13" cy="13" r="12"/>
<rect x="6" y="10" style="fill:#F9EFDE;" width="14" height="6"/>
<path style="fill:#8D6C9F;" d="M20,17H6c-0.553,0-1-0.447-1-1v-6c0-0.553,0.447-1,1-1h14c0.553,0,1,0.447,1,1v6
	C21,16.553,20.553,17,20,17z M7,15h12v-4H7V15z M13,26C5.832,26,0,20.168,0,13S5.832,0,13,0s13,5.832,13,13S20.168,26,13,26z M13,2
	C6.935,2,2,6.935,2,13s4.935,11,11,11s11-4.935,11-11S19.065,2,13,2z"/>
</svg>
