<?xml version="1.0" encoding="iso-8859-1"?>
<!-- Generator: Adobe Illustrator 22.0.1, SVG Export Plug-In . SVG Version: 6.00 Build 0)  -->
<svg version="1.1" id="Layer_1" xmlns="http://www.w3.org/2000/svg" xmlns:xlink="http://www.w3.org/1999/xlink" x="0px" y="0px"
	 viewBox="0 0 20 24" style="enable-background:new 0 0 20 24;" xml:space="preserve">
<path style="fill:#72CAAF;" d="M7,23H1V1h6V23z M19,1h-6v22h6V1z"/>
<rect x="1" y="1" style="fill:#97E0BB;" width="3" height="22"/>
<path style="fill:#8D6C9F;" d="M7,24H1c-0.553,0-1-0.447-1-1V1c0-0.553,0.447-1,1-1h6c0.553,0,1,0.447,1,1v22
	C8,23.553,7.553,24,7,24z M2,22h4V2H2V22z M19,24h-6c-0.553,0-1-0.447-1-1V1c0-0.553,0.447-1,1-1h6c0.553,0,1,0.447,1,1v22
	C20,23.553,19.553,24,19,24z M14,22h4V2h-4V22z"/>
</svg>
