<?xml version="1.0" encoding="iso-8859-1"?>
<!-- Generator: Adobe Illustrator 22.0.1, SVG Export Plug-In . SVG Version: 6.00 Build 0)  -->
<svg version="1.1" id="Layer_1" xmlns="http://www.w3.org/2000/svg" xmlns:xlink="http://www.w3.org/1999/xlink" x="0px" y="0px"
	 viewBox="0 0 24 24" style="enable-background:new 0 0 24 24;" xml:space="preserve">
<path style="fill:#B5C4E0;" d="M4.636,8.961C2.6,8.774,1,7.082,1,4.999C1,2.79,2.792,1,5.001,1s4.001,1.79,4.001,3.999
	c0,0.763-0.225,1.469-0.596,2.075L23,21.829c-1.562,1.562-4.096,1.562-5.658,0L4.636,8.961z"/>
<path style="fill:#CED8ED;" d="M23,2.171c-1.562-1.562-4.096-1.562-5.658,0L4.636,15.04C2.6,15.227,1,16.918,1,19.002
	C1,21.21,2.792,23,5.001,23s4.001-1.79,4.001-3.999c0-0.763-0.225-1.469-0.596-2.075L23,2.171z"/>
<path style="fill:#8D6C9F;" d="M14.682,12.004l9.03-9.13c0.386-0.391,0.385-1.021-0.004-1.41c-1.95-1.949-5.122-1.949-7.077,0.005
	l-6.178,6.257L9.622,6.884C9.873,6.282,10,5.643,10,5c0-2.756-2.241-5-4.999-5S0,2.242,0,4.998c0,2.46,1.765,4.507,4.164,4.909
	l2.064,2.097l-2.063,2.089C1.766,14.493,0,16.541,0,19.002C0,21.758,2.244,24,5.001,24S10,21.756,10,19
	c0-0.642-0.127-1.28-0.377-1.882l0.829-0.838l6.183,6.255C17.579,23.48,18.835,24,20.17,24c1.336,0,2.592-0.52,3.537-1.464
	c0.389-0.389,0.391-1.019,0.004-1.41L14.682,12.004z M5.349,8.26C5.183,8.091,4.963,7.988,4.728,7.965C3.173,7.823,2,6.547,2,4.998
	c0-1.654,1.346-2.999,3.001-2.999s3.001,1.345,3.001,2.999c0,0.544-0.151,1.067-0.449,1.554C7.313,6.944,7.371,7.448,7.693,7.775
	l1.353,1.375l-1.413,1.431L5.349,8.26z M7.695,16.223c-0.323,0.327-0.381,0.832-0.142,1.223c0.298,0.489,0.449,1.012,0.449,1.555
	c0,1.654-1.346,2.999-3.001,2.999S2,20.655,2,19.002c0-1.548,1.172-2.823,2.727-2.966c0.235-0.021,0.455-0.126,0.621-0.294
	L18.049,2.878c0.585-0.585,1.353-0.877,2.122-0.877c0.445,0,0.89,0.099,1.299,0.294L7.695,16.223z M18.053,21.126l-6.195-6.268
	l1.417-1.433l8.196,8.28C20.371,22.238,18.938,22.01,18.053,21.126z M6.001,19.002c0,0.552-0.448,1-1,1s-1-0.448-1-1
	c0-0.552,0.448-1,1-1S6.001,18.449,6.001,19.002z M6.001,4.999c0,0.552-0.448,1-1,1s-1-0.448-1-1s0.448-1,1-1
	S6.001,4.447,6.001,4.999z"/>
</svg>
