<?xml version="1.0" encoding="iso-8859-1"?>
<!-- Generator: Adobe Illustrator 22.0.1, SVG Export Plug-In . SVG Version: 6.00 Build 0)  -->
<svg version="1.1" id="Layer_1" xmlns="http://www.w3.org/2000/svg" xmlns:xlink="http://www.w3.org/1999/xlink" x="0px" y="0px"
	 viewBox="0 0 26 26" style="enable-background:new 0 0 26 26;" xml:space="preserve">
<circle style="fill:#72CAAF;" cx="13" cy="13" r="12"/>
<path style="fill:#F9EFDE;" d="M12,11H8.414l3.293-3.293c0.391-0.391,0.391-1.023,0-1.414s-1.023-0.391-1.414,0l-5,5
	c-0.391,0.391-0.391,1.023,0,1.414l5,5C10.488,17.902,10.744,18,11,18s0.512-0.098,0.707-0.293c0.391-0.391,0.391-1.023,0-1.414
	L8.414,13H12c2.757,0,5,2.243,5,5c0,0.553,0.447,1,1,1s1-0.447,1-1C19,14.141,15.859,11,12,11z"/>
<path style="fill:#8D6C9F;" d="M13,26C5.832,26,0,20.168,0,13S5.832,0,13,0s13,5.832,13,13S20.168,26,13,26z M13,2
	C6.935,2,2,6.935,2,13s4.935,11,11,11s11-4.935,11-11S19.065,2,13,2z"/>
</svg>
