<?xml version="1.0" encoding="iso-8859-1"?>
<!-- Generator: Adobe Illustrator 22.0.1, SVG Export Plug-In . SVG Version: 6.00 Build 0)  -->
<svg version="1.1" id="Layer_1" xmlns="http://www.w3.org/2000/svg" xmlns:xlink="http://www.w3.org/1999/xlink" x="0px" y="0px"
	 viewBox="0 0 28 24" style="enable-background:new 0 0 28 24;" xml:space="preserve">
<path style="fill:#ED7899;" d="M13.168,1.447L1.151,21.544C0.742,22.178,1.212,23,1.983,23h24.035c0.771,0,1.24-0.822,0.832-1.456
	L14.832,1.447C14.448,0.851,13.552,0.851,13.168,1.447z"/>
<path style="fill:#F9EFDE;" d="M14,16c1.105,0,2,0.895,2,2s-0.895,2-2,2s-2-0.895-2-2S12.895,16,14,16z M14,15
	c0.508,0,0.935-0.381,0.994-0.886l0.927-5.04c0.041-0.533-0.144-1.064-0.507-1.457c-0.727-0.785-2.1-0.786-2.826,0
	c-0.363,0.392-0.548,0.923-0.504,1.494l0.923,5.003C13.065,14.619,13.492,15,14,15z"/>
<path style="fill:#8D6C9F;" d="M26.018,24H1.982c-0.731,0-1.399-0.395-1.746-1.028c-0.338-0.62-0.31-1.375,0.074-1.97L12.31,0.934
	c0.006-0.009,0.012-0.019,0.018-0.027C12.692,0.339,13.318,0,14,0s1.308,0.339,1.673,0.906L27.708,21.03
	c0.365,0.566,0.394,1.321,0.056,1.941C27.417,23.605,26.749,24,26.018,24z M14,2.004L2.009,22.058L26.018,22L14,2.004z"/>
</svg>
