<?xml version="1.0" encoding="iso-8859-1"?>
<!-- Generator: Adobe Illustrator 22.0.1, SVG Export Plug-In . SVG Version: 6.00 Build 0)  -->
<svg version="1.1" id="Layer_1" xmlns="http://www.w3.org/2000/svg" xmlns:xlink="http://www.w3.org/1999/xlink" x="0px" y="0px"
	 viewBox="0 0 26 26" style="enable-background:new 0 0 26 26;" xml:space="preserve">
<circle style="fill:#85CBF8;" cx="13" cy="13" r="12"/>
<path style="fill:#FAEFDE;" d="M17,9.3C17,7.48,15.52,6,13.7,6H12c-1.654,0-3,1.346-3,3c0,0.553,0.447,1,1,1s1-0.447,1-1
	c0-0.552,0.448-1,1-1h1.7C14.417,8,15,8.583,15,9.3v1.4c0,0.717-0.583,1.3-1.3,1.3H12c-0.553,0-1,0.447-1,1s0.447,1,1,1h1.7
	c0.717,0,1.3,0.583,1.3,1.3v1.4c0,0.717-0.583,1.3-1.3,1.3H12c-0.552,0-1-0.448-1-1c0-0.553-0.447-1-1-1s-1,0.447-1,1
	c0,1.654,1.346,3,3,3h1.7c1.819,0,3.3-1.48,3.3-3.3v-1.4c0-0.895-0.361-1.705-0.941-2.3C16.639,12.405,17,11.595,17,10.7V9.3z"/>
<path style="fill:#8D6C9F;" d="M13,26C5.832,26,0,20.168,0,13S5.832,0,13,0s13,5.832,13,13S20.168,26,13,26z M13,2
	C6.935,2,2,6.935,2,13s4.935,11,11,11s11-4.935,11-11S19.065,2,13,2z"/>
</svg>
