<?xml version="1.0" encoding="iso-8859-1"?>
<!-- Generator: Adobe Illustrator 22.0.1, SVG Export Plug-In . SVG Version: 6.00 Build 0)  -->
<svg version="1.1" id="Layer_1" xmlns="http://www.w3.org/2000/svg" xmlns:xlink="http://www.w3.org/1999/xlink" x="0px" y="0px"
	 viewBox="0 0 26 26" style="enable-background:new 0 0 26 26;" xml:space="preserve">
<circle style="fill:#85CBF8;" cx="13" cy="13" r="12"/>
<path style="fill:#FAEFDE;" d="M13.7,6h-1.4C10.48,6,9,7.48,9,9.3v2.4c0,1.819,1.48,3.3,3.3,3.3H15v1.7c0,0.717-0.583,1.3-1.3,1.3
	H12c-0.552,0-1-0.448-1-1c0-0.553-0.447-1-1-1s-1,0.447-1,1c0,1.654,1.346,3,3,3h1.7c1.819,0,3.3-1.48,3.3-3.3V9.3
	C17,7.48,15.52,6,13.7,6z M11,11.7V9.3C11,8.583,11.583,8,12.3,8h1.4C14.417,8,15,8.583,15,9.3V13h-2.7C11.583,13,11,12.417,11,11.7
	z"/>
<path style="fill:#8D6C9F;" d="M13,26C5.832,26,0,20.168,0,13S5.832,0,13,0s13,5.832,13,13S20.168,26,13,26z M13,2
	C6.935,2,2,6.935,2,13s4.935,11,11,11s11-4.935,11-11S19.065,2,13,2z"/>
</svg>
