<?xml version="1.0" encoding="iso-8859-1"?>
<!-- Generator: Adobe Illustrator 21.1.0, SVG Export Plug-In . SVG Version: 6.00 Build 0)  -->
<svg version="1.1" id="Layer_1" xmlns="http://www.w3.org/2000/svg" xmlns:xlink="http://www.w3.org/1999/xlink" x="0px" y="0px"
	 viewBox="0 0 30 30" style="enable-background:new 0 0 30 30;" xml:space="preserve">
<path d="M27,12h-9V3c0-1.654-1.346-3-3-3c-1.654,0-3,1.346-3,3v9H3c-1.654,0-3,1.346-3,3c0,1.654,1.346,3,3,3h9v9
	c0,1.654,1.346,3,3,3c1.654,0,3-1.346,3-3v-9h9c1.654,0,3-1.346,3-3C30,13.346,28.654,12,27,12z"/>
</svg>
