<?xml version="1.0" encoding="iso-8859-1"?>
<!-- Generator: Adobe Illustrator 21.1.0, SVG Export Plug-In . SVG Version: 6.00 Build 0)  -->
<svg version="1.1" id="Layer_1" xmlns="http://www.w3.org/2000/svg" xmlns:xlink="http://www.w3.org/1999/xlink" x="0px" y="0px"
	 viewBox="0 0 28 28" style="enable-background:new 0 0 28 28;" xml:space="preserve">
<path d="M18.242,14l8.879-8.879C27.688,4.555,28,3.801,28,3c0-0.801-0.312-1.555-0.879-2.121C26.555,0.312,25.801,0,25,0
	s-1.555,0.312-2.121,0.879L14,9.758L5.121,0.879C4.555,0.312,3.801,0,3,0S1.445,0.312,0.879,0.879C0.312,1.445,0,2.199,0,3
	c0,0.801,0.312,1.555,0.879,2.121L9.758,14l-8.879,8.879C0.312,23.445,0,24.199,0,25c0,0.801,0.312,1.555,0.879,2.121
	C1.445,27.688,2.199,28,3,28c0.801,0,1.555-0.312,2.121-0.879L14,18.242l8.879,8.879C23.445,27.688,24.199,28,25,28
	c0.801,0,1.555-0.312,2.121-0.879C27.688,26.555,28,25.801,28,25c0-0.801-0.312-1.555-0.879-2.121L18.242,14z"/>
</svg>
