<?xml version="1.0" encoding="iso-8859-1"?>
<!-- Generator: Adobe Illustrator 21.1.0, SVG Export Plug-In . SVG Version: 6.00 Build 0)  -->
<svg version="1.1" id="Layer_1" xmlns="http://www.w3.org/2000/svg" xmlns:xlink="http://www.w3.org/1999/xlink" x="0px" y="0px"
	 viewBox="0 0 28 35" style="enable-background:new 0 0 28 35;" xml:space="preserve">
<path d="M28,10v18c0,3.86-3.14,7-7,7H3.01c-1.66,0-3-1.35-3-3v-8c0-0.01,0-0.12-0.01-0.25C-0.04,22.6,0.58,21.54,1.57,21
	C0.58,20.46-0.04,19.4,0,18.25c0.01-0.13,0.01-0.24,0.01-0.25v-8c0-1.65,1.34-3,3-3H7c0-2.15,0.97-4.15,2.65-5.48
	C10.88,0.54,12.43,0,14.01,0c0.54,0,1.09,0.06,1.63,0.19c2.52,0.58,4.54,2.58,5.15,5.09C20.93,5.85,21,6.42,21,7h4
	C26.65,7,28,8.35,28,10z"/>
</svg>
