<?xml version="1.0" encoding="iso-8859-1"?>
<!-- Generator: Adobe Illustrator 21.1.0, SVG Export Plug-In . SVG Version: 6.00 Build 0)  -->
<svg version="1.1" id="Layer_1" xmlns="http://www.w3.org/2000/svg" xmlns:xlink="http://www.w3.org/1999/xlink" x="0px" y="0px"
	 viewBox="0 0 24 38" style="enable-background:new 0 0 24 38;" xml:space="preserve">
<path d="M18.16,18.3l0.81,12.45c0.14,2.09-0.43,3.94-1.61,5.2C16.09,37.31,14.29,38,12,38s-4.09-0.69-5.35-2.05
	c-1.21-1.29-1.76-3.08-1.62-5.16l0.81-12.48c-2.73-1.06-4.76-3.17-5.46-5.78c-0.89-3.37-0.2-6.84,1.85-9.27C3.98,1.16,6.51,0,9.36,0
	H10c0.77,0,2,0,2,0s1.23,0,2,0h0.64C20.06,0,24,4.03,24,9.59C24,13.57,21.71,16.88,18.16,18.3z"/>
</svg>
