<?xml version="1.0" encoding="iso-8859-1"?>
<!-- Generator: Adobe Illustrator 21.1.0, SVG Export Plug-In . SVG Version: 6.00 Build 0)  -->
<svg version="1.1" id="Layer_1" xmlns="http://www.w3.org/2000/svg" xmlns:xlink="http://www.w3.org/1999/xlink" x="0px" y="0px"
	 viewBox="0 0 31 31" style="enable-background:new 0 0 31 31;" xml:space="preserve">
<path d="M30.964,14.562c-0.11-1.936-1.424-3.566-3.268-4.114c0.917-1.68,0.696-3.778-0.623-5.259
	c-0.401-0.447-0.826-0.872-1.267-1.268c-0.873-0.761-1.956-1.169-3.071-1.169c-0.772,0-1.517,0.191-2.184,0.557
	c-0.549-1.84-2.178-3.158-4.141-3.286c-0.32-0.018-0.622-0.027-0.924-0.027c-0.302,0-0.603,0.009-0.901,0.026
	c-1.972,0.145-3.589,1.464-4.135,3.284C9.781,2.945,9.034,2.754,8.263,2.754c-1.125,0-2.214,0.414-3.066,1.166
	c-0.43,0.384-0.855,0.808-1.272,1.27C2.618,6.674,2.4,8.758,3.309,10.449c-1.839,0.541-3.158,2.168-3.285,4.143
	c-0.035,0.621-0.035,1.229-0.001,1.824c0.146,1.983,1.463,3.598,3.283,4.137c-0.912,1.686-0.691,3.771,0.613,5.251
	c0.396,0.443,0.821,0.868,1.272,1.274c0.864,0.761,1.949,1.172,3.072,1.172c0.77,0,1.515-0.19,2.185-0.552
	c0.543,1.849,2.176,3.169,4.158,3.281C14.917,30.989,15.193,31,15.47,31c0.336,0,0.664-0.012,0.974-0.036
	c1.93-0.109,3.558-1.425,4.107-3.27c0.668,0.363,1.412,0.552,2.182,0.552c1.127,0,2.218-0.414,3.07-1.166
	c0.405-0.353,0.826-0.773,1.276-1.274c1.311-1.489,1.531-3.572,0.618-5.256c1.831-0.545,3.152-2.175,3.28-4.141
	C31.013,15.785,31.009,15.167,30.964,14.562z"/>
</svg>
