<?xml version="1.0" encoding="iso-8859-1"?>
<!-- Generator: Adobe Illustrator 21.1.0, SVG Export Plug-In . SVG Version: 6.00 Build 0)  -->
<svg version="1.1" id="Layer_1" xmlns="http://www.w3.org/2000/svg" xmlns:xlink="http://www.w3.org/1999/xlink" x="0px" y="0px"
	 viewBox="0 0 28 32" style="enable-background:new 0 0 28 32;" xml:space="preserve">
<path d="M28,25.8c0-0.527-0.126-0.97-0.225-1.284L24.576,9.6c-0.658-3.349-2.628-4.767-4.625-5.302C19.609,1.872,17.519,0,15,0h-2
	c-2.557,0-4.673,1.93-4.965,4.41C5.744,5.233,3.888,7.245,3.409,9.626L0.225,24.517C0.128,24.822,0.007,25.248,0,25.754
	C-0.006,25.842-0.01,25.918-0.01,26c0,2.757,2.247,5,5.01,5h5.49c0.937,0.536,2.073,1,3.51,1s2.573-0.464,3.51-1H23
	c2.113,0,3.88-1.222,4.623-3h0.367l0.009-1.798C28,26.168,28,26.134,28,26.1c0-0.013,0-0.027,0-0.04L28,26V25.8z"/>
</svg>
