<?xml version="1.0" encoding="iso-8859-1"?>
<!-- Generator: Adobe Illustrator 21.1.0, SVG Export Plug-In . SVG Version: 6.00 Build 0)  -->
<svg version="1.1" id="Layer_1" xmlns="http://www.w3.org/2000/svg" xmlns:xlink="http://www.w3.org/1999/xlink" x="0px" y="0px"
	 viewBox="0 0 32 26" style="enable-background:new 0 0 32 26;" xml:space="preserve">
<path d="M30.877,0.659C30.344,0.233,29.679,0,29.002,0l0,0c-0.914,0-1.767,0.408-2.34,1.119L12.631,18.658l-7.638-6.789
	C4.445,11.38,3.736,11.11,3,11.11c-0.858,0-1.676,0.369-2.245,1.012c-0.529,0.593-0.797,1.364-0.75,2.166
	c0.047,0.801,0.404,1.535,1.004,2.067l9.998,8.887C11.553,25.729,12.262,26,13,26c0.097,0,0.194-0.005,0.291-0.015
	c0.774-0.063,1.536-0.468,2.049-1.108L31.343,4.874C32.374,3.583,32.165,1.693,30.877,0.659z"/>
</svg>
