<?xml version="1.0" encoding="iso-8859-1"?>
<!-- Generator: Adobe Illustrator 21.1.0, SVG Export Plug-In . SVG Version: 6.00 Build 0)  -->
<svg version="1.1" id="Layer_1" xmlns="http://www.w3.org/2000/svg" xmlns:xlink="http://www.w3.org/1999/xlink" x="0px" y="0px"
	 viewBox="0 0 34 21" style="enable-background:new 0 0 34 21;" xml:space="preserve">
<path d="M31.49,8.19c-0.24,0.34-0.5,0.68-0.78,1.03l1.47,2.94c0.36,0.72,0.42,1.54,0.16,2.3c-0.05,0.16-0.12,0.31-0.2,0.45
	c-0.11,0.19-0.23,0.37-0.37,0.55c-0.01,0.02-0.02,0.03-0.03,0.04c-1.29,1.73-3.52,3.18-6.32,4.15c-0.32,0.11-0.65,0.22-0.98,0.31
	C22.22,20.63,19.69,21,17,21s-5.23-0.37-7.45-1.04c-0.32-0.09-0.64-0.19-0.95-0.31c-2.81-0.97-5.04-2.42-6.34-4.15
	c-0.01-0.01-0.02-0.02-0.03-0.04c-0.14-0.18-0.26-0.36-0.37-0.55c-0.08-0.14-0.15-0.29-0.2-0.45c-0.26-0.76-0.2-1.58,0.16-2.3
	l1.47-2.94C3.01,8.87,2.75,8.53,2.51,8.19C1.89,7.32,1.4,6.5,1.03,5.82c-0.5-0.94-0.77-1.62-0.85-1.8C-0.1,3.25-0.06,2.43,0.29,1.7
	c0.35-0.73,0.97-1.27,1.7-1.52C2.32,0.06,2.66,0,3,0c1.26,0,2.38,0.78,2.81,1.95c0.1,0.24,0.63,1.43,1.65,2.83
	C10.13,3.66,13.43,3,17,3s6.87,0.66,9.54,1.78c1.03-1.42,1.56-2.62,1.64-2.82l0.02-0.05C28.67,0.75,29.76,0,31,0
	c0.37,0,0.74,0.07,1.08,0.21c0.73,0.28,1.31,0.82,1.64,1.52C33.91,2.13,34,2.56,34,2.99c0,0.35-0.06,0.7-0.19,1.04
	C33.67,4.38,32.96,6.13,31.49,8.19z"/>
<path style="fill:#FFEBEE;" d="M9.55,19.96c-0.09-0.01-0.18-0.03-0.26-0.05c-0.24-0.06-0.47-0.14-0.69-0.26
	C8.91,19.77,9.23,19.87,9.55,19.96z"/>
<path style="fill:#FFEBEE;" d="M25.42,19.65c-0.21,0.11-0.45,0.2-0.69,0.26c-0.09,0.02-0.19,0.04-0.29,0.05
	C24.77,19.87,25.1,19.76,25.42,19.65z"/>
</svg>
