<?xml version="1.0" encoding="iso-8859-1"?>
<!-- Generator: Adobe Illustrator 21.1.0, SVG Export Plug-In . SVG Version: 6.00 Build 0)  -->
<svg version="1.1" id="Layer_1" xmlns="http://www.w3.org/2000/svg" xmlns:xlink="http://www.w3.org/1999/xlink" x="0px" y="0px"
	 viewBox="0 0 28 34" style="enable-background:new 0 0 28 34;" xml:space="preserve">
<path d="M25.901,9.519C27.15,8.841,28,7.518,28,6V4c0-2.206-1.794-4-4-4H4C1.794,0,0,1.794,0,4v2c0,1.518,0.85,2.841,2.099,3.519
	C2.476,12.412,3.917,15.08,6.093,17c-2.176,1.92-3.617,4.588-3.994,7.481C0.85,25.159,0,26.482,0,28v2c0,2.206,1.794,4,4,4h20
	c2.206,0,4-1.794,4-4v-2c0-1.518-0.85-2.841-2.099-3.519c-0.377-2.894-1.818-5.561-3.994-7.481
	C24.083,15.08,25.524,12.412,25.901,9.519z"/>
</svg>
