<?xml version="1.0" encoding="iso-8859-1"?>
<!-- Generator: Adobe Illustrator 21.1.0, SVG Export Plug-In . SVG Version: 6.00 Build 0)  -->
<svg version="1.1" id="Layer_1" xmlns="http://www.w3.org/2000/svg" xmlns:xlink="http://www.w3.org/1999/xlink" x="0px" y="0px"
	 viewBox="0 0 26 38" style="enable-background:new 0 0 26 38;" xml:space="preserve">
<path d="M26,17v2c0,2.21-1.79,4-4,4h-3.54l-2.52,12.59C15.66,36.99,14.43,38,13,38s-2.66-1.01-2.94-2.41L7.54,23H4
	c-2.21,0-4-1.79-4-4v-2c0-1.52,0.85-2.85,2.11-3.52c0.36-2.58,1.63-4.96,3.59-6.7L5.53,5.96C4.1,5.74,3,4.5,3,3c0-1.65,1.35-3,3-3
	h14c1.65,0,3,1.35,3,3c0,1.5-1.1,2.74-2.53,2.96L20.3,6.78c1.96,1.74,3.23,4.12,3.59,6.7C25.15,14.15,26,15.48,26,17z"/>
</svg>
