<?xml version="1.0" encoding="iso-8859-1"?>
<!-- Generator: Adobe Illustrator 21.1.0, SVG Export Plug-In . SVG Version: 6.00 Build 0)  -->
<svg version="1.1" id="Layer_1" xmlns="http://www.w3.org/2000/svg" xmlns:xlink="http://www.w3.org/1999/xlink" x="0px" y="0px"
	 viewBox="0 0 29 28" style="enable-background:new 0 0 29 28;" xml:space="preserve">
<path d="M25.47,8.504L9.592,0.705c-0.942-0.461-1.99-0.704-3.033-0.704h0c-1.112,0-2.214,0.275-3.189,0.794
	C1.268,1.882,0,3.907,0,6.2v15.61c0,1.123,0.317,2.221,0.917,3.175c0.606,0.955,1.465,1.73,2.489,2.249
	C4.343,27.73,5.444,28,6.56,28c1.069,0,2.086-0.234,3.024-0.696l15.888-7.799C27.68,18.423,29,16.364,29,14
	C29,11.642,27.68,9.587,25.47,8.504z"/>
</svg>
