<?xml version="1.0" encoding="iso-8859-1"?>
<!-- Generator: Adobe Illustrator 21.1.0, SVG Export Plug-In . SVG Version: 6.00 Build 0)  -->
<svg version="1.1" id="Layer_1" xmlns="http://www.w3.org/2000/svg" xmlns:xlink="http://www.w3.org/1999/xlink" x="0px" y="0px"
	 viewBox="0 0 28 34" style="enable-background:new 0 0 28 34;" xml:space="preserve">
<path d="M26.886,24.018l-0.015-0.024l-0.016-0.023l-6.979-10.078c-0.049-0.273-0.116-0.539-0.2-0.796l0.84-1.119
	C20.679,11.993,20.84,12,21,12c3.308,0,6-2.692,6-6s-2.692-6-6-6s-6,2.692-6,6c0,0.892,0.201,1.763,0.581,2.557L15.159,9.12
	C14.774,9.041,14.386,9,14,9s-0.774,0.041-1.159,0.12l-0.423-0.563C12.799,7.763,13,6.892,13,6c0-3.308-2.692-6-6-6S1,2.692,1,6
	s2.692,6,6,6c0.16,0,0.321-0.007,0.484-0.022l0.84,1.119c-0.085,0.26-0.152,0.528-0.201,0.804L1.088,24.202
	c-1.004,1.549-1.32,3.333-0.916,5.062c0.431,1.809,1.58,3.336,3.239,4.311C3.875,33.857,4.392,34,4.95,34
	c0.966,0,1.88-0.474,2.447-1.267l6.605-9.485l6.608,9.467C21.15,33.511,22.076,34,23.07,34c0.565,0,1.115-0.157,1.59-0.454
	c1.656-1.035,2.787-2.613,3.184-4.442C28.229,27.367,27.889,25.559,26.886,24.018z"/>
</svg>
