<?xml version="1.0" encoding="iso-8859-1"?>
<!-- Generator: Adobe Illustrator 21.1.0, SVG Export Plug-In . SVG Version: 6.00 Build 0)  -->
<svg version="1.1" id="Layer_1" xmlns="http://www.w3.org/2000/svg" xmlns:xlink="http://www.w3.org/1999/xlink" x="0px" y="0px"
	 viewBox="0 0 30 28" style="enable-background:new 0 0 30 28;" xml:space="preserve">
<path d="M30,15.8c0.05,3.12-1.08,6.11-3.16,8.42c-2.19,2.4-5.23,3.78-8.36,3.78h-4.1C11.97,28,10,25.98,10,23.5v-3
	c0-0.17,0.01-0.34,0.03-0.5c-0.91-0.01-1.79-0.35-2.51-0.97l-5.8-5.2C0.63,12.89,0,11.5,0,10s0.64-2.9,1.75-3.85l5.79-5.19
	C8.25,0.34,9.15,0,10.08,0c0.62,0,1.23,0.15,1.79,0.44C13.18,1.13,14,2.49,14,4h4.69C24.82,4,29.89,9.29,30,15.8z"/>
</svg>
