<?xml version="1.0" encoding="iso-8859-1"?>
<!-- Generator: Adobe Illustrator 21.1.0, SVG Export Plug-In . SVG Version: 6.00 Build 0)  -->
<svg version="1.1" id="Layer_1" xmlns="http://www.w3.org/2000/svg" xmlns:xlink="http://www.w3.org/1999/xlink" x="0px" y="0px"
	 viewBox="0 0 30 28" style="enable-background:new 0 0 30 28;" xml:space="preserve">
<path d="M30,10c0,1.5-0.63,2.89-1.72,3.83l-5.83,5.22c-0.69,0.61-1.58,0.94-2.5,0.95c0.02,0.16,0.03,0.33,0.03,0.5v3
	c0,2.48-1.96,4.5-4.36,4.5h-4.1c-3.13,0-6.17-1.38-8.36-3.78C1.08,21.91-0.05,18.92,0,15.8C0.11,9.29,5.18,4,11.31,4H16
	c0-1.51,0.82-2.87,2.14-3.56C18.69,0.15,19.3,0,19.92,0c0.93,0,1.83,0.34,2.57,0.98l5.77,5.17C29.37,7.1,30,8.5,30,10z"/>
</svg>
