<?xml version="1.0" encoding="iso-8859-1"?>
<!-- Generator: Adobe Illustrator 21.1.0, SVG Export Plug-In . SVG Version: 6.00 Build 0)  -->
<svg version="1.1" id="Layer_1" xmlns="http://www.w3.org/2000/svg" xmlns:xlink="http://www.w3.org/1999/xlink" x="0px" y="0px"
	 viewBox="0 0 30 30" style="enable-background:new 0 0 30 30;" xml:space="preserve">
<path d="M28.424,11.746l-3.607-2.954C24.158,8.273,23.374,8,22.58,8c-0.214,0-0.426,0.019-0.634,0.057
	c0.185-1.012-0.074-2.054-0.744-2.878L18.252,1.58C17.462,0.576,16.279,0,15,0c-1.282,0-2.468,0.574-3.254,1.576L8.792,5.183
	c-0.66,0.837-0.909,1.874-0.731,2.872c-0.207-0.038-0.418-0.056-0.63-0.056c-0.802,0-1.595,0.278-2.233,0.783L1.58,11.748
	C0.576,12.538,0,13.721,0,15c0,1.282,0.574,2.468,1.576,3.254l3.607,2.954c0.656,0.517,1.438,0.788,2.234,0.788
	c0.219,0,0.435-0.02,0.648-0.058c-0.182,1.015,0.07,2.047,0.717,2.864l2.966,3.618C12.538,29.424,13.721,30,15,30
	c1.282,0,2.468-0.574,3.254-1.576l2.954-3.607c0.665-0.823,0.922-1.862,0.742-2.869c0.207,0.037,0.416,0.056,0.628,0.056
	c0.81,0,1.607-0.285,2.244-0.802l3.598-2.95C29.424,17.462,30,16.279,30,15C30,13.718,29.426,12.532,28.424,11.746z"/>
</svg>
