<?xml version="1.0" encoding="iso-8859-1"?>
<!-- Generator: Adobe Illustrator 21.1.0, SVG Export Plug-In . SVG Version: 6.00 Build 0)  -->
<svg version="1.1" id="Layer_1" xmlns="http://www.w3.org/2000/svg" xmlns:xlink="http://www.w3.org/1999/xlink" x="0px" y="0px"
	 viewBox="0 0 21 31" style="enable-background:new 0 0 21 31;" xml:space="preserve">
<path d="M16.981,7.859l2.389-2.978c0.711-0.89,0.856-2.13,0.37-3.163C19.229,0.666,18.169,0,17.03,0H3C1.346,0,0,1.346,0,3v14
	c0,1.139,0.666,2.199,1.696,2.699C2.083,19.893,2.54,20,2.997,20c0.677,0,1.342-0.234,1.873-0.659l2.791-2.226
	c4.179,5.366,1.541,8.438,1.201,8.795C7.834,26.967,7.727,28.609,8.62,29.8c0.543,0.744,1.446,1.2,2.4,1.2
	c0.522,0,1.032-0.137,1.477-0.396c0.56-0.317,7.459-4.353,8.395-11.411C21.406,15.383,20.09,11.576,16.981,7.859z"/>
</svg>
