<?xml version="1.0" encoding="iso-8859-1"?>
<!-- Generator: Adobe Illustrator 21.1.0, SVG Export Plug-In . SVG Version: 6.00 Build 0)  -->
<svg version="1.1" id="Layer_1" xmlns="http://www.w3.org/2000/svg" xmlns:xlink="http://www.w3.org/1999/xlink" x="0px" y="0px"
	 viewBox="0 0 21 31" style="enable-background:new 0 0 21 31;" xml:space="preserve">
<path d="M18,0H3.97C2.831,0,1.771,0.666,1.271,1.696C0.763,2.711,0.9,3.969,1.628,4.879l2.391,2.98
	c-3.11,3.717-4.425,7.524-3.911,11.338c0.936,7.054,7.835,11.09,8.395,11.407C8.948,30.863,9.458,31,9.98,31
	c0.907,0,1.79-0.426,2.362-1.141l0.02-0.024l0.019-0.025c0.881-1.174,0.775-2.853-0.245-3.903c-0.33-0.346-2.975-3.422,1.205-8.791
	l2.793,2.228C16.661,19.766,17.326,20,18.003,20c0.457,0,0.914-0.108,1.322-0.312C20.334,19.199,21,18.139,21,17V3
	C21,1.346,19.654,0,18,0z"/>
</svg>
