<?xml version="1.0" encoding="iso-8859-1"?>
<!-- Generator: Adobe Illustrator 21.1.0, SVG Export Plug-In . SVG Version: 6.00 Build 0)  -->
<svg version="1.1" id="Layer_1" xmlns="http://www.w3.org/2000/svg" xmlns:xlink="http://www.w3.org/1999/xlink" x="0px" y="0px"
	 viewBox="0 0 33 27" style="enable-background:new 0 0 33 27;" xml:space="preserve">
<path d="M31.97,3.277l-3.002-2.559c-0.548-0.465-1.241-0.721-1.955-0.721c-0.075,0-0.15,0.003-0.225,0.009l-0.034,0.003
	l-0.034,0.004c-0.775,0.086-1.48,0.46-1.983,1.053L13.104,15.081L7.32,10.387C6.783,9.952,6.113,9.714,5.431,9.714
	c-0.11,0-0.221,0.006-0.332,0.018c-0.791,0.088-1.506,0.482-2.014,1.109l-2.446,3.1c-1.005,1.309-0.8,3.134,0.45,4.175l9.59,7.786
	C11.557,26.611,12.66,27,13.79,27c1.461,0,2.84-0.648,3.785-1.777L32.309,7.457C33.355,6.202,33.208,4.364,31.97,3.277z"/>
</svg>
