<?xml version="1.0" encoding="iso-8859-1"?>
<!-- Generator: Adobe Illustrator 21.1.0, SVG Export Plug-In . SVG Version: 6.00 Build 0)  -->
<svg version="1.1" id="Layer_1" xmlns="http://www.w3.org/2000/svg" xmlns:xlink="http://www.w3.org/1999/xlink" x="0px" y="0px"
	 viewBox="0 0 28 28" style="enable-background:new 0 0 28 28;" xml:space="preserve">
<path d="M21.071,14l6.05-6.05C27.688,7.383,28,6.63,28,5.828c0-0.801-0.312-1.554-0.879-2.121l-2.828-2.828
	C23.726,0.312,22.973,0,22.171,0c-0.801,0-1.555,0.312-2.121,0.879L14,6.929l-6.05-6.05C7.383,0.312,6.63,0,5.828,0
	C5.027,0,4.274,0.312,3.707,0.879L0.879,3.707c-1.17,1.17-1.17,3.073,0,4.243L6.929,14l-6.05,6.05C0.312,20.617,0,21.37,0,22.172
	c0,0.801,0.312,1.554,0.879,2.121l2.828,2.828C4.274,27.688,5.027,28,5.829,28s1.555-0.312,2.121-0.879l6.05-6.05l6.05,6.05
	C20.617,27.688,21.37,28,22.172,28c0.801,0,1.555-0.312,2.121-0.879l2.828-2.828c1.17-1.17,1.17-3.073,0-4.243L21.071,14z"/>
</svg>
