<?xml version="1.0" encoding="iso-8859-1"?>
<!-- Generator: Adobe Illustrator 21.1.0, SVG Export Plug-In . SVG Version: 6.00 Build 0)  -->
<svg version="1.1" id="Layer_1" xmlns="http://www.w3.org/2000/svg" xmlns:xlink="http://www.w3.org/1999/xlink" x="0px" y="0px"
	 viewBox="0 0 31 31" style="enable-background:new 0 0 31 31;" xml:space="preserve">
<path d="M29.858,12.562l-0.659-0.732l0.207-0.973c0.476-2.196-0.782-4.382-2.928-5.079l-0.949-0.306l-0.305-0.946
	c-0.589-1.814-2.257-3.031-4.151-3.031c-0.313,0-0.628,0.034-0.936,0.101L19.17,1.801l-0.742-0.668
	c-0.8-0.729-1.843-1.136-2.928-1.136s-2.128,0.407-2.938,1.145L11.83,1.801l-0.973-0.207c-0.301-0.065-0.616-0.099-0.93-0.099
	c-1.909,0-3.579,1.223-4.154,3.042L5.471,5.471L4.525,5.777c-2.149,0.698-3.407,2.884-2.93,5.087l0.206,0.966l-0.668,0.742
	c-1.519,1.665-1.519,4.191,0.009,5.866l0.659,0.732l-0.207,0.973c-0.476,2.196,0.782,4.382,2.928,5.079l0.949,0.307l0.305,0.946
	c0.589,1.814,2.257,3.031,4.151,3.031c0.313,0,0.628-0.034,0.935-0.101l0.966-0.206l0.742,0.668C13.371,30.595,14.414,31,15.5,31
	s2.129-0.405,2.937-1.142l0.733-0.66l0.973,0.207c0.302,0.065,0.616,0.099,0.929,0.099c1.894,0,3.562-1.217,4.15-3.027l0.307-0.949
	l0.946-0.305c2.149-0.698,3.407-2.884,2.93-5.087l-0.206-0.966l0.668-0.742C31.385,16.763,31.385,14.237,29.858,12.562z"/>
</svg>
