<?xml version="1.0" encoding="iso-8859-1"?>
<!-- Generator: Adobe Illustrator 21.1.0, SVG Export Plug-In . SVG Version: 6.00 Build 0)  -->
<svg version="1.1" id="Layer_1" xmlns="http://www.w3.org/2000/svg" xmlns:xlink="http://www.w3.org/1999/xlink" x="0px" y="0px"
	 viewBox="0 0 30 30" style="enable-background:new 0 0 30 30;" xml:space="preserve">
<path d="M27,10h-7V3c0-1.654-1.346-3-3-3h-4c-1.654,0-3,1.346-3,3v7H3c-1.654,0-3,1.346-3,3v4c0,1.654,1.346,3,3,3h7v7
	c0,1.654,1.346,3,3,3h4c1.654,0,3-1.346,3-3v-7h7c1.654,0,3-1.346,3-3v-4C30,11.346,28.654,10,27,10z"/>
</svg>
