<?xml version="1.0" encoding="iso-8859-1"?>
<!-- Generator: Adobe Illustrator 21.1.0, SVG Export Plug-In . SVG Version: 6.00 Build 0)  -->
<svg version="1.1" id="Layer_1" xmlns="http://www.w3.org/2000/svg" xmlns:xlink="http://www.w3.org/1999/xlink" x="0px" y="0px"
	 viewBox="0 0 32 31" style="enable-background:new 0 0 32 31;" xml:space="preserve">
<path d="M30.74,15.75l-4.5,4.3l1.13,6.11c0.27,1.57-0.36,3.12-1.65,4.05C25.01,30.73,24.17,31,23.3,31c-0.67,0-1.34-0.17-1.96-0.5
	l-0.05-0.02l-0.01-0.01L16,27.45l-5.28,3.02l-0.03,0.01l-0.03,0.02C10.05,30.82,9.37,31,8.69,31c-0.87,0-1.7-0.27-2.41-0.79
	c-1.29-0.93-1.92-2.47-1.65-4.07l1.13-6.09l-4.51-4.31C0.11,14.63-0.29,13,0.21,11.5C0.7,10,1.97,8.92,3.56,8.69l6.06-0.82
	l2.66-5.53C12.99,0.9,14.41,0,16,0s3.01,0.89,3.72,2.34l2.66,5.53l6.07,0.82c1.57,0.23,2.85,1.31,3.34,2.81
	C32.29,13,31.89,14.62,30.74,15.75z"/>
</svg>
