<svg xmlns="http://www.w3.org/2000/svg" viewBox="0 0 34 14">
  <path fill="#000000" fill-rule="evenodd" d="M 5 2 C 2.2 2 0 4.2 0 7 C 0 9.8 2.2 12 5 12 L 8 12 C 9.6 12 11.1 11.2 12 10 C 12.9 11.2 14.4 12 16 12 L 19 12 C 21.8 12 24 9.8 24 7 C 24 4.2 21.8 2 19 2 L 16 2 C 14.4 2 12.9 2.8 12 4 C 11.1 2.8 9.6 2 8 2 L 5 2 L 5 2 Z M 5 4 L 8 4 C 8.9 4 9.69 4.4 10.19 5 L 13.81 5 C 14.31 4.4 15.1 4 16 4 L 19 4 C 20.7 4 22 5.3 22 7 C 22 8.7 20.7 10 19 10 L 16 10 C 15.1 10 14.31 9.6 13.81 9 L 10.19 9 C 9.69 9.6 8.9 10 8 10 L 5 10 C 3.3 10 2 8.7 2 7 C 2 5.3 3.3 4 5 4 L 5 4 Z M 7.81 6 C 7.26 6.05 6.85 6.54 6.91 7.09 C 6.96 7.65 7.45 8.05 8 8 L 16 8 C 16.36 8.01 16.7 7.82 16.88 7.5 C 17.06 7.19 17.06 6.81 16.88 6.5 C 16.7 6.18 16.36 5.99 16 6 L 8 6 C 7.97 6 7.94 6 7.91 6 C 7.88 6 7.84 6 7.81 6 L 7.81 6 Z M 7.81 6"/>
  <path fill="#32c24d" fill-rule="evenodd" transform="rotate(90,30,7)" d="M 29.84 3.84 C 27.04 3.84 24.43 4.96 22.53 6.66 L 23.84 8.16 C 25.44 6.76 27.54 5.84 29.84 5.84 C 32.14 5.84 34.24 6.76 35.84 8.16 L 37.16 6.66 C 35.26 4.96 32.64 3.84 29.84 3.84 L 29.84 3.84 Z M 29.84 7.84 C 28.04 7.84 26.46 8.56 25.16 9.66 L 26.44 11.16 C 27.34 10.36 28.45 9.84 29.75 9.84 C 31.05 9.84 32.13 10.36 33.03 11.16 L 34.34 9.66 C 33.24 8.56 31.64 7.84 29.84 7.84 L 29.84 7.84 Z M 29.84 7.84"/>
</svg>