<svg xmlns="http://www.w3.org/2000/svg" viewBox="0 0 24 10">
  <path fill-rule="evenodd" d="M 5 0 C 2.2 0 0 2.2 0 5 C 0 7.8 2.2 10 5 10 L 8 10 C 9.6 10 11.1 9.2 12 8 C 12.9 9.2 14.4 10 16 10 L 19 10 C 21.8 10 24 7.8 24 5 C 24 2.2 21.8 0 19 0 L 16 0 C 14.4 0 12.9 0.8 12 2 C 11.1 0.8 9.6 0 8 0 L 5 0 L 5 0 Z M 5 2 L 8 2 C 8.9 2 9.69 2.4 10.19 3 L 13.81 3 C 14.31 2.4 15.1 2 16 2 L 19 2 C 20.7 2 22 3.3 22 5 C 22 6.7 20.7 8 19 8 L 16 8 C 15.1 8 14.31 7.6 13.81 7 L 10.19 7 C 9.69 7.6 8.9 8 8 8 L 5 8 C 3.3 8 2 6.7 2 5 C 2 3.3 3.3 2 5 2 L 5 2 Z M 7.81 4 C 7.26 4.05 6.85 4.54 6.91 5.09 C 6.96 5.65 7.45 6.05 8 6 L 16 6 C 16.36 6.01 16.7 5.82 16.88 5.5 C 17.06 5.19 17.06 4.81 16.88 4.5 C 16.7 4.18 16.36 3.99 16 4 L 8 4 C 7.97 4 7.94 4 7.91 4 C 7.88 4 7.84 4 7.81 4 L 7.81 4 Z M 7.81 4"/>
</svg>