<?xml version="1.0" encoding="iso-8859-1"?>
<!-- Generator: Adobe Illustrator 22.1.0, SVG Export Plug-In . SVG Version: 6.00 Build 0)  -->
<svg version="1.1" id="Layer_1" xmlns="http://www.w3.org/2000/svg" xmlns:xlink="http://www.w3.org/1999/xlink" x="0px" y="0px"
	 viewBox="0 0 19 18" style="enable-background:new 0 0 19 18;" xml:space="preserve">
<path d="M9.5,4.988l0.899,2.054l0.466,1.064l1.155,0.123l2.275,0.242l-1.612,1.435l-0.854,0.76l0.222,1.122l0.45,2.275L10.5,12.908
	l-1-0.578l-1,0.578l-2.001,1.155l0.45-2.275l0.222-1.122l-0.854-0.76L4.705,8.471L6.98,8.229l1.155-0.123l0.466-1.064L9.5,4.988
	 M9.5,0L6.769,6.24L0,6.96l4.987,4.44L3.681,18L9.5,14.64L15.319,18l-1.306-6.6L19,6.96l-6.769-0.72L9.5,0L9.5,0z"/>
</svg>
