<?xml version="1.0" encoding="iso-8859-1"?>
<!-- Generator: Adobe Illustrator 22.1.0, SVG Export Plug-In . SVG Version: 6.00 Build 0)  -->
<svg version="1.1" id="Layer_1" xmlns="http://www.w3.org/2000/svg" xmlns:xlink="http://www.w3.org/1999/xlink" x="0px" y="0px"
	 viewBox="0 0 16 15" style="enable-background:new 0 0 16 15;" xml:space="preserve">
<path d="M11.381,2c0.703,0,1.365,0.274,1.862,0.772c1.013,1.014,1.003,2.662-0.021,3.752L8,12.08L2.778,6.523
	c-1.025-1.09-1.034-2.738-0.021-3.752C3.255,2.274,3.916,2,4.619,2c0.703,0,1.364,0.274,1.865,0.775L6.589,2.88L8.01,4.296
	l1.411-1.426L9.52,2.771C10.017,2.274,10.678,2,11.381,2 M11.381,0C10.143,0,8.98,0.482,8.105,1.358L8,1.463L7.895,1.358
	C7.02,0.482,5.857,0,4.619,0C3.381,0,2.218,0.482,1.343,1.358C-0.439,3.14-0.449,6.011,1.321,7.893L8,15l6.679-7.107
	c1.769-1.883,1.759-4.753-0.022-6.535C13.782,0.482,12.619,0,11.381,0L11.381,0z"/>
</svg>
