<?xml version="1.0" encoding="iso-8859-1"?>
<!-- Generator: Adobe Illustrator 22.1.0, SVG Export Plug-In . SVG Version: 6.00 Build 0)  -->
<svg version="1.1" id="Layer_1" xmlns="http://www.w3.org/2000/svg" xmlns:xlink="http://www.w3.org/1999/xlink" x="0px" y="0px"
	 viewBox="0 0 16 16" style="enable-background:new 0 0 16 16;" xml:space="preserve">
<path d="M10,0C6.69,0,4,2.69,4,6c0,0.34,0.03,0.68,0.09,1L0,11.09V16h6v-2h0.91l2.1-2.09C9.33,11.97,9.66,12,10,12
	c3.31,0,6-2.69,6-6S13.31,0,10,0z M10,10H9.92c-0.53-0.01-1.04-0.13-1.5-0.33L6.09,12H4v2H2v-2.09l4.33-4.33C6.12,7.1,6,6.56,6,6
	c0-0.37,0.05-0.73,0.15-1.07C6.61,3.24,8.16,2,10,2c2.21,0,4,1.79,4,4C14,8.21,12.21,10,10,10z M12,5c0,0.552-0.448,1-1,1
	s-1-0.448-1-1c0-0.552,0.448-1,1-1S12,4.448,12,5z"/>
</svg>
