<?xml version="1.0" encoding="iso-8859-1"?>
<!-- Generator: Adobe Illustrator 22.1.0, SVG Export Plug-In . SVG Version: 6.00 Build 0)  -->
<svg version="1.1" id="Layer_1" xmlns="http://www.w3.org/2000/svg" xmlns:xlink="http://www.w3.org/1999/xlink" x="0px" y="0px"
	 viewBox="0 0 15 15" style="enable-background:new 0 0 15 15;" xml:space="preserve">
<path d="M12,3c0-1.654-1.346-3-3-3S6,1.346,6,3H3v3C1.346,6,0,7.346,0,9s1.346,3,3,3v3h12V3H12z M13,13H5v-3H3c-0.551,0-1-0.449-1-1
	s0.449-1,1-1h2V5h3V3c0-0.551,0.449-1,1-1s1,0.449,1,1v2h3V13z"/>
</svg>
