<?xml version="1.0" encoding="iso-8859-1"?>
<!-- Generator: Adobe Illustrator 22.1.0, SVG Export Plug-In . SVG Version: 6.00 Build 0)  -->
<svg version="1.1" id="Layer_1" xmlns="http://www.w3.org/2000/svg" xmlns:xlink="http://www.w3.org/1999/xlink" x="0px" y="0px"
	 viewBox="0 0 16 16" style="enable-background:new 0 0 16 16;" xml:space="preserve">
<path d="M10.5,0C7.468,0,5,2.467,5,5.5c0,0.359,0.037,0.709,0.103,1.049c-1.532,1.58-3.774,3.88-4.224,4.329
	C0.313,11.445,0,12.199,0,13s0.313,1.555,0.879,2.121S2.199,16,3,16s1.555-0.313,2.122-0.879c0.447-0.447,2.743-2.687,4.329-4.224
	C9.79,10.963,10.141,11,10.5,11c3.032,0,5.5-2.467,5.5-5.5S13.532,0,10.5,0z M10.5,9C9.923,9,9.387,8.846,8.907,8.598
	c-1.924,1.881-4.879,4.788-5.2,5.109C3.518,13.896,3.267,14,3,14s-0.518-0.104-0.707-0.293c0,0,0,0,0,0s0,0,0,0
	C2.104,13.518,2,13.267,2,13s0.104-0.518,0.293-0.707c0.342-0.342,3.373-3.428,5.106-5.206C7.152,6.609,7,6.074,7,5.5
	C7,3.57,8.57,2,10.5,2c0.409,0,0.796,0.084,1.161,0.213L9,4.875L11.125,7l2.661-2.661C13.916,4.704,14,5.091,14,5.5
	C14,7.43,12.43,9,10.5,9z"/>
</svg>
