<?xml version="1.0" encoding="iso-8859-1"?>
<!-- Generator: Adobe Illustrator 22.1.0, SVG Export Plug-In . SVG Version: 6.00 Build 0)  -->
<svg version="1.1" id="Layer_1" xmlns="http://www.w3.org/2000/svg" xmlns:xlink="http://www.w3.org/1999/xlink" x="0px" y="0px"
	 viewBox="0 0 16 16" style="enable-background:new 0 0 16 16;" xml:space="preserve">
<path d="M8,6c1.1,0,2,0.9,2,2s-0.9,2-2,2S6,9.1,6,8S6.9,6,8,6z M13.9,9c-0.2,0.9-0.5,1.7-1,2.5l1.5,1.5L13,14.4l-1.5-1.5
	c-0.7,0.5-1.6,0.9-2.5,1V16H7v-2.1c-0.9-0.2-1.7-0.5-2.5-1L3,14.4L1.6,13l1.5-1.5c-0.5-0.7-0.9-1.6-1-2.5H0V7h2.1
	c0.2-0.9,0.5-1.7,1-2.5L1.6,3.1L3,1.7l1.5,1.5c0.7-0.5,1.6-0.9,2.5-1V0h2v2.1c0.9,0.2,1.7,0.5,2.5,1L13,1.6L14.4,3l-1.5,1.5
	c0.5,0.7,0.9,1.6,1,2.5H16v2H13.9z M12,8c0-2.2-1.8-4-4-4S4,5.8,4,8s1.8,4,4,4S12,10.2,12,8z"/>
</svg>
