<?xml version="1.0" encoding="iso-8859-1"?>
<!-- Generator: Adobe Illustrator 22.1.0, SVG Export Plug-In . SVG Version: 6.00 Build 0)  -->
<svg version="1.1" id="Layer_1" xmlns="http://www.w3.org/2000/svg" xmlns:xlink="http://www.w3.org/1999/xlink" x="0px" y="0px"
	 viewBox="0 0 18 12" style="enable-background:new 0 0 18 12;" xml:space="preserve">
<path d="M13.5,12H4c-2.206,0-4-1.794-4-4c0-2.116,1.651-3.853,3.732-3.991C4.387,1.671,6.515,0,9,0c2.072,0,3.957,1.187,4.885,3.016
	C16.187,3.212,18,5.148,18,7.5C18,9.981,15.981,12,13.5,12z M4,6C2.897,6,2,6.897,2,8s0.897,2,2,2h9.5c1.379,0,2.5-1.122,2.5-2.5
	S14.879,5,13.5,5h-0.985l-0.236-0.665C11.781,2.938,10.464,2,9,2C7.231,2,5.748,3.337,5.55,5.111L5.45,6H4z"/>
</svg>
