<?xml version="1.0" encoding="iso-8859-1"?>
<!-- Generator: Adobe Illustrator 22.1.0, SVG Export Plug-In . SVG Version: 6.00 Build 0)  -->
<svg version="1.1" id="Layer_1" xmlns="http://www.w3.org/2000/svg" xmlns:xlink="http://www.w3.org/1999/xlink" x="0px" y="0px"
	 viewBox="0 0 8 16" style="enable-background:new 0 0 8 16;" xml:space="preserve">
<path d="M8,10.5C8,8.5,6.5,7,4.5,7h-1C2.7,7,2,6.3,2,5.5S2.7,4,3.5,4H7V2H5V0H3v2C1.3,2.3,0,3.7,0,5.5C0,7.5,1.5,9,3.5,9h1
	C5.3,9,6,9.7,6,10.5S5.3,12,4.5,12H1v2h2v2h2v-2C6.7,13.7,8,12.3,8,10.5z"/>
</svg>
