<?xml version="1.0" encoding="iso-8859-1"?>
<!-- Generator: Adobe Illustrator 22.1.0, SVG Export Plug-In . SVG Version: 6.00 Build 0)  -->
<svg version="1.1" id="Layer_1" xmlns="http://www.w3.org/2000/svg" xmlns:xlink="http://www.w3.org/1999/xlink" x="0px" y="0px"
	 viewBox="0 0 14 17" style="enable-background:new 0 0 14 17;" xml:space="preserve">
<path d="M13,13V7c0-3-2.2-5.4-5-5.9V1c0-0.6-0.4-1-1-1S6,0.4,6,1v0.1C3.2,1.6,1,4,1,7v6H0v2h5c0,1.1,0.9,2,2,2s2-0.9,2-2h5v-2H13z
	 M3,13V7c0-2.2,1.8-4,4-4s4,1.8,4,4v6H3z"/>
</svg>
