<?xml version="1.0" encoding="iso-8859-1"?>
<!-- Generator: Adobe Illustrator 22.1.0, SVG Export Plug-In . SVG Version: 6.00 Build 0)  -->
<svg version="1.1" id="Layer_1" xmlns="http://www.w3.org/2000/svg" xmlns:xlink="http://www.w3.org/1999/xlink" x="0px" y="0px"
	 viewBox="0 0 20 10" style="enable-background:new 0 0 20 10;" xml:space="preserve">
<path d="M10,2c3.18,0,5.562,1.772,6.83,3C15.56,6.229,13.178,8,10,8C6.82,8,4.438,6.228,3.17,5C4.44,3.771,6.822,2,10,2 M10,0
	C4,0,0.5,5,0.5,5S4,10,10,10s9.5-5,9.5-5S16,0,10,0L10,0z M11.5,5C10.672,5,10,4.328,10,3.5c0-0.602,0.357-1.118,0.869-1.357
	C10.593,2.059,10.305,2,10,2C8.343,2,7,3.343,7,5s1.343,3,3,3s3-1.343,3-3c0-0.305-0.059-0.593-0.143-0.869
	C12.618,4.643,12.102,5,11.5,5z"/>
</svg>
