<?xml version="1.0" encoding="iso-8859-1"?>
<!-- Generator: Adobe Illustrator 22.1.0, SVG Export Plug-In . SVG Version: 6.00 Build 0)  -->
<svg version="1.1" id="Layer_1" xmlns="http://www.w3.org/2000/svg" xmlns:xlink="http://www.w3.org/1999/xlink" x="0px" y="0px"
	 viewBox="0 0 20 9" style="enable-background:new 0 0 20 9;" xml:space="preserve">
<path d="M19.3,5.4l-1.6,1.3l-2.124-2.527c-0.401,0.25-0.83,0.49-1.278,0.713L15.5,7.9l-1.9,0.7l-1.063-2.996
	C12.038,5.759,11.523,5.871,11,5.94V9H9V5.94C8.477,5.871,7.962,5.759,7.463,5.604L6.4,8.6L4.5,7.9l1.202-3.015
	C5.254,4.663,4.825,4.423,4.424,4.173L2.3,6.7L0.7,5.4l2.027-2.428C1.719,2.17,1.087,1.505,1.021,1.435l1.458-1.37
	C2.516,0.104,6.241,4.012,10,4.012s7.484-3.907,7.521-3.947l1.458,1.37c-0.066,0.07-0.698,0.735-1.707,1.537L19.3,5.4z"/>
</svg>
