<?xml version="1.0" encoding="iso-8859-1"?>
<!-- Generator: Adobe Illustrator 22.1.0, SVG Export Plug-In . SVG Version: 6.00 Build 0)  -->
<svg version="1.1" id="Layer_1" xmlns="http://www.w3.org/2000/svg" xmlns:xlink="http://www.w3.org/1999/xlink" x="0px" y="0px"
	 viewBox="0 0 16 16" style="enable-background:new 0 0 16 16;" xml:space="preserve">
<path d="M7,10h2v2H7V10z M8,0C3.6,0,0,3.6,0,8c0,4.4,3.6,8,8,8s8-3.6,8-8C16,3.6,12.4,0,8,0z M8,14c-3.3,0-6-2.7-6-6s2.7-6,6-6
	s6,2.7,6,6S11.3,14,8,14z M9,8.829C10.164,8.416,11,7.304,11,6c0-1.654-1.346-3-3-3S5,4.346,5,6h2c0-0.551,0.448-1,1-1s1,0.449,1,1
	S8.552,7,8,7C7.447,7,7,7.448,7,8v1h2V8.829z"/>
</svg>
