<?xml version="1.0" encoding="iso-8859-1"?>
<!-- Generator: Adobe Illustrator 22.1.0, SVG Export Plug-In . SVG Version: 6.00 Build 0)  -->
<svg version="1.1" id="Layer_1" xmlns="http://www.w3.org/2000/svg" xmlns:xlink="http://www.w3.org/1999/xlink" x="0px" y="0px"
	 viewBox="0 0 16 16" style="enable-background:new 0 0 16 16;" xml:space="preserve">
<path d="M16,5.6L10.4,0L7.1,4.4C5.5,4.3,3.9,4.8,2.7,6L2,6.7l2.9,2.9l-4.9,5V16h1.4l4.9-4.9l3,2.9l0.7-0.7c1.2-1.2,1.7-2.8,1.6-4.4
	L16,5.6z M9.5,8.8c0.2,0.7,0.1,1.6-0.3,2.3L4.9,6.8c0.7-0.4,1.6-0.5,2.3-0.3l0.7,0.2L10.6,3L13,5.4L9.3,8.1L9.5,8.8z"/>
</svg>
