<?xml version="1.0" encoding="iso-8859-1"?>
<!-- Generator: Adobe Illustrator 22.1.0, SVG Export Plug-In . SVG Version: 6.00 Build 0)  -->
<svg version="1.1" id="Layer_1" xmlns="http://www.w3.org/2000/svg" xmlns:xlink="http://www.w3.org/1999/xlink" x="0px" y="0px"
	 viewBox="0 0 16 16" style="enable-background:new 0 0 16 16;" xml:space="preserve">
<path d="M8,16c-4.4,0-8-3.6-8-8s3.6-8,8-8s8,3.6,8,8S12.4,16,8,16z M8,2C4.7,2,2,4.7,2,8s2.7,6,6,6s6-2.7,6-6S11.3,2,8,2z M8,11.5
	c-1.6,0-2.9-1.3-2.9-2.9V7.4c0-1.6,1.3-2.9,2.9-2.9s2.9,1.3,2.9,2.9v1.3C10.9,10.3,9.6,11.5,8,11.5z M8,6.5c-0.5,0-0.9,0.4-0.9,0.9
	v1.3c0,0.5,0.4,0.9,0.9,0.9s0.9-0.4,0.9-0.9V7.4C8.9,6.8,8.5,6.5,8,6.5z"/>
</svg>
