<?xml version="1.0" encoding="iso-8859-1"?>
<!-- Generator: Adobe Illustrator 22.1.0, SVG Export Plug-In . SVG Version: 6.00 Build 0)  -->
<svg version="1.1" id="Layer_1" xmlns="http://www.w3.org/2000/svg" xmlns:xlink="http://www.w3.org/1999/xlink" x="0px" y="0px"
	 viewBox="0 0 16 16" style="enable-background:new 0 0 16 16;" xml:space="preserve">
<path d="M9.6,11.2h-2V7.9C7.2,8.2,6.7,8.4,6.1,8.4v-2c0.9,0,1.2-1,1.2-1.1l0.2-0.8h2.2v6.7H9.6z M16,8c0-4.4-3.6-8-8-8S0,3.6,0,8
	s3.6,8,8,8S16,12.4,16,8z M14,8c0,3.3-2.7,6-6,6s-6-2.7-6-6s2.7-6,6-6S14,4.7,14,8z"/>
</svg>
