<?xml version="1.0" encoding="iso-8859-1"?>
<!-- Generator: Adobe Illustrator 22.1.0, SVG Export Plug-In . SVG Version: 6.00 Build 0)  -->
<svg version="1.1" id="Layer_1" xmlns="http://www.w3.org/2000/svg" xmlns:xlink="http://www.w3.org/1999/xlink" x="0px" y="0px"
	 viewBox="0 0 16 16" style="enable-background:new 0 0 16 16;" xml:space="preserve">
<path d="M8,16c-4.4,0-8-3.6-8-8s3.6-8,8-8s8,3.6,8,8S12.4,16,8,16z M8,2C4.7,2,2,4.7,2,8s2.7,6,6,6s6-2.7,6-6S11.3,2,8,2z M10.5,9.5
	H9.1c0.1-0.1,0.3-0.2,0.4-0.3c0.9-0.5,1.4-1.4,1.4-2.2c0-1.5-1.1-2.6-2.6-2.6H7.6C6.2,4.5,5,5.6,5,7v0.3h2V7c0-0.3,0.3-0.6,0.6-0.6
	h0.7c0.3,0,0.6,0.3,0.6,0.6c0,0.2-0.2,0.4-0.4,0.5C8,7.9,7.5,8.1,7.1,8.3c-1,0.5-2,1-2,2.2v1h5.5v-2H10.5z"/>
</svg>
