<?xml version="1.0" encoding="iso-8859-1"?>
<!-- Generator: Adobe Illustrator 22.1.0, SVG Export Plug-In . SVG Version: 6.00 Build 0)  -->
<svg version="1.1" id="Layer_1" xmlns="http://www.w3.org/2000/svg" xmlns:xlink="http://www.w3.org/1999/xlink" x="0px" y="0px"
	 viewBox="0 0 16 16" style="enable-background:new 0 0 16 16;" xml:space="preserve">
<path d="M8,16c-4.4,0-8-3.6-8-8s3.6-8,8-8s8,3.6,8,8S12.4,16,8,16z M8,2C4.7,2,2,4.7,2,8s2.7,6,6,6s6-2.7,6-6S11.3,2,8,2z M10.9,9
	c0-1.2-0.8-2.2-1.9-2.5h0.9v-2h-4L5.2,8.4h3.1c0.3,0,0.6,0.3,0.6,0.6S8.6,9.6,8.3,9.6H7.7C7.3,9.5,7.1,9.3,7.1,9h-2
	c0,1.5,1.1,2.6,2.6,2.6h0.6C9.8,11.5,10.9,10.4,10.9,9z"/>
</svg>
