<?xml version="1.0" encoding="iso-8859-1"?>
<!-- Generator: Adobe Illustrator 22.1.0, SVG Export Plug-In . SVG Version: 6.00 Build 0)  -->
<svg version="1.1" id="Layer_1" xmlns="http://www.w3.org/2000/svg" xmlns:xlink="http://www.w3.org/1999/xlink" x="0px" y="0px"
	 viewBox="0 0 16 16" style="enable-background:new 0 0 16 16;" xml:space="preserve">
<path d="M8,16c-4.4,0-8-3.6-8-8s3.6-8,8-8s8,3.6,8,8S12.4,16,8,16z M8,2C4.7,2,2,4.7,2,8s2.7,6,6,6s6-2.7,6-6S11.3,2,8,2z M9,6.5
	h0.3v-2H8.6C7,4.5,5.5,5.6,5.2,7.2v0.2c0,0.1,0,0.2,0,0.2c0,0.1,0,0.3,0,0.4v1c0,1.5,1.1,2.6,2.6,2.6h0.6c1.5,0,2.6-1.1,2.6-2.6
	C10.9,7.7,10.1,6.7,9,6.5z M8.3,9.5H7.7C7.3,9.5,7.1,9.3,7.1,9s0.3-0.6,0.6-0.6h0.6c0.3,0,0.6,0.3,0.6,0.6C8.9,9.3,8.7,9.5,8.3,9.5z
	"/>
</svg>
