<?xml version="1.0" encoding="iso-8859-1"?>
<!-- Generator: Adobe Illustrator 22.1.0, SVG Export Plug-In . SVG Version: 6.00 Build 0)  -->
<svg version="1.1" id="Layer_1" xmlns="http://www.w3.org/2000/svg" xmlns:xlink="http://www.w3.org/1999/xlink" x="0px" y="0px"
	 viewBox="0 0 16 16" style="enable-background:new 0 0 16 16;" xml:space="preserve">
<path d="M8.4,11.2h-2c0-2.3,0.8-3.8,1.6-4.7H5.5v-2H11v2.3L10.4,7C10.3,7,8.4,8.1,8.4,11.2z M16,8c0-4.4-3.6-8-8-8S0,3.6,0,8
	s3.6,8,8,8S16,12.4,16,8z M14,8c0,3.3-2.7,6-6,6s-6-2.7-6-6s2.7-6,6-6S14,4.7,14,8z"/>
</svg>
