<?xml version="1.0" encoding="iso-8859-1"?>
<!-- Generator: Adobe Illustrator 22.1.0, SVG Export Plug-In . SVG Version: 6.00 Build 0)  -->
<svg version="1.1" id="Layer_1" xmlns="http://www.w3.org/2000/svg" xmlns:xlink="http://www.w3.org/1999/xlink" x="0px" y="0px"
	 viewBox="0 0 16 16" style="enable-background:new 0 0 16 16;" xml:space="preserve">
<path d="M8,16c-4.4,0-8-3.6-8-8s3.6-8,8-8s8,3.6,8,8S12.4,16,8,16z M8,2C4.7,2,2,4.7,2,8s2.7,6,6,6s6-2.7,6-6S11.3,2,8,2z M10.9,6.7
	c0-1.3-1-2.3-2.3-2.3H7.4c-1.3,0-2.3,1-2.3,2.3c0,0.5,0.1,0.9,0.4,1.3C5.2,8.4,5.1,8.8,5.1,9.3c0,1.3,1,2.3,2.3,2.3h1.3
	c1.3,0,2.3-1,2.3-2.3c0-0.5-0.1-0.9-0.4-1.3C10.8,7.6,10.9,7.2,10.9,6.7z M7.4,6.5h1.3C8.8,6.5,9,6.6,9,6.8C8.9,6.9,8.8,7,8.6,7H7.4
	C7.2,7,7.1,6.9,7.1,6.7C7.1,6.6,7.2,6.5,7.4,6.5z M8.6,9.5H7.4c-0.1,0-0.3-0.1-0.3-0.3C7.1,9.1,7.2,9,7.4,9h1.3C8.8,9,9,9.1,9,9.3
	C8.9,9.4,8.8,9.5,8.6,9.5z"/>
</svg>
