<?xml version="1.0" encoding="iso-8859-1"?>
<!-- Generator: Adobe Illustrator 22.1.0, SVG Export Plug-In . SVG Version: 6.00 Build 0)  -->
<svg version="1.1" id="Layer_1" xmlns="http://www.w3.org/2000/svg" xmlns:xlink="http://www.w3.org/1999/xlink" x="0px" y="0px"
	 viewBox="0 0 16 16" style="enable-background:new 0 0 16 16;" xml:space="preserve">
<path d="M8,16c-4.4,0-8-3.6-8-8s3.6-8,8-8s8,3.6,8,8S12.4,16,8,16z M8,2C4.7,2,2,4.7,2,8s2.7,6,6,6s6-2.7,6-6S11.3,2,8,2z M8.3,4.5
	H7.7C6.2,4.5,5.1,5.6,5.1,7c0,1.2,0.8,2.2,1.9,2.5H6.7v2h0.6c1.7,0,3.1-1.1,3.5-2.7c0.1-0.4,0.1-0.7,0.1-0.8V7
	C10.9,5.6,9.8,4.5,8.3,4.5z M7.7,6.5h0.6c0.3,0,0.6,0.3,0.6,0.6c0,0.3-0.3,0.6-0.6,0.6H7.7C7.3,7.6,7.1,7.4,7.1,7
	C7.1,6.7,7.3,6.5,7.7,6.5z"/>
</svg>
