<?xml version="1.0" encoding="utf-8"?>
<!-- Generator: Adobe Illustrator 19.1.1, SVG Export Plug-In . SVG Version: 6.00 Build 0)  -->
<svg version="1.1" id="Windows_x5F_8" xmlns="http://www.w3.org/2000/svg" xmlns:xlink="http://www.w3.org/1999/xlink" x="0px"
	 y="0px" viewBox="0 0 12 12" enable-background="new 0 0 12 12" xml:space="preserve">
<path d="M11,4H8V1c0-0.6-0.4-1-1-1H5C4.4,0,4,0.4,4,1v3H1C0.4,4,0,4.4,0,5v2c0,0.6,0.4,1,1,1h3v3c0,0.6,0.4,1,1,1h2c0.6,0,1-0.4,1-1
	V8h3c0.6,0,1-0.4,1-1V5C12,4.4,11.6,4,11,4z"/>
</svg>
