<?xml version="1.0" encoding="utf-8"?>
<!-- Generator: Adobe Illustrator 19.1.1, SVG Export Plug-In . SVG Version: 6.00 Build 0)  -->
<svg version="1.1" id="Windows_x5F_8" xmlns="http://www.w3.org/2000/svg" xmlns:xlink="http://www.w3.org/1999/xlink" x="0px"
	 y="0px" viewBox="0 0 12 12" enable-background="new 0 0 12 12" xml:space="preserve">
<path d="M11.8,9l-3-3l3-3c0.2-0.2,0.2-0.9,0-1.1l-1.7-1.7C9.8-0.1,9.2-0.1,9,0.2l-3,3l-3-3c-0.2-0.2-0.9-0.2-1.1,0L0.2,1.9
	c-0.2,0.2-0.2,0.9,0,1.1l3,3l-3,3c-0.2,0.2-0.2,0.9,0,1.1l1.7,1.7c0.2,0.2,0.9,0.2,1.1,0l3-3l3,3c0.2,0.2,0.9,0.2,1.1,0l1.7-1.7
	C12.1,9.9,12.1,9.3,11.8,9z"/>
</svg>
