<?xml version="1.0" encoding="utf-8"?>
<!-- Generator: Adobe Illustrator 19.1.1, SVG Export Plug-In . SVG Version: 6.00 Build 0)  -->
<svg version="1.1" id="Windows_x5F_8" xmlns="http://www.w3.org/2000/svg" xmlns:xlink="http://www.w3.org/1999/xlink" x="0px"
	 y="0px" viewBox="0 0 12 12" enable-background="new 0 0 12 12" xml:space="preserve">
<path d="M11.7,3.1l-1.2,1.1L7.7,1.4l1.2-1.1c0.4-0.4,1.1-0.4,1.5,0l1.4,1.4C12.1,2.2,12.1,2.8,11.7,3.1z M6.6,2.4l3.1,3.1l-5.5,5.4
	C4.1,11,4.1,11,4,11l-3.5,1H0.4c-0.1,0-0.2,0-0.3-0.1C0,11.8-0.1,11.6,0,11.5l1.1-3.4c0-0.1,0.1-0.2,0.2-0.3L6.6,2.4z M3.6,10.3
	L3.3,8.8L1.8,8.5l-0.6,1.9l0.4,0.4L3.6,10.3z"/>
</svg>
