<?xml version="1.0" encoding="utf-8"?>
<!-- Generator: Adobe Illustrator 19.1.1, SVG Export Plug-In . SVG Version: 6.00 Build 0)  -->
<svg version="1.1" id="Windows_x5F_8" xmlns="http://www.w3.org/2000/svg" xmlns:xlink="http://www.w3.org/1999/xlink" x="0px"
	 y="0px" viewBox="0 0 13 12" enable-background="new 0 0 13 12" xml:space="preserve">
<path d="M13,4.5c-0.1-0.4-0.4-0.6-0.9-0.7L8.9,3.4L7.5,0.5c-0.3-0.7-1.6-0.7-2,0L4.1,3.4L0.9,3.8C0.5,3.9,0.2,4.1,0,4.5
	c-0.1,0.4,0,0.8,0.3,1l2.3,2.2l-0.5,3c-0.1,0.4,0.1,0.8,0.4,1c0.3,0.2,0.8,0.3,1.2,0.1l2.8-1.5l2.8,1.5C9.6,12,9.8,12,10,12l0,0
	c0.7,0,1.1-0.4,1.1-1c0-0.1,0-0.2-0.1-0.4l-0.5-2.8l2.3-2.2C13,5.2,13.1,4.8,13,4.5z"/>
</svg>
