<?xml version="1.0" encoding="utf-8"?>
<!-- Generator: Adobe Illustrator 19.1.1, SVG Export Plug-In . SVG Version: 6.00 Build 0)  -->
<svg version="1.1" id="Windows_x5F_8" xmlns="http://www.w3.org/2000/svg" xmlns:xlink="http://www.w3.org/1999/xlink" x="0px"
	 y="0px" viewBox="0 0 13 11" enable-background="new 0 0 13 11" xml:space="preserve">
<path d="M9.4,8.7C8.5,9.3,7.6,10,7,10.8C6.9,10.9,6.7,11,6.5,11h0c-0.2,0-0.3-0.1-0.4-0.2C5.4,10,4.5,9.3,3.6,8.7
	C1.9,7.2,0,5.8,0,3.5C0,1.4,1.5,0,3.6,0c1.2,0,2.3,0.9,2.9,1.4C7.1,0.9,8.1,0,9.4,0C11.5,0,13,1.4,13,3.5C13,5.8,11.1,7.2,9.4,8.7z"
	/>
</svg>
