<?xml version="1.0" encoding="utf-8"?>
<!-- Generator: Adobe Illustrator 19.1.1, SVG Export Plug-In . SVG Version: 6.00 Build 0)  -->
<svg version="1.1" id="Windows_x5F_8" xmlns="http://www.w3.org/2000/svg" xmlns:xlink="http://www.w3.org/1999/xlink" x="0px"
	 y="0px" viewBox="0 0 12 12" enable-background="new 0 0 12 12" xml:space="preserve">
<path d="M8.4,0.1c-1.9,0-3.5,1.6-3.5,3.5c0,1.9,1.6,3.5,3.5,3.5s3.5-1.6,3.5-3.5C11.9,1.7,10.3,0.1,8.4,0.1z M9,4C8.4,4,8,3.6,8,3
	c0-0.6,0.4-1,1-1s1,0.4,1,1C10,3.6,9.6,4,9,4z M6.5,7.4L6.4,8.7l0,0c0,0.2-0.2,0.3-0.3,0.3H5.1V10c0,0.2-0.2,0.3-0.3,0.3H3.8v0.9
	c0,0.2-0.2,0.3-0.3,0.3h-1l-0.2,0.2c-0.1,0.1-1.6,0.2-2-0.1c-0.4-0.4-0.3-1.8-0.1-2l4.4-4.4C4.6,5.6,4.8,5.9,5,6.1L1.1,10
	c-0.1,0.1-0.1,0.4,0,0.5c0.1,0.1,0.4,0.1,0.5,0l3.9-3.9C5.8,7,6.1,7.2,6.5,7.4z"/>
</svg>
