<?xml version="1.0" encoding="utf-8"?>
<!-- Generator: Adobe Illustrator 19.1.1, SVG Export Plug-In . SVG Version: 6.00 Build 0)  -->
<svg version="1.1" id="Windows_x5F_8" xmlns="http://www.w3.org/2000/svg" xmlns:xlink="http://www.w3.org/1999/xlink" x="0px"
	 y="0px" viewBox="0 0 12 12" enable-background="new 0 0 12 12" xml:space="preserve">
<path d="M5,11.1C4.4,11.6,3.7,12,2.9,12c-0.8,0-1.5-0.2-2.1-0.8C0.3,10.7,0,10,0,9.2C0,8.4,0.3,7.6,0.9,7l2.3-2.3
	c0.6-0.6,1.4-0.9,2.2-0.9c0.7,0,1.4,0.3,2,0.8c0.3,0.3,0.3,0.8,0,1.1c-0.3,0.3-0.8,0.3-1.1,0c-0.5-0.5-1.4-0.5-2,0.1L2,8.1
	C1.7,8.4,1.5,8.8,1.5,9.2c0,0.2,0.1,0.6,0.4,0.9c0.3,0.3,0.7,0.4,1,0.4c0.4,0,0.8-0.2,1.1-0.5l1.3-1.3c0.3,0.3,1.6,0.5,2,0.2L5,11.1
	z M11.1,5L8.7,7.3C8.1,7.9,7.3,8.2,6.5,8.2c-0.7,0-1.4-0.3-2-0.8c-0.3-0.3-0.3-0.8,0-1.1c0.3-0.3,0.8-0.3,1.1,0
	c0.5,0.5,1.4,0.5,2-0.1L10,3.9c0.3-0.3,0.5-0.7,0.5-1.1c0-0.2-0.1-0.6-0.4-0.9c-0.3-0.3-0.7-0.4-1-0.4C8.8,1.5,8.4,1.7,8.1,2
	L6.8,3.4C6.5,3,5.2,2.8,4.8,3.2L7,0.9C7.6,0.4,8.3,0,9.1,0c0.8,0,1.5,0.2,2.1,0.8C11.7,1.3,12,2,12,2.8C12,3.6,11.7,4.4,11.1,5z"/>
</svg>
