<?xml version="1.0" encoding="utf-8"?>
<!-- Generator: Adobe Illustrator 19.1.1, SVG Export Plug-In . SVG Version: 6.00 Build 0)  -->
<svg version="1.1" id="Windows_x5F_8" xmlns="http://www.w3.org/2000/svg" xmlns:xlink="http://www.w3.org/1999/xlink" x="0px"
	 y="0px" viewBox="0 0 10 12" enable-background="new 0 0 10 12" xml:space="preserve">
<path d="M8.5,5H4V3c0,0,0-0.3,0.1-0.6C4.3,2.2,4.4,2,5,2c0.8,0,1,0.5,1,1l2,0c0-0.1,0-0.8-0.4-1.4C7.1,0.6,6.2,0,5,0
	S2.9,0.6,2.4,1.6C2,2.2,2,2.9,2,3v2H1.5C0.7,5,0,5.6,0,6.3v4.4C0,11.4,0.7,12,1.5,12h7c0.8,0,1.5-0.6,1.5-1.3V6.3
	C10,5.6,9.3,5,8.5,5z M5.5,8.8V10c0,0.3-0.2,0.5-0.5,0.5c-0.3,0-0.5-0.2-0.5-0.5V8.8C4.2,8.7,4,8.4,4,8c0-0.6,0.4-1,1-1
	c0.6,0,1,0.4,1,1C6,8.4,5.8,8.7,5.5,8.8z"/>
</svg>
