<?xml version="1.0" encoding="utf-8"?>
<!-- Generator: Adobe Illustrator 19.1.1, SVG Export Plug-In . SVG Version: 6.00 Build 0)  -->
<svg version="1.1" id="Windows_x5F_8" xmlns="http://www.w3.org/2000/svg" xmlns:xlink="http://www.w3.org/1999/xlink" x="0px"
	 y="0px" viewBox="0 0 10 12" enable-background="new 0 0 10 12" xml:space="preserve">
<path d="M9.9,2.3C9.8,2.2,9.6,2.1,9.5,2.1C8.5,2.1,7.1,1,6.3,0.5C5.7,0.2,5.4,0.1,5.1,0C5.1,0,5,0,5,0c0,0-0.1,0-0.1,0
	c-0.3,0-0.6,0.2-1.2,0.5C2.9,1,1.5,2.1,0.5,2.1c-0.1,0-0.3,0.1-0.4,0.2C0,2.4,0,2.5,0,2.7c0.2,4.7,1.9,7.6,4.8,9.2
	C4.8,12,4.9,12,5,12c0.1,0,0.2,0,0.2-0.1c2.9-1.7,4.5-4.6,4.8-9.2C10,2.5,10,2.4,9.9,2.3z"/>
</svg>
