<?xml version="1.0" encoding="utf-8"?>
<!-- Generator: Adobe Illustrator 19.1.1, SVG Export Plug-In . SVG Version: 6.00 Build 0)  -->
<svg version="1.1" id="Windows_x5F_8" xmlns="http://www.w3.org/2000/svg" xmlns:xlink="http://www.w3.org/1999/xlink" x="0px"
	 y="0px" viewBox="0 0 12 12" enable-background="new 0 0 12 12" xml:space="preserve">
<path d="M10.5,6.5c-0.3,0-0.5,0.1-0.9,0.4C9.1,7.3,8.8,7.5,8.7,7C8.6,6.5,8.3,4.7,8.2,4.3C8.1,4,8,3.8,7.7,3.7c0,0-1.8-0.3-2.3-0.5
	C5,3.1,4.8,2.9,5.1,2.3c0.3-0.4,0.4-0.6,0.4-0.9C5.5,0.6,4.9,0,4.1,0C3.3,0,2.7,0.6,2.7,1.4C2.7,1.7,2.8,2,3,2.3
	c0.4,0.6,0.2,0.8-0.3,0.9C2.1,3.3,0.4,3.7,0.4,3.7C0.2,3.7,0,4,0,4.2c0,0,0,0.7,0,2.6c0,0,0,0,0,0.1c0.1,0.5,0.5,0.2,0.9-0.1
	c0.3-0.2,0.6-0.4,0.9-0.4c0.8,0,1.4,0.6,1.4,1.4c0,0.8-0.6,1.4-1.4,1.4c-0.4,0-0.6-0.1-0.9-0.4C0.6,8.5,0.1,8.2,0,8.7v0.1
	c0,2,0,2.7,0,2.7C0,11.8,0.2,12,0.5,12h7.3c0.3,0,0.4-0.2,0.5-0.5c0,0,0.4-2.3,0.5-2.8c0.1-0.5,0.4-0.3,0.9,0.1
	C10,9,10.3,9.2,10.6,9.2c0.8,0,1.4-0.6,1.4-1.4C11.9,7.1,11.3,6.5,10.5,6.5z"/>
</svg>
