<?xml version="1.0" encoding="utf-8"?>
<!-- Generator: Adobe Illustrator 19.1.1, SVG Export Plug-In . SVG Version: 6.00 Build 0)  -->
<svg version="1.1" id="Windows_x5F_8" xmlns="http://www.w3.org/2000/svg" xmlns:xlink="http://www.w3.org/1999/xlink" x="0px"
	 y="0px" viewBox="0 0 12 12" enable-background="new 0 0 12 12" xml:space="preserve">
<path d="M11.7,10.1L9.6,8c-0.3-0.3-0.7-0.3-1-0.1L8,7.3c0.6-0.8,1-1.7,1-2.8C9,2,7,0,4.5,0C2,0,0,2,0,4.5C0,7,2,9,4.5,9
	c1,0,2-0.4,2.8-1l0.6,0.6C7.7,8.9,7.7,9.3,8,9.6l2.1,2.1c0.3,0.3,0.9,0.3,1.2,0l0.4-0.4C12.1,11,12.1,10.5,11.7,10.1z M4.5,7
	C3.1,7,2,5.9,2,4.5C2,3.1,3.1,2,4.5,2C5.9,2,7,3.1,7,4.5C7,5.9,5.9,7,4.5,7z"/>
</svg>
