<?xml version="1.0" encoding="utf-8"?>
<!-- Generator: Adobe Illustrator 19.1.1, SVG Export Plug-In . SVG Version: 6.00 Build 0)  -->
<svg version="1.1" id="Windows_x5F_8" xmlns="http://www.w3.org/2000/svg" xmlns:xlink="http://www.w3.org/1999/xlink" x="0px"
	 y="0px" viewBox="0 0 12 12" enable-background="new 0 0 12 12" xml:space="preserve">
<path d="M11.5,9.1L6.5,4.7c0.8-1.1,0.7-2.6-0.3-3.6L6.1,0.9C5.3,0,3.5,0,2.6,0C2.4,0,2.6,0.2,2.6,0.2S4,1.7,4.2,1.9s0.2,0.6,0.2,0.6
	S4.2,3.8,4,4C3.8,4.2,2.5,4.4,2.5,4.4S2,4.4,1.8,4.2C1.7,4.1,0.2,2.6,0.2,2.6S0,2.4,0,2.7c0,0.9,0,2.6,0.8,3.4L1,6.3
	c1,1,2.5,1.1,3.6,0.3l0,0c0.1-0.1,0.9-0.5,1.6-1c0.2-0.2,0.3-0.1,0.1,0.1C6,6.2,5.5,7,5.5,7S5.3,7.3,5.6,7.7
	c0.3,0.3,3.5,3.9,3.5,3.9c0.4,0.4,1.5,0.9,2.4,0C12.4,10.6,11.9,9.5,11.5,9.1z M10.2,11c-0.5,0-0.8-0.4-0.8-0.8
	c0-0.5,0.4-0.8,0.8-0.8c0.5,0,0.8,0.4,0.8,0.8C11,10.6,10.6,11,10.2,11z"/>
</svg>
