<?xml version="1.0" encoding="utf-8"?>
<!-- Generator: Adobe Illustrator 19.1.1, SVG Export Plug-In . SVG Version: 6.00 Build 0)  -->
<svg version="1.1" id="Windows_x5F_8" xmlns="http://www.w3.org/2000/svg" xmlns:xlink="http://www.w3.org/1999/xlink" x="0px"
	 y="0px" viewBox="0 0 12 12" enable-background="new 0 0 12 12" xml:space="preserve">
<path d="M12,6.7V5.2l-1.8-0.3c-0.1-0.4-0.3-0.8-0.5-1.2l1-1.5L9.7,1.2L8.2,2.3C7.9,2.1,7.5,1.9,7,1.8L6.7,0H5.2L5,1.8
	C4.5,1.9,4.1,2,3.8,2.3l-1.5-1L1.2,2.3l1,1.5C2,4.1,1.9,4.5,1.8,4.9L0,5.2v1.5L1.8,7C1.9,7.5,2,7.9,2.3,8.2l-1,1.5l1.1,1.1l1.5-1
	c0.4,0.2,0.8,0.4,1.2,0.5L5.2,12h1.5l0.3-1.8c0.4-0.1,0.8-0.3,1.2-0.5l1.5,1l1.1-1.1L9.7,8.2c0.2-0.4,0.4-0.8,0.5-1.2L12,6.7z M6,8
	C4.9,8,4,7.1,4,6c0-1.1,0.9-2,2-2c1.1,0,2,0.9,2,2C8,7.1,7.1,8,6,8z"/>
</svg>
