<?xml version="1.0" encoding="utf-8"?>
<!-- Generator: Adobe Illustrator 19.1.1, SVG Export Plug-In . SVG Version: 6.00 Build 0)  -->
<svg version="1.1" id="Windows_x5F_8" xmlns="http://www.w3.org/2000/svg" xmlns:xlink="http://www.w3.org/1999/xlink" x="0px"
	 y="0px" viewBox="0 0 14 8" enable-background="new 0 0 14 8" xml:space="preserve">
<path d="M11.5,3.2c0-1.8-1.5-3.2-3.3-3.2C7,0,5.9,0.7,5.4,1.6c-0.1,0-0.3,0-0.4,0C3.6,1.6,2.5,2.7,2.5,4c0,0,0,0,0,0
	C2.3,4,2.2,4,2.1,4C0.9,4,0,4.9,0,6s0.9,2,2.1,2h9.5C12.9,8,14,6.9,14,5.6S12.9,3.2,11.5,3.2z"/>
</svg>
