<?xml version="1.0" encoding="utf-8"?>
<!-- Generator: Adobe Illustrator 19.1.1, SVG Export Plug-In . SVG Version: 6.00 Build 0)  -->
<svg version="1.1" id="Windows_x5F_8" xmlns="http://www.w3.org/2000/svg" xmlns:xlink="http://www.w3.org/1999/xlink" x="0px"
	 y="0px" viewBox="0 0 12 12" enable-background="new 0 0 12 12" xml:space="preserve">
<path d="M6,0C2.7,0,0,2.7,0,6s2.7,6,6,6s6-2.7,6-6S9.3,0,6,0z M6.5,9.2v1.1H5.5v-1c-0.8,0-1.4-0.2-1.8-0.4L4,7.6C4.4,7.8,5,8,5.7,8
	s1.1-0.2,1.1-0.6c0-0.4-0.3-0.6-1.2-1C4.4,6,3.6,5.5,3.6,4.5c0-1,0.6-1.7,1.8-1.9V1.7h1.1v1c0.7,0,1.2,0.2,1.6,0.3L7.8,4.2
	C7.6,4.1,7.1,3.9,6.3,3.9c-0.6,0-1,0.3-1,0.6c0,0.3,0.3,0.5,1.3,0.9c1.3,0.4,1.8,1.1,1.8,2C8.4,8.3,7.7,9.1,6.5,9.2z"/>
</svg>
