<?xml version="1.0" encoding="utf-8"?>
<!-- Generator: Adobe Illustrator 19.1.1, SVG Export Plug-In . SVG Version: 6.00 Build 0)  -->
<svg version="1.1" id="Windows_x5F_8" xmlns="http://www.w3.org/2000/svg" xmlns:xlink="http://www.w3.org/1999/xlink" x="0px"
	 y="0px" viewBox="0 0 12 14" enable-background="new 0 0 12 14" xml:space="preserve">
<path d="M12,12H6H0c0.9-0.9,2-2.1,2-3.5V6.4c0-2.2,1.1-3.9,3-4.3V1.1C5,0.4,5.4,0,6,0s1,0.4,1,1.1v1.1c1.9,0.4,3,2.2,3,4.3v2.1
	C10,9.9,11.1,11.1,12,12z M6,12c-0.6,0-1,0.4-1,1c0,0.6,0.4,1,1,1s1-0.4,1-1C7,12.4,6.6,12,6,12z"/>
</svg>
