<?xml version="1.0" encoding="utf-8"?>
<!-- Generator: Adobe Illustrator 19.1.1, SVG Export Plug-In . SVG Version: 6.00 Build 0)  -->
<svg version="1.1" id="Windows_x5F_8" xmlns="http://www.w3.org/2000/svg" xmlns:xlink="http://www.w3.org/1999/xlink" x="0px"
	 y="0px" viewBox="0 0 12 12.3" enable-background="new 0 0 12 12.3" xml:space="preserve">
<path d="M10,2.3l0-1c0-0.6-0.4-1-1-1c-0.6,0-1,0.4-1,1l0,1H4l0-1c0-0.6-0.4-1-1-1c-0.6,0-1,0.4-1,1l0,1h0c-1.1,0-2,0.9-2,2v6
	c0,1.1,0.9,2,2,2h8c1.1,0,2-0.9,2-2v-6C12,3.1,11.1,2.3,10,2.3z M10,10.3H2v-4h8V10.3z"/>
</svg>
