<?xml version="1.0" encoding="utf-8"?>
<!-- Generator: Adobe Illustrator 19.1.1, SVG Export Plug-In . SVG Version: 6.00 Build 0)  -->
<svg version="1.1" id="Windows_x5F_8" xmlns="http://www.w3.org/2000/svg" xmlns:xlink="http://www.w3.org/1999/xlink" x="0px"
	 y="0px" viewBox="0 0 12 12" enable-background="new 0 0 12 12" xml:space="preserve">
<path d="M6,0C2.7,0,0,2.7,0,6s2.7,6,6,6s6-2.7,6-6S9.3,0,6,0z M9.4,4.3L6.1,9C6,9.2,5.8,9.4,5.5,9.4C5.3,9.4,5.1,9.3,5,9.1L3.1,7.2
	C2.8,7,2.8,6.6,3.1,6.4l0.5-0.5c0.2-0.2,0.6-0.2,0.8,0l1,1l2.5-3.7C8,3,8.4,2.9,8.7,3.1l0.5,0.4c0.1,0.1,0.2,0.2,0.2,0.4
	C9.5,4,9.4,4.2,9.4,4.3z"/>
</svg>
