<?xml version="1.0" encoding="utf-8"?>
<!-- Generator: Adobe Illustrator 19.1.1, SVG Export Plug-In . SVG Version: 6.00 Build 0)  -->
<svg version="1.1" id="Windows_x5F_8" xmlns="http://www.w3.org/2000/svg" xmlns:xlink="http://www.w3.org/1999/xlink" x="0px"
	 y="0px" viewBox="0 0 12 12" enable-background="new 0 0 12 12" xml:space="preserve">
<path d="M7.9,3.9c0.2,0.2,0.1,0.5,0,0.6L7,5.7C7,6,7,6.4,6.7,6.7c0,0-0.1,0-0.1,0L6.5,8.6C6.5,8.7,6.3,9,6,9C5.6,9,5.5,8.8,5.5,8.6
	L5.3,6.7c-0.4-0.5-0.4-1.1,0-1.4C5.5,5.1,5.8,5,6,5l1.3-1.1C7.4,3.8,7.6,3.7,7.9,3.9z M12,6c0,3.3-2.7,6-6,6S0,9.3,0,6s2.7-6,6-6
	S12,2.7,12,6z M10,6c0-2.2-1.8-4-4-4S2,3.8,2,6s1.8,4,4,4S10,8.2,10,6z"/>
</svg>
