<?xml version="1.0" encoding="utf-8"?>
<!-- Generator: Adobe Illustrator 19.1.1, SVG Export Plug-In . SVG Version: 6.00 Build 0)  -->
<svg version="1.1" id="Windows_x5F_8" xmlns="http://www.w3.org/2000/svg" xmlns:xlink="http://www.w3.org/1999/xlink" x="0px"
	 y="0px" viewBox="0 0 12 10" enable-background="new 0 0 12 10" xml:space="preserve">
<path d="M11.7,6.3c-0.2-0.1-0.4-0.4-0.5-0.7c-0.1-0.3-0.1-0.6-0.1-0.8c0-0.1,0-0.2,0-0.2C11.7,3.9,12,3.4,12,3.1C12,2.3,9.3,0,6,0
	C2.7,0,0,2.3,0,3.1c0,0.3,0.4,0.9,1,1.6c0,0,0,0.1,0,0.1c0,0.2,0,0.5-0.1,0.8C0.8,5.9,0.6,6.1,0.4,6.3C0.2,6.4,0,6.5,0,6.5
	c0,0,0.2,0.1,0.5,0.1c0.3,0,0.7,0,1.1-0.3C1.9,6.2,2.1,6,2.3,5.8c0,0.3,0,0.6,0,1c0,0.5-0.2,1-0.3,1.3C1.9,8.3,1.8,8.4,1.8,8.5
	C1.7,8.6,1.7,8.7,1.7,8.7s0.1,0,0.1-0.1c0.1-0.1,0.2-0.2,0.4-0.3c0.3-0.3,0.7-0.7,1-1.1c0.2-0.2,0.3-0.5,0.4-0.7
	c0.1,0,0.1,0.1,0.2,0.1c0,0.2,0,0.4,0,0.6c0,1.1,0,2.3,0,2.3s0.5-1,1-2.1C4.9,7.2,5,7,5,6.9c0.1,0,0.2,0,0.3,0L6,10l0.7-3.1
	c0.1,0,0.2,0,0.4-0.1C7.2,7,7.2,7.2,7.3,7.3c0.5,1.1,1,2.1,1,2.1s0-1.2,0-2.3c0-0.2,0-0.4,0-0.6c0.1,0,0.1-0.1,0.2-0.1
	c0.1,0.2,0.3,0.5,0.4,0.7c0.3,0.5,0.7,0.9,1,1.1c0.2,0.1,0.3,0.2,0.4,0.3c0.1,0.1,0.1,0.1,0.1,0.1s0-0.1-0.1-0.2
	c-0.1-0.1-0.1-0.2-0.2-0.4C10,7.8,9.9,7.3,9.9,6.8c0-0.3,0-0.7,0-1C10,6,10.3,6.2,10.5,6.3c0.4,0.2,0.8,0.3,1.1,0.3
	c0.3,0,0.5-0.1,0.5-0.1C12.1,6.5,11.9,6.4,11.7,6.3z"/>
</svg>
