<?xml version="1.0" encoding="utf-8"?>
<!-- Generator: Adobe Illustrator 19.1.1, SVG Export Plug-In . SVG Version: 6.00 Build 0)  -->
<svg version="1.1" id="Windows_x5F_8" xmlns="http://www.w3.org/2000/svg" xmlns:xlink="http://www.w3.org/1999/xlink" x="0px"
	 y="0px" viewBox="0 0 12 12" enable-background="new 0 0 12 12" xml:space="preserve">
<path d="M6,0C2.7,0,0,2.7,0,6s2.7,6,6,6s6-2.7,6-6S9.3,0,6,0z M6.6,9.7C6.5,9.9,6.2,10,5.9,10c-0.3,0-0.5-0.1-0.7-0.3
	C5,9.5,4.9,9.3,4.9,9c0-0.3,0.1-0.5,0.3-0.7C5.4,8.1,5.6,8,5.9,8c0.3,0,0.5,0.1,0.7,0.3C6.8,8.5,6.9,8.7,6.9,9
	C6.9,9.3,6.8,9.5,6.6,9.7z M8.5,4.9C8.4,5.2,8.2,5.4,7.9,5.7L7.2,6.3C7,6.4,6.9,6.6,6.8,6.8C6.8,7,6.7,7.1,6.7,7.3H5.1
	c0-0.5,0.1-0.8,0.2-1.1c0.1-0.3,0.3-0.6,0.6-0.8C6.2,5.2,6.4,5,6.5,4.8c0.1-0.2,0.2-0.4,0.2-0.6c0-0.5-0.2-0.8-0.7-0.8
	c-0.2,0-0.4,0.1-0.5,0.2C5.3,3.8,5.3,4,5.2,4.3l0,0.4H3.3V4.3C3.3,3.6,3.6,3,4,2.6C4.5,2.2,5.2,2,6,2c0.8,0,1.5,0.2,2,0.6
	c0.5,0.4,0.7,0.9,0.7,1.6C8.7,4.4,8.6,4.7,8.5,4.9z"/>
</svg>
