<?xml version="1.0" encoding="utf-8"?>
<!-- Generator: Adobe Illustrator 19.1.1, SVG Export Plug-In . SVG Version: 6.00 Build 0)  -->
<svg version="1.1" id="Windows_x5F_8" xmlns="http://www.w3.org/2000/svg" xmlns:xlink="http://www.w3.org/1999/xlink" x="0px"
	 y="0px" viewBox="0 0 10 12" enable-background="new 0 0 10 12" xml:space="preserve">
<path d="M8.8,2h0.6C9.7,2,10,1.7,10,1.4V0H9.1H7.9H2.1H0.9H0v1.4C0,1.7,0.3,2,0.6,2h0.6c0.5,1.8,1.6,2.9,2.2,3.6
	C3.5,5.7,3.7,5.9,3.8,6C3.7,6.1,3.5,6.3,3.4,6.5C2.8,7.1,1.7,8.2,1.2,10H0.6C0.3,10,0,10.3,0,10.6V12h10v-1.4c0-0.3-0.3-0.6-0.6-0.6
	H8.8C8.3,8.2,7.2,7.1,6.6,6.5C6.5,6.3,6.3,6.1,6.2,6c0.1-0.1,0.3-0.3,0.4-0.4C7.2,4.9,8.3,3.8,8.8,2z M5.8,7.3
	C6.3,7.8,7.1,8.7,7.6,10H6.6C6,9,5,8,5,8s-1,1-1.6,2H2.4c0.5-1.3,1.2-2.2,1.8-2.7C4.7,6.8,5,6.5,5,6c0-0.5-0.3-0.8-0.8-1.2
	C3.7,4.2,2.9,3.3,2.4,2h5.1C7.1,3.3,6.3,4.2,5.8,4.8C5.3,5.2,5,5.6,5,6C5,6.5,5.3,6.8,5.8,7.3z"/>
</svg>
