<?xml version="1.0" encoding="utf-8"?>
<!-- Generator: Adobe Illustrator 19.1.1, SVG Export Plug-In . SVG Version: 6.00 Build 0)  -->
<svg version="1.1" id="Windows_x5F_8" xmlns="http://www.w3.org/2000/svg" xmlns:xlink="http://www.w3.org/1999/xlink" x="0px"
	 y="0px" viewBox="0 0 12 12" enable-background="new 0 0 12 12" xml:space="preserve">
<path d="M0,12l4-5.2L5.2,8L0,12z M11.7,3.8L8.6,5.9l0,0C9,7.2,8.7,8.6,7.7,9.6L2.4,4.3c1-1,2.4-1.3,3.7-1l2.2-3.1
	C8.5,0,8.8-0.1,8.9,0.1l3,3C12.1,3.3,12,3.6,11.7,3.8z M6.6,4.7L6.1,4.3c0,0-0.7-0.1-1.6,0.6l0.8,0.8C6.3,4.8,6.6,4.7,6.6,4.7z
	 M9.6,2.2L8.8,1.4L7,3.7l0.5,0.5L9.6,2.2z"/>
</svg>
