<?xml version="1.0" encoding="utf-8"?>
<!-- Generator: Adobe Illustrator 19.1.1, SVG Export Plug-In . SVG Version: 6.00 Build 0)  -->
<svg version="1.1" id="Windows_x5F_8" xmlns="http://www.w3.org/2000/svg" xmlns:xlink="http://www.w3.org/1999/xlink" x="0px"
	 y="0px" viewBox="0 0 10 12" enable-background="new 0 0 10 12" xml:space="preserve">
<path d="M1,0h2c0.6,0,1,0.4,1,1v10c0,0.6-0.4,1-1,1H1c-0.6,0-1-0.4-1-1V1C0,0.4,0.4,0,1,0z M6,1v10c0,0.6,0.4,1,1,1h2
	c0.6,0,1-0.4,1-1V1c0-0.6-0.4-1-1-1H7C6.4,0,6,0.4,6,1z"/>
</svg>
