<?xml version="1.0" encoding="utf-8"?>
<!-- Generator: Adobe Illustrator 19.1.1, SVG Export Plug-In . SVG Version: 6.00 Build 0)  -->
<svg version="1.1" id="Windows_x5F_8" xmlns="http://www.w3.org/2000/svg" xmlns:xlink="http://www.w3.org/1999/xlink" x="0px"
	 y="0px" viewBox="0 0 12 12" enable-background="new 0 0 12 12" xml:space="preserve">
<path d="M12,1h-1.8c-1,0-1.9,0.4-2.6,1.1L5.7,4.2L4.9,3.3C4.9,3,5,2.8,5,2.5C5,1.1,3.9,0,2.5,0S0,1.1,0,2.5S1.1,5,2.5,5
	c0.2,0,0.4,0,0.6-0.1L4,6l-1,1.1C2.9,7,2.7,7,2.5,7C1.1,7,0,8.1,0,9.5S1.1,12,2.5,12S5,10.9,5,9.5C5,9.2,4.9,9,4.9,8.7l0.8-0.9
	l1.9,2.1c0.6,0.7,1.6,1.1,2.6,1.1H12L7.4,6L12,1z M2.5,2C2.8,2,3,2.2,3,2.5C3,2.8,2.8,3,2.5,3S2,2.8,2,2.5C2,2.2,2.2,2,2.5,2z
	 M2.5,10C2.2,10,2,9.8,2,9.5C2,9.2,2.2,9,2.5,9S3,9.2,3,9.5C3,9.8,2.8,10,2.5,10z"/>
</svg>
