<?xml version="1.0" encoding="utf-8"?>
<!-- Generator: Adobe Illustrator 19.1.1, SVG Export Plug-In . SVG Version: 6.00 Build 0)  -->
<svg version="1.1" id="Windows_x5F_8" xmlns="http://www.w3.org/2000/svg" xmlns:xlink="http://www.w3.org/1999/xlink" x="0px"
	 y="0px" viewBox="0 0 12 11" enable-background="new 0 0 12 11" xml:space="preserve">
<path d="M7.8,8.8c-0.3,0-0.5-0.1-0.7-0.3c-0.6-0.6-1.8-0.6-2.4,0C4.4,8.9,3.7,9,3.3,8.6c-0.4-0.4-0.4-1-0.1-1.4C3.9,6.4,4.9,6,5.9,6
	c1,0,2,0.4,2.7,1.2c0.4,0.4,0.3,1-0.1,1.4C8.3,8.8,8.1,8.8,7.8,8.8z M10.2,6.2c0.4-0.4,0.4-1,0-1.4C9,3.6,7.6,3,6,3S3,3.6,1.8,4.7
	c-0.4,0.4-0.4,1,0,1.4c0.4,0.4,1,0.4,1.4,0c1.5-1.5,4-1.5,5.5,0c0.2,0.2,0.5,0.3,0.7,0.3S10,6.4,10.2,6.2z M11.7,3.7
	c0.4-0.4,0.4-1,0-1.4C10.1,0.8,8.2,0,6,0S1.9,0.8,0.3,2.3c-0.4,0.4-0.4,1,0,1.4c0.4,0.4,1,0.4,1.4,0C2.9,2.6,4.4,2,6,2
	s3.1,0.6,4.3,1.7C10.5,3.9,10.8,4,11,4C11.3,4,11.5,3.9,11.7,3.7z M5,10c0,0.6,0.4,1,1,1c0.6,0,1-0.4,1-1c0-0.6-0.4-1-1-1
	C5.4,9,5,9.4,5,10z"/>
</svg>
