<?xml version="1.0" encoding="utf-8"?>
<!-- Generator: Adobe Illustrator 19.1.1, SVG Export Plug-In . SVG Version: 6.00 Build 0)  -->
<svg version="1.1" id="Windows_x5F_8" xmlns="http://www.w3.org/2000/svg" xmlns:xlink="http://www.w3.org/1999/xlink" x="0px"
	 y="0px" viewBox="0 0 12 12" enable-background="new 0 0 12 12" xml:space="preserve">
<path d="M11.9,5.7C11.9,5.7,11,5,9.6,4C9.4,4,9.3,4,9.2,4C9.1,4.1,9,4.2,9,4.4V5H7V3h0.6C7.8,3,7.9,2.9,8,2.8C8,2.7,8,2.6,8,2.4
	C7,1,6.3,0.2,6.3,0.1C6.2,0.1,6.1,0,6,0S5.8,0,5.7,0.1C5.7,0.1,5.1,0.9,4,2.4C4,2.5,4,2.6,4,2.8C4.1,2.9,4.2,3,4.4,3H5v2H3V4.4
	C3,4.2,2.9,4.1,2.8,4C2.6,4,2.5,4,2.4,4C0.9,5,0.1,5.7,0.1,5.7C0,5.8,0,5.9,0,6s0.1,0.2,0.1,0.3C0.2,6.3,1,7,2.5,8
	C2.6,8,2.7,8,2.8,8C2.9,7.9,3,7.8,3,7.6V7h2v2H4.4C4.2,9,4.1,9.1,4,9.2C4,9.3,4,9.4,4,9.6c1,1.5,1.6,2.3,1.7,2.4C5.8,12,5.9,12,6,12
	c0.1,0,0.2,0,0.3-0.1c0.1-0.1,0.7-0.8,1.7-2.4C8,9.5,8,9.3,7.9,9.2C7.9,9.1,7.7,9,7.6,9H7V7h2v0.6c0,0.1,0.1,0.3,0.2,0.3
	C9.3,8,9.5,8,9.6,7.9c1.5-1,2.3-1.6,2.4-1.7C12,6.2,12,6.1,12,6C12,5.9,12,5.8,11.9,5.7z"/>
</svg>
