<?xml version="1.0" encoding="utf-8"?>
<!-- Generator: Adobe Illustrator 19.1.1, SVG Export Plug-In . SVG Version: 6.00 Build 0)  -->
<svg version="1.1" id="Windows_x5F_8" xmlns="http://www.w3.org/2000/svg" xmlns:xlink="http://www.w3.org/1999/xlink" x="0px"
	 y="0px" viewBox="0 0 14 12" enable-background="new 0 0 14 12" xml:space="preserve">
<path d="M13.9,10.5L8,0.6C7.8,0.2,7.4,0,7,0C6.6,0,6.2,0.2,6,0.6l-5.9,9.9c-0.2,0.3-0.1,0.7,0,1C0.4,11.8,0.7,12,1.1,12h11.9
	c0.4,0,0.7-0.2,0.9-0.5c0.1-0.2,0.2-0.4,0.2-0.6C14,10.8,14,10.6,13.9,10.5z M8,10H6V8h2V10z M8,7H6V3h2V7z"/>
</svg>
