<?xml version="1.0" encoding="utf-8"?>
<!-- Generator: Adobe Illustrator 19.1.1, SVG Export Plug-In . SVG Version: 6.00 Build 0)  -->
<svg version="1.1" id="Windows_x5F_8" xmlns="http://www.w3.org/2000/svg" xmlns:xlink="http://www.w3.org/1999/xlink" x="0px"
	 y="0px" viewBox="0 0 12 12" enable-background="new 0 0 12 12" xml:space="preserve">
<path d="M6.5,4.4c0.1,0.2,0.2,0.5,0.2,0.9v1.4c0,0.4-0.1,0.7-0.2,0.9C6.4,7.9,6.2,8,6,8C5.8,8,5.6,7.9,5.5,7.7
	c-0.1-0.2-0.2-0.5-0.2-1V5.2c0-0.4,0.1-0.7,0.2-0.9C5.6,4.1,5.8,4,6,4C6.2,4,6.4,4.1,6.5,4.4z M12,6c0,3.3-2.7,6-6,6S0,9.3,0,6
	s2.7-6,6-6S12,2.7,12,6z M8.1,5.5c0-0.8-0.2-1.4-0.6-1.8C7.2,3.2,6.7,3,6,3C5.3,3,4.8,3.2,4.4,3.6c-0.4,0.4-0.5,1-0.5,1.8v1.1
	c0,0.8,0.2,1.4,0.6,1.8S5.3,9,6,9c0.7,0,1.2-0.2,1.5-0.6c0.4-0.4,0.5-1,0.5-1.8V5.5z"/>
</svg>
