<?xml version="1.0" encoding="utf-8"?>
<!-- Generator: Adobe Illustrator 19.1.1, SVG Export Plug-In . SVG Version: 6.00 Build 0)  -->
<svg version="1.1" id="Windows_x5F_8" xmlns="http://www.w3.org/2000/svg" xmlns:xlink="http://www.w3.org/1999/xlink" x="0px"
	 y="0px" viewBox="0 0 12 12" enable-background="new 0 0 12 12" xml:space="preserve">
<path d="M6,0C2.7,0,0,2.7,0,6s2.7,6,6,6s6-2.7,6-6S9.3,0,6,0z M8.1,9H4V8.1l1.9-2c0.5-0.5,0.7-1,0.7-1.3c0-0.3-0.1-0.4-0.2-0.6
	C6.3,4.1,6.2,4.1,6,4.1c-0.2,0-0.4,0.1-0.5,0.3C5.3,4.5,5.3,4.7,5.3,5H3.9c0-0.4,0.1-0.7,0.3-1c0.2-0.3,0.4-0.5,0.7-0.7
	C5.2,3.1,5.6,3,6,3c0.6,0,1.1,0.1,1.5,0.4C7.8,3.7,8,4.2,8,4.7c0,0.2,0,0.5-0.1,0.7C7.7,5.6,7.6,5.8,7.4,6.1C7.2,6.3,7,6.7,6.6,7.1
	L5.8,7.9h2.3V9z"/>
</svg>
