<?xml version="1.0" encoding="utf-8"?>
<!-- Generator: Adobe Illustrator 19.1.1, SVG Export Plug-In . SVG Version: 6.00 Build 0)  -->
<svg version="1.1" id="Windows_x5F_8" xmlns="http://www.w3.org/2000/svg" xmlns:xlink="http://www.w3.org/1999/xlink" x="0px"
	 y="0px" viewBox="0 0 12 12" enable-background="new 0 0 12 12" xml:space="preserve">
<path d="M6,0C2.7,0,0,2.7,0,6s2.7,6,6,6s6-2.7,6-6S9.3,0,6,0z M7.6,8.5C7.1,8.8,6.6,9,5.9,9C5.5,9,5.2,8.9,4.9,8.8
	C4.5,8.6,4.3,8.4,4.1,8.2C3.9,7.9,3.8,7.6,3.8,7.3h1.4c0,0.2,0.1,0.3,0.2,0.5C5.6,7.9,5.8,8,6,8c0.2,0,0.4-0.1,0.6-0.2
	c0.1-0.1,0.2-0.3,0.2-0.5c0-0.3-0.1-0.5-0.2-0.6C6.4,6.5,6.2,6.4,5.9,6.4H5.3v-1h0.7c0.5,0,0.8-0.2,0.8-0.7c0-0.2-0.1-0.3-0.2-0.5
	C6.4,4.1,6.2,4,6,4C5.8,4,5.6,4.1,5.5,4.2C5.4,4.3,5.3,4.4,5.3,4.6H3.9C3.9,4.3,4,4,4.2,3.8c0.2-0.2,0.4-0.4,0.7-0.6
	C5.2,3.1,5.6,3,5.9,3c0.7,0,1.2,0.1,1.6,0.4c0.4,0.3,0.6,0.7,0.6,1.2c0,0.3-0.1,0.5-0.2,0.7C7.7,5.6,7.5,5.8,7.2,5.9
	C7.5,6,7.7,6.2,7.9,6.4c0.2,0.2,0.3,0.5,0.3,0.8C8.2,7.8,8,8.2,7.6,8.5z"/>
</svg>
