<?xml version="1.0" encoding="utf-8"?>
<!-- Generator: Adobe Illustrator 19.1.1, SVG Export Plug-In . SVG Version: 6.00 Build 0)  -->
<svg version="1.1" id="Windows_x5F_8" xmlns="http://www.w3.org/2000/svg" xmlns:xlink="http://www.w3.org/1999/xlink" x="0px"
	 y="0px" viewBox="0 0 12 12" enable-background="new 0 0 12 12" xml:space="preserve">
<path d="M6,0C2.7,0,0,2.7,0,6s2.7,6,6,6s6-2.7,6-6S9.3,0,6,0z M7.8,8C7.7,8.4,7.4,8.6,7.1,8.8C6.8,8.9,6.4,9,6,9
	C5.6,9,5.3,8.9,5,8.8C4.6,8.6,4.4,8.4,4.2,8.1C4,7.9,3.9,7.6,3.9,7.2h1.4c0,0.2,0.1,0.4,0.2,0.5C5.6,7.9,5.8,7.9,6,7.9
	c0.5,0,0.7-0.3,0.7-1C6.7,6.3,6.4,6,5.8,6C5.5,6,5.3,6.1,5.1,6.3L4,6l0.4-3h3.5v1.1H5.5L5.4,5.2c0.1-0.1,0.2-0.1,0.4-0.1
	C5.9,5,6.1,5,6.2,5c0.6,0,1.1,0.2,1.4,0.5C7.9,5.9,8.1,6.4,8.1,7C8.1,7.4,8,7.7,7.8,8z"/>
</svg>
