<?xml version="1.0" encoding="utf-8"?>
<!-- Generator: Adobe Illustrator 19.1.1, SVG Export Plug-In . SVG Version: 6.00 Build 0)  -->
<svg version="1.1" id="Windows_x5F_8" xmlns="http://www.w3.org/2000/svg" xmlns:xlink="http://www.w3.org/1999/xlink" x="0px"
	 y="0px" viewBox="0 0 12 12" enable-background="new 0 0 12 12" xml:space="preserve">
<path d="M6,0C2.7,0,0,2.7,0,6s2.7,6,6,6s6-2.7,6-6S9.3,0,6,0z M7.8,8C7.6,8.3,7.4,8.6,7,8.7C6.7,8.9,6.4,9,6,9
	C5.6,9,5.2,8.9,4.9,8.7C4.6,8.5,4.3,8.3,4.1,7.9C3.9,7.6,3.8,7.2,3.8,6.7V6.2C3.8,5.6,4,5,4.2,4.5c0.3-0.5,0.6-0.9,1.1-1.1
	C5.8,3.1,6.3,3,6.9,3h0.2v1.1H7.1c-0.5,0-0.9,0.1-1.2,0.4C5.5,4.7,5.3,5,5.2,5.4C5.5,5.1,5.9,5,6.4,5c0.5,0,0.9,0.2,1.2,0.6
	C7.9,5.9,8,6.4,8,7C8,7.4,7.9,7.7,7.8,8z M6.5,6.3C6.6,6.5,6.7,6.7,6.7,7c0,0.3-0.1,0.5-0.2,0.7C6.3,7.9,6.2,8,6,8
	C5.4,8,5.2,7.6,5.2,6.9V6.5c0.1-0.1,0.1-0.2,0.3-0.3C5.6,6.1,5.7,6,5.9,6C6.1,6,6.3,6.1,6.5,6.3z"/>
</svg>
