<?xml version="1.0" encoding="utf-8"?>
<!-- Generator: Adobe Illustrator 19.1.1, SVG Export Plug-In . SVG Version: 6.00 Build 0)  -->
<svg version="1.1" id="Windows_x5F_8" xmlns="http://www.w3.org/2000/svg" xmlns:xlink="http://www.w3.org/1999/xlink" x="0px"
	 y="0px" viewBox="0 0 12 12" enable-background="new 0 0 12 12" xml:space="preserve">
<path d="M6.5,6.6C6.6,6.8,6.7,7,6.7,7.2c0,0.2-0.1,0.4-0.2,0.6C6.4,7.9,6.2,8,6,8C5.8,8,5.6,7.9,5.5,7.8C5.4,7.6,5.3,7.4,5.3,7.2
	c0-0.2,0.1-0.4,0.2-0.6C5.6,6.5,5.8,6.5,6,6.5C6.2,6.5,6.4,6.5,6.5,6.6z M6,5.4c0.2,0,0.3-0.1,0.4-0.2c0.1-0.1,0.1-0.3,0.1-0.5
	c0-0.2,0-0.4-0.1-0.5C6.3,4.1,6.2,4,6,4C5.8,4,5.7,4.1,5.6,4.2C5.5,4.3,5.4,4.5,5.4,4.7c0,0.2,0.1,0.4,0.2,0.5
	C5.7,5.3,5.8,5.4,6,5.4z M12,6c0,3.3-2.7,6-6,6S0,9.3,0,6s2.7-6,6-6S12,2.7,12,6z M8.1,7.3C8.1,7,8,6.7,7.8,6.5
	C7.7,6.2,7.5,6.1,7.2,5.9c0.3-0.1,0.5-0.3,0.6-0.5C7.9,5.2,8,4.9,8,4.6c0-0.5-0.2-0.9-0.5-1.2C7.1,3.1,6.6,3,6,3
	C5.4,3,4.9,3.1,4.6,3.4C4.2,3.7,4,4.1,4,4.6c0,0.3,0.1,0.5,0.2,0.7c0.1,0.2,0.3,0.4,0.6,0.5C4.5,6.1,4.3,6.2,4.1,6.5
	C4,6.7,3.9,7,3.9,7.3c0,0.5,0.2,0.9,0.6,1.2C4.8,8.8,5.4,9,6,9c0.7,0,1.2-0.2,1.5-0.5C7.9,8.2,8.1,7.8,8.1,7.3z"/>
</svg>
