<?xml version="1.0" encoding="utf-8"?>
<!-- Generator: Adobe Illustrator 19.1.1, SVG Export Plug-In . SVG Version: 6.00 Build 0)  -->
<svg version="1.1" id="Windows_x5F_8" xmlns="http://www.w3.org/2000/svg" xmlns:xlink="http://www.w3.org/1999/xlink" x="0px"
	 y="0px" viewBox="0 0 12 12" enable-background="new 0 0 12 12" xml:space="preserve">
<path d="M6.6,4c0.2,0.2,0.2,0.5,0.2,1v0.7C6.7,5.9,6.4,6.1,6.1,6.1C5.8,6.1,5.6,6,5.4,5.8C5.3,5.6,5.2,5.3,5.2,4.9
	c0-0.3,0.1-0.6,0.2-0.9C5.6,3.8,5.8,3.7,6,3.7C6.2,3.7,6.4,3.8,6.6,4z M12,6c0,3.3-2.7,6-6,6S0,9.3,0,6s2.7-6,6-6S12,2.7,12,6z
	 M8.5,5.2c0-0.5-0.1-1-0.3-1.4c-0.2-0.4-0.5-0.7-0.9-1C6.9,2.6,6.5,2.5,6,2.5c-0.5,0-0.9,0.1-1.3,0.3C4.4,3,4.1,3.3,3.9,3.7
	C3.7,4.1,3.5,4.5,3.5,4.9c0,0.7,0.2,1.3,0.6,1.7C4.5,7,5,7.2,5.6,7.2c0.4,0,0.8-0.2,1.2-0.5C6.7,7.7,6.1,8.2,4.9,8.2l-0.3,0v1.3h0.1
	c0.8,0,1.4-0.1,2-0.4c0.6-0.3,1-0.7,1.3-1.3c0.3-0.6,0.5-1.2,0.5-2V5.2z"/>
</svg>
