<?xml version="1.0" encoding="iso-8859-1"?>
<!-- Generator: Adobe Illustrator 22.0.1, SVG Export Plug-In . SVG Version: 6.00 Build 0)  -->
<svg version="1.1" id="Layer_1" xmlns="http://www.w3.org/2000/svg" xmlns:xlink="http://www.w3.org/1999/xlink" x="0px" y="0px"
	 viewBox="0 0 28 28" style="enable-background:new 0 0 28 28;" xml:space="preserve">
<path d="M20,28c-0.801,0-1.555-0.312-2.121-0.879L14,23.243l-3.879,3.878c-1.17,1.17-3.072,1.17-4.242,0l-5-5
	c-1.17-1.169-1.17-3.073,0-4.242L4.758,14l-3.879-3.879c-1.17-1.169-1.17-3.073,0-4.242l5-5c1.17-1.17,3.072-1.17,4.242,0L14,4.757
	l3.879-3.878c1.17-1.17,3.072-1.17,4.242,0l5,5c1.17,1.169,1.17,3.073,0,4.242L23.242,14l3.879,3.879c1.17,1.169,1.17,3.073,0,4.242
	l-5,5C21.555,27.688,20.801,28,20,28z"/>
</svg>
