<?xml version="1.0" encoding="iso-8859-1"?>
<!-- Generator: Adobe Illustrator 22.0.1, SVG Export Plug-In . SVG Version: 6.00 Build 0)  -->
<svg version="1.1" id="Layer_1" xmlns="http://www.w3.org/2000/svg" xmlns:xlink="http://www.w3.org/1999/xlink" x="0px" y="0px"
	 viewBox="0 0 30.001 30.001" style="enable-background:new 0 0 30.001 30.001;" xml:space="preserve">
<path d="M3.001,30.001c-0.803,0-1.557-0.313-2.123-0.88c-0.658-0.659-0.97-1.568-0.854-2.494l1-7.998
	c0.081-0.657,0.385-1.279,0.855-1.749L17,1.755c2.339-2.339,6.146-2.34,8.485,0l2.757,2.757c1.134,1.133,1.758,2.64,1.758,4.243
	c0,1.603-0.625,3.11-1.758,4.243l-15.12,15.125c-0.471,0.47-1.092,0.774-1.751,0.856l-7.998,1
	C3.254,29.993,3.127,30.001,3.001,30.001z"/>
</svg>
