<?xml version="1.0" encoding="iso-8859-1"?>
<!-- Generator: Adobe Illustrator 22.0.1, SVG Export Plug-In . SVG Version: 6.00 Build 0)  -->
<svg version="1.1" id="Layer_1" xmlns="http://www.w3.org/2000/svg" xmlns:xlink="http://www.w3.org/1999/xlink" x="0px" y="0px"
	 viewBox="0 0 34.001 32" style="enable-background:new 0 0 34.001 32;" xml:space="preserve">
<path d="M25.653,32c-0.519,0-1.031-0.136-1.482-0.392l-7.17-4.077l-7.169,4.077c-1.031,0.586-2.313,0.51-3.266-0.195
	c-0.953-0.703-1.403-1.906-1.145-3.064l1.733-7.814l-6.125-5.343c-0.902-0.787-1.25-2.033-0.886-3.174
	c0.366-1.142,1.372-1.955,2.564-2.072l8.235-0.814l3.324-7.365C14.75,0.693,15.823,0,17.001,0s2.251,0.693,2.735,1.767l3.324,7.365
	l8.236,0.814c1.191,0.117,2.197,0.93,2.563,2.071c0.365,1.142,0.017,2.388-0.886,3.176l-6.124,5.342l1.733,7.816
	c0.257,1.156-0.193,2.359-1.147,3.063C26.923,31.792,26.29,32,25.653,32z"/>
</svg>
