<?xml version="1.0" encoding="iso-8859-1"?>
<!-- Generator: Adobe Illustrator 22.0.1, SVG Export Plug-In . SVG Version: 6.00 Build 0)  -->
<svg version="1.1" id="Layer_1" xmlns="http://www.w3.org/2000/svg" xmlns:xlink="http://www.w3.org/1999/xlink" x="0px" y="0px"
	 viewBox="0 0 32 28" style="enable-background:new 0 0 32 28;" xml:space="preserve">
<path d="M16,28c-0.718,0-1.412-0.257-1.956-0.725C10.53,24.252,2.222,16.937,0.964,14.287C0.324,12.941,0,11.499,0,10
	C0,4.486,4.486,0,10,0c2.6,0,4.527,0.935,6,2.017C17.473,0.935,19.4,0,22,0c5.514,0,10,4.486,10,10c0,1.499-0.324,2.941-0.964,4.287
	c-1.258,2.649-9.566,9.965-13.079,12.987C17.412,27.743,16.718,28,16,28z"/>
</svg>
