<?xml version="1.0" encoding="iso-8859-1"?>
<!-- Generator: Adobe Illustrator 22.0.1, SVG Export Plug-In . SVG Version: 6.00 Build 0)  -->
<svg version="1.1" id="Layer_1" xmlns="http://www.w3.org/2000/svg" xmlns:xlink="http://www.w3.org/1999/xlink" x="0px" y="0px"
	 viewBox="0 0 30 30" style="enable-background:new 0 0 30 30;" xml:space="preserve">
<path d="M7.003,29.989h-4c-1.654,0-3-1.346-3-3v-4c0-0.792,0.322-1.567,0.884-2.126l7.314-7.299l-1.521-2.397
	c-0.07-0.113-0.119-0.201-0.162-0.289C5.395,8.623,6.146,5.861,8.277,4.474l6.299-3.81c2.061-1.125,4.531-0.763,6.09,0.834
	l7.919,8.125c1.533,1.573,1.855,4.012,0.783,5.931l-3.818,6.13c-1.44,2.159-4.197,2.899-6.445,1.774l-0.171-0.096L16.447,21.8
	l-2.328,2.316c-0.354,0.352-0.779,0.605-1.244,0.745c-0.291,0.954-1.045,1.708-1.999,1.999c-0.141,0.467-0.396,0.896-0.751,1.25
	l-1,1C8.558,29.677,7.804,29.989,7.003,29.989z"/>
</svg>
