<?xml version="1.0" encoding="iso-8859-1"?>
<!-- Generator: Adobe Illustrator 22.0.1, SVG Export Plug-In . SVG Version: 6.00 Build 0)  -->
<svg version="1.1" id="Layer_1" xmlns="http://www.w3.org/2000/svg" xmlns:xlink="http://www.w3.org/1999/xlink" x="0px" y="0px"
	 viewBox="0 0 30 28" style="enable-background:new 0 0 30 28;" xml:space="preserve">
<path d="M27.657,2.343c-1.509-1.51-3.518-2.341-5.657-2.34c-2.139,0-4.148,0.831-5.657,2.341c-0.32,0.32-2.868,2.96-4.61,4.767
	c-1.656,0.262-3.184,1.026-4.39,2.233l-5,5c-3.119,3.119-3.119,8.194,0,11.313C3.852,27.166,5.861,27.998,8,27.998
	c2.139,0,4.148-0.832,5.657-2.341c0.155-0.156,2.96-3.041,4.642-4.772c1.643-0.267,3.159-1.029,4.358-2.228l5-5
	C30.776,10.538,30.776,5.462,27.657,2.343z"/>
</svg>
