<?xml version="1.0" encoding="iso-8859-1"?>
<!-- Generator: Adobe Illustrator 22.0.1, SVG Export Plug-In . SVG Version: 6.00 Build 0)  -->
<svg version="1.1" id="Layer_1" xmlns="http://www.w3.org/2000/svg" xmlns:xlink="http://www.w3.org/1999/xlink" x="0px" y="0px"
	 viewBox="0 0 28 32" style="enable-background:new 0 0 28 32;" xml:space="preserve">
<path d="M14,31.984c-0.672,0-1.332-0.229-1.859-0.646c-0.351-0.279-2.191-1.765-5.172-4.506c-1.594-1.467-4.487-4.626-5.956-9.31
	C0.12,14.676,0,10.606,0,7c0-1.654,1.346-3,3-3c5.575,0,8.766-3.01,8.898-3.138C12.443,0.319,13.216,0,14.004,0
	c0.803,0,1.557,0.313,2.123,0.881C16.132,0.885,19.458,4,25,4c1.654,0,3,1.346,3,3c0,3.606-0.12,7.676-1.013,10.522
	c-1.469,4.684-4.362,7.844-5.956,9.311c-2.98,2.742-4.821,4.228-5.16,4.498C15.332,31.755,14.672,31.984,14,31.984z"/>
</svg>
