<?xml version="1.0" encoding="iso-8859-1"?>
<!-- Generator: Adobe Illustrator 22.0.1, SVG Export Plug-In . SVG Version: 6.00 Build 0)  -->
<svg version="1.1" id="Layer_1" xmlns="http://www.w3.org/2000/svg" xmlns:xlink="http://www.w3.org/1999/xlink" x="0px" y="0px"
	 viewBox="0 0 32 32" style="enable-background:new 0 0 32 32;" xml:space="preserve">
<path d="M27,32H10c-1.146,0-2.238-0.493-2.997-1.351c-0.761-0.862-1.114-2.008-0.972-3.145c0.014-0.118,0.038-0.251,0.073-0.383
	c0.002-0.007,0.117-0.462,0.266-1.123C2.846,25.929,0,23.041,0,19.5c0-3.582,2.912-6.496,6.492-6.5
	c-0.174-1.002-0.343-1.87-0.418-2.249l-0.029-0.169C5.888,9.376,6.228,8.23,7.001,7.353c0.922-1.042,2.361-1.598,3.721-1.265
	c0.016,0.004,0.54,0.134,1.279,0.295C12.063,2.853,14.955,0,18.5,0s6.437,2.853,6.499,6.383c0.737-0.161,1.259-0.29,1.27-0.293
	C26.516,6.03,26.758,6,27,6c1.942,0,3.602,1.409,3.946,3.351C31.644,12.993,32,15.576,32,17c0,1.042-0.534,1.962-1.344,2.5
	C31.466,20.038,32,20.958,32,22c0,2.248-0.909,6.084-1.092,6.83C30.438,30.733,28.869,32,27,32z"/>
</svg>
