<?xml version="1.0" encoding="iso-8859-1"?>
<!-- Generator: Adobe Illustrator 22.0.1, SVG Export Plug-In . SVG Version: 6.00 Build 0)  -->
<svg version="1.1" id="Layer_1" xmlns="http://www.w3.org/2000/svg" xmlns:xlink="http://www.w3.org/1999/xlink" x="0px" y="0px"
	 viewBox="0 0 30 30" style="enable-background:new 0 0 30 30;" xml:space="preserve">
<path d="M7,30c-3.86,0-7-3.14-7-7c0-3.413,2.4-6.243,5.7-6.874l4.61-4.664C10.104,10.698,10,9.874,10,9c0-4.962,4.038-9,9-9h4
	c0.816,0,1.571,0.324,2.121,0.875c0.28,0.28,3.724,3.725,4.004,4.005C29.676,5.43,30,6.185,30,7v4c0,4.962-4.038,9-9,9
	c-0.833,0-1.645-0.11-2.429-0.329l-4.709,4.709C13.213,27.588,10.337,30,7,30z"/>
</svg>
