<?xml version="1.0" encoding="iso-8859-1"?>
<!-- Generator: Adobe Illustrator 22.0.1, SVG Export Plug-In . SVG Version: 6.00 Build 0)  -->
<svg version="1.1" id="Layer_1" xmlns="http://www.w3.org/2000/svg" xmlns:xlink="http://www.w3.org/1999/xlink" x="0px" y="0px"
	 viewBox="0 0 30.003 32" style="enable-background:new 0 0 30.003 32;" xml:space="preserve">
<path d="M15.002,32c-2.738,0-5.184-1.609-6.323-4H4.004c-1.397,0-2.669-0.709-3.403-1.897C0.58,26.068,0.559,26.035,0.539,26H0.307
	l0.127-0.194c-0.573-1.128-0.582-2.448-0.009-3.595c0.056-0.111,0.113-0.21,0.176-0.305l2.46-3.748
	c0.024-0.068,0.042-0.138,0.05-0.208l0.914-7.321C4.573,6.246,7.15,3.201,11.003,2.29l0.315-0.632C11.83,0.635,12.858,0,14.002,0h2
	c1.144,0,2.172,0.635,2.684,1.658l0.315,0.632c3.853,0.911,6.43,3.956,6.978,8.338l0.914,7.327c0.009,0.067,0.025,0.136,0.05,0.204
	l2.46,3.748c0.063,0.095,0.12,0.194,0.17,0.295c0.578,1.156,0.57,2.478-0.003,3.605L29.697,26h-0.232
	c-0.02,0.034-0.04,0.068-0.061,0.102l0,0C28.67,27.291,27.398,28,26.001,28h-4.675C20.186,30.391,17.74,32,15.002,32z"/>
</svg>
