<?xml version="1.0" encoding="iso-8859-1"?>
<!-- Generator: Adobe Illustrator 22.0.1, SVG Export Plug-In . SVG Version: 6.00 Build 0)  -->
<svg version="1.1" id="Layer_1" xmlns="http://www.w3.org/2000/svg" xmlns:xlink="http://www.w3.org/1999/xlink" x="0px" y="0px"
	 viewBox="0 0 38 22" style="enable-background:new 0 0 38 22;" xml:space="preserve">
<path d="M37.422,12.892c0.858-1.382,0.46-3.208-0.91-4.097l-3.193-2.073c0.898-1.347,1.356-2.354,1.423-2.503
	C34.917,3.823,35,3.407,35,3c-0.001-1.148-0.662-2.242-1.769-2.735C32.837,0.087,32.419,0,32,0C31.64,0,7.146,0.002,6,0
	C5.591-0.001,5.175,0.084,4.778,0.261C3.661,0.759,2.997,1.849,3,3c0.001,0.404,0.084,0.826,0.258,1.218
	c0.066,0.149,0.525,1.156,1.423,2.504L1.489,8.794c-1.387,0.9-1.784,2.762-0.882,4.152c0.02,0.031,0.05,0.054,0.071,0.084
	c-0.002,0.003-0.006,0.005-0.008,0.008C4.494,17.597,10.622,22,19,22c8.426,0,14.557-4.453,18.373-9.038
	c0.006-0.008,0.017-0.009,0.022-0.018c0.004-0.006,0.006-0.013,0.01-0.019c0.003-0.003,0.006-0.007,0.009-0.01
	C37.416,12.912,37.419,12.898,37.422,12.892z"/>
</svg>
