<?xml version="1.0" encoding="iso-8859-1"?>
<!-- Generator: Adobe Illustrator 22.0.1, SVG Export Plug-In . SVG Version: 6.00 Build 0)  -->
<svg version="1.1" id="Layer_1" xmlns="http://www.w3.org/2000/svg" xmlns:xlink="http://www.w3.org/1999/xlink" x="0px" y="0px"
	 viewBox="0 0 26 28" style="enable-background:new 0 0 26 28;" xml:space="preserve">
<path d="M21,28H5c-2.757,0-5-2.243-5-5c0-1.712,0.877-3.269,2.272-4.176c0.522-2.085,1.738-3.714,3.021-4.829
	c-1.292-1.122-2.5-2.745-3.021-4.819C0.877,8.269,0,6.712,0,5c0-2.757,2.243-5,5-5h16c2.757,0,5,2.243,5,5
	c0,1.712-0.877,3.269-2.272,4.176c-0.522,2.085-1.738,3.714-3.021,4.829c1.292,1.122,2.5,2.745,3.021,4.819
	C25.123,19.731,26,21.288,26,23C26,25.757,23.757,28,21,28z"/>
</svg>
