<?xml version="1.0" encoding="iso-8859-1"?>
<!-- Generator: Adobe Illustrator 22.0.1, SVG Export Plug-In . SVG Version: 6.00 Build 0)  -->
<svg version="1.1" id="Layer_1" xmlns="http://www.w3.org/2000/svg" xmlns:xlink="http://www.w3.org/1999/xlink" x="0px" y="0px"
	 viewBox="0 0 32 32" style="enable-background:new 0 0 32 32;" xml:space="preserve">
<path d="M23,0c-0.801,0-1.555,0.312-2.121,0.879C20.312,1.445,20,2.199,20,3c0,0.132,0.009,0.264,0.025,0.393l-8.247,6.813
	C11.278,10.069,10.766,10,10.246,10c-1.603,0-3.109,0.624-4.242,1.757l-1.122,1.118C4.315,13.441,4.001,14.194,4,14.995
	c-0.001,0.793,0.32,1.568,0.881,2.128l2.876,2.878l-6.878,6.878C0.312,27.445,0,28.199,0,29s0.312,1.555,0.879,2.121
	C1.445,31.688,2.199,32,3,32s1.555-0.312,2.121-0.879l6.877-6.877l2.876,2.877C15.442,27.688,16.195,28,16.996,28
	c0.801,0,1.555-0.312,2.121-0.879l1.125-1.125C21.376,24.863,22,23.356,22,21.754c0-0.521-0.069-1.034-0.207-1.535l6.814-8.245
	C28.736,11.991,28.867,12,29,12c0.801,0,1.555-0.312,2.121-0.879C31.688,10.555,32,9.801,32,9s-0.312-1.555-0.879-2.121l-1-1l-4-4
	l-1-1C24.555,0.312,23.801,0,23,0L23,0z"/>
</svg>
