<?xml version="1.0" encoding="iso-8859-1"?>
<!-- Generator: Adobe Illustrator 22.0.1, SVG Export Plug-In . SVG Version: 6.00 Build 0)  -->
<svg version="1.1" id="Layer_1" xmlns="http://www.w3.org/2000/svg" xmlns:xlink="http://www.w3.org/1999/xlink" x="0px" y="0px"
	 viewBox="0 0 28 29.997" style="enable-background:new 0 0 28 29.997;" xml:space="preserve">
<path d="M4.102,0L4.102,0C3.376,0,2.663,0.191,2.037,0.554C0.763,1.289,0,2.606,0,4.073v21.85c0,1.47,0.765,2.789,2.047,3.526
	c0.629,0.36,1.34,0.548,2.061,0.548c0.729,0,1.441-0.192,2.059-0.554L25.94,18.473c1.307-0.763,2.063-2.079,2.06-3.541
	c-0.003-1.462-0.772-2.779-2.056-3.523L6.128,0.531C5.54,0.191,4.826,0,4.102,0L4.102,0z"/>
</svg>
