<?xml version="1.0" encoding="iso-8859-1"?>
<!-- Generator: Adobe Illustrator 22.0.1, SVG Export Plug-In . SVG Version: 6.00 Build 0)  -->
<svg version="1.1" id="Layer_1" xmlns="http://www.w3.org/2000/svg" xmlns:xlink="http://www.w3.org/1999/xlink" x="0px" y="0px"
	 viewBox="0 0 28 28" style="enable-background:new 0 0 28 28;" xml:space="preserve">
<path d="M7-0.008c-3.86,0-7,3.14-7,7c0,3.188,2.129,5.918,5.152,6.734l0.267,0.271l-0.264,0.267C2.13,15.08,0,17.81,0,21
	c0,3.86,3.14,7,7,7c3.336,0,6.135-2.346,6.833-5.475l3.375,3.416C18.539,27.272,20.296,28,22.166,28c1.87,0,3.627-0.728,4.95-2.051
	c1.164-1.163,1.169-3.061,0.011-4.231l-7.636-7.719l7.637-7.726c1.156-1.172,1.15-3.07-0.013-4.231
	c-1.32-1.319-3.077-2.046-4.947-2.046c-1.873,0-3.633,0.729-4.956,2.052l-3.378,3.423C13.137,2.34,10.338-0.008,7-0.008L7-0.008z"/>
</svg>
