<?xml version="1.0" encoding="iso-8859-1"?>
<!-- Generator: Adobe Illustrator 22.0.1, SVG Export Plug-In . SVG Version: 6.00 Build 0)  -->
<svg version="1.1" id="Layer_1" xmlns="http://www.w3.org/2000/svg" xmlns:xlink="http://www.w3.org/1999/xlink" x="0px" y="0px"
	 viewBox="0 0 32.005 28" style="enable-background:new 0 0 32.005 28;" xml:space="preserve">
<path d="M28.016,28H3.981c-1.409,0-2.707-0.737-3.424-1.935l-0.08,0.001l0.041-0.068c-0.013-0.021-0.025-0.044-0.038-0.066
	c-0.689-1.265-0.632-2.802,0.147-4.012L12.609,1.88C13.379,0.682,14.633,0,15.998,0s2.619,0.682,3.354,1.823l12.069,20.181
	c0.733,1.136,0.784,2.662,0.096,3.925l-0.001,0.003c-0.001,0.002-0.002,0.004-0.003,0.006l0.032,0.054h-0.063
	C30.777,27.232,29.454,28,28.016,28z"/>
</svg>
