<svg xmlns="http://www.w3.org/2000/svg" x="0px" y="0px" viewBox="0 0 28 32">
<path d="M17,0h-6C9.346,0,8,1.346,8,3v8.17C7.683,11.058,7.346,11,7,11c-0.801,0-1.555,0.312-2.121,0.879l-3.994,3.994
	c-0.567,0.567-0.879,1.32-0.879,2.121s0.312,1.555,0.879,2.121L11.879,31.11c0.567,0.567,1.32,0.879,2.121,0.879
	c0.802,0,1.556-0.313,2.123-0.881L27.12,20.122C27.687,19.556,28,18.802,28,18c0-0.79-0.32-1.563-0.879-2.121l-4-4
	C22.555,11.312,21.801,11,21,11c-0.346,0-0.683,0.058-1,0.17V3C20,1.346,18.654,0,17,0L17,0z"/>
</svg>
