<svg xmlns="http://www.w3.org/2000/svg" x="0px" y="0px" viewBox="0 0 28 32">
<path d="M17,32c1.395,0,2.571-0.958,2.905-2.25C19.967,29.51,20,29.259,20,29v-8.17c0.317,0.112,0.654,0.17,1,0.17
	c0.801,0,1.555-0.312,2.121-0.879l3.952-3.952c0.346-0.346,0.639-0.755,0.782-1.222c0.349-1.137,0.052-2.285-0.735-3.07
	L16.123,0.892c-0.785-0.787-1.931-1.084-3.067-0.737c-0.468,0.143-0.877,0.436-1.224,0.782L0.933,11.836
	c-0.346,0.346-0.638,0.754-0.782,1.221c-0.349,1.135-0.053,2.283,0.734,3.07l3.994,3.994C5.445,20.688,6.199,21,7,21
	c0.346,0,0.683-0.058,1-0.17V29c0,1.657,1.343,3,3,3H17L17,32z"/>
</svg>
