<?xml version="1.0" encoding="iso-8859-1"?>
<!-- Generator: Adobe Illustrator 22.1.0, SVG Export Plug-In . SVG Version: 6.00 Build 0)  -->
<svg version="1.1" id="Layer_1" xmlns="http://www.w3.org/2000/svg" xmlns:xlink="http://www.w3.org/1999/xlink" x="0px" y="0px"
	 viewBox="0 0 250 147" style="enable-background:new 0 0 250 147;" xml:space="preserve">
<path style="fill:#D6E5E5;" d="M121.353,5.171c25.835-1.473,52.615,6.693,74.763,19.451c11.378,6.555,22.015,14.7,30.488,24.704
	c2.716,3.206,20.488,27.429,18.191,30.815c-8.511,12.546-19.537,24.257-32.694,32.726c-40.241,25.902-91.225,38.078-138.216,21.676
	c-30.972-10.811-50.047-33.052-68.052-58.98c-5.149-7.525,15.08-24.127,19.473-28.224c11.994-11.186,25.019-20.589,39.99-27.649
	C82.139,11.747,101.784,6.287,121.353,5.171z"/>
<path style="fill:#74CCCF;" d="M119.849,5.572c-12.474,1.445-24.72,5.594-34.366,12.065c-11.942,8.011-21.525,20.06-26.261,33.986
	c-2.971,8.739-4.034,18.217-2.571,27.901c0.24,1.589,0.544,3.167,0.906,4.729c2.059,8.892,5.961,18.764,11.205,27.622
	c5.72,9.662,12.208,16.854,20.473,21.518c0.444,0.251,1.719,1.759,2.167,1.996c21.238,11.227,46.991,7.152,67.243-4.691
	c0.498-0.291,0.996-0.588,1.493-0.891c8.501-5.174,16.792-12.012,22.269-20.758c0.768-1.227,1.502-2.485,2.199-3.771
	c9.72-17.922,12.48-41.283,5.507-60.947c-3.344-9.431-8.438-15.914-15.623-22.116c-0.566-0.489-1.872-2.402-2.455-2.869
	c-2.209-1.772-4.531-3.389-6.938-4.847c-3.496-2.118-7.17-3.898-10.928-5.323C143.902,5.28,131.771,4.191,119.849,5.572z"/>
<path d="M241.766,61.931c-4.583-7.013-9.821-14.038-11.345-15.837c-8.212-9.695-18.914-18.376-31.809-25.804
	C180.657,9.947,161.391,3.373,142.683,1.007c-4.827-0.78-9.878-1.109-15.064-0.982c-2.198-0.004-4.387,0.032-6.551,0.155
	c-19.162,1.092-39.727,6.415-57.904,14.987c-14.555,6.865-28.053,16.192-41.268,28.515c-0.451,0.421-1.078,0.979-1.83,1.651
	C11.176,53.269-5.372,68.041,1.726,78.415c19.937,28.71,39.558,50.044,70.511,60.849c14.242,4.971,29.239,7.519,44.563,7.725
	c0.774,0.026,1.55,0.042,2.329,0.042c0.894,0,1.791-0.018,2.69-0.052c31.065-0.616,63.258-10.771,92.988-29.907
	c12.748-8.205,24.548-20.005,34.126-34.124C251.151,79.678,250.651,75.53,241.766,61.931z M152.398,13.851
	c3.513,1.332,6.915,2.989,10.111,4.925c2.172,1.315,4.263,2.77,6.218,4.325c0.171,0.2,0.478,0.589,0.672,0.836
	c0.638,0.812,1.189,1.513,1.826,2.062c7.156,6.177,11.396,12.159,14.178,20.002c6.259,17.651,4.27,39.451-5.19,56.892
	c-0.647,1.192-1.334,2.371-2.042,3.501c-4.42,7.059-11.362,13.499-20.632,19.142c-0.471,0.287-0.943,0.568-1.417,0.845
	c-11.049,6.462-22.698,10.01-33.864,10.57c-1.764,0.043-3.525,0.059-5.28,0.036c-8.097-0.289-15.839-2.201-22.79-5.785
	c-0.106-0.106-0.22-0.224-0.334-0.34c-0.713-0.726-1.329-1.353-2.162-1.824c-7.13-4.024-13.05-10.287-18.628-19.71
	c-4.839-8.174-8.616-17.479-10.636-26.202c-0.337-1.456-0.617-2.919-0.833-4.349c-1.291-8.546-0.497-17.141,2.361-25.544
	c4.299-12.644,12.933-23.81,24.312-31.443c8.746-5.866,20.166-9.862,32.157-11.251c2.606-0.301,5.204-0.467,7.772-0.513
	c3.887,0.028,7.825,0.259,11.801,0.712C144.413,11.371,148.599,12.41,152.398,13.851z M9.998,72.794
	c-0.183-1.102,0.622-5.624,16.729-20.001c0.818-0.73,1.5-1.339,1.991-1.797C41.163,39.388,53.826,30.627,67.43,24.211
	c1.557-0.734,3.138-1.434,4.729-2.117c-7.988,7.853-14.108,17.441-17.671,27.918c-3.378,9.933-4.313,20.113-2.781,30.258
	c0.254,1.685,0.583,3.403,0.979,5.11c2.246,9.695,6.427,20.008,11.773,29.041c3.788,6.398,7.776,11.574,12.164,15.761
	c-0.363-0.123-0.729-0.234-1.091-0.361C54.997,122.654,35.988,110.206,9.998,72.794z M209.396,108.662
	c-11.89,7.653-24.18,13.779-36.613,18.359c5.774-4.698,10.422-9.822,13.864-15.318c0.818-1.306,1.611-2.666,2.356-4.041
	c10.77-19.855,13.001-44.763,5.825-65.002c-2.641-7.449-6.318-13.482-11.834-19.266c3.581,1.706,7.131,3.548,10.627,5.562
	c11.892,6.85,21.706,14.791,29.168,23.602c3.373,3.982,15.089,20.652,16.985,26.063C231.113,91.062,220.634,101.428,209.396,108.662
	z"/>
<g>
	<path d="M114.397,45.181c-1.972,0.601-3.861,1.452-5.594,2.533c-7.751,4.833-11.02,13.685-12.093,22.081
		c-0.639,5.001-1.252,10.485,0.093,15.414c1.207,4.423,3.768,8.508,7.298,11.603c0.529,0.464,1.08,0.906,1.651,1.323
		c3.967,2.896,8.875,4.578,13.859,4.834c5.077,0.261,10.005-1.174,14.461-3.421c3.978-2.006,7.609-4.649,10.787-7.682
		c4.413-4.211,7.427-9.113,8.541-15.013c1.667-8.83-0.436-18.744-7.216-25.305c-6.986-6.76-17.333-8.17-26.835-7.33
		C117.668,44.367,116.005,44.691,114.397,45.181z"/>
</g>
</svg>
