<?xml version="1.0" encoding="iso-8859-1"?>
<!-- Generator: Adobe Illustrator 22.1.0, SVG Export Plug-In . SVG Version: 6.00 Build 0)  -->
<svg version="1.1" id="Layer_1" xmlns="http://www.w3.org/2000/svg" xmlns:xlink="http://www.w3.org/1999/xlink" x="0px" y="0px"
	 viewBox="0 0 250 180" style="enable-background:new 0 0 250 180;" xml:space="preserve">
<path style="fill:#D6E5E5;" d="M121.353,5.149c25.835-1.279,52.615,5.813,74.763,16.896c11.378,5.693,22.015,12.768,30.488,21.458
	c2.716,2.785,20.488,23.825,18.191,26.766c-8.511,10.898-19.537,21.07-32.694,28.426c-40.241,22.498-91.225,33.075-138.216,18.828
	c-30.972-9.39-50.047-28.709-68.052-51.231c-5.149-6.537,15.08-20.957,19.473-24.516c11.994-9.716,25.019-17.883,39.99-24.016
	C82.139,10.86,101.784,6.118,121.353,5.149z"/>
<path d="M233.744,106.201c-2.628-3.224-5.343-6.563-8.213-10.237c8.538-6.271,16.425-13.936,23.206-22.618
	c2.902-3.716,1.162-8.46-7.161-19.525c-4.598-6.111-9.859-12.239-11.391-13.81c-8.228-8.438-18.938-15.987-31.831-22.438
	C173.441,5.107,146.006-1.086,121.106,0.155h0C102.017,1.1,81.524,5.709,63.401,13.132C48.865,19.087,35.375,27.186,22.159,37.89
	c-0.451,0.365-1.076,0.85-1.828,1.432C8.79,48.272,0.928,55.657,0.076,62.606c-0.31,2.523,0.323,4.868,1.852,6.808
	c7.338,9.178,14.632,17.485,22.456,24.791c-2.648,3.605-5.541,7.469-8.369,11.244c-5.53,7.379-11.248,15.009-15.144,20.74
	c-1.552,2.284-0.959,5.394,1.324,6.946C3.057,133.72,4.035,134,5.002,134c1.6,0,3.172-0.767,4.14-2.189
	c3.766-5.541,9.414-13.077,14.875-20.366c2.666-3.558,5.395-7.202,7.932-10.646c9.899,8.025,20.838,14.53,33.817,19.275
	c-3.715,6.877-6.352,11.211-8.912,15.416c-3.52,5.782-6.844,11.242-12.327,22.288c-1.228,2.474-0.218,5.474,2.255,6.702
	c0.714,0.354,1.473,0.522,2.219,0.522c1.839,0,3.609-1.019,4.482-2.778c5.292-10.66,8.507-15.942,11.911-21.534
	c2.83-4.649,5.751-9.448,10.063-17.528c13.9,3.896,28.473,5.844,43.353,5.843c0.115,0,0.231-0.006,0.346-0.006
	c1.232,10.608,1.211,37.662,0.791,45.743c-0.144,2.757,1.976,5.109,4.733,5.253c0.088,0.005,0.176,0.007,0.264,0.007
	c2.642,0,4.85-2.071,4.989-4.74c0.434-8.336,0.457-34.697-0.756-46.585c13.489-0.798,27.135-3.145,40.653-6.993
	c4.158,7.763,7.016,12.461,9.784,17.007c3.404,5.592,6.62,10.875,11.911,21.534c0.873,1.759,2.643,2.778,4.482,2.778
	c0.747,0,1.505-0.168,2.219-0.522c2.474-1.228,3.483-4.228,2.255-6.702c-5.483-11.045-8.807-16.506-12.327-22.288
	c-2.485-4.083-5.046-8.292-8.593-14.828c11.883-4.042,23.61-9.248,34.976-15.603c0.885-0.495,1.764-1.008,2.639-1.532
	c3.111,4,6.005,7.551,8.812,10.994c4.996,6.127,9.714,11.914,14.917,19.347c0.973,1.389,2.524,2.133,4.101,2.133
	c0.99,0,1.99-0.293,2.863-0.904c2.262-1.584,2.812-4.702,1.229-6.964C243.689,118.399,238.858,112.474,233.744,106.201z
	 M209.662,94.33c-43.582,24.366-92.541,31.075-134.326,18.408c-28.308-8.583-46.615-25.88-65.295-49.191
	c0.323-1.509,2.768-5.737,16.419-16.322c0.82-0.636,1.502-1.166,1.995-1.564C40.9,35.579,53.571,27.966,67.192,22.386
	c17.1-7.005,36.422-11.353,54.408-12.244h0c23.211-1.152,48.88,4.665,72.279,16.374c11.893,5.95,21.7,12.84,29.146,20.476
	c3.137,3.218,14.074,16.685,16.557,21.798C231.026,79.344,220.717,88.149,209.662,94.33z"/>
</svg>
