<?xml version="1.0" encoding="iso-8859-1"?>
<!-- Generator: Adobe Illustrator 22.1.0, SVG Export Plug-In . SVG Version: 6.00 Build 0)  -->
<svg version="1.1" id="Layer_1" xmlns="http://www.w3.org/2000/svg" xmlns:xlink="http://www.w3.org/1999/xlink" x="0px" y="0px"
	 viewBox="0 0 235 218" style="enable-background:new 0 0 235 218;" xml:space="preserve">
<path style="fill:#FEBF10;" d="M208.248,78.186c-8.512-1.062-46.433-4.576-46.81-4.576c-1.226,0.1-2.451-0.201-3.583-1.305
	c-6.513-6.356-10.682-18.914-13.685-27.087c-3.491-9.5-15.018-33.967-18.13-40.217c-1.895,5.251-13.799,29.248-16.441,35.211
	C104.43,51.878,91,69,88,72c-5,2-7.045,4.966-41,4c-13.107,0-28.988,0.201-42,0c2.001,2.863,28.156,32.109,37.41,44.805
	C46.15,125.936,58.08,140.874,58,143c-0.566,15.064-5.947,29.529-10.284,43.789C45.83,192.915,39.624,210.059,39,213
	c2.627-1.942,33.235-17.191,39.088-19.925c8.347-3.899,34.51-18.63,39.912-18.075c4.607,0.473,24.07,11.291,35.18,18.075
	C164.913,200.24,182.792,206.87,192,211c-1.199-4.13-5.902-24.17-6.78-27.915c-3.364-14.344-7.22-27.4-7.22-42.085
	c0-1.205,0.129-2.716,1.072-3.821c7.981-9.925,16.746-19.183,25.623-28.308C209.136,104.305,226.275,86.742,230,82
	C230,82,216.258,79.185,208.248,78.186z"/>
<path d="M38.989,218.02c-0.94,0-1.882-0.267-2.713-0.801c-1.747-1.124-2.598-3.225-2.167-5.257
	c0.398-1.875,2.088-6.814,4.812-14.717c1.585-4.601,3.225-9.357,4.016-11.926c0.709-2.333,1.452-4.687,2.197-7.048
	c3.555-11.271,7.229-22.917,7.829-34.539c-1.479-2.725-7.62-10.78-10.673-14.784c-1.602-2.101-2.985-3.916-3.919-5.197
	c-5.947-8.16-19.324-23.649-28.176-33.899c-5.864-6.79-8.49-9.839-9.292-10.986c-1.076-1.539-1.199-3.551-0.318-5.209
	c0.88-1.658,2.625-2.665,4.493-2.655c8.718,0.134,18.718,0.088,28.388,0.042C38.141,71.021,42.718,71,47,71
	c0.047,0,0.095,0,0.142,0.002c29.025,0.826,33.551-1.219,37.191-2.862c0.25-0.112,0.497-0.224,0.747-0.333
	c3.644-4.067,15.424-19.41,19.948-29.621c1.018-2.297,3.278-7.002,5.896-12.451c3.93-8.18,9.312-19.382,10.413-22.433
	c0.68-1.883,2.417-3.179,4.415-3.294c2.008-0.108,3.874,0.972,4.765,2.764c3.322,6.675,14.791,31.043,18.347,40.721l0.795,2.182
	c2.742,7.553,6.491,17.878,11.576,22.939c0.07-0.003,0.14-0.004,0.204-0.004c1.372,0,40.616,3.765,47.429,4.614l0,0
	c8.11,1.011,21.568,3.761,22.137,3.877c1.698,0.348,3.095,1.55,3.691,3.177c0.597,1.627,0.308,3.447-0.763,4.81
	c-3.322,4.229-15.808,17.152-24.911,26.505l-0.743,0.763c-9.766,10.039-17.798,18.624-25.231,27.857
	C183.026,140.335,183,140.572,183,141c0,11.748,2.648,22.624,5.452,34.139c0.546,2.243,1.097,4.507,1.636,6.804
	c3.47,14.79,5.979,25.131,6.714,27.663c0.543,1.871-0.05,3.888-1.521,5.167c-1.471,1.278-3.549,1.586-5.328,0.789
	c-2.374-1.064-5.317-2.291-8.726-3.711c-9.666-4.026-21.695-9.038-30.653-14.508c-13.63-8.323-29.479-16.652-32.984-17.35
	c-3.875,0.381-19.918,8.686-27.673,12.7c-3.99,2.065-7.435,3.849-9.713,4.913c-6.626,3.094-35.59,17.603-38.27,19.441
	C41.059,217.695,40.026,218.02,38.989,218.02z M15.837,81.086c0.635,0.735,1.281,1.484,1.924,2.229
	c8.959,10.375,22.499,26.052,28.689,34.545c0.871,1.194,2.224,2.969,3.791,5.024c11.617,15.237,12.857,17.586,12.755,20.303
	c-0.499,13.273-4.478,25.89-8.326,38.09c-0.735,2.329-1.467,4.65-2.171,6.966c-0.845,2.744-2.438,7.365-4.124,12.258
	c-0.238,0.691-0.488,1.416-0.743,2.157c10.751-5.529,25.346-12.715,28.34-14.114c2.094-0.978,5.455-2.718,9.348-4.733
	c19.546-10.117,28.478-14.28,33.19-13.786c7.743,0.794,36.982,18.602,37.276,18.782c8.188,5,19.618,9.783,28.899,13.65
	c-1.444-5.958-3.145-13.162-4.333-18.231c-0.532-2.27-1.077-4.506-1.617-6.722C175.786,165.39,173,153.947,173,141
	c0-1.082,0-4.353,2.211-7c7.69-9.559,15.917-18.355,25.899-28.616l0.744-0.765c8.211-8.437,14.419-14.914,18.577-19.381
	c-4.212-0.78-9.154-1.636-12.802-2.091l0,0c-7.998-0.997-42.685-4.222-46.245-4.526c-2.655,0.098-5.078-0.841-7.021-2.738
	c-6.779-6.616-11.013-18.279-14.104-26.795l-0.782-2.146c-2.359-6.42-8.626-20.164-13.266-30.025
	c-1.915,4.08-4.161,8.753-6.273,13.149c-2.475,5.15-4.812,10.014-5.767,12.171c-5.381,12.145-19.223,29.887-22.635,33.299
	c-0.479,0.479-1.05,0.855-1.679,1.107c-0.488,0.195-0.944,0.402-1.41,0.613c-4.81,2.17-10.265,4.628-41.517,3.745
	c-4.247,0-8.784,0.021-13.418,0.043C27.626,81.071,21.616,81.098,15.837,81.086z M182.877,140.422
	c-0.001,0.001-0.001,0.002-0.002,0.003C182.875,140.424,182.876,140.423,182.877,140.422z"/>
</svg>
