<?xml version="1.0" encoding="iso-8859-1"?>
<!-- Generator: Adobe Illustrator 22.1.0, SVG Export Plug-In . SVG Version: 6.00 Build 0)  -->
<svg version="1.1" id="Layer_1" xmlns="http://www.w3.org/2000/svg" xmlns:xlink="http://www.w3.org/1999/xlink" x="0px" y="0px"
	 viewBox="0 0 177 197" style="enable-background:new 0 0 177 197;" xml:space="preserve">
<path style="fill:#EF4754;" d="M138,6c-35,0-45.234,36.974-47,37C89.234,43.026,73,5,45,5C25.787,5,5,14,5,40
	c0,46.4,23.513,81.489,43,109c17,24,43.504,42.318,43,43c14.889-20.174,33.579-39.733,48.457-59.901
	c13.498-18.299,29.081-46.688,31.975-69.688c0.427-3.397,0.638-9.82,0.617-13.244C172,41,169,6,138,6z"/>
<path d="M90.996,197c-1.032,0-2.072-0.317-2.965-0.978c-0.44-0.324-0.812-0.708-1.111-1.131c-0.598-0.527-1.875-1.57-3.117-2.585
	c-7.989-6.523-26.698-21.802-39.883-40.417C21.697,120.517,0,86.034,0,40C0,26.562,5.14,15.738,14.863,8.7
	C22.614,3.089,33.316,0,44.999,0C45,0,45,0,45,0c22.881,0,38.351,21.867,45.552,33.315C96.532,21.984,110.291,1,138,1
	c30.594,0,38.941,30.258,39.05,48.137c0.02,3.343-0.175,10.072-0.657,13.898c-1.919,15.248-11.69,43.262-32.912,72.032
	c-7.542,10.224-16.137,20.394-24.448,30.229c-8.195,9.698-16.669,19.725-24.01,29.672c0,0.001,0,0.001,0,0.001
	C94.042,196.298,92.529,197,90.996,197z M45,10c-9.595,0-18.215,2.415-24.273,6.8C13.609,21.952,10,29.758,10,40
	c0,43.097,20.788,76.05,42.08,106.11c12.401,17.507,30.374,32.184,38.048,38.452c0.044,0.036,0.088,0.072,0.131,0.107
	c6.695-8.738,14.02-17.406,21.136-25.827c8.206-9.711,16.692-19.752,24.038-29.711c12.549-17.013,28.208-44.858,31.038-67.345
	c0.368-2.922,0.6-8.979,0.579-12.589C167.026,45.288,166.008,11,138,11c-25.478,0-36.457,22.468-40.59,30.926
	c-1.708,3.497-2.943,6.023-6.337,6.073c-3.234,0.016-4.521-2.102-7.143-6.382C78.134,32.157,64.56,10,45,10z"/>
</svg>
