<?xml version="1.0" encoding="iso-8859-1"?>
<!-- Generator: Adobe Illustrator 22.1.0, SVG Export Plug-In . SVG Version: 6.00 Build 0)  -->
<svg version="1.1" id="Layer_1" xmlns="http://www.w3.org/2000/svg" xmlns:xlink="http://www.w3.org/1999/xlink" x="0px" y="0px"
	 viewBox="0 0 205 205" style="enable-background:new 0 0 205 205;" xml:space="preserve">
<path style="fill:#EF4823;" d="M83.342,25.422c5.687-7.637,12.595-14.36,20.379-19.835c0.472-0.332,1.017-0.675,1.583-0.566
	c0.555,0.107,0.931,0.611,1.251,1.077c4.175,6.066,8.351,12.132,12.526,18.197c9.817-3.18,19.92-5.477,30.146-6.852
	c3.314,8.348,6.627,16.696,9.941,25.044c0.583,1.468,1.23,3.019,2.521,3.926c1.007,0.707,2.269,0.919,3.483,1.112
	c5.2,0.828,10.399,1.656,15.599,2.483c1.178,0.188,2.481,0.448,3.185,1.413c0.811,1.111,0.479,2.654,0.114,3.981
	c-2.197,7.97-4.394,15.939-6.591,23.909c-0.345,1.252-0.686,2.612-0.208,3.819c0.527,1.331,1.89,2.095,3.139,2.791
	c7.301,4.067,13.943,9.316,19.592,15.482c-5.171,4.944-20.764,17.897-21.51,19.929c-0.916,2.499,5.185,21.695,6.652,28.607
	c-8.204,3.002-27.554,5.939-28.656,7.02C155.61,157.818,152,169.93,152,179c0,2-0.478,5.31-0.685,6.237
	c-9.788-3.755-19.577-7.509-29.365-11.264c-5.451,7.193-12.154,16.806-16.351,25.027c-0.171,0.336-0.339,0.669-0.502,1
	c-8.014-4.962-21.867-25.307-23.616-26.071c-1.371-0.599-20.786,7.336-28.314,10.921c-0.265-1.291-2.486-3.966-2.685-5.85
	c-0.88-8.334,0.668-19.775-1.309-21.353c-1.775-1.417-10.341-3.911-12.579-4.282c-5.972-0.989-11.945-1.979-17.917-2.968
	c1.408-9.534,4.447-20.902,8.946-29.421c0.335-0.634,0.686-1.367,0.432-2.037c-0.179-0.472-0.617-0.786-1.032-1.071
	C19.682,112.82,12.341,107.772,5,102.724c6.087-6.329,12.175-12.659,18.262-18.988c1.043-1.085,2.13-2.247,2.465-3.715
	c0.363-1.589-0.222-3.222-0.755-4.762c-2.667-7.696-6.894-21.747-6.353-22.547c0.465-0.688,1.258-1.064,2.016-1.402
	c6.358-2.834,15-3.116,21.706-4.975c1.484-0.411,3.062-0.849,4.097-1.991c0.867-0.955,1.217-2.258,1.539-3.508
	c1.619-6.276,3.238-18.785,4.856-25.061c0.971,0.092,4.035,0.255,5.166,0.473C68.701,18.319,83.342,25.422,83.342,25.422z"/>
<path d="M105.097,205c-0.921,0-1.833-0.254-2.632-0.749c-5.534-3.427-12.38-11.821-19.497-20.858
	c-1.054-1.338-2.265-2.875-3.188-4.002c-5.103,1.653-17.645,6.727-24.461,9.974c-1.388,0.66-3.002,0.647-4.378-0.038
	c-1.27-0.632-2.206-1.77-2.586-3.125c-0.122-0.246-0.402-0.726-0.595-1.057c-0.901-1.545-2.022-3.468-2.249-5.62
	c-0.394-3.731-0.341-7.901-0.294-11.58c0.029-2.246,0.065-5.148-0.077-6.789c-2.468-1.018-7.692-2.581-9.362-2.858L17.86,155.33
	c-2.691-0.445-4.528-2.965-4.129-5.663c1.571-10.642,4.626-21.081,8.472-29.046L2.167,106.844c-1.21-0.832-1.993-2.154-2.142-3.615
	s0.353-2.913,1.371-3.971l18.262-18.988c0.326-0.339,0.978-1.018,1.178-1.364c-0.033-0.406-0.346-1.308-0.558-1.919
	c-1.424-4.111-3.174-9.648-4.49-14.199c-2.58-8.925-2.764-10.73-1.312-12.877c1.286-1.903,3.131-2.726,4.122-3.167
	c4.444-1.981,9.493-2.819,14.375-3.629c2.906-0.482,5.651-0.938,8.032-1.598c0.555-0.154,1.365-0.378,1.72-0.559
	c0.139-0.317,0.312-0.988,0.41-1.37c0.759-2.942,1.564-7.615,2.343-12.135c0.813-4.715,1.653-9.591,2.513-12.927
	c0.614-2.379,2.857-3.96,5.312-3.729c0.254,0.024,0.666,0.053,1.147,0.087c1.925,0.137,3.479,0.258,4.498,0.455
	c7.953,1.539,17.678,5.563,22.884,7.882c5.494-6.755,11.874-12.705,19.01-17.724c0.67-0.472,2.71-1.909,5.408-1.386
	c2.601,0.504,3.924,2.428,4.423,3.153l10.435,15.16c8.967-2.696,18.184-4.69,27.451-5.937c2.278-0.303,4.467,0.977,5.314,3.111
	l9.94,25.044c0.166,0.417,0.54,1.36,0.784,1.691c0.23,0.074,0.957,0.189,1.358,0.253l15.599,2.483
	c1.452,0.231,4.474,0.712,6.438,3.405c2.301,3.153,1.279,6.86,0.895,8.256l-6.591,23.909c-0.032,0.115-0.087,0.317-0.139,0.524
	c0.232,0.139,0.49,0.282,0.683,0.39c7.796,4.343,14.81,9.885,20.844,16.472c1.837,2.005,1.735,5.112-0.231,6.991
	c-1.89,1.807-5.028,4.564-8.352,7.483c-3.656,3.211-9.46,8.31-11.617,10.55c0.453,3.086,2.521,10.618,3.816,15.339
	c1.131,4.119,2.199,8.008,2.73,10.513c0.517,2.435-0.836,4.878-3.173,5.733c-4.885,1.788-13.033,3.469-19.581,4.821
	c-2.451,0.506-5.336,1.101-7.097,1.527C159.055,164.407,157,172.639,157,179c0,2.41-0.532,6.104-0.805,7.327
	c-0.317,1.419-1.235,2.629-2.516,3.316c-1.281,0.686-2.797,0.782-4.154,0.262l-25.832-9.909
	c-4.119,5.601-9.868,13.887-13.641,21.277c-0.161,0.315-0.317,0.626-0.469,0.936c-0.623,1.265-1.751,2.208-3.107,2.597
	C106.023,204.936,105.559,205,105.097,205z M81.403,168.858c0.869,0,1.439,0.208,2.081,0.489c1.695,0.74,2.73,2.005,7.34,7.859
	c3.412,4.332,8.512,10.808,12.76,15.042c4.745-8.249,10.839-16.622,14.381-21.295c1.344-1.772,3.699-2.445,5.775-1.648l23.269,8.926
	c0.188-8.125,3.232-22.151,5.976-24.842c1.499-1.47,3.069-1.827,12.272-3.727c4.475-0.924,9.736-2.01,13.898-3.117
	c-0.445-1.682-0.963-3.569-1.496-5.509c-4.009-14.603-4.882-18.648-3.864-21.425c0.792-2.163,2.854-4.213,14.708-14.625
	c1.509-1.326,2.98-2.618,4.296-3.787c-4.459-4.246-9.429-7.904-14.825-10.91c-1.56-0.869-4.168-2.323-5.354-5.318
	c-1.114-2.813-0.365-5.53,0.037-6.989l6.392-23.186l-14.664-2.334c-1.432-0.228-3.596-0.573-5.569-1.958
	c-2.558-1.793-3.646-4.535-4.296-6.173l-8.481-21.369c-8.605,1.364-17.139,3.407-25.417,6.089c-2.104,0.682-4.406-0.1-5.66-1.921
	l-10.793-15.681c-6.377,4.83-12.025,10.524-16.817,16.959c-1.434,1.925-4.032,2.559-6.192,1.513
	c-0.141-0.068-14.19-6.844-24.11-8.764c-0.069-0.013-0.162-0.026-0.273-0.041c-0.479,2.448-0.966,5.271-1.442,8.035
	c-0.813,4.718-1.654,9.597-2.515,12.934c-0.382,1.483-0.96,3.727-2.678,5.619c-2.009,2.215-4.584,2.928-6.465,3.449
	c-2.891,0.801-6.029,1.322-9.065,1.826c-3.665,0.608-7.438,1.234-10.504,2.326c1.045,4.114,3.406,12.016,5.589,18.316
	c0.685,1.975,1.58,4.557,0.905,7.512c-0.653,2.863-2.508,4.792-3.735,6.068l-14.178,14.741l17.168,11.805
	c0.638,0.438,2.135,1.467,2.875,3.419c1.067,2.818-0.206,5.232-0.685,6.141c-3.164,5.991-5.898,14.325-7.591,22.978l12.957,2.146
	c1.424,0.236,11.743,2.801,14.882,5.308c3.072,2.452,3.015,6.923,2.921,14.332c-0.042,3.343-0.09,7.125,0.223,10.24
	c0.001,0.003,0.002,0.007,0.004,0.01c3.703-1.63,8.244-3.529,12.354-5.152C76.238,169.835,79.521,168.858,81.403,168.858z
	 M48.27,185.855c0,0.002,0.001,0.004,0.001,0.006C48.271,185.859,48.27,185.857,48.27,185.855z"/>
</svg>
