<?xml version="1.0" encoding="iso-8859-1"?>
<!-- Generator: Adobe Illustrator 22.1.0, SVG Export Plug-In . SVG Version: 6.00 Build 0)  -->
<svg version="1.1" id="Layer_1" xmlns="http://www.w3.org/2000/svg" xmlns:xlink="http://www.w3.org/1999/xlink" x="0px" y="0px"
	 viewBox="0 0 194 194" style="enable-background:new 0 0 194 194;" xml:space="preserve">
<path style="fill:#74CCCF;" d="M59.936,61.498C60.462,42.842,60.346,23.615,59,5c24.658-0.324,47.342,2.324,72,2
	c0.373,18.054-0.373,33.946,0,52c21,2,39-1,57,0c0.922,22.634,1,72,1,72c-0.521,0.89-17.621,1.975-25.155,1.575
	C153,132,144,133,134,133c-2,20,0.743,36.201-1,56c-24-1-47-1-72,0c0,0-0.058-4.387,0-6c0.649-17.917-0.649-33.083,0-51
	c-18.244,0.418-37.385,2.607-55,2c-0.171-22.631,0-67-1-71c-0.202-0.81,37,0,54.5-1.5L59.936,61.498z"/>
<path d="M133.003,194c-0.07,0-0.14-0.001-0.211-0.004c-23.921-0.996-46.67-0.997-71.592,0c-1.342,0.054-2.66-0.439-3.64-1.368
	c-0.979-0.928-1.542-2.212-1.56-3.562c-0.006-0.462-0.059-4.56,0.003-6.249c0.319-8.818,0.156-17.156-0.002-25.22
	c-0.129-6.574-0.261-13.327-0.139-20.434c-5.345,0.209-10.784,0.533-16.086,0.848c-11.278,0.67-22.941,1.363-33.948,0.985
	c-2.678-0.092-4.808-2.28-4.828-4.959c-0.041-5.444-0.062-12.146-0.085-19.241c-0.06-18.819-0.15-47.26-0.787-50.677
	c-0.372-1.488-0.013-2.998,0.927-4.209c1.633-2.107,3.537-2.146,8.623-2.253c2.913-0.061,6.881-0.087,11.477-0.118
	c10.383-0.069,24.114-0.161,33.898-0.736c0.425-19.035,0.083-35.905-1.04-51.443c-0.1-1.374,0.372-2.728,1.304-3.742
	c0.932-1.015,2.24-1.6,3.617-1.618c12.49-0.164,24.598,0.431,36.311,1.005C106.806,1.573,118.76,2.16,130.934,2
	c2.765-0.04,5.008,2.15,5.065,4.896c0.188,9.106,0.093,17.775,0,26.159c-0.076,6.897-0.154,13.989-0.072,21.32
	c9.777,0.622,18.992,0.236,27.941-0.138c8.37-0.35,16.276-0.68,24.409-0.229c2.571,0.143,4.614,2.215,4.719,4.789
	c0.915,22.472,1.003,71.701,1.004,72.196c0.001,0.891-0.235,1.766-0.686,2.535c-1.477,2.522-3.563,3.08-13.948,3.734
	c-4.768,0.3-11.42,0.54-15.786,0.307c-6.418-0.341-12.337-0.103-18.061,0.128c-2.259,0.091-4.564,0.184-6.917,0.242
	c-0.559,8.214-0.375,15.804-0.182,23.77c0.212,8.764,0.432,17.827-0.439,27.73C137.753,192.029,135.581,194,133.003,194z
	 M97.376,183.248c10.33,0,20.565,0.189,30.981,0.567c0.414-7.5,0.244-14.513,0.065-21.864c-0.225-9.273-0.457-18.861,0.602-29.449
	C129.28,129.946,131.431,128,134,128c3.767,0,7.337-0.144,11.118-0.296c5.952-0.239,12.109-0.486,18.992-0.122
	c5.206,0.277,14.749-0.193,19.878-0.709c-0.04-11.387-0.204-43.622-0.819-63.051c-6.153-0.124-12.373,0.134-18.883,0.407
	c-10.632,0.444-21.625,0.905-33.761-0.251c-2.527-0.241-4.472-2.336-4.525-4.874c-0.188-9.106-0.093-17.775,0-26.159
	c0.074-6.771,0.151-13.729,0.076-20.918c-10.729-0.021-21.175-0.534-31.322-1.032c-9.887-0.485-20.062-0.985-30.416-1.02
	c0.938,15.636,1.132,32.602,0.595,51.665c-0.076,2.697-2.278,4.847-4.976,4.859l-0.235,0.001C49.6,67.35,33.21,67.459,21.222,67.54
	c-3.915,0.026-7.907,0.053-10.835,0.105c0.339,7.58,0.449,22.346,0.528,47.12c0.016,5.087,0.032,9.972,0.054,14.334
	c9.155,0.053,18.821-0.512,28.213-1.07c7.142-0.424,14.526-0.864,21.703-1.028c1.397-0.044,2.706,0.506,3.674,1.487
	c0.967,0.98,1.487,2.316,1.438,3.693c-0.319,8.818-0.156,17.157,0.002,25.221c0.161,8.201,0.327,16.681-0.002,25.779
	c-0.006,0.171-0.011,0.385-0.014,0.629C76.72,183.436,87.096,183.248,97.376,183.248z"/>
</svg>
