<?xml version="1.0" encoding="iso-8859-1"?>
<!-- Generator: Adobe Illustrator 22.1.0, SVG Export Plug-In . SVG Version: 6.00 Build 0)  -->
<svg version="1.1" id="Layer_1" xmlns="http://www.w3.org/2000/svg" xmlns:xlink="http://www.w3.org/1999/xlink" x="0px" y="0px"
	 viewBox="0 0 194 85" style="enable-background:new 0 0 194 85;" xml:space="preserve">
<path style="fill:#74CCCF;" d="M60,7c22-1,59-1,71-2c22,1,38,0,57,0c0.922,22.634,1,72,1,72c-0.521,0.89-18.456,3-26,3
	c-24,0-37-1-47-1c-23,0-35-1-55,0c-18.244,0.418-37,1-55,1C5.829,57.369,6,12,5,8C4.798,7.19,19,7,38,7H60z"/>
<path d="M163,85c-14.673,0-25.134-0.367-33.539-0.662C124.083,84.149,119.835,84,116,84c-8.317,0-15.332-0.132-21.521-0.25
	c-11.05-0.208-20.593-0.388-33.229,0.243c-0.045,0.002-0.091,0.004-0.136,0.005c-3.862,0.089-7.747,0.185-11.644,0.281
	C35.104,84.633,20.248,85,6,85c-2.747,0-4.979-2.216-5-4.962C0.959,74.575,0.938,67.789,0.915,60.58
	C0.854,41.458,0.764,12.56,0.127,9.116c-0.373-1.494,0.002-3.047,0.95-4.261C3.01,2.38,3.307,2,38,2h21.887
	c10.312-0.466,23.641-0.711,36.531-0.949c14.36-0.264,27.925-0.514,34.167-1.034c0.214-0.017,0.431-0.021,0.642-0.012
	c14.509,0.659,26.627,0.435,38.348,0.218C175.496,0.113,181.62,0,188,0c2.683,0,4.887,2.117,4.996,4.796
	c0.915,22.472,1.003,71.701,1.004,72.196c0.001,0.891-0.235,1.766-0.686,2.535c-1.342,2.29-2.803,2.958-14.104,4.273
	C174.225,84.38,167.348,85,163,85z M79.046,73.556c5.209,0,10.239,0.095,15.622,0.197C101.112,73.874,107.777,74,116,74
	c4.011,0,8.553,0.16,13.812,0.344C138.139,74.636,148.503,75,163,75c5.483,0,15.772-1.121,20.989-1.929
	c-0.039-11.17-0.2-43.487-0.813-63.05c-4.585,0.037-9.056,0.12-13.417,0.201c-11.793,0.218-23.984,0.444-38.669-0.212
	c-6.686,0.529-20.196,0.777-34.487,1.041c-12.872,0.237-26.183,0.482-36.376,0.945C60.151,11.998,60.076,12,60,12H38
	c-15.338,0-23.459,0.145-27.63,0.325c0.352,7.558,0.464,22.632,0.545,48.223c0.016,5.138,0.031,10.059,0.054,14.438
	c12.602-0.071,25.618-0.392,38.256-0.704c3.879-0.096,7.748-0.191,11.594-0.279C67.551,73.667,73.403,73.556,79.046,73.556z"/>
</svg>
