<?xml version="1.0" encoding="iso-8859-1"?>
<!-- Generator: Adobe Illustrator 22.1.0, SVG Export Plug-In . SVG Version: 6.00 Build 0)  -->
<svg version="1.1" id="Layer_1" xmlns="http://www.w3.org/2000/svg" xmlns:xlink="http://www.w3.org/1999/xlink" x="0px" y="0px"
	 viewBox="0 0 153 203" style="enable-background:new 0 0 153 203;" xml:space="preserve">
<path style="fill:#EF4823;" d="M5,27c11.199-7.23,22.398-14.77,33.596-22C52.798,30.023,67.798,54.977,82,80
	c13.534-23.632,25.304-47.773,36.863-72.476C128.564,20.598,148,47.036,148,48c0,3-4.496,9.455-7.463,12.458
	C131.299,69.81,102,106,102,109c1.769,4.718,7.668,13.334,10.684,17.411c3.799,5.135,7.597,10.271,11.396,15.406
	C131.04,151.226,147,173,147,174s-0.894,3.51-1.719,4.707C140.822,185.18,136.577,191.619,132,198c-2-2-11.667-17.095-13-19
	c-7-10-10.934-15.528-16.368-25.125C96.456,142.969,89.392,133.116,82,123c-2.26,6.697-21.956,40.826-27.479,49.769
	C52.943,175.326,42,194,41,197c-5.384-6.182-10.718-12.65-16.618-18.669C18.851,172.689,10,163,8,160c0-3,17.6-19.364,19.939-21.969
	C34.05,131.225,63.025,103.759,65,100c1.05-1.999-19.251-24.874-21-27c-8.734-10.618-17.354-19.819-25.655-30.784
	C17.077,40.541,8,29,5,27z"/>
<path d="M132,203c-1.32,0-2.594-0.523-3.535-1.464c-1.562-1.562-5.005-6.66-11.225-16.138c-1.138-1.734-2.004-3.057-2.336-3.531
	l-0.947-1.353c-6.468-9.237-10.373-14.812-15.675-24.175c-4.625-8.168-9.863-15.875-15.354-23.541
	c-6.843,13.293-20.275,36.322-24.15,42.599c-2.359,3.82-12.116,20.685-13.041,23.209c-0.567,1.702-1.999,2.958-3.759,3.31
	c-1.758,0.352-3.568-0.278-4.747-1.632c-1.283-1.473-2.562-2.962-3.848-4.457c-4.022-4.68-8.182-9.52-12.569-13.996
	c-4.506-4.596-14.435-15.252-16.972-19.058C3.292,161.952,3,160.987,3,160c0-3.387,2.301-6.636,17.537-21.627
	c1.656-1.63,3.221-3.169,3.682-3.683c2.509-2.794,8.316-8.534,15.04-15.181c6.661-6.584,16.184-15.998,19.938-20.198
	c-1.879-2.749-6.494-8.6-17.01-20.75c-1.037-1.198-1.768-2.045-2.047-2.384c-3.245-3.945-6.532-7.76-9.711-11.449
	c-5.305-6.156-10.791-12.522-16.068-19.494C11.276,41.163,4.031,32.417,2.22,31.156c-1.402-0.935-2.236-2.51-2.223-4.195
	c0.012-1.685,0.875-3.248,2.291-4.162c5.579-3.602,11.262-7.349,16.757-10.973c5.516-3.638,11.219-7.399,16.839-11.027
	c1.156-0.747,2.567-0.985,3.904-0.655c1.336,0.328,2.478,1.191,3.157,2.388c7.085,12.484,14.5,25.174,21.67,37.446
	c5.724,9.796,11.604,19.859,17.356,29.886c12.335-22.253,23.207-44.889,32.363-64.458c0.746-1.595,2.276-2.679,4.028-2.855
	c1.751-0.177,3.467,0.582,4.516,1.995C153,45.138,153,45.917,153,48c0,5.777-7.025,14.068-8.906,15.972
	c-9.239,9.354-31.934,37.746-36.592,45.107c1.928,3.857,5.906,9.903,9.202,14.358l11.396,15.406C152,171.156,152,171.931,152,174
	c0,2.253-1.345,5.719-2.601,7.543c-1.511,2.192-2.995,4.38-4.478,6.562c-2.852,4.201-5.801,8.545-8.859,12.809
	c-0.856,1.193-2.192,1.949-3.656,2.069C132.271,202.995,132.135,203,132,203z M82.001,118c1.58,0,3.086,0.75,4.036,2.05
	c7.462,10.212,14.679,20.295,20.946,31.361c5.066,8.947,8.867,14.375,15.165,23.367l0.949,1.355c0.37,0.528,1.113,1.659,2.504,3.779
	c1.367,2.083,4.045,6.165,6.316,9.509c1.604-2.323,3.182-4.648,4.732-6.931c1.495-2.202,2.993-4.408,4.515-6.619
	c0.141-0.211,0.342-0.654,0.515-1.104c-2.665-4.041-11.324-16.059-21.619-29.977l-11.396-15.406
	c-0.361-0.488-8.872-12.031-11.346-18.628C97.108,110.194,97,109.6,97,109c0-1.919,0-3.903,16.901-25.014
	c7.733-9.66,17.869-21.768,23.079-27.042c2.261-2.288,4.786-6.073,5.696-8.134c-2.962-4.441-12.807-17.979-22.85-31.582
	c-9.562,20.24-20.796,43.095-33.487,65.256C85.448,84.041,83.792,85,82,85c-0.003,0-0.006,0-0.01,0
	c-1.796-0.003-3.452-0.97-4.339-2.532c-7.085-12.484-14.5-25.174-21.67-37.446c-6.307-10.793-12.802-21.909-19.107-32.944
	c-4.131,2.693-8.278,5.428-12.323,8.095c-3.808,2.511-7.705,5.082-11.603,7.626c4.414,4.891,9.313,11.306,9.384,11.399
	c5.086,6.719,10.228,12.685,15.67,19.001c3.216,3.732,6.541,7.59,9.859,11.624c0.257,0.312,0.932,1.09,1.886,2.193
	c2.721,3.144,7.786,8.996,12.021,14.232c7.681,9.5,9.5,12.571,7.658,16.076c-1.332,2.535-6.945,8.29-23.137,24.296
	c-6.335,6.263-12.32,12.178-14.629,14.75c-0.638,0.71-1.848,1.905-4.109,4.129c-3.094,3.044-10.467,10.3-13.549,14.087
	c3.225,3.869,9.434,10.634,13.951,15.243c4.228,4.313,8.164,8.841,11.967,13.262c4.156-7.573,10.263-17.813,10.347-17.95
	c6.334-10.259,25.076-43.054,26.995-48.741c0.597-1.77,2.131-3.059,3.977-3.343C81.493,118.019,81.748,118,82.001,118z
	 M12.744,161.37C12.744,161.369,12.744,161.369,12.744,161.37L12.744,161.37z"/>
</svg>
