<?xml version="1.0" encoding="iso-8859-1"?>
<!-- Generator: Adobe Illustrator 22.1.0, SVG Export Plug-In . SVG Version: 6.00 Build 0)  -->
<svg version="1.1" id="Layer_1" xmlns="http://www.w3.org/2000/svg" xmlns:xlink="http://www.w3.org/1999/xlink" x="0px" y="0px"
	 viewBox="0 0 201 201" style="enable-background:new 0 0 201 201;" xml:space="preserve">
<path style="fill:#3AB37C;" d="M177.828,5c-15.657,8.796-28.038,22.201-38.933,36.255c-15.331,19.778-29.425,40.516-41.453,62.475
	C89.744,117.786,71.676,147.845,71,147c-2.21-2.763-21.247-26.103-36-43C23.052,90.315,14.601,82.243,14.737,81.797
	C11.114,93.698,6.869,105.486,5,117.845c-0.558,3.69,33.301,33.276,44.044,45.557c9.299,10.631,18.817,21.083,27.99,31.823
	c0.039,0.045,0.684,0.734,0.653,0.775c8.193-10.707,88.428-115.838,104.897-129.109c4.642-3.741,9.171-7.595,13.416-11.732
	C193,48,182,15,177.828,5z"/>
<path d="M77.683,201c-1.058,0-2.125-0.335-3.03-1.026c-0.421-0.322-0.776-0.697-1.064-1.108c-0.065-0.072-0.131-0.143-0.173-0.188
	c-0.105-0.115-0.176-0.196-0.194-0.219c-5.584-6.537-11.421-13.106-17.065-19.46c-3.636-4.093-7.271-8.185-10.875-12.304
	c-4.22-4.824-12.433-12.702-20.376-20.32C2.205,124.602-0.582,121.318,0.056,117.098c1.545-10.213,4.641-20.019,7.634-29.5
	c0.764-2.418,1.526-4.835,2.264-7.257c0.803-2.64,3.594-4.133,6.234-3.329c1.257,0.381,2.254,1.213,2.867,2.265
	c0.545,0.625,1.941,2.093,3.298,3.519c3.521,3.701,9.412,9.896,16.414,17.915c11.356,13.007,25.207,29.782,32.037,38.127
	c5.538-8.619,16.454-26.921,22.255-37.51c11.432-20.872,25.132-41.524,41.885-63.136c9.484-12.235,22.651-27.559,40.436-37.551
	c1.244-0.7,2.727-0.834,4.078-0.368c1.35,0.465,2.436,1.484,2.985,2.802c2.302,5.516,6.45,17.348,10.462,28.791
	c3.281,9.355,6.38,18.193,7.707,21.361c0.794,1.894,0.349,4.081-1.122,5.514c-3.838,3.74-8.213,7.567-13.768,12.044
	c-9.746,7.854-48.348,55.406-103.261,127.204l-0.804,1.051C80.673,200.325,79.187,201,77.683,201z M73.704,192.977
	c-1.404,1.849-1.217,4.136-0.31,5.591C72.378,196.868,72.434,194.65,73.704,192.977z M73.709,192.97
	c-0.001,0.002-0.003,0.004-0.005,0.006C73.706,192.974,73.708,192.972,73.709,192.97z M10.162,117.221
	c2.628,3.677,13.544,14.147,21.665,21.937c8.098,7.767,16.472,15.799,20.98,20.953c3.586,4.1,7.205,8.173,10.823,12.247
	c4.557,5.129,9.238,10.398,13.835,15.704c33.395-43.597,88.042-113.831,101.98-125.063c4.173-3.363,7.633-6.326,10.675-9.149
	c-1.618-4.316-3.997-11.101-6.653-18.675c-2.784-7.941-5.842-16.662-8.135-22.804c-13.804,9.064-24.508,21.657-32.485,31.949
	c-16.427,21.19-29.844,41.41-41.019,61.813c-3.657,6.675-9.968,17.519-15.705,26.983c-11.268,18.588-11.784,18.633-14.646,18.883
	c-1.675,0.141-3.338-0.57-4.382-1.875c-1.713-2.141-20.949-25.755-35.862-42.835c-5.779-6.62-10.806-11.99-14.318-15.697
	C14.275,99.959,11.604,108.578,10.162,117.221z M19.526,83.231c0,0-0.001,0.001-0.001,0.002
	C19.525,83.233,19.526,83.232,19.526,83.231z"/>
</svg>
