<?xml version="1.0" encoding="iso-8859-1"?>
<!-- Generator: Adobe Illustrator 22.1.0, SVG Export Plug-In . SVG Version: 6.00 Build 0)  -->
<svg version="1.1" id="Layer_1" xmlns="http://www.w3.org/2000/svg" xmlns:xlink="http://www.w3.org/1999/xlink" x="0px" y="0px"
	 viewBox="0 0 201 201" style="enable-background:new 0 0 201 201;" xml:space="preserve">
<path style="fill:#D6E5E5;" d="M93.371,5.797c-17.265,2.014-34.214,7.8-47.565,16.821C29.278,33.787,16.013,50.585,9.46,70
	c-4.113,12.184-5.583,25.398-3.558,38.899c0.332,2.215,0.753,4.415,1.254,6.593c2.85,12.397,8.25,26.16,15.508,38.509
	C30.58,167.47,39.56,177.497,51,184c0.615,0.35,2.379,2.452,3,2.782c29.395,15.652,65.039,9.971,93.069-6.54
	c0.689-0.406,1.378-0.82,2.067-1.242c11.765-7.213,23.241-16.747,30.822-28.94c1.063-1.71,2.078-3.464,3.044-5.257
	c13.454-24.985,17.273-57.556,7.623-84.97C185.995,46.686,178.945,37.647,169,29c-0.784-0.682-2.591-3.348-3.398-4
	c-3.057-2.47-6.272-4.725-9.602-6.757c-4.839-2.952-9.923-5.434-15.125-7.421C126.662,5.391,109.872,3.872,93.371,5.797z"/>
<path style="fill:#EF4823;" d="M51,98c0,10.219,0.739,9.862,2,20c8.157-2.033,11.336-1.421,19.732-1.604
	c39.333-0.86,37.935-1.536,77.268-2.396c0.09-15.76-1.09-13.24-1-29c-11.73-2.884-28-3-41-3c-30,0-56,4-59,4C49,86,51,90,51,98z"/>
<path d="M92.375,201.043c-14.456,0.001-28.353-3.26-40.725-9.847c-0.955-0.508-1.675-1.223-2.771-2.346
	c-0.209-0.214-0.501-0.514-0.691-0.698c-11.606-6.688-21.096-16.747-29.835-31.619c-7.3-12.421-13.008-26.599-16.071-39.921
	c-0.531-2.311-0.978-4.656-1.325-6.97c-2.073-13.825-0.806-27.7,3.766-41.241c6.783-20.096,20.38-37.827,38.283-49.925
	C56.658,9.25,74.339,2.983,92.792,0.831c18.014-2.101,35.259-0.262,49.867,5.319c5.541,2.117,10.905,4.749,15.945,7.823
	c3.546,2.165,6.958,4.565,10.141,7.137c0.809,0.653,1.517,1.534,2.588,2.906c0.329,0.422,0.817,1.048,1.032,1.284
	c11.526,10.04,18.399,19.876,22.975,32.873c9.75,27.698,6.709,61.801-7.937,89.001c-1.018,1.888-2.094,3.748-3.2,5.527
	c-7.11,11.435-18.029,21.718-32.454,30.562c-0.714,0.438-1.428,0.866-2.143,1.287C131.025,195.496,111.226,201.042,92.375,201.043z
	 M56.738,182.574c25.355,13.296,58.138,10.828,87.792-6.64c0.664-0.392,1.329-0.79,1.993-1.197
	c13.085-8.023,22.906-17.214,29.188-27.317c0.998-1.604,1.97-3.282,2.888-4.988c13.353-24.798,16.153-55.812,7.308-80.939
	c-3.971-11.281-10.008-19.87-20.187-28.72c-0.74-0.643-1.449-1.552-2.271-2.604c-0.33-0.422-0.866-1.109-1.112-1.379
	c-2.807-2.259-5.814-4.371-8.941-6.279c-4.52-2.757-9.333-5.119-14.305-7.018c-12.924-4.938-28.955-6.617-45.141-4.729l0,0
	c-16.891,1.971-32.995,7.652-45.345,15.998c-16.102,10.88-28.32,26.804-34.408,44.838c-4.059,12.021-5.186,24.321-3.352,36.558
	c0.31,2.06,0.708,4.151,1.183,6.213c2.841,12.356,8.148,25.531,14.946,37.097c7.901,13.445,16.321,22.402,26.496,28.187
	c0.872,0.495,1.544,1.164,2.568,2.215C56.237,182.071,56.535,182.376,56.738,182.574z M48.475,188.316
	c0.02,0.011,0.038,0.021,0.055,0.031C48.511,188.336,48.493,188.326,48.475,188.316z M172.28,25.226
	c0.005,0.004,0.009,0.007,0.014,0.012C172.289,25.234,172.285,25.23,172.28,25.226z"/>
<path d="M53,123c-1.001,0-1.988-0.3-2.829-0.877c-1.18-0.81-1.956-2.086-2.133-3.505c-0.397-3.198-0.748-5.357-1.029-7.091
	C46.38,107.647,46,105.306,46,98c0-6.492-1.491-9.801-1.506-9.833c-0.775-1.55-0.676-3.356,0.235-4.83S47.268,81,49,81
	c0.539-0.011,2.971-0.285,5.321-0.55C64.256,79.33,84.927,77,108,77c14.879,0,30.394,0.243,42.194,3.145
	c2.245,0.552,3.818,2.572,3.806,4.884c-0.044,7.661,0.212,10.77,0.483,14.062c0.276,3.362,0.562,6.839,0.517,14.938
	c-0.016,2.708-2.184,4.911-4.891,4.971c-19.62,0.429-29.238,0.818-38.541,1.195c-9.348,0.378-19.014,0.77-38.728,1.201
	c-1.983,0.043-3.68,0.046-5.227,0.043c-4.865-0.006-7.732-0.001-13.405,1.414C53.811,122.951,53.404,123,53,123z M55.391,90.393
	C55.742,92.456,56,94.994,56,98c0,6.5,0.294,8.313,0.88,11.925c0.104,0.637,0.216,1.329,0.336,2.105
	c3.807-0.593,6.762-0.589,10.399-0.592c1.474,0.001,3.106,0.001,5.007-0.041c19.621-0.429,29.24-0.818,38.542-1.195
	c8.537-0.346,17.341-0.702,33.818-1.09c-0.064-4.328-0.261-6.713-0.466-9.202c-0.225-2.735-0.456-5.545-0.51-10.859
	C132.714,87,118.055,87,108,87c-22.512,0-42.806,2.288-52.559,3.387C55.425,90.389,55.408,90.391,55.391,90.393z"/>
</svg>
