<?xml version="1.0" encoding="iso-8859-1"?>
<!-- Generator: Adobe Illustrator 22.1.0, SVG Export Plug-In . SVG Version: 6.00 Build 0)  -->
<svg version="1.1" id="Layer_1" xmlns="http://www.w3.org/2000/svg" xmlns:xlink="http://www.w3.org/1999/xlink" x="0px" y="0px"
	 viewBox="0 0 190 208" style="enable-background:new 0 0 190 208;" xml:space="preserve">
<path style="fill:#F6851F;" d="M108,19.018c0-7.71-6.343-13.969-14.185-14C91.311,5.009,89.06,5,87.66,5
	c-1.289,0-2.545,0.016-3.757,0.044c-8.068,0.187-14.364,6.927-13.877,14.848c0.122,1.976,0.242,3.535,0.344,4.108
	c0.635,0.407,18.847,1.047,27.034,0.996c2.729,0,7.866-0.843,10.595-0.996V19.018z"/>
<path style="fill:#F6851F;" d="M74,189c1.261,8.723,13.639,15.41,24.074,13.666C102.088,201.89,116,198,116,189"/>
<path style="fill:#FEBF10;" d="M185,171c0,3-1,9-10.786,10.986c-26.33,5.343-52.622,4.04-77.214,4.014
	c-24.983-0.026-52,0-79.834-3.321C14.276,182.334,7,180,5.503,173.385c-0.694-3.066,1.46-6.079,3.101-8.757
	C17.153,150.673,22,143,24.16,115.727c1.298-16.382,1.996-29.887,5.229-45.991c2.074-10.328,5.544-20.743,12.576-28.495
	c10.014-11.039,25.567-14.905,40.309-15.945c17.313-1.22,35.77,1.081,49.622,11.699c10.519,8.063,17.407,20.24,21.449,32.98
	c5.087,16.034,7.48,29.576,9.117,46.223C165,142,171,154,179.752,161.665C180.274,162.123,185,167,185,171z"/>
<path style="fill:#F6851F;" d="M185,171c0,3-1,9-10.79,10.99c-26.33,5.34-52.62,4.04-77.21,4.01c-24.98-0.03-52,0-79.83-3.32
	C14.28,182.33,7,180,5.5,173.39c-0.69-3.07,1.46-6.08,3.1-8.76c1.03-1.69,2.01-3.28,2.94-4.83c2.14,1.16,4.33,1.72,5.63,1.88
	C45,165,72.02,164.97,97,165c24.59,0.03,50.88,1.33,77.21-4.01c1.39-0.29,2.61-0.65,3.67-1.07c0.61,0.61,1.23,1.19,1.87,1.75
	C180.27,162.12,185,167,185,171z"/>
<path d="M183.046,157.904c-6.199-5.431-12.902-14.69-15.607-42.197c-1.807-18.372-4.51-32.06-9.327-47.245
	c-4.847-15.277-12.859-27.53-23.173-35.436c-6.233-4.778-13.572-8.234-21.938-10.387v-3.621c0-10.435-8.598-18.958-19.184-19
	C91.312,0.009,89.061,0,87.66,0c-1.328,0-2.624,0.017-3.873,0.045C78.469,0.168,73.569,2.38,69.993,6.273
	c-3.514,3.825-5.274,8.77-4.957,13.927c0.041,0.675,0.082,1.664,0.123,2.684c-11.44,2.879-20.453,7.894-26.897,14.998
	c-6.638,7.317-11.015,17.126-13.775,30.87c-2.84,14.147-3.745,26.064-4.794,39.863c-0.166,2.193-0.336,4.427-0.518,6.718
	c-2.044,25.806-6.233,32.645-14.58,46.268l-0.255,0.416c-0.314,0.513-0.675,1.022-1.035,1.536
	c-1.676,2.394-4.209,6.011-3.183,10.551c1.961,8.667,11.131,12.905,16.45,13.541c17.964,2.143,35.795,2.904,52.706,3.183
	c0.954,4.31,3.756,8.352,8.034,11.477c4.953,3.616,11.315,5.635,17.377,5.635c1.427,0,2.838-0.111,4.208-0.341
	c0.042-0.007,0.083-0.015,0.124-0.022c1.073-0.207,6.689-1.388,11.935-4.279c6.904-3.808,9.265-8.404,9.866-12.143
	c0.433,0.001,0.863,0.005,1.297,0.005c17.325,0,35.074-0.617,53.088-4.272C188.559,184.177,190,174.874,190,171
	C190,164.299,183.117,157.966,183.046,157.904z M75.017,19.584c-0.148-2.417,0.683-4.742,2.341-6.546
	c1.72-1.873,4.086-2.936,6.661-2.996C85.192,10.016,86.41,10,87.66,10c1.392,0,3.628,0.009,6.136,0.019
	c5.075,0.02,9.204,4.057,9.204,9v1.738c-6.519-0.817-13.542-0.98-21.077-0.449c-2.351,0.166-4.626,0.4-6.834,0.695
	C75.065,20.468,75.041,19.973,75.017,19.584z M29.145,116.122c0.183-2.302,0.353-4.547,0.521-6.75
	c1.023-13.471,1.907-25.105,4.627-38.651c2.389-11.897,6.004-20.197,11.377-26.12c7.531-8.302,19.965-13.119,36.957-14.316
	c19.627-1.388,35.18,2.209,46.229,10.679c10.966,8.406,16.779,21.239,19.726,30.524c4.592,14.475,7.173,27.57,8.907,45.2
	c1.794,18.252,5.375,30.978,11.503,40.198c-20.209,3.558-40.437,3.374-60.047,3.193c-4.019-0.037-8-0.074-11.938-0.078l-1.188-0.001
	c-24.672-0.025-50.174-0.057-76.828-3.147C24.153,147.255,27.475,137.2,29.145,116.122z M97.189,197.744
	c-4.553,0.742-10.032-0.636-13.978-3.517c-1.388-1.014-2.463-2.131-3.199-3.278c5.382,0.037,10.653,0.044,15.773,0.05L96.995,191
	c3.91,0.004,7.863,0.041,11.854,0.077c0.481,0.005,0.967,0.008,1.449,0.012C108.207,194.28,101.81,196.84,97.189,197.744z
	 M173.22,177.085c-21.614,4.386-43.307,4.187-64.278,3.992c-4.018-0.037-7.999-0.074-11.937-0.078l-1.209-0.001
	c-25.046-0.025-50.944-0.052-78.037-3.285c-1.479-0.177-6.952-1.983-7.865-5.746c0.108-0.545,1.04-1.875,1.604-2.679
	c0.454-0.649,0.925-1.32,1.371-2.049l0.255-0.416c0.166-0.271,0.329-0.537,0.493-0.805c1.016,0.296,2.021,0.512,2.958,0.624
	c27.687,3.304,55.072,3.331,79.234,3.355L96.995,170c3.911,0.004,7.865,0.041,11.856,0.077c4.396,0.041,8.818,0.082,13.272,0.082
	c17.324,0,35.072-0.618,53.085-4.273c0.469-0.095,0.928-0.202,1.378-0.317c1.517,1.525,3.413,4.362,3.413,5.431
	C180,172.409,180,175.71,173.22,177.085z"/>
</svg>
