<?xml version="1.0" encoding="iso-8859-1"?>
<!-- Generator: Adobe Illustrator 22.1.0, SVG Export Plug-In . SVG Version: 6.00 Build 0)  -->
<svg version="1.1" id="Layer_1" xmlns="http://www.w3.org/2000/svg" xmlns:xlink="http://www.w3.org/1999/xlink" x="0px" y="0px"
	 viewBox="0 0 183 179" style="enable-background:new 0 0 183 179;" xml:space="preserve">
<path style="fill:#3AB37C;" d="M8.65,20.403c1.557-0.73,3.189-0.539,5.35-0.403c41.453,2.611,83.385,1.293,124.852-0.482
	C151.351,18.983,164.503,17.655,177,18c0,5-0.091,41.673,0,45c0.638,23.299,1.252,102.33,1,108c-0.748,0.33-36,1-43,1
	c-28,0-50-1-78-1c-14.512,0-47.172,3.041-48,3c0,0-1-40-1-50c0-30.954-3.559-62.028-3-93C5.066,27.324,4.74,22.236,8.65,20.403z"/>
<path style="fill:#D6E5E5;" d="M8.65,20.403c1.557-0.73,3.189-0.539,5.35-0.403c41.453,2.611,83.385,1.293,124.852-0.482
	C151.351,18.983,164.503,17.655,177,18c0,5-0.091,41.673,0,45c-10,2-114,9-171.34,1.944C5.14,53.623,4.796,42.305,5,31
	C5.066,27.324,4.74,22.236,8.65,20.403z"/>
<path style="fill:#D6E5E5;" d="M38.417,98.567c0.359-0.168,0.734-0.124,1.232-0.093c9.548,0.601,19.206,0.298,28.757-0.111
	c2.879-0.123,5.908-0.429,8.787-0.35c0,1.152-0.021,9.598,0,10.365c0.147,5.366,0.288,23.569,0.23,24.875
	c-0.172,0.076-8.292,0.23-9.904,0.23c-6.449,0-11.516-0.23-17.965-0.23c-3.343,0-10.865,0.7-11.056,0.691
	c0,0-0.23-9.213-0.23-11.516c0-7.13-0.82-14.287-0.691-21.42C37.591,100.16,37.516,98.989,38.417,98.567z"/>
<path style="fill:#D6E5E5;" d="M109.417,98.567c0.359-0.168,0.734-0.124,1.232-0.093c9.548,0.601,19.206,0.298,28.757-0.111
	c2.879-0.123,5.908-0.429,8.787-0.35c0,1.152-0.021,9.598,0,10.365c0.147,5.366,0.288,23.569,0.23,24.875
	c-0.172,0.076-8.292,0.23-9.904,0.23c-6.449,0-11.516-0.23-17.965-0.23c-3.343,0-10.865,0.7-11.056,0.691
	c0,0-0.23-9.213-0.23-11.516c0-7.13-0.82-14.287-0.691-21.42C108.591,100.16,108.516,98.989,109.417,98.567z"/>
<path d="M38.509,138.945c-0.083,0-0.159-0.003-0.254-0.007c-2.616-0.127-4.69-2.251-4.756-4.869
	c-0.01-0.379-0.232-9.302-0.232-11.641c0-3.171-0.168-6.323-0.345-9.66c-0.205-3.857-0.417-7.846-0.345-11.851l0.002-0.182
	c0.029-3.3,1.279-5.553,3.715-6.696l0.001,0c1.493-0.701,2.835-0.611,3.555-0.563l0.113,0.007
	c9.523,0.601,19.167,0.272,28.229-0.116c0.875-0.038,1.766-0.093,2.661-0.148c2.106-0.13,4.29-0.264,6.478-0.204
	c2.707,0.075,4.862,2.291,4.862,4.998l-0.003,1.764c-0.004,2.354-0.014,7.865,0.001,8.463c0.146,5.366,0.295,23.706,0.228,25.232
	c-0.084,1.904-1.243,3.595-2.989,4.36c-0.73,0.32-1.485,0.65-11.91,0.65c-3.274,0-6.228-0.059-9.083-0.116
	c-2.807-0.056-5.708-0.114-8.883-0.114c-2.362,0-7.347,0.409-9.475,0.584C39.059,138.92,38.752,138.945,38.509,138.945z
	 M42.568,103.635c0.031,2.809,0.182,5.642,0.339,8.602c0.177,3.32,0.359,6.753,0.359,10.19c0,1.054,0.052,3.666,0.105,6.122
	c2.193-0.157,4.574-0.297,6.181-0.297c3.274,0,6.228,0.059,9.083,0.116c2.807,0.056,5.708,0.114,8.883,0.114
	c0.827,0,2.906-0.034,4.908-0.076c-0.031-6.028-0.13-16.141-0.232-19.894c-0.012-0.417-0.014-2.271-0.01-5.357
	c-0.236,0.014-0.476,0.029-0.716,0.044c-0.958,0.059-1.911,0.118-2.849,0.158C60.296,103.714,51.48,104.021,42.568,103.635z"/>
<path d="M109.509,138.945c-0.083,0-0.159-0.003-0.254-0.007c-2.616-0.127-4.69-2.251-4.756-4.869
	c-0.01-0.379-0.232-9.302-0.232-11.641c0-3.171-0.168-6.323-0.345-9.66c-0.205-3.857-0.417-7.846-0.345-11.851l0.002-0.182
	c0.029-3.3,1.279-5.553,3.715-6.696l0.001,0c1.493-0.701,2.835-0.611,3.555-0.563l0.113,0.007
	c9.523,0.601,19.167,0.272,28.229-0.116c0.875-0.038,1.766-0.093,2.661-0.148c2.105-0.13,4.289-0.264,6.478-0.204
	c2.707,0.075,4.862,2.291,4.862,4.998l-0.003,1.764c-0.004,2.354-0.014,7.865,0.001,8.463c0.146,5.366,0.295,23.706,0.228,25.232
	c-0.084,1.904-1.243,3.595-2.989,4.36c-0.73,0.32-1.485,0.65-11.91,0.65c-3.274,0-6.228-0.059-9.083-0.116
	c-2.807-0.056-5.708-0.114-8.883-0.114c-2.362,0-7.347,0.409-9.475,0.584C110.059,138.92,109.752,138.945,109.509,138.945z
	 M113.568,103.635c0.031,2.809,0.182,5.642,0.339,8.602c0.177,3.32,0.359,6.753,0.359,10.19c0,1.054,0.052,3.666,0.105,6.122
	c2.193-0.157,4.574-0.297,6.181-0.297c3.274,0,6.228,0.059,9.083,0.116c2.807,0.056,5.708,0.114,8.883,0.114
	c0.827,0,2.906-0.034,4.908-0.076c-0.031-6.028-0.13-16.141-0.232-19.894c-0.012-0.417-0.014-2.271-0.01-5.357
	c-0.236,0.014-0.476,0.029-0.716,0.044c-0.958,0.059-1.911,0.118-2.849,0.158C131.296,103.714,122.481,104.021,113.568,103.635z"/>
<path style="fill:#3AB37C;" d="M130.799,5.04c-0.226,0.202-3.251,29.866-0.926,31.27c1.256,0.758,12.377,0.806,12.718,0.551
	c0.366-0.274,5.746-31.256,5.391-31.319C147.234,5.409,131.017,4.846,130.799,5.04z"/>
<path style="fill:#3AB37C;" d="M48.201,5.04c0.226,0.202,3.251,29.866,0.926,31.27c-1.256,0.758-12.377,0.806-12.718,0.551
	c-0.366-0.274-5.746-31.256-5.391-31.319C31.766,5.409,47.983,4.846,48.201,5.04z"/>
<path d="M182,62.86c-0.07-2.49-0.03-25.09-0.01-37.23C182,21.95,182,19.15,182,18c0-2.71-2.16-4.92-4.86-5
	c-8.332-0.228-16.922,0.265-25.264,0.778c1.313-7.983,1.197-8.473,0.982-9.375c-0.461-1.938-2.041-3.437-4.003-3.784
	c-0.272-0.048-0.996-0.176-9.505-0.447c-10.044-0.322-10.249-0.327-11.886,1.144c-1.501,1.34-1.772,1.599-2.724,13.774
	c-22.906,0.906-46.526,1.573-70.379,1.315c-0.004-0.051-0.008-0.104-0.012-0.155C53.322,2.927,53.083,2.696,51.535,1.315
	c-1.637-1.471-1.84-1.464-11.886-1.144c-8.509,0.271-9.232,0.399-9.508,0.448c-1.961,0.349-3.539,1.846-4,3.784
	c-0.231,0.969-0.347,1.463,1.301,11.289c-4.377-0.191-8.755-0.408-13.132-0.682l-0.54-0.04c-0.73-0.05-1.5-0.1-2.29-0.1
	c-1.56,0-3.23,0.2-4.95,1.01C0.11,18.89,0.04,26.1,0.01,29.97L0,30.91c-0.3,16.8,0.6,33.81,1.48,50.26C2.23,95.24,3,109.79,3,124
	c0,9.95,0.96,48.49,1,50.12c0.07,2.62,2.14,4.75,4.76,4.87C8.85,179,8.92,179,9.02,179c0.42,0,1.26-0.06,5.48-0.41
	C23.94,177.82,46.06,176,57,176c13.95,0,26.63,0.25,38.9,0.5c12.32,0.25,25.05,0.5,39.1,0.5c3.51,0,14.03-0.17,23.95-0.38
	c19.64-0.42,19.92-0.54,21.07-1.04c1.74-0.77,2.89-2.46,2.98-4.36C183.27,165.05,182.62,85.39,182,62.86z M135.207,10.056
	c2.146,0.054,4.802,0.137,7.099,0.22c-0.982,6.135-2.754,16.354-3.773,21.722c-1.466-0.014-3.148-0.059-4.529-0.136
	C133.825,26.826,134.598,16.146,135.207,10.056z M43.793,10.056c0.609,6.09,1.382,16.77,1.204,21.806
	c-1.381,0.077-3.062,0.122-4.529,0.136c-1.02-5.367-2.791-15.587-3.773-21.722C38.991,10.193,41.646,10.109,43.793,10.056z
	 M10,31.09l0.01-1.03c0.01-0.72,0.01-1.92,0.11-2.98c0.1-1.06,0.29-1.98,0.65-2.15c0.1-0.04,0.32-0.06,0.62-0.06
	c0.5,0,1.19,0.05,1.71,0.08l0.59,0.04c5.163,0.323,10.325,0.571,15.483,0.781c2.379,13.69,2.507,13.795,4.237,15.091
	c1.072,0.803,1.77,1.15,5.903,1.15c0.901,0,1.968-0.017,3.236-0.048c6.654-0.167,8.04-0.697,9.16-1.373
	c2.687-1.622,2.986-4.847,3.131-6.396c0.188-2.023,0.19-4.805,0.094-7.784c23.463,0.237,46.666-0.407,69.178-1.293
	c-0.14,3.458-0.168,6.764,0.047,9.077c0.145,1.55,0.444,4.775,3.132,6.396c1.119,0.676,2.505,1.206,9.159,1.373
	c1.269,0.032,2.335,0.048,3.236,0.048c4.134,0,4.831-0.347,5.903-1.15c1.806-1.353,1.865-1.399,4.561-16.961
	c0.329-0.021,0.663-0.04,0.989-0.061c6.9-0.42,13.99-0.86,20.85-0.89v2.66c-0.024,13.532-0.042,27.911-0.017,34.343
	c-7.14,0.031-14.389,0.472-21.446,0.909c-3.93,0.243-7.993,0.494-11.89,0.661c-39.782,1.703-82.151,3.145-124.323,0.487
	l-0.547-0.036c-1.02-0.068-2.106-0.135-3.236-0.069C10.09,51.633,9.814,41.287,10,31.09z M173.05,166.26
	c-9.59,0.32-32.1,0.74-38.05,0.74c-13.95,0-26.63-0.25-38.9-0.5C83.78,166.25,71.05,166,57,166c-11.28,0-32.68,1.75-43.13,2.61
	C13.6,157.41,13,131.65,13,124c0-14.48-0.78-29.16-1.54-43.36c-0.153-2.901-0.306-5.823-0.454-8.753
	c0.462-0.043,1.417,0.02,2.096,0.065l0.584,0.038c17.043,1.073,34.083,1.486,50.963,1.486c25.368,0,50.367-0.934,74.417-1.963
	c3.99-0.171,8.103-0.425,12.079-0.671c6.956-0.43,14.1-0.864,21.012-0.89C172.663,95.398,173.095,149.845,173.05,166.26z"/>
</svg>
