<?xml version="1.0" encoding="iso-8859-1"?>
<!-- Generator: Adobe Illustrator 22.1.0, SVG Export Plug-In . SVG Version: 6.00 Build 0)  -->
<svg version="1.1" id="Layer_1" xmlns="http://www.w3.org/2000/svg" xmlns:xlink="http://www.w3.org/1999/xlink" x="0px" y="0px"
	 viewBox="0 0 201 201" style="enable-background:new 0 0 201 201;" xml:space="preserve">
<path style="fill:#74CCCF;" d="M195.112,90.711c-2.227-16.817-8.601-33.1-18.685-46.402C154.384,15.233,116.685,0.985,81.544,5.983
	c-20.72,2.947-41.099,12.51-55.46,28.679C11.329,51.276,4.692,75.269,5.011,97.643c0.133,9.306,1.502,18.598,4.144,27.488
	c8.276,27.842,28.798,51.341,54.43,62.768c25.632,11.427,55.9,10.676,81.123-1.711c16.473-8.09,30.879-21.074,40.101-37.489
	C194.561,131.342,197.752,110.652,195.112,90.711z"/>
<path d="M102.145,200.982c-13.939,0-27.842-2.831-40.595-8.517c-27.138-12.098-48.517-36.737-57.188-65.91
	c-2.746-9.238-4.21-18.942-4.351-28.842C-0.356,71.93,7.784,47.738,22.346,31.342C36.76,15.112,57.533,4.349,80.84,1.033
	c37.868-5.385,76.951,10.416,99.571,40.255c10.463,13.802,17.26,30.666,19.657,48.767l0,0c2.881,21.757-0.99,43.454-10.899,61.093
	c-9.395,16.722-24.401,30.76-42.257,39.529C132.944,197.536,117.521,200.982,102.145,200.982z M95.678,9.987
	c-4.473,0-8.958,0.311-13.43,0.946c-20.964,2.982-39.583,12.588-52.426,27.049C17.089,52.32,9.683,74.597,10.01,97.572
	c0.129,8.983,1.453,17.776,3.938,26.135c7.85,26.411,27.167,48.701,51.674,59.626c24.145,10.765,52.885,10.153,76.882-1.632
	c16.057-7.886,29.533-20.476,37.946-35.451c8.857-15.765,12.304-35.256,9.704-54.883l0,0c-2.169-16.386-8.294-31.615-17.712-44.038
	C154.646,23.853,125.542,9.987,95.678,9.987z"/>
<path d="M96,34c-2.762,0-5-2.239-5-5V18c0-2.761,2.238-5,5-5s5,2.239,5,5v11C101,31.761,98.762,34,96,34z"/>
<path d="M29.489,109.004c-5.039,0-10.266-1.06-10.494-1.106c-2.705-0.555-4.448-3.197-3.894-5.902
	c0.555-2.704,3.194-4.446,5.899-3.895l0,0c0.047,0.01,4.826,0.977,8.912,0.9c2.754-0.093,5.039,2.151,5.086,4.912
	c0.048,2.761-2.151,5.038-4.912,5.086C29.889,109.003,29.688,109.004,29.489,109.004z"/>
<path d="M171,111c-2.762,0-5-2.239-5-5c0-2.7,2.14-4.9,4.815-4.997c0.245-0.028,0.593-0.089,1.03-0.16
	c2.06-0.334,5.885-0.958,10.284-0.842c2.761,0.072,4.94,2.368,4.868,5.129c-0.07,2.716-2.295,4.87-4.995,4.87
	c-0.045,0-0.089,0-0.133-0.001c-3.46-0.097-6.565,0.414-8.424,0.716C172.35,110.893,171.687,111,171,111z M170.989,101
	c-0.033,0-0.07,0-0.111,0.001C170.919,101,170.959,101,171,101C170.997,101,170.993,101,170.989,101z"/>
<path d="M105,188c-2.762,0-5-2.238-5-5v-8c0-2.761,2.238-5,5-5s5,2.239,5,5v8C110,185.762,107.762,188,105,188z"/>
<path d="M136.997,48c-1.101,0-2.209-0.361-3.133-1.105c-2.15-1.732-2.49-4.879-0.759-7.03c0.413-0.513,0.852-1.044,1.3-1.587
	c1.52-1.841,3.241-3.927,4.219-5.695c1.334-2.416,4.375-3.294,6.794-1.958c2.417,1.335,3.294,4.377,1.958,6.794
	c-1.426,2.581-3.462,5.048-5.259,7.225c-0.422,0.511-0.834,1.01-1.223,1.493C139.907,47.362,138.458,48,136.997,48z"/>
<path d="M162.005,76c-1.661,0-3.286-0.827-4.236-2.337c-1.471-2.337-0.769-5.424,1.568-6.895c0.607-0.383,6.045-3.785,9.676-5.357
	c2.535-1.098,5.479,0.068,6.575,2.602c1.098,2.534-0.067,5.478-2.601,6.575c-2.487,1.077-6.853,3.717-8.324,4.643
	C163.836,75.752,162.915,76,162.005,76z"/>
<path d="M170.001,151.001c-0.524,0-1.058-0.083-1.582-0.258c-3.422-1.141-5.828-2.34-9.192-4.583
	c-2.298-1.532-2.919-4.636-1.387-6.934c1.53-2.298,4.636-2.918,6.934-1.387c2.639,1.759,4.229,2.557,6.808,3.417
	c2.62,0.874,4.035,3.705,3.162,6.325C174.045,149.676,172.094,151.001,170.001,151.001z"/>
<path d="M143,177.001c-2.058,0-3.984-1.279-4.712-3.329c-1.006-2.833-3.143-5.487-3.164-5.514c-1.735-2.142-1.415-5.289,0.722-7.03
	s5.275-1.431,7.021,0.702c0.33,0.403,3.271,4.064,4.845,8.496c0.924,2.603-0.437,5.461-3.039,6.385
	C144.12,176.908,143.555,177.001,143,177.001z"/>
<path d="M66,177c-1.279,0-2.56-0.488-3.535-1.464c-1.946-1.946-1.953-5.097-0.021-7.051c0.353-0.389,1.326-1.825,2.039-2.875
	c0.757-1.117,1.615-2.383,2.486-3.569c1.634-2.228,4.763-2.706,6.989-1.071c2.226,1.634,2.706,4.763,1.071,6.989
	c-0.76,1.036-1.528,2.168-2.271,3.263c-1.467,2.162-2.339,3.428-3.225,4.313C68.56,176.512,67.279,177,66,177z"/>
<path d="M36.005,150.001c-1.699,0-3.354-0.866-4.292-2.429c-1.421-2.368-0.653-5.439,1.715-6.86
	c0.528-0.317,5.226-3.129,7.336-4.185c2.471-1.235,5.474-0.234,6.708,2.236c1.235,2.47,0.234,5.473-2.235,6.708
	c-1.5,0.75-5.319,3.008-6.664,3.815C37.768,149.771,36.88,150.001,36.005,150.001z"/>
<path d="M34.546,74.957c-0.716,0-1.442-0.154-2.132-0.479c-0.896-0.423-1.606-1.077-2.097-1.857
	c-1.432-0.843-4.549-2.243-5.996-2.893l-0.371-0.167c-2.519-1.132-3.643-4.091-2.511-6.61s4.089-3.643,6.61-2.511l0.367,0.165
	c7.047,3.164,9.806,4.619,10.822,7.371c0.502,1.359,0.442,2.821-0.169,4.115C38.217,73.897,36.42,74.957,34.546,74.957z
	 M30.869,72.983h0.011H30.869z M30.009,67.861C30.009,67.861,30.009,67.861,30.009,67.861
	C30.009,67.861,30.009,67.861,30.009,67.861z M30.012,67.854c0,0,0,0.001,0,0.001C30.012,67.854,30.012,67.854,30.012,67.854z
	 M30.016,67.846c0,0.001-0.001,0.002-0.001,0.003C30.015,67.848,30.016,67.847,30.016,67.846z M30.02,67.838
	c-0.001,0.001-0.001,0.002-0.002,0.003C30.019,67.84,30.019,67.839,30.02,67.838z M30.023,67.831
	c-0.001,0.001-0.002,0.003-0.003,0.004C30.021,67.833,30.022,67.832,30.023,67.831z M30.027,67.821
	c-0.001,0.002-0.002,0.005-0.003,0.007C30.025,67.826,30.026,67.823,30.027,67.821z"/>
<path d="M57,48.001c-2.057,0-3.982-1.278-4.711-3.326c-0.859-2.417-2.438-4.753-4.824-7.14c-1.953-1.953-1.953-5.119,0-7.071
	c1.951-1.952,5.119-1.952,7.07,0c3.461,3.46,5.808,7.013,7.176,10.86c0.925,2.602-0.434,5.461-3.036,6.386
	C58.121,47.908,57.556,48.001,57,48.001z"/>
<path style="fill:#BCBCBC;" d="M116.153,95.137c-0.753-2.133-2.011-4.086-3.79-5.632c-4.534-3.936-11.344-4.294-16.918-2.378
	c-6.258,2.151-11.3,7.342-11.441,13.874c-0.16,7.426,6.689,12.367,13.79,13.668c5.43,0.995,11.392-0.219,15.211-4.201
	C116.843,106.466,117.968,100.281,116.153,95.137z"/>
<path d="M128.6,55.73c-2.36-1.44-5.43-0.69-6.87,1.67l-14.698,24.103c-4.149-0.908-8.746-0.639-13.212,0.896
	c-8.823,3.032-14.639,10.292-14.815,18.495c-0.228,10.549,9.113,17.085,17.888,18.694c1.543,0.283,3.076,0.421,4.58,0.421
	c5.913,0,11.364-2.143,15.141-6.08c5.017-5.23,6.727-13.451,4.256-20.456c-1.014-2.874-2.705-5.43-4.892-7.432L130.27,62.6
	C131.71,60.25,130.96,57.17,128.6,55.73z M109.396,107.008c-2.367,2.468-6.467,3.521-10.701,2.744
	c-4.739-0.869-9.794-3.944-9.692-8.643c0.104-4.819,4.41-7.997,8.067-9.253c1.697-0.583,3.423-0.868,5.063-0.868
	c2.724,0,5.214,0.785,6.951,2.293c1.063,0.923,1.855,2.107,2.353,3.519c0.001,0,0.001,0,0.001,0.001
	C112.664,100.278,111.824,104.475,109.396,107.008z"/>
</svg>
