<?xml version="1.0" encoding="iso-8859-1"?>
<!-- Generator: Adobe Illustrator 22.1.0, SVG Export Plug-In . SVG Version: 6.00 Build 0)  -->
<svg version="1.1" id="Layer_1" xmlns="http://www.w3.org/2000/svg" xmlns:xlink="http://www.w3.org/1999/xlink" x="0px" y="0px"
	 viewBox="0 0 210 203" style="enable-background:new 0 0 210 203;" xml:space="preserve">
<path style="fill:#BCBCBC;" d="M94,26c0.299-4.521-3.503-16.784-5-21c-2,0-19.299,2.228-19,4c0.778,4.46,3.862,15.662,5,20"/>
<path style="fill:#BCBCBC;" d="M148,164.606c0.964,4.55,7.733,19.394,12.567,19.394c6.767,0,16.433-9.697,16.433-14.545
	c0-3.879-12.402-15.354-14.5-17.455"/>
<path style="fill:#BCBCBC;" d="M101,174c-0.117,5.151-1.352,17.335-1,22.486c0,1.73,16,2.595,22-0.865
	c0-4.324-1.003-19.905-2-21.622"/>
<path style="fill:#BCBCBC;" d="M57.069,159c-1.928,4.488-8.378,14.657-9.956,19.324c-1.87,5.744,19.989,13.374,20.632,11.34
	c1.402-4.248,6.086-15.476,7.255-19.724"/>
<path style="fill:#BCBCBC;" d="M180,127c4,4,15,4,19,4c3.343-0.481,7.933-17.39,5-21c-1.76-2.166-18.537-2.06-21-2"/>
<path style="fill:#BCBCBC;" d="M115.178,95.137c-0.73-2.133-1.95-4.086-3.676-5.632c-4.396-3.936-11-4.294-16.406-2.378
	c-6.069,2.151-10.958,7.342-11.094,13.874c-0.155,7.426,6.486,12.367,13.372,13.668c5.266,0.995,11.047-0.219,14.75-4.201
	C115.848,106.466,116.939,100.281,115.178,95.137z"/>
<path d="M100.95,120.01c-1.478,0-2.985-0.141-4.503-0.427c-8.555-1.617-17.662-8.154-17.443-18.685
	c0.171-8.184,5.833-15.438,14.423-18.483c7.801-2.765,16.006-1.474,21.411,3.367c2.284,2.044,4.038,4.72,5.071,7.736c0,0,0,0,0,0
	c2.42,7.071,0.802,15.061-4.123,20.356C112.09,117.848,106.749,120.01,100.95,120.01z M101.643,90.999
	c-1.756,0-3.472,0.344-4.875,0.841c-3.519,1.247-7.665,4.422-7.766,9.266c-0.099,4.717,4.753,7.791,9.302,8.65
	c4.015,0.758,7.909-0.273,10.16-2.693c2.372-2.55,3.188-6.789,1.984-10.307v0c-0.486-1.42-1.253-2.606-2.28-3.525
	C106.343,91.598,103.958,90.999,101.643,90.999z"/>
<path style="fill:#BCBCBC;" d="M32.217,126c-4.108,0.661-17.691,4.745-20.429,7.99c-3.309,3.966,4.726,19.461,7.123,20.001
	c1.712,0.361,20.233-10.352,21.089-11.013"/>
<path style="fill:#BCBCBC;" d="M176,72c3.461-1.444,14.419-8.233,17-11c0-5-5-17-11-17c-5,0-15.12,9.894-16,12"/>
<path style="fill:#BCBCBC;" d="M141,36c4-7,6-12,6-20c-4.559-2.483-12-7-18-7c-2.436,4.182-5.25,15.165-5,20"/>
<path style="fill:#BCBCBC;" d="M51,42c-0.762-5.174-15-18-18-18c-1.936,1.504-11,15-11,19s13,12,17,14"/>
<path style="fill:#BCBCBC;" d="M29,80c-4.518-0.842-16.302-4.541-20.821-4c-4.213,0.541-3.486,19.21-2.082,23
	c0.855,2.346,18.378,2.278,20.821,3"/>
<path style="fill:#BCBCBC;" d="M180.29,94.07c-1.79-12.77-6.89-25.13-14.97-35.23c-17.66-22.07-47.85-32.89-76-29.09
	c-16.6,2.23-32.93,9.49-44.43,21.77C33.07,64.13,27.75,82.35,28.01,99.33c0.11,7.07,1.2,14.12,3.32,20.87
	c6.63,21.14,23.07,38.98,43.6,47.65c20.53,8.68,44.78,8.11,64.98-1.3c13.2-6.14,24.74-16,32.13-28.46
	C179.85,124.92,182.4,109.21,180.29,94.07z M149.97,125.98c-4.98,8.34-12.75,14.93-21.63,19.04c-13.6,6.29-29.92,6.67-43.75,0.87
	c-13.82-5.81-24.89-17.74-29.35-31.88c-1.42-4.52-2.16-9.23-2.23-13.96c-0.18-11.36,3.4-23.55,11.36-31.99
	C72.11,59.85,83.1,55,94.28,53.5c18.95-2.54,39.28,4.7,51.16,19.46c5.44,6.76,8.88,15.03,10.08,23.57
	C156.94,106.66,155.22,117.16,149.97,125.98z"/>
<path d="M207.881,106.847c-0.99-1.218-3.225-3.958-20.896-3.903c-0.055-3.238-0.303-6.5-0.753-9.762
	c-0.877-6.365-2.472-12.535-4.725-18.387c5.028-2.793,12.626-7.678,15.15-10.385C197.52,63.484,198,62.266,198,61
	c0-6.72-6.045-22-16-22c-5.203,0-12.336,5.509-16.742,10.071c-5.259-5.527-11.313-10.307-17.929-14.246
	C150.37,28.894,152,23.585,152,16c0-1.831-1-3.515-2.608-4.391c-0.468-0.255-0.967-0.531-1.492-0.822C142.736,7.922,135.664,4,129,4
	c-1.779,0-3.425,0.946-4.321,2.483c-2.242,3.85-4.467,11.485-5.324,17.479c-6.744-1.414-13.678-2.079-20.644-1.939
	c-1.114-7.601-4.952-18.564-4.999-18.697C93.003,1.333,91.116,0,89,0c-1.619,0-6.7,0.66-10.429,1.276
	c-9.406,1.555-11.078,2.771-12.286,4.201c-1.034,1.223-1.477,2.811-1.211,4.382c0.674,3.861,2.856,12.034,4.301,17.441
	c0.028,0.104,0.053,0.199,0.08,0.3c-5.694,2.141-11.049,4.854-15.949,8.096c-1.626-2.453-4.03-5.208-7.212-8.251
	C37.462,19,34.104,19,33,19c-1.111,0-2.19,0.37-3.068,1.052C27.274,22.117,17,36.818,17,43c0,5.837,8.955,12.186,14.818,15.717
	c-2.653,4.726-4.812,9.863-6.416,15.304c-0.249-0.063-0.5-0.127-0.754-0.191c-7.347-1.861-13.268-3.251-17.106-2.789
	c-1.203,0.154-3.464,0.817-5.099,3.519c-3.633,6.006-2.575,22.021-1.044,26.152c1.624,4.455,6.975,4.967,18.925,5.702
	c0.68,0.042,1.411,0.087,2.115,0.134c0.543,5.343,1.591,10.584,3.155,15.646c0.029,0.095,0.062,0.189,0.092,0.284
	c-5.948,1.676-14.682,4.688-17.738,8.309c-2.417,2.896-2.59,7.265-0.527,13.353c0.963,2.844,2.406,5.971,3.959,8.579
	c2.295,3.856,4.158,5.638,6.5,6.166c0.396,0.083,0.771,0.147,1.205,0.147c1.723,0,4.388-1.004,13.095-5.78
	c1.959-1.075,5.133-2.86,7.573-4.283c3.289,4.17,6.967,8.035,10.975,11.529c-0.691,1.28-1.478,2.692-2.255,4.083
	c-2.482,4.444-5.048,9.041-6.115,12.197c-0.521,1.599-0.925,4.8,2.212,8.268c3.854,4.261,16.142,9.937,22.305,9.937
	c0.554,0,1.06-0.047,1.504-0.144c2-0.436,3.545-1.808,4.113-3.606c0.544-1.648,1.679-4.582,2.881-7.687
	c0.95-2.456,1.914-4.948,2.728-7.164c5.674,1.953,11.562,3.28,17.539,3.983c-0.024,0.357-0.049,0.718-0.073,1.081
	c-0.374,5.482-0.796,11.691-0.56,15.31c0.094,1.846,1.149,3.515,2.863,4.505c1.924,1.111,6.198,1.753,10.927,1.753
	c5.669,0,11.993-0.922,15.7-3.059c1.549-0.893,2.503-2.545,2.503-4.332c0-0.135-0.235-9.771-1.097-16.973
	c5.711-1.347,11.289-3.269,16.607-5.78c0.878-0.414,1.746-0.846,2.607-1.29c0.953,2.276,2.132,4.712,3.361,6.889
	c4.058,7.185,7.899,10.532,12.088,10.532c9.014,0,21.433-11.325,21.433-19.545c0-3.792-3.167-8.343-12.24-17.345
	c2.811-3.304,5.327-6.808,7.476-10.484c1.51-2.584,2.847-5.278,4.014-8.06C186.37,135.658,193.166,136,199,136
	c0.238,0,0.477-0.017,0.713-0.051c4.042-0.582,6.16-4.869,7.401-8.043C207.172,127.757,212.864,112.981,207.881,106.847z
	 M181.994,49.011c1.822,0.531,4.824,6.004,5.735,9.951c-2.535,1.927-7.065,4.827-10.401,6.731c-1.685-3.13-3.575-6.135-5.665-8.988
	C174.669,53.343,180.445,49.327,181.994,49.011z M132.009,14.458c3.231,0.869,6.94,2.815,9.88,4.432
	c-0.34,4.186-1.473,7.482-3.429,11.309c-3.046-1.379-6.175-2.595-9.371-3.639C129.451,23.137,130.693,18.031,132.009,14.458z
	 M75.75,11.976c2.775-0.602,6.811-1.234,9.765-1.617c1.312,4.17,2.646,9.116,3.216,12.419c-0.097,0.013-0.195,0.022-0.292,0.035
	c-3.207,0.439-6.35,1.057-9.427,1.82C78.067,21.09,76.677,15.882,75.75,11.976z M27.158,42.551
	c0.875-2.641,4.579-8.749,7.139-12.324c3.826,2.798,9.461,8.663,11.251,11.549c-1.792,1.577-3.503,3.23-5.111,4.971
	c-1.064,1.151-2.07,2.367-3.05,3.612C33.196,47.786,28.583,44.376,27.158,42.551z M10.411,95.479
	c-0.537-3.778-0.615-11.1,0.15-14.458c3.125,0.348,8.477,1.703,11.632,2.502c0.339,0.086,0.656,0.166,0.982,0.248
	c-0.688,4.144-1.073,8.403-1.147,12.729c-0.351-0.022-0.701-0.044-1.09-0.068C18.219,96.265,13.113,95.952,10.411,95.479z
	 M20.265,148.207c-2.052-3.205-4.241-9.07-4.278-11.268c1.917-1.281,8.065-3.754,13.267-5.161c1.404,3.084,2.993,6.081,4.762,8.969
	C30.133,142.993,23.783,146.525,20.265,148.207z M66.048,179.935c-0.62,1.602-1.223,3.16-1.751,4.562
	c-3.817-1.109-9.925-3.816-11.973-5.771c1.062-2.432,3.15-6.171,4.88-9.27c0.528-0.945,1.044-1.87,1.537-2.766
	c3.222,2.191,6.601,4.156,10.11,5.875C68.035,174.801,67.005,177.463,66.048,179.935z M116.903,192.227
	c-3.551,0.834-8.756,0.92-11.949,0.627c0.073-3.136,0.352-7.234,0.59-10.729c0.026-0.385,0.052-0.766,0.078-1.144
	c0.071,0,0.142,0.005,0.212,0.005c3.409,0,6.819-0.206,10.209-0.603C116.406,183.914,116.744,188.69,116.903,192.227z
	 M138.241,163.826c-19.267,9.096-42.343,9.567-61.729,1.26c-19.625-8.41-35.087-25.549-41.364-45.847
	c-1.981-6.411-3.038-13.154-3.141-20.042c-0.261-17.62,5.636-34.691,15.774-45.665c10.275-11.122,25.195-18.513,42.012-20.812
	c3.596-0.492,7.207-0.732,10.803-0.732c23.978,0,47.326,10.682,61.592,28.772c7.517,9.531,12.405,21.214,14.136,33.785c0,0,0,0,0,0
	c2.072,15.038-0.671,29.965-7.724,42.032C161.88,148.08,151.098,157.756,138.241,163.826z M171.912,169.73
	c-0.904,2.803-7.042,8.683-10.807,9.229c-1.822-1.438-5.524-7.706-7.339-12.538c3.194-2.174,6.22-4.555,9.04-7.122
	C169.381,165.846,171.343,168.619,171.912,169.73z M197.078,125.983c-7.714-0.14-11.123-1.118-12.624-1.892
	c0.956-3.618,1.645-7.336,2.062-11.121c4.797,0.023,10.64,0.284,13.452,0.785C200.078,116.809,198.566,123.24,197.078,125.983z"/>
<path d="M105.385,154.988c-7.803,0-15.587-1.493-22.727-4.49c-15.262-6.408-27.293-19.485-32.185-34.983
	c-1.556-4.931-2.386-10.108-2.466-15.389c-0.208-13.759,4.43-26.695,12.726-35.492c8.135-8.625,19.812-14.339,32.882-16.09
	c21.162-2.833,43.036,5.52,55.726,21.284c5.926,7.362,9.776,16.354,11.132,26.005c1.636,11.634-0.571,23.25-6.213,32.708
	c-5.312,8.905-13.772,16.368-23.821,21.016C122.623,153.171,113.991,154.988,105.385,154.988z M101.921,57.992
	c-2.324,0-4.655,0.152-6.979,0.463c-10.804,1.447-20.369,6.078-26.935,13.04c-6.43,6.818-10.169,17.464-10.002,28.479
	c0.065,4.31,0.739,8.525,2.003,12.531c4.019,12.731,13.933,23.487,26.52,28.772c12.469,5.235,27.314,4.937,39.712-0.797
	c8.239-3.811,15.14-9.87,19.431-17.062c4.478-7.506,6.218-16.808,4.898-26.192l0,0c-1.106-7.865-4.225-15.17-9.02-21.127
	C132.385,64.713,117.363,57.992,101.921,57.992z"/>
</svg>
