<?xml version="1.0" encoding="iso-8859-1"?>
<!-- Generator: Adobe Illustrator 22.1.0, SVG Export Plug-In . SVG Version: 6.00 Build 0)  -->
<svg version="1.1" id="Layer_1" xmlns="http://www.w3.org/2000/svg" xmlns:xlink="http://www.w3.org/1999/xlink" x="0px" y="0px"
	 viewBox="0 0 139 185" style="enable-background:new 0 0 139 185;" xml:space="preserve">
<path style="fill:#74CCCF;" d="M120.566,164c-1.089-18.771-10.667-35.992-21.255-51.626c-2.061-3.044-4.196-6.087-6.946-8.545
	c-3.416-3.054-8.103-5.812-8.355-10.353c-0.176-3.182,2.017-5.985,4.273-8.266c7.618-7.706,17.427-13.455,23.311-22.52
	c1.98-3.05,3.453-6.395,4.685-9.806c3.674-10.18,5.24-21.097,4.572-31.883L16,23c0.061,8.954,2.683,16.656,5.281,25.205
	c1.223,4.024,2.463,8.089,4.549,11.72c2.059,3.584,4.88,6.637,7.764,9.561c5.504,5.582,11.332,10.827,17.443,15.698
	c2.848,2.27,6.111,5.74,4.564,9.082c-0.285,0.616-0.717,1.146-1.152,1.663c-9.985,11.864-24.074,20.939-29.252,35.685
	c-1.513,4.309-2.159,8.88-2.69,13.427c-0.852,7.293-1.428,14.62-1.727,21.959L120.566,164z"/>
<path style="fill:#127274;" d="M25.726,5.02c24.875,0.024,49.75,0.047,74.625,0.071c5.1,0.005,10.209,0.007,15.296,0.521
	c3.535,0.357,7.441,0.592,10.8,2.103c2.734,1.23,5.832,4.297,5.533,8.267c-0.478,6.365-6.624,8.757-10.864,9.792
	c-12.731,3.106-25.843,2.076-38.744,2.013c-16.361-0.08-32.721-0.21-49.08-0.327c-6.205-0.044-12.548-0.067-18.487-2.581
	c-4.85-2.054-11.418-7.203-9.446-14.74c1.466-5.603,7.605-5.13,11.393-5.127C19.744,5.014,22.735,5.017,25.726,5.02z"/>
<path style="fill:#127274;" d="M27.726,157.02c24.875,0.024,49.75,0.047,74.625,0.071c5.1,0.005,10.209,0.007,15.296,0.521
	c3.535,0.357,7.441,0.592,10.8,2.103c2.734,1.23,5.832,4.297,5.533,8.267c-0.478,6.365-6.624,8.757-10.864,9.792
	c-12.731,3.106-25.843,2.076-38.744,2.013c-16.361-0.08-32.721-0.21-49.08-0.327c-6.205-0.044-12.548-0.067-18.487-2.581
	c-4.85-2.054-11.418-7.203-9.446-14.74c1.466-5.603,7.605-5.13,11.393-5.127C21.744,157.014,24.735,157.017,27.726,157.02z"/>
<path d="M130.498,155.155c-2.088-0.939-4.242-1.468-6.348-1.816c-3.433-16.483-12.187-31.205-20.699-43.769
	c-2.29-3.39-4.61-6.66-7.75-9.47c-0.76-0.68-1.55-1.32-2.3-1.94c-2.13-1.73-4.32-3.52-4.4-4.96c-0.04-0.69,0.42-2.03,2.84-4.48
	c2.6-2.63,5.49-5.03,8.55-7.57c5.53-4.59,11.25-9.34,15.4-15.74c1.97-3.04,3.62-6.48,5.19-10.83
	c2.892-7.993,4.541-16.523,4.916-25.057c8.926-3.379,10.797-9.541,11.07-13.167c0.472-6.276-3.913-11.153-8.468-13.201
	c-3.753-1.688-7.728-2.071-11.233-2.409l-1.115-0.109c-5.306-0.536-10.593-0.541-15.793-0.546L25.73,0.02l-9.751-0.014
	C12.062-0.033,2.873-0.112,0.522,8.872c-2.346,8.966,3.558,16.27,10.845,19.923c0.745,6.509,2.549,12.444,4.453,18.635l0.68,2.23
	c1.28,4.23,2.61,8.61,4.99,12.76c2.44,4.24,5.69,7.68,8.54,10.58c5.63,5.7,11.65,11.12,17.89,16.09c2.13,1.7,2.81,2.82,3.01,3.25
	c-0.11,0.14-0.24,0.29-0.31,0.37c-3.04,3.62-6.47,6.95-10.11,10.48c-7.93,7.69-16.12,15.64-20.03,26.77
	c-1.72,4.9-2.42,10.06-2.94,14.5c-0.289,2.505-0.538,5.022-0.767,7.544c-4.343,0.028-12.114,0.703-14.25,8.868
	c-2.504,9.569,4.39,17.247,12.333,20.61c6.803,2.881,13.938,2.931,20.235,2.976l10.125,0.073
	c13.043,0.096,26.088,0.191,39.132,0.255c2.416,0.012,4.839,0.058,7.265,0.104c2.86,0.055,5.745,0.109,8.649,0.109
	c7.943,0,16.017-0.411,24.039-2.369c12.048-2.938,14.36-10.205,14.666-14.274C139.438,162.08,135.053,157.203,130.498,155.155z
	 M10.197,11.403c0.25-0.957,1.071-1.4,5.134-1.4c0.18,0,0.366,0.001,0.559,0.002l9.831,0.015l74.712,0.071
	c5.092,0.005,9.902,0.01,14.71,0.495l1.161,0.113c2.872,0.277,5.84,0.563,8.091,1.576c1.144,0.514,2.707,1.888,2.598,3.332
	c-0.068,0.903-0.274,3.652-7.063,5.309c-9.692,2.364-19.619,2.175-30.128,1.977c-2.474-0.048-4.944-0.095-7.407-0.106
	c-13.036-0.063-26.072-0.159-39.107-0.255l-10.128-0.073c-5.882-0.042-11.438-0.081-16.406-2.185
	C15.937,19.927,8.801,16.735,10.197,11.403z M29.92,133.27c3.12-8.9,10.13-15.7,17.55-22.91c3.66-3.54,7.44-7.21,10.81-11.21
	c0.62-0.74,1.32-1.62,1.86-2.78c1.3-2.82,2.26-8.53-5.99-15.1c-5.93-4.73-11.65-9.87-17-15.29c-2.41-2.45-5.14-5.33-6.98-8.55
	c-1.82-3.15-2.98-6.98-4.1-10.68l-0.69-2.25c-0.936-3.056-1.824-7.844-2.551-12.508c3.536,0.415,7.011,0.442,10.261,0.466
	l10.125,0.073c13.043,0.096,26.088,0.191,39.132,0.255c2.416,0.012,4.839,0.058,7.265,0.104C92.473,32.945,95.357,33,98.261,33
	c5.778,0,11.625-0.226,17.471-1.098c-0.538,6.579-1.929,13.105-4.163,19.288c-1.3,3.6-2.62,6.39-4.17,8.78
	c-3.32,5.12-8.22,9.18-13.4,13.49c-3.11,2.58-6.32,5.25-9.27,8.23c-2.6,2.63-6.01,6.73-5.71,12.06c0.32,5.85,4.61,9.35,8.05,12.16
	c0.67,0.55,1.34,1.09,1.96,1.65c2.29,2.04,4.21,4.77,6.14,7.62c6.733,9.945,13.64,23.736,17.475,37.084
	c-3.453-0.151-6.891-0.17-10.29-0.173L27.73,152.02l-0.849-0.001c0.18-2.331,0.377-4.549,0.588-6.398
	C27.95,141.53,28.53,137.21,29.92,133.27z M121.931,172.916c-9.693,2.364-19.62,2.174-30.128,1.977
	c-2.474-0.048-4.944-0.095-7.407-0.106c-13.036-0.063-26.072-0.159-39.107-0.255l-10.128-0.073
	c-5.882-0.042-11.438-0.081-16.406-2.185c-0.818-0.347-7.953-3.538-6.558-8.87c0.25-0.957,1.071-1.4,5.134-1.4
	c0.18,0,0.366,0.001,0.559,0.002l9.831,0.015l74.712,0.071c5.092,0.005,9.902,0.01,14.71,0.495l1.161,0.113
	c2.872,0.277,5.84,0.563,8.091,1.576c1.144,0.514,2.707,1.888,2.598,3.332C128.926,168.511,128.72,171.26,121.931,172.916z"/>
<path style="fill:#FEBF10;" d="M47,52c1,6,6.604,11.639,10.652,15.576c3.534,3.437,7.067,6.875,10.601,10.312
	c0.448,0.435,0.913,0.882,1.458,1.043c1.233,0.366,2.396-0.796,3.345-1.88c5.694-6.503,11.388-13.006,17.082-19.509
	C91.591,55.883,93.191,54.5,93,52c-9,1-14.127-1.234-24,0C61,53,47,52,47,52z"/>
<path style="fill:#FEBF10;" d="M42,152c5.703-14.561,14.661-28.819,25.679-40c7.081,4.899,14.109,10.003,19.885,16.361
	C93.34,134.718,97.833,143.529,99,152H42z"/>
</svg>
