<?xml version="1.0" encoding="iso-8859-1"?>
<!-- Generator: Adobe Illustrator 22.1.0, SVG Export Plug-In . SVG Version: 6.00 Build 0)  -->
<svg version="1.1" id="Layer_1" xmlns="http://www.w3.org/2000/svg" xmlns:xlink="http://www.w3.org/1999/xlink" x="0px" y="0px"
	 viewBox="0 0 109 206" style="enable-background:new 0 0 109 206;" xml:space="preserve">
<path style="fill:#BCBCBC;" d="M54,5C16,5,5,35,5,54c0,29,29.53,39.786,30,43c0,7,0,89,0,92c0.353,0.588,18.157,11.804,18,12
	c0.314,0.039,1.686,0.118,2,0c1.254-0.431,2.039-1.469,3.019-2.371C59.783,197.022,74,188,74,186c0-3-6.039-6.668-6-10
	c0.039-3.92,6-12,6-13s-6-7-6-9s7-11,7-13s-7-9-7-11c0-1,7-12,7-12V96c2.901-1.607,3.456-2.752,6.357-4.36
	C93.327,85.009,104,67.216,104,54C104,16,73,5,54,5z M53,53c-10,0-15-5-15-14s5.09-13,15-13c11,0,16,6,16,12C69,48,64,53,53,53z"/>
<path d="M54.121,206.071c-0.725,0-1.363-0.062-1.739-0.109c-1.043-0.13-1.998-0.582-2.749-1.266c-1-0.711-4.75-3.142-7.534-4.947
	c-10.606-6.876-10.621-6.9-11.387-8.178C30.246,190.795,30,189.906,30,189V98.989c-0.674-0.484-1.572-1.091-2.354-1.619
	C18.672,91.307,0,78.692,0,54c0-5.957,1.098-21.258,11.268-34.649C17.973,10.523,30.829,0,54,0c5.995,0,21.415,1.095,35.101,11.232
	C98.179,17.957,109,30.834,109,54c0,14.938-11.785,34.571-25.22,42.014c-1.086,0.602-1.705,1.094-2.488,1.718
	c-0.381,0.304-0.801,0.638-1.292,0.998V118c0,0.951-0.271,1.882-0.782,2.684c-2.056,3.232-4.408,7.066-5.655,9.265
	c0.581,0.806,1.343,1.787,1.884,2.481C78.438,136.277,80,138.405,80,141c0,2.352-1.39,4.64-4.282,9.185
	c-0.663,1.042-1.634,2.567-2.268,3.672c0.65,0.906,1.602,2.081,2.201,2.822C77.811,159.346,79,160.816,79,163
	c0,1.709-0.714,2.914-2.28,5.551c-0.914,1.539-3.235,5.451-3.66,7.195c0.371,0.59,1.251,1.589,1.81,2.223
	C76.806,180.166,79,182.655,79,186c0,3.612-2.799,5.953-13.829,13.628c-1.509,1.051-3.388,2.357-3.812,2.722
	c-0.131,0.121-0.301,0.293-0.47,0.462c-0.88,0.88-2.21,2.21-4.262,2.916l0,0C55.847,205.993,54.93,206.071,54.121,206.071z
	 M40,186.433c1.983,1.323,5.183,3.398,7.539,4.926c2.902,1.882,4.964,3.219,6.437,4.225c0.214-0.212,0.431-0.425,0.655-0.632
	c0.765-0.696,2.106-1.637,4.828-3.531c2.03-1.412,6.094-4.24,8.495-6.167c-0.205-0.238-0.409-0.469-0.587-0.671
	c-1.965-2.229-4.41-5.002-4.367-8.64c0.036-3.637,2.34-7.811,5.12-12.494c0.021-0.034,0.041-0.068,0.062-0.103
	c-0.105-0.129-0.207-0.256-0.304-0.375C64.854,159.232,63,156.799,63,154c0-2.352,1.39-4.64,4.282-9.185
	c0.656-1.03,1.613-2.535,2.247-3.636c-0.59-0.829-1.406-1.877-1.976-2.609C64.562,134.723,63,132.595,63,130
	c0-1.428,0-2.388,7-13.453V96c0-1.818,0.987-3.493,2.577-4.374c1.085-0.601,1.704-1.094,2.486-1.717
	c0.916-0.729,2.055-1.636,3.871-2.643C89.248,81.553,99,65.385,99,54c0-34.733-28.286-44-45-44c-34.733,0-44,27.658-44,44
	c0,19.379,15.121,29.596,23.244,35.084c4.043,2.732,6.271,4.237,6.703,7.192C39.982,96.516,40,96.758,40,97V186.433z
	 M69.134,186.789L69.134,186.789L69.134,186.789z M69.679,183.694L69.679,183.694L69.679,183.694z M72.802,152.834L72.802,152.834z
	 M53,58c-12.523,0-20-7.103-20-19c0-6.723,2.598-18,20-18c14.428,0,21,8.812,21,17C74,50.897,66.542,58,53,58z M53,31
	c-9.235,0-10,3.784-10,8c0,7.91,4.806,9,10,9c6.967,0,11-1.636,11-10C64,33.748,59.682,31,53,31z"/>
</svg>
