<?xml version="1.0" encoding="iso-8859-1"?>
<!-- Generator: Adobe Illustrator 22.1.0, SVG Export Plug-In . SVG Version: 6.00 Build 0)  -->
<svg version="1.1" id="Layer_1" xmlns="http://www.w3.org/2000/svg" xmlns:xlink="http://www.w3.org/1999/xlink" x="0px" y="0px"
	 viewBox="0 0 198 203" style="enable-background:new 0 0 198 203;" xml:space="preserve">
<path style="fill:#74CCCF;" d="M180.697,37.775C152.141-2.84,76.999-9.811,53.907,40.34c-13.346,28.985-3.161,64.151,21.334,83.516
	c21.819,17.249,54.166,21.636,80.12,12.463C194.602,122.451,203.358,70.006,180.697,37.775z"/>
<path style="fill:#127274;" d="M67.939,118.546c-2.447-1.351-6.766-0.045-11.275,2.289c-6.51,3.369-13.741,8.792-18.396,13.205
	c-16.722,15.853-38.22,35.985-32.25,52.219c8.381,22.792,29.162,7.176,41.019-3.167c8.302-7.241,15.619-16.166,21.226-25.622
	c3.854-6.499,8.391-14.229,9.512-21.584C78.706,129.78,76.991,123.544,67.939,118.546z"/>
<path d="M184.788,34.898C168.287,11.43,136.468-2.45,105.611,0.351C79.879,2.69,59.378,16.503,49.366,38.249
	c-11.407,24.773-7.142,54.374,9.555,76.113c-1.43,0.526-2.944,1.199-4.555,2.033c-6.358,3.29-14.027,8.792-19.538,14.017
	l-0.558,0.528C16.457,147.825-5.713,168.84,1.326,187.984c2.94,7.997,7.604,12.863,13.862,14.465
	c1.296,0.332,2.803,0.587,4.587,0.587c6.104,0,15.437-2.995,30.55-16.176c8.57-7.476,16.261-16.757,22.24-26.84
	c3.952-6.666,8.871-14.96,10.153-23.381c0.09-0.593,0.158-1.177,0.206-1.754c13.229,7.27,28.817,11.109,44.391,11.109
	c10.134,0,20.26-1.619,29.712-4.959c17.95-6.344,31.238-20.491,37.417-39.834C201.565,78.904,197.865,53.499,184.788,34.898z
	 M17.668,192.761c-1.073-0.275-4.339-1.111-6.956-8.229c-2.008-5.461,0.449-12.046,5.067-18.89
	c5.58,1.552,10.818,3.431,12.448,4.517c2.206,1.471,5.325,5.325,8.137,15.139C28.21,191.334,21.934,193.85,17.668,192.761z
	 M72.833,135.132c-0.99,6.499-5.359,13.867-8.869,19.787c-5.222,8.806-11.875,16.913-19.273,23.55
	c-2.828-8.155-6.425-13.635-10.917-16.629c-2.568-1.712-7.324-3.413-11.396-4.676c5.796-6.666,12.738-13.246,18.774-18.967
	l0.558-0.529c4.004-3.796,10.892-9.1,17.254-12.393c3.645-1.887,5.742-2.28,6.525-2.28c0.07,0,0.13,0.003,0.18,0.009
	C72.982,127.095,73.396,131.428,72.833,135.132z M184.918,98.156c-5.204,16.293-16.292,28.172-31.223,33.448
	c-25.046,8.85-55.327,4.161-75.354-11.671c-23.61-18.665-31.976-51.259-19.893-77.502C70.053,17.23,93.545,11.489,106.517,10.31
	c2.371-0.215,4.742-0.321,7.115-0.321c25.062,0,49.719,11.807,62.975,30.661C187.922,56.744,191.107,78.779,184.918,98.156z"/>
</svg>
