<?xml version="1.0" encoding="iso-8859-1"?>
<!-- Generator: Adobe Illustrator 22.1.0, SVG Export Plug-In . SVG Version: 6.00 Build 0)  -->
<svg version="1.1" id="Layer_1" xmlns="http://www.w3.org/2000/svg" xmlns:xlink="http://www.w3.org/1999/xlink" x="0px" y="0px"
	 viewBox="0 0 184 213" style="enable-background:new 0 0 184 213;" xml:space="preserve">
<path style="fill:#127274;" d="M179.033,40.84c0.266,36.496-4.594,72.723-21.033,106.461C142,180.138,96,208,92,208
	c-5,0-50.732-28.066-71-70.65C9.564,113.322,4.862,79.925,5,53.765c0.016-3.079-0.033-9.953,0-9.951
	C39.045,46.373,71.732,30.753,94,5c7.943,13.879,23.047,26.333,37.85,32.509s31.667,7.334,47.182,3.24
	C179.032,40.779,179.033,40.81,179.033,40.84z"/>
<path d="M92,213c-8.472,0-55.414-31.27-75.515-73.501C4.133,113.547-0.13,78.182,0,53.738c0.008-1.433,0.001-3.691-0.005-5.688
	c-0.018-5.906-0.02-6.389,1.596-7.894c1.021-0.952,2.385-1.432,3.784-1.328c31.01,2.328,62.74-11.537,84.843-37.099
	c1.062-1.228,2.661-1.862,4.265-1.706c1.614,0.156,3.052,1.086,3.857,2.493c7.121,12.444,21.03,24.368,35.435,30.377
	c13.849,5.777,29.468,6.85,43.982,3.021c1.501-0.397,3.098-0.074,4.327,0.874c1.229,0.947,1.948,2.41,1.948,3.961
	c0.001,0.042,0.001,0.013,0.001,0.055c0.315,43.345-6.528,77.881-21.538,108.687c-8.938,18.341-26.084,34.266-38.894,44.396
	C113.564,201.823,97.124,213,92,213z M9.998,49.059c0.005,1.734,0.009,3.524,0.002,4.733c-0.124,23.338,3.887,56.98,15.515,81.41
	c17.996,37.81,58.049,64.712,66.382,67.651c8.061-3.146,47.463-28.71,61.608-57.741c13.607-27.926,20.173-59.244,20.523-98.146
	c-14.782,2.615-30.222,0.95-44.104-4.841c-14.128-5.895-27.876-16.883-36.597-28.97C70.778,36.587,40.345,49.709,9.998,49.059z"/>
</svg>
