<?xml version="1.0" encoding="iso-8859-1"?>
<!-- Generator: Adobe Illustrator 22.1.0, SVG Export Plug-In . SVG Version: 6.00 Build 0)  -->
<svg version="1.1" id="Layer_1" xmlns="http://www.w3.org/2000/svg" xmlns:xlink="http://www.w3.org/1999/xlink" x="0px" y="0px"
	 viewBox="0 0 212.432 183" style="enable-background:new 0 0 212.432 183;" xml:space="preserve">
<path style="fill:#BCBCBC;" d="M55.432,57c50.833,35.366,90.157,56.655,152,59.881c0,0-14,31.119-53,31.119
	c-65.016,0-76-56-84.902-62.36c-4.055-2.897-24.098-16.502-24.098-16.502L55.432,57z"/>
<path d="M211.7,114.276c-0.859-1.409-2.359-2.303-4.007-2.389c-58.373-3.045-95.79-21.857-147.612-57.753
	c0.164-0.912,0.289-1.827,0.329-2.746c0.238-5.453-1.433-11.141-4.704-16.013c-4.294-6.394-10.724-11.428-18.107-14.176
	c-7.957-2.961-16.322-2.92-23.559,0.113C7.977,23.856,3.542,28.755,1.55,35.108c-2.195,7.007-1.122,14.938,2.872,21.217
	c3.062,4.813,7.643,8.978,13.615,12.378c4.712,2.682,10.364,5.512,16.563,6.173c0.761,0.081,1.518,0.122,2.269,0.122
	c2.289,0,4.523-0.378,6.657-1.11c3.942,2.678,19.624,13.338,23.092,15.816c1.104,0.841,3.504,5.336,5.433,8.947
	c4.841,9.065,12.156,22.766,24.812,34.021C112.029,146.161,131.398,153,154.432,153c41.753,0,56.934-32.677,57.56-34.067
	C212.67,117.427,212.56,115.685,211.7,114.276z M35.662,64.933c-4.36-0.465-8.67-2.64-12.677-4.921
	c-4.541-2.584-7.947-5.631-10.125-9.054c-2.396-3.766-3.072-8.693-1.767-12.859c0.774-2.472,2.585-5.79,6.812-7.562
	c10.992-4.606,23.631,1.677,29.498,10.414c2.091,3.113,3.162,6.666,3.017,10.001c-0.134,3.045-1.656,6.251-4.526,9.528
	C42.948,63.845,39.517,65.337,35.662,64.933z M154.432,143c-47.363,0-63.762-30.71-73.56-49.059
	c-3.298-6.176-5.477-10.256-8.436-12.37c-2.912-2.08-13.687-9.424-19.841-13.609c0.278-0.29,0.552-0.587,0.82-0.894
	c1.014-1.159,1.907-2.331,2.703-3.514c48.97,33.748,87.532,53.312,142.764,57.771C192.759,129.663,179.106,143,154.432,143z"/>
<path style="fill:#BCBCBC;" d="M53.466,127.019c0,0,15.403-18.746,17.966-23.019c2.368-3.948,3.376-10.573,4.244-14.997
	C78.136,76.468,91.432,5,156.432,5c29,0,44,20,44,20c-57.949,21.793-97.271,62.913-135,112L53.466,127.019z"/>
<path d="M204.432,22c-0.674-0.898-16.858-22-48-22c-28.597,0-52.015,13.514-67.723,39.079c-12.27,19.97-16.478,41.485-17.86,48.557
	l-0.079,0.405c-0.114,0.58-0.23,1.198-0.352,1.842c-0.705,3.744-1.671,8.872-3.274,11.546c-1.611,2.685-10.366,13.641-16.297,20.897
	c-4.749-0.818-9.445-0.026-13.667,2.383c-5.424,3.09-9.499,7.996-12.77,12.387c-4.138,5.554-6.707,11.265-7.639,16.974
	c-1.236,7.573,0.931,15.497,5.795,21.198C26.824,180.257,32.693,183,39.102,183c0.027,0,0.057,0,0.084,0
	c7.835-0.029,15.534-3.327,21.682-9.285c5.68-5.506,9.604-12.768,11.049-20.45c0.969-5.152,0.555-10.4-1.148-14.993
	C104.395,94.729,143.692,51.68,202.192,29.68c1.474-0.554,2.6-1.769,3.04-3.279C205.672,24.889,205.377,23.259,204.432,22z
	 M62.088,151.416C60.099,161.991,50.975,172.955,39.149,173c-0.017,0-0.032,0-0.048,0c-4.398,0-7.281-2.295-8.927-4.224
	c-2.937-3.44-4.29-8.459-3.533-13.097c0.671-4.111,2.618-8.354,5.789-12.609c2.652-3.562,5.88-7.496,9.701-9.674
	c1.629-0.928,3.347-1.392,5.141-1.392c1.866,0,3.815,0.501,5.834,1.505c3.898,1.938,6.54,4.354,7.852,7.178
	C62.402,143.803,62.804,147.612,62.088,151.416z M64.891,129.529c-1.278-1.186-2.731-2.278-4.339-3.282
	c4.779-5.883,13.169-16.341,15.169-19.674c2.523-4.208,3.634-10.103,4.525-14.839c0.116-0.617,0.228-1.21,0.337-1.767l0.081-0.412
	C86.474,59.844,104.046,10,156.432,10c17.401,0,29.187,7.747,35.24,13.082C135.869,46.155,97.624,87.455,64.891,129.529z"/>
</svg>
