<?xml version="1.0" encoding="iso-8859-1"?>
<!-- Generator: Adobe Illustrator 22.1.0, SVG Export Plug-In . SVG Version: 6.00 Build 0)  -->
<svg version="1.1" id="Layer_1" xmlns="http://www.w3.org/2000/svg" xmlns:xlink="http://www.w3.org/1999/xlink" x="0px" y="0px"
	 viewBox="0 0 205 203" style="enable-background:new 0 0 205 203;" xml:space="preserve">
<path style="fill:#BCBCBC;" d="M8,94c0,0,4-2,9-2c14.616,0,35,6,35,26c0,32-29.91,32.054-32,32c-9.907-0.255-15-2-15-2
	c0.45,12.454,0.482,50.05,3,50c6.874-0.136,50,0,58,0c0,0-3-5-3-16c0-14.322,6.474-29,25-29c19,0,29,7.457,29,25c0,13-3,20-3,20
	c16,0,41,0,45,0c0.825-6.63-1-57-1-62c0,0,4.423,1.179,14,1c8.585-0.16,28,0,28-21c0-18-23.232-20-31-20c-12,0-19,3-19,3
	c-2-7-3-31-3-61c-6,0-37,1-41,1c-4.676,0-11.612,1.047-14.879-3.255C91,36,93.301,29.998,93.112,24.353
	C93,21,92.248,18.005,91.155,15.008C88.929,8.904,80.674,5,74,5c-12,0-17,6-17,15c0,11,9.011,13.895,9,18
	c-0.012,4.626-4.394,6.162-8.487,6.485C51,45,44.54,45,38,45c-9,0-30,0-30,0c-0.948,4.741-1.081,14.256-1,25
	C7.09,81.919,7.474,92.948,8,94z"/>
<path d="M7.965,203c-5.028,0-5.799-5.683-6.13-8.122c-0.32-2.362-0.586-5.632-0.812-9.995c-0.402-7.777-0.598-17.626-0.755-25.541
	c-0.09-4.537-0.168-8.455-0.266-11.163c-0.059-1.645,0.695-3.214,2.018-4.195c1.323-0.981,3.046-1.246,4.6-0.715
	c0.018,0.006,4.664,1.504,13.509,1.732c0.121,0.009,12.092,0.219,19.848-7.341C44.637,133.118,47,126.503,47,118
	c0-7.18-3.114-12.469-9.521-16.171C32.168,98.76,24.703,97,17,97c-3.655,0-6.734,1.458-6.764,1.472
	c-2.471,1.236-5.472,0.233-6.708-2.234c-0.505-1.01-1.351-2.7-1.528-26.2C1.895,55.983,2.212,48.445,3.097,44.02
	C3.564,41.682,5.616,40,8,40h30c6.584,0,12.803,0,19.12-0.499c0.353-0.028,3.136-0.274,3.757-1.152
	c-0.354-0.446-0.956-1.089-1.428-1.593C56.663,33.781,52,28.8,52,20C52,7.477,60.225,0,74,0c8.242,0,18.702,4.659,21.853,13.294
	c1.422,3.899,2.139,7.359,2.257,10.892c0.114,3.405-0.497,6.844-1.184,9.55c1.821,0.473,4.461,0.387,6.564,0.319
	C104.37,34.026,105.215,34,106,34c1.729,0,9.097-0.205,16.897-0.422C132.614,33.307,143.627,33,147,33c2.762,0,5,2.239,5,5
	c0,28.789,0.892,46.168,1.931,54.622C157.518,91.798,162.634,91,169,91c16.607,0,36,6.547,36,25
	c0,13.645-7.215,19.857-13.268,22.666c-6.7,3.109-14.422,3.243-19.035,3.322l-0.604,0.011c-3.656,0.069-6.638-0.052-8.963-0.238
	c0.052,1.883,0.116,4.107,0.186,6.533c0.681,23.78,1.243,45.522,0.646,50.323C163.65,201.121,161.522,203,159,203h-45
	c-1.681,0-3.249-0.844-4.174-2.248c-0.926-1.403-1.084-3.177-0.422-4.722c0.014-0.034,2.596-6.412,2.596-18.03
	c0-14.206-6.953-20-24-20c-18.051,0-20,16.784-20,24c0,9.178,2.309,13.46,2.331,13.503c0.927,1.544,0.93,3.431,0.042,4.998
	C69.485,202.069,67.802,203,66,203c-1.978,0-6.099-0.008-11.288-0.019c-15.518-0.031-41.491-0.084-46.613,0.018
	C8.054,203,8.009,203,7.965,203z M120.578,193h33.63c0.099-9.958-0.548-32.511-0.889-44.419C153.134,142.111,153,137.438,153,136
	c0-1.553,0.722-3.019,1.953-3.965c1.233-0.946,2.839-1.264,4.334-0.867c0.005,0,4.08,0.989,12.619,0.833l0.618-0.011
	C186.759,131.744,195,129.048,195,116c0-3.553-0.981-8.675-9.467-12.117C178.938,101.208,171.211,101,169,101
	c-10.662,0-16.992,2.58-17.056,2.606c-1.314,0.546-2.817,0.511-4.104-0.108c-1.284-0.62-2.257-1.753-2.648-3.125
	c-2.545-8.909-3.106-37.809-3.183-57.295c-4.931,0.108-12.188,0.311-18.834,0.496C114.962,43.802,107.867,44,106,44
	c-0.683,0-1.418,0.025-2.183,0.05c-4.921,0.161-12.361,0.404-16.679-5.28l0.004-0.003c-0.921-1.214-1.344-2.902-0.712-4.771
	c1.157-3.422,1.771-6.875,1.685-9.475c-0.083-2.479-0.595-4.884-1.657-7.8C85.175,13.204,79.237,10,74,10c-10.574,0-12,5.055-12,10
	c0,4.85,2.307,7.313,4.749,9.922c1.997,2.133,4.26,4.55,4.251,8.091c-0.018,6.528-4.912,10.811-13.093,11.457
	C51.197,50,44.488,50,38,50H12.397C11.963,55.366,11.949,63.225,12,69.962c0.058,7.709,0.221,13.597,0.399,17.463
	C13.795,87.171,15.349,87,17,87c19.91,0,40,9.585,40,31c0,11.302-3.379,20.327-10.044,26.822
	c-10.563,10.296-25.419,10.222-27.085,10.177c-3.934-0.102-7.17-0.423-9.705-0.794c0.033,1.536,0.066,3.192,0.101,4.94
	c0.182,9.145,0.531,26.749,1.379,33.819c9.198-0.051,29.905-0.009,43.087,0.018c1.552,0.003,3.008,0.006,4.34,0.008
	C58.468,190.157,58,186.509,58,182c0-6.286,1.127-15.343,6.496-22.794C69.778,151.875,77.906,148,88,148c22.561,0,34,10.093,34,30
	C122,184.299,121.326,189.342,120.578,193z"/>
</svg>
