<?xml version="1.0" encoding="iso-8859-1"?>
<!-- Generator: Adobe Illustrator 22.1.0, SVG Export Plug-In . SVG Version: 6.00 Build 0)  -->
<svg version="1.1" id="Layer_1" xmlns="http://www.w3.org/2000/svg" xmlns:xlink="http://www.w3.org/1999/xlink" x="0px" y="0px"
	 viewBox="0 0 145 219" style="enable-background:new 0 0 145 219;" xml:space="preserve">
<path style="fill:#14B6B9;" d="M106.39,73.99l18.89,10.38c-1.37,2.24-2.71,4.49-3.89,6.8c-5.67,11.13-12.91,20.85-18.06,31.11
	c-6.67,13.33-13.92,24.03-21.68,36.79c-3.04,4.99-6.24,9.89-9.61,14.67c-2.22,3.16-4.34,7.44-7.21,10.33
	c-1.25-9.12-6.89-17.99-13.21-22.4c-7.67-5.36-17.39-7.53-26.89-7.66c-4.67-0.07-12.54,0.99-18.56,3.01
	c3.45-9.66,6.37-14.53,11.86-24.82c14.53-27.25,29.65-54.18,44.81-81.08C75.02,58.12,91.33,66.29,106.39,73.99z"/>
<path style="fill:#FEBF10;" d="M64.83,184.07c-0.51,0.53-1.06,1.01-1.63,1.43c-1.02,0.74-2.05,1.49-3.09,2.24
	c-10.3,7.44-21.92,15.51-33.46,22.18c-2.89,1.67-5.89,3.3-9.18,3.91c-2.11,0.39-4.62,0.2-5.94-1.5c-0.75-0.95-0.96-2.2-1.16-3.39
	c-1.16-7.01-2.31-14.02-3.46-21.04c-0.98-5.94-1.78-17.53-1.9-25.59C5,161.65,5,161.02,5,160.41c0.4-1.2,0.79-2.32,1.17-3.39
	c6.02-2.02,13.89-3.08,18.56-3.01c9.5,0.13,19.22,2.3,26.89,7.66C57.94,166.08,63.58,174.95,64.83,184.07z"/>
<path style="fill:#FEBF10;" d="M134.9,62.18c-0.84,8.21-5.2,14.97-9.37,21.79c-0.08,0.13-0.16,0.26-0.24,0.4l-18.9-10.38
	c-15.06-7.7-31.37-15.87-43.55-22.87c0.16-0.27,0.31-0.54,0.46-0.81c1.34-2.36,2.67-4.73,4.01-7.1c1.78-3.15,3.56-6.31,5.34-9.46
	c0.78-1.38,1.66-2.85,3.12-3.45c1.5-0.62,3.21-0.16,4.76,0.32c9.05,2.82,17.79,6.56,26.64,9.95c0.5,0.19,1,0.39,1.5,0.58
	c8.05,3.12,16.17,6.57,22.66,12.39c1.3,1.17,2.58,2.45,3.2,4.08C135.08,59.06,135.06,60.65,134.9,62.18z"/>
<path style="fill:#EF4754;" d="M82,29.027c2.718-3.562,4.818-7.53,7.446-11.152c2.382-3.282,4.76-7.059,7.842-9.739
	c4.569-3.973,10.677-3.646,16.139-1.903c5.811,1.855,11.371,4.829,16.88,7.398c16.141,7.529,8.489,28.338,2.914,40.239
	c-0.176,0.376-0.354,0.752-0.532,1.128"/>
<path d="M138.497,54.342c6.396-14.185,8.059-25.133,5.057-33.407c-1.924-5.304-5.67-9.286-11.134-11.834
	c-1.271-0.593-2.546-1.208-3.826-1.826c-4.357-2.103-8.862-4.277-13.646-5.804c-8.427-2.692-15.669-1.692-20.94,2.893
	c-2.945,2.561-5.241,5.817-7.267,8.691c-0.45,0.639-0.895,1.271-1.34,1.884c-1.308,1.801-2.469,3.644-3.593,5.425
	c-1.049,1.663-2.065,3.227-3.137,4.716c-1.453-0.168-3.117-0.101-4.809,0.597c-3.127,1.291-4.655,4.002-5.567,5.62l-5.335,9.456
	c-16.396,29.063-33.35,59.115-49.343,89.094c-0.783,1.469-1.514,2.827-2.201,4.104c-4.693,8.72-7.525,13.983-11.158,24.88
	C0.086,159.34,0,159.874,0,160.411c0,7.718,0.811,21.241,1.973,28.306l3.462,21.037c0.24,1.461,0.603,3.669,2.145,5.649
	c1.83,2.351,4.68,3.603,8.05,3.603c0.885,0,1.807-0.087,2.755-0.263c4.066-0.754,7.548-2.633,10.766-4.494
	c12.977-7.504,25.98-16.701,36.991-24.711c3.473-2.53,5.845-6.358,7.938-9.735c0.719-1.159,1.397-2.255,2.053-3.187
	c3.412-4.853,6.706-9.883,9.788-14.951c1.993-3.276,3.952-6.416,5.876-9.499c5.632-9.026,10.952-17.552,16.006-27.648
	c2.47-4.924,5.448-9.731,8.601-14.82c3.2-5.164,6.508-10.503,9.444-16.258c1.331-2.608,2.89-5.147,4.541-7.835
	c4.215-6.865,8.573-13.963,9.49-22.915c0.176-1.717,0.297-4.294-0.671-6.843C139.004,55.312,138.76,54.817,138.497,54.342z
	 M93.493,20.812c0.472-0.65,0.943-1.319,1.42-1.995c1.782-2.527,3.624-5.141,5.655-6.907c2.53-2.2,6.344-2.507,11.337-0.912
	c4.114,1.313,8.297,3.332,12.342,5.284c1.32,0.637,2.634,1.271,3.945,1.882c3.011,1.405,4.961,3.427,5.961,6.183
	c1.837,5.062,0.727,12.594-3.279,22.421c-6.336-4.614-13.505-7.608-20.4-10.279c0,0,0,0-0.001,0l-1.517-0.585
	c-2.354-0.904-4.702-1.832-7.05-2.761c-4.302-1.701-8.71-3.429-13.187-5.028c0.526-0.81,1.041-1.619,1.544-2.416
	C91.351,23.977,92.376,22.35,93.493,20.812z M22.438,134.553c13.68-25.643,28.086-51.375,42.244-76.498
	c4.579,3.027,9.369,5.663,14.225,8.099c-10.751,13.94-19.527,29.305-28.035,44.219c-7.432,13.027-15.117,26.493-23.977,38.695
	c-0.695-0.03-1.394-0.052-2.099-0.062c-3.812-0.051-7.234,0.252-10.332,0.88c1.641-3.547,3.434-6.883,5.756-11.197
	C20.912,137.402,21.649,136.033,22.438,134.553z M24.822,193.095c-3.877-1.424-8.112-1.447-12.017-0.142l-0.965-5.861
	c-0.897-5.453-1.718-16.859-1.826-24.954c3.425-2.189,8.224-3.227,14.64-3.133c6.715,0.095,16.348,1.347,24.107,6.767
	c5.972,4.172,9.79,10.504,10.193,16.625c-7.72,5.6-16.345,11.707-25.175,17.328C31.336,196.679,28.233,194.348,24.822,193.095z
	 M51.345,155.592c-3.94-2.247-8.397-3.934-13.249-5.042c7.864-11.392,14.765-23.482,21.462-35.222
	c8.687-15.227,17.677-30.915,28.611-44.742c1.625,0.748,3.248,1.489,4.862,2.223c1.813,0.824,3.6,1.641,5.374,2.459
	c-2.964,5.436-6.717,11.109-10.649,17.04c-4.997,7.536-10.163,15.328-14.227,23.456c-3.692,7.384-7.369,13.549-10.925,19.511
	C58.706,141.807,54.981,148.059,51.345,155.592z M107.903,104.432c-3.131,5.053-6.368,10.278-9.041,15.607
	c-4.846,9.681-10.045,18.013-15.549,26.835c-1.943,3.114-3.922,6.286-5.935,9.595c-2.969,4.879-6.14,9.723-9.426,14.396
	c-0.399,0.567-0.788,1.159-1.172,1.758c-1.625-3.935-4.092-7.644-7.296-10.858c3.733-7.994,7.622-14.521,11.706-21.367
	c3.65-6.119,7.423-12.445,11.282-20.162c3.791-7.582,8.786-15.115,13.617-22.401c4.167-6.284,8.138-12.292,11.342-18.24
	c3.838,1.94,7.555,4.003,11.148,6.288c-0.563,0.992-1.117,1.992-1.638,3.014C114.193,94.282,110.996,99.442,107.903,104.432z
	 M129.93,61.672c-0.57,5.569-3.157,10.553-6.199,15.636c-8.508-5.376-17.669-9.559-26.561-13.602
	c-9.807-4.459-19.126-8.707-27.562-14.388c0.686-1.216,1.376-2.44,2.06-3.653l5.335-9.457c0.141-0.25,0.458-0.812,0.712-1.17
	c0.443,0.084,1.08,0.283,1.329,0.36c6.445,2.005,12.922,4.566,19.186,7.043c2.379,0.941,4.758,1.881,7.142,2.796l1.492,0.576
	c7.449,2.885,15.216,6.146,21.125,11.451c0.481,0.432,1.607,1.443,1.87,2.135C130.018,59.818,130.042,60.583,129.93,61.672z"/>
</svg>
