<?xml version="1.0" encoding="iso-8859-1"?>
<!-- Generator: Adobe Illustrator 22.1.0, SVG Export Plug-In . SVG Version: 6.00 Build 0)  -->
<svg version="1.1" id="Layer_1" xmlns="http://www.w3.org/2000/svg" xmlns:xlink="http://www.w3.org/1999/xlink" x="0px" y="0px"
	 viewBox="0 0 187 214" style="enable-background:new 0 0 187 214;" xml:space="preserve">
<path style="fill:#FEBF10;" d="M141,45c-4.319-14.634-18-40-51-40c-16.453,0-39,9-49,37c-5.747,16.092-9,47-9,47h22c0,0-4-60,37-60
	c38,0,35,60,35,60h22C148,89,144.494,56.837,141,45z"/>
<path style="fill:#FEBF10;" d="M182,208c-3,0-66.003,0.969-72.217,0.998c-16.492,0.073-41.228-2.099-58.812-2.003
	C42.185,207.044,33.783,207.767,25,208c-2.302,0.061-11.317,0.366-13-1c-1.782-1.446-0.747-8.832-0.749-11.31
	c-0.015-17.431-0.284-34.958-2.807-52.235c-2.408-16.487-2.575-33.317-3.414-49.937c-0.199-3.938,0.506-7.747,4.746-9.048
	c1.661-0.509,3.431-0.51,5.166-0.433C57.659,85.924,96.215,85,139,85c6,0,13.965-1,19-1c6,0,16-1,18.958,4.882
	c1.108,2.203,1.137,4.785,1.072,7.252C177.056,133.152,179.242,171.097,182,208z"/>
<path d="M183.029,96.266c0.078-2.961,0.025-6.392-1.604-9.63c-4.016-7.984-14.352-7.792-21.193-7.664
	C159.445,78.986,158.694,79,158,79c-1.808,0-3.895,0.116-6.115,0.269c-1.325-10.581-3.683-27.516-6.085-35.689
	C142.78,33.36,129.84,0,90,0C71,0,46.91,10.59,36.29,40.32c-3.979,11.131-6.753,28.645-8.172,39.213
	c-4.279-0.138-8.592-0.299-12.955-0.492c-2.15-0.096-4.47-0.082-6.853,0.648c-4.036,1.238-8.748,4.686-8.273,14.081
	c0.194,3.838,0.352,7.688,0.51,11.542c0.523,12.754,1.064,25.943,2.95,38.865c2.516,17.225,2.74,34.895,2.754,51.518
	c0,0.4-0.053,1.215-0.104,2.003c-0.397,6.113-0.437,10.637,2.702,13.185c1.983,1.61,5.125,2.423,16.001,2.124l0.283-0.008
	c3.775-0.101,7.507-0.291,11.117-0.475c5.035-0.258,9.792-0.5,14.75-0.527c8.846-0.041,19.697,0.493,30.199,1.019
	c10.125,0.506,19.708,0.985,27.744,0.985c0.29,0,0.579-0.001,0.865-0.002c3.406-0.016,23.807-0.312,41.807-0.575
	C166.555,213.205,180.668,213,182,213c1.391,0,2.719-0.579,3.665-1.599c0.946-1.02,1.425-2.387,1.321-3.774
	C184.467,173.919,182.027,134.328,183.029,96.266z M45.71,43.68C54.58,18.85,74.4,10,90,10c32.9,0,43.68,27.87,46.2,36.42
	c2.167,7.321,4.384,23.2,5.685,33.511C140.881,79.973,139.909,80,139,80c-2.708,0-5.406,0.004-8.09,0.01c0,0,0,0,0,0
	c-0.6-12.1-3.44-33.17-15.39-45.73C109.03,27.46,100.78,24,91,24c-10.94,0-20.02,3.78-27,11.25
	C52.141,47.919,49.471,68.215,48.98,80.026c-3.584-0.056-7.181-0.125-10.8-0.21C39.591,69.565,42.18,53.559,45.71,43.68z
	 M120.877,80.047c-4.516,0.02-8.993,0.044-13.395,0.069c-16.43,0.091-32.38,0.177-48.477,0.032
	c0.463-10.409,2.743-27.875,12.315-38.088C76.4,36.64,82.84,34,91,34c7.03,0,12.68,2.34,17.27,7.16
	C117.847,51.211,120.298,69.297,120.877,80.047z M151.468,203.424c-17.977,0.263-38.352,0.559-41.707,0.574
	c-7.941,0.027-17.713-0.453-28.064-0.971c-10.179-0.509-20.689-1.034-29.563-1.034c-0.4,0-0.797,0.001-1.19,0.003
	c-5.185,0.028-10.279,0.288-15.205,0.54c-3.549,0.182-7.219,0.368-10.873,0.466l-0.292,0.008c-4.604,0.129-7.185,0.025-8.615-0.11
	c-0.033-1.479,0.099-3.507,0.167-4.553c0.067-1.037,0.125-1.932,0.125-2.662c-0.015-16.988-0.248-35.07-2.859-52.953
	c-1.812-12.406-2.342-25.331-2.854-37.83c-0.16-3.886-0.319-7.767-0.514-11.637c-0.181-3.586,0.628-3.834,1.218-4.016
	c0.932-0.286,2.223-0.274,3.479-0.218c32.139,1.419,61.611,1.255,92.816,1.083C117.743,90.059,128.296,90,139,90
	c3.317,0,7.057-0.278,10.674-0.546C152.813,89.22,155.778,89,158,89c0.752,0,1.565-0.015,2.418-0.031
	c3.804-0.071,10.885-0.203,12.073,2.159c0.587,1.167,0.589,3.048,0.541,4.874c-0.962,36.519,1.199,74.293,3.589,107.061
	C171.011,203.14,161.696,203.275,151.468,203.424z"/>
<path style="fill:#010101;" d="M115.979,172.96c-0.147-3.248-1.976-6.579-3.464-9.194c-2.542-4.468-6.041-8.119-9.754-11.552
	c0.659,0.61,3.863-3.22,4.338-3.73c6.932-7.435,6.264-19.809-0.454-27.143c-1.219-1.331-2.595-2.518-4.084-3.539
	c-5.037-3.453-11.38-4.798-17.229-3.009c-6.519,1.994-11.995,7.739-13.087,14.799c-0.535,3.462-0.059,7.052,1.112,10.326
	c2.114,5.911,5.801,10.82,10.371,14.931c-1.579,3.557-3.938,7.008-5.357,10.639c-0.764,1.956-1.383,4.023-1.325,6.132
	c0.089,3.2,1.841,5.561,4.696,6.661c1.871,0.721,3.814,0.55,5.775,0.575c3.691,0.046,8.118,0.242,11.782,0.598
	c4.13,0.401,8.763,2.799,12.747,0.595C114.574,178.65,116.113,175.922,115.979,172.96z"/>
</svg>
