<?xml version="1.0" encoding="iso-8859-1"?>
<!-- Generator: Adobe Illustrator 22.1.0, SVG Export Plug-In . SVG Version: 6.00 Build 0)  -->
<svg version="1.1" id="Layer_1" xmlns="http://www.w3.org/2000/svg" xmlns:xlink="http://www.w3.org/1999/xlink" x="0px" y="0px"
	 viewBox="0 0 187 214" style="enable-background:new 0 0 187 214;" xml:space="preserve">
<path style="fill:#FEBF10;" d="M141,45c-4.319-14.634-18-40-51-40c-16.453,0-39,9-49,37c-4.428,12.399-7.376,33.594-8.495,42.669
	C32,84,53.872,87.084,53.896,83.936C54.008,69.47,57.328,29,91,29c14.25,0,22.734,8.437,27.773,18.984C123,50,137,49,141,45z"/>
<path style="fill:#FEBF10;" d="M182,208c-3,0-66.003,0.969-72.217,0.998c-16.492,0.073-41.228-2.099-58.812-2.003
	C42.185,207.044,33.783,207.767,25,208c-2.302,0.061-11.317,0.366-13-1c-1.782-1.446-0.747-8.832-0.749-11.31
	c-0.015-17.431-0.284-34.958-2.807-52.235c-2.408-16.487-2.575-33.317-3.414-49.937c-0.199-3.938,0.506-7.747,4.746-9.048
	c1.661-0.509,3.431-0.51,5.166-0.433C57.659,85.924,96.215,85,139,85c6,0,13.965-1,19-1c6,0,16-1,18.958,4.882
	c1.108,2.203,1.137,4.785,1.072,7.252C177.056,133.152,179.242,171.097,182,208z"/>
<path d="M183.028,96.267c0.079-2.961,0.026-6.393-1.604-9.631c-4.016-7.984-14.355-7.795-21.192-7.664
	C159.445,78.986,158.694,79,158,79c-2.593,0-5.737,0.233-9.066,0.481C145.498,79.736,141.946,80,139,80
	c-10.732,0-21.299,0.059-31.518,0.115c-16.435,0.091-32.388,0.177-48.487,0.032C59.686,63.744,64.585,34,91,34
	c10.464,0,18.073,5.279,23.262,16.14c0.493,1.033,1.326,1.865,2.359,2.358c5.813,2.771,22.114,1.839,27.914-3.962
	c1.295-1.295,1.778-3.194,1.261-4.951C142.777,33.36,129.836,0,90,0C70.997,0,46.908,10.592,36.291,40.318
	c-3.902,10.924-6.635,27.809-8.166,39.215c-4.282-0.138-8.596-0.299-12.962-0.492c-2.156-0.097-4.473-0.083-6.853,0.648
	c-4.037,1.238-8.749,4.686-8.273,14.08c0.193,3.837,0.351,7.685,0.509,11.537c0.522,12.756,1.063,25.947,2.951,38.87
	c2.514,17.223,2.739,34.894,2.754,51.517c0,0.4-0.053,1.214-0.104,2.001c-0.398,6.114-0.438,10.639,2.703,13.188
	c1.981,1.609,5.119,2.424,15.989,2.124l0.294-0.008c3.779-0.1,7.516-0.291,11.129-0.476c5.031-0.257,9.783-0.5,14.737-0.527
	c8.852-0.047,19.69,0.494,30.188,1.019c10.127,0.506,19.712,0.985,27.749,0.985c0.292,0,0.583,0,0.87-0.002
	c3.405-0.016,23.807-0.312,41.807-0.575C166.555,213.206,180.668,213,182,213c1.391,0,2.719-0.579,3.665-1.599
	s1.425-2.387,1.321-3.774C184.467,173.922,182.027,134.333,183.028,96.267z M45.71,43.68C54.58,18.85,74.4,10,90,10
	c29.02,0,40.83,21.69,44.95,32.66c-3.5,1.08-9.42,1.77-12.65,1.2C115.41,30.86,104.63,24,91,24c-35.597,0-41.249,38.914-42,56.026
	c-3.591-0.056-7.195-0.125-10.82-0.211C39.563,69.721,42.168,53.606,45.71,43.68z M151.466,203.424
	c-17.976,0.262-38.351,0.559-41.705,0.574c-7.921,0.044-17.719-0.453-28.075-0.971c-10.18-0.509-20.689-1.034-29.563-1.034
	c-0.396,0-0.789,0.001-1.178,0.003c-5.182,0.028-10.271,0.289-15.193,0.54c-3.553,0.182-7.227,0.369-10.884,0.466l-0.303,0.008
	c-4.603,0.126-7.178,0.023-8.606-0.111c-0.032-1.48,0.1-3.508,0.168-4.554c0.067-1.036,0.126-1.93,0.125-2.66
	c-0.016-16.989-0.248-35.072-2.859-52.954c-1.812-12.408-2.342-25.334-2.854-37.834c-0.159-3.884-0.318-7.763-0.514-11.632
	c-0.181-3.586,0.628-3.834,1.22-4.015c0.932-0.285,2.224-0.273,3.479-0.218c7.251,0.32,74.152,1.186,92.815,1.083
	C117.743,90.059,128.296,90,139,90c3.316,0,7.058-0.278,10.675-0.546C152.813,89.22,155.778,89,158,89
	c0.752,0,1.565-0.015,2.419-0.031c3.806-0.07,10.885-0.203,12.072,2.16c0.587,1.167,0.589,3.047,0.541,4.874
	c-0.961,36.524,1.199,74.296,3.59,107.061C171.011,203.14,161.695,203.275,151.466,203.424z"/>
<path style="fill:#010101;" d="M115.979,172.96c-0.147-3.248-1.976-6.579-3.464-9.194c-2.542-4.468-6.041-8.119-9.754-11.552
	c0.659,0.61,3.863-3.22,4.338-3.73c6.932-7.435,6.264-19.809-0.454-27.143c-1.219-1.331-2.595-2.518-4.084-3.539
	c-5.037-3.453-11.38-4.798-17.229-3.009c-6.519,1.994-11.995,7.739-13.087,14.799c-0.535,3.462-0.059,7.052,1.112,10.326
	c2.114,5.911,5.801,10.82,10.371,14.931c-1.579,3.557-3.938,7.008-5.357,10.639c-0.764,1.956-1.383,4.023-1.325,6.132
	c0.089,3.2,1.841,5.561,4.696,6.661c1.871,0.721,3.814,0.55,5.775,0.575c3.691,0.046,8.118,0.242,11.782,0.598
	c4.13,0.401,8.763,2.799,12.747,0.595C114.574,178.65,116.113,175.922,115.979,172.96z"/>
</svg>
