<?xml version="1.0" encoding="iso-8859-1"?>
<!-- Generator: Adobe Illustrator 22.1.0, SVG Export Plug-In . SVG Version: 6.00 Build 0)  -->
<svg version="1.1" id="Layer_1" xmlns="http://www.w3.org/2000/svg" xmlns:xlink="http://www.w3.org/1999/xlink" x="0px" y="0px"
	 viewBox="0 0 218 191" style="enable-background:new 0 0 218 191;" xml:space="preserve">
<path style="fill:#FEBF10;" d="M132.05,21.693c-7.36-7.635-15.761-15.387-26.095-16.542c-16.827-1.88-30.238,14.073-38.777,29.274
	c-10.801,19.228-50.919,94.02-57.694,110.841c-3.283,8.151-6.555,17.558-2.827,25.499c2.783,5.928,8.848,9.401,14.864,11.492
	c24.29,8.442,126.667-0.062,152.483,0.136c8.243,0.063,16.92-0.196,24.017-4.563c12.73-7.835,19.765-20.411,11.242-39.282
	C207.007,133.553,149.799,40.105,132.05,21.693z"/>
<path d="M66.378,190.995c-20.401,0-37.807-0.995-46.498-4.016c-8.828-3.068-14.799-7.809-17.748-14.09
	c-4.551-9.692-0.985-20.305,2.714-29.491c6.842-16.988,46.787-91.51,57.973-111.423C78.841,3.454,95.423-1.054,106.51,0.183
	c12.149,1.356,21.412,10.023,29.14,18.041l0,0c18.342,19.027,76.256,114.028,78.17,118.267c8.543,18.915,3.864,35.108-13.178,45.597
	c-8.158,5.021-17.656,5.366-26.676,5.306c-7.02-0.037-20.264,0.569-35.592,1.292C116.033,189.736,89.313,190.995,66.378,190.995z
	 M103.307,10.004c-14.447,0-26.017,16.629-31.77,26.87c-10.769,19.171-50.843,93.941-57.415,110.261
	c-2.912,7.23-5.781,15.452-2.939,21.505c1.761,3.751,5.792,6.744,11.979,8.895c16.639,5.781,75.676,3.001,114.741,1.161
	c15.475-0.729,28.85-1.359,36.139-1.303c7.877,0.066,15.453-0.187,21.358-3.822c12.739-7.84,15.783-18.623,9.306-32.964
	c-1.866-3.951-58.682-97.212-76.256-115.443c-6.517-6.76-14.21-14.055-23.051-15.043C104.696,10.042,103.998,10.004,103.307,10.004z
	"/>
<path style="fill:#EF4754;" d="M118.94,55.776c-0.019-2.898-0.754-6.222-0.754-6.222s-11.604-0.551-17.226-0.551
	c-5.117,0-11.636-0.177-15.96,2.248c0.144,0.216,9.872,43.336,11.313,66.184c5.405,0.377,12.822,0.565,17.347,0.565
	c2.263-3.394,3.608-10.828,3.752-15.785C117.484,97.204,118.921,61.363,118.94,55.776z"/>
<path d="M113.661,123c-4.688,0-12.272-0.198-17.696-0.577c-2.5-0.175-4.484-2.173-4.642-4.674
	c-1.362-21.586-10.348-62.061-11.112-65.061c-0.251-0.838-0.281-1.736-0.073-2.604c0.325-1.355,1.201-2.513,2.417-3.194
	c5.197-2.914,11.984-2.902,17.438-2.888l0.968,0.001c5.675,0,16.984,0.533,17.462,0.557c2.254,0.106,4.158,1.711,4.645,3.914
	c0.087,0.394,0.851,3.938,0.873,7.27c0,0.017,0,0.033,0,0.05c-0.011,3.236-0.458,15.602-0.89,27.561
	c-0.312,8.643-0.607,16.806-0.638,18.934c-0.123,4.243-1.238,13.458-4.591,18.486C116.894,122.165,115.333,123,113.661,123z
	 M100.949,112.689c3.198,0.147,6.643,0.244,9.579,0.286c0.986-2.851,1.78-7.231,1.886-10.906c0.031-2.163,0.314-10.001,0.642-19.077
	c0.408-11.292,0.871-24.085,0.884-27.205c-0.004-0.461-0.031-0.942-0.073-1.418c-3.855-0.158-9.535-0.366-12.907-0.366l-0.989-0.001
	c-2.912-0.007-6.301-0.014-9.088,0.492c0.181,0.833,0.389,1.8,0.631,2.923c0.849,3.939,2.157,10.173,3.566,17.494
	C97.216,86.005,99.84,100.976,100.949,112.689z"/>
<path d="M113.661,123c-4.688,0-12.272-0.198-17.696-0.577c-2.5-0.175-4.484-2.173-4.642-4.674
	c-1.362-21.585-10.347-62.056-11.112-65.06c-0.3-0.998-0.284-2.078,0.067-3.085c0.517-1.481,1.698-2.634,3.191-3.113
	c5.136-1.651,11.02-2.488,17.49-2.488c5.675,0,16.984,0.533,17.462,0.557c1.888,0.09,3.564,1.236,4.332,2.963
	c0.356,0.803,1.186,3.212,1.186,8.254c0,0.006,0,0.012,0,0.017c-0.011,3.236-0.458,15.602-0.89,27.561
	c-0.312,8.643-0.607,16.806-0.638,18.934c-0.123,4.243-1.238,13.458-4.591,18.486C116.894,122.165,115.333,123,113.661,123z
	 M100.949,112.689c3.198,0.147,6.643,0.244,9.579,0.286c0.986-2.851,1.78-7.231,1.886-10.906c0.031-2.163,0.314-10.001,0.642-19.077
	c0.409-11.311,0.872-24.128,0.884-27.221c0-0.517-0.011-0.982-0.03-1.4c-3.856-0.159-9.565-0.368-12.95-0.368
	c-3.596,0-6.94,0.297-9.993,0.884c0.161,0.74,0.341,1.578,0.546,2.53c0.849,3.939,2.157,10.173,3.566,17.494
	C97.216,86.005,99.84,100.976,100.949,112.689z"/>
<path style="fill:#EF4754;" d="M115.513,146.688c-3.284-10.567-17.998-4.363-21.936,2.131c-3.921,6.465-0.194,13.955,7.416,15.066
	C109.982,165.197,118.096,155.003,115.513,146.688z"/>
<path d="M102.559,168.999c-0.763,0-1.526-0.055-2.288-0.166c-5.315-0.776-9.767-3.952-11.908-8.497
	c-2.117-4.492-1.775-9.635,0.938-14.109c3.438-5.668,12.439-11.094,20.349-10.114c5.161,0.632,9.038,3.946,10.638,9.092
	c0,0.001,0,0.001,0,0.002c1.741,5.604,0.183,12.172-4.064,17.141C112.581,166.609,107.602,168.999,102.559,168.999z
	 M107.747,145.997c-3.494,0-8.353,2.875-9.894,5.415c-0.958,1.579-1.115,3.235-0.443,4.661c0.719,1.526,2.289,2.57,4.307,2.865
	c2.375,0.341,4.957-0.809,6.907-3.09c2.005-2.345,2.835-5.357,2.116-7.676l0,0c-0.501-1.611-1.225-2.003-2.305-2.135
	C108.212,146.011,107.982,145.997,107.747,145.997z"/>
<path d="M102.561,168.971c-0.763,0-1.526-0.055-2.287-0.165c-5.322-0.775-9.776-3.951-11.915-8.496
	c-2.111-4.484-1.766-9.615,0.947-14.079c3.438-5.657,12.438-11.051,20.35-10.09c5.157,0.633,9.032,3.94,10.632,9.075l0,0.001
	c1.739,5.585,0.189,12.134-4.044,17.091C112.598,166.577,107.612,168.971,102.561,168.971z M107.746,146.025
	c-3.496,0-8.355,2.866-9.896,5.4c-0.953,1.567-1.111,3.21-0.445,4.625c0.717,1.522,2.287,2.564,4.309,2.858
	c2.386,0.348,4.973-0.81,6.925-3.096c1.992-2.332,2.816-5.325,2.101-7.624c-0.499-1.601-1.222-1.99-2.302-2.123
	C108.214,146.039,107.983,146.025,107.746,146.025z"/>
</svg>
