<?xml version="1.0" encoding="iso-8859-1"?>
<!-- Generator: Adobe Illustrator 22.1.0, SVG Export Plug-In . SVG Version: 6.00 Build 0)  -->
<svg version="1.1" id="Layer_1" xmlns="http://www.w3.org/2000/svg" xmlns:xlink="http://www.w3.org/1999/xlink" x="0px" y="0px"
	 viewBox="0 0 260 156" style="enable-background:new 0 0 260 156;" xml:space="preserve">
<path style="fill:#74CCCF;" d="M215,79c0-38-34.021-74-63-74c-38,0-47,28-50,41c-3,0-13-15-42-15c-26,0-45,20-45,41c0,19,8,25,8,28
	c0,5.397-18,3-18,12c0,16,21.025,10.711,28.162,15.576C41.655,133.366,52,140,63,140c12,0,18.522-5,28-5
	c5,0,16.385,8.803,26.475,12.322c6.789,2.367,13.302,3.741,20.525,3.678c6.791-0.059,14.626-0.769,20.585-4.346
	C173,138,174.657,125,179,125c4,0,29,13,39,13c33,0,37-23,37-29c0-6.524-7-27-29-27C221,82,215,82,215,79z"/>
<path d="M137.529,156.002c-7.056,0-13.967-1.262-21.7-3.959c-5.111-1.782-10.343-4.708-14.958-7.289
	c-3.522-1.969-8.346-4.667-9.894-4.755c-3.725,0-7.039,0.964-10.876,2.081C75.397,143.449,70.066,145,63,145
	c-12.143,0-23.223-6.861-32.654-13.293c-1.378-0.938-5.025-1.402-8.244-1.811C13.835,128.847,0,127.09,0,112
	c0-8.961,9.062-11.263,14.477-12.638c0.73-0.186,1.642-0.417,2.458-0.654C14.408,94.42,10,86.596,10,72
	c0-11.671,5.212-23.333,14.301-31.994C33.776,30.974,46.455,26,60,26c20.738,0,32.538,7.173,39.026,11.964
	C109.066,6.798,133.021,0,152,0c15.378,0,32.618,9.137,46.117,24.442c13.364,15.153,21.252,34.108,21.847,52.342
	C221.681,77,224.367,77,226,77c25.63,0,34,23.798,34,32c0,11.76-8.778,34-42,34c-6.598,0-16.562-3.918-28.904-9.04
	c-3.237-1.343-7.106-2.949-9.198-3.645c-0.495,0.71-1.12,1.733-1.659,2.614c-2.986,4.882-7.498,12.259-17.08,18.011
	c-7.36,4.42-16.718,5.004-23.115,5.06C137.872,156.001,137.7,156.002,137.529,156.002z M91,130c3.975,0,8.73,2.66,14.752,6.026
	c4.258,2.381,9.083,5.08,13.37,6.574c6.895,2.404,12.724,3.464,18.835,3.399c5.228-0.045,12.787-0.471,18.055-3.633
	c7.478-4.489,11.071-10.365,13.695-14.656c2.426-3.966,4.717-7.711,9.293-7.711c2.349,0,5.327,1.154,13.929,4.724
	C200.87,128.02,212.87,133,218,133c12.469,0,21.536-3.481,26.948-10.346C248.937,117.597,250,111.692,250,109
	c0-2.884-4.474-22-24-22c-5.984,0-16,0-16-8c0-16.502-7.064-33.977-19.383-47.942C178.988,17.872,164.552,10,152,10
	c-24.602,0-39.363,12.144-45.128,37.125C106.349,49.393,104.328,51,102,51c-2.442,0-4.217-1.377-6.673-3.283
	C90.051,43.622,80.229,36,60,36c-19.317,0-40,14.466-40,36c0,12.231,3.589,18.31,5.732,21.941C26.949,96.001,28,97.781,28,100
	c0,6.244-6.394,7.868-11.062,9.054C14.687,109.626,10,110.816,10,112c0,4.789,1.843,6.514,13.361,7.976
	c4.758,0.604,9.252,1.175,12.617,3.469C44.554,129.292,53.703,135,63,135c5.641,0,9.851-1.225,14.309-2.521
	C81.496,131.26,85.827,130,91,130z"/>
</svg>
