<?xml version="1.0" encoding="iso-8859-1"?>
<!-- Generator: Adobe Illustrator 22.1.0, SVG Export Plug-In . SVG Version: 6.00 Build 0)  -->
<svg version="1.1" id="Layer_1" xmlns="http://www.w3.org/2000/svg" xmlns:xlink="http://www.w3.org/1999/xlink" x="0px" y="0px"
	 viewBox="0 0 172 207" style="enable-background:new 0 0 172 207;" xml:space="preserve">
<path style="fill:#FEBF10;" d="M36.187,125C22.602,149.706,17.87,176.958,5,202c7.403-5.867,42-44.984,56-61"/>
<path style="fill:#EF4823;" d="M55.842,53.157c-11.304-4.783-24.36-8.487-36.429-4.403C8.76,52.359,4.406,63.32,5.064,74.007
	c1.008,16.374,12.951,30.572,24.204,41.336c12.957,12.394,27.807,23.956,43.964,31.62c16.133,7.653,36.44,13.611,54.416,7.533
	c16.996-5.746,23.689-34.671,5.6-43.626"/>
<path style="fill:#F6851F;" d="M97.487,21.027c0,0-10.549,9.951-20.261,17.924c-7.861,6.454-15.989,12.605-24.881,17.407
	c-2.716,1.467-5.704,3.076-6.857,6.019c-1.246,3.177,0.1,6.779,1.699,9.781c6.767,12.699,18.049,22.074,29.483,30.428
	c9.026,6.594,18.457,12.837,28.921,16.482c6.325,2.203,13.847,3.239,19.217-0.871c4.493-3.439,6.184-9.472,7.804-15.016
	c3.878-13.278,8.972-26.304,16.575-37.717c2.144-3.218,4.609-6.945,3.567-10.705C152.199,52.76,100.256,19.928,97.487,21.027z"/>
<path style="fill:#F6851F;" d="M102.497,6.973c-3.069,1.784-4.999,4.931-4.382,10.041c0.423,3.5,2.056,6.716,3.985,9.601
	c4.352,6.507,10.259,11.67,16.307,16.442c8.532,6.733,17.639,12.93,27.801,16.326c3.094,1.034,6.324,1.806,9.562,1.577
	c3.238-0.23,6.509-1.564,8.616-4.165c1.903-2.349,2.7-5.541,2.606-8.627c-0.094-3.086-1.014-6.087-2.221-8.901
	c-5.421-12.644-16.501-21.778-28.483-27.546c-6.95-3.346-14.355-5.736-21.957-6.552C110.22,4.727,105.727,5.095,102.497,6.973z"/>
<path d="M169.367,37.296c-6.788-15.832-20.556-25.097-30.91-30.08c-7.957-3.831-15.895-6.192-23.593-7.02
	c-3.362-0.36-9.765-0.521-14.88,2.453c0,0,0,0,0,0.001c-5.207,3.026-7.633,8.341-6.833,14.964c0.022,0.181,0.059,0.364,0.086,0.545
	C90.589,20.627,81.984,28.58,74.05,35.09c-5.1,4.19-10.99,8.83-17.46,12.96c-10.16-4.19-24.77-8.77-38.78-4.03
	C6.15,47.96-0.82,59.86,0.07,74.31c1.18,19.07,15.26,34.62,25.74,44.65c1.77,1.69,3.54,3.32,5.31,4.92
	c-6.92,12.9-11.6,26.47-16.12,39.61c-4.16,12.09-8.46,24.58-14.45,36.22c-1.07,2.1-0.54,4.66,1.28,6.15C2.75,206.62,3.87,207,5,207
	c1.1,0,2.19-0.36,3.1-1.08c7.98-6.32,42.83-45.84,54.33-58.97c2.9,1.66,5.79,3.17,8.66,4.53c14.8,7.02,28.36,10.54,40.53,10.54
	c6.25,0,12.14-0.93,17.63-2.79c10.73-3.63,18.82-15.07,19.68-27.84c0.71-10.61-3.85-19.59-12.25-24.34
	c0.22-0.72,0.43-1.44,0.64-2.14l0.09-0.33c4.41-15.09,9.47-26.64,15.94-36.34c0.466-0.701,0.964-1.453,1.455-2.247
	c0.436-0.004,0.874-0.014,1.319-0.046c4.91-0.348,9.337-2.536,12.148-6.005c2.536-3.132,3.857-7.367,3.718-11.926
	C171.889,44.684,171.031,41.178,169.367,37.296z M20.01,179.42c1.54-4.25,3-8.48,4.44-12.67c4.35-12.63,8.5-24.62,14.46-36.17
	c4.98,4.08,9.95,7.77,14.89,11.05C42.23,154.83,29.88,168.67,20.01,179.42z M138.95,130.73c-0.58,8.69-6.01,16.7-12.9,19.03
	c-13.66,4.62-30.71,2.16-50.67-7.31c-13.88-6.58-28.23-16.92-42.65-30.72c-9.28-8.87-21.72-22.46-22.67-38.03
	c-0.49-7.81,2.14-17.23,10.95-20.21c8.12-2.75,16.99-1.25,24.57,1.16c-1.92,1.43-3.72,3.28-4.75,5.9
	c-2.33,5.94,0.89,11.98,1.94,13.96c7.3,13.68,19.19,23.52,30.95,32.11c9.02,6.59,18.92,13.23,30.23,17.17
	c4.22,1.47,8.15,2.2,11.73,2.2c4.73,0,8.84-1.28,12.17-3.82c2.12-1.63,3.73-3.59,5-5.73C138.88,120.59,139.15,127.68,138.95,130.73z
	 M127.81,101.78l-0.09,0.33c-1.4,4.79-2.85,9.74-5.95,12.12c-3.85,2.94-10.02,1.69-14.53,0.12c-10.07-3.51-19.23-9.67-27.62-15.8
	c-10.8-7.89-21.68-16.84-28.02-28.74c-1.74-3.27-1.75-4.85-1.46-5.61c0.49-1.23,2.65-2.4,4.58-3.44
	c9.85-5.32,18.51-12.06,25.68-17.94c6.266-5.152,12.786-11.021,16.753-14.666c0.254,0.411,0.512,0.823,0.791,1.239
	c4.835,7.229,11.204,12.726,17.366,17.588c7.426,5.86,17.399,13.058,28.885,16.992C137.548,74.265,132.322,86.324,127.81,101.78z
	 M160.501,53.647c-1.073,1.324-2.926,2.171-5.086,2.324c-2.074,0.152-4.427-0.263-7.623-1.331
	c-10.201-3.409-19.407-10.079-26.289-15.509c-5.518-4.354-11.185-9.222-15.249-15.298c-1.873-2.799-2.912-5.227-3.177-7.42
	c-0.397-3.29,0.753-4.434,1.931-5.118c1.908-1.109,5.192-1.543,8.789-1.156c6.559,0.704,13.396,2.752,20.322,6.086
	c8.814,4.243,20.489,12.026,26.056,25.011c1.161,2.709,1.756,5.025,1.819,7.082C162.06,50.453,161.515,52.396,160.501,53.647z"/>
</svg>
