<?xml version="1.0" encoding="iso-8859-1"?>
<!-- Generator: Adobe Illustrator 22.1.0, SVG Export Plug-In . SVG Version: 6.00 Build 0)  -->
<svg version="1.1" id="Layer_1" xmlns="http://www.w3.org/2000/svg" xmlns:xlink="http://www.w3.org/1999/xlink" x="0px" y="0px"
	 viewBox="0 0 214 187" style="enable-background:new 0 0 214 187;" xml:space="preserve">
<path style="fill:#74CCCF;" d="M123.19,64.81c-27.11-3.52-56.52,4.82-78.67,22.31c-2.75,2.17-5.39,4.49-7.92,6.95l13.91,20.02
	c2.76-2.93,5.74-5.65,8.89-8.14C74,94.42,92.6,88.01,110.65,88.01c3.18,0,6.34,0.2,9.45,0.6c15.26,1.98,29.46,8.89,39.9,18.99
	l13.8-19.87C160.01,75.55,142.17,67.27,123.19,64.81z"/>
<path style="fill:#74CCCF;" d="M136.36,6.34C92.73,0.51,45.39,14.35,9.73,43.37c-1.78,1.45-3.52,2.93-5.24,4.45l13.8,19.87
	c2.14-1.97,4.34-3.87,6.59-5.7c26.04-21.19,59.2-32.97,91.41-32.97c5.68,0,11.32,0.36,16.89,1.11
	c22.96,3.07,44.62,12.58,62.13,26.63L209,37.05C188.33,20.85,163.06,9.91,136.36,6.34z"/>
<path style="fill:#74CCCF;" d="M128.734,143.286c-0.184-0.387-0.379-0.77-0.585-1.148c-3.839-7.018-11.373-11.843-19.413-12.903
	c-8.04-1.06-16.417,1.525-22.697,6.567c-11.664,9.364-17.679,28.855-4.818,39.838c5.521,4.714,13.116,6.708,20.422,6.311
	c9.597-0.521,19.046-5.212,24.52-12.971C131.387,161.574,132.592,151.425,128.734,143.286z"/>
<path d="M50.51,119.09c-0.123,0-0.246-0.005-0.37-0.014c-1.503-0.111-2.876-0.896-3.736-2.133l-13.91-20.02
	c-1.396-2.01-1.133-4.733,0.621-6.438c2.662-2.588,5.457-5.041,8.308-7.29c23.184-18.307,53.988-27.04,82.412-23.344l-0.001-0.001
	c19.617,2.543,38.537,11.113,53.277,24.133c1.9,1.679,2.243,4.516,0.796,6.6l-13.8,19.869c-0.837,1.204-2.16,1.981-3.62,2.124
	c-1.458,0.144-2.909-0.363-3.963-1.383c-9.866-9.545-23.03-15.804-37.067-17.625c-2.879-0.37-5.843-0.559-8.806-0.559
	c-17.03,0-34.581,6.146-48.151,16.864c-2.985,2.359-5.795,4.932-8.35,7.645C53.201,118.525,51.882,119.09,50.51,119.09z
	 M43.178,94.774l8.048,11.583c1.631-1.501,3.326-2.948,5.074-4.33C71.604,89.941,91.413,83.01,110.65,83.01
	c3.388,0,6.782,0.216,10.088,0.642c14.175,1.839,27.593,7.626,38.371,16.465l7.98-11.489c-12.708-10.11-28.36-16.762-44.542-18.858
	c0-0.001-0.001-0.001-0.001-0.001c-25.808-3.349-53.814,4.604-74.929,21.276C46.117,92.229,44.632,93.477,43.178,94.774z"/>
<path d="M18.29,72.69c-0.182,0-0.364-0.01-0.548-0.03c-1.437-0.158-2.734-0.931-3.559-2.117l-13.8-19.87
	c-1.446-2.083-1.105-4.919,0.795-6.599c1.781-1.575,3.597-3.116,5.394-4.581C43.28,9.619,92.05-4.627,137.022,1.384c0,0,0,0,0.001,0
	c27.272,3.647,53.229,14.619,75.061,31.73c2.086,1.635,2.534,4.612,1.022,6.788l-13.69,19.71c-0.791,1.139-2.019,1.897-3.391,2.096
	c-1.368,0.201-2.764-0.181-3.845-1.049c-17.215-13.812-37.846-22.656-59.664-25.573c-5.255-0.708-10.713-1.066-16.227-1.066
	c-31.214,0-63.382,11.608-88.254,31.849c-2.198,1.788-4.337,3.638-6.358,5.5C20.75,72.223,19.538,72.69,18.29,72.69z M11.167,48.669
	l8.022,11.551c0.835-0.71,1.682-1.414,2.535-2.108C48.349,36.445,82.816,24.02,116.29,24.02c5.958,0,11.865,0.389,17.557,1.155
	c21.854,2.922,42.608,11.336,60.351,24.422l7.96-11.461c-19.621-14.383-42.498-23.636-66.46-26.84h0.001
	C93.406,5.641,47.493,19.085,12.887,47.248C12.315,47.714,11.741,48.188,11.167,48.669z"/>
<path d="M99.834,187c-8.302,0-16.175-2.703-21.86-7.558c-5.99-5.115-9.092-12.07-8.971-20.114c0.151-10,5.609-20.766,13.905-27.426
	c7.558-6.068,17.205-8.846,26.481-7.624c9.764,1.287,18.633,7.211,23.146,15.461c0.251,0.457,0.491,0.929,0.717,1.407
	c4.557,9.613,3.378,21.67-3.004,30.716c-6.221,8.817-16.812,14.455-28.334,15.081C101.219,186.981,100.524,187,99.834,187z
	 M105.147,134.002c-5.62,0-11.418,2.037-15.979,5.699c-5.974,4.796-10.06,12.744-10.166,19.778
	c-0.076,5.038,1.763,9.196,5.466,12.357c4.226,3.608,10.381,5.471,16.904,5.122c8.365-0.455,16.299-4.616,20.704-10.86
	c4.271-6.055,5.131-14.361,2.14-20.671l-0.001-0.002c-0.142-0.297-0.29-0.591-0.449-0.88c-3.015-5.512-9.022-9.476-15.684-10.354
	C107.114,134.064,106.134,134.002,105.147,134.002z"/>
</svg>
