<?xml version="1.0" encoding="iso-8859-1"?>
<!-- Generator: Adobe Illustrator 22.1.0, SVG Export Plug-In . SVG Version: 6.00 Build 0)  -->
<svg version="1.1" id="Layer_1" xmlns="http://www.w3.org/2000/svg" xmlns:xlink="http://www.w3.org/1999/xlink" x="0px" y="0px"
	 viewBox="0 0 196 198" style="enable-background:new 0 0 196 198;" xml:space="preserve">
<path style="fill:#D6E5E5;" d="M186.495,89.501c-4.169,10.595-12.342,19.416-21.95,25.387C157.732,119.122,149.674,120,142,120
	c-20,0-27.725-3.908-28-4c-8.943,11.122-31.322,34.884-40.776,45.572C64.262,171.705,45,193,39,193c-9.091,0-34-17.512-34-21
	c0-1,3.236-4.255,4-5c13.267-12.947,16.18-15.576,28.579-29.356C43.871,130.65,74,99,74,88c-0.779-8.061-2-20-2-29
	c0-18.02,8.072-35.976,24.211-45.33C110.327,5.487,126,5,143,5c-0.819,0.863-17.363,20.703-21.605,26.025
	C117.377,36.059,116,37,116,43c0,6.362,5.628,14.218,10.316,18.318C134.35,68.311,147.742,76.833,156,76
	c6.356-0.641,17.438-9.881,23-15c4.754-4.376,12-11,12-11c0.057,2.529-0.845,18.77-1,22
	C189.691,78.465,188.878,83.445,186.495,89.501z"/>
<path d="M39,198c-6.819,0-17.429-6.27-23.146-10.007C0,177.627,0,173.684,0,172c0-1.688,0.421-3.615,5.508-8.579l4.002-3.9
	c10.036-9.775,13.417-13.068,24.352-25.222c0.628-0.698,1.491-1.64,2.536-2.779c27.798-30.311,32.423-40.149,32.598-43.333
	l-0.133-1.364C68.076,78.729,67,67.643,67,59c0-21.401,9.982-39.964,26.703-49.656C108.61,0.703,124.849,0,143,0
	c1.998,0,3.805,1.189,4.594,3.025c0.789,1.836,0.409,3.965-0.965,5.415c-1.074,1.189-17.05,20.34-21.323,25.701
	c-0.461,0.577-0.885,1.099-1.278,1.582C121.171,39.235,121,39.445,121,43c0,4.341,4.468,10.934,8.607,14.554
	c8.135,7.081,20.069,14.056,25.891,13.472c3.456-0.349,11.729-5.984,20.116-13.704c4.759-4.381,12.012-11.012,12.012-11.012
	c1.447-1.323,3.537-1.678,5.339-0.907c1.804,0.771,2.99,2.525,3.034,4.486c0.045,1.997-0.379,10.326-0.816,18.686
	c-0.086,1.652-0.155,2.966-0.188,3.665c-0.305,6.368-1.075,12.051-3.847,19.092c0,0,0,0,0,0
	c-4.338,11.021-12.848,20.896-23.964,27.803C158.819,124.333,149.331,125,142,125c-13.394,0-21.748-1.692-26.381-3.1
	c-6.376,7.597-16.535,18.698-25.62,28.626c-5.062,5.532-9.844,10.757-13.029,14.359C49.943,195.441,43.199,198,39,198z
	 M38.635,188.033L38.635,188.033L38.635,188.033z M11.129,171.977c5.376,5.031,21.659,15.737,27.637,16.018
	c1.32-0.438,7.792-3.82,30.714-29.734c3.241-3.665,8.051-8.92,13.143-14.485c10.161-11.104,21.679-23.691,27.481-30.908
	c1.31-1.629,3.492-2.271,5.478-1.611c0.072,0.024,0.257,0.088,0.546,0.215C117.466,112.061,125.005,115,142,115
	c6.003,0,13.689-0.496,19.905-4.358c9.302-5.78,16.382-13.938,19.938-22.972c1.993-5.065,2.851-9.377,3.163-15.909
	c0.033-0.708,0.104-2.037,0.19-3.709c0.088-1.668,0.205-3.911,0.323-6.251c-1.093,1.003-2.165,1.988-3.133,2.879
	c-6.237,5.74-17.893,15.491-25.886,16.296c-13.24,1.333-31.438-14.119-33.468-15.885C117.233,60.018,111,50.947,111,43
	c0-6.806,1.711-9.211,5.271-13.587c0.375-0.461,0.78-0.959,1.217-1.507c2.413-3.027,9.238-11.278,14.642-17.758
	c-12.533,0.432-23.416,2.054-33.41,7.848C85.119,25.878,77,41.207,77,59c0,8.159,1.05,18.966,1.815,26.857l0.161,1.663
	C78.992,87.679,79,87.839,79,88c0,8.425-10.207,22.992-35.232,50.279c-1.019,1.111-1.86,2.028-2.473,2.709
	c-11.155,12.399-14.873,16.02-24.809,25.697l-3.994,3.894C12.012,171.047,11.545,171.529,11.129,171.977z"/>
</svg>
