<?xml version="1.0" encoding="iso-8859-1"?>
<!-- Generator: Adobe Illustrator 22.1.0, SVG Export Plug-In . SVG Version: 6.00 Build 0)  -->
<svg version="1.1" id="Layer_1" xmlns="http://www.w3.org/2000/svg" xmlns:xlink="http://www.w3.org/1999/xlink" x="0px" y="0px"
	 viewBox="0 0 201 201" style="enable-background:new 0 0 201 201;" xml:space="preserve">
<path style="fill:#74CCCF;" d="M93.371,5.797c-17.265,2.014-34.214,7.8-47.565,16.821C29.278,33.787,16.013,50.585,9.46,70
	c-4.113,12.184-5.583,25.398-3.558,38.899c0.332,2.215,0.753,4.415,1.254,6.593c2.85,12.397,8.25,26.16,15.508,38.509
	C30.58,167.47,39.56,177.497,51,184c0.615,0.35,2.379,2.452,3,2.782c29.395,15.652,65.039,9.971,93.069-6.54
	c0.689-0.406,1.378-0.82,2.067-1.242c11.765-7.213,23.241-16.747,30.822-28.94c1.063-1.71,2.078-3.464,3.044-5.257
	c13.454-24.985,17.273-57.556,7.623-84.97C185.995,46.686,178.945,37.647,169,29c-0.784-0.682-2.591-3.348-3.398-4
	c-3.057-2.47-6.272-4.725-9.602-6.757c-4.839-2.952-9.923-5.434-15.125-7.421C126.662,5.391,109.872,3.872,93.371,5.797z"/>
<path style="fill:#127274;" d="M152,173c-3.405-10.078-10.224-18.504-19.239-23.703c-4.694-2.707-10.309-4.408-15.065-6.997
	c-4.756-2.588-9.276-6.227-11.385-11.339c-2.48-6.011-1.192-13.039,1.45-18.976c2.642-5.937,7.003-11.247,10.014-16.992
	c3.699-7.059,6.061-15.033,5.674-23.052c-0.387-8.019-3.75-16.059-9.857-21.015c-16.56-13.437-39.773,2.794-40.406,22.557
	c-0.248,7.745,1.918,15.339,4.282,22.693s4.97,14.725,5.653,22.442c0.663,7.498-1.167,16.145-7.461,19.929
	c-3.885,2.336-8.62,2.316-13.069,2.975C49.814,143.412,38.289,152.342,32,164c14,18,36.565,29,58,29
	C132.307,193,152.176,173.52,152,173z"/>
<path d="M195.339,58.173c-4.576-12.997-11.449-22.834-22.973-32.872c-0.215-0.235-0.704-0.861-1.033-1.283
	c-1.072-1.373-1.781-2.254-2.588-2.906c-3.184-2.573-6.596-4.974-10.141-7.138c-5.04-3.074-10.404-5.706-15.944-7.823
	c-14.608-5.582-31.854-7.42-49.868-5.32l0,0.001C74.339,2.983,56.659,9.25,43.006,18.476c-17.904,12.098-31.5,29.828-38.284,49.926
	C0.151,81.944-1.116,95.818,0.957,109.64c0.344,2.298,0.79,4.644,1.325,6.972c3.063,13.323,8.771,27.501,16.071,39.922
	c8.742,14.874,18.23,24.933,29.834,31.618c0.191,0.185,0.483,0.483,0.692,0.698c1.096,1.124,1.816,1.839,2.771,2.346
	c12.373,6.588,26.269,9.849,40.725,9.848c18.851-0.001,38.65-5.547,57.232-16.493c0.715-0.421,1.429-0.85,2.142-1.287
	c14.425-8.843,25.344-19.126,32.456-30.563c1.115-1.794,2.191-3.653,3.199-5.525C202.048,119.975,205.089,85.871,195.339,58.173z
	 M144.531,175.934c-29.655,17.47-62.437,19.938-87.793,6.641c-0.204-0.198-0.501-0.504-0.7-0.707
	c-1.024-1.05-1.696-1.719-2.567-2.214c-6.08-3.456-11.53-8.057-16.621-14.06c5.833-10.259,15.893-17.561,26.474-19.127
	c0.943-0.14,1.9-0.246,2.858-0.354c3.8-0.427,8.108-0.91,12.054-3.282c7.163-4.307,10.851-13.523,9.865-24.655
	c-0.662-7.485-2.938-14.491-5.14-21.267l-0.733-2.265c-2.171-6.752-4.271-13.935-4.044-21.002c0.275-8.599,6.115-17.184,14.2-20.878
	c3.714-1.695,10.998-3.687,18.058,2.043c4.675,3.793,7.671,10.289,8.014,17.374c0.311,6.435-1.456,13.52-5.108,20.489
	c-1.201,2.292-2.66,4.545-4.204,6.93c-2.112,3.263-4.296,6.637-5.949,10.352c-3.667,8.239-4.202,16.378-1.504,22.915
	c2.264,5.488,6.845,10.14,13.616,13.824c2.469,1.344,5.07,2.438,7.585,3.494c2.658,1.117,5.168,2.172,7.372,3.442
	c7.861,4.534,13.851,11.881,16.903,20.704c-0.216,0.134-0.426,0.271-0.644,0.405C145.859,175.144,145.195,175.543,144.531,175.934z
	 M178.598,142.434c-0.911,1.69-1.882,3.369-2.887,4.987c-4.722,7.593-11.444,14.672-20.048,21.126
	c-4.066-9.979-11.218-18.283-20.404-23.581c-2.747-1.584-5.668-2.812-8.493-3.999c-2.393-1.006-4.652-1.955-6.68-3.059
	c-4.706-2.561-7.785-5.54-9.152-8.854c-2.216-5.373-0.077-11.728,1.396-15.037c1.335-3.002,3.216-5.906,5.208-8.981
	c1.599-2.47,3.252-5.024,4.667-7.723c4.478-8.546,6.636-17.402,6.239-25.614c-0.478-9.882-4.852-19.1-11.701-24.657
	c-8.218-6.668-18.612-7.896-28.514-3.373c-11.588,5.295-19.642,17.212-20.04,29.653c-0.278,8.665,2.08,16.797,4.52,24.384
	l0.743,2.293c2.123,6.532,4.127,12.703,4.689,19.058c0.471,5.328-0.57,12.507-5.057,15.204c-2.077,1.248-4.962,1.572-8.017,1.915
	c-1.076,0.12-2.15,0.242-3.208,0.398c-12.247,1.813-23.885,9.478-31.424,20.429c-1.166-1.758-2.32-3.595-3.461-5.536
	c-6.797-11.565-12.105-24.74-14.946-37.096c-0.478-2.078-0.875-4.169-1.182-6.214c-1.835-12.235-0.708-24.535,3.35-36.558
	c6.088-18.035,18.308-33.959,34.408-44.839C60.956,18.416,77.06,12.734,93.95,10.764h0c16.188-1.888,32.219-0.208,45.141,4.729
	c4.972,1.899,9.785,4.261,14.305,7.019c3.126,1.907,6.133,4.019,8.941,6.279c0.247,0.27,0.783,0.957,1.113,1.38
	c0.82,1.052,1.529,1.96,2.269,2.604c10.179,8.849,16.216,17.438,20.188,28.72C194.751,86.619,191.951,117.634,178.598,142.434z"/>
</svg>
