<?xml version="1.0" encoding="iso-8859-1"?>
<!-- Generator: Adobe Illustrator 22.1.0, SVG Export Plug-In . SVG Version: 6.00 Build 0)  -->
<svg version="1.1" id="Layer_1" xmlns="http://www.w3.org/2000/svg" xmlns:xlink="http://www.w3.org/1999/xlink" x="0px" y="0px"
	 viewBox="0 0 201 201" style="enable-background:new 0 0 201 201;" xml:space="preserve">
<path style="fill:#3AB37C;" d="M93.371,5.797c-17.265,2.014-34.214,7.8-47.565,16.821C29.278,33.787,16.013,50.585,9.46,70
	c-4.113,12.184-5.583,25.398-3.558,38.899c0.332,2.215,0.753,4.415,1.254,6.593c2.85,12.397,8.25,26.16,15.508,38.509
	C30.58,167.47,39.56,177.497,51,184c0.615,0.35,2.379,2.452,3,2.782c29.395,15.652,65.039,9.971,93.069-6.54
	c0.689-0.406,1.378-0.82,2.067-1.242c11.765-7.213,23.241-16.747,30.822-28.94c1.063-1.71,2.078-3.464,3.044-5.257
	c13.454-24.985,17.273-57.556,7.623-84.97C185.995,46.686,178.945,37.647,169,29c-0.784-0.682-2.591-3.348-3.398-4
	c-3.057-2.47-6.272-4.725-9.602-6.757c-4.839-2.952-9.923-5.434-15.125-7.421C126.662,5.391,109.872,3.872,93.371,5.797z"/>
<path d="M92.375,201.043c-14.455,0.001-28.353-3.26-40.725-9.848c-0.954-0.507-1.675-1.222-2.771-2.346
	c-0.209-0.215-0.5-0.514-0.691-0.698c-11.606-6.688-21.095-16.746-29.834-31.618c-7.3-12.421-13.008-26.599-16.071-39.921
	c-0.531-2.311-0.978-4.656-1.325-6.97c-2.073-13.825-0.806-27.7,3.766-41.241c6.783-20.096,20.38-37.827,38.283-49.925
	C56.658,9.25,74.339,2.983,92.792,0.831c18.014-2.1,35.259-0.263,49.867,5.319c5.541,2.117,10.905,4.749,15.945,7.823
	c3.546,2.165,6.958,4.565,10.141,7.137c0.809,0.653,1.517,1.534,2.588,2.906c0.329,0.422,0.817,1.048,1.032,1.284
	c11.526,10.04,18.399,19.876,22.975,32.873c9.75,27.698,6.709,61.801-7.937,89.001c-1.018,1.888-2.094,3.748-3.2,5.527
	c-7.11,11.435-18.029,21.718-32.454,30.562c-0.714,0.438-1.428,0.866-2.143,1.287C131.025,195.496,111.227,201.043,92.375,201.043z
	 M56.738,182.574c25.358,13.299,58.14,10.828,87.792-6.64c0.664-0.392,1.329-0.79,1.993-1.197
	c13.085-8.023,22.906-17.214,29.188-27.317c0.998-1.604,1.97-3.282,2.888-4.988c13.353-24.798,16.153-55.812,7.308-80.939
	c-3.971-11.281-10.008-19.87-20.187-28.72c-0.74-0.643-1.449-1.552-2.271-2.604c-0.33-0.422-0.866-1.109-1.112-1.379
	c-2.807-2.259-5.814-4.371-8.941-6.279c-4.52-2.757-9.333-5.119-14.305-7.018c-12.924-4.938-28.955-6.617-45.141-4.729l0,0
	c-16.891,1.971-32.995,7.652-45.345,15.998c-16.102,10.88-28.32,26.804-34.408,44.838c-4.059,12.021-5.186,24.321-3.352,36.558
	c0.31,2.06,0.708,4.151,1.183,6.213c2.841,12.356,8.148,25.531,14.946,37.097c7.901,13.445,16.321,22.402,26.496,28.187
	c0.872,0.495,1.544,1.164,2.568,2.215C56.236,182.071,56.534,182.376,56.738,182.574z M48.474,188.315
	c0.02,0.011,0.038,0.021,0.056,0.031C48.511,188.337,48.492,188.326,48.474,188.315z M172.28,25.226
	c0.005,0.004,0.009,0.007,0.014,0.012C172.289,25.234,172.285,25.23,172.28,25.226z"/>
<path d="M94.993,154.97c-10.738,0-22.477-1.437-33.206-4.12c-2.679-0.669-4.308-3.384-3.638-6.063
	c0.67-2.678,3.386-4.308,6.063-3.638c12.28,3.07,25.944,4.384,37.487,3.603c18.801-1.27,28.641-6.842,29.247-16.563
	c0.216-3.465-1.169-15.14-28.062-19.89c-3.321-0.586-6.575-1.326-8.72-1.844c-8.748-2.11-19.677-5.609-26.592-14.006
	c-7.871-9.559-7.339-24.07,1.237-33.753c6.575-7.424,20.626-15.744,50.266-13.219c7.864,0.67,12.725,3.382,15.696,5.363
	c2.298,1.532,2.919,4.636,1.387,6.934c-1.53,2.298-4.635,2.919-6.934,1.387c-2.366-1.577-5.522-3.252-10.999-3.719
	c-14.07-1.199-32.771-0.458-41.93,9.885c-5.349,6.039-5.779,14.967-1.004,20.767c5.031,6.109,13.981,8.896,21.217,10.641
	c2.837,0.685,5.719,1.294,8.114,1.717c24.01,4.241,37.241,15.307,36.303,30.36c-0.666,10.681-7.895,23.847-38.554,25.918
	C99.987,154.891,97.517,154.97,94.993,154.97z"/>
<path d="M112,175c-2.762,0-5-2.239-5-5V32c0-2.761,2.238-5,5-5s5,2.239,5,5v138C117,172.761,114.762,175,112,175z"/>
<path d="M92,169c-2.762,0-5-2.239-5-5V29c0-2.761,2.238-5,5-5s5,2.239,5,5v135C97,166.761,94.762,169,92,169z"/>
</svg>
