<?xml version="1.0" encoding="iso-8859-1"?>
<!-- Generator: Adobe Illustrator 22.1.0, SVG Export Plug-In . SVG Version: 6.00 Build 0)  -->
<svg version="1.1" id="Layer_1" xmlns="http://www.w3.org/2000/svg" xmlns:xlink="http://www.w3.org/1999/xlink" x="0px" y="0px"
	 viewBox="0 0 219 181" style="enable-background:new 0 0 219 181;" xml:space="preserve">
<path style="fill:#BCBCBC;" d="M109.77,119.15c-0.53,1.27-1.12,2.55-1.77,3.85c-2.23,4.46-5.42,9.6-9.89,14.31L97,137
	c-13,0-28.82-35.87-28.82-52.35c0-1.58,0.04-3.13,0.13-4.65h26.86C95.06,81.06,95,82.06,95,83c0,20,10,30,14,36L109.77,119.15z"/>
<path style="fill:#BCBCBC;" d="M103,61l-1.03-0.04L74.54,60c-0.86,0.16-1.74,0.33-2.62,0.52C58.1,63.4,41.9,69.58,31.26,78.16
	C19.3,87.81,9.85,100.95,6.38,115.87C5.41,120.05,5,123,5,128.67c0.01,11.06,3.71,22.05,10.85,30.47C25.59,170.63,39.74,176,55,176
	c5,0,28.38-0.33,43-9c11.96-7.09,20.97-14,27.3-22.19c4.75-6.14,7.99-12.98,9.83-21.15c1.26-5.55,1.87-11.7,1.87-18.66
	C137,86,124,61,103,61z M97,80c8,0,13.78,7.71,15.31,12.89c2.38,8.05,1.56,16.64-2.54,26.26L109,119c-4-6-14-16-14-36
	c0-0.94,0.06-1.94,0.17-3H97z M63,152c-8.15,0-31-4-31-23c0-13,3.3-19.96,12-30c5.38-6.22,16.97-14.02,24-19h0.31
	c-0.09,1.52-0.13,3.07-0.13,4.65C68.18,101.13,84,137,97,137l1.11,0.31C90.55,145.28,79.34,152,63,152z"/>
<path style="fill:#BCBCBC;" d="M155,5c-23.76,0-69.7,15.12-83.08,55.52c-1.97,5.94-3.23,12.42-3.61,19.48
	c-0.09,1.52-0.13,3.07-0.13,4.65C68.18,101.13,84,137,97,137l1.11,0.31l27.19,7.5L126,145c22,0,45.64-4.95,62.59-19.87
	c16.27-14.33,25.52-35.93,25.49-57.53C214,16,168.94,5,155,5z M109,119c-4-6-14-16-14-36c0-0.94,0.06-1.94,0.17-3H97
	c8,0,13.78,7.71,15.31,12.89c2.38,8.05,1.56,16.64-2.54,26.26L109,119z M167.78,108.04c-9.42,8.63-22.75,12.66-32.65,15.62
	c1.26-5.55,1.87-11.7,1.87-18.66c0-19-13-44-34-44l-1.03-0.04c8.59-14.22,25.82-28.12,55.42-28.03C182,33,189,60.62,189,68
	C189,85,179.44,97.35,167.78,108.04z"/>
<path style="fill:#BCBCBC;" d="M137,105c0,6.96-0.61,13.11-1.87,18.66c-0.38,0.12-0.76,0.23-1.13,0.34l-24.23-4.85
	c4.1-9.62,4.92-18.21,2.54-26.26C110.78,87.71,105,80,97,80h-1.83c0.58-5.45,2.72-12.28,6.8-19.04L103,61C124,61,137,86,137,105z"/>
<path d="M192.622,12.868C178.25,2.71,162.211,0,155,0c-13.686,0-36.761,4.902-56.752,18.718
	c-10.982,7.59-23.411,19.591-30.125,37.52c-12.893,3.028-28.809,8.999-39.999,18.026C14.471,85.278,5.021,99.65,1.514,114.732
	c-1.005,4.321-1.514,7.664-1.509,13.94c0.01,12.588,4.283,24.558,12.032,33.704C22.213,174.386,37.471,181,55,181
	c8.774,0,30.777-0.945,45.549-9.699c11.101-6.578,20.216-13.212,27.05-21.311c18.999-0.204,45.014-4.135,64.291-21.107
	c17.059-15.02,27.222-37.93,27.187-61.285C219.032,37.786,204.666,21.38,192.622,12.868z M63.49,89.304
	c1.028,8.619,4.628,19.809,9.764,29.959c3.695,7.302,8.944,15.586,15.257,19.854C82.087,143.779,73.76,147,63,147
	c-3.212,0-10.262-0.81-16.315-3.845C40.168,139.888,37,135.258,37,129c0-11.074,2.418-17.069,10.78-26.727
	C51.174,98.353,57.611,93.504,63.49,89.304z M95.451,162.699C82.452,170.401,61.203,171,55,171
	c-14.541,0-27.089-5.358-35.334-15.088c-6.222-7.343-9.653-17.02-9.662-27.247c-0.004-5.368,0.382-7.938,1.25-11.667
	c3.004-12.919,11.225-25.331,23.147-34.95c7.267-5.862,18.565-11.207,30.508-14.64c-0.637,3.068-1.108,6.281-1.395,9.639
	c-0.382,0.269-0.767,0.539-1.167,0.82C55.171,82.907,45.344,89.81,40.22,95.727C31.452,105.854,27,113.78,27,129
	c0,10.122,5.257,18.108,15.203,23.095C49.424,155.715,57.919,157,63,157c29.226,0,43.541-19.901,49.472-31.764
	c6.178-12.356,7.693-23.4,4.631-33.762c-1.639-5.546-7.252-13.921-16.003-15.994c0.791-2.972,2.024-6.168,3.727-9.394
	C121.711,67.561,132,89.275,132,105C132,132.283,123.119,146.303,95.451,162.699z M107.869,108.828
	c-3.546-5.298-7.26-12.568-7.798-23.18c3.899,1.644,6.674,6.055,7.443,8.659C108.851,98.835,108.969,103.645,107.869,108.828z
	 M110.948,57.04c0.889-1.049,1.823-2.083,2.828-3.085c10.52-10.489,25.502-16.028,43.344-16.028c0.084,0,0.171,0,0.256,0
	c8.737,0.026,15.732,4.204,20.791,12.418C182.574,57.502,184,65.33,184,68c0,12.888-5.862,23.76-19.602,36.353
	c-6.393,5.86-15.111,9.491-23.022,12.124C141.784,112.889,142,109.079,142,105C142,87.2,131.02,62.35,110.948,57.04z
	 M185.281,121.378c-14.769,13.003-34.48,17.327-50.731,18.355c1.951-3.697,3.536-7.702,4.733-12.102
	c9.959-3.03,22.489-7.306,31.871-15.906C181.791,101.976,194,88.196,194,68c0-10.243-9.009-39.991-36.595-40.073
	c-0.097,0-0.193,0-0.291,0c-25.939,0-41.72,10.293-50.399,18.947C94.377,59.175,90,74.023,90,83c0,18.685,8.05,29.54,12.86,36.025
	c0.327,0.441,0.623,0.843,0.91,1.235c-0.083,0.169-0.158,0.335-0.242,0.504c-1.826,3.652-4.206,7.517-7.269,11.126
	c-3.115-0.779-8.549-6.209-14.082-17.142c-5.297-10.467-8.996-22.842-8.996-30.094c0-30.13,16.723-48.013,30.752-57.709
	C122.03,14.438,142.753,10,155,10c5.617,0,19.501,2.306,31.85,11.034c14.718,10.403,22.196,26.074,22.227,46.579
	C209.107,88.132,200.212,108.231,185.281,121.378z"/>
</svg>
