<?xml version="1.0" encoding="iso-8859-1"?>
<!-- Generator: Adobe Illustrator 22.1.0, SVG Export Plug-In . SVG Version: 6.00 Build 0)  -->
<svg version="1.1" id="Layer_1" xmlns="http://www.w3.org/2000/svg" xmlns:xlink="http://www.w3.org/1999/xlink" x="0px" y="0px"
	 viewBox="0 0 100 187" style="enable-background:new 0 0 100 187;" xml:space="preserve">
<path style="fill:#FEBF10;" d="M55.392,160.172c-4.105-13.324-22.497-5.501-27.42,2.687c-4.901,8.151-0.242,17.596,9.27,18.996
	C48.477,183.509,58.62,170.655,55.392,160.172z"/>
<path d="M39.193,186.962c-0.894,0-1.787-0.063-2.677-0.194c-6.208-0.912-11.408-4.621-13.912-9.922
	c-2.483-5.257-2.087-11.291,1.086-16.556c4.004-6.643,14.933-13.253,24.204-12.125c6.042,0.737,10.402,4.483,12.276,10.55v0.001
	c2.056,6.659,0.179,14.477-4.899,20.401C50.962,184.144,45.104,186.962,39.193,186.962z M45.7,158.033
	c-4.859,0-11.334,3.916-13.446,7.419c-1.436,2.383-1.652,4.912-0.608,7.123c1.087,2.301,3.391,3.867,6.322,4.298
	c3.369,0.496,6.997-1.1,9.709-4.264c2.864-3.342,3.989-7.535,2.937-10.944c-0.697-2.254-1.873-3.322-3.932-3.574
	C46.364,158.053,46.036,158.033,45.7,158.033z"/>
<path style="fill:#FEBF10;" d="M46.364,5.01C39.973,5.011,25.541,8.534,20,13C11.275,20.033,5,34,5,41c4,0,16,0,21,0
	c4-12,12-17,21-17c10.432,0,21,11,21,25c0,12.958-3,21-15.345,29.69c-7.233,5.092-15.073,5.677-20.817,12.729
	C26.963,97.407,28,117,28,125c0,6.889,3.609,8,12,8c8,0,11,0,11,0c0-10.496,1.993-29.689,11.491-36.379
	c10.183-7.172,23.498-6.88,29.349-19.713c1.973-4.329,3.132-8.898,3.135-13.553C95,32,82,5,46.364,5.01z"/>
<path d="M51,138H40c-5.941,0-17,0-17-13c0-1.036-0.018-2.271-0.038-3.647c-0.201-13.956,0.031-26.988,4.999-33.09
	c4.245-5.212,9.445-7.525,14.032-9.566c2.749-1.223,5.346-2.378,7.783-4.095C61.021,66.687,63,60.039,63,49c0-11.447-8.447-20-16-20
	c-7.783,0-13.252,4.569-16.256,13.581C30.063,44.623,28.152,46,26,46H5c-2.761,0-5-2.238-5-5c0-8.864,7.24-24.409,16.93-31.946
	c7.602-5.913,17.78-9.04,29.433-9.044l0,0c0.007,0,0.015,0,0.021,0c15.324,0,27.731,4.641,36.88,13.794
	c10.95,10.956,16.729,28.092,16.711,49.555c-0.004,5.156-1.21,10.413-3.586,15.624c-4.625,10.145-13.115,13.569-20.605,16.592
	c-3.761,1.517-7.312,2.95-10.415,5.135C58.897,105.268,56,120.212,56,133C56,135.762,53.761,138,51,138z M47,19
	c13.851,0,26,14.019,26,30c0,17.89-6.684,26.188-17.467,33.779c-3.236,2.278-6.55,3.753-9.475,5.054
	c-4.081,1.815-7.606,3.384-10.343,6.744c-3.083,3.786-2.844,20.384-2.754,26.632C32.982,122.64,33,123.923,33,125
	c0,1.744,0.314,2.228,0.317,2.232C33.567,127.454,34.743,128,40,128h6.137c0.531-10.05,2.986-28.079,13.475-35.467
	c4.047-2.851,8.31-4.569,12.431-6.232c6.86-2.768,12.279-4.954,15.248-11.467c1.778-3.901,2.682-7.765,2.685-11.483
	c0.01-13.076-2.373-31.06-13.784-42.478C68.986,13.665,58.958,10.01,46.384,10.01c-0.006,0-0.012,0-0.018,0l0,0
	c-9.409,0.003-17.465,2.401-23.296,6.937C17.294,21.438,12.734,29.8,10.889,36h11.679C27.32,25.144,36.065,19,47,19z"/>
</svg>
