<?xml version="1.0" encoding="iso-8859-1"?>
<!-- Generator: Adobe Illustrator 22.1.0, SVG Export Plug-In . SVG Version: 6.00 Build 0)  -->
<svg version="1.1" id="Layer_1" xmlns="http://www.w3.org/2000/svg" xmlns:xlink="http://www.w3.org/1999/xlink" x="0px" y="0px"
	 viewBox="0 0 55 182" style="enable-background:new 0 0 55 182;" xml:space="preserve">
<path style="fill:#FEBF10;" d="M50,43c0.191-8.383-0.026-16.124,0-26c-0.026-5.124-1-11-1-11S33.614,5.026,26.161,5.026
	C19.376,5.026,10.733,4.713,5,9c0.191,0.381,13.089,76.611,15,117.001C27.167,126.668,37,127,43,127c3-6,4.783-19.141,4.974-27.905
	c0.096-8.859,0.522-17.718,0.713-26.673C49.07,61.468,49.713,53.955,50,43z"/>
<path d="M43,132c-6.211,0-16.265-0.351-23.463-1.021c-2.481-0.23-4.413-2.253-4.531-4.742C13.163,87.29,0.997,14.456,0.141,10.18
	C-0.09,9.227-0.038,8.219,0.304,7.282C0.777,5.988,1.764,4.947,3.03,4.404c6.78-2.905,14.562-4.379,23.131-4.379
	c7.525,0,22.521,0.944,23.155,0.984c2.032,0.129,3.784,1.478,4.428,3.409C53.953,5.049,55,8.613,55,17
	c-0.01,3.795,0.016,7.262,0.041,10.571c0.04,5.302,0.077,10.31-0.042,15.543c0,0.005,0,0.011,0,0.017
	c-0.159,6.074-0.42,10.986-0.697,16.186c-0.219,4.119-0.445,8.378-0.616,13.28c-0.079,3.697-0.2,7.445-0.322,11.184
	c-0.165,5.049-0.334,10.271-0.389,15.368c-0.175,8.054-1.785,22.653-5.502,30.088C46.625,130.93,44.894,132,43,132z M24.75,121.361
	c4.899,0.331,10.407,0.537,14.88,0.609c1.909-5.914,3.188-15.803,3.345-22.985c0.055-5.151,0.227-10.428,0.393-15.53
	c0.121-3.701,0.241-7.412,0.321-11.139c0.176-5.062,0.405-9.367,0.626-13.531c0.273-5.128,0.531-9.971,0.686-15.906
	c0.116-5.08,0.079-10.012,0.04-15.232C45.016,24.305,44.99,20.805,45,16.987c0-2.689-0.121-4.737-0.268-6.231
	c-5.029-0.286-13.652-0.73-18.571-0.73c-5.656,0-10.85,0.74-15.496,2.203C14.002,30.283,22.664,88.139,24.75,121.361z"/>
<path style="fill:#FEBF10;" d="M45.392,155.172c-4.105-13.324-22.497-5.501-27.42,2.687c-4.901,8.151-0.242,17.596,9.27,18.996
	C38.477,178.509,48.62,165.655,45.392,155.172z"/>
<path d="M29.193,181.962c-0.894,0-1.787-0.063-2.677-0.194c-6.208-0.912-11.408-4.621-13.912-9.922
	c-2.483-5.257-2.087-11.291,1.086-16.556c4.003-6.643,14.937-13.253,24.204-12.125c6.042,0.737,10.402,4.483,12.276,10.55v0.001
	c2.056,6.659,0.179,14.477-4.899,20.401C40.962,179.144,35.104,181.962,29.193,181.962z M35.7,153.033
	c-4.859,0-11.334,3.916-13.446,7.419c-1.436,2.383-1.652,4.912-0.608,7.123c1.087,2.301,3.391,3.867,6.322,4.298
	c3.368,0.496,6.997-1.1,9.709-4.264c2.864-3.342,3.989-7.535,2.937-10.944c-0.697-2.254-1.873-3.322-3.932-3.574
	C36.364,153.053,36.036,153.033,35.7,153.033z"/>
</svg>
