<?xml version="1.0" encoding="iso-8859-1"?>
<!-- Generator: Adobe Illustrator 22.1.0, SVG Export Plug-In . SVG Version: 6.00 Build 0)  -->
<svg version="1.1" id="Layer_1" xmlns="http://www.w3.org/2000/svg" xmlns:xlink="http://www.w3.org/1999/xlink" x="0px" y="0px"
	 viewBox="0 0 137 199" style="enable-background:new 0 0 137 199;" xml:space="preserve">
<path style="fill:#14B6B9;" d="M44,108c-2.779-16.645-4.041-36.301-6-53c-1.949-16.613-1.599-30.269-3-47c17-3,38.08-2.46,56-3
	c0.591-0.018,1.483,0.454,1.958,0.806c0.555,0.411,0.703,1.165,0.809,1.847C94.956,15.293,94.9,23,95,31
	c0.304,24.393-0.046,46.365,3,72c0.21,1.765,1,11,2,13c0,0,15.705,1.815,17,2c7,1,13,2,15,3
	c-9.442,6.311-18.786,20.679-25.677,29.706C95.105,165.402,87.56,180.762,74,193c-0.655,0.591-2,1-3,1s-2.505-1.328-3-2
	c-9.873-13.415-21.567-31.567-33-43c-9-9-27.762-22.976-30-32c12.624-0.671,27.561-1.987,39.955-4.48L44,108z"/>
<path d="M71,199c-4.009,0-6.996-3.995-7.026-4.035c-2.535-3.445-5.139-7.127-7.894-11.024
	c-7.682-10.863-16.387-23.176-24.615-31.405c-2.371-2.371-5.534-5.177-8.882-8.148c-10.049-8.917-20.44-18.136-22.436-26.184
	c-0.359-1.448-0.054-2.98,0.834-4.179s2.264-1.938,3.753-2.018c9.444-0.501,22.54-1.503,34.285-3.479
	c-1.802-10.877-2.965-22.919-4.09-34.568c-0.623-6.453-1.212-12.549-1.896-18.378c-1.139-9.701-1.514-18.568-1.877-27.143
	c-0.271-6.38-0.55-12.978-1.14-20.022c-0.216-2.576,1.567-4.892,4.113-5.341c13.34-2.354,28.688-2.586,43.532-2.811
	c4.603-0.069,8.95-0.135,13.187-0.263c2.299-0.078,4.331,1.227,5.087,1.788c2.234,1.651,2.625,4.151,2.771,5.092
	c1.114,7.166,1.187,14.109,1.263,21.461L100,30.938c0.048,3.87,0.079,7.679,0.111,11.451c0.166,19.912,0.322,38.719,2.854,60.021
	c0.036,0.302,0.089,0.812,0.155,1.463c0.372,3.639,0.673,6.016,0.912,7.561c4.773,0.554,12.702,1.478,13.675,1.617
	c9.896,1.414,14.222,2.324,16.529,3.478c1.593,0.797,2.642,2.381,2.754,4.159c0.111,1.777-0.73,3.48-2.212,4.47
	c-6.863,4.587-14.214,14.631-20.12,22.702c-1.534,2.097-2.984,4.078-4.36,5.881c-3.686,4.828-7.037,9.838-10.278,14.683
	c-6.498,9.714-13.218,19.759-22.67,28.289C75.479,198.4,72.761,199,71,199z M13.304,121.492c4.007,4.849,10.636,10.73,15.916,15.416
	c3.463,3.073,6.734,5.975,9.315,8.557c8.832,8.832,17.799,21.514,25.71,32.703c2.564,3.627,4.996,7.066,7.338,10.264
	c8.047-7.514,13.92-16.293,20.125-25.569c3.326-4.973,6.766-10.115,10.641-15.19c1.315-1.723,2.735-3.664,4.24-5.719
	c4.299-5.875,9.307-12.717,14.67-18.259c-1.421-0.225-3.064-0.473-4.966-0.745c-0.901-0.129-10.581-1.256-16.867-1.983
	c-1.677-0.194-3.143-1.221-3.897-2.731c-0.933-1.865-1.527-5.232-2.356-13.346c-0.06-0.578-0.104-1.03-0.137-1.299
	c-2.597-21.85-2.755-40.924-2.924-61.119c-0.031-3.759-0.062-7.554-0.111-11.41l-0.028-2.615c-0.066-6.392-0.13-12.46-0.91-18.391
	c-3.64,0.093-7.353,0.149-11.247,0.208c-12.772,0.193-25.928,0.392-37.479,1.965c0.377,5.502,0.598,10.712,0.812,15.788
	c0.371,8.778,0.723,17.069,1.817,26.4c0.696,5.931,1.289,12.076,1.918,18.582c1.115,11.546,2.269,23.484,4.03,34.071l0.933,4.416
	c0.276,1.306,0.019,2.667-0.715,3.782s-1.883,1.89-3.19,2.153C35.463,119.529,23.39,120.768,13.304,121.492z"/>
</svg>
