<?xml version="1.0" encoding="iso-8859-1"?>
<!-- Generator: Adobe Illustrator 22.1.0, SVG Export Plug-In . SVG Version: 6.00 Build 0)  -->
<svg version="1.1" id="Layer_1" xmlns="http://www.w3.org/2000/svg" xmlns:xlink="http://www.w3.org/1999/xlink" x="0px" y="0px"
	 viewBox="0 0 137 199" style="enable-background:new 0 0 137 199;" xml:space="preserve">
<path style="fill:#14B6B9;" d="M44,91c-2.779,16.645-4.041,36.301-6,53c-1.949,16.613-1.599,30.269-3,47c17,3,38.08,2.46,56,3
	c0.591,0.018,1.483-0.454,1.958-0.806c0.555-0.411,0.703-1.165,0.809-1.847C94.956,183.707,94.9,176,95,168
	c0.304-24.393-0.046-46.365,3-72c0.21-1.765,1-11,2-13c0,0,15.705-1.815,17-2c7-1,13-2,15-3
	c-9.442-6.311-18.786-20.679-25.677-29.706C95.105,33.597,87.56,18.237,74,6c-0.655-0.591-2-1-3-1s-2.505,1.328-3,2
	c-9.873,13.415-21.567,31.567-33,43C26,59,7.238,72.975,5,82c12.624,0.671,27.561,1.987,39.955,4.48L44,91z"/>
<path style="fill:none;stroke:#000000;stroke-width:10;stroke-linejoin:round;stroke-miterlimit:10;" d="M44,91
	c-2.779,16.645-4.041,36.301-6,53c-1.949,16.613-1.599,30.269-3,47c17,3,38.08,2.46,56,3c0.591,0.018,1.483-0.454,1.958-0.806
	c0.555-0.411,0.703-1.165,0.809-1.847C94.956,183.707,94.9,176,95,168c0.304-24.393-0.046-46.365,3-72c0.21-1.765,1-11,2-13
	c0,0,15.705-1.815,17-2c7-1,13-2,15-3c-9.442-6.311-18.786-20.679-25.677-29.706C95.105,33.597,87.56,18.237,74,6
	c-0.655-0.591-2-1-3-1s-2.505,1.328-3,2c-9.873,13.415-21.567,31.567-33,43C26,59,7.238,72.975,5,82
	c12.624,0.671,27.561,1.987,39.955,4.48L44,91z"/>
<path d="M91.03,199c-0.06,0-0.119-0.001-0.179-0.003c-4.238-0.127-8.586-0.193-13.188-0.263
	c-14.844-0.225-30.192-0.457-43.532-2.811c-2.546-0.449-4.329-2.765-4.113-5.341c0.59-7.044,0.869-13.642,1.14-20.022
	c0.363-8.575,0.738-17.441,1.877-27.143c0.684-5.829,1.272-11.925,1.896-18.378c1.125-11.649,2.288-23.69,4.09-34.568
	c-11.745-1.975-24.841-2.977-34.285-3.479c-1.489-0.08-2.865-0.819-3.753-2.018s-1.193-2.731-0.834-4.179
	c1.995-8.048,12.387-17.268,22.436-26.184c3.348-2.971,6.511-5.777,8.882-8.148c8.229-8.229,16.934-20.542,24.615-31.405
	c2.755-3.897,5.358-7.579,7.893-11.023C64.004,3.994,66.991,0,71,0c1.761,0,4.479,0.6,6.351,2.289
	c9.451,8.529,16.171,18.574,22.669,28.288c3.241,4.845,6.593,9.855,10.278,14.683c1.376,1.803,2.826,3.784,4.36,5.881
	c5.906,8.071,13.257,18.115,20.12,22.702c1.481,0.99,2.323,2.693,2.212,4.47c-0.112,1.778-1.161,3.362-2.754,4.159
	c-2.308,1.154-6.634,2.064-16.529,3.478c-0.973,0.139-8.901,1.063-13.675,1.617c-0.239,1.544-0.54,3.921-0.912,7.561
	c-0.066,0.651-0.119,1.161-0.155,1.464c-2.531,21.302-2.688,40.109-2.854,60.021c-0.032,3.772-0.063,7.581-0.111,11.451
	l-0.029,2.595c-0.076,7.352-0.148,14.295-1.263,21.459c-0.146,0.943-0.537,3.443-2.778,5.1C95.2,197.756,93.275,199,91.03,199z
	 M40.336,186.77c11.551,1.573,24.706,1.772,37.479,1.965c3.894,0.059,7.606,0.115,11.247,0.208c0.78-5.93,0.844-11.999,0.91-18.391
	L90,167.938c0.049-3.856,0.08-7.651,0.111-11.41c0.169-20.194,0.327-39.269,2.924-61.118c0.032-0.27,0.077-0.722,0.137-1.3
	c0.829-8.114,1.424-11.481,2.356-13.346c0.755-1.51,2.221-2.537,3.897-2.731c6.286-0.727,15.966-1.854,16.867-1.983
	c1.901-0.271,3.545-0.52,4.966-0.745c-5.363-5.542-10.371-12.384-14.67-18.259c-1.505-2.055-2.925-3.997-4.24-5.719
	c-3.875-5.076-7.314-10.218-10.641-15.19c-6.205-9.275-12.079-18.056-20.125-25.569c-2.342,3.197-4.772,6.636-7.338,10.264
	c-7.911,11.189-16.878,23.872-25.71,32.703c-2.581,2.582-5.853,5.484-9.315,8.557c-5.28,4.686-11.909,10.567-15.916,15.416
	c10.086,0.724,22.159,1.962,32.638,4.07c1.308,0.263,2.457,1.039,3.19,2.153s0.991,2.477,0.715,3.782l-0.933,4.416
	c-1.762,10.587-2.915,22.525-4.03,34.071c-0.629,6.506-1.222,12.651-1.918,18.582c-1.095,9.332-1.446,17.623-1.817,26.4
	C40.934,176.058,40.713,181.268,40.336,186.77z"/>
</svg>
