<?xml version="1.0" encoding="iso-8859-1"?>
<!-- Generator: Adobe Illustrator 22.1.0, SVG Export Plug-In . SVG Version: 6.00 Build 0)  -->
<svg version="1.1" id="Layer_1" xmlns="http://www.w3.org/2000/svg" xmlns:xlink="http://www.w3.org/1999/xlink" x="0px" y="0px"
	 viewBox="0 0 199 137" style="enable-background:new 0 0 199 137;" xml:space="preserve">
<path style="fill:#FEBF10;" d="M91,93c16.645,2.779,36.301,4.041,53,6c16.613,1.949,30.269,1.599,47,3c3-17,2.46-38.08,3-56
	c0.018-0.591-0.454-1.483-0.806-1.958c-0.411-0.555-1.165-0.703-1.847-0.809C183.707,42.044,176,42.1,168,42
	c-24.393-0.304-46.365,0.046-72-3c-1.765-0.21-11-1-13-2c0,0-1.815-15.705-2-17c-1-7-2-13-3-15
	c-6.311,9.442-20.679,18.786-29.706,25.677C33.597,41.895,18.238,49.44,6,63c-0.591,0.655-1,2-1,3s1.328,2.505,2,3
	c13.415,9.873,31.567,21.567,43,33c9,9,22.976,27.762,32,30c0.671-12.624,1.987-27.561,4.48-39.955L91,93z"/>
<path d="M82,137c-0.402,0-0.806-0.048-1.204-0.147c-8.047-1.996-17.268-12.387-26.184-22.436c-2.971-3.348-5.777-6.511-8.148-8.881
	c-8.229-8.229-20.54-16.934-31.402-24.614c-3.898-2.756-7.581-5.36-11.025-7.895C3.997,72.998,0,70.011,0,66
	c0-1.759,0.599-4.478,2.288-6.35c8.531-9.453,18.576-16.172,28.291-22.67c4.845-3.241,9.855-6.592,14.683-10.278
	c1.804-1.377,3.787-2.828,5.886-4.364c8.069-5.905,18.11-13.254,22.696-20.116c0.99-1.481,2.702-2.313,4.471-2.212
	c1.778,0.112,3.362,1.161,4.159,2.754c1.154,2.308,2.064,6.633,3.478,16.529c0.139,0.973,1.063,8.902,1.617,13.675
	c1.546,0.239,3.926,0.541,7.57,0.913c0.646,0.066,1.152,0.118,1.453,0.154c21.304,2.531,40.111,2.688,60.022,2.854
	c3.772,0.031,7.581,0.063,11.451,0.111l2.601,0.029c7.35,0.076,14.292,0.148,21.454,1.263c0.939,0.146,3.438,0.534,5.096,2.774
	c0.561,0.757,1.855,2.768,1.785,5.087c-0.127,4.234-0.193,8.581-0.263,13.184c-0.225,14.843-0.457,30.192-2.811,43.532
	c-0.449,2.545-2.775,4.331-5.341,4.113c-7.043-0.589-13.64-0.869-20.019-1.139c-8.576-0.363-17.444-0.739-27.147-1.877
	c-5.83-0.684-11.925-1.272-18.379-1.896c-11.648-1.125-23.689-2.288-34.567-4.089c-1.974,11.741-2.977,24.839-3.479,34.285
	c-0.08,1.489-0.819,2.866-2.018,3.753C84.105,136.662,83.06,137,82,137z M10.568,65.417c3.199,2.343,6.638,4.774,10.267,7.34
	c11.188,7.911,23.87,16.877,32.701,25.708c2.582,2.582,5.484,5.853,8.557,9.316c4.686,5.28,10.567,11.909,15.416,15.916
	c0.725-10.087,1.963-22.163,4.07-32.637c0.263-1.308,1.038-2.457,2.153-3.191c1.116-0.733,2.478-0.99,3.782-0.715l4.415,0.933
	c10.587,1.762,22.525,2.915,34.072,4.03c6.506,0.628,12.651,1.222,18.583,1.918c9.333,1.095,17.625,1.446,26.405,1.818
	c5.074,0.215,10.283,0.436,15.783,0.812c1.573-11.551,1.772-24.707,1.965-37.479c0.059-3.894,0.115-7.606,0.208-11.247
	c-5.93-0.781-11.995-0.844-18.385-0.91L167.938,47c-3.856-0.048-7.651-0.08-11.41-0.111c-20.194-0.168-39.269-0.328-61.118-2.924
	c-0.267-0.031-0.716-0.077-1.29-0.136C86,43,82.63,42.405,80.764,41.472c-1.51-0.755-2.537-2.221-2.731-3.898
	c-0.727-6.286-1.854-15.965-1.983-16.867c-0.271-1.901-0.52-3.545-0.745-4.965c-5.54,5.361-12.381,10.368-18.253,14.666
	c-2.057,1.506-4,2.928-5.724,4.244c-5.076,3.875-10.218,7.314-15.19,10.641C26.862,51.497,18.081,57.371,10.568,65.417z"/>
</svg>
