<?xml version="1.0" encoding="iso-8859-1"?>
<!-- Generator: Adobe Illustrator 22.1.0, SVG Export Plug-In . SVG Version: 6.00 Build 0)  -->
<svg version="1.1" id="Layer_1" xmlns="http://www.w3.org/2000/svg" xmlns:xlink="http://www.w3.org/1999/xlink" x="0px" y="0px"
	 viewBox="0 0 199 137" style="enable-background:new 0 0 199 137;" xml:space="preserve">
<path style="fill:#FEBF10;" d="M108,93c-16.645,2.779-36.301,4.041-53,6c-16.613,1.949-30.269,1.599-47,3C5,85,5.54,63.92,5,46
	c-0.018-0.591,0.454-1.483,0.806-1.958c0.411-0.555,1.165-0.703,1.847-0.809C15.293,42.044,23,42.1,31,42
	c24.393-0.304,46.365,0.046,72-3c1.765-0.21,11-1,13-2c0,0,1.815-15.705,2-17c1-7,2-13,3-15
	c6.311,9.442,20.679,18.786,29.706,25.677C165.403,41.895,180.762,49.44,193,63c0.591,0.655,1,2,1,3s-1.328,2.505-2,3
	c-13.415,9.873-31.567,21.567-43,33c-9,9-22.976,27.762-32,30c-0.671-12.624-1.987-27.561-4.48-39.955L108,93z"/>
<path d="M117,137c-1.061,0-2.105-0.338-2.975-0.981c-1.199-0.887-1.938-2.264-2.018-3.753c-0.502-9.445-1.504-22.543-3.479-34.285
	c-10.877,1.801-22.918,2.964-34.567,4.089c-6.454,0.624-12.549,1.212-18.379,1.896c-9.703,1.139-18.571,1.514-27.147,1.877
	c-6.379,0.27-12.976,0.55-20.019,1.139c-2.574,0.216-4.892-1.568-5.341-4.113C0.723,89.529,0.49,74.18,0.266,59.337
	c-0.069-4.603-0.135-8.95-0.263-13.187c-0.071-2.317,1.224-4.327,1.784-5.084c1.659-2.241,4.158-2.628,5.098-2.775
	c7.161-1.114,14.103-1.186,21.452-1.262L30.938,37c3.87-0.048,7.679-0.08,11.451-0.111c19.912-0.167,38.719-0.323,60.022-2.854
	c0.301-0.036,0.807-0.088,1.454-0.154c3.644-0.372,6.024-0.673,7.57-0.913c0.554-4.773,1.478-12.702,1.617-13.675
	c1.414-9.896,2.324-14.221,3.478-16.529c0.797-1.593,2.381-2.643,4.159-2.754c1.779-0.101,3.481,0.731,4.471,2.212
	c4.586,6.862,14.627,14.211,22.696,20.116c2.099,1.536,4.082,2.987,5.886,4.365c4.827,3.685,9.837,7.036,14.682,10.277
	c9.714,6.498,19.76,13.218,28.29,22.67C198.401,61.522,199,64.241,199,66c0,4.011-3.997,6.998-4.038,7.027
	c-3.444,2.535-7.126,5.138-11.024,7.895c-10.862,7.68-23.174,16.385-31.402,24.614c-2.371,2.371-5.177,5.533-8.148,8.881
	c-8.917,10.049-18.137,20.44-26.184,22.436C117.807,136.952,117.402,137,117,137z M112.521,87.045c0.97,0,1.926,0.282,2.749,0.823
	c1.115,0.734,1.89,1.883,2.153,3.191c2.106,10.474,3.345,22.55,4.07,32.637c4.849-4.007,10.73-10.636,15.416-15.916
	c3.073-3.463,5.975-6.734,8.557-9.316c8.831-8.831,21.512-17.797,32.701-25.708c3.628-2.566,7.068-4.998,10.267-7.34
	c-7.513-8.045-16.294-13.92-25.57-20.125c-4.973-3.326-10.114-6.766-15.19-10.64c-1.725-1.316-3.667-2.738-5.725-4.244
	c-5.872-4.298-12.713-9.304-18.253-14.666c-0.225,1.42-0.473,3.063-0.745,4.965c-0.129,0.902-1.256,10.581-1.983,16.867
	c-0.194,1.677-1.221,3.143-2.731,3.898C116.37,42.405,113,43,104.88,43.829c-0.574,0.059-1.023,0.104-1.291,0.136
	c-21.849,2.596-40.923,2.755-61.118,2.923c-3.759,0.031-7.554,0.063-11.41,0.111l-2.621,0.029c-6.39,0.066-12.456,0.129-18.385,0.91
	c0.093,3.641,0.149,7.354,0.208,11.247c0.193,12.772,0.392,25.928,1.965,37.479c5.5-0.377,10.709-0.598,15.783-0.812
	c8.779-0.372,17.072-0.723,26.405-1.818c5.931-0.696,12.077-1.29,18.583-1.918c11.546-1.115,23.484-2.269,34.072-4.03l4.415-0.933
	C111.83,87.081,112.176,87.045,112.521,87.045z"/>
</svg>
