<?xml version="1.0" encoding="iso-8859-1"?>
<!-- Generator: Adobe Illustrator 22.1.0, SVG Export Plug-In . SVG Version: 6.00 Build 0)  -->
<svg version="1.1" id="Layer_1" xmlns="http://www.w3.org/2000/svg" xmlns:xlink="http://www.w3.org/1999/xlink" x="0px" y="0px"
	 viewBox="0 0 190 152" style="enable-background:new 0 0 190 152;" xml:space="preserve">
<path style="fill:#FEBF10;" d="M87,82c16.645,2.779,34.301,2.041,51,4c1,0-1,59,2,60c0,0,44,1,45,0
	c0.418-0.418-1.454-107.483-1.806-107.958c-0.411-0.555-1.165-0.703-1.847-0.809C173.707,36.043,166,36.099,158,36
	c-20.394-0.254-36.419,0.515-66-3c-1.765-0.21-11-1-13-2L74,5c0,0-18.679,12.786-27.706,19.677C31.597,35.895,18.238,43.44,6,57
	c-0.591,0.655-1,2-1,3s1.328,2.505,2,3c13.415,9.873,74,48,74,48s0-31-0.52-29.955L87,82z"/>
<path d="M140,152c-0.538,0-1.071-0.087-1.582-0.257c-4.045-1.349-4.672-5.156-5.017-19.573c-0.203-8.456-0.157-18.797-0.116-27.92
	c0.021-4.912,0.045-10.26,0.004-13.713c-5.827-0.534-11.835-0.811-17.682-1.079c-9.682-0.445-19.694-0.905-29.381-2.518l-0.407-0.06
	c0.049,2.38,0.089,5.443,0.119,9.131C86,103.514,86,111,86,111c0,1.82-0.989,3.497-2.583,4.377c-1.593,0.881-3.54,0.826-5.08-0.146
	c-2.48-1.561-60.893-38.337-74.3-48.204C3.995,66.996,0,64.008,0,60c0-1.761,0.6-4.479,2.289-6.351
	c9.109-10.094,18.691-16.9,28.836-24.107c3.936-2.796,8.005-5.687,12.136-8.84c9.026-6.891,27.148-19.303,27.915-19.828
	c1.39-0.953,3.166-1.14,4.727-0.498c1.559,0.642,2.689,2.024,3.008,3.68l4.398,22.872c1.533,0.245,3.97,0.559,7.817,0.952
	c0.652,0.066,1.162,0.119,1.465,0.155c23.608,2.805,38.381,2.849,54.022,2.895c3.74,0.011,7.514,0.021,11.45,0.07l2.606,0.029
	c7.348,0.076,14.288,0.147,21.448,1.263c0.936,0.145,3.434,0.531,5.095,2.771c1.073,1.45,1.073,1.45,1.471,19.88
	c0.212,9.825,0.468,23.316,0.703,37.013c0.244,14.246,0.442,27.388,0.558,37.005c0.061,5.068,0.101,9.301,0.113,12.279
	c0.023,5.978,0.027,6.745-1.52,8.293C186.743,151.329,186.072,152,140,152z M138.582,81.034c1.121,0.134,2.184,0.646,2.984,1.45
	c1.807,1.814,1.807,1.814,1.718,21.81c-0.049,11.009-0.134,30.157,0.574,37.702c14.425-0.028,29.331-0.212,36.197-0.513
	c-0.083-17.353-1.204-83.771-1.688-99.618c-5.747-0.712-11.624-0.772-17.804-0.837L157.938,41c-3.903-0.049-7.646-0.06-11.354-0.07
	c-15.938-0.047-30.991-0.092-55.173-2.965c-0.27-0.032-0.722-0.078-1.3-0.137c-8.113-0.829-11.481-1.424-13.346-2.356
	c-1.392-0.695-2.38-1.999-2.674-3.527l-3.553-18.478c-6.238,4.332-15.646,10.938-21.208,15.185
	c-4.267,3.257-8.408,6.198-12.412,9.043C27.561,44.34,18.707,50.63,10.568,59.413c11.113,8.038,48.993,32.116,65.41,42.503
	c-0.044-9.045-0.152-17.215-0.309-19.509c-0.336-1.186-0.225-2.467,0.335-3.592c1.035-2.076,3.391-3.196,5.649-2.663
	c0.039,0.009,0.078,0.019,0.116,0.028l5.956,0.872c0.033,0.005,0.066,0.01,0.099,0.016c9.113,1.521,18.838,1.968,28.243,2.4
	C123.479,79.81,131.146,80.162,138.582,81.034L138.582,81.034z M137.991,91c0.003,0,0.006,0,0.009,0
	C137.997,91,137.994,91,137.991,91z M137.322,90.955c0.215,0.029,0.438,0.045,0.667,0.045c-0.191,0-0.382-0.012-0.572-0.034
	C137.385,90.962,137.354,90.959,137.322,90.955z"/>
</svg>
