<?xml version="1.0" encoding="iso-8859-1"?>
<!-- Generator: Adobe Illustrator 22.1.0, SVG Export Plug-In . SVG Version: 6.00 Build 0)  -->
<svg version="1.1" id="Layer_1" xmlns="http://www.w3.org/2000/svg" xmlns:xlink="http://www.w3.org/1999/xlink" x="0px" y="0px"
	 viewBox="0 0 190 152" style="enable-background:new 0 0 190 152;" xml:space="preserve">
<path style="fill:#FEBF10;" d="M103.06,82c-16.645,2.779-34.301,2.041-51,4c-1,0,1,60-2,61c0,0-44,1-45,0
	C4.642,146.581,6.514,38.517,6.866,38.041c0.411-0.555,1.165-0.703,1.847-0.809C16.353,36.043,24.06,36.099,32.06,36
	c20.394-0.254,36.419,0.515,66-3c1.765-0.21,11-1,13-2l5-26c0,0,18.679,12.786,27.706,19.677
	C158.463,35.895,171.823,43.44,184.06,57c0.591,0.655,1,2,1,3s-1.328,2.505-2,3c-13.415,9.873-74,48-74,48s0-31,0.52-29.955
	L103.06,82z"/>
<path d="M5.001,152c-1.338,0-2.621-0.536-3.561-1.489c-0.94-0.952-1.458-2.242-1.44-3.58c0,0,0.378-27.125,0.801-54.31
	c0.211-13.596,0.434-27.207,0.625-37.448c0.349-18.657,0.349-18.657,1.418-20.104c1.665-2.245,4.163-2.632,5.104-2.777
	c7.156-1.114,14.096-1.186,21.444-1.262L31.999,31c3.936-0.049,7.709-0.06,11.449-0.07c15.641-0.046,30.414-0.09,54.023-2.895
	c0.302-0.036,0.812-0.089,1.464-0.155c3.847-0.394,6.284-0.707,7.817-0.952l4.398-22.872c0.318-1.655,1.449-3.038,3.008-3.68
	c1.56-0.641,3.336-0.455,4.727,0.498c0.767,0.525,18.889,12.938,27.916,19.828c4.13,3.153,8.2,6.044,12.135,8.84
	c10.145,7.207,19.727,14.014,28.837,24.108c1.688,1.87,2.288,4.589,2.288,6.35c0,4.008-3.995,6.996-4.036,7.026
	c-13.409,9.868-71.821,46.645-74.301,48.205c-1.541,0.971-3.487,1.025-5.08,0.146c-1.594-0.88-2.583-2.557-2.583-4.377
	c0,0,0-7.486,0.062-14.988c0.03-3.688,0.07-6.751,0.119-9.131l-0.407,0.06c-9.688,1.612-19.699,2.072-29.381,2.518
	c-5.9,0.271-11.964,0.55-17.841,1.094c-0.42,9.715-0.615,36.965-0.612,55.447c0,2.715-2.165,4.934-4.878,4.999
	C49.445,151.039,10.004,151.999,5.001,152z M11.709,41.862c-0.354,13.341-1.118,63.292-1.637,100.063
	c9.15-0.171,27.249-0.599,35.935-0.807c0.013-5.909,0.049-16.354,0.148-26.667c0.081-8.363,0.188-15.018,0.319-19.777
	c0.078-2.843,0.167-5.056,0.263-6.576c0.131-2.067,0.433-6.835,4.942-7.088c7.374-0.855,14.968-1.204,22.314-1.542
	c9.405-0.433,19.13-0.88,28.243-2.4c0.033-0.006,0.066-0.011,0.099-0.016l5.956-0.872c0.038-0.01,0.077-0.02,0.116-0.028
	c2.26-0.53,4.615,0.586,5.649,2.663c0.56,1.125,0.671,2.406,0.335,3.592c-0.157,2.294-0.265,10.464-0.309,19.509
	c16.417-10.387,54.296-34.464,65.41-42.503c-8.14-8.784-16.993-15.073-26.348-21.719c-4.004-2.845-8.145-5.786-12.412-9.043
	c-5.562-4.247-14.971-10.853-21.208-15.184l-3.553,18.477c-0.294,1.528-1.282,2.832-2.674,3.527
	c-1.865,0.933-5.232,1.527-13.346,2.356c-0.578,0.059-1.031,0.104-1.299,0.137c-24.184,2.873-39.237,2.918-55.174,2.965
	c-3.709,0.011-7.452,0.021-11.354,0.07l-2.627,0.028C23.32,41.093,17.448,41.153,11.709,41.862z M52.07,91c-0.003,0-0.006,0-0.009,0
	C52.063,91,52.067,91,52.07,91z M52.799,90.947c-0.052,0.007-0.104,0.013-0.156,0.019C52.453,90.988,52.261,91,52.07,91
	C52.322,91,52.565,90.981,52.799,90.947z"/>
</svg>
