<?xml version="1.0" encoding="iso-8859-1"?>
<!-- Generator: Adobe Illustrator 22.1.0, SVG Export Plug-In . SVG Version: 6.00 Build 0)  -->
<svg version="1.1" id="Layer_1" xmlns="http://www.w3.org/2000/svg" xmlns:xlink="http://www.w3.org/1999/xlink" x="0px" y="0px"
	 viewBox="0 0 193 193" style="enable-background:new 0 0 193 193;" xml:space="preserve">
<path style="fill:#F6851F;" d="M165,69v12c0,0-44.053-2.1-44.174-2.16c-0.814,0.211-1.645-0.755-1.826-1.84
	c-0.301-1.959-1.844-47-1-47h14c-1.326-1.176-33-25-33-25c-3,3-23.33,15.78-32.855,22.923h10.459C78.051,27.923,78,30,78,30
	c0,5-0.78,42.019-1,47c-4.981,0.22-42.051,0.97-46,1c-1,0-3.062,0.036-3.062-1.411L28,66c-7.144,9.525-23,35-23,35
	s21.824,28.674,23,30v-11c0-0.844,48.041-1.301,50-1c1.085,0.181,3.934,42.553,3,44c-0.633,0.995-13,2-13,2
	c1.145,1.085,28.279,21.689,30.328,22.985c3.798-4.853,33.25-22.473,33.672-22.985c-2.411-0.151-9.586,0.348-9.888,0.016
	c-0.543-0.181-0.965-0.633-0.965-1.387c0-7.596-1.148-39.547-1.148-43.63c4.083,0,36.404,1,44,1c0.754,0,1.849,8.589,2,11
	c0.512-0.422,22-33,22-33.687C186.704,96.264,166.085,70.145,165,69z"/>
<path d="M98.293,192.972c-0.91,0-1.826-0.246-2.639-0.762c-2.269-1.436-29.583-22.15-31.093-23.58
	c-1.433-1.356-1.933-3.43-1.278-5.29c0.656-1.861,2.344-3.163,4.311-3.323c2.887-0.235,6.261-0.598,8.596-0.936
	c-0.128-7.73-1.427-27.166-2.344-35.175c-9.011-0.04-31.541,0.21-40.847,0.626V131c0,2.077-1.284,3.938-3.226,4.675
	c-1.939,0.736-4.137,0.197-5.515-1.357c-1.206-1.36-18.091-23.527-23.237-30.289c-1.257-1.651-1.363-3.908-0.266-5.671
	C1.407,97.311,16.809,72.589,24,63c1.294-1.725,3.55-2.425,5.595-1.739c2.045,0.688,3.418,2.61,3.405,4.769l-0.041,6.942
	c7.193-0.117,29.095-0.56,39.189-0.824c0.262-9.797,0.706-30.855,0.822-39.225h-6.827c-2.152,0-4.063-1.377-4.744-3.419
	c-0.68-2.042,0.022-4.29,1.744-5.581c4.545-3.409,11.247-7.905,17.729-12.255c5.941-3.985,13.334-8.946,14.591-10.203
	c1.762-1.764,4.551-1.958,6.541-0.461c7.468,5.617,31.941,24.04,33.312,25.255c1.554,1.378,2.095,3.573,1.358,5.515
	C135.938,33.716,134.077,35,132,35h-9.257c0.004,9.36,0.695,31.442,1.069,38.998c6.277,0.319,22.713,1.113,36.188,1.758V69
	c0-2.047,1.248-3.888,3.149-4.645c1.903-0.759,4.073-0.279,5.481,1.206c1.074,1.135,22.037,27.615,23.595,30.079
	c0.506,0.8,0.774,1.727,0.774,2.673c0,1.895,0,1.968-11.628,19.686c-11.165,17.014-11.53,17.314-12.193,17.86
	c-1.45,1.195-3.446,1.476-5.17,0.727c-1.723-0.748-2.881-2.398-2.999-4.273c-0.093-1.481-0.441-4.229-0.788-6.353
	c-5.828-0.096-15.38-0.349-24.023-0.576c-4.092-0.108-8.059-0.213-11.085-0.285c0.083,2.991,0.203,6.903,0.326,10.938
	c0.266,8.67,0.559,18.265,0.666,24.042c0.235-0.007,0.462-0.014,0.672-0.021c2.17-0.066,4.22-0.129,5.533-0.048
	c1.875,0.117,3.526,1.274,4.274,2.997c0.749,1.723,0.469,3.72-0.725,5.17c-0.62,0.754-0.62,0.754-5.797,3.989
	c-16.817,10.509-26.17,16.869-27.8,18.902C101.274,192.305,99.791,192.972,98.293,192.972z M80.585,168.429
	c5.946,4.532,13.274,10.067,17.375,13.115c4.057-3.257,10.852-7.781,19.88-13.505c-1.073-1.157-1.693-2.705-1.693-4.409
	c0-4.306-0.39-17.049-0.703-27.288C115.196,128.22,115,121.804,115,120c0-2.762,2.239-5,5-5c1.793,0,8.267,0.171,16.463,0.387
	C146.808,115.66,159.683,116,164,116c2.444,0,3.838,1.282,4.701,3.061c4.681-7.076,10.565-16.077,13.312-20.438
	c-2.686-3.511-7.847-10.098-12.355-15.805c-0.263,0.675-0.673,1.291-1.208,1.802c-0.989,0.943-2.317,1.445-3.688,1.375
	c0,0-11.015-0.525-22.044-1.058c-13.048-0.63-18.725-0.904-21.377-1.113c-1.406,0.179-2.827-0.148-4.069-0.955
	c-1.658-1.076-2.855-2.963-3.203-5.045c-0.278-1.804-0.792-17.614-0.986-24.56c-0.681-24.433-0.444-24.709,1.097-26.505
	c0.794-0.926,1.911-1.533,3.108-1.707c-5.585-4.225-12.345-9.321-18.206-13.732c-2.771,2.021-6.943,4.832-12.638,8.653
	c-2.007,1.346-4.102,2.752-6.164,4.148c0.265,0.195,0.515,0.414,0.75,0.653c1.834,1.88,1.979,4.403,1.97,5.262
	c-0.003,5.385-0.79,42.299-1.005,47.185c-0.114,2.588-2.187,4.66-4.775,4.774C72.135,82.22,34.775,82.972,31.038,83
	c-0.011,0-0.094,0-0.105,0c-0.734-0.015-1.958,0.001-3.25-0.366c-1.466-0.417-2.669-1.236-3.497-2.316
	c-4.99,7.543-10.372,16.046-13.112,20.405c3.993,5.242,8.741,11.465,12.689,16.622c0.269-0.435,0.604-0.829,0.997-1.166
	c1.676-1.438,2.024-1.736,27.809-2.113c0.978-0.015,23.987-0.347,26.192-0.007c1.757,0.292,3.199,1.43,3.917,3.053
	c0.334,0.758,1.224,2.77,2.635,24.075c1.463,22.086,0.87,23.005-0.113,24.525C84.494,166.823,83.735,167.682,80.585,168.429z
	 M78.801,158.589L78.801,158.589C78.801,158.589,78.801,158.589,78.801,158.589z"/>
</svg>
