<?xml version="1.0" encoding="iso-8859-1"?>
<!-- Generator: Adobe Illustrator 22.1.0, SVG Export Plug-In . SVG Version: 6.00 Build 0)  -->
<svg version="1.1" id="Layer_1" xmlns="http://www.w3.org/2000/svg" xmlns:xlink="http://www.w3.org/1999/xlink" x="0px" y="0px"
	 viewBox="0 0 201 201" style="enable-background:new 0 0 201 201;" xml:space="preserve">
<path style="fill:#D6E5E5;" d="M93.371,5.797c-17.265,2.014-34.214,7.8-47.565,16.821C29.278,33.787,16.013,50.585,9.46,70
	c-4.113,12.184-5.583,25.398-3.558,38.899c0.332,2.215,0.753,4.415,1.254,6.593c2.85,12.397,8.25,26.16,15.508,38.509
	C30.58,167.47,39.56,177.497,51,184c0.615,0.35,2.379,2.452,3,2.782c29.395,15.652,65.039,9.971,93.069-6.54
	c0.689-0.406,1.378-0.82,2.067-1.242c11.765-7.213,23.241-16.747,30.822-28.94c1.063-1.71,2.078-3.464,3.044-5.257
	c13.454-24.985,17.273-57.556,7.623-84.97C185.995,46.686,178.945,37.647,169,29c-0.784-0.682-2.591-3.348-3.398-4
	c-3.057-2.47-6.272-4.725-9.602-6.757c-4.839-2.952-9.923-5.434-15.125-7.421C126.662,5.391,109.872,3.872,93.371,5.797z"/>
<path d="M92.375,201.043c-14.456,0.001-28.353-3.26-40.725-9.848c-0.954-0.507-1.675-1.222-2.771-2.346
	c-0.209-0.215-0.5-0.514-0.691-0.698c-11.605-6.687-21.094-16.745-29.834-31.618c-7.301-12.422-13.008-26.6-16.071-39.922
	c-0.532-2.312-0.978-4.658-1.325-6.97C-1.116,95.816,0.151,81.942,4.723,68.4c6.784-20.097,20.38-37.827,38.283-49.925
	C56.658,9.25,74.339,2.983,92.792,0.831V0.83c18.018-2.1,35.26-0.262,49.867,5.32c5.541,2.117,10.905,4.749,15.945,7.823
	c3.547,2.165,6.959,4.566,10.141,7.138c0.808,0.652,1.517,1.533,2.588,2.906c0.329,0.422,0.817,1.047,1.032,1.283
	c11.526,10.039,18.399,19.876,22.975,32.872c9.749,27.698,6.709,61.801-7.937,89.001c-1.013,1.881-2.09,3.74-3.2,5.526
	c-7.11,11.437-18.03,21.719-32.454,30.562c-0.714,0.438-1.428,0.866-2.143,1.287C131.025,195.496,111.227,201.042,92.375,201.043z
	 M56.738,182.574c25.359,13.298,58.139,10.829,87.792-6.64c0.664-0.392,1.329-0.791,1.993-1.198
	c13.085-8.022,22.905-17.213,29.188-27.316c1.001-1.61,1.973-3.289,2.888-4.987c13.353-24.799,16.152-55.813,7.308-80.939
	c-3.971-11.281-10.008-19.87-20.187-28.72c-0.74-0.644-1.449-1.552-2.271-2.604c-0.329-0.422-0.865-1.109-1.111-1.379
	c-2.808-2.26-5.815-4.371-8.942-6.28c-4.52-2.757-9.333-5.118-14.305-7.018c-12.923-4.938-28.954-6.617-45.141-4.729l0,0
	c-16.891,1.971-32.995,7.652-45.345,15.997C32.505,37.641,20.285,53.564,14.197,71.6c-4.059,12.021-5.186,24.321-3.352,36.558
	c0.31,2.058,0.707,4.148,1.183,6.213c2.841,12.355,8.148,25.53,14.946,37.097c7.902,13.446,16.321,22.402,26.496,28.187
	c0.872,0.495,1.544,1.164,2.568,2.215C56.236,182.071,56.534,182.376,56.738,182.574z M48.479,188.318
	c0.018,0.01,0.035,0.02,0.051,0.028C48.513,188.337,48.496,188.328,48.479,188.318z M56.906,182.73L56.906,182.73L56.906,182.73z
	 M162.459,28.888c0.001,0.001,0.002,0.002,0.002,0.002C162.46,28.89,162.46,28.889,162.459,28.888z M172.28,25.227
	c0.006,0.005,0.012,0.01,0.019,0.016C172.292,25.236,172.286,25.231,172.28,25.227z"/>
<path style="fill:#EF4823;" d="M122.556,132.673c7.381,0,7.122-0.49,14.444-1.327c-1.468-5.411-1.026-7.519-1.158-13.089
	c-0.621-26.091-1.109-25.164-1.73-51.255c-11.383-0.059-9.562,0.723-20.944,0.663C111.084,75.447,111,86.24,111,94.863
	c0,19.9,2.889,37.147,2.889,39.137C113.889,134,116.778,132.673,122.556,132.673z"/>
<path d="M113.768,139.1c-0.902,0-1.801-0.267-2.628-0.773c-1.482-0.909-2.251-2.587-2.251-4.326
	c-0.017-0.305-0.202-1.823-0.383-3.293c-0.813-6.628-2.506-20.419-2.506-35.844c0-9.998,0.181-20.435,2.337-28.489
	c0.588-2.196,2.631-3.72,4.855-3.707c5.503,0.025,7.715-0.141,10.069-0.317c2.45-0.186,4.987-0.368,10.875-0.347
	c2.705,0.014,4.909,2.177,4.974,4.881c0.309,12.996,0.59,19.366,0.861,25.527c0.273,6.21,0.557,12.632,0.869,25.728
	c0.031,1.334,0.031,2.475,0.031,3.512c-0.001,3.141-0.001,4.87,0.953,8.387c0.382,1.406,0.131,2.91-0.688,4.116
	c-0.817,1.206-2.122,1.995-3.57,2.161c-2.291,0.262-3.774,0.482-5.083,0.678c-2.852,0.425-4.572,0.681-9.929,0.681
	c-4.404,0-6.647,0.901-6.67,0.911C115.2,138.933,114.482,139.1,113.768,139.1z M117.207,72.648C116,79.757,116,88.652,116,94.863
	c0,13.688,1.402,26.154,2.238,33.043c1.257-0.142,2.695-0.233,4.317-0.233c4.616,0,5.899-0.191,8.455-0.571
	c0.022-0.004,0.046-0.007,0.068-0.011c-0.208-1.897-0.208-3.562-0.207-5.442c0-0.966,0.001-2.03-0.029-3.272
	c-0.309-12.994-0.59-19.364-0.861-25.524c-0.237-5.379-0.481-10.916-0.745-20.811c-2.272,0.057-3.72,0.166-5.221,0.279
	C122.221,72.456,120.381,72.596,117.207,72.648z"/>
<path style="fill:#EF4823;" d="M72.556,68.327c7.381,0,7.122,0.49,14.444,1.327c-1.468,5.411-1.026,7.519-1.159,13.089
	c-0.621,26.091-1.109,25.164-1.73,51.255c-11.383,0.059-9.562-0.723-20.944-0.663C61.084,125.553,61,114.76,61,106.137
	c0-19.9,2.889-37.147,2.889-39.137C63.889,67,66.778,68.327,72.556,68.327z"/>
<path d="M82.932,139c-5.047,0-7.395-0.177-9.67-0.35c-2.354-0.177-4.569-0.341-10.069-0.317c-0.008,0-0.017,0-0.025,0
	c-2.263,0-4.244-1.52-4.83-3.707C56.181,126.571,56,116.135,56,106.137c0-15.425,1.692-29.216,2.506-35.844
	c0.181-1.47,0.366-2.988,0.384-3.373c0-1.739,0.813-3.357,2.296-4.266c1.481-0.908,3.239-0.986,4.789-0.198l0,0
	c0.01,0,2.251,0.871,6.581,0.871c5.356,0,7.077,0.256,9.929,0.681c1.309,0.195,2.792,0.416,5.083,0.678
	c1.448,0.166,2.753,0.955,3.57,2.161c0.818,1.206,1.069,2.71,0.688,4.116c-0.954,3.517-0.954,5.246-0.953,8.387
	c0,1.037,0,2.178-0.031,3.511c-0.312,13.097-0.596,19.519-0.869,25.729c-0.271,6.161-0.553,12.531-0.861,25.527
	c-0.064,2.704-2.269,4.867-4.974,4.881C83.719,138.999,83.317,139,82.932,139z M67.207,128.352c3.174,0.053,5.014,0.192,6.809,0.328
	c1.5,0.113,2.948,0.223,5.221,0.279c0.264-9.895,0.508-15.432,0.745-20.811c0.271-6.16,0.553-12.53,0.861-25.525
	c0.03-1.241,0.029-2.306,0.029-3.271c-0.001-1.88-0.001-3.545,0.207-5.442c-0.022-0.004-0.046-0.007-0.068-0.011
	c-2.556-0.38-3.839-0.571-8.455-0.571c-1.622,0-3.061-0.092-4.317-0.233C67.402,79.982,66,92.448,66,106.137
	C66,112.348,66,121.243,67.207,128.352z"/>
</svg>
