<?xml version="1.0" encoding="iso-8859-1"?>
<!-- Generator: Adobe Illustrator 22.1.0, SVG Export Plug-In . SVG Version: 6.00 Build 0)  -->
<svg version="1.1" id="Layer_1" xmlns="http://www.w3.org/2000/svg" xmlns:xlink="http://www.w3.org/1999/xlink" x="0px" y="0px"
	 viewBox="0 0 201 201" style="enable-background:new 0 0 201 201;" xml:space="preserve">
<path style="fill:#D6E5E5;" d="M93.371,5.797c-17.265,2.014-34.214,7.8-47.565,16.821C29.278,33.787,16.013,50.585,9.46,70
	c-4.113,12.184-5.583,25.398-3.558,38.899c0.332,2.215,0.753,4.415,1.254,6.593c2.85,12.397,8.25,26.16,15.508,38.509
	C30.58,167.47,39.56,177.497,51,184c0.615,0.35,2.379,2.452,3,2.782c29.395,15.652,65.039,9.971,93.069-6.54
	c0.689-0.406,1.378-0.82,2.067-1.242c11.765-7.213,23.241-16.747,30.822-28.94c1.063-1.71,2.078-3.464,3.044-5.257
	c13.454-24.985,17.273-57.556,7.623-84.97C185.995,46.686,178.945,37.647,169,29c-0.784-0.682-2.591-3.348-3.398-4
	c-3.057-2.47-6.272-4.725-9.602-6.757c-4.839-2.952-9.923-5.434-15.125-7.421C126.662,5.391,109.872,3.872,93.371,5.797z"/>
<path d="M81.999,164c-1.601,0-3.121-0.77-4.066-2.092c-1.069-1.496-1.231-3.458-0.422-5.108c1.669-3.406,3.274-6.897,4.825-10.272
	c1.579-3.436,3.212-6.988,4.938-10.511C97.399,115.359,110,89.65,110,66c0-10.057-1.707-14.313-7.025-17.517
	c-3.569-2.15-8.734-1.946-12.56,0.496c-4.16,2.656-7.01,7.063-7.438,11.501c-0.265,2.748-2.701,4.755-5.458,4.496
	c-2.749-0.265-4.762-2.708-4.497-5.457c0.717-7.427,5.319-14.695,12.01-18.968c7.013-4.479,16.297-4.736,23.103-0.634
	C119.083,46.512,120,56.839,120,66c0,25.969-13.167,52.833-23.747,74.418c-1.672,3.41-3.278,6.905-4.831,10.285
	c-0.348,0.756-0.698,1.519-1.051,2.284c7.731-0.833,15.397-1.499,22.88-2.148c3.083-0.269,6.179-0.537,9.3-0.818
	c2.746-0.24,5.181,1.78,5.429,4.53c0.248,2.75-1.78,5.181-4.531,5.429c-3.131,0.283-6.239,0.553-9.333,0.821
	c-10.755,0.935-20.914,1.816-31.486,3.159C82.419,163.987,82.208,164,81.999,164z"/>
<path d="M92.375,201.043c-14.456,0.001-28.353-3.26-40.725-9.848c-0.954-0.507-1.674-1.222-2.771-2.346
	c-0.209-0.215-0.5-0.514-0.692-0.698c-11.604-6.686-21.093-16.744-29.834-31.618c-7.3-12.421-13.007-26.599-16.071-39.922
	c-0.535-2.328-0.981-4.674-1.325-6.972c-2.073-13.821-0.806-27.695,3.765-41.238c6.784-20.098,20.38-37.828,38.284-49.926
	C56.659,9.25,74.339,2.983,92.791,0.831l0-0.001c18.016-2.099,35.26-0.261,49.868,5.32c5.54,2.117,10.904,4.749,15.944,7.823
	c3.545,2.164,6.958,4.564,10.141,7.138c0.808,0.652,1.517,1.533,2.588,2.906c0.329,0.422,0.817,1.048,1.033,1.283
	c11.524,10.038,18.397,19.875,22.973,32.872c9.75,27.698,6.709,61.802-7.937,89.001c-1.008,1.872-2.084,3.731-3.199,5.525
	c-7.111,11.438-18.031,21.721-32.456,30.563c-0.713,0.438-1.427,0.866-2.142,1.287C131.025,195.496,111.226,201.042,92.375,201.043z
	 M56.738,182.574c25.356,13.298,58.138,10.829,87.793-6.641c0.664-0.391,1.328-0.79,1.99-1.196
	c13.087-8.022,22.908-17.214,29.189-27.316c1.005-1.618,1.977-3.297,2.887-4.987c13.353-24.8,16.153-55.814,7.309-80.94
	c-3.972-11.281-10.009-19.871-20.188-28.72c-0.74-0.644-1.449-1.552-2.269-2.604c-0.33-0.423-0.867-1.11-1.113-1.38
	c-2.808-2.261-5.815-4.372-8.941-6.279c-4.52-2.758-9.333-5.119-14.305-7.019c-12.922-4.937-28.953-6.616-45.141-4.729h0
	c-16.891,1.971-32.995,7.652-45.345,15.997C32.504,37.641,20.285,53.564,14.197,71.6c-4.058,12.022-5.185,24.322-3.35,36.558
	c0.307,2.045,0.704,4.136,1.182,6.214c2.841,12.355,8.149,25.53,14.946,37.096c7.903,13.446,16.322,22.402,26.497,28.187
	c0.872,0.495,1.543,1.164,2.567,2.214C56.237,182.07,56.534,182.376,56.738,182.574z M48.491,188.325
	c0.013,0.008,0.025,0.015,0.037,0.021C48.516,188.34,48.503,188.332,48.491,188.325z M172.281,25.228
	c0.005,0.004,0.01,0.009,0.015,0.013C172.292,25.236,172.286,25.231,172.281,25.228z"/>
</svg>
