<?xml version="1.0" encoding="iso-8859-1"?>
<!-- Generator: Adobe Illustrator 22.1.0, SVG Export Plug-In . SVG Version: 6.00 Build 0)  -->
<svg version="1.1" id="Layer_1" xmlns="http://www.w3.org/2000/svg" xmlns:xlink="http://www.w3.org/1999/xlink" x="0px" y="0px"
	 viewBox="0 0 201 201" style="enable-background:new 0 0 201 201;" xml:space="preserve">
<path style="fill:#D6E5E5;" d="M93.371,5.797c-17.265,2.014-34.214,7.8-47.565,16.821C29.278,33.787,16.013,50.585,9.46,70
	c-4.113,12.184-5.583,25.398-3.558,38.899c0.332,2.215,0.753,4.415,1.254,6.593c2.85,12.397,8.25,26.16,15.508,38.509
	C30.58,167.47,39.56,177.497,51,184c0.615,0.35,2.379,2.452,3,2.782c29.395,15.652,65.039,9.971,93.069-6.54
	c0.689-0.406,1.378-0.82,2.067-1.242c11.765-7.213,23.241-16.747,30.822-28.94c1.063-1.71,2.078-3.464,3.044-5.257
	c13.454-24.985,17.273-57.556,7.623-84.97C185.995,46.686,178.945,37.647,169,29c-0.784-0.682-2.591-3.348-3.398-4
	c-3.057-2.47-6.272-4.725-9.602-6.757c-4.839-2.952-9.923-5.434-15.125-7.421C126.662,5.391,109.872,3.872,93.371,5.797z"/>
<path d="M92.375,201.043c-14.456,0.001-28.353-3.26-40.725-9.848c-0.954-0.507-1.675-1.222-2.771-2.346
	c-0.209-0.215-0.5-0.514-0.691-0.698c-11.605-6.687-21.094-16.745-29.834-31.618c-7.301-12.422-13.008-26.6-16.071-39.922
	c-0.532-2.312-0.978-4.658-1.325-6.97C-1.116,95.816,0.151,81.942,4.723,68.4c6.784-20.097,20.38-37.827,38.283-49.925
	C56.658,9.25,74.339,2.983,92.792,0.831V0.83c18.018-2.1,35.26-0.262,49.867,5.32c5.541,2.117,10.905,4.749,15.945,7.823
	c3.547,2.165,6.959,4.566,10.141,7.138c0.808,0.652,1.517,1.533,2.588,2.906c0.329,0.422,0.817,1.047,1.032,1.283
	c11.526,10.039,18.399,19.876,22.975,32.872c9.749,27.698,6.709,61.801-7.937,89.001c-1.013,1.881-2.09,3.74-3.2,5.526
	c-7.11,11.437-18.03,21.719-32.454,30.562c-0.714,0.438-1.428,0.866-2.143,1.287C131.025,195.496,111.227,201.042,92.375,201.043z
	 M56.738,182.574c25.358,13.298,58.14,10.829,87.792-6.64c0.664-0.392,1.329-0.791,1.993-1.198
	c13.085-8.022,22.905-17.213,29.188-27.316c1.001-1.61,1.973-3.289,2.888-4.987c13.353-24.799,16.152-55.813,7.308-80.939
	c-3.971-11.281-10.008-19.87-20.187-28.72c-0.74-0.644-1.449-1.552-2.271-2.604c-0.329-0.422-0.865-1.109-1.111-1.379
	c-2.808-2.26-5.815-4.371-8.942-6.28c-4.52-2.757-9.333-5.118-14.305-7.018c-12.923-4.938-28.954-6.617-45.141-4.729l0,0
	c-16.891,1.971-32.995,7.652-45.345,15.997C32.505,37.641,20.285,53.564,14.197,71.6c-4.059,12.021-5.186,24.321-3.352,36.558
	c0.31,2.058,0.707,4.148,1.183,6.213c2.841,12.355,8.148,25.53,14.946,37.097c7.902,13.446,16.321,22.402,26.496,28.187
	c0.872,0.495,1.544,1.164,2.568,2.215C56.236,182.071,56.534,182.376,56.738,182.574z M48.479,188.318
	c0.018,0.01,0.035,0.02,0.051,0.028C48.513,188.337,48.496,188.328,48.479,188.318z M56.906,182.73L56.906,182.73L56.906,182.73z
	 M162.459,28.888c0.001,0.001,0.002,0.002,0.002,0.002C162.46,28.89,162.46,28.889,162.459,28.888z M172.28,25.227
	c0.006,0.005,0.012,0.01,0.019,0.016C172.292,25.236,172.286,25.231,172.28,25.227z"/>
<path d="M105.816,163.998c-11.808,0-21.763-4.75-28.791-13.739c-6.765-8.65-8.6-18.28-9.001-21.025
	c-3.275-22.407-2.609-43.276,2.097-65.677C71.59,56.567,75.489,38,96,38c16.593,0,25.779,9.209,25.998,17.874
	c0.07,2.76-2.111,5.055-4.872,5.124c-2.776,0.051-5.055-2.112-5.124-4.872C111.93,53.293,107.163,48,96,48
	c-10.319,0-13.809,6.739-16.092,17.612c-2.114,10.062-3.367,19.793-3.771,29.509C81.914,89.376,89.621,86,98,86
	c14.239,0,25.913,7.924,32.869,22.311c2.741,5.671,4.131,11.958,4.131,18.688c0,27.146-17.45,36.999-29.18,36.999
	C105.819,163.998,105.817,163.998,105.816,163.998z M76.439,114.302c0.321,4.447,0.814,8.933,1.479,13.484
	c0.642,4.39,2.813,10.979,6.983,16.313c5.137,6.568,12.174,9.898,20.915,9.898c0.001,0,0.001,0,0.003,0
	c5.335,0,19.18-4.851,19.18-26.999c0-5.21-1.055-10.033-3.135-14.335C118.19,105.062,111.066,96,98,96
	c-8.158,0-17.872,5.359-21.181,17.332C76.725,113.674,76.597,113.998,76.439,114.302z"/>
</svg>
