<?xml version="1.0" encoding="iso-8859-1"?>
<!-- Generator: Adobe Illustrator 22.1.0, SVG Export Plug-In . SVG Version: 6.00 Build 0)  -->
<svg version="1.1" id="Layer_1" xmlns="http://www.w3.org/2000/svg" xmlns:xlink="http://www.w3.org/1999/xlink" x="0px" y="0px"
	 viewBox="0 0 192 192" style="enable-background:new 0 0 192 192;" xml:space="preserve">
<path style="fill:#404041;" d="M192,96c0,53.008-42.992,96-96,96S0,149.008,0,96S42.992,0,96,0S192,42.992,192,96"/>
<path style="fill:#1FA85B;" d="M176,96c0,44.176-35.824,80-80,80s-80-35.824-80-80s35.824-80,80-80S176,51.824,176,96"/>
<path style="fill:#FFFFFF;" d="M96,144c-4.416,0-8-3.584-8-8V56c0-4.416,3.584-8,8-8s8,3.584,8,8v80C104,140.416,100.416,144,96,144
	z"/>
<path style="fill:#FFFFFF;" d="M136,104H56c-4.416,0-8-3.584-8-8s3.584-8,8-8h80c4.416,0,8,3.584,8,8S140.416,104,136,104z"/>
</svg>
