<?xml version="1.0" encoding="iso-8859-1"?>
<!-- Generator: Adobe Illustrator 22.1.0, SVG Export Plug-In . SVG Version: 6.00 Build 0)  -->
<svg version="1.1" id="Layer_1" xmlns="http://www.w3.org/2000/svg" xmlns:xlink="http://www.w3.org/1999/xlink" x="0px" y="0px"
	 viewBox="0 0 192 192" style="enable-background:new 0 0 192 192;" xml:space="preserve">
<path style="fill:#404041;" d="M192,96c0,53.008-42.992,96-96,96S0,149.008,0,96S42.992,0,96,0S192,42.992,192,96"/>
<path style="fill:#E84849;" d="M176,96c0,44.176-35.824,80-80,80s-80-35.824-80-80s35.824-80,80-80S176,51.824,176,96"/>
<path style="fill:#FFFFFF;" d="M64,136c-2.048,0-4.096-0.784-5.656-2.344c-3.128-3.128-3.128-8.184,0-11.312l64-64
	c3.128-3.128,8.184-3.128,11.312,0s3.128,8.184,0,11.312l-64,64C68.096,135.216,66.048,136,64,136z"/>
<path style="fill:#FFFFFF;" d="M128,136c-2.048,0-4.096-0.784-5.656-2.344l-64-64c-3.128-3.128-3.128-8.184,0-11.312
	s8.184-3.128,11.312,0l64,64c3.128,3.128,3.128,8.184,0,11.312C132.096,135.216,130.048,136,128,136z"/>
</svg>
