<?xml version="1.0" encoding="iso-8859-1"?>
<!-- Generator: Adobe Illustrator 22.1.0, SVG Export Plug-In . SVG Version: 6.00 Build 0)  -->
<svg version="1.1" id="Layer_1" xmlns="http://www.w3.org/2000/svg" xmlns:xlink="http://www.w3.org/1999/xlink" x="0px" y="0px"
	 viewBox="0 0 192 192" style="enable-background:new 0 0 192 192;" xml:space="preserve">
<path style="fill:#404041;" d="M182.628,137.373L54.627,9.372c-6.296-6.296-14.562-9.419-22.814-9.371
	c-8.127,0.047-16.24,3.171-22.441,9.371C3.045,15.7-0.079,24.019,0.002,32.313c0.079,8.085,3.202,16.146,9.37,22.314
	l128.001,128.001c6.247,6.247,14.434,9.371,22.623,9.372c8.191,0.001,16.383-3.123,22.632-9.372
	c6.281-6.281,9.405-14.524,9.372-22.757C191.967,151.724,188.843,143.588,182.628,137.373z"/>
<path style="fill:#404041;" d="M137.373,9.372L9.372,137.373c-6.296,6.296-9.419,14.562-9.371,22.814
	c0.047,8.127,3.171,16.24,9.371,22.441c6.328,6.328,14.647,9.451,22.941,9.37c8.085-0.079,16.146-3.202,22.314-9.37L182.628,54.627
	c6.247-6.247,9.371-14.434,9.372-22.623c0.001-8.191-3.123-16.383-9.372-22.632C176.347,3.091,168.104-0.033,159.871,0
	C151.724,0.033,143.588,3.157,137.373,9.372z"/>
<path style="fill:#E84849;" d="M20.686,171.314L20.686,171.314c-6.251-6.251-6.251-16.377,0-22.627L148.687,20.686
	c6.251-6.251,16.377-6.251,22.627,0l0,0c6.251,6.251,6.251,16.377,0,22.627L43.313,171.314
	C37.062,177.565,26.937,177.565,20.686,171.314z"/>
<path style="fill:#E84849;" d="M20.686,20.686L20.686,20.686c6.251-6.251,16.377-6.251,22.627,0l128.001,128.001
	c6.251,6.251,6.251,16.377,0,22.627l0,0c-6.251,6.251-16.377,6.251-22.627,0L20.686,43.313
	C14.435,37.062,14.435,26.937,20.686,20.686z"/>
</svg>
