<?xml version="1.0" encoding="iso-8859-1"?>
<!-- Generator: Adobe Illustrator 22.1.0, SVG Export Plug-In . SVG Version: 6.00 Build 0)  -->
<svg version="1.1" id="Layer_1" xmlns="http://www.w3.org/2000/svg" xmlns:xlink="http://www.w3.org/1999/xlink" x="0px" y="0px"
	 viewBox="0 0 192 192" style="enable-background:new 0 0 192 192;" xml:space="preserve">
<path style="fill:#404041;" d="M134.064,9.936L4.688,139.312c-3,3-4.688,7.072-4.688,11.312V176c0,8.84,7.16,16,16,16h25.376
	c4.24,0,8.312-1.688,11.312-4.688L182.064,57.936c13.248-13.248,13.248-34.72,0-47.968l-0.032-0.032
	C168.792-3.312,147.312-3.312,134.064,9.936z"/>
<path style="fill:#EFC849;" d="M90.752,126.624L41.376,176H16v-25.376l49.376-49.376"/>
<path style="fill:#F29652;" d="M156.72,60.656L41.376,176L16,150.624L131.344,35.28L156.72,60.656z"/>
<path style="fill:#E84849;" d="M158.048,16c4.784,0,9.288,1.864,12.704,5.28c3.384,3.384,5.248,7.88,5.248,12.672
	s-1.864,9.288-5.248,12.672L158.92,58.456L133.544,33.08l11.832-11.832C148.76,17.864,153.264,16,158.048,16"/>
<path style="fill:#CCCCCF;" d="M166.264,51.112l-17.376,17.376l-25.376-25.376l17.376-17.376L166.264,51.112z"/>
</svg>
