<?xml version="1.0" encoding="iso-8859-1"?>
<!-- Generator: Adobe Illustrator 22.1.0, SVG Export Plug-In . SVG Version: 6.00 Build 0)  -->
<svg version="1.1" id="Layer_1" xmlns="http://www.w3.org/2000/svg" xmlns:xlink="http://www.w3.org/1999/xlink" x="0px" y="0px"
	 viewBox="0 0 192 192" style="enable-background:new 0 0 192 192;" xml:space="preserve">
<path style="fill:#404041;" d="M0,96c0,53.008,42.992,96,96,96s96-42.992,96-96S149.008,0,96,0S0,42.992,0,96z"/>
<polygon style="fill:#26A9E0;" points="136,32 160,64 112,64 "/>
<path style="fill:#26A9E0;" d="M16.032,98.272c1.16,41.744,35.952,76.536,77.696,77.696c42.152,1.168,77.216-30.296,81.776-70.968
	c0.528-4.776-3.192-9-8-9l0,0c-4.032,0-7.448,3.016-7.888,7.024c-3.952,36.088-38.04,63.248-76.48,55.72
	c-24.92-4.88-45-24.96-49.88-49.88C25.256,67.96,56.504,32,96,32c23.624,0,44.256,12.904,55.344,32h17.96
	C156.944,35.76,128.792,16,96,16C51.072,16,14.776,53.056,16.032,98.272z"/>
</svg>
