<?xml version="1.0" encoding="iso-8859-1"?>
<!-- Generator: Adobe Illustrator 22.1.0, SVG Export Plug-In . SVG Version: 6.00 Build 0)  -->
<svg version="1.1" id="Layer_1" xmlns="http://www.w3.org/2000/svg" xmlns:xlink="http://www.w3.org/1999/xlink" x="0px" y="0px"
	 viewBox="0 0 192 184" style="enable-background:new 0 0 192 184;" xml:space="preserve">
<path style="fill:#404041;" d="M64.074,56.868l-0.002,0.005L5.577,65.38c-5.332,0.776-7.465,7.317-3.612,11.08l42.313,41.325
	l0.039,0.039l-0.014,0.082l-9.918,58.295c-0.903,5.309,4.678,9.35,9.449,6.841l52.002-27.354l52.361,27.548
	c4.771,2.51,10.353-1.531,9.449-6.84l-9.95-58.492l-0.013-0.079l0.045-0.044l42.307-41.32c3.853-3.763,1.72-10.305-3.612-11.08
	l-58.481-8.506l-0.007-0.014L101.848,3.642c-2.38-4.856-9.311-4.856-11.691,0.001L64.074,56.868z"/>
<path style="fill:#FFC50B;" d="M95.837,137.609l42.813,22.525l-8.133-47.808l5.977-5.939l28.607-27.939l-47.733-6.943l-3.801-7.602
	L96.004,28.071L78.573,63.64l-3.465,7.796l-48.21,7.012l28.521,27.855l6.032,5.812l-1.374,8.475l-6.695,39.351L95.837,137.609z"/>
</svg>
