<?xml version="1.0" encoding="iso-8859-1"?>
<!-- Generator: Adobe Illustrator 22.1.0, SVG Export Plug-In . SVG Version: 6.00 Build 0)  -->
<svg version="1.1" id="Layer_1" xmlns="http://www.w3.org/2000/svg" xmlns:xlink="http://www.w3.org/1999/xlink" x="0px" y="0px"
	 viewBox="0 0 192 168" style="enable-background:new 0 0 192 168;" xml:space="preserve">
<path style="fill:#404041;" d="M140.608,0.056C112.432,0.056,96,19.92,96,19.92S79.952,0,51.336,0C21.576,0,0,21.488,0,51.12
	c0,43.768,79.544,108.216,85.328,112.832c2.744,2.624,6.296,4.048,10.128,4.048c3.776,0,7.384-1.424,10.128-4.048
	C111.424,159.28,192,93.8,192,51.12C192,21.6,170.368,0.056,140.608,0.056z"/>
<path style="fill:#E84849;" d="M51.336,16c20.176,0,31.808,13.568,32.192,14.016L95.84,41.728l12.512-11.552
	c0.12-0.144,12.192-14.12,32.264-14.12c20.832,0,35.384,14.504,35.384,35.28c0,26.352-49.336,75.84-80.44,100.84l-0.104,0.08
	l-0.12-0.096C64.664,127.56,16,78.44,16,51.336C16,30.528,30.528,16,51.336,16"/>
</svg>
