<?xml version="1.0" encoding="iso-8859-1"?>
<!-- Generator: Adobe Illustrator 22.1.0, SVG Export Plug-In . SVG Version: 6.00 Build 0)  -->
<svg version="1.1" id="Layer_1" xmlns="http://www.w3.org/2000/svg" xmlns:xlink="http://www.w3.org/1999/xlink" x="0px" y="0px"
	 viewBox="0 0 192 192" style="enable-background:new 0 0 192 192;" xml:space="preserve">
<path style="fill:#404041;" d="M120,0C80.296,0,48,32.304,48,72c0,5.368,0.64,10.584,1.752,15.616L4.68,132.688
	C1.688,135.688,0,139.76,0,144v32c0,8.832,7.168,16,16,16h32c4.24,0,8.312-1.688,11.312-4.688l45.072-45.072
	c5.032,1.12,10.248,1.76,15.616,1.76c39.704,0,72-32.304,72-72S159.704,0,120,0z"/>
<polygon style="fill:#FFC50B;" points="80,80 16,144 16,176 48,176 56,168 56,152 72,152 72,136 88,136 112,112 "/>
<path style="fill:#FFC50B;" d="M120,16c-30.928,0-56,25.072-56,56s25.072,56,56,56s56-25.072,56-56S150.928,16,120,16z M136,72
	c-8.84,0-16-7.16-16-16s7.16-16,16-16s16,7.16,16,16S144.84,72,136,72z"/>
</svg>
