<?xml version="1.0" encoding="iso-8859-1"?>
<!-- Generator: Adobe Illustrator 22.1.0, SVG Export Plug-In . SVG Version: 6.00 Build 0)  -->
<svg version="1.1" id="Layer_1" xmlns="http://www.w3.org/2000/svg" xmlns:xlink="http://www.w3.org/1999/xlink" x="0px" y="0px"
	 viewBox="0 0 192 192" style="enable-background:new 0 0 192 192;" xml:space="preserve">
<path style="fill:#404041;" d="M177.942,18.178l-4.12-4.12c-18.744-18.744-49.137-18.744-67.881,0l-19.88,19.88
	c-18.744,18.744-18.744,49.137,0,67.881l4.12,4.12c18.744,18.744,49.137,18.744,67.881,0l19.88-19.88
	C196.687,67.315,196.687,36.923,177.942,18.178z"/>
<path style="fill:#404041;" d="M105.941,90.18l-4.12-4.12c-18.744-18.744-49.137-18.744-67.881,0l-19.88,19.88
	c-18.744,18.744-18.744,49.137,0,67.881l4.12,4.12c18.744,18.744,49.137,18.744,67.881,0l19.88-19.88
	C124.685,139.317,124.685,108.924,105.941,90.18z"/>
<path style="fill:#26A9E0;" d="M138.622,31.314c1.24,0,3.616,0.304,5.656,2.344l14.056,14.056c3.12,3.12,3.12,8.192,0,11.312
	l-24.689,24.689c-2.04,2.04-4.416,2.344-5.656,2.344s-3.616-0.304-5.656-2.344l-14.056-14.056c-3.12-3.12-3.12-8.192,0-11.312
	l24.689-24.689C135.006,31.618,137.39,31.314,138.622,31.314 M138.622,15.314c-6.144,0-12.288,2.344-16.968,7.032L96.965,47.035
	c-9.376,9.376-9.376,24.569,0,33.945l14.056,14.056c4.688,4.688,10.832,7.032,16.968,7.032c6.144,0,12.288-2.344,16.968-7.032
	l24.689-24.689c9.376-9.376,9.376-24.569,0-33.945l-14.048-14.056C150.91,17.658,144.766,15.314,138.622,15.314L138.622,15.314z"/>
<path style="fill:#26A9E0;" d="M64.684,105.26c1.24,0,3.616,0.304,5.656,2.344l14.056,14.056c3.12,3.12,3.12,8.192,0,11.312
	l-24.689,24.689c-2.032,2.04-4.416,2.344-5.656,2.344c-1.24,0-3.616-0.304-5.656-2.344l-14.056-14.056
	c-3.12-3.12-3.12-8.192,0-11.312l24.689-24.689C61.068,105.564,63.444,105.26,64.684,105.26 M64.684,89.26
	c-6.144,0-12.288,2.344-16.968,7.032L23.027,120.98c-9.376,9.376-9.376,24.569,0,33.945l14.056,14.056
	c4.688,4.68,10.832,7.024,16.968,7.024s12.288-2.344,16.968-7.032l24.689-24.689c9.376-9.376,9.376-24.569,0-33.945L81.652,96.284
	C76.964,91.604,70.828,89.26,64.684,89.26L64.684,89.26z"/>
<path style="fill:#26A9E0;" d="M71.996,128.004c-2.047,0-4.094-0.781-5.656-2.344c-3.125-3.125-3.125-8.188,0-11.313l52.001-52.001
	c3.125-3.125,8.188-3.125,11.313,0c3.125,3.125,3.125,8.188,0,11.313l-52.001,52.001C76.09,127.223,74.043,128.004,71.996,128.004z"
	/>
</svg>
