<?xml version="1.0" encoding="iso-8859-1"?>
<!-- Generator: Adobe Illustrator 22.1.0, SVG Export Plug-In . SVG Version: 6.00 Build 0)  -->
<svg version="1.1" id="Layer_1" xmlns="http://www.w3.org/2000/svg" xmlns:xlink="http://www.w3.org/1999/xlink" x="0px" y="0px"
	 viewBox="0 0 160 192" style="enable-background:new 0 0 160 192;" xml:space="preserve">
<path style="fill:#404041;" d="M152,86.24V72c0-39.696-32.304-72-72-72S8,32.304,8,72v14.24C3.128,90.64,0,96.936,0,104v64
	c0,13.232,10.768,24,24,24h112c13.232,0,24-10.768,24-24v-64C160,96.936,156.872,90.64,152,86.24z"/>
<path style="fill:#CCCCCF;" d="M24,72v40h16V72c0-22.088,17.912-40,40-40l0,0c22.088,0,40,17.912,40,40v40h16V72
	c0-30.928-25.072-56-56-56l0,0C49.072,16,24,41.072,24,72z"/>
<path style="fill:#DDA027;" d="M136,96H24c-4.416,0-8,3.584-8,8v64c0,4.416,3.584,8,8,8h112c4.416,0,8-3.584,8-8v-64
	C144,99.584,140.416,96,136,96z M87,140.943c0,2.591,0,5.735,0,7.057c0,3.866-3.134,7-7,7s-7-3.134-7-7c0-1.964,0-4.77,0-7.057
	c-3.605-2.311-6-6.343-6-10.943c0-7.18,5.82-13,13-13s13,5.82,13,13C93,134.6,90.605,138.632,87,140.943z"/>
</svg>
