<?xml version="1.0" encoding="iso-8859-1"?>
<!-- Generator: Adobe Illustrator 22.1.0, SVG Export Plug-In . SVG Version: 6.00 Build 0)  -->
<svg version="1.1" id="Layer_1" xmlns="http://www.w3.org/2000/svg" xmlns:xlink="http://www.w3.org/1999/xlink" x="0px" y="0px"
	 viewBox="0 0 176 192" style="enable-background:new 0 0 176 192;" xml:space="preserve">
<path style="fill:#404041;" d="M170.52,19.949c-3.48-3.032-8.112-4.424-12.672-3.808c-35.536,4.832-59.104-12.096-60.24-12.936
	C94.758,1.068,91.378,0.001,88,0c-3.412-0.001-6.822,1.086-9.68,3.261c-0.24,0.184-24.456,17.752-60.168,12.88
	c-4.584-0.624-9.192,0.76-12.672,3.808C2,22.989,0,27.373,0,31.997v68.832c0,38.664,27.664,68.976,82.224,90.096
	C84.08,191.645,86.04,192,88,192s3.92-0.355,5.776-1.075c54.56-21.12,82.224-51.432,82.224-90.096V31.997
	C176,27.373,174,22.989,170.52,19.949z"/>
<path style="fill:#EDB20F;" d="M88,16.005V176c67.904-26.296,72-59.643,72-75.171c0-18.608,0-68.832,0-68.832
	C116.76,37.869,88,16.005,88,16.005z"/>
<path style="fill:#FFC50B;" d="M16,31.997c0,0,0,50.224,0,68.832c0,15.528,4.096,48.875,72,75.171V16.005
	C88,16.005,59.24,37.869,16,31.997z"/>
</svg>
