<?xml version="1.0" encoding="iso-8859-1"?>
<!-- Generator: Adobe Illustrator 22.1.0, SVG Export Plug-In . SVG Version: 6.00 Build 0)  -->
<svg version="1.1" id="Layer_1" xmlns="http://www.w3.org/2000/svg" xmlns:xlink="http://www.w3.org/1999/xlink" x="0px" y="0px"
	 viewBox="0 0 176 192" style="enable-background:new 0 0 176 192;" xml:space="preserve">
<path style="fill:#404041;" d="M152,40h-24.008c0-2.816-0.288-5.659-0.88-8.459c-3.352-15.808-16.296-28.256-32.2-30.96
	C92.607,0.188,90.295-0.003,88,0c-9.403,0.014-18.524,3.299-25.784,9.421C53.176,17.045,48,28.192,48,40H24C10.768,40,0,50.768,0,64
	v104c0,13.232,10.768,24,24,24h128c13.232,0,24-10.768,24-24V64C176,50.768,165.232,40,152,40z"/>
<path style="fill:#1FA85B;" d="M111.608,56c-2.352,0-3.712-2.507-2.576-4.563c2.64-4.76,3.72-10.48,2.424-16.576
	c-1.984-9.36-9.808-16.904-19.232-18.504C90.795,16.113,89.384,16,88,16c-13.256,0-24,10.74-24,23.997
	c0,4.12,1.072,7.976,2.92,11.352C68.072,53.437,66.736,56,64.352,56H24c-4.416,0-8,3.584-8,8v32.349c0,2.384,2.56,3.72,4.648,2.568
	c3.376-1.848,7.232-2.92,11.352-2.92c14.64,0,26.216,13.104,23.64,28.224c-1.608,9.432-9.152,17.248-18.504,19.232
	c-6.088,1.296-11.816,0.216-16.576-2.424c-2.056-1.144-4.56,0.216-4.56,2.576V168c0,4.416,3.584,8,8,8h128c4.416,0,8-3.584,8-8V64
	c0-4.416-3.584-8-8-8H111.608z"/>
</svg>
