<?xml version="1.0" encoding="iso-8859-1"?>
<!-- Generator: Adobe Illustrator 22.1.0, SVG Export Plug-In . SVG Version: 6.00 Build 0)  -->
<svg version="1.1" id="Layer_1" xmlns="http://www.w3.org/2000/svg" xmlns:xlink="http://www.w3.org/1999/xlink" x="0px" y="0px"
	 viewBox="0 0 192 192" style="enable-background:new 0 0 192 192;" xml:space="preserve">
<path style="fill:#404041;" d="M183.968,145.216l-24.52-24.52C164.872,109.584,168,97.168,168,84c0-46.32-37.68-84-84-84
	S0,37.68,0,84s37.68,84,84,84c13.168,0,25.592-3.128,36.696-8.552l24.52,24.512c5.168,5.184,12.048,8.04,19.376,8.04
	s14.208-2.856,19.368-8.016c5.184-5.176,8.04-12.064,8.04-19.384S189.152,150.384,183.968,145.216z"/>
<path style="fill:#F29652;" d="M164.592,176c-2.92,0-5.84-1.112-8.064-3.344l-57.184-57.184c-4.456-4.456-4.456-11.672,0-16.128
	s11.672-4.456,16.128,0l57.184,57.184c4.456,4.456,4.456,11.672,0,16.128C170.432,174.888,167.512,176,164.592,176z"/>
<path style="fill:#CCCCCF;" d="M84,16c-37.552,0-68,30.448-68,68s30.448,68,68,68s68-30.448,68-68S121.552,16,84,16z"/>
<circle style="fill:#26A9E0;" cx="84" cy="84" r="52"/>
<path style="fill:#78D7FF;" d="M56,92c-4.422,0-8-3.582-8-8c0-19.852,16.148-36,36-36c4.422,0,8,3.582,8,8s-3.578,8-8,8
	c-11.031,0-20,8.973-20,20C64,88.418,60.422,92,56,92z"/>
</svg>
