<?xml version="1.0" encoding="iso-8859-1"?>
<!-- Generator: Adobe Illustrator 22.1.0, SVG Export Plug-In . SVG Version: 6.00 Build 0)  -->
<svg version="1.1" id="Layer_1" xmlns="http://www.w3.org/2000/svg" xmlns:xlink="http://www.w3.org/1999/xlink" x="0px" y="0px"
	 viewBox="0 0 192 192" style="enable-background:new 0 0 192 192;" xml:space="preserve">
<path style="fill:#404041;" d="M187.155,46.011c-1.952-5.049-19.051-22.115-19.051-22.115S151.037,6.797,145.989,4.845
	C119.393-5.429,89.213,0.94,69.098,21.063C52.255,37.906,47.679,59.245,54.84,80.584L11.722,123.71
	C4.169,131.263,0,141.313,0,151.994s4.169,20.731,11.714,28.284C19.267,187.831,29.316,192,40.006,192s20.739-4.169,28.284-11.714
	l43.11-43.11c6.441,2.168,12.89,3.304,19.211,3.304c14.61,0,28.572-5.825,40.342-17.579
	C191.059,102.771,197.428,72.591,187.155,46.011z"/>
<path style="fill:#EDB20F;" d="M79.043,79.016c-4.689,4.689-51.319,51.319-56.008,56.008c-9.377,9.377-9.377,24.572,0,33.949
	c9.377,9.377,24.571,9.377,33.949,0c4.689-4.689,51.319-51.319,56.008-56.008L79.043,79.016z"/>
<path style="fill:#FFC50B;" d="M136.019,87.985l-24.003-8.001l-8.001-24.003l36.205-36.205c-20.043-7.745-43.63-3.569-59.808,12.602
	c-21.875,21.875-13.874,49.335,8.001,71.202c21.875,21.875,49.335,29.876,71.21,8.001c16.17-16.17,20.355-39.766,12.61-59.809
	L136.019,87.985z"/>
</svg>
