<?xml version="1.0" encoding="iso-8859-1"?>
<!-- Generator: Adobe Illustrator 22.1.0, SVG Export Plug-In . SVG Version: 6.00 Build 0)  -->
<svg version="1.1" id="Layer_1" xmlns="http://www.w3.org/2000/svg" xmlns:xlink="http://www.w3.org/1999/xlink" x="0px" y="0px"
	 viewBox="0 0 192 192" style="enable-background:new 0 0 192 192;" xml:space="preserve">
<path style="fill:#404041;" d="M180.76,70.976l-9.92-3.088c-0.632-1.664-1.312-3.304-2.04-4.928l4.832-9.192
	c3.256-6.2,2.104-13.8-2.848-18.752L157,21.232c-4.944-4.952-12.552-6.104-18.76-2.848l-9.2,4.824
	c-1.616-0.736-3.256-1.416-4.92-2.04l-3.088-9.92C118.944,4.56,112.76,0,105.752,0H86.248c-7.008,0-13.192,4.56-15.28,11.248
	l-3.088,9.92c-1.664,0.624-3.304,1.304-4.92,2.04l-9.192-4.832c-6.208-3.256-13.816-2.096-18.76,2.848L21.224,35.008
	c-4.952,4.96-6.104,12.56-2.848,18.76L23.2,62.96c-0.728,1.624-1.408,3.264-2.032,4.928l-9.92,3.088C4.552,73.056,0,79.248,0,86.256
	v19.496c0,7,4.552,13.192,11.24,15.28l9.92,3.088c0.624,1.664,1.304,3.312,2.04,4.928l-4.832,9.192
	c-3.256,6.2-2.104,13.8,2.848,18.752L35,170.776c4.944,4.952,12.552,6.104,18.76,2.848l9.192-4.832
	c1.616,0.736,3.256,1.416,4.92,2.04l3.088,9.92C73.056,187.44,79.24,192,86.248,192h19.504c7.008,0,13.192-4.56,15.28-11.248
	l3.088-9.92c1.664-0.624,3.304-1.304,4.92-2.04l9.192,4.832c6.2,3.256,13.816,2.096,18.76-2.848l13.784-13.784
	c4.952-4.952,6.112-12.552,2.848-18.752l-4.824-9.2c0.736-1.624,1.416-3.264,2.04-4.928l9.92-3.088
	c6.688-2.08,11.24-8.272,11.24-15.28V86.248C192,79.248,187.448,73.056,180.76,70.976z"/>
<polygon style="fill:#EDB20F;" points="115.704,48 76.296,48 86.256,16 105.744,16 "/>
<polygon style="fill:#EDB20F;" points="76.296,144 115.704,144 105.744,176 86.256,176 "/>
<polygon style="fill:#EDB20F;" points="144,115.704 144,76.296 176,86.256 176,105.744 "/>
<polygon style="fill:#EDB20F;" points="48,76.296 48,115.704 16,105.744 16,86.256 "/>
<polygon style="fill:#EDB20F;" points="143.872,75.992 116.008,48.128 145.68,32.536 159.464,46.32 "/>
<polygon style="fill:#EDB20F;" points="48.128,116.008 75.992,143.872 46.32,159.464 32.536,145.68 "/>
<polygon style="fill:#EDB20F;" points="116.008,143.872 143.872,116.008 159.464,145.68 145.68,159.464 "/>
<polygon style="fill:#EDB20F;" points="75.992,48.128 48.128,75.992 32.536,46.32 46.32,32.536 "/>
<path style="fill:#FFC50B;" d="M96,32c-35.344,0-64,28.656-64,64s28.656,64,64,64s64-28.656,64-64S131.344,32,96,32z M96,128
	c-17.672,0-32-14.328-32-32s14.328-32,32-32s32,14.328,32,32S113.672,128,96,128z"/>
</svg>
