<?xml version="1.0" encoding="iso-8859-1"?>
<!-- Generator: Adobe Illustrator 22.1.0, SVG Export Plug-In . SVG Version: 6.00 Build 0)  -->
<svg version="1.1" id="Layer_1" xmlns="http://www.w3.org/2000/svg" xmlns:xlink="http://www.w3.org/1999/xlink" x="0px" y="0px"
	 viewBox="0 0 192 128" style="enable-background:new 0 0 192 128;" xml:space="preserve">
<path style="fill:#404041;" d="M162.2,49.32c-8.52-15.944-25.704-26.128-44.368-25.272C107.52,9.28,90.424,0,72,0
	C43.184,0,19.392,21.872,16.328,49.88C6.168,58.128,0,70.64,0,84c0,24.264,19.744,44,44,44h108c22.056,0,40-17.944,40-40
	C192,69.472,179.336,53.84,162.2,49.32z"/>
<path style="fill:#6EC2CB;" d="M152,64c-0.376,0-0.728,0.096-1.096,0.112C147.376,50.272,134.936,40,120,40
	c-3.76,0-7.32,0.768-10.672,1.96C103.632,26.824,89.128,16,72,16c-22.088,0-40,17.912-40,40c0,0.912,0.208,1.76,0.264,2.656
	C22.688,63.096,16,72.744,16,84c0,15.464,12.536,28,28,28c11.256,0,99.784,0,108,0c13.256,0,24-10.744,24-24S165.256,64,152,64z"/>
</svg>
