<?xml version="1.0" encoding="iso-8859-1"?>
<!-- Generator: Adobe Illustrator 22.1.0, SVG Export Plug-In . SVG Version: 6.00 Build 0)  -->
<svg version="1.1" id="Layer_1" xmlns="http://www.w3.org/2000/svg" xmlns:xlink="http://www.w3.org/1999/xlink" x="0px" y="0px"
	 viewBox="0 0 192 192" style="enable-background:new 0 0 192 192;" xml:space="preserve">
<path style="fill:#404041;" d="M192,96c0,53.008-42.992,96-96,96S0,149.008,0,96S42.992,0,96,0S192,42.992,192,96"/>
<path style="fill:#1FA85B;" d="M176,96c0,44.176-35.824,80-80,80s-80-35.824-80-80s35.824-80,80-80S176,51.824,176,96"/>
<path style="fill:#FFFFFF;" d="M100.384,31.224v8.016c5.296,0.544,9.84,1.632,13.624,3.264s7.088,4.112,9.912,7.424
	c2.224,2.528,3.944,5.12,5.16,7.8c1.216,2.672,1.816,5.12,1.816,7.352c0,2.48-0.904,4.616-2.712,6.424s-4,2.712-6.568,2.712
	c-4.856,0-7.992-2.624-9.432-7.872c-1.632-6.184-5.568-10.296-11.808-12.328v30.888c6.136,1.688,11.024,3.224,14.664,4.6
	c3.64,1.384,6.896,3.392,9.768,6.016c3.072,2.728,5.432,5.976,7.088,9.768s2.488,7.936,2.488,12.44
	c0,5.64-1.328,10.928-3.976,15.856c-2.648,4.928-6.544,8.944-11.696,12.064s-11.256,4.976-18.344,5.568v10.152
	c0,2.92-0.288,5.048-0.856,6.384s-1.816,2.008-3.752,2.008c-1.784,0-3.032-0.544-3.752-1.632c-0.712-1.088-1.08-2.776-1.08-5.048
	v-11.712c-5.792-0.648-10.848-2.008-15.184-4.08s-7.944-4.664-10.84-7.76c-2.896-3.088-5.04-6.312-6.424-9.656
	c-1.384-3.344-2.08-6.616-2.08-9.84c0-2.376,0.928-4.512,2.784-6.424c1.856-1.904,4.168-2.856,6.944-2.856
	c2.224,0,4.112,0.52,5.64,1.56s2.6,2.504,3.192,4.384c1.336,4.064,2.496,7.168,3.488,9.32s2.488,4.12,4.496,5.904
	s4.672,3.144,7.984,4.08v-34.528c-6.64-1.832-12.176-3.872-16.632-6.128c-4.456-2.248-8.064-5.456-10.84-9.616
	c-2.776-4.16-4.16-9.504-4.16-16.04c0-8.512,2.712-15.488,8.128-20.936c5.424-5.44,13.256-8.616,23.504-9.504v-7.88
	c0-4.16,1.56-6.24,4.68-6.24C98.8,25.136,100.384,27.168,100.384,31.224z M90.952,82.16V53.72c-4.16,1.24-7.4,2.872-9.728,4.904
	c-2.328,2.032-3.488,5.096-3.488,9.208c0,3.912,1.088,6.872,3.264,8.872C83.184,78.704,86.496,80.528,90.952,82.16z
	 M100.384,104.216v32.52c5-0.992,8.864-2.992,11.584-6.016c2.72-3.016,4.08-6.536,4.08-10.544c0-4.304-1.328-7.632-3.976-9.984
	C109.432,107.84,105.536,105.848,100.384,104.216z"/>
</svg>
