<?xml version="1.0" encoding="iso-8859-1"?>
<!-- Generator: Adobe Illustrator 22.1.0, SVG Export Plug-In . SVG Version: 6.00 Build 0)  -->
<svg version="1.1" id="Layer_1" xmlns="http://www.w3.org/2000/svg" xmlns:xlink="http://www.w3.org/1999/xlink" x="0px" y="0px"
	 viewBox="0 0 176 192" style="enable-background:new 0 0 176 192;" xml:space="preserve">
<path style="fill:#404041;" d="M171.04,119.888c-3.752-8.136-9.416-13.864-13.04-17.2c-0.976-4.256-1.848-8.6-2.72-12.944
	c-5.056-25.088-11.208-55.608-38.984-68.072c-1.368-4.784-3.928-9.176-7.536-12.808C103.08,3.152,95.504,0,87.44,0
	C73.584,0,61.896,9.44,58.464,22.224C31.72,35.056,25.688,65.04,20.728,89.704c-0.88,4.368-1.76,8.744-2.728,12.984
	c-3.624,3.336-9.304,9.088-13.12,17.384C-0.008,131.032,0,145.44,0,155.968v0.816c0,5.408,2.736,10.456,7.272,13.408
	C8.64,171.08,41.296,192,87.872,192c46.536,0,79.432-20.888,80.808-21.776c4.56-2.944,7.32-8.008,7.32-13.44v-0.816
	C176,145.44,176.008,131.032,171.04,119.888z"/>
<path style="fill:#EAE744;" d="M87.44,16c-7.752,0-14,6.296-14,14c0,7.752,6.296,14,14,14c7.752,0,14-6.248,14-14
	C101.488,22.248,95.192,16,87.44,16z"/>
<path style="fill:#E3A93F;" d="M16,156.784c0,0,29.512,19.216,71.872,19.216S160,156.784,160,156.784S121.248,136,87.328,136
	C53.344,136,16,156.784,16,156.784z"/>
<path style="fill:#DDD555;" d="M104,152c0,8.832-7.168,16-16,16s-16-7.168-16-16s7.168-16,16-16S104,143.168,104,152z"/>
<path style="fill:#EAE744;" d="M160,156.784c0-9,0.12-22.104-3.496-30.2c-4.272-9.272-12.632-14.336-12.992-15.744
	C134.544,75.52,135.288,32,88,32l0,0l0,0l0,0l0,0c-47.288,0-46.544,43.52-55.512,78.84c-0.368,1.4-8.728,6.464-12.992,15.744
	c-3.616,8.096-3.496,21.2-3.496,30.2c0,0,37.2-12.784,72-12.784S160,156.784,160,156.784z"/>
<path style="fill:#F1E85F;" d="M88,32L88,32L88,32L88,32L88,32c-47.288,0-46.544,43.52-55.512,78.84
	c-0.368,1.4-8.728,6.464-12.992,15.744c-3.616,8.096-3.496,21.2-3.496,30.2c0,0,37.2-12.784,72-12.784V32z"/>
</svg>
