<?xml version="1.0" encoding="iso-8859-1"?>
<!-- Generator: Adobe Illustrator 22.1.0, SVG Export Plug-In . SVG Version: 6.00 Build 0)  -->
<svg version="1.1" id="Layer_1" xmlns="http://www.w3.org/2000/svg" xmlns:xlink="http://www.w3.org/1999/xlink" x="0px" y="0px"
	 viewBox="0 0 192 192" style="enable-background:new 0 0 192 192;" xml:space="preserve">
<path style="fill:#404041;" d="M176,0H16C7.168,0,0,7.168,0,16v160c0,8.832,7.168,16,16,16h160c8.832,0,16-7.168,16-16V16
	C192,7.168,184.832,0,176,0z"/>
<rect x="16" y="64" style="fill:#FFFFFF;" width="160" height="112"/>
<rect x="16" y="16" style="fill:#E84849;" width="160" height="48"/>
<rect x="104" y="80" style="fill:#CCCCCF;" width="16" height="16"/>
<rect x="136" y="80" style="fill:#CCCCCF;" width="16" height="16"/>
<rect x="72" y="80" style="fill:#CCCCCF;" width="16" height="16"/>
<rect x="104" y="112" style="fill:#CCCCCF;" width="16" height="16"/>
<rect x="136" y="112" style="fill:#CCCCCF;" width="16" height="16"/>
<rect x="72" y="112" style="fill:#CCCCCF;" width="16" height="16"/>
<rect x="40" y="112" style="fill:#CCCCCF;" width="16" height="16"/>
<rect x="104" y="144" style="fill:#CCCCCF;" width="16" height="16"/>
<rect x="72" y="144" style="fill:#CCCCCF;" width="16" height="16"/>
<rect x="40" y="144" style="fill:#CCCCCF;" width="16" height="16"/>
</svg>
