<?xml version="1.0" encoding="iso-8859-1"?>
<!-- Generator: Adobe Illustrator 22.1.0, SVG Export Plug-In . SVG Version: 6.00 Build 0)  -->
<svg version="1.1" id="Layer_1" xmlns="http://www.w3.org/2000/svg" xmlns:xlink="http://www.w3.org/1999/xlink" x="0px" y="0px"
	 viewBox="0 0 192 192" style="enable-background:new 0 0 192 192;" xml:space="preserve">
<path style="fill:#404041;" d="M192,96c0,53.008-42.992,96-96,96S0,149.008,0,96S42.992,0,96,0S192,42.992,192,96"/>
<path style="fill:#1FA85B;" d="M176,96c0,44.176-35.824,80-80,80s-80-35.824-80-80s35.824-80,80-80S176,51.824,176,96"/>
<path style="fill:#FFFFFF;" d="M88,136c-2.047,0-4.094-0.781-5.656-2.344l-32-32c-3.125-3.125-3.125-8.188,0-11.313
	s8.188-3.125,11.313,0L88,116.688l50.344-50.344c3.125-3.125,8.188-3.125,11.313,0s3.125,8.188,0,11.313l-56,56
	C92.094,135.219,90.047,136,88,136z"/>
</svg>
