<?xml version="1.0" encoding="iso-8859-1"?>
<!-- Generator: Adobe Illustrator 22.1.0, SVG Export Plug-In . SVG Version: 6.00 Build 0)  -->
<svg version="1.1" id="Layer_1" xmlns="http://www.w3.org/2000/svg" xmlns:xlink="http://www.w3.org/1999/xlink" x="0px" y="0px"
	 viewBox="0 0 192 144" style="enable-background:new 0 0 192 144;" xml:space="preserve">
<path style="fill:#404041;" d="M183.8,8.191C178.343,2.73,171.171-0.001,164,0c-7.169,0.001-14.337,2.732-19.792,8.191L76,76.391
	l-28.2-28.2C37.216,37.615,18.776,37.623,8.208,48.183C2.912,53.479,0,60.511,0,67.991s2.912,14.512,8.2,19.8l48,48
	C61.496,141.079,68.52,144,76,144s14.504-2.921,19.8-8.209l88-87.992c5.288-5.296,8.2-12.328,8.2-19.808S189.088,13.479,183.8,8.191
	z"/>
<path style="fill:#1FA85B;" d="M76,128c-3.072,0-6.144-1.177-8.488-3.521l-48-48c-4.688-4.68-4.688-12.288,0-16.968
	c4.688-4.688,12.28-4.688,16.968,0L76,99.023l79.512-79.512c2.345-2.345,5.417-3.512,8.488-3.511
	c3.069,0.001,6.137,1.168,8.48,3.511c4.688,4.68,4.688,12.288,0,16.968l-88,88C82.144,126.823,79.072,128,76,128z"/>
</svg>
