<?xml version="1.0" encoding="iso-8859-1"?>
<!-- Generator: Adobe Illustrator 22.1.0, SVG Export Plug-In . SVG Version: 6.00 Build 0)  -->
<svg version="1.1" id="Layer_1" xmlns="http://www.w3.org/2000/svg" xmlns:xlink="http://www.w3.org/1999/xlink" x="0px" y="0px"
	 viewBox="0 0 192 192" style="enable-background:new 0 0 192 192;" xml:space="preserve">
<path style="fill:#404041;" d="M192,96c0,53.008-42.992,96-96,96S0,149.008,0,96S42.992,0,96,0S192,42.992,192,96"/>
<path style="fill:#FFFFFF;" d="M96,16c44.176,0,80,35.824,80,80s-35.824,80-80,80s-80-35.824-80-80S51.824,16,96,16"/>
<path style="fill:#26A9E0;" d="M128,136c-2.048,0-4.096-0.784-5.656-2.344l-32-32C88.84,100.16,88,98.12,88,96V40
	c0-4.416,3.584-8,8-8s8,3.584,8,8v52.688l29.656,29.656c3.128,3.128,3.128,8.184,0,11.312C132.096,135.216,130.048,136,128,136z"/>
<circle style="fill:#26A9E0;" cx="96" cy="96" r="12"/>
</svg>
