<?xml version="1.0" encoding="iso-8859-1"?>
<!-- Generator: Adobe Illustrator 22.1.0, SVG Export Plug-In . SVG Version: 6.00 Build 0)  -->
<svg version="1.1" id="Layer_1" xmlns="http://www.w3.org/2000/svg" xmlns:xlink="http://www.w3.org/1999/xlink" x="0px" y="0px"
	 viewBox="0 0 192 128" style="enable-background:new 0 0 192 128;" xml:space="preserve">
<path style="fill:#404041;" d="M190.314,56.84C189.154,54.52,161.146,0,96,0S2.846,54.52,1.686,56.84
	c-2.248,4.504-2.248,9.808,0,14.312C2.846,73.48,30.855,128,96,128s93.154-54.52,94.314-56.84
	C192.562,66.656,192.562,61.344,190.314,56.84z"/>
<path style="fill:#FFFFFF;" d="M176,64c0,0-24,48-80,48S16,64,16,64s24-48,80-48S176,64,176,64z"/>
<circle style="fill:#6EC2CB;" cx="96" cy="64" r="40"/>
<circle style="fill:#404041;" cx="96" cy="64" r="16"/>
</svg>
