<?xml version="1.0" encoding="iso-8859-1"?>
<!-- Generator: Adobe Illustrator 22.1.0, SVG Export Plug-In . SVG Version: 6.00 Build 0)  -->
<svg version="1.1" id="Layer_1" xmlns="http://www.w3.org/2000/svg" xmlns:xlink="http://www.w3.org/1999/xlink" x="0px" y="0px"
	 viewBox="0 0 192 144" style="enable-background:new 0 0 192 144;" xml:space="preserve">
<path style="fill:#404041;" d="M190.31,71.159c2.248-4.504,2.248-9.808,0-14.312C189.15,54.519,161.142,0,95.996,0
	S2.842,54.519,1.682,56.839c-2.248,4.504-2.248,9.808,0,14.312C2.234,72.254,8.93,85.134,22.691,98.35l-5.008,6.448
	c-2.72,3.488-2.088,8.512,1.408,11.224c1.456,1.136,3.184,1.68,4.896,1.68c2.392,0,4.752-1.064,6.32-3.088l4.704-6.048
	c5.008,3.592,10.6,6.944,16.832,9.84l-3.008,6.008c-1.976,3.952-0.376,8.76,3.576,10.736c1.152,0.576,2.376,0.848,3.576,0.848
	c2.936,0,5.76-1.616,7.168-4.424l3.808-7.616c6.48,1.832,13.485,3.088,21.037,3.624V136c0,4.416,3.575,8,7.999,8s8-3.584,8-8v-8.419
	c7.552-0.544,14.549-1.792,21.029-3.624l3.808,7.616c1.408,2.808,4.232,4.424,7.168,4.424c1.2,0,2.424-0.272,3.568-0.84
	c3.952-1.976,5.552-6.784,3.576-10.736l-3.008-6.008c6.24-2.896,11.832-6.248,16.832-9.84l4.704,6.048
	c1.568,2.024,3.928,3.088,6.32,3.088c1.712,0,3.448-0.552,4.896-1.68c3.496-2.712,4.128-7.736,1.408-11.224l-5.008-6.448
	C183.062,85.134,189.758,72.254,190.31,71.159z"/>
<path style="fill:#F29652;" d="M176.5,64c0,0-24.15,48-80.5,48S15.5,64,15.5,64S39.65,16,96,16S176.5,64,176.5,64z"/>
</svg>
