<?xml version="1.0" encoding="iso-8859-1"?>
<!-- Generator: Adobe Illustrator 22.1.0, SVG Export Plug-In . SVG Version: 6.00 Build 0)  -->
<svg version="1.1" id="Layer_1" xmlns="http://www.w3.org/2000/svg" xmlns:xlink="http://www.w3.org/1999/xlink" x="0px" y="0px"
	 viewBox="0 0 192 192" style="enable-background:new 0 0 192 192;" xml:space="preserve">
<path style="fill:#404041;" d="M192,96c0,53.008-42.992,96-96,96S0,149.008,0,96S42.992,0,96,0S192,42.992,192,96"/>
<path style="fill:#6EC2CB;" d="M176,96c0,44.176-35.824,80-80,80s-80-35.824-80-80s35.824-80,80-80S176,51.824,176,96"/>
<path style="fill:#FFFFFF;" d="M59.008,70.92c0-4.68,1.504-9.432,4.512-14.24s7.4-8.792,13.168-11.944
	C82.464,41.584,89.192,40,96.888,40c7.144,0,13.464,1.32,18.936,3.96c5.472,2.64,9.704,6.224,12.688,10.76
	c2.984,4.544,4.472,9.472,4.472,14.792c0,4.192-0.848,7.872-2.552,11.024c-1.704,3.16-3.728,5.88-6.064,8.176
	c-2.336,2.296-6.544,6.152-12.616,11.576c-1.672,1.528-3.024,2.872-4.032,4.032c-1.008,1.16-1.768,2.216-2.256,3.184
	s-0.88,1.92-1.144,2.888s-0.672,2.656-1.224,5.064c-0.936,5.136-3.872,7.696-8.8,7.696c-2.56,0-4.728-0.84-6.472-2.512
	c-1.744-1.672-2.624-4.168-2.624-7.472c0-4.144,0.64-7.728,1.92-10.76c1.288-3.032,2.984-5.696,5.104-7.992s4.984-5.016,8.584-8.176
	c3.152-2.76,5.44-4.848,6.84-6.248s2.592-2.976,3.552-4.704s1.44-3.6,1.44-5.624c0-3.944-1.472-7.272-4.4-9.984
	c-2.928-2.712-6.72-4.072-11.352-4.072c-5.432,0-9.424,1.368-11.984,4.104c-2.56,2.736-4.736,6.768-6.512,12.096
	c-1.672,5.576-4.856,8.36-9.544,8.36c-2.768,0-5.096-0.968-6.992-2.92C59.968,75.304,59.008,73.192,59.008,70.92z M95.112,152
	c-3.008,0-5.632-0.976-7.88-2.92s-3.368-4.672-3.368-8.176c0-3.104,1.08-5.72,3.256-7.84c2.176-2.12,4.84-3.184,7.992-3.184
	c3.104,0,5.72,1.064,7.84,3.184c2.12,2.12,3.184,4.736,3.184,7.84c0,3.456-1.112,6.168-3.328,8.136
	C100.584,151.008,98.024,152,95.112,152z"/>
</svg>
