<?xml version="1.0" encoding="iso-8859-1"?>
<!-- Generator: Adobe Illustrator 22.1.0, SVG Export Plug-In . SVG Version: 6.00 Build 0)  -->
<svg version="1.1" id="Layer_1" xmlns="http://www.w3.org/2000/svg" xmlns:xlink="http://www.w3.org/1999/xlink" x="0px" y="0px"
	 viewBox="0 0 192 192" style="enable-background:new 0 0 192 192;" xml:space="preserve">
<path style="fill:#404041;" d="M192,96c0,53.008-42.992,96-96,96S0,149.008,0,96S42.992,0,96,0S192,42.992,192,96"/>
<path style="fill:#EDB20F;" d="M176,96c0,44.176-35.824,80-80,80s-80-35.824-80-80s35.824-80,80-80S176,51.824,176,96"/>
<path style="fill:#FFFFFF;" d="M87.864,103.32l-2.368-35.432c-0.44-6.904-0.664-11.856-0.664-14.872
	c0-4.088,1.072-7.288,3.216-9.576S93.016,40,96.52,40c4.248,0,7.072,1.472,8.504,4.4c1.432,2.936,2.144,7.168,2.144,12.688
	c0,3.256-0.176,6.56-0.52,9.912l-3.184,36.472c-0.344,4.344-1.08,7.672-2.216,9.984c-1.136,2.32-3.008,3.48-5.624,3.48
	c-2.664,0-4.512-1.12-5.552-3.368C89.048,111.328,88.304,107.912,87.864,103.32z M96.072,152c-3.008,0-5.632-0.976-7.88-2.92
	s-3.368-4.672-3.368-8.176c0-3.056,1.072-5.656,3.216-7.808s4.768-3.216,7.88-3.216s5.76,1.072,7.952,3.216s3.288,4.752,3.288,7.808
	c0,3.456-1.112,6.168-3.328,8.136C101.624,151.008,99.032,152,96.072,152z"/>
</svg>
