<?xml version="1.0" encoding="iso-8859-1"?>
<!-- Generator: Adobe Illustrator 22.1.0, SVG Export Plug-In . SVG Version: 6.00 Build 0)  -->
<svg version="1.1" id="Layer_1" xmlns="http://www.w3.org/2000/svg" xmlns:xlink="http://www.w3.org/1999/xlink" x="0px" y="0px"
	 viewBox="0 0 176 192" style="enable-background:new 0 0 176 192;" xml:space="preserve">
<path style="fill:#404041;" d="M160,145.472V144c0-22.472-20.6-34.32-35.648-42.968c-2.528-1.456-5.768-3.312-8.456-5.032
	c2.688-1.72,5.92-3.576,8.456-5.032C139.4,82.32,160,70.472,160,48v-1.472c9.288-3.312,16-12.112,16-22.528
	c0-13.232-10.768-24-24-24H24C10.768,0,0,10.768,0,24c0,10.416,6.712,19.216,16,22.528V48c0,22.472,20.6,34.32,35.648,42.968
	c2.528,1.456,5.768,3.312,8.456,5.032c-2.688,1.72-5.92,3.576-8.456,5.032C36.6,109.68,16,121.528,16,144v1.472
	C6.712,148.784,0,157.584,0,168c0,13.232,10.768,24,24,24h128c13.232,0,24-10.768,24-24C176,157.584,169.288,148.784,160,145.472z"
	/>
<path style="fill:#F29652;" d="M152,32H24c-4.416,0-8-3.584-8-8l0,0c0-4.416,3.584-8,8-8h128c4.416,0,8,3.584,8,8l0,0
	C160,28.416,156.416,32,152,32z"/>
<path style="fill:#F29652;" d="M152,176H24c-4.416,0-8-3.584-8-8l0,0c0-4.416,3.584-8,8-8h128c4.416,0,8,3.584,8,8l0,0
	C160,172.416,156.416,176,152,176z"/>
<path style="fill:#B6EEF0;" d="M144,48c0-16,0-16,0-16H32c0,0,0,8,0,16c0,24,48,32,48,48s-48,24-48,48c0,16,0,16,0,16h112
	c0,0,0-8,0-16c0-24-48-32-48-48S144,72,144,48z"/>
<path style="fill:#4FABB5;" d="M128,152c0-16-40-32-40-32s-40,16-40,32c0,8,0,8,0,8h80C128,160,128,160,128,152z"/>
<path style="fill:#4FABB5;" d="M59.176,64C71.016,73.176,88,80,88,80s16.984-6.824,28.824-16H59.176z"/>
</svg>
