<?xml version="1.0" encoding="iso-8859-1"?>
<!-- Generator: Adobe Illustrator 22.1.0, SVG Export Plug-In . SVG Version: 6.00 Build 0)  -->
<svg version="1.1" id="Layer_1" xmlns="http://www.w3.org/2000/svg" xmlns:xlink="http://www.w3.org/1999/xlink" x="0px" y="0px"
	 viewBox="0 0 192 192" style="enable-background:new 0 0 192 192;" xml:space="preserve">
<path style="fill:#404041;" d="M181.512,38.523C181.512,38.523,181.504,38.523,181.512,38.523l-28.04-28.04
	c-7.2-7.192-17.168-10.968-27.32-10.432c-10.16,0.568-19.632,5.448-25.984,13.392l-23.24,29.048
	c-4.064-1.584-8.432-2.408-12.928-2.408c-9.488,0-18.408,3.696-25.12,10.408L28.688,60.683c-6.248,6.248-6.248,16.376,0,22.624
	l20.68,20.688l-44.68,44.688c-3,3-4.688,7.072-4.688,11.312v16c0,8.832,7.168,16,16,16h16c4.24,0,8.312-1.688,11.312-4.688
	L88,142.627l20.688,20.68c6.24,6.248,16.384,6.248,22.624,0l10.192-10.192c6.712-6.704,10.408-15.632,10.408-25.12
	c0-4.496-0.832-8.864-2.416-12.928l29.048-23.24c7.944-6.352,12.832-15.832,13.392-25.992
	C192.504,55.675,188.704,45.723,181.512,38.523z"/>
<path style="fill:#D94142;" d="M170.192,49.843l-28.032-28.04c-8.352-8.36-22.112-7.592-29.496,1.632L70.432,76.227l45.336,45.344
	l52.792-42.232C177.784,71.955,178.552,58.195,170.192,49.843z"/>
<polygon style="fill:#CCCCCF;" points="88,119.995 72,103.995 16,159.995 16,175.995 32,175.995 "/>
<path style="fill:#ED5152;" d="M130.2,114.195l-52.4-52.4c-7.624-7.624-19.984-7.624-27.608,0L40,71.995l80,80l10.2-10.2
	C137.824,134.171,137.824,121.819,130.2,114.195z"/>
</svg>
