<?xml version="1.0" encoding="iso-8859-1"?>
<!-- Generator: Adobe Illustrator 22.1.0, SVG Export Plug-In . SVG Version: 6.00 Build 0)  -->
<svg version="1.1" id="Layer_1" xmlns="http://www.w3.org/2000/svg" xmlns:xlink="http://www.w3.org/1999/xlink" x="0px" y="0px"
	 viewBox="0 0 168 192" style="enable-background:new 0 0 168 192;" xml:space="preserve">
<path style="fill:#404041;" d="M26.031,192.002c-4.475,0-8.897-1.161-12.79-3.358C5.074,184.034,0,175.342,0,165.96V26.04
	C0,16.658,5.074,7.966,13.242,3.356c8.167-4.608,18.223-4.459,26.244,0.388l115.927,69.953C163.296,78.457,168,86.794,168,96
	c0,9.206-4.703,17.542-12.581,22.299L39.476,188.261C35.425,190.707,30.774,192.002,26.031,192.002z"/>
<path style="fill:#6EC2CB;" d="M26.031,176c-1.698,0-3.398-0.43-4.926-1.292c-3.149-1.777-5.105-5.13-5.105-8.75V26.041
	c0-3.619,1.956-6.972,5.105-8.75c3.144-1.774,7.017-1.718,10.106,0.148l115.935,69.957C150.187,89.233,152,92.448,152,96
	s-1.813,6.767-4.852,8.602L31.21,174.56C29.623,175.519,27.828,176,26.031,176z"/>
</svg>
