<?xml version="1.0" encoding="iso-8859-1"?>
<!-- Generator: Adobe Illustrator 22.1.0, SVG Export Plug-In . SVG Version: 6.00 Build 0)  -->
<svg version="1.1" id="Layer_1" xmlns="http://www.w3.org/2000/svg" xmlns:xlink="http://www.w3.org/1999/xlink" x="0px" y="0px"
	 viewBox="0 0 192 176" style="enable-background:new 0 0 192 176;" xml:space="preserve">
<path style="fill:#404041;" d="M189.99,80.232l-39.999-72C147.167,3.152,141.815,0,135.999,0H56.001
	c-5.816,0-11.168,3.152-13.992,8.232l-39.999,72c-2.68,4.832-2.68,10.704,0,15.536l39.999,72c2.824,5.08,8.176,8.232,13.992,8.232
	h79.998c5.816,0,11.168-3.152,13.992-8.232l39.999-72C192.67,90.936,192.67,85.064,189.99,80.232z"/>
<polygon style="fill:#E84849;" points="135.75,16 56.25,16 16.5,88 56.25,160 135.75,160 175.5,88 "/>
<path style="fill:#FFFFFF;" d="M136,96H56c-4.416,0-8-3.584-8-8s3.584-8,8-8h80c4.416,0,8,3.584,8,8S140.416,96,136,96z"/>
</svg>
