<?xml version="1.0" encoding="iso-8859-1"?>
<!-- Generator: Adobe Illustrator 22.1.0, SVG Export Plug-In . SVG Version: 6.00 Build 0)  -->
<svg version="1.1" id="Layer_1" xmlns="http://www.w3.org/2000/svg" xmlns:xlink="http://www.w3.org/1999/xlink" x="0px" y="0px"
	 viewBox="0 0 144 176" style="enable-background:new 0 0 144 176;" xml:space="preserve">
<path style="fill:#404041;" d="M48,0H16C7.168,0,0,7.168,0,16v144c0,8.832,7.168,16,16,16h32c8.832,0,16-7.168,16-16V16
	C64,7.168,56.832,0,48,0z"/>
<rect x="16" y="16" style="fill:#6EC2CB;" width="32" height="144"/>
<path style="fill:#404041;" d="M128,0H96c-8.832,0-16,7.168-16,16v144c0,8.832,7.168,16,16,16h32c8.832,0,16-7.168,16-16V16
	C144,7.168,136.832,0,128,0z"/>
<rect x="96" y="16" style="fill:#6EC2CB;" width="32" height="144"/>
</svg>
