<?xml version="1.0" encoding="iso-8859-1"?>
<!-- Generator: Adobe Illustrator 22.1.0, SVG Export Plug-In . SVG Version: 6.00 Build 0)  -->
<svg version="1.1" id="Layer_1" xmlns="http://www.w3.org/2000/svg" xmlns:xlink="http://www.w3.org/1999/xlink" x="0px" y="0px"
	 viewBox="0 0 192 192" style="enable-background:new 0 0 192 192;" xml:space="preserve">
<path style="fill:#404041;" d="M134.621,96.002l52.687-52.689c4.576-4.576,5.944-11.456,3.472-17.432
	c-2.48-5.984-8.312-9.88-14.784-9.88h-22.063c-10.528,0-20.839,4.272-28.279,11.72L95.998,57.369l-0.792-0.784
	c0.528-2.824,0.792-5.696,0.792-8.584C95.998,21.528,74.47,0,47.999,0S0,21.528,0,48.001C0,71.737,17.336,91.45,39.999,95.282v1.448
	C17.336,100.554,0,120.266,0,144.002C0,170.475,21.527,192,47.999,192s47.999-21.525,47.999-47.998c0-2.888-0.264-5.76-0.792-8.584
	l0.792-0.784l29.647,29.648c7.448,7.448,17.76,11.717,28.287,11.717h22.063c6.472,0,12.304-3.893,14.784-9.877
	c2.48-5.976,1.112-12.856-3.472-17.432L134.621,96.002z"/>
<path style="fill:#CCCCCF;" d="M176.003,160L74.521,58.521L57.545,73.545l79.433,79.433c4.496,4.496,10.6,7.021,16.968,7.021
	H176.003z"/>
<polygon style="fill:#26A9E0;" points="84.001,68.001 74.241,58.241 57.265,73.265 68.001,84.001 "/>
<path style="fill:#26A9E0;" d="M48.001,16C30.329,16,16,30.329,16,48.001s14.328,32.001,32.001,32.001s32.001-14.328,32.001-32.001
	S65.673,16,48.001,16z M48.001,64.001c-8.84,0-16-7.16-16-16s7.16-16,16-16s16,7.16,16,16S56.841,64.001,48.001,64.001z"/>
<path style="fill:#CCCCCF;" d="M176.003,32L73.937,134.066l-16.976-15.024l80.009-80.009C141.474,34.529,147.578,32,153.947,32
	H176.003z"/>
<polygon style="fill:#26A9E0;" points="84.001,124.002 74.241,133.762 57.265,118.738 68.001,108.002 "/>
<path style="fill:#26A9E0;" d="M80.001,144.002c0-17.672-14.328-32.001-32.001-32.001S16,126.33,16,144.002
	s14.328,32.001,32.001,32.001S80.001,161.675,80.001,144.002z M64.001,144.002c0,8.84-7.16,16-16,16s-16-7.16-16-16s7.16-16,16-16
	S64.001,135.162,64.001,144.002z"/>
<circle style="fill:#A0A0A3;" cx="96.002" cy="96.002" r="8"/>
</svg>
