<?xml version="1.0" encoding="iso-8859-1"?>
<!-- Generator: Adobe Illustrator 22.1.0, SVG Export Plug-In . SVG Version: 6.00 Build 0)  -->
<svg version="1.1" id="Layer_1" xmlns="http://www.w3.org/2000/svg" xmlns:xlink="http://www.w3.org/1999/xlink" x="0px" y="0px"
	 viewBox="0 0 192 144" style="enable-background:new 0 0 192 144;" xml:space="preserve">
<path style="fill:#404041;" d="M187.314,37.568C162.897,13.336,130.473,0,96,0S29.103,13.336,4.686,37.568
	c-6.248,6.2-6.248,16.248,0,22.44l80.002,79.344c3.128,3.096,7.216,4.648,11.312,4.648s8.184-1.552,11.312-4.648l80.002-79.344
	C193.562,53.807,193.562,43.768,187.314,37.568z"/>
<path style="fill:#26A9E0;" d="M96,96.334c8.824,0,16.824,3.552,22.616,9.28L96,127.997l-22.616-22.384
	C79.176,99.886,87.176,96.334,96,96.334z M96,16c-31.207,0-59.503,12.559-79.998,32.839l17.808,17.616
	C49.737,50.687,71.737,40.919,96,40.919s46.263,9.768,62.191,25.535l17.808-17.616C155.503,28.559,127.207,16,96,16z M45.113,77.646
	l16.96,16.784C70.761,85.83,82.76,80.502,96,80.502s25.231,5.328,33.927,13.928l16.96-16.784
	C133.847,64.743,115.848,56.759,96,56.759S58.153,64.743,45.113,77.646z"/>
</svg>
