<?xml version="1.0" encoding="iso-8859-1"?>
<!-- Generator: Adobe Illustrator 22.1.0, SVG Export Plug-In . SVG Version: 6.00 Build 0)  -->
<svg version="1.1" id="Layer_1" xmlns="http://www.w3.org/2000/svg" xmlns:xlink="http://www.w3.org/1999/xlink" x="0px" y="0px"
	 viewBox="0 0 192 160" style="enable-background:new 0 0 192 160;" xml:space="preserve">
<path style="fill:#404041;" d="M0,80c0,8.548,3.329,16.584,9.374,22.628l47.999,47.999C63.416,156.671,71.452,160,80,160
	s16.584-3.329,22.628-9.374C108.671,144.584,112,136.548,112,128c0-5.71-1.493-11.188-4.281-16H160c17.645,0,32-14.355,32-32
	s-14.355-32-32-32h-52.281C110.507,43.188,112,37.71,112,32c0-8.548-3.329-16.584-9.374-22.628C96.584,3.329,88.548,0,80,0
	c-8.548,0-16.584,3.329-22.628,9.374l-47.999,48C3.329,63.416,0,71.452,0,80z"/>
<path style="fill:#6EC2CB;" d="M160,64H70.627l20.687-20.687c6.249-6.248,6.249-16.379,0-22.627c-6.248-6.249-16.379-6.249-22.627,0
	l-48,48c-6.249,6.248-6.249,16.379,0,22.627l48,48C71.811,142.438,75.905,144,80,144s8.189-1.562,11.313-4.687
	c6.249-6.248,6.249-16.379,0-22.627L70.627,96H160c8.837,0,16-7.164,16-16S168.837,64,160,64z"/>
</svg>
