<?xml version="1.0" encoding="iso-8859-1"?>
<!-- Generator: Adobe Illustrator 22.1.0, SVG Export Plug-In . SVG Version: 6.00 Build 0)  -->
<svg version="1.1" id="Layer_1" xmlns="http://www.w3.org/2000/svg" xmlns:xlink="http://www.w3.org/1999/xlink" x="0px" y="0px"
	 viewBox="0 0 192 160" style="enable-background:new 0 0 192 160;" xml:space="preserve">
<path style="fill:#404041;" d="M182.627,57.373l-47.999-48C128.584,3.329,120.548,0,112,0S95.416,3.329,89.374,9.372
	C83.329,15.416,80,23.452,80,32c0,5.71,1.493,11.188,4.281,16H32C14.355,48,0,62.355,0,80s14.355,32,32,32h52.281
	C81.493,116.812,80,122.29,80,128c0,8.548,3.329,16.584,9.372,22.626C95.416,156.671,103.452,160,112,160s16.584-3.329,22.627-9.373
	l47.999-47.999C188.671,96.584,192,88.548,192,80S188.671,63.416,182.627,57.373z"/>
<path style="fill:#6EC2CB;" d="M171.313,68.687l-48-48c-6.248-6.249-16.379-6.249-22.627,0c-6.249,6.248-6.249,16.379,0,22.627
	L121.373,64H32c-8.837,0-16,7.164-16,16s7.163,16,16,16h89.373l-20.687,20.687c-6.249,6.248-6.249,16.379,0,22.627
	C103.811,142.438,107.905,144,112,144s8.189-1.562,11.313-4.687l48-48C177.563,85.065,177.563,74.935,171.313,68.687z"/>
</svg>
