<?xml version="1.0" encoding="iso-8859-1"?>
<!-- Generator: Adobe Illustrator 22.1.0, SVG Export Plug-In . SVG Version: 6.00 Build 0)  -->
<svg version="1.1" id="Layer_1" xmlns="http://www.w3.org/2000/svg" xmlns:xlink="http://www.w3.org/1999/xlink" x="0px" y="0px"
	 viewBox="0 0 192 192" style="enable-background:new 0 0 192 192;" xml:space="preserve">
<path style="fill:#404041;" d="M184.979,79.032L112.97,7.021c-9.361-9.361-24.579-9.361-33.94,0L7.021,79.032
	c-9.361,9.353-9.361,24.588,0,33.941l72.009,72.01C83.71,189.664,89.855,192,96,192s12.29-2.336,16.97-7.017l72.009-72.01
	C194.34,103.619,194.34,88.385,184.979,79.032z"/>
<path style="fill:#6EC2CB;" d="M96,160c-4.416,0-8-3.584-8-8V32c0-4.416,3.584-8,8-8s8,3.584,8,8v120
	C104,156.416,100.416,160,96,160z"/>
<path style="fill:#6EC2CB;" d="M120,56c-2.048,0-4.096-0.784-5.656-2.344L96,35.312L77.656,53.656
	c-3.128,3.128-8.184,3.128-11.312,0c-3.128-3.128-3.128-8.184,0-11.312l24-24c3.128-3.128,8.184-3.128,11.312,0l24,24
	c3.128,3.128,3.128,8.184,0,11.312C124.096,55.216,122.048,56,120,56z"/>
<path style="fill:#6EC2CB;" d="M72,136c2.048,0,4.096,0.784,5.656,2.344L96,156.688l18.344-18.344c3.128-3.128,8.184-3.128,11.312,0
	c3.128,3.128,3.128,8.184,0,11.312l-24,24c-3.128,3.128-8.184,3.128-11.312,0l-24-24c-3.128-3.128-3.128-8.184,0-11.312
	C67.904,136.784,69.952,136,72,136z"/>
<path style="fill:#6EC2CB;" d="M32,96c0-4.416,3.584-8,8-8h120c4.416,0,8,3.584,8,8s-3.584,8-8,8H40C35.584,104,32,100.416,32,96z"
	/>
<path style="fill:#6EC2CB;" d="M136,120c0-2.048,0.784-4.096,2.344-5.656L156.688,96l-18.344-18.344
	c-3.128-3.128-3.128-8.184,0-11.312c3.128-3.128,8.184-3.128,11.312,0l24,24c3.128,3.128,3.128,8.184,0,11.312l-24,24
	c-3.128,3.128-8.184,3.128-11.312,0C136.784,124.096,136,122.048,136,120z"/>
<path style="fill:#6EC2CB;" d="M56,72c0,2.048-0.784,4.096-2.344,5.656L35.312,96l18.344,18.344c3.128,3.128,3.128,8.184,0,11.312
	c-3.128,3.128-8.184,3.128-11.312,0l-24-24c-3.128-3.128-3.128-8.184,0-11.312l24-24c3.128-3.128,8.184-3.128,11.312,0
	C55.216,67.904,56,69.952,56,72z"/>
</svg>
