<?xml version="1.0" encoding="iso-8859-1"?>
<!-- Generator: Adobe Illustrator 22.1.0, SVG Export Plug-In . SVG Version: 6.00 Build 0)  -->
<svg version="1.1" id="Layer_1" xmlns="http://www.w3.org/2000/svg" xmlns:xlink="http://www.w3.org/1999/xlink" x="0px" y="0px"
	 viewBox="0 0 192 164" style="enable-background:new 0 0 192 164;" xml:space="preserve">
<path style="fill:#404041;" d="M188.512,131.377L113.673,9.834C109.849,3.676,103.265,0,96.057,0C88.754,0,81.93,3.893,78.41,9.883
	L3.115,132.038c-3.976,6.489-4.152,14.623-0.496,21.2C6.299,159.873,13.251,164,20.787,164h150.405
	c11.472,0,20.808-9.407,20.792-20.306C192.159,139.366,190.927,135.021,188.512,131.377z"/>
<path style="fill:#EDC92C;" d="M96.058,16c-1.762,0-3.273,1.001-3.854,1.99l-0.173,0.289L16.736,140.434
	c-0.924,1.508-0.985,3.497-0.132,5.031c0.87,1.568,2.47,2.535,4.183,2.535h150.405c1.751,0,2.943-0.931,3.497-1.486
	c0.824-0.825,1.296-1.845,1.294-2.796l0-0.337l0.014-0.337c0.039-0.951-0.26-1.98-0.82-2.825l-0.289-0.452L100.049,18.224
	C99.17,16.808,97.741,16,96.058,16z"/>
<path d="M90.46,97.608l-1.544-23.272c-0.312-4.536-0.44-7.8-0.44-9.784c0-2.688,0.704-4.8,2.112-6.304
	C91.996,56.752,93.852,56,96.14,56c2.776,0,4.672,0.968,5.6,2.912c0.928,1.936,1.408,4.712,1.408,8.328
	c0,2.16-0.136,4.32-0.352,6.52l-2.072,23.928c-0.224,2.864-0.704,5.024-1.456,6.568s-1.984,2.288-3.704,2.288
	c-1.76,0-2.952-0.752-3.656-2.2C91.252,102.856,90.772,100.608,90.46,97.608z M95.884,129.56c-1.984,0-3.704-0.616-5.16-1.896
	c-1.456-1.28-2.2-3.088-2.2-5.376c0-2.024,0.704-3.704,2.112-5.112s3.128-2.112,5.16-2.112c2.024,0,3.792,0.704,5.248,2.112
	s2.16,3.128,2.16,5.112c0,2.248-0.752,4.056-2.2,5.336C99.492,128.944,97.82,129.56,95.884,129.56z"/>
</svg>
