<?xml version="1.0" encoding="iso-8859-1"?>
<!-- Generator: Adobe Illustrator 22.1.0, SVG Export Plug-In . SVG Version: 6.00 Build 0)  -->
<svg version="1.1" id="Layer_1" xmlns="http://www.w3.org/2000/svg" xmlns:xlink="http://www.w3.org/1999/xlink" x="0px" y="0px"
	 viewBox="0 0 192 192" style="enable-background:new 0 0 192 192;" xml:space="preserve">
<path style="fill:#404041;" d="M192,96c0,53.008-42.992,96-96,96S0,149.008,0,96S42.992,0,96,0S192,42.992,192,96"/>
<path style="fill:#26A9E0;" d="M176,96c0,44.176-35.824,80-80,80s-80-35.824-80-80s35.824-80,80-80S176,51.824,176,96"/>
<path style="fill:#FFFFFF;" d="M127.968,96.496c0,6.832-0.416,12.712-1.248,17.624s-2.376,9.376-4.624,13.376
	c-2.832,4.912-6.496,8.712-11,11.376s-9.504,4-15,4c-6.336,0-12.008-1.792-17.032-5.376c-5.024-3.584-8.808-8.536-11.344-14.872
	c-1.296-3.464-2.24-7.28-2.84-11.472c-0.608-4.184-0.904-8.72-0.904-13.592c0-6.288,0.336-11.952,1-17
	c0.664-5.04,1.704-9.376,3.128-13c2.456-6,6.032-10.568,10.72-13.72c4.688-3.144,10.28-4.72,16.784-4.72
	c4.288,0,8.184,0.704,11.688,2.096c3.504,1.4,6.568,3.44,9.216,6.128s4.88,6.016,6.72,9.968
	C126.384,74.184,127.968,83.92,127.968,96.496z M110.84,95.248c0-7.624-0.464-13.856-1.376-18.72c-0.92-4.848-2.464-8.512-4.624-11
	c-2.168-2.48-5.168-3.72-9-3.72c-5.504,0-9.328,2.776-11.472,8.312c-2.152,5.544-3.216,14.088-3.216,25.624
	c0,7.832,0.456,14.248,1.376,19.248c0.912,5,2.456,8.784,4.624,11.344s5.104,3.84,8.816,3.84c3.832,0,6.832-1.336,9-4
	s3.688-6.48,4.56-11.44S110.84,103.288,110.84,95.248z"/>
</svg>
