<?xml version="1.0" encoding="iso-8859-1"?>
<!-- Generator: Adobe Illustrator 22.1.0, SVG Export Plug-In . SVG Version: 6.00 Build 0)  -->
<svg version="1.1" id="Layer_1" xmlns="http://www.w3.org/2000/svg" xmlns:xlink="http://www.w3.org/1999/xlink" x="0px" y="0px"
	 viewBox="0 0 192 192" style="enable-background:new 0 0 192 192;" xml:space="preserve">
<path style="fill:#404041;" d="M192,96c0,53.008-42.992,96-96,96S0,149.008,0,96S42.992,0,96,0S192,42.992,192,96"/>
<path style="fill:#26A9E0;" d="M176,96c0,44.176-35.824,80-80,80s-80-35.824-80-80s35.824-80,80-80S176,51.824,176,96"/>
<path style="fill:#FFFFFF;" d="M90.048,132.752v-56.88C79.464,84,72.336,88.056,68.672,88.056c-1.752,0-3.304-0.696-4.656-2.096
	c-1.352-1.392-2.032-3.008-2.032-4.84c0-2.128,0.664-3.688,2-4.688c1.328-0.992,3.688-2.28,7.064-3.872
	c5.04-2.376,9.072-4.872,12.096-7.504c3.016-2.624,5.696-5.56,8.032-8.816c2.336-3.248,3.848-5.248,4.56-6
	c0.704-0.752,2.04-1.128,4-1.128c2.208,0,3.976,0.856,5.312,2.56c1.336,1.712,2,4.064,2,7.064v71.56c0,8.376-2.856,12.56-8.56,12.56
	c-2.544,0-4.584-0.848-6.128-2.56C90.816,138.6,90.048,136.088,90.048,132.752z"/>
</svg>
