<?xml version="1.0" encoding="iso-8859-1"?>
<!-- Generator: Adobe Illustrator 22.1.0, SVG Export Plug-In . SVG Version: 6.00 Build 0)  -->
<svg version="1.1" id="Layer_1" xmlns="http://www.w3.org/2000/svg" xmlns:xlink="http://www.w3.org/1999/xlink" x="0px" y="0px"
	 viewBox="0 0 192 192" style="enable-background:new 0 0 192 192;" xml:space="preserve">
<path style="fill:#404041;" d="M192,96c0,53.008-42.992,96-96,96S0,149.008,0,96S42.992,0,96,0S192,42.992,192,96"/>
<path style="fill:#26A9E0;" d="M176,96c0,44.176-35.824,80-80,80s-80-35.824-80-80s35.824-80,80-80S176,51.824,176,96"/>
<path style="fill:#FFFFFF;" d="M85.44,125.44h32.624c3.248,0,5.728,0.664,7.44,2c1.704,1.336,2.56,3.152,2.56,5.44
	c0,2.04-0.68,3.776-2.032,5.184c-1.352,1.416-3.408,2.128-6.16,2.128h-46c-3.128,0-5.56-0.864-7.312-2.592s-2.624-3.76-2.624-6.096
	c0-1.504,0.56-3.496,1.688-5.968s2.352-4.432,3.688-5.84c5.536-5.752,10.536-10.68,15-14.784c4.456-4.104,7.648-6.808,9.56-8.096
	c3.416-2.416,6.256-4.84,8.528-7.28c2.272-2.44,4-4.936,5.184-7.504s1.784-5.072,1.784-7.528c0-2.664-0.64-5.048-1.904-7.16
	c-1.272-2.104-3-3.736-5.184-4.904s-4.576-1.752-7.16-1.752c-5.464,0-9.752,2.4-12.872,7.184c-0.416,0.624-1.12,2.336-2.096,5.128
	c-0.976,2.792-2.08,4.936-3.312,6.44c-1.232,1.504-3.032,2.248-5.408,2.248c-2.088,0-3.816-0.688-5.184-2.064
	S64.184,76.376,64.184,74c0-2.872,0.648-5.872,1.936-9c1.296-3.128,3.224-5.96,5.784-8.504c2.56-2.536,5.816-4.592,9.752-6.16
	S90.208,48,95.504,48c6.376,0,11.816,1,16.312,3c2.912,1.336,5.48,3.168,7.688,5.504c2.208,2.336,3.928,5.032,5.16,8.096
	c1.224,3.064,1.84,6.24,1.84,9.528c0,5.168-1.28,9.864-3.84,14.096s-5.176,7.536-7.84,9.936c-2.664,2.4-7.136,6.16-13.408,11.28
	c-6.272,5.128-10.576,9.104-12.904,11.936C87.504,122.496,86.48,123.848,85.44,125.44z"/>
</svg>
