<?xml version="1.0" encoding="iso-8859-1"?>
<!-- Generator: Adobe Illustrator 22.1.0, SVG Export Plug-In . SVG Version: 6.00 Build 0)  -->
<svg version="1.1" id="Layer_1" xmlns="http://www.w3.org/2000/svg" xmlns:xlink="http://www.w3.org/1999/xlink" x="0px" y="0px"
	 viewBox="0 0 192 192" style="enable-background:new 0 0 192 192;" xml:space="preserve">
<path style="fill:#404041;" d="M192,96c0,53.008-42.992,96-96,96S0,149.008,0,96S42.992,0,96,0S192,42.992,192,96"/>
<path style="fill:#26A9E0;" d="M176,96c0,44.176-35.824,80-80,80s-80-35.824-80-80s35.824-80,80-80S176,51.824,176,96"/>
<path style="fill:#FFFFFF;" d="M92.816,84.752c3.832,0,7.136-1.128,9.904-3.376s4.16-5.48,4.16-9.688
	c0-3.208-1.104-5.968-3.312-8.28c-2.208-2.312-5.184-3.472-8.936-3.472c-2.544,0-4.64,0.352-6.28,1.064
	c-1.648,0.712-2.952,1.648-3.904,2.816c-0.96,1.168-1.864,2.664-2.72,4.496s-1.64,3.56-2.344,5.184
	c-0.424,0.88-1.176,1.568-2.256,2.064c-1.088,0.504-2.336,0.752-3.752,0.752c-1.664,0-3.2-0.672-4.592-2.032
	c-1.4-1.352-2.096-3.152-2.096-5.408c0-2.168,0.656-4.448,1.968-6.84c1.312-2.392,3.224-4.672,5.752-6.84
	c2.52-2.168,5.656-3.904,9.408-5.216S91.752,48,96.376,48c4.04,0,7.728,0.552,11.064,1.656c3.336,1.104,6.224,2.696,8.688,4.784
	c2.456,2.088,4.312,4.496,5.56,7.248s1.872,5.712,1.872,8.872c0,4.168-0.904,7.744-2.72,10.72c-1.816,2.984-4.408,5.888-7.784,8.72
	c3.248,1.752,5.992,3.752,8.216,6s3.904,4.744,5.032,7.472s1.696,5.68,1.696,8.84c0,3.792-0.76,7.464-2.28,11
	s-3.76,6.696-6.72,9.472s-6.472,4.936-10.528,6.496S99.92,141.624,95,141.624c-5,0-9.48-0.896-13.44-2.688
	c-3.96-1.792-7.216-4.032-9.784-6.72s-4.496-5.472-5.816-8.344s-1.96-5.248-1.96-7.12c0-2.416,0.784-4.368,2.344-5.84
	s3.504-2.216,5.84-2.216c1.168,0,2.288,0.344,3.376,1.032c1.08,0.688,1.792,1.504,2.128,2.472
	c2.168,5.792,4.488,10.096,6.968,12.904c2.48,2.816,5.968,4.216,10.472,4.216c2.584,0,5.072-0.632,7.472-1.904
	c2.392-1.272,4.376-3.16,5.936-5.656s2.344-5.4,2.344-8.688c0-4.872-1.336-8.696-4-11.472s-6.376-4.16-11.128-4.16
	c-0.832,0-2.128,0.088-3.872,0.248s-2.872,0.248-3.376,0.248c-2.296,0-4.064-0.568-5.312-1.72s-1.872-2.744-1.872-4.784
	c0-2,0.752-3.616,2.248-4.84c1.504-1.224,3.728-1.84,6.688-1.84H92.816z"/>
</svg>
