<?xml version="1.0" encoding="iso-8859-1"?>
<!-- Generator: Adobe Illustrator 22.1.0, SVG Export Plug-In . SVG Version: 6.00 Build 0)  -->
<svg version="1.1" id="Layer_1" xmlns="http://www.w3.org/2000/svg" xmlns:xlink="http://www.w3.org/1999/xlink" x="0px" y="0px"
	 viewBox="0 0 192 192" style="enable-background:new 0 0 192 192;" xml:space="preserve">
<path style="fill:#404041;" d="M192,96c0,53.008-42.992,96-96,96S0,149.008,0,96S42.992,0,96,0S192,42.992,192,96"/>
<path style="fill:#26A9E0;" d="M176,96c0,44.176-35.824,80-80,80s-80-35.824-80-80s35.824-80,80-80S176,51.824,176,96"/>
<path style="fill:#FFFFFF;" d="M96.856,132.872v-11.624H65.48c-3.96,0-6.928-0.896-8.904-2.688
	c-1.984-1.784-2.976-4.224-2.976-7.312c0-0.792,0.144-1.592,0.44-2.408c0.288-0.816,0.728-1.664,1.312-2.56
	c0.584-0.896,1.184-1.76,1.816-2.592s1.392-1.848,2.312-3.064l33.128-44.312c2.168-2.912,3.944-5.032,5.344-6.344
	c1.392-1.312,3.064-1.968,5.024-1.968c6.336,0,9.504,3.624,9.504,10.872v48.376h2.688c3.208,0,5.784,0.44,7.72,1.312
	s2.904,2.792,2.904,5.752c0,2.416-0.792,4.176-2.376,5.28s-3.96,1.656-7.128,1.656h-3.808v11.624c0,3.208-0.712,5.592-2.128,7.16
	c-1.416,1.56-3.312,2.344-5.688,2.344c-2.336,0-4.216-0.808-5.656-2.408S96.856,136,96.856,132.872z M69.976,107.248h26.872V70.936
	L69.976,107.248z"/>
</svg>
