<?xml version="1.0" encoding="iso-8859-1"?>
<!-- Generator: Adobe Illustrator 22.1.0, SVG Export Plug-In . SVG Version: 6.00 Build 0)  -->
<svg version="1.1" id="Layer_1" xmlns="http://www.w3.org/2000/svg" xmlns:xlink="http://www.w3.org/1999/xlink" x="0px" y="0px"
	 viewBox="0 0 192 192" style="enable-background:new 0 0 192 192;" xml:space="preserve">
<path style="fill:#404041;" d="M192,96c0,53.008-42.992,96-96,96S0,149.008,0,96S42.992,0,96,0S192,42.992,192,96"/>
<path style="fill:#26A9E0;" d="M176,96c0,44.176-35.824,80-80,80s-80-35.824-80-80s35.824-80,80-80S176,51.824,176,96"/>
<path style="fill:#FFFFFF;" d="M116.248,62.688H86.56L83,82.936c5.912-3.168,11.376-4.752,16.376-4.752
	c4,0,7.736,0.752,11.216,2.248c3.48,1.504,6.528,3.576,9.16,6.216c2.624,2.648,4.688,5.784,6.184,9.408s2.248,7.52,2.248,11.688
	c0,6.04-1.36,11.536-4.064,16.496c-2.712,4.96-6.616,8.896-11.72,11.816c-5.112,2.912-10.992,4.376-17.656,4.376
	c-7.464,0-13.512-1.376-18.16-4.128s-7.936-5.904-9.872-9.472s-2.904-6.68-2.904-9.344c0-1.624,0.672-3.168,2.032-4.624
	c1.352-1.464,3.048-2.184,5.096-2.184c3.504,0,6.104,2.024,7.816,6.064c1.664,3.712,3.912,6.592,6.752,8.656
	c2.832,2.064,6,3.096,9.504,3.096c3.2,0,6.016-0.832,8.44-2.496c2.416-1.664,4.28-3.96,5.592-6.872s1.968-6.224,1.968-9.936
	c0-4-0.712-7.416-2.128-10.248c-1.424-2.832-3.312-4.944-5.688-6.344s-5.024-2.096-7.936-2.096c-3.584,0-6.152,0.44-7.688,1.312
	c-1.544,0.872-3.768,2.408-6.656,4.592c-2.896,2.184-5.28,3.28-7.16,3.28c-2.048,0-3.856-0.744-5.44-2.216
	c-1.584-1.48-2.376-3.16-2.376-5.032c0-0.208,0.224-1.624,0.688-4.248l5.248-29.936c0.576-3.584,1.664-6.184,3.248-7.816
	c1.584-1.624,4.168-2.44,7.752-2.44h33c6.496,0,9.752,2.48,9.752,7.44c0,2.168-0.8,3.92-2.376,5.248
	C121.664,62.024,119.328,62.688,116.248,62.688z"/>
</svg>
