<?xml version="1.0" encoding="iso-8859-1"?>
<!-- Generator: Adobe Illustrator 22.1.0, SVG Export Plug-In . SVG Version: 6.00 Build 0)  -->
<svg version="1.1" id="Layer_1" xmlns="http://www.w3.org/2000/svg" xmlns:xlink="http://www.w3.org/1999/xlink" x="0px" y="0px"
	 viewBox="0 0 192 192" style="enable-background:new 0 0 192 192;" xml:space="preserve">
<path style="fill:#404041;" d="M192,96c0,53.008-42.992,96-96,96S0,149.008,0,96S42.992,0,96,0S192,42.992,192,96"/>
<path style="fill:#26A9E0;" d="M176,96c0,44.176-35.824,80-80,80s-80-35.824-80-80s35.824-80,80-80S176,51.824,176,96"/>
<path style="fill:#FFFFFF;" d="M80.592,90.624c2.832-3.376,5.912-5.872,9.248-7.504c3.328-1.624,7.064-2.44,11.184-2.44
	c3.952,0,7.608,0.744,10.968,2.216c3.352,1.48,6.288,3.584,8.816,6.312c2.512,2.728,4.472,5.944,5.84,9.656
	c1.368,3.712,2.064,7.584,2.064,11.624c0,5.872-1.344,11.208-4.032,16s-6.44,8.528-11.248,11.216s-10.264,4.032-16.344,4.032
	c-7,0-13.048-1.712-18.128-5.128c-5.088-3.416-8.968-8.472-11.656-15.16S63.28,106.6,63.28,96.936c0-7.872,0.816-14.912,2.44-21.128
	c1.624-6.208,3.952-11.352,7-15.44c3.04-4.08,6.728-7.168,11.064-9.248C88.112,49.04,93.048,48,98.592,48
	c5.328,0,10.032,1.04,14.096,3.128c4.064,2.088,7.128,4.664,9.184,7.752c2.064,3.088,3.096,6.04,3.096,8.872
	c0,1.712-0.648,3.264-1.936,4.656c-1.296,1.4-2.936,2.096-4.936,2.096c-1.752,0-3.376-0.552-4.872-1.656
	c-1.504-1.104-2.608-2.632-3.312-4.592c-0.96-2.496-2.488-4.504-4.56-6.032c-2.088-1.52-4.496-2.28-7.248-2.28
	c-2.208,0-4.408,0.64-6.592,1.904c-2.184,1.272-4.032,2.992-5.528,5.16C82.92,71.416,81.136,79.296,80.592,90.624z M97.472,129.44
	c4.2,0,7.688-1.72,10.44-5.16s4.128-7.944,4.128-13.528c0-3.792-0.648-7.056-1.936-9.784c-1.296-2.728-3.064-4.816-5.312-6.248
	s-4.736-2.16-7.44-2.16c-2.584,0-5.056,0.688-7.408,2.064c-2.36,1.376-4.248,3.368-5.688,5.968s-2.16,5.656-2.16,9.16
	c0,5.624,1.456,10.312,4.376,14.064C89.384,127.56,93.048,129.44,97.472,129.44z"/>
</svg>
