<?xml version="1.0" encoding="iso-8859-1"?>
<!-- Generator: Adobe Illustrator 22.1.0, SVG Export Plug-In . SVG Version: 6.00 Build 0)  -->
<svg version="1.1" id="Layer_1" xmlns="http://www.w3.org/2000/svg" xmlns:xlink="http://www.w3.org/1999/xlink" x="0px" y="0px"
	 viewBox="0 0 192 192" style="enable-background:new 0 0 192 192;" xml:space="preserve">
<path style="fill:#404041;" d="M192,96c0,53.008-42.992,96-96,96S0,149.008,0,96S42.992,0,96,0S192,42.992,192,96"/>
<path style="fill:#26A9E0;" d="M176,96c0,44.176-35.824,80-80,80s-80-35.824-80-80s35.824-80,80-80S176,51.824,176,96"/>
<path style="fill:#FFFFFF;" d="M77.128,52.312h41.624c4,0,6.888,0.624,8.688,1.872c1.792,1.248,2.688,3.312,2.688,6.184
	c0,1.752-1.056,4.064-3.16,6.936c-2.112,2.872-4.496,6.056-7.184,9.528c-2.688,3.48-5.464,7.808-8.312,12.968
	c-2.856,5.168-5.472,11.48-7.84,18.936c-1,3.288-1.712,6.024-2.128,8.184c-0.424,2.168-0.872,4.976-1.376,8.44
	c-0.504,3.464-0.936,6.104-1.312,7.936c-0.872,4.248-2.12,7.192-3.72,8.84c-1.608,1.648-3.744,2.472-6.408,2.472
	c-2.544,0-4.584-0.88-6.128-2.656s-2.312-4.384-2.312-7.84c0-2.664,0.56-6.288,1.688-10.872s2.952-10.072,5.504-16.472
	c2.536-6.4,5.72-12.96,9.528-19.688c3.816-6.728,8.344-13.424,13.592-20.096H77.12c-3.504,0-6.12-0.632-7.84-1.904
	c-1.728-1.256-2.592-3.24-2.592-5.952c0-2.872,0.912-4.728,2.752-5.56C71.264,52.736,73.832,52.312,77.128,52.312z"/>
</svg>
