<?xml version="1.0" encoding="iso-8859-1"?>
<!-- Generator: Adobe Illustrator 22.1.0, SVG Export Plug-In . SVG Version: 6.00 Build 0)  -->
<svg version="1.1" id="Layer_1" xmlns="http://www.w3.org/2000/svg" xmlns:xlink="http://www.w3.org/1999/xlink" x="0px" y="0px"
	 viewBox="0 0 192 192" style="enable-background:new 0 0 192 192;" xml:space="preserve">
<path style="fill:#404041;" d="M192,96c0,53.008-42.992,96-96,96S0,149.008,0,96S42.992,0,96,0S192,42.992,192,96"/>
<path style="fill:#26A9E0;" d="M176,96c0,44.176-35.824,80-80,80s-80-35.824-80-80s35.824-80,80-80S176,51.824,176,96"/>
<path style="fill:#FFFFFF;" d="M66.528,71.936c0-4.168,1.136-8.096,3.408-11.784c2.264-3.688,5.6-6.632,10-8.84
	C84.328,49.104,89.472,48,95.344,48c4.952,0,9.312,0.648,13.064,1.936c3.752,1.296,6.872,3.072,9.376,5.344
	c2.496,2.272,4.352,4.832,5.56,7.688c1.2,2.856,1.816,5.888,1.816,9.096c0,4.088-1.056,7.728-3.16,10.936
	c-2.112,3.208-5.24,5.832-9.408,7.872c3.536,1.376,6.48,3.176,8.816,5.408c2.328,2.224,4.096,4.816,5.28,7.752
	s1.784,6.192,1.784,9.784c0,5.248-1.272,10.008-3.816,14.28c-2.544,4.272-6.272,7.616-11.184,10.032
	c-4.92,2.416-10.712,3.624-17.376,3.624c-6.92,0-12.832-1.208-17.752-3.624s-8.624-5.744-11.128-9.968s-3.752-8.968-3.752-14.216
	c0-11.208,5.288-18.896,15.872-23.064C70.8,86.872,66.528,80.56,66.528,71.936z M111.344,113.312c0-3.248-0.672-6.088-2-8.496
	c-1.336-2.416-3.208-4.272-5.624-5.56c-2.424-1.288-5.128-1.936-8.128-1.936c-4.248,0-7.816,1.416-10.688,4.248
	s-4.312,6.792-4.312,11.872c0,3.248,0.672,6.12,2.032,8.592c1.352,2.48,3.192,4.4,5.528,5.752c2.328,1.352,4.936,2.032,7.816,2.032
	c2.912,0,5.536-0.688,7.872-2.064c2.328-1.376,4.168-3.312,5.504-5.816C110.672,119.44,111.344,116.56,111.344,113.312z
	 M95.72,59.936c-3.92,0-7.08,1.216-9.472,3.656c-2.4,2.44-3.592,5.576-3.592,9.408c0,3.544,1.224,6.496,3.688,8.84
	c2.456,2.352,5.624,3.528,9.504,3.528c1.952,0,3.736-0.312,5.344-0.936c1.6-0.624,2.976-1.488,4.128-2.592
	c1.144-1.104,2.032-2.416,2.656-3.936s0.936-3.192,0.936-5.032c0-2.456-0.552-4.664-1.656-6.624
	c-1.112-1.96-2.656-3.504-4.656-4.624S98.296,59.936,95.72,59.936z"/>
</svg>
