<?xml version="1.0" encoding="iso-8859-1"?>
<!-- Generator: Adobe Illustrator 22.1.0, SVG Export Plug-In . SVG Version: 6.00 Build 0)  -->
<svg version="1.1" id="Layer_1" xmlns="http://www.w3.org/2000/svg" xmlns:xlink="http://www.w3.org/1999/xlink" x="0px" y="0px"
	 viewBox="0 0 192 192" style="enable-background:new 0 0 192 192;" xml:space="preserve">
<path style="fill:#404041;" d="M192,96c0,53.008-42.992,96-96,96S0,149.008,0,96S42.992,0,96,0S192,42.992,192,96"/>
<path style="fill:#26A9E0;" d="M176,96c0,44.176-35.824,80-80,80s-80-35.824-80-80s35.824-80,80-80S176,51.824,176,96"/>
<path style="fill:#FFFFFF;" d="M111.312,99.128c-2.752,3.248-5.832,5.696-9.216,7.344c-3.4,1.648-7.16,2.472-11.28,2.472
	c-3.92,0-7.576-0.76-10.968-2.28c-3.4-1.52-6.336-3.648-8.816-6.376c-2.488-2.728-4.392-5.912-5.72-9.56
	c-1.336-3.648-2-7.472-2-11.472c0-4.288,0.752-8.36,2.248-12.216C67.064,63.176,69.2,59.832,72,57
	c2.792-2.832,6.112-5.04,9.968-6.624C85.824,48.792,90.08,48,94.752,48c5.376,0,10.168,0.984,14.376,2.936
	c4.2,1.96,7.752,4.808,10.624,8.528c2.872,3.728,5.08,8.432,6.624,14.096c1.536,5.664,2.312,12.088,2.312,19.248
	c0,8-0.816,15.056-2.44,21.16s-3.992,11.224-7.096,15.376c-3.112,4.152-6.832,7.224-11.16,9.248
	c-4.336,2.024-9.248,3.032-14.752,3.032c-5.424,0-10.128-1.032-14.128-3.096S72.08,133.904,70,130.84
	c-2.088-3.064-3.128-6.008-3.128-8.84c0-1.752,0.64-3.312,1.936-4.688c1.288-1.376,2.936-2.064,4.936-2.064
	c1.832,0,3.48,0.504,4.936,1.528c1.456,1.024,2.56,2.552,3.312,4.592c0.912,2.496,2.44,4.504,4.56,6.032s4.512,2.28,7.184,2.28
	c2.376,0,4.624-0.6,6.752-1.816c2.128-1.208,3.936-2.912,5.44-5.128C108.936,118.288,110.728,110.416,111.312,99.128z M109.872,80
	c0-2.832-0.392-5.448-1.16-7.84c-0.776-2.392-1.856-4.472-3.248-6.216c-1.4-1.752-3.064-3.128-5-4.128s-4.056-1.504-6.344-1.504
	c-3.96,0-7.312,1.696-10.064,5.096c-2.752,3.4-4.128,7.888-4.128,13.472c0,5.544,1.376,9.96,4.128,13.248s6.224,4.936,10.44,4.936
	c2.576,0,5.048-0.68,7.408-2.032c2.352-1.352,4.264-3.32,5.752-5.904C109.136,86.544,109.872,83.504,109.872,80z"/>
</svg>
