<?xml version="1.0" encoding="iso-8859-1"?>
<!-- Generator: Adobe Illustrator 22.1.0, SVG Export Plug-In . SVG Version: 6.00 Build 0)  -->
<svg version="1.1" id="Rounded" xmlns="http://www.w3.org/2000/svg" xmlns:xlink="http://www.w3.org/1999/xlink" x="0px" y="0px"
	 viewBox="0 0 14 14" style="enable-background:new 0 0 14 14;" xml:space="preserve">
<path d="M0.879,8.879L2.757,7L0.879,5.121c-1.17-1.169-1.17-3.073,0-4.242c1.169-1.17,3.073-1.17,4.242,0L7,2.757l1.879-1.878
	c1.169-1.17,3.073-1.17,4.242,0c1.17,1.169,1.17,3.073,0,4.242L11.243,7l1.878,1.879c1.17,1.169,1.17,3.073,0,4.242
	C12.555,13.688,11.801,14,11,14s-1.555-0.312-2.121-0.879L7,11.243l-1.879,1.878c-1.133,1.134-3.109,1.134-4.242,0
	C-0.291,11.952-0.291,10.048,0.879,8.879z"/>
</svg>
