<?xml version="1.0" encoding="iso-8859-1"?>
<!-- Generator: Adobe Illustrator 22.1.0, SVG Export Plug-In . SVG Version: 6.00 Build 0)  -->
<svg version="1.1" id="Rounded" xmlns="http://www.w3.org/2000/svg" xmlns:xlink="http://www.w3.org/1999/xlink" x="0px" y="0px"
	 viewBox="0 0 16 15" style="enable-background:new 0 0 16 15;" xml:space="preserve">
<path d="M15.893,5.611c0.295,0.973-0.025,2.017-0.816,2.659l-1.756,1.42l0.582,2.145c0.265,0.976-0.082,2.005-0.882,2.623
	c-0.802,0.622-1.892,0.697-2.774,0.192h-0.001l-2.219-1.271l-2.17,1.275c-0.394,0.231-0.832,0.345-1.27,0.345
	c-0.519,0-1.035-0.161-1.473-0.479c-0.803-0.584-1.182-1.586-0.967-2.554l0.5-2.256L0.896,8.249
	C0.119,7.599-0.188,6.557,0.113,5.593c0.302-0.966,1.15-1.65,2.16-1.741l2.485-0.229l0.976-2.155C6.136,0.578,7.029,0.001,8.01,0
	c0.001,0,0.002,0,0.003,0c0.979,0,1.874,0.576,2.277,1.467l0.977,2.156l2.462,0.227C14.747,3.944,15.596,4.635,15.893,5.611z"/>
</svg>
