<?xml version="1.0" encoding="iso-8859-1"?>
<!-- Generator: Adobe Illustrator 22.1.0, SVG Export Plug-In . SVG Version: 6.00 Build 0)  -->
<svg version="1.1" id="Rounded" xmlns="http://www.w3.org/2000/svg" xmlns:xlink="http://www.w3.org/1999/xlink" x="0px" y="0px"
	 viewBox="0 0 15 14" style="enable-background:new 0 0 15 14;" xml:space="preserve">
<path d="M14.442,3.122C13.49,1.169,11.716,0.001,9.697,0C8.968,0,8.193,0.212,7.5,0.574C6.806,0.212,6.03,0,5.3,0
	C3.281,0.001,1.508,1.169,0.559,3.122c-1.323,2.716-0.297,5.608,3.043,8.591l0.16,0.145c0.55,0.507,1.45,1.165,2.111,1.631
	C6.361,13.829,6.931,14,7.501,14c0.572,0,1.143-0.172,1.629-0.515c0.964-0.68,1.673-1.228,2.091-1.614l0.177-0.16
	C14.738,8.723,15.762,5.833,14.442,3.122z"/>
</svg>
