<?xml version="1.0" encoding="iso-8859-1"?>
<!-- Generator: Adobe Illustrator 22.1.0, SVG Export Plug-In . SVG Version: 6.00 Build 0)  -->
<svg version="1.1" id="Rounded" xmlns="http://www.w3.org/2000/svg" xmlns:xlink="http://www.w3.org/1999/xlink" x="0px" y="0px"
	 viewBox="0 0 14 14" style="enable-background:new 0 0 14 14;" xml:space="preserve">
<path d="M0.998,8.172l1.101-1.101C1.986,6.458,1.97,5.827,2.052,5.2c0.316-2.411,2.123-4.427,4.495-5.019
	c0.746-0.187,1.506-0.229,2.257-0.125C9.36,0.133,9.861,0.38,10.25,0.751c0.043,0.041,2.96,2.959,3,3.001
	c0.37,0.389,0.617,0.889,0.694,1.445c0.104,0.747,0.063,1.507-0.125,2.256c-0.593,2.372-2.608,4.178-5.018,4.494
	c-0.631,0.083-1.262,0.065-1.876-0.047L5.827,13c-0.644,0.645-1.502,1-2.414,1s-1.771-0.355-2.415-1
	C-0.332,11.669-0.332,9.504,0.998,8.172z"/>
</svg>
