<?xml version="1.0" encoding="iso-8859-1"?>
<!-- Generator: Adobe Illustrator 22.1.0, SVG Export Plug-In . SVG Version: 6.00 Build 0)  -->
<svg version="1.1" id="Rounded" xmlns="http://www.w3.org/2000/svg" xmlns:xlink="http://www.w3.org/1999/xlink" x="0px" y="0px"
	 viewBox="0 0 10 16" style="enable-background:new 0 0 10 16;" xml:space="preserve">
<path d="M9.992,5c0.001-0.526-0.13-1.058-0.419-1.542c-0.447-0.746-1.096-1.355-1.88-1.78C7.203,0.685,6.181,0,5,0
	C3.752,0,2.679,0.766,2.228,1.853C0.86,2.767,0,4.315,0,6l0.01,5c-0.001,0.538,0.134,1.069,0.417,1.541
	c0.447,0.746,1.095,1.355,1.88,1.78C2.796,15.314,3.82,16,5,16c1.248,0,2.32-0.766,2.771-1.853C9.14,13.234,10,11.686,10,10L9.992,5
	z"/>
</svg>
