<?xml version="1.0" encoding="iso-8859-1"?>
<!-- Generator: Adobe Illustrator 22.1.0, SVG Export Plug-In . SVG Version: 6.00 Build 0)  -->
<svg version="1.1" id="Rounded" xmlns="http://www.w3.org/2000/svg" xmlns:xlink="http://www.w3.org/1999/xlink" x="0px" y="0px"
	 viewBox="0 0 14 15" style="enable-background:new 0 0 14 15;" xml:space="preserve">
<path d="M13,7.172v2.16c0.585,0.779,0.603,0.809,0.668,0.923C13.883,10.626,14,11.06,14,11.5c0,1.378-1.122,2.5-2.5,2.5H9.234
	C8.685,14.613,7.887,15,7,15s-1.685-0.387-2.234-1H2.5C1.122,14,0,12.878,0,11.5c0-0.44,0.117-0.874,0.337-1.253
	C0.398,10.14,0.415,10.111,1,9.332V7c0-2.297,1.317-4.351,3.32-5.349C4.815,0.673,5.831,0,7,0c1.17,0,2.187,0.674,2.681,1.654
	C11.683,2.677,13,4.797,13,7.172z"/>
</svg>
