<?xml version="1.0" encoding="iso-8859-1"?>
<!-- Generator: Adobe Illustrator 22.1.0, SVG Export Plug-In . SVG Version: 6.00 Build 0)  -->
<svg version="1.1" id="Rounded" xmlns="http://www.w3.org/2000/svg" xmlns:xlink="http://www.w3.org/1999/xlink" x="0px" y="0px"
	 viewBox="0 0 20 11" style="enable-background:new 0 0 20 11;" xml:space="preserve">
<path d="M19.625,5c0,3.125-5.125,6-9.625,6S0.375,8.125,0.375,5h0.001c0.001-0.655,0.215-1.305,0.627-1.837
	C0.99,2.915,1.008,2.662,1.058,2.411C1.216,1.625,1.67,0.947,2.337,0.503C3.001,0.059,3.801-0.103,4.59,0.058
	c0.786,0.158,1.464,0.612,1.908,1.28C6.526,1.377,7.706,3,10,3s3.474-1.623,3.502-1.662c0.444-0.668,1.122-1.123,1.908-1.28
	c0.789-0.161,1.589,0.001,2.253,0.445c0.667,0.444,1.121,1.122,1.279,1.908c0.05,0.251,0.067,0.503,0.055,0.752
	C19.409,3.695,19.623,4.345,19.624,5H19.625z"/>
</svg>
