<?xml version="1.0" encoding="iso-8859-1"?>
<!-- Generator: Adobe Illustrator 22.1.0, SVG Export Plug-In . SVG Version: 6.00 Build 0)  -->
<svg version="1.1" id="Rounded" xmlns="http://www.w3.org/2000/svg" xmlns:xlink="http://www.w3.org/1999/xlink" x="0px" y="0px"
	 viewBox="0 0 13 14" style="enable-background:new 0 0 13 14;" xml:space="preserve">
<path d="M10.828,6.914L10.742,7l0.086,0.086c0.43,0.429,0.75,0.939,0.945,1.496C12.517,9.128,13,10.009,13,11c0,1.654-1.346,3-3,3H3
	c-1.654,0-3-1.346-3-3c0-0.995,0.486-1.877,1.233-2.423C1.43,8.013,1.747,7.51,2.172,7.086L2.258,7L2.172,6.914
	c-0.43-0.429-0.75-0.939-0.945-1.496C0.483,4.872,0,3.991,0,3c0-1.654,1.346-3,3-3h7c1.654,0,3,1.346,3,3
	c0,0.995-0.486,1.877-1.233,2.423C11.57,5.987,11.253,6.49,10.828,6.914z"/>
</svg>
