<?xml version="1.0" encoding="iso-8859-1"?>
<!-- Generator: Adobe Illustrator 22.1.0, SVG Export Plug-In . SVG Version: 6.00 Build 0)  -->
<svg version="1.1" id="Rounded" xmlns="http://www.w3.org/2000/svg" xmlns:xlink="http://www.w3.org/1999/xlink" x="0px" y="0px"
	 viewBox="0 0 15 15" style="enable-background:new 0 0 15 15;" xml:space="preserve">
<path d="M14.12,4.377c1.17,1.168,1.171,3.071,0.004,4.242c-0.684,0.686-1.678,0.997-2.615,0.841l-0.262,0.333
	c0.481,1.099,0.273,2.43-0.625,3.328c-1.133,1.134-3.109,1.134-4.242,0l-0.306-0.305l-1.379,1.378C4.175,14.714,3.484,15,2.75,15
	s-1.425-0.286-1.944-0.806S0,12.984,0,12.25s0.286-1.425,0.806-1.944l1.378-1.379L1.879,8.621c-1.17-1.169-1.17-3.073,0-4.242
	c0.9-0.9,2.235-1.107,3.334-0.623l0.324-0.258C5.383,2.575,5.661,1.593,6.371,0.881C6.933,0.315,7.686,0.001,8.488,0
	c0.799,0.024,1.557,0.31,2.126,0.878L14.12,4.377z"/>
</svg>
