<?xml version="1.0" encoding="iso-8859-1"?>
<!-- Generator: Adobe Illustrator 22.1.0, SVG Export Plug-In . SVG Version: 6.00 Build 0)  -->
<svg version="1.1" id="Rounded" xmlns="http://www.w3.org/2000/svg" xmlns:xlink="http://www.w3.org/1999/xlink" x="0px" y="0px"
	 viewBox="0 0 16 16" style="enable-background:new 0 0 16 16;" xml:space="preserve">
<path d="M14.966,4.885c0.635-0.667,0.811-1.646,0.447-2.492C15.05,1.547,14.221,1,13.3,1h-1.129c-1.107,0-2.175,0.465-2.928,1.274
	L8.695,2.862c-0.25-0.648-0.647-1.235-1.169-1.707c-0.94-0.85-2.216-1.266-3.502-1.131c-2.069,0.209-3.79,1.928-4.001,4
	c-0.13,1.286,0.283,2.563,1.133,3.502C1.312,7.698,1.479,7.856,1.657,8C1.479,8.144,1.312,8.302,1.156,8.473
	c-0.85,0.94-1.263,2.216-1.132,3.504c0.21,2.071,1.931,3.79,4,3.999C4.181,15.992,4.336,16,4.491,16c1.124,0,2.21-0.409,3.035-1.155
	c0.519-0.469,0.914-1.051,1.164-1.694l0.563,0.596C10.006,14.543,11.066,15,12.162,15h1.134c0.923,0,1.753-0.548,2.115-1.396
	c0.362-0.849,0.185-1.828-0.456-2.497l-2.971-3.095l2.979-3.125L14.966,4.885z"/>
</svg>
