<?xml version="1.0" encoding="iso-8859-1"?>
<!-- Generator: Adobe Illustrator 22.1.0, SVG Export Plug-In . SVG Version: 6.00 Build 0)  -->
<svg version="1.1" id="Rounded" xmlns="http://www.w3.org/2000/svg" xmlns:xlink="http://www.w3.org/1999/xlink" x="0px" y="0px"
	 viewBox="0 0 18 14" style="enable-background:new 0 0 18 14;" xml:space="preserve">
<path d="M16.24,2.392C14.175,0.849,11.604,0,9,0S3.825,0.849,1.752,2.397C1.175,2.828,0.95,3.048,0.879,3.128
	c-1.17,1.169-1.17,3.073,0.001,4.244c0.583,0.583,6.469,5.954,6.509,5.991C7.825,13.77,8.403,14,9,14
	c0.597,0,1.174-0.23,1.611-0.637c0.041-0.038,5.928-5.411,6.509-5.991l0.001-0.001c1.17-1.169,1.17-3.073,0.061-4.18
	C17.05,3.048,16.825,2.828,16.24,2.392z"/>
</svg>
