<?xml version="1.0" encoding="iso-8859-1"?>
<!-- Generator: Adobe Illustrator 22.1.0, SVG Export Plug-In . SVG Version: 6.00 Build 0)  -->
<svg version="1.1" id="Rounded" xmlns="http://www.w3.org/2000/svg" xmlns:xlink="http://www.w3.org/1999/xlink" x="0px" y="0px"
	 viewBox="0 0 14 14" style="enable-background:new 0 0 14 14;" xml:space="preserve">
<path d="M14,10v1c0,1.654-1.346,3-3,3s-3-1.346-3-3V9.75H7.977c-0.105,0.93-0.697,1.728-1.574,2.075
	c-0.954,0.379-2.025,0.135-2.73-0.616L0.867,8.21C0.308,7.61,0,6.827,0,6c0-0.827,0.308-1.612,0.866-2.209l2.805-2.997
	c0.704-0.754,1.778-0.998,2.73-0.62C7.373,0.558,8,1.488,8,2.545v0.528C10.708,3.464,14,5.445,14,10z"/>
</svg>
