<?xml version="1.0" encoding="iso-8859-1"?>
<!-- Generator: Adobe Illustrator 22.1.0, SVG Export Plug-In . SVG Version: 6.00 Build 0)  -->
<svg version="1.1" id="Rounded" xmlns="http://www.w3.org/2000/svg" xmlns:xlink="http://www.w3.org/1999/xlink" x="0px" y="0px"
	 viewBox="0 0 14 14" style="enable-background:new 0 0 14 14;" xml:space="preserve">
<path d="M14,6c0,0.826-0.308,1.61-0.865,2.208l-2.806,2.999c-0.707,0.754-1.78,0.995-2.732,0.618
	c-0.878-0.347-1.469-1.144-1.574-2.075H6V11c0,1.654-1.346,3-3,3s-3-1.346-3-3v-1c0-4.555,3.292-6.536,6-6.926V2.545
	c0-1.057,0.627-1.988,1.599-2.371c0.954-0.376,2.026-0.134,2.73,0.62l2.804,2.997C13.692,4.389,14,5.173,14,6z"/>
</svg>
