<?xml version="1.0" encoding="iso-8859-1"?>
<!-- Generator: Adobe Illustrator 22.1.0, SVG Export Plug-In . SVG Version: 6.00 Build 0)  -->
<svg version="1.1" id="Rounded" xmlns="http://www.w3.org/2000/svg" xmlns:xlink="http://www.w3.org/1999/xlink" x="0px" y="0px"
	 viewBox="0 0 16 16" style="enable-background:new 0 0 16 16;" xml:space="preserve">
<path d="M16,8c0,0.766-0.372,1.484-0.995,1.923l-2.981,2.101l-2.102,2.983C9.483,15.629,8.765,16,8,16s-1.483-0.371-1.922-0.993
	l-2.101-2.983L0.993,9.922C0.372,9.484,0,8.766,0,8s0.372-1.484,0.995-1.923l2.981-2.101l2.102-2.983C6.517,0.371,7.235,0,8,0
	s1.483,0.371,1.922,0.993l2.103,2.984l2.982,2.102C15.628,6.516,16,7.234,16,8z"/>
</svg>
