<?xml version="1.0" encoding="iso-8859-1"?>
<!-- Generator: Adobe Illustrator 22.0.1, SVG Export Plug-In . SVG Version: 6.00 Build 0)  -->
<svg version="1.1" id="Layer_1" xmlns="http://www.w3.org/2000/svg" xmlns:xlink="http://www.w3.org/1999/xlink" x="0px" y="0px"
	 viewBox="0 0 14 14" style="enable-background:new 0 0 14 14;" xml:space="preserve">
<g>
	<g>
		<polygon style="fill:#BAE0BD;" points="5.5,13.5 5.5,8.5 0.5,8.5 0.5,5.5 5.5,5.5 5.5,0.5 8.5,0.5 8.5,5.5 13.5,5.5 13.5,8.5 
			8.5,8.5 8.5,13.5 		"/>
	</g>
	<g>
		<path style="fill:#5E9C76;" d="M8,1v4v1h1h4v2H9H8v1v4H6V9V8H5H1V6h4h1V5V1H8 M9,0H5v5H0v4h5v5h4V9h5V5H9V0L9,0z"/>
	</g>
</g>
</svg>
