<?xml version="1.0" encoding="utf-8"?>
<!-- Generator: Adobe Illustrator 21.0.2, SVG Export Plug-In . SVG Version: 6.00 Build 0)  -->
<svg version="1.1" id="Layer_1" xmlns="http://www.w3.org/2000/svg" xmlns:xlink="http://www.w3.org/1999/xlink" x="0px" y="0px"
	 viewBox="0 0 14 14" style="enable-background:new 0 0 14 14;" xml:space="preserve">
<g>
	<circle style="fill:#F78F8F;" cx="7" cy="7" r="6.5"/>
	<g>
		<path style="fill:#C74343;" d="M7,1c3.3,0,6,2.7,6,6s-2.7,6-6,6s-6-2.7-6-6S3.7,1,7,1 M7,0C3.1,0,0,3.1,0,7s3.1,7,7,7s7-3.1,7-7
			S10.9,0,7,0L7,0z"/>
	</g>
</g>
<rect x="3" y="6" transform="matrix(0.7071 -0.7071 0.7071 0.7071 -2.8995 7)" style="fill:#FFFFFF;" width="8" height="2"/>
<rect x="6" y="3" transform="matrix(0.7071 -0.7071 0.7071 0.7071 -2.8995 7)" style="fill:#FFFFFF;" width="2" height="8"/>
</svg>
