<?xml version="1.0" encoding="iso-8859-1"?>
<!-- Generator: Adobe Illustrator 22.0.1, SVG Export Plug-In . SVG Version: 6.00 Build 0)  -->
<svg version="1.1" id="Layer_1" xmlns="http://www.w3.org/2000/svg" xmlns:xlink="http://www.w3.org/1999/xlink" x="0px" y="0px"
	 viewBox="0 0 14 14" style="enable-background:new 0 0 14 14;" xml:space="preserve">
<g>
	<polygon style="fill:#F5CE85;" points="1.599,10.234 2.762,9.07 5.085,11.094 3.777,12.401 0.729,13.271 	"/>
	<path style="fill:#967A44;" d="M2.786,9.754l1.567,1.365l-0.837,0.837l-2.059,0.587l0.586-2.047L2.786,9.754 M2.739,8.387
		L1.154,9.972L0,13.998l4.039-1.152l1.778-1.778L2.739,8.387L2.739,8.387z"/>
</g>
<g>
	<polygon style="fill:#36404D;" points="0.715,11.511 0.001,14.001 2.5,13.289 	"/>
</g>
<g>
	<path style="fill:#F78F8F;" d="M10.288,1.538l0.589-0.589c0.29-0.29,0.676-0.45,1.086-0.45c0.411,0,0.797,0.16,1.087,0.45
		c0.29,0.291,0.45,0.676,0.45,1.087c0,0.41-0.16,0.796-0.45,1.086l-0.589,0.589L10.288,1.538z"/>
	<g>
		<path style="fill:#C74343;" d="M11.964,0.998c0.277,0,0.537,0.108,0.733,0.304c0.404,0.404,0.404,1.062,0,1.466l-0.236,0.236
			l-1.466-1.466l0.236-0.236C11.426,1.106,11.687,0.998,11.964,0.998 M11.964-0.002c-0.521,0-1.042,0.199-1.44,0.596L9.581,1.538
			l2.88,2.88l0.943-0.943c0.795-0.795,0.795-2.085,0-2.88C13.006,0.197,12.485-0.002,11.964-0.002L11.964-0.002z"/>
	</g>
</g>
<g>
	<path style="fill:#FFEEA3;" d="M4.252,11.895c-0.127-0.148-0.338-0.318-0.678-0.399c-0.157-0.578-0.612-0.899-1.053-1.032
		c-0.08-0.303-0.247-0.534-0.457-0.696L8.89,2.936l2.173,2.172l-6.797,6.803C4.262,11.906,4.257,11.9,4.252,11.895z"/>
	<g>
		<path style="fill:#BA9B48;" d="M8.89,3.643l1.466,1.466l-6.118,6.124c-0.08-0.05-0.17-0.096-0.269-0.136
			c-0.217-0.51-0.625-0.838-1.053-1.021C2.871,9.97,2.817,9.873,2.756,9.783L8.89,3.643 M8.89,2.229L1.154,9.972
			c0,0,0.004,0,0.011,0c0.105,0,0.91,0.029,0.91,0.918c0,0,1.057,0.033,1.057,1.056c1.052,0,0.907,0.9,0.907,0.9l7.73-7.738
			L8.89,2.229L8.89,2.229z"/>
	</g>
</g>
<g>
	
		<rect x="9.464" y="1.877" transform="matrix(0.7071 -0.7071 0.7071 0.7071 0.6864 8.4845)" style="fill:#D9E7F5;" width="2.241" height="3.073"/>
	<g>
		<path style="fill:#788B9C;" d="M10.291,2.242l1.466,1.466l-0.878,0.878L9.413,3.12L10.291,2.242 M10.291,0.828L7.999,3.12
			L10.879,6l2.292-2.292L10.291,0.828L10.291,0.828z"/>
	</g>
</g>
</svg>
