<?xml version="1.0" encoding="iso-8859-1"?>
<!-- Generator: Adobe Illustrator 22.0.1, SVG Export Plug-In . SVG Version: 6.00 Build 0)  -->
<svg version="1.1" id="Layer_1" xmlns="http://www.w3.org/2000/svg" xmlns:xlink="http://www.w3.org/1999/xlink" x="0px" y="0px"
	 viewBox="0 0 14 14" style="enable-background:new 0 0 14 14;" xml:space="preserve">
<g>
	<g>
		<path style="fill:#8BB7F0;" d="M7,13.5c-3.584,0-6.5-2.916-6.5-6.5S3.416,0.5,7,0.5c1.725,0,3.354,0.68,4.586,1.914l0.354,0.354
			L13.5,1.207V5.5H9.207l1.316-1.316L10.172,3.83C9.318,2.972,8.192,2.5,7,2.5C4.519,2.5,2.5,4.519,2.5,7s2.019,4.5,4.5,4.5
			c1.911,0,3.598-1.215,4.228-3h2.09C12.632,11.388,10.012,13.5,7,13.5z"/>
	</g>
	<g>
		<path style="fill:#4E7AB5;" d="M7,1c1.591,0,3.094,0.628,4.232,1.767l0.707,0.708l0.708-0.708L13,2.414V5h-2.586l0.11-0.11
			l0.705-0.705l-0.703-0.707C9.579,2.525,8.326,2,7,2C4.243,2,2,4.243,2,7s2.243,5,5,5c2.003,0,3.784-1.201,4.568-3h1.081
			C11.816,11.345,9.562,13,7,13c-3.308,0-6-2.692-6-6S3.692,1,7,1 M14,0l-2.06,2.06C10.674,0.793,8.933,0,7,0C3.134,0,0,3.134,0,7
			c0,3.866,3.134,7,7,7c3.526,0,6.434-2.609,6.92-6h-3.062C10.412,9.722,8.862,11,7,11c-2.209,0-4-1.791-4-4c0-2.209,1.791-4,4-4
			c1.105,0,2.095,0.457,2.817,1.183L8,6h6V0L14,0z"/>
	</g>
</g>
</svg>
