<?xml version="1.0" encoding="iso-8859-1"?>
<!-- Generator: Adobe Illustrator 22.0.1, SVG Export Plug-In . SVG Version: 6.00 Build 0)  -->
<svg version="1.1" id="Layer_1" xmlns="http://www.w3.org/2000/svg" xmlns:xlink="http://www.w3.org/1999/xlink" x="0px" y="0px"
	 viewBox="0 0 14 14" style="enable-background:new 0 0 14 14;" xml:space="preserve">
<g>
	<polygon style="fill:#FFEEA3;" points="7,10.834 3.334,12.749 4.021,8.67 1.068,5.775 5.16,5.169 7,1.466 8.84,5.169 12.932,5.775 
		9.979,8.67 10.666,12.749 	"/>
	<path style="fill:#BA9B48;" d="M7,2.589l1.277,2.569l0.232,0.468l0.516,0.077l2.838,0.421L9.815,8.131L9.442,8.496l0.087,0.515
		l0.477,2.829l-2.543-1.328L7,10.271l-0.463,0.242L3.994,11.84l0.477-2.829l0.087-0.515L4.185,8.131L2.137,6.123l2.838-0.421
		l0.516-0.077l0.232-0.468L7,2.589 M7,0.343l-2.172,4.37L0,5.428l3.485,3.417l-0.811,4.812L7,11.399l4.326,2.259l-0.811-4.812
		L14,5.428L9.172,4.713L7,0.343L7,0.343z"/>
</g>
</svg>
