<?xml version="1.0" encoding="iso-8859-1"?>
<!-- Generator: Adobe Illustrator 22.0.1, SVG Export Plug-In . SVG Version: 6.00 Build 0)  -->
<svg version="1.1" id="Layer_1" xmlns="http://www.w3.org/2000/svg" xmlns:xlink="http://www.w3.org/1999/xlink" x="0px" y="0px"
	 viewBox="0 0 14 12" style="enable-background:new 0 0 14 12;" xml:space="preserve">
<g>
	<path style="fill:#F78F8F;" d="M7.001,11.417C5.782,10.67,0.5,7.243,0.5,4c0-1.93,1.57-3.5,3.5-3.5c0.995,0,1.952,0.44,2.624,1.208
		L7,2.139l0.376-0.43C8.048,0.94,9.005,0.5,10,0.5c1.93,0,3.5,1.57,3.5,3.5C13.5,7.265,8.22,10.674,7.001,11.417z"/>
	<path style="fill:#C74343;" d="M10,1c1.654,0,3,1.346,3,3c0,2.577-3.954,5.564-5.999,6.835C4.955,9.559,1,6.565,1,4
		c0-1.654,1.346-3,3-3c0.864,0,1.662,0.369,2.247,1.038L7,2.899l0.753-0.861C8.338,1.369,9.136,1,10,1 M10,0
		C8.798,0,7.733,0.541,7,1.38C6.267,0.541,5.202,0,4,0C1.791,0,0,1.791,0,4c0,3.984,7,8,7,8s7-3.99,7-8C14,1.791,12.209,0,10,0L10,0
		z"/>
</g>
</svg>
