<?xml version="1.0" encoding="iso-8859-1"?>
<!-- Generator: Adobe Illustrator 22.0.1, SVG Export Plug-In . SVG Version: 6.00 Build 0)  -->
<svg version="1.1" id="Layer_1" xmlns="http://www.w3.org/2000/svg" xmlns:xlink="http://www.w3.org/1999/xlink" x="0px" y="0px"
	 viewBox="0 0 14 14" style="enable-background:new 0 0 14 14;" xml:space="preserve">
<g>
	<g>
		<path style="fill:#F5CE85;" d="M1.621,13.5L0.5,12.379v-1l4.062-4.062L4.32,6.973C4.042,6.578,4.074,6.069,4.397,5.736
			l0.157-0.162L4.538,5.351C4.533,5.288,4.524,5.226,4.517,5.165C4.509,5.11,4.5,5.056,4.5,5c0-2.481,2.019-4.5,4.5-4.5
			s4.5,2.019,4.5,4.5S11.481,9.5,9,9.5c-0.058,0-0.113-0.009-0.169-0.017c-0.06-0.008-0.119-0.016-0.18-0.021L8.426,9.445
			L8.264,9.603C8.088,9.773,7.855,9.868,7.611,9.868c-0.208,0-0.41-0.065-0.585-0.188L6.683,9.439L4.621,11.5H3.5v1.122L2.621,13.5
			H1.621z"/>
	</g>
	<g>
		<path style="fill:#967A44;" d="M9,1c2.206,0,4,1.794,4,4s-1.794,4-3.999,4C8.967,8.999,8.934,8.993,8.9,8.988
			c-0.07-0.01-0.139-0.019-0.21-0.024L8.24,8.929L7.916,9.244C7.81,9.346,7.692,9.368,7.611,9.368c-0.104,0-0.207-0.033-0.297-0.097
			L6.626,8.788L6.032,9.382L4.414,11H4H3v1v0.414L2.414,13l-0.586,0L1,12.171l0-0.586l3.618-3.618l0.594-0.594L4.729,6.686
			c-0.113-0.16-0.152-0.417,0.027-0.602L5.071,5.76L5.036,5.31C5.031,5.239,5.022,5.169,5.012,5.1C5.007,5.066,5.001,5.033,5,5
			C5,2.794,6.794,1,9,1 M9,0C6.239,0,4,2.239,4,5c0,0.133,0.029,0.257,0.039,0.388C3.535,5.906,3.508,6.687,3.911,7.261L0,11.172
			l0,1.414L1.414,14l1.414,0L4,12.828V12h0.828l1.911-1.911c0.262,0.184,0.568,0.278,0.872,0.278c0.361,0,0.72-0.133,1.002-0.407
			C8.743,9.971,8.867,10,9,10c2.761,0,5-2.239,5-5S11.761,0,9,0L9,0z"/>
	</g>
</g>
<g>
	<path style="fill:#967A44;" d="M7.586,3.586l2.828,2.828c0.781-0.781,0.781-2.047,0-2.828C9.633,2.805,8.367,2.805,7.586,3.586z"/>
</g>
</svg>
