<?xml version="1.0" encoding="utf-8"?>
<!-- Generator: Adobe Illustrator 21.0.2, SVG Export Plug-In . SVG Version: 6.00 Build 0)  -->
<svg version="1.1" id="Layer_1" xmlns="http://www.w3.org/2000/svg" xmlns:xlink="http://www.w3.org/1999/xlink" x="0px" y="0px"
	 viewBox="0 0 14 14" style="enable-background:new 0 0 14 14;" xml:space="preserve">
<g>
	<g>
		<path style="fill:#4E7AB5;" d="M10.5,1c0.7,0,1.3,0.3,1.8,0.7S13,2.8,13,3.5s-0.3,1.3-0.7,1.8l-1,1C10.8,6.7,10.2,7,9.5,7
			S8.2,6.7,7.7,6.3C7.3,5.8,7,5.2,7,4.5s0.3-1.3,0.7-1.8l1-1C9.2,1.3,9.8,1,10.5,1 M10.5,0C9.6,0,8.7,0.3,8,1C7.7,1.4,7.4,1.7,7,2
			C5.7,3.4,5.7,5.6,7,7c0.7,0.7,1.6,1,2.5,1s1.8-0.3,2.5-1c0.4-0.4,0.6-0.6,1-1c1.4-1.4,1.4-3.6,0-4.9C12.3,0.3,11.4,0,10.5,0
			L10.5,0z"/>
	</g>
</g>
<g>
	<g>
		<path style="fill:#4E7AB5;" d="M4.5,7c0.7,0,1.3,0.3,1.8,0.7C6.7,8.2,7,8.8,7,9.5s-0.3,1.3-0.7,1.8l-1,1C4.8,12.7,4.2,13,3.5,13
			s-1.3-0.3-1.8-0.7S1,11.2,1,10.5s0.3-1.3,0.7-1.8l1-1C3.2,7.3,3.8,7,4.5,7 M4.5,6C3.6,6,2.7,6.3,2,7C1.7,7.4,1.4,7.7,1,8
			c-1.4,1.4-1.4,3.6,0,4.9c0.7,0.7,1.6,1,2.5,1s1.8-0.3,2.5-1c0.4-0.4,0.6-0.6,1-1C8.3,10.6,8.3,8.4,7,7C6.3,6.3,5.4,6,4.5,6L4.5,6z
			"/>
	</g>
</g>
<path style="fill:#4E7AB5;" d="M5,9.5c-0.1,0-0.3,0-0.4-0.1c-0.2-0.2-0.2-0.5,0-0.7l4-4c0.2-0.2,0.5-0.2,0.7,0s0.2,0.5,0,0.7l-4,4
	C5.3,9.5,5.1,9.5,5,9.5z"/>
</svg>
