<?xml version="1.0" encoding="utf-8"?>
<!-- Generator: Adobe Illustrator 21.0.2, SVG Export Plug-In . SVG Version: 6.00 Build 0)  -->
<svg version="1.1" id="Layer_1" xmlns="http://www.w3.org/2000/svg" xmlns:xlink="http://www.w3.org/1999/xlink" x="0px" y="0px"
	 viewBox="0 0 14 14" style="enable-background:new 0 0 14 14;" xml:space="preserve">
<path style="fill:#66798F;" d="M11,6h-1V4c0-1.7-1.3-3-3-3S4,2.3,4,4v2H3V4c0-2.2,1.8-4,4-4c2.2,0,4,1.8,4,4V6z"/>
<g>
	<path style="fill:#F5CE85;" d="M0.5,13.5V8c0-0.8,0.7-1.5,1.5-1.5h10c0.8,0,1.5,0.7,1.5,1.5v5.5H0.5z"/>
	<path style="fill:#967A44;" d="M12,7c0.6,0,1,0.4,1,1v5H1V8c0-0.6,0.4-1,1-1H12 M12,6H2C0.9,6,0,6.9,0,8v6h14V8C14,6.9,13.1,6,12,6
		L12,6z"/>
</g>
<rect x="1" y="12" style="fill:#FFEEA3;" width="12" height="1"/>
<rect x="1" y="10" style="fill:#FFEEA3;" width="12" height="1"/>
<rect x="1" y="8" style="fill:#FFEEA3;" width="12" height="1"/>
</svg>
