<?xml version="1.0" encoding="iso-8859-1"?>
<!-- Generator: Adobe Illustrator 22.0.1, SVG Export Plug-In . SVG Version: 6.00 Build 0)  -->
<svg version="1.1" id="Layer_1" xmlns="http://www.w3.org/2000/svg" xmlns:xlink="http://www.w3.org/1999/xlink" x="0px" y="0px"
	 viewBox="0 0 12 14" style="enable-background:new 0 0 12 14;" xml:space="preserve">
<g>
	<path style="fill:#FFEEA3;" d="M5.999,13.463c-0.928-0.392-5.373-2.709-5.497-11.104L6,0.527l5.498,1.833
		C11.373,10.732,6.926,13.067,5.999,13.463z"/>
	<g>
		<path style="fill:#BA9B48;" d="M6,1.054l4.989,1.663c-0.226,7.292-3.869,9.644-4.99,10.196C4.87,12.36,1.236,10.019,1.011,2.717
			L6,1.054 M6,0L0,2c0,9.999,6,12,6,12s6-2.028,6-12L6,0L6,0z"/>
	</g>
</g>
<g>
	<path style="fill:#FFC49C;" d="M6,11.764C4.808,11.006,2.41,8.824,2.047,3.426L6,2.108l3.953,1.318
		C9.587,8.824,7.177,11.01,6,11.764z"/>
</g>
</svg>
