<?xml version="1.0" encoding="iso-8859-1"?>
<!-- Generator: Adobe Illustrator 22.0.1, SVG Export Plug-In . SVG Version: 6.00 Build 0)  -->
<svg version="1.1" id="Layer_1" xmlns="http://www.w3.org/2000/svg" xmlns:xlink="http://www.w3.org/1999/xlink" x="0px" y="0px"
	 viewBox="0 0 14 14" style="enable-background:new 0 0 14 14;" xml:space="preserve">
<g>
	<g>
		<path style="fill:#BAE0BD;" d="M3.5,13.5v-3.162l-0.599,0.121C2.771,10.486,2.637,10.5,2.5,10.5c-1.103,0-2-0.897-2-2s0.897-2,2-2
			c0.137,0,0.271,0.014,0.401,0.041L3.5,6.662V3.5h3.162L6.541,2.901C6.514,2.771,6.5,2.637,6.5,2.5c0-1.103,0.897-2,2-2
			s2,0.897,2,2c0,0.137-0.014,0.271-0.041,0.401L10.338,3.5H13.5v3c-1.103,0-2,0.897-2,2s0.897,2,2,2v3H3.5z"/>
	</g>
	<g>
		<path style="fill:#5E9C76;" d="M8.5,1C9.327,1,10,1.673,10,2.5c0,0.1-0.01,0.202-0.03,0.301L9.726,4h1.224H13v2.05
			c-1.14,0.232-2,1.242-2,2.45c0,1.207,0.86,2.217,2,2.45V13H4v-2.05V9.726L2.801,9.97C2.702,9.99,2.6,10,2.5,10
			C1.673,10,1,9.327,1,8.5C1,7.673,1.673,7,2.5,7c0.1,0,0.202,0.01,0.301,0.03L4,7.274V6.05V4h2.05h1.224L7.03,2.801
			C7.01,2.702,7,2.6,7,2.5C7,1.673,7.673,1,8.5,1 M8.5,0C7.119,0,6,1.119,6,2.5C6,2.671,6.018,2.838,6.05,3H3v3.05
			C2.838,6.018,2.671,6,2.5,6C1.119,6,0,7.119,0,8.5C0,9.881,1.119,11,2.5,11c0.171,0,0.338-0.018,0.5-0.05V14h11V9.908
			C13.843,9.964,13.676,10,13.5,10C12.672,10,12,9.328,12,8.5S12.672,7,13.5,7c0.176,0,0.343,0.036,0.5,0.092V3h-3.05
			C10.982,2.838,11,2.671,11,2.5C11,1.119,9.881,0,8.5,0L8.5,0z"/>
	</g>
</g>
</svg>
