<?xml version="1.0" encoding="iso-8859-1"?>
<!-- Generator: Adobe Illustrator 22.0.1, SVG Export Plug-In . SVG Version: 6.00 Build 0)  -->
<svg version="1.1" id="Layer_1" xmlns="http://www.w3.org/2000/svg" xmlns:xlink="http://www.w3.org/1999/xlink" x="0px" y="0px"
	 viewBox="0 0 14 14" style="enable-background:new 0 0 14 14;" xml:space="preserve">
<g>
	<path style="fill:#B6C9D6;" d="M1.411,13.5c-0.243,0-0.473-0.095-0.645-0.267c-0.355-0.355-0.355-0.934,0-1.29l5.451-5.197
		L7.29,7.749l-5.241,5.493C1.885,13.405,1.655,13.5,1.411,13.5z"/>
	<path style="fill:#788B9C;" d="M6.222,7.434l0.358,0.335l-4.876,5.111C1.598,12.984,1.476,13,1.412,13
		c-0.064,0-0.186-0.016-0.291-0.121c-0.161-0.161-0.161-0.422-0.017-0.566L6.222,7.434 M6.215,6.059L0.413,11.59
		c-0.551,0.551-0.551,1.445,0,1.997C0.689,13.862,1.051,14,1.412,14c0.361,0,0.723-0.138,0.998-0.414L8,7.728L6.215,6.059
		L6.215,6.059z"/>
</g>
<g>
	<circle style="fill:#D1EDFF;" cx="8.5" cy="5.5" r="5"/>
	<path style="fill:#788B9C;" d="M8.5,1C10.981,1,13,3.019,13,5.5S10.981,10,8.5,10S4,7.981,4,5.5S6.019,1,8.5,1 M8.5,0
		C5.462,0,3,2.462,3,5.5S5.462,11,8.5,11S14,8.538,14,5.5S11.538,0,8.5,0L8.5,0z"/>
</g>
</svg>
