<?xml version="1.0" encoding="iso-8859-1"?>
<!-- Generator: Adobe Illustrator 22.0.1, SVG Export Plug-In . SVG Version: 6.00 Build 0)  -->
<svg version="1.1" id="Layer_1" xmlns="http://www.w3.org/2000/svg" xmlns:xlink="http://www.w3.org/1999/xlink" x="0px" y="0px"
	 viewBox="0 0 14 14" style="enable-background:new 0 0 14 14;" xml:space="preserve">
<g>
	<path style="fill:#DCD5F2;" d="M2.559,13.5c-0.554,0-1.073-0.217-1.463-0.61C0.709,12.5,0.497,11.982,0.5,11.432
		c0.002-0.55,0.219-1.065,0.609-1.452l5.452-5.394l2.896,2.925l-5.452,5.393C3.618,13.289,3.104,13.5,2.559,13.5z"/>
	<path style="fill:#8B75A1;" d="M6.558,5.293L8.75,7.507l-5.097,5.042C3.36,12.84,2.971,13,2.558,13
		c-0.419,0-0.812-0.164-1.107-0.462c-0.604-0.61-0.599-1.599,0.011-2.203L6.558,5.293 M6.566,3.879L0.758,9.625
		c-1.004,0.994-1.012,2.613-0.018,3.617C1.24,13.747,1.899,14,2.558,14c0.65,0,1.301-0.246,1.8-0.74l5.808-5.745L6.566,3.879
		L6.566,3.879z"/>
</g>
<g>
	<path style="fill:#DCD5F2;" d="M10.198,8.5c-1.154,0-2.345-0.534-3.266-1.464C5.288,5.375,5.019,2.966,6.33,1.667
		c0.712-0.705,1.959-1.179,3.104-1.179c0.432,0,0.826,0.065,1.178,0.194L8.428,2.865l0.677,2.031l2.03,0.677l2.175-2.175
		c0.506,1.406-0.076,3.363-1.015,4.292C11.76,8.22,11.034,8.5,10.198,8.5L10.198,8.5z"/>
	<path style="fill:#8B75A1;" d="M9.433,0.988c0.054,0,0.108,0.001,0.161,0.004L8.293,2.293L7.856,2.73l0.195,0.586l0.5,1.5
		l0.158,0.474l0.474,0.158l1.5,0.5l0.586,0.195l0.437-0.437l1.289-1.289c0.041,1.077-0.418,2.288-1.053,2.917
		C11.388,7.885,10.688,8,10.198,8C9.177,8,8.116,7.52,7.288,6.684C6.558,5.947,6.107,5.035,6.016,4.115
		C5.933,3.273,6.17,2.529,6.682,2.022C7.297,1.413,8.428,0.988,9.433,0.988 M9.433-0.012c-1.304,0-2.668,0.545-3.454,1.323
		C4.468,2.807,4.736,5.528,6.577,7.387C7.628,8.448,8.964,9,10.198,9c0.929,0,1.8-0.312,2.449-0.955
		c1.148-1.137,1.806-3.518,0.99-5.154l-0.263-0.266L11,5L9.5,4.5L9,3l2.384-2.384l-0.247-0.25
		C10.623,0.104,10.034-0.012,9.433-0.012L9.433-0.012z"/>
</g>
</svg>
