<?xml version="1.0" encoding="iso-8859-1"?>
<!-- Generator: Adobe Illustrator 22.0.1, SVG Export Plug-In . SVG Version: 6.00 Build 0)  -->
<svg version="1.1" id="Layer_1" xmlns="http://www.w3.org/2000/svg" xmlns:xlink="http://www.w3.org/1999/xlink" x="0px" y="0px"
	 viewBox="0 0 14 14" style="enable-background:new 0 0 14 14;" xml:space="preserve">
<g>
	<path style="fill:#DCD5F2;" d="M6.257,13.5L5.98,11.844l-0.307-0.085c-0.803-0.223-1.541-0.649-2.135-1.23l-0.227-0.223
		l-1.57,0.588L0.999,9.606L2.296,8.54L2.217,8.231C2.109,7.814,2.056,7.4,2.056,7s0.054-0.814,0.161-1.231L2.296,5.46L0.999,4.394
		l0.743-1.287l1.57,0.588L3.54,3.472c0.592-0.582,1.33-1.007,2.134-1.23L5.98,2.156L6.257,0.5h1.486L8.02,2.156l0.307,0.085
		C9.13,2.465,9.868,2.89,10.46,3.472l0.228,0.223l1.57-0.588l0.743,1.287L11.704,5.46l0.079,0.308C11.891,6.186,11.944,6.6,11.944,7
		s-0.054,0.814-0.161,1.231L11.704,8.54l1.297,1.067l-0.743,1.287l-1.57-0.588l-0.228,0.223c-0.592,0.582-1.33,1.007-2.134,1.23
		L8.02,11.844L7.743,13.5H6.257z M7,4.5C5.621,4.5,4.5,5.622,4.5,7S5.621,9.5,7,9.5S9.5,8.378,9.5,7S8.379,4.5,7,4.5z"/>
	<path style="fill:#8B75A1;" d="M7.32,1l0.154,0.924l0.105,0.628l0.614,0.171c0.722,0.201,1.386,0.583,1.918,1.106l0.455,0.446
		l0.596-0.223l0.875-0.328l0.32,0.553l-0.724,0.596l-0.491,0.404l0.158,0.616C11.395,6.27,11.444,6.642,11.444,7
		c0,0.358-0.049,0.73-0.146,1.107l-0.158,0.616l0.491,0.404l0.724,0.596l-0.32,0.553l-0.875-0.328l-0.596-0.223l-0.455,0.446
		c-0.533,0.522-1.196,0.905-1.918,1.106l-0.614,0.171l-0.105,0.628L7.32,13H6.68l-0.154-0.924l-0.105-0.628l-0.614-0.171
		c-0.722-0.201-1.386-0.583-1.918-1.106L3.435,9.726L2.839,9.949l-0.875,0.328l-0.32-0.553l0.724-0.596l0.491-0.404L2.701,8.107
		C2.605,7.73,2.556,7.358,2.556,7s0.049-0.73,0.146-1.107l0.158-0.616L2.368,4.873L1.644,4.277l0.32-0.553l0.875,0.328l0.596,0.223
		L3.89,3.829c0.533-0.522,1.196-0.905,1.918-1.106l0.614-0.171l0.105-0.628L6.68,1H7.32 M7,10c1.654,0,3-1.346,3-3S8.654,4,7,4
		S4,5.346,4,7S5.346,10,7,10 M8.167,0H5.833L5.54,1.759C4.642,2.009,3.836,2.48,3.189,3.115L1.521,2.49L0.354,4.51l1.378,1.134
		C1.621,6.079,1.556,6.531,1.556,7s0.066,0.921,0.177,1.355L0.354,9.49l1.167,2.021l1.668-0.625
		c0.647,0.635,1.452,1.105,2.351,1.355L5.833,14h2.333l0.293-1.759c0.898-0.25,1.704-0.721,2.351-1.355l1.668,0.625l1.167-2.021
		l-1.378-1.134C12.379,7.921,12.444,7.469,12.444,7s-0.066-0.921-0.177-1.355l1.378-1.134L12.479,2.49l-1.668,0.625
		C10.164,2.48,9.358,2.009,8.46,1.759L8.167,0L8.167,0z M7,9C5.895,9,5,8.105,5,7c0-1.105,0.895-2,2-2s2,0.895,2,2
		C9,8.105,8.105,9,7,9L7,9z"/>
</g>
</svg>
