<?xml version="1.0" encoding="iso-8859-1"?>
<!-- Generator: Adobe Illustrator 22.0.1, SVG Export Plug-In . SVG Version: 6.00 Build 0)  -->
<svg version="1.1" id="Layer_1" xmlns="http://www.w3.org/2000/svg" xmlns:xlink="http://www.w3.org/1999/xlink" x="0px" y="0px"
	 viewBox="0 0 14 9" style="enable-background:new 0 0 14 9;" xml:space="preserve">
<g>
	<g>
		<path style="fill:#C2E8FF;" d="M2.5,8.5c-1.103,0-2-0.897-2-2c0-0.993,0.748-1.841,1.739-1.972l0.308-0.041l0.1-0.293
			C2.993,3.181,3.939,2.5,5,2.5l0.145,0.017l0.38,0.025l0.125-0.359C6,1.176,6.945,0.5,8,0.5c1.061,0,2.007,0.681,2.354,1.694
			l0.1,0.293l0.308,0.041C11.752,2.659,12.5,3.507,12.5,4.5v0.249l0.197,0.16C13.208,5.294,13.5,5.874,13.5,6.5c0,1.103-0.897,2-2,2
			H2.5z"/>
	</g>
	<g>
		<path style="fill:#7496C4;" d="M8,1c0.847,0,1.602,0.545,1.88,1.357l0.201,0.586l0.614,0.081c0.725,0.096,1.276,0.701,1.303,1.42
			V4.51v0.498l0.398,0.3C12.78,5.598,13,6.032,13,6.5C13,7.327,12.327,8,11.5,8h-9C1.673,8,1,7.327,1,6.5
			c0-0.743,0.561-1.378,1.304-1.476l0.614-0.081L3.12,4.357C3.394,3.556,4.134,3.014,4.967,3c0.05,0.007,0.1,0.013,0.151,0.016
			l0.755,0.045l0.249-0.714C6.403,1.541,7.158,1,8,1 M8,0C6.689,0,5.586,0.846,5.178,2.018C5.118,2.014,5.061,2,5,2
			C3.684,2,2.578,2.853,2.174,4.033C0.949,4.194,0,5.231,0,6.5C0,7.881,1.119,9,2.5,9h9C12.881,9,14,7.881,14,6.5
			c0-0.816-0.397-1.533-1.001-1.99C12.999,4.507,13,4.504,13,4.5c0-1.269-0.949-2.306-2.174-2.467C10.422,0.853,9.316,0,8,0L8,0z"/>
	</g>
</g>
</svg>
