<?xml version="1.0" encoding="utf-8"?>
<!-- Generator: Adobe Illustrator 21.0.2, SVG Export Plug-In . SVG Version: 6.00 Build 0)  -->
<svg version="1.1" id="Layer_1" xmlns="http://www.w3.org/2000/svg" xmlns:xlink="http://www.w3.org/1999/xlink" x="0px" y="0px"
	 viewBox="0 0 14 14" style="enable-background:new 0 0 14 14;" xml:space="preserve">
<g>
	<circle style="fill:#BAE0BD;" cx="7" cy="7" r="6.5"/>
	<g>
		<path style="fill:#5E9C76;" d="M7,1c3.3,0,6,2.7,6,6s-2.7,6-6,6s-6-2.7-6-6S3.7,1,7,1 M7,0C3.1,0,0,3.1,0,7s3.1,7,7,7s7-3.1,7-7
			S10.9,0,7,0L7,0z"/>
	</g>
</g>
<path style="fill:#5E9C76;" d="M7,11c-1.1,0-2-0.9-2-2V8.5h1V9c0,0.6,0.4,1,1,1s1-0.4,1-1V8.2C8,8,7.9,7.8,7.7,7.7L6,7.2
	C5.4,7,5,6.4,5,5.8V5c0-1.1,0.9-2,2-2c1.1,0,2,0.9,2,2v0.5H8V5c0-0.6-0.4-1-1-1S6,4.4,6,5v0.8C6,6,6.1,6.2,6.3,6.3L8,6.8
	C8.6,7,9,7.6,9,8.2V9C9,10.1,8.1,11,7,11z"/>
<rect x="6.5" y="2" style="fill:#5E9C76;" width="1" height="1.5"/>
<rect x="6.5" y="10.5" style="fill:#5E9C76;" width="1" height="1.5"/>
</svg>
