<?xml version="1.0" encoding="iso-8859-1"?>
<!-- Generator: Adobe Illustrator 22.0.1, SVG Export Plug-In . SVG Version: 6.00 Build 0)  -->
<svg version="1.1" id="Layer_1" xmlns="http://www.w3.org/2000/svg" xmlns:xlink="http://www.w3.org/1999/xlink" x="0px" y="0px"
	 viewBox="0 0 14 14" style="enable-background:new 0 0 14 14;" xml:space="preserve">
<g>
	<circle style="fill:#E8D47B;" cx="7" cy="12.5" r="1"/>
	<path style="fill:#BA9B48;" d="M7,12c0.276,0,0.5,0.224,0.5,0.5S7.276,13,7,13s-0.5-0.224-0.5-0.5S6.724,12,7,12 M7,11
		c-0.828,0-1.5,0.672-1.5,1.5S6.172,14,7,14s1.5-0.672,1.5-1.5S7.828,11,7,11L7,11z"/>
</g>
<g>
	<circle style="fill:#FFEEA3;" cx="7" cy="1" r="0.5"/>
	<path style="fill:#BA9B48;" d="M7,0C6.448,0,6,0.448,6,1s0.448,1,1,1s1-0.448,1-1S7.552,0,7,0L7,0z"/>
</g>
<g>
	<path style="fill:#FFEEA3;" d="M1.5,11.5v-1.05c1.14-0.232,2-1.242,2-2.45V5c0-1.93,1.57-3.5,3.5-3.5s3.5,1.57,3.5,3.5v3
		c0,1.208,0.86,2.217,2,2.45v1.05H1.5z"/>
	<g>
		<path style="fill:#BA9B48;" d="M7,2c1.654,0,3,1.346,3,3v3c0,1.304,0.836,2.416,2,2.829V11H2v-0.171C3.164,10.416,4,9.304,4,8V5
			C4,3.346,5.346,2,7,2 M7,1C4.791,1,3,2.791,3,5v3c0,1.105-0.895,2-2,2v2h12v-2c-1.105,0-2-0.895-2-2V5C11,2.791,9.209,1,7,1L7,1z"
			/>
	</g>
</g>
</svg>
