<?xml version="1.0" encoding="utf-8"?>
<!-- Generator: Adobe Illustrator 21.0.2, SVG Export Plug-In . SVG Version: 6.00 Build 0)  -->
<svg version="1.1" id="Layer_1" xmlns="http://www.w3.org/2000/svg" xmlns:xlink="http://www.w3.org/1999/xlink" x="0px" y="0px"
	 viewBox="0 0 14 14" style="enable-background:new 0 0 14 14;" xml:space="preserve">
<g>
	<circle style="fill:#FFFFFF;" cx="7" cy="7" r="6.5"/>
	<g>
		<path style="fill:#BA9B48;" d="M7,1c3.3,0,6,2.7,6,6s-2.7,6-6,6s-6-2.7-6-6S3.7,1,7,1 M7,0C3.1,0,0,3.1,0,7s3.1,7,7,7s7-3.1,7-7
			S10.9,0,7,0L7,0z"/>
	</g>
</g>
<polygon style="fill:#66798F;" points="8.9,9.6 6.4,7.1 9.3,2.7 10.1,3.3 7.6,6.9 9.6,8.9 "/>
<g>
	<circle style="fill:#66798F;" cx="7" cy="7" r="1"/>
</g>
</svg>
