<?xml version="1.0" encoding="iso-8859-1"?>
<!-- Generator: Adobe Illustrator 22.0.1, SVG Export Plug-In . SVG Version: 6.00 Build 0)  -->
<svg version="1.1" id="Layer_1" xmlns="http://www.w3.org/2000/svg" xmlns:xlink="http://www.w3.org/1999/xlink" x="0px" y="0px"
	 viewBox="0 0 14 10" style="enable-background:new 0 0 14 10;" xml:space="preserve">
<g>
	<path style="fill:#FFFFFF;" d="M7,9.5C3.945,9.5,1.299,6.004,0.602,5C1.3,3.998,3.951,0.5,7,0.5c3.055,0,5.701,3.496,6.398,4.5
		C12.7,6.002,10.049,9.5,7,9.5z"/>
	<g>
		<path style="fill:#BA9B48;" d="M7,1c2.581,0,4.914,2.811,5.788,4.005C11.722,6.473,9.389,9,7,9C4.423,9,2.093,6.197,1.216,5
			C2.094,3.802,4.423,1,7,1 M7,0C3.134,0,0,5,0,5s3.134,5,7,5c3.866,0,7-5,7-5S10.866,0,7,0L7,0z"/>
	</g>
</g>
<g>
	<circle style="fill:#8BB7F0;" cx="7" cy="5" r="2.5"/>
	<path style="fill:#4E7AB5;" d="M7,3c1.103,0,2,0.897,2,2S8.103,7,7,7S5,6.103,5,5S5.897,3,7,3 M7,2C5.343,2,4,3.343,4,5
		s1.343,3,3,3s3-1.343,3-3S8.657,2,7,2L7,2z"/>
</g>
<g>
	<circle style="fill:#36404D;" cx="7" cy="5" r="1"/>
</g>
<g>
	<circle style="fill:#FFFFFF;" cx="8.5" cy="3.5" r="1.5"/>
</g>
</svg>
