<?xml version="1.0" encoding="utf-8"?>
<!-- Generator: Adobe Illustrator 21.0.2, SVG Export Plug-In . SVG Version: 6.00 Build 0)  -->
<svg version="1.1" id="Layer_1" xmlns="http://www.w3.org/2000/svg" xmlns:xlink="http://www.w3.org/1999/xlink" x="0px" y="0px"
	 viewBox="0 0 14 12" style="enable-background:new 0 0 14 12;" xml:space="preserve">
<path style="fill:#66798F;" d="M5.2,11.3c0,0-0.1,0-0.1,0c-0.3-0.1-0.4-0.3-0.3-0.6l0.8-2.8c0.1-0.3,0.4-0.4,0.6-0.3
	c0.3,0.1,0.4,0.3,0.3,0.6l-0.8,2.8C5.6,11.1,5.4,11.3,5.2,11.3z"/>
<path style="fill:#66798F;" d="M0.5,8.1c-0.1,0-0.2,0-0.3-0.1C0,7.7-0.1,7.4,0.1,7.2l1.9-2C2.2,5,2.5,5,2.7,5.2
	c0.2,0.2,0.2,0.5,0,0.7l-1.9,2C0.8,8,0.6,8.1,0.5,8.1z"/>
<path style="fill:#66798F;" d="M2.5,10c-0.1,0-0.2,0-0.3-0.1C2,9.7,1.9,9.4,2.1,9.2L4,6.6c0.2-0.2,0.5-0.3,0.7-0.1
	C5,6.7,5,7,4.8,7.2L2.9,9.8C2.8,9.9,2.7,10,2.5,10z"/>
<path style="fill:#66798F;" d="M8.8,11.3c-0.2,0-0.4-0.1-0.5-0.4L7.5,8.1C7.4,7.9,7.6,7.6,7.9,7.5c0.3-0.1,0.5,0.1,0.6,0.3l0.8,2.8
	c0.1,0.3-0.1,0.5-0.3,0.6C8.9,11.3,8.8,11.3,8.8,11.3z"/>
<path style="fill:#66798F;" d="M13.5,8.1c-0.1,0-0.3-0.1-0.4-0.2l-1.9-2c-0.2-0.2-0.2-0.5,0-0.7C11.5,5,11.8,5,12,5.2l1.9,2
	c0.2,0.2,0.2,0.5,0,0.7C13.7,8,13.6,8.1,13.5,8.1z"/>
<path style="fill:#66798F;" d="M11.5,10c-0.2,0-0.3-0.1-0.4-0.2L9.2,7.2C9,7,9,6.7,9.3,6.5C9.5,6.4,9.8,6.4,10,6.6l1.9,2.6
	c0.2,0.2,0.1,0.5-0.1,0.7C11.7,10,11.6,10,11.5,10z"/>
<g>
	<path style="fill:#FFEEA3;" d="M7,9.5C3.9,9.5,1.3,6,0.6,5C1.3,4,4,0.5,7,0.5c3.1,0,5.7,3.5,6.4,4.5C12.7,6,10,9.5,7,9.5z"/>
	<g>
		<path style="fill:#BA9B48;" d="M7,1c2.6,0,4.9,2.8,5.8,4C11.7,6.5,9.4,9,7,9C4.4,9,2.1,6.2,1.2,5C2.3,3.5,4.6,1,7,1 M7,0
			C3.1,0,0,5,0,5s3.1,5,7,5s7-5,7-5S10.9,0,7,0L7,0z"/>
	</g>
</g>
</svg>
