<?xml version="1.0" encoding="iso-8859-1"?>
<!-- Generator: Adobe Illustrator 22.0.1, SVG Export Plug-In . SVG Version: 6.00 Build 0)  -->
<svg version="1.1" id="Layer_1" xmlns="http://www.w3.org/2000/svg" xmlns:xlink="http://www.w3.org/1999/xlink" x="0px" y="0px"
	 viewBox="0 0 14 14" style="enable-background:new 0 0 14 14;" xml:space="preserve">
<g>
	<circle style="fill:#8BB7F0;" cx="7" cy="7" r="6.5"/>
	<g>
		<path style="fill:#4E7AB5;" d="M7,1c3.308,0,6,2.692,6,6s-2.692,6-6,6s-6-2.692-6-6S3.692,1,7,1 M7,0C3.134,0,0,3.134,0,7
			s3.134,7,7,7s7-3.134,7-7S10.866,0,7,0L7,0z"/>
	</g>
</g>
<path style="fill:#FFFFFF;" d="M6.212,8.634C6.176,8.54,6.099,8.316,6.099,7.986c0-1.563,1.615-1.62,1.615-2.793
	c0-0.112-0.049-0.778-0.853-0.778c-0.844,0-1.464,0.47-1.734,0.708V3.497C5.404,3.331,6.026,3,7.05,3c2.34,0,2.371,1.61,2.371,1.955
	c0,1.867-1.918,1.957-1.918,3.187c0,0.258,0.09,0.43,0.13,0.492H6.212z M7.001,11c-0.405,0-1.005-0.267-1.005-0.897
	c0-0.332,0.251-0.886,1.005-0.886c0.735,0,0.989,0.545,0.989,0.886C7.99,10.473,7.727,11,7.001,11z"/>
</svg>
