<?xml version="1.0" encoding="iso-8859-1"?>
<!-- Generator: Adobe Illustrator 22.0.1, SVG Export Plug-In . SVG Version: 6.00 Build 0)  -->
<svg version="1.1" id="Layer_1" xmlns="http://www.w3.org/2000/svg" xmlns:xlink="http://www.w3.org/1999/xlink" x="0px" y="0px"
	 viewBox="0 0 14 14" style="enable-background:new 0 0 14 14;" xml:space="preserve">
<g>
	<circle style="fill:#F78F8F;" cx="7" cy="7" r="6.5"/>
	<g>
		<path style="fill:#C74343;" d="M7,1c3.308,0,6,2.692,6,6s-2.692,6-6,6s-6-2.692-6-6S3.692,1,7,1 M7,0C3.134,0,0,3.134,0,7
			s3.134,7,7,7s7-3.134,7-7S10.866,0,7,0L7,0z"/>
	</g>
</g>
<path style="fill:#FFFFFF;" d="M7.071,11c-0.293,0-0.534-0.089-0.725-0.266c-0.19-0.178-0.286-0.393-0.286-0.645
	c0-0.264,0.096-0.48,0.288-0.648c0.192-0.168,0.433-0.253,0.722-0.253c0.293,0,0.533,0.085,0.719,0.255
	c0.187,0.17,0.28,0.385,0.28,0.645c0,0.264-0.092,0.481-0.277,0.653C7.608,10.914,7.368,11,7.071,11z M7.972,3L7.758,8.425H6.352
	L6.149,3H7.972z"/>
</svg>
