<?xml version="1.0" encoding="iso-8859-1"?>
<!-- Generator: Adobe Illustrator 22.0.1, SVG Export Plug-In . SVG Version: 6.00 Build 0)  -->
<svg version="1.1" id="Layer_1" xmlns="http://www.w3.org/2000/svg" xmlns:xlink="http://www.w3.org/1999/xlink" x="0px" y="0px"
	 viewBox="0 0 12 14" style="enable-background:new 0 0 12 14;" xml:space="preserve">
<g>
	<g>
		<path style="fill:#F2FAFF;" d="M1.5,12.5V11c0-1.423,0.666-2.734,1.826-3.599L3.864,7L3.326,6.599C2.166,5.734,1.5,4.423,1.5,3
			V1.5h9V3c0,1.423-0.666,2.734-1.826,3.599L8.136,7l0.538,0.401C9.834,8.266,10.5,9.577,10.5,11v1.5H1.5z"/>
	</g>
	<g>
		<path style="fill:#788B9C;" d="M10,2v1c0,1.263-0.592,2.429-1.625,3.198L7.298,7l1.077,0.802C9.408,8.571,10,9.737,10,11v1H2v-1
			c0-1.263,0.592-2.429,1.625-3.198L4.702,7L3.625,6.198C2.592,5.429,2,4.263,2,3V2H10 M11,1H1v2c0,1.643,0.804,3.089,2.027,4
			C1.804,7.911,1,9.357,1,11v2h10v-2c0-1.643-0.804-3.089-2.027-4C10.196,6.089,11,4.643,11,3V1L11,1z"/>
	</g>
</g>
<g>
	<g>
		<rect x="0.5" y="0.5" style="fill:#8BB7F0;" width="11" height="1"/>
	</g>
	<g>
		<polygon style="fill:#4E7AB5;" points="12,0 0,0 0,2 12,2 12,0 		"/>
	</g>
</g>
<g>
	<path style="fill:#D98B57;" d="M2.5,12h7C9.5,9.006,6,8,6,8S2.5,9.027,2.5,12z"/>
</g>
<g>
	<g>
		<rect x="0.5" y="12.5" style="fill:#8BB7F0;" width="11" height="1"/>
	</g>
	<g>
		<polygon style="fill:#4E7AB5;" points="12,12 0,12 0,14 12,14 12,12 		"/>
	</g>
</g>
<g>
	<path style="fill:#D98B57;" d="M3.184,4C3.597,5.163,4.696,6,6,6s2.403-0.837,2.816-2H3.184z"/>
</g>
</svg>
