<?xml version="1.0" encoding="iso-8859-1"?>
<!-- Generator: Adobe Illustrator 22.0.1, SVG Export Plug-In . SVG Version: 6.00 Build 0)  -->
<svg version="1.1" id="Layer_1" xmlns="http://www.w3.org/2000/svg" xmlns:xlink="http://www.w3.org/1999/xlink" x="0px" y="0px"
	 viewBox="0 0 14 14" style="enable-background:new 0 0 14 14;" xml:space="preserve">
<polygon style="fill:#36404D;" points="6,9 5,8 0,13 0,14 1,14 "/>
<g>
	<path style="fill:#F78F8F;" d="M2.729,5.566c0.709-0.554,1.578-0.854,2.494-0.854c0.352,0,0.703,0.045,1.043,0.134l0.33,0.087
		l3.044-4.167l3.594,3.594L9.067,7.405l0.087,0.33c0.324,1.233,0.047,2.546-0.721,3.536L2.729,5.566z"/>
	<path style="fill:#C74343;" d="M9.698,1.533l2.769,2.769L9.047,6.8L8.497,7.203L8.67,7.862c0.235,0.892,0.111,1.832-0.317,2.621
		L3.515,5.645c0.517-0.283,1.1-0.434,1.707-0.434c0.309,0,0.618,0.04,0.916,0.118l0.659,0.173L7.2,4.953L9.698,1.533 M9.58,0
		L6.392,4.363c-0.383-0.101-0.777-0.151-1.17-0.151C4.056,4.212,2.89,4.655,2,5.545L8.455,12c1.19-1.19,1.581-2.874,1.182-4.392
		L14,4.42L9.58,0L9.58,0z"/>
</g>
</svg>
