<?xml version="1.0" encoding="iso-8859-1"?>
<!-- Generator: Adobe Illustrator 22.0.1, SVG Export Plug-In . SVG Version: 6.00 Build 0)  -->
<svg version="1.1" id="Layer_1" xmlns="http://www.w3.org/2000/svg" xmlns:xlink="http://www.w3.org/1999/xlink" x="0px" y="0px"
	 viewBox="0 0 14 14" style="enable-background:new 0 0 14 14;" xml:space="preserve">
<g>
	<path style="fill:#BDB2DE;" d="M10.548,11.5c-0.395,0-0.781-0.16-1.061-0.439L3.966,5.539l1.572-1.573l7.534,7.535H10.548z"/>
	<g>
		<path style="fill:#8B75A1;" d="M5.538,4.673L11.866,11h-1.317c-0.267,0-0.518-0.104-0.707-0.293L4.673,5.538L5.538,4.673
			 M5.538,3.258l-2.28,2.28l5.876,5.876C9.509,11.789,10.018,12,10.548,12H14v-0.28L5.538,3.258L5.538,3.258z"/>
	</g>
</g>
<polygon style="fill:#8B75A1;" points="7.621,9.901 9.901,7.621 7.144,4.864 5.479,7.759 "/>
<g>
	<g>
		<path style="fill:#C74343;" d="M3,0C1.343,0,0,1.343,0,3s1.343,3,3,3s3-1.343,3-3S4.657,0,3,0z M3,4.5C2.172,4.5,1.5,3.828,1.5,3
			c0-0.828,0.672-1.5,1.5-1.5S4.5,2.172,4.5,3C4.5,3.828,3.828,4.5,3,4.5z"/>
	</g>
</g>
<g>
	<path style="fill:#DCD5F2;" d="M3.728,8.699l5.76-5.76C9.767,2.66,10.153,2.5,10.548,2.5h2.524l-7.771,7.772L3.728,8.699z"/>
	<g>
		<path style="fill:#8B75A1;" d="M11.866,3L5.301,9.565L4.435,8.699l5.406-5.406C10.03,3.104,10.281,3,10.548,3H11.866 M14,2h-3.452
			c-0.53,0-1.039,0.211-1.414,0.586L3.021,8.699l2.28,2.28L14,2.28V2L14,2z"/>
	</g>
</g>
<g>
	<g>
		<path style="fill:#C74343;" d="M3,8c-1.657,0-3,1.343-3,3c0,1.657,1.343,3,3,3s3-1.343,3-3C6,9.343,4.657,8,3,8z M3,12.5
			c-0.828,0-1.5-0.672-1.5-1.5S2.172,9.5,3,9.5s1.5,0.672,1.5,1.5S3.828,12.5,3,12.5z"/>
	</g>
</g>
</svg>
