<?xml version="1.0" encoding="iso-8859-1"?>
<!-- Generator: Adobe Illustrator 22.0.1, SVG Export Plug-In . SVG Version: 6.00 Build 0)  -->
<svg version="1.1" id="Layer_1" xmlns="http://www.w3.org/2000/svg" xmlns:xlink="http://www.w3.org/1999/xlink" x="0px" y="0px"
	 viewBox="0 0 14 9" style="enable-background:new 0 0 14 9;" xml:space="preserve">
<g>
	<g>
		<path style="fill:#4E7AB5;" d="M4.879,6.879L7,9l2.121-2.121C8.578,6.336,7.828,6,7,6S5.422,6.336,4.879,6.879z"/>
	</g>
	<g>
		<path style="fill:#4E7AB5;" d="M0.636,2.636l1.063,1.063C3.057,2.341,4.932,1.5,7,1.5s3.943,0.841,5.301,2.199l1.063-1.063
			C11.735,1.007,9.485,0,7,0S2.265,1.007,0.636,2.636z"/>
	</g>
	<g>
		<path style="fill:#4E7AB5;" d="M2.757,4.757L3.82,5.82C4.634,5.005,5.759,4.5,7,4.5s2.366,0.505,3.18,1.32l1.062-1.062
			C10.157,3.672,8.657,3,7,3S3.843,3.672,2.757,4.757z"/>
	</g>
</g>
</svg>
