<?xml version="1.0" encoding="iso-8859-1"?>
<!-- Generator: Adobe Illustrator 22.0.1, SVG Export Plug-In . SVG Version: 6.00 Build 0)  -->
<svg version="1.1" id="Layer_1" xmlns="http://www.w3.org/2000/svg" xmlns:xlink="http://www.w3.org/1999/xlink" x="0px" y="0px"
	 viewBox="0 0 14 12" style="enable-background:new 0 0 14 12;" xml:space="preserve">
<g>
	<g>
		<path style="fill:#8BB7F0;" d="M11.5,11.5V7c0-0.827-0.673-1.5-1.5-1.5H5.5V8L0.833,4.5L5.5,1v2.5H10c1.93,0,3.5,1.57,3.5,3.5v4.5
			H11.5z"/>
	</g>
	<g>
		<path style="fill:#4E7AB5;" d="M5,2v1v1h1h4c1.654,0,3,1.346,3,3v4h-1V7c0-1.103-0.897-2-2-2H6H5v1v1L1.667,4.5L5,2 M6,0L0,4.5
			L6,9V6h4c0.552,0,1,0.448,1,1v5h3V7c0-2.209-1.791-4-4-4H6V0L6,0z"/>
	</g>
</g>
</svg>
