<?xml version="1.0" encoding="iso-8859-1"?>
<!-- Generator: Adobe Illustrator 22.0.1, SVG Export Plug-In . SVG Version: 6.00 Build 0)  -->
<svg version="1.1" id="Layer_1" xmlns="http://www.w3.org/2000/svg" xmlns:xlink="http://www.w3.org/1999/xlink" x="0px" y="0px"
	 viewBox="0 0 14 12" style="enable-background:new 0 0 14 12;" xml:space="preserve">
<g>
	<g>
		<path style="fill:#8BB7F0;" d="M0.5,11.5V7c0-1.93,1.57-3.5,3.5-3.5h4.5V1l4.667,3.5L8.5,8V5.5H4C3.173,5.5,2.5,6.173,2.5,7v4.5
			H0.5z"/>
	</g>
	<g>
		<path style="fill:#4E7AB5;" d="M9,2l3.333,2.5L9,7V6V5H8H4C2.897,5,2,5.897,2,7v4H1V7c0-1.654,1.346-3,3-3h4h1V3V2 M8,0v3H4
			C1.791,3,0,4.791,0,7v5h3V7c0-0.552,0.448-1,1-1h4v3l6-4.5L8,0L8,0z"/>
	</g>
</g>
</svg>
