<?xml version="1.0" encoding="iso-8859-1"?>
<!-- Generator: Adobe Illustrator 22.0.1, SVG Export Plug-In . SVG Version: 6.00 Build 0)  -->
<svg version="1.1" id="Layer_1" xmlns="http://www.w3.org/2000/svg" xmlns:xlink="http://www.w3.org/1999/xlink" x="0px" y="0px"
	 viewBox="0 0 15 15" style="enable-background:new 0 0 15 15;" xml:space="preserve">
<g>
	<g>
		<polygon style="fill:#8BB7F0;" points="6.067,12.5 6.5,12.5 6.5,8.5 2.5,8.5 2.5,8.933 0.781,7.5 2.5,6.067 2.5,6.5 6.5,6.5 
			6.5,2.5 6.067,2.5 7.5,0.781 8.933,2.5 8.5,2.5 8.5,6.5 12.5,6.5 12.5,6.067 14.219,7.5 12.5,8.933 12.5,8.5 8.5,8.5 8.5,12.5 
			8.933,12.5 7.5,14.219 		"/>
	</g>
	<g>
		<path style="fill:#4E7AB5;" d="M7.5,1.562l0.5,0.6V3v3v1h1h3h0.838l0.6,0.5l-0.6,0.5H12H9H8v1v3v0.838l-0.5,0.6l-0.5-0.6V12V9V8H6
			H3H2.162l-0.6-0.5l0.6-0.5H3h3h1V6V3V2.162L7.5,1.562 M7.5,0L5,3h1v3H3V5L0,7.5L3,10V9h3v3H5l2.5,3l2.5-3H9V9h3v1l3-2.5L12,5v1H9
			V3h1L7.5,0L7.5,0z"/>
	</g>
</g>
</svg>
