<?xml version="1.0" encoding="iso-8859-1"?>
<!-- Generator: Adobe Illustrator 22.0.1, SVG Export Plug-In . SVG Version: 6.00 Build 0)  -->
<svg version="1.1" id="Layer_1" xmlns="http://www.w3.org/2000/svg" xmlns:xlink="http://www.w3.org/1999/xlink" x="0px" y="0px"
	 viewBox="0 0 14 13" style="enable-background:new 0 0 14 13;" xml:space="preserve">
<g>
	<path style="fill:#FFEEA3;" d="M0.814,12.5c-0.163,0-0.244-0.109-0.271-0.156c-0.027-0.047-0.082-0.172,0-0.312L6.729,1.316
		C6.811,1.175,6.946,1.16,7,1.16s0.189,0.015,0.271,0.156l6.187,10.715c0.082,0.141,0.027,0.265,0,0.312
		c-0.027,0.047-0.108,0.156-0.271,0.156H0.814z"/>
	<path style="fill:#BA9B48;" d="M7,1.847L12.862,12H1.138L7,1.847 M7,0.66c-0.274,0-0.547,0.135-0.704,0.406L0.11,11.781
		C-0.203,12.323,0.188,13,0.814,13h12.372c0.626,0,1.017-0.677,0.704-1.219L7.704,1.066C7.547,0.795,7.274,0.66,7,0.66L7,0.66z"/>
</g>
<path style="fill:#36404D;" d="M7.027,11c-0.22,0-0.401-0.067-0.544-0.2c-0.143-0.133-0.214-0.294-0.214-0.484
	c0-0.198,0.072-0.36,0.216-0.486C6.63,9.704,6.81,9.641,7.027,9.641c0.22,0,0.399,0.064,0.539,0.191
	c0.14,0.128,0.21,0.289,0.21,0.484c0,0.198-0.069,0.361-0.208,0.49S7.249,11,7.027,11z M7.702,5L7.542,9.069H6.487L6.335,5H7.702z"
	/>
</svg>
