<?xml version="1.0" encoding="iso-8859-1"?>
<!-- Generator: Adobe Illustrator 22.0.1, SVG Export Plug-In . SVG Version: 6.00 Build 0)  -->
<svg version="1.1" id="Layer_1" xmlns="http://www.w3.org/2000/svg" xmlns:xlink="http://www.w3.org/1999/xlink" x="0px" y="0px"
	 viewBox="0 0 14 14" style="enable-background:new 0 0 14 14;" xml:space="preserve">
<g>
	<circle style="fill:#8BB7F0;" cx="7" cy="7" r="6.5"/>
	<g>
		<path style="fill:#4E7AB5;" d="M7,1c3.308,0,6,2.692,6,6s-2.692,6-6,6s-6-2.692-6-6S3.692,1,7,1 M7,0C3.134,0,0,3.134,0,7
			s3.134,7,7,7s7-3.134,7-7S10.866,0,7,0L7,0z"/>
	</g>
</g>
<g>
	<path style="fill:#FFFFFF;" d="M6.94,10.315c-1.5,0-2.25-1.053-2.25-3.16c0-1.093,0.203-1.925,0.609-2.498
		c0.405-0.573,0.994-0.859,1.764-0.859c1.465,0,2.197,1.071,2.197,3.212c0,1.066-0.2,1.884-0.6,2.452
		C8.261,10.031,7.688,10.315,6.94,10.315z M7.002,4.857c-0.601,0-0.901,0.754-0.901,2.263c0,1.421,0.294,2.131,0.883,2.131
		c0.574,0,0.861-0.732,0.861-2.197S7.564,4.857,7.002,4.857z"/>
</g>
</svg>
