<?xml version="1.0" encoding="iso-8859-1"?>
<!-- Generator: Adobe Illustrator 22.0.1, SVG Export Plug-In . SVG Version: 6.00 Build 0)  -->
<svg version="1.1" id="Layer_1" xmlns="http://www.w3.org/2000/svg" xmlns:xlink="http://www.w3.org/1999/xlink" x="0px" y="0px"
	 viewBox="0 0 14 14" style="enable-background:new 0 0 14 14;" xml:space="preserve">
<g>
	<circle style="fill:#8BB7F0;" cx="7" cy="7" r="6.5"/>
	<g>
		<path style="fill:#4E7AB5;" d="M7,1c3.308,0,6,2.692,6,6s-2.692,6-6,6s-6-2.692-6-6S3.692,1,7,1 M7,0C3.134,0,0,3.134,0,7
			s3.134,7,7,7s7-3.134,7-7S10.866,0,7,0L7,0z"/>
	</g>
</g>
<g>
	<path style="fill:#FFFFFF;" d="M6.272,9.054h2.672v1.151H4.752V9.731c0-2.205,2.786-2.623,2.786-4.008
		c0-0.748-0.614-0.817-0.927-0.817c-0.542,0-1.061,0.215-1.556,0.646V4.33C5.603,3.976,6.221,3.798,6.91,3.798
		c1.994,0,2.043,1.516,2.043,1.789C8.953,7.594,6.434,8.039,6.272,9.054z"/>
</g>
</svg>
