<?xml version="1.0" encoding="iso-8859-1"?>
<!-- Generator: Adobe Illustrator 22.0.1, SVG Export Plug-In . SVG Version: 6.00 Build 0)  -->
<svg version="1.1" id="Layer_1" xmlns="http://www.w3.org/2000/svg" xmlns:xlink="http://www.w3.org/1999/xlink" x="0px" y="0px"
	 viewBox="0 0 14 14" style="enable-background:new 0 0 14 14;" xml:space="preserve">
<g>
	<circle style="fill:#8BB7F0;" cx="7" cy="7" r="6.5"/>
	<g>
		<path style="fill:#4E7AB5;" d="M7,1c3.308,0,6,2.692,6,6s-2.692,6-6,6s-6-2.692-6-6S3.692,1,7,1 M7,0C3.134,0,0,3.134,0,7
			s3.134,7,7,7s7-3.134,7-7S10.866,0,7,0L7,0z"/>
	</g>
</g>
<g>
	<path style="fill:#FFFFFF;" d="M4.901,9.999V8.791c0.422,0.308,0.914,0.461,1.477,0.461c0.354,0,0.63-0.076,0.829-0.229
		c0.197-0.152,0.296-0.365,0.296-0.637c0-0.281-0.123-0.498-0.367-0.65C6.891,7.583,6.555,7.507,6.127,7.507H5.543V6.444h0.541
		c0.82,0,1.23-0.272,1.23-0.817c0-0.513-0.315-0.769-0.945-0.769c-0.422,0-0.832,0.136-1.23,0.409V4.132
		C5.581,3.91,6.097,3.798,6.686,3.798c0.645,0,1.146,0.145,1.505,0.435C8.549,4.523,8.729,4.9,8.729,5.363
		c0,0.823-0.417,1.339-1.252,1.547v0.022c0.445,0.056,0.797,0.217,1.055,0.486c0.258,0.268,0.387,0.597,0.387,0.986
		c0,0.589-0.215,1.055-0.646,1.397s-1.025,0.514-1.784,0.514C5.837,10.315,5.309,10.21,4.901,9.999z"/>
</g>
</svg>
