<?xml version="1.0" encoding="iso-8859-1"?>
<!-- Generator: Adobe Illustrator 22.0.1, SVG Export Plug-In . SVG Version: 6.00 Build 0)  -->
<svg version="1.1" id="Layer_1" xmlns="http://www.w3.org/2000/svg" xmlns:xlink="http://www.w3.org/1999/xlink" x="0px" y="0px"
	 viewBox="0 0 14 14" style="enable-background:new 0 0 14 14;" xml:space="preserve">
<g>
	<circle style="fill:#8BB7F0;" cx="7" cy="7" r="6.5"/>
	<g>
		<path style="fill:#4E7AB5;" d="M7,1c3.308,0,6,2.692,6,6s-2.692,6-6,6s-6-2.692-6-6S3.692,1,7,1 M7,0C3.134,0,0,3.134,0,7
			s3.134,7,7,7s7-3.134,7-7S10.866,0,7,0L7,0z"/>
	</g>
</g>
<g>
	<path style="fill:#FFFFFF;" d="M8.57,3.904v3.973h0.756v1.037H8.57v1.292H7.305V8.914H4.559V7.828
		c0.243-0.272,0.495-0.57,0.756-0.894s0.513-0.657,0.756-1s0.469-0.688,0.679-1.035C6.958,4.552,7.137,4.22,7.283,3.904H8.57z
		 M5.802,7.876h1.503V5.675c-0.103,0.19-0.214,0.383-0.334,0.578c-0.12,0.195-0.246,0.387-0.378,0.576
		C6.461,7.017,6.328,7.201,6.193,7.377C6.059,7.555,5.928,7.721,5.802,7.876z"/>
</g>
</svg>
