<?xml version="1.0" encoding="iso-8859-1"?>
<!-- Generator: Adobe Illustrator 22.0.1, SVG Export Plug-In . SVG Version: 6.00 Build 0)  -->
<svg version="1.1" id="Layer_1" xmlns="http://www.w3.org/2000/svg" xmlns:xlink="http://www.w3.org/1999/xlink" x="0px" y="0px"
	 viewBox="0 0 14 14" style="enable-background:new 0 0 14 14;" xml:space="preserve">
<g>
	<circle style="fill:#8BB7F0;" cx="7" cy="7" r="6.5"/>
	<g>
		<path style="fill:#4E7AB5;" d="M7,1c3.308,0,6,2.692,6,6s-2.692,6-6,6s-6-2.692-6-6S3.692,1,7,1 M7,0C3.134,0,0,3.134,0,7
			s3.134,7,7,7s7-3.134,7-7S10.866,0,7,0L7,0z"/>
	</g>
</g>
<g>
	<path style="fill:#FFFFFF;" d="M5.011,10.043V8.856C5.441,9.12,5.9,9.252,6.387,9.252c0.366,0,0.652-0.087,0.858-0.261
		c0.207-0.174,0.311-0.411,0.311-0.71c0-0.624-0.441-0.936-1.323-0.936c-0.325,0-0.7,0.025-1.125,0.075l0.237-3.516h3.336v1.134
		H6.404L6.316,6.299C6.542,6.281,6.736,6.272,6.9,6.272c0.647,0,1.154,0.17,1.521,0.51s0.55,0.797,0.55,1.371
		c0,0.636-0.219,1.155-0.655,1.558s-1.028,0.604-1.775,0.604C5.934,10.315,5.424,10.225,5.011,10.043z"/>
</g>
</svg>
