<?xml version="1.0" encoding="iso-8859-1"?>
<!-- Generator: Adobe Illustrator 22.0.1, SVG Export Plug-In . SVG Version: 6.00 Build 0)  -->
<svg version="1.1" id="Layer_1" xmlns="http://www.w3.org/2000/svg" xmlns:xlink="http://www.w3.org/1999/xlink" x="0px" y="0px"
	 viewBox="0 0 14 14" style="enable-background:new 0 0 14 14;" xml:space="preserve">
<g>
	<circle style="fill:#8BB7F0;" cx="7" cy="7" r="6.5"/>
	<g>
		<path style="fill:#4E7AB5;" d="M7,1c3.308,0,6,2.692,6,6s-2.692,6-6,6s-6-2.692-6-6S3.692,1,7,1 M7,0C3.134,0,0,3.134,0,7
			s3.134,7,7,7s7-3.134,7-7S10.866,0,7,0L7,0z"/>
	</g>
</g>
<g>
	<path style="fill:#FFFFFF;" d="M9.265,8.109c0,0.693-0.452,2.206-2.18,2.206c-0.354,0-2.259-0.068-2.259-2.927
		c0-0.839,0.313-3.59,2.856-3.59c0.486,0,0.864,0.057,1.134,0.171v1.16C8.497,4.948,8.148,4.857,7.771,4.857
		c-1.475,0-1.567,1.626-1.573,1.916h0.026c0.299-0.413,0.74-0.62,1.323-0.62C7.873,6.154,9.265,6.297,9.265,8.109z M7.907,8.197
		c0-0.677-0.277-1.015-0.831-1.015c-0.781,0-0.835,0.813-0.835,0.954c0,1.004,0.718,1.116,0.844,1.116S7.907,9.151,7.907,8.197z"/>
</g>
</svg>
