<?xml version="1.0" encoding="iso-8859-1"?>
<!-- Generator: Adobe Illustrator 22.0.1, SVG Export Plug-In . SVG Version: 6.00 Build 0)  -->
<svg version="1.1" id="Layer_1" xmlns="http://www.w3.org/2000/svg" xmlns:xlink="http://www.w3.org/1999/xlink" x="0px" y="0px"
	 viewBox="0 0 14 14" style="enable-background:new 0 0 14 14;" xml:space="preserve">
<g>
	<circle style="fill:#8BB7F0;" cx="7" cy="7" r="6.5"/>
	<g>
		<path style="fill:#4E7AB5;" d="M7,1c3.308,0,6,2.692,6,6s-2.692,6-6,6s-6-2.692-6-6S3.692,1,7,1 M7,0C3.134,0,0,3.134,0,7
			s3.134,7,7,7s7-3.134,7-7S10.866,0,7,0L7,0z"/>
	</g>
</g>
<g>
	<path style="fill:#FFFFFF;" d="M4.738,8.509c0-1.158,1.027-1.534,1.235-1.604C5.654,6.747,4.967,6.299,4.967,5.473
		c0-0.409,0.272-1.674,2.021-1.674c1.842,0,2.035,1.419,2.035,1.657c0,0.823-0.729,1.261-1.06,1.419
		c0.205,0.07,1.248,0.456,1.248,1.622c0,1.678-1.905,1.811-2.236,1.811C5.309,10.307,4.738,9.263,4.738,8.509z M6.053,8.391
		c0,0.144,0.026,0.923,0.927,0.923c0.135,0,0.928-0.07,0.928-0.923c0-0.126-0.068-0.932-0.928-0.932
		C6.139,7.459,6.053,8.256,6.053,8.391z M6.246,5.6c0,0.688,0.648,0.8,0.751,0.8c0.65,0,0.756-0.688,0.756-0.8
		c0-0.114-0.106-0.804-0.756-0.804C6.301,4.796,6.246,5.489,6.246,5.6z"/>
</g>
</svg>
