<?xml version="1.0" encoding="iso-8859-1"?>
<!-- Generator: Adobe Illustrator 22.0.1, SVG Export Plug-In . SVG Version: 6.00 Build 0)  -->
<svg version="1.1" id="Layer_1" xmlns="http://www.w3.org/2000/svg" xmlns:xlink="http://www.w3.org/1999/xlink" x="0px" y="0px"
	 viewBox="0 0 14 14" style="enable-background:new 0 0 14 14;" xml:space="preserve">
<g>
	<circle style="fill:#8BB7F0;" cx="7" cy="7" r="6.5"/>
	<g>
		<path style="fill:#4E7AB5;" d="M7,1c3.308,0,6,2.692,6,6s-2.692,6-6,6s-6-2.692-6-6S3.692,1,7,1 M7,0C3.134,0,0,3.134,0,7
			s3.134,7,7,7s7-3.134,7-7S10.866,0,7,0L7,0z"/>
	</g>
</g>
<g>
	<path style="fill:#FFFFFF;" d="M9.164,6.752c0,3.481-2.312,3.563-2.742,3.563c-0.516,0-0.959-0.082-1.332-0.246V8.927
		C5.421,9.144,5.82,9.252,6.286,9.252c1.361,0,1.526-1.283,1.529-1.898L7.789,7.345c-0.278,0.413-0.702,0.62-1.27,0.62
		c-0.258,0-1.789-0.154-1.789-1.942c0-0.633,0.313-2.224,2.224-2.224C9.091,3.799,9.164,6.286,9.164,6.752z M7.762,6.014
		c0-0.219-0.099-1.156-0.848-1.156c-0.377,0-0.826,0.322-0.826,1.046c0,0.41,0.149,1.028,0.857,1.028
		C7.258,6.932,7.762,6.688,7.762,6.014z"/>
</g>
</svg>
