<?xml version="1.0" encoding="iso-8859-1"?>
<!-- Generator: Adobe Illustrator 22.0.1, SVG Export Plug-In . SVG Version: 6.00 Build 0)  -->
<svg version="1.1" id="Layer_1" xmlns="http://www.w3.org/2000/svg" xmlns:xlink="http://www.w3.org/1999/xlink" x="0px" y="0px"
	 viewBox="0 0 9 9" style="enable-background:new 0 0 9 9;" xml:space="preserve">
<g>
	<g>
		<polygon style="fill:#BAE0BD;" points="3.5,8.5 3.5,5.5 0.5,5.5 0.5,3.5 3.5,3.5 3.5,0.5 5.5,0.5 5.5,3.5 8.5,3.5 8.5,5.5 
			5.5,5.5 5.5,8.5 		"/>
	</g>
	<g>
		<path style="fill:#5E9C76;" d="M5,1v2v1h1h2v1H6H5v1v2H4V6V5H3H1V4h2h1V3V1H5 M6,0H3v3H0v3h3v3h3V6h3V3H6V0L6,0z"/>
	</g>
</g>
</svg>
