<?xml version="1.0" encoding="iso-8859-1"?>
<!-- Generator: Adobe Illustrator 22.0.1, SVG Export Plug-In . SVG Version: 6.00 Build 0)  -->
<svg version="1.1" id="Layer_1" xmlns="http://www.w3.org/2000/svg" xmlns:xlink="http://www.w3.org/1999/xlink" x="0px" y="0px"
	 viewBox="0 0 9 9" style="enable-background:new 0 0 9 9;" xml:space="preserve">
<g>
	<g>
		<polygon style="fill:#F78F8F;" points="4.501,5.914 2.123,8.291 0.709,6.877 3.086,4.499 0.711,2.123 2.125,0.709 4.501,3.085 
			6.877,0.709 8.291,2.123 5.915,4.499 8.293,6.877 6.879,8.291 		"/>
	</g>
	<g>
		<path style="fill:#C74343;" d="M6.877,1.416l0.707,0.707L5.915,3.792L5.208,4.499l0.707,0.707l1.671,1.671L6.879,7.584
			L5.208,5.913L4.501,5.206L3.794,5.913L2.123,7.584L1.416,6.877l1.671-1.671l0.707-0.707L3.087,3.792L1.418,2.123l0.707-0.707
			l1.669,1.669l0.707,0.707l0.707-0.707L6.877,1.416 M6.877,0.002L4.501,2.378L2.125,0.002L0.004,2.123L2.38,4.499L0.002,6.877
			l2.121,2.121L4.501,6.62l2.378,2.378L9,6.877L6.622,4.499l2.376-2.376L6.877,0.002L6.877,0.002z"/>
	</g>
</g>
</svg>
