<?xml version="1.0" encoding="iso-8859-1"?>
<!-- Generator: Adobe Illustrator 22.0.1, SVG Export Plug-In . SVG Version: 6.00 Build 0)  -->
<svg version="1.1" id="Layer_1" xmlns="http://www.w3.org/2000/svg" xmlns:xlink="http://www.w3.org/1999/xlink" x="0px" y="0px"
	 viewBox="0 0 9 9" style="enable-background:new 0 0 9 9;" xml:space="preserve">
<g>
	<polygon style="fill:#F5CE85;" points="1.451,6.356 2.088,5.718 3.369,6.834 2.653,7.55 0.812,8.189 	"/>
	<path style="fill:#967A44;" d="M2.112,6.402l0.525,0.457L2.381,7.115L1.624,7.378l0.261-0.749L2.112,6.402 M2.065,5.035
		L1.016,6.083L0,9l2.925-1.015l1.176-1.176L2.065,5.035L2.065,5.035z"/>
</g>
<g>
	<polygon style="fill:#36404D;" points="0.485,7.609 0.001,9.001 1.395,8.516 	"/>
</g>
<g>
	<path style="fill:#FFEEA3;" d="M3.078,7.302C2.991,7.208,2.856,7.108,2.654,7.055C2.543,6.681,2.248,6.467,1.958,6.373
		C1.906,6.192,1.809,6.05,1.687,5.944l4.633-4.638l1.375,1.375L3.078,7.302z"/>
	<g>
		<path style="fill:#BA9B48;" d="M6.32,1.836l0.845,0.845L3.042,6.806C3.009,6.789,2.974,6.772,2.938,6.756
			C2.79,6.446,2.539,6.22,2.251,6.086C2.232,6.046,2.212,6.007,2.19,5.97L6.32,1.836 M6.319,0.775L1.016,6.083c0,0,0.003,0,0.007,0
			c0.069,0,0.602,0.019,0.602,0.607c0,0,0.7,0.022,0.7,0.698c0.696,0,0.6,0.596,0.6,0.596l5.299-5.304L6.319,0.775L6.319,0.775z"/>
	</g>
</g>
<g>
	<path style="fill:#F78F8F;" d="M6.477,1.325l0.577-0.577C7.214,0.588,7.427,0.5,7.652,0.5c0.227,0,0.439,0.088,0.6,0.248
		C8.412,0.908,8.5,1.121,8.5,1.347c0,0.227-0.088,0.439-0.248,0.599L7.675,2.523L6.477,1.325z"/>
	<g>
		<path style="fill:#C74343;" d="M7.653,1C7.707,1,7.81,1.013,7.898,1.102C7.987,1.19,8,1.293,8,1.347
			c0,0.054-0.013,0.157-0.102,0.246L7.675,1.816L7.184,1.325l0.223-0.223C7.496,1.013,7.599,1,7.653,1 M7.653,0
			C7.308,0,6.963,0.132,6.7,0.395l-0.93,0.93L7.675,3.23l0.93-0.93c0.526-0.526,0.526-1.379,0-1.905C8.342,0.132,7.998,0,7.653,0
			L7.653,0z"/>
	</g>
</g>
</svg>
