<?xml version="1.0" encoding="iso-8859-1"?>
<!-- Generator: Adobe Illustrator 22.0.1, SVG Export Plug-In . SVG Version: 6.00 Build 0)  -->
<svg version="1.1" id="Layer_1" xmlns="http://www.w3.org/2000/svg" xmlns:xlink="http://www.w3.org/1999/xlink" x="0px" y="0px"
	 viewBox="0 0 9 9" style="enable-background:new 0 0 9 9;" xml:space="preserve">
<g>
	<polygon style="fill:#4E7AB5;" points="9,4 5,3 9,0 	"/>
</g>
<path style="fill:#4E7AB5;" d="M7.649,6C7.085,7.178,5.891,8,4.5,8C2.57,8,1,6.43,1,4.5S2.57,1,4.5,1c1.4,0,2.601,0.829,3.156,2.021
	C7.804,3.34,8.593,2.658,8.457,2.402C7.705,0.977,6.221,0,4.5,0C2.019,0,0,2.019,0,4.5S2.019,9,4.5,9c1.953,0,3.602-1.258,4.224-3
	H7.649z"/>
</svg>
