<?xml version="1.0" encoding="iso-8859-1"?>
<!-- Generator: Adobe Illustrator 22.0.1, SVG Export Plug-In . SVG Version: 6.00 Build 0)  -->
<svg version="1.1" id="Layer_1" xmlns="http://www.w3.org/2000/svg" xmlns:xlink="http://www.w3.org/1999/xlink" x="0px" y="0px"
	 viewBox="0 0 9 9" style="enable-background:new 0 0 9 9;" xml:space="preserve">
<g>
	<polygon style="fill:#FFEEA3;" points="4.5,6.764 2.379,7.871 2.776,5.512 1.068,3.837 3.436,3.486 4.5,1.344 5.564,3.486 
		7.932,3.837 6.224,5.512 6.621,7.871 	"/>
	<path style="fill:#BA9B48;" d="M4.5,2.467l0.501,1.008l0.232,0.468L5.75,4.019l1.113,0.165L6.06,4.972L5.687,5.337l0.087,0.515
		l0.187,1.11L4.963,6.441L4.5,6.2L4.037,6.441L3.039,6.962l0.187-1.11l0.087-0.515L2.94,4.972L2.137,4.184L3.25,4.019l0.516-0.077
		l0.232-0.468L4.5,2.467 M4.5,0.22L3.103,3.03L0,3.49l2.24,2.196L1.719,8.78L4.5,7.328L7.281,8.78L6.76,5.686L9,3.49L5.897,3.03
		L4.5,0.22L4.5,0.22z"/>
</g>
</svg>
