<?xml version="1.0" encoding="iso-8859-1"?>
<!-- Generator: Adobe Illustrator 22.0.1, SVG Export Plug-In . SVG Version: 6.00 Build 0)  -->
<svg version="1.1" id="Layer_1" xmlns="http://www.w3.org/2000/svg" xmlns:xlink="http://www.w3.org/1999/xlink" x="0px" y="0px"
	 viewBox="0 0 9 8" style="enable-background:new 0 0 9 8;" xml:space="preserve">
<g>
	<path style="fill:#F78F8F;" d="M4.501,7.133C3.188,6.326,0.5,4.312,0.5,2.571C0.5,1.429,1.429,0.5,2.571,0.5
		c0.597,0,1.148,0.254,1.553,0.716L4.5,1.646l0.376-0.43C5.28,0.754,5.832,0.5,6.429,0.5C7.571,0.5,8.5,1.429,8.5,2.571
		C8.5,4.328,5.813,6.332,4.501,7.133z"/>
	<path style="fill:#C74343;" d="M6.429,1C7.295,1,8,1.705,8,2.571c0,1.33-2.11,3.071-3.499,3.97C3.112,5.637,1,3.892,1,2.571
		C1,1.705,1.705,1,2.571,1C3.022,1,3.44,1.194,3.747,1.545L4.5,2.406l0.753-0.861C5.56,1.194,5.978,1,6.429,1 M6.429,0
		C5.656,0,4.971,0.348,4.5,0.887C4.029,0.348,3.344,0,2.571,0C1.151,0,0,1.151,0,2.571c0,2.561,4.5,5.143,4.5,5.143S9,5.149,9,2.571
		C9,1.151,7.849,0,6.429,0L6.429,0z"/>
</g>
</svg>
