<?xml version="1.0" encoding="iso-8859-1"?>
<!-- Generator: Adobe Illustrator 22.0.1, SVG Export Plug-In . SVG Version: 6.00 Build 0)  -->
<svg version="1.1" id="Layer_1" xmlns="http://www.w3.org/2000/svg" xmlns:xlink="http://www.w3.org/1999/xlink" x="0px" y="0px"
	 viewBox="0 0 9 9" style="enable-background:new 0 0 9 9;" xml:space="preserve">
<g>
	<g>
		<path style="fill:#F5CE85;" d="M1.207,8.5L0.5,7.793V7.207l2.326-2.326L2.709,4.578C2.57,4.22,2.5,3.857,2.5,3.5
			c0-1.654,1.346-3,3-3s3,1.346,3,3s-1.346,3-3,3c-0.356,0-0.719-0.07-1.077-0.209L4.119,6.173L1.793,8.5H1.207z"/>
	</g>
	<g>
		<path style="fill:#967A44;" d="M5.5,1C6.878,1,8,2.122,8,3.5S6.878,6,5.5,6C5.206,6,4.904,5.941,4.603,5.825L3.996,5.59
			l-0.46,0.46L1.586,8L1.414,8L1,7.586V7.414l1.95-1.95l0.46-0.46L3.175,4.397C3.059,4.096,3,3.794,3,3.5C3,2.122,4.122,1,5.5,1
			 M5.5,0C3.567,0,2,1.567,2,3.5c0,0.445,0.091,0.866,0.242,1.258L0,7l0,1l1,1l1,0l2.242-2.242C4.634,6.909,5.055,7,5.5,7
			C7.433,7,9,5.433,9,3.5S7.433,0,5.5,0L5.5,0z"/>
	</g>
</g>
<g>
	<path style="fill:#967A44;" d="M4.51,2.51l1.98,1.98c0.547-0.547,0.547-1.433,0-1.98S5.057,1.963,4.51,2.51z"/>
</g>
</svg>
