<?xml version="1.0" encoding="utf-8"?>
<!-- Generator: Adobe Illustrator 21.0.2, SVG Export Plug-In . SVG Version: 6.00 Build 0)  -->
<svg version="1.1" id="Layer_1" xmlns="http://www.w3.org/2000/svg" xmlns:xlink="http://www.w3.org/1999/xlink" x="0px" y="0px"
	 viewBox="0 0 9 9" style="enable-background:new 0 0 9 9;" xml:space="preserve">
<g>
	<g>
		<path style="fill:#4E7AB5;" d="M6.8,1c0.3,0,0.6,0.1,0.8,0.3C7.9,1.6,8,1.9,8,2.2S7.9,2.8,7.7,3L7,3.7C6.8,3.9,6.5,4,6.2,4
			S5.6,3.9,5.3,3.7C5.1,3.4,5,3.1,5,2.8S5.1,2.2,5.3,2L6,1.3C6.2,1.1,6.5,1,6.8,1 M6.8,0C6.3,0,5.7,0.2,5.3,0.6C5,0.9,4.9,1,4.6,1.3
			c-0.9,0.9-0.9,2.2,0,3.1C5.1,4.8,5.6,5,6.2,5s1.1-0.2,1.5-0.6C8,4.1,8.1,4,8.4,3.7c0.9-0.9,0.9-2.2,0-3.1C7.9,0.2,7.4,0,6.8,0
			L6.8,0z"/>
	</g>
</g>
<g>
	<g>
		<path style="fill:#4E7AB5;" d="M2.8,5c0.3,0,0.6,0.1,0.8,0.3C3.9,5.6,4,5.9,4,6.2S3.9,6.8,3.7,7L3,7.7C2.8,7.9,2.5,8,2.2,8
			S1.6,7.9,1.3,7.7C1.1,7.4,1,7.1,1,6.8S1.1,6.2,1.3,6L2,5.3C2.2,5.1,2.5,5,2.8,5 M2.8,4C2.3,4,1.7,4.2,1.3,4.6C1,4.9,0.9,5,0.6,5.3
			c-0.9,0.9-0.9,2.2,0,3.1C1.1,8.8,1.6,9,2.2,9s1.1-0.2,1.5-0.6C4,8.1,4.1,8,4.4,7.7c0.9-0.9,0.9-2.2,0-3.1C3.9,4.2,3.4,4,2.8,4
			L2.8,4z"/>
	</g>
</g>
<path style="fill:#4E7AB5;" d="M2.7,6.8c-0.1,0-0.3,0-0.4-0.1c-0.2-0.2-0.2-0.5,0-0.7l3.5-3.5c0.2-0.2,0.5-0.2,0.7,0s0.2,0.5,0,0.7
	L3.1,6.6C3,6.7,2.9,6.8,2.7,6.8z"/>
</svg>
