<?xml version="1.0" encoding="utf-8"?>
<!-- Generator: Adobe Illustrator 21.0.2, SVG Export Plug-In . SVG Version: 6.00 Build 0)  -->
<svg version="1.1" id="Layer_1" xmlns="http://www.w3.org/2000/svg" xmlns:xlink="http://www.w3.org/1999/xlink" x="0px" y="0px"
	 viewBox="0 0 9 9" style="enable-background:new 0 0 9 9;" xml:space="preserve">
<path style="fill:#66798F;" d="M7.5,5.8h-1V3c0-1.1-0.9-2-2-2c-1.1,0-2,0.9-2,2v2.8h-1V3c0-1.7,1.3-3,3-3s3,1.3,3,3V5.8z"/>
<g>
	<path style="fill:#F5CE85;" d="M0.5,8.5V4c0-0.3,0.2-0.5,0.5-0.5h7c0.3,0,0.5,0.2,0.5,0.5v4.5H0.5z"/>
	<path style="fill:#967A44;" d="M8,4v4H1V4H8 M8,3H1C0.4,3,0,3.4,0,4v5h9V4C9,3.4,8.6,3,8,3L8,3z"/>
</g>
<rect x="1" y="6" style="fill:#FFEEA3;" width="7" height="1"/>
<rect x="1" y="4" style="fill:#FFEEA3;" width="7" height="1"/>
</svg>
