<?xml version="1.0" encoding="iso-8859-1"?>
<!-- Generator: Adobe Illustrator 22.0.1, SVG Export Plug-In . SVG Version: 6.00 Build 0)  -->
<svg version="1.1" id="Layer_1" xmlns="http://www.w3.org/2000/svg" xmlns:xlink="http://www.w3.org/1999/xlink" x="0px" y="0px"
	 viewBox="0 0 9 9" style="enable-background:new 0 0 9 9;" xml:space="preserve">
<g>
	<path style="fill:#FFEEA3;" d="M4.501,8.474C3.792,8.216,0.652,6.786,0.505,1.7L4.5,0.521L8.495,1.7
		C8.348,6.801,5.209,8.219,4.501,8.474z"/>
	<g>
		<path style="fill:#BA9B48;" d="M4.5,1.043l3.477,1.026C7.72,6.212,5.321,7.586,4.503,7.936c-0.827-0.357-3.222-1.741-3.48-5.867
			L4.5,1.043 M4.5,0L0,1.328C0,7.742,4.5,9,4.5,9S9,7.763,9,1.328L4.5,0L4.5,0z"/>
	</g>
</g>
<path style="fill:#FFC49C;" d="M4.507,6.822C3.743,6.378,2.47,5.281,2.102,2.793L4.5,2.085l2.399,0.708
	C6.532,5.295,5.256,6.388,4.507,6.822z"/>
</svg>
