<?xml version="1.0" encoding="iso-8859-1"?>
<!-- Generator: Adobe Illustrator 22.0.1, SVG Export Plug-In . SVG Version: 6.00 Build 0)  -->
<svg version="1.1" id="Layer_1" xmlns="http://www.w3.org/2000/svg" xmlns:xlink="http://www.w3.org/1999/xlink" x="0px" y="0px"
	 viewBox="0 0 9 9" style="enable-background:new 0 0 9 9;" xml:space="preserve">
<g>
	<g>
		<path style="fill:#BAE0BD;" d="M2.5,8.5V6.201L1.833,6.437C1.713,6.479,1.604,6.5,1.5,6.5c-0.551,0-1-0.449-1-1s0.449-1,1-1
			c0.104,0,0.213,0.021,0.333,0.063L2.5,4.799V2.5h2.299L4.563,1.833C4.521,1.713,4.5,1.604,4.5,1.5c0-0.551,0.449-1,1-1
			s1,0.449,1,1c0,0.104-0.021,0.213-0.063,0.333L6.201,2.5H8.5v2.085C7.918,4.792,7.5,5.348,7.5,6s0.418,1.208,1,1.415V8.5H2.5z"/>
	</g>
	<g>
		<path style="fill:#5E9C76;" d="M5.5,1C5.776,1,6,1.224,6,1.5c0,0.047-0.011,0.101-0.034,0.165L5.5,2.976L5.034,1.665
			C5.011,1.601,5,1.547,5,1.5C5,1.224,5.224,1,5.5,1 M8,3v1.268C7.403,4.615,7,5.261,7,6s0.403,1.385,1,1.732V8H3V6.908V5.491v-1.4
			V3h1.092h1.417h1.4H8 M1.5,5c0.047,0,0.101,0.011,0.165,0.034L2.976,5.5L1.665,5.966C1.601,5.989,1.547,6,1.5,6
			C1.224,6,1,5.776,1,5.5S1.224,5,1.5,5 M5.5,0C4.672,0,4,0.672,4,1.5C4,1.676,4.036,1.843,4.092,2H2v2.092
			C1.843,4.036,1.676,4,1.5,4C0.672,4,0,4.672,0,5.5S0.672,7,1.5,7C1.676,7,1.843,6.964,2,6.908V9h7V7C8.448,7,8,6.552,8,6
			c0-0.552,0.448-1,1-1V2H6.908C6.964,1.843,7,1.676,7,1.5C7,0.672,6.328,0,5.5,0L5.5,0z"/>
	</g>
</g>
</svg>
