<?xml version="1.0" encoding="iso-8859-1"?>
<!-- Generator: Adobe Illustrator 22.0.1, SVG Export Plug-In . SVG Version: 6.00 Build 0)  -->
<svg version="1.1" id="Layer_1" xmlns="http://www.w3.org/2000/svg" xmlns:xlink="http://www.w3.org/1999/xlink" x="0px" y="0px"
	 viewBox="0 0 9 9" style="enable-background:new 0 0 9 9;" xml:space="preserve">
<g>
	<path style="fill:#788B9C;" d="M3.995,3.895l-3.73,3.556c-0.354,0.354-0.354,0.929,0,1.284l0,0c0.354,0.354,0.929,0.354,1.284,0
		l3.593-3.766L3.995,3.895z"/>
</g>
<g>
	<circle style="fill:#D1EDFF;" cx="5.5" cy="3.5" r="3"/>
	<path style="fill:#788B9C;" d="M5.5,1C6.879,1,8,2.122,8,3.5S6.879,6,5.5,6S3,4.878,3,3.5S4.121,1,5.5,1 M5.5,0
		C3.567,0,2,1.567,2,3.5S3.567,7,5.5,7S9,5.433,9,3.5S7.433,0,5.5,0L5.5,0z"/>
</g>
</svg>
