<?xml version="1.0" encoding="iso-8859-1"?>
<!-- Generator: Adobe Illustrator 22.0.1, SVG Export Plug-In . SVG Version: 6.00 Build 0)  -->
<svg version="1.1" id="Layer_1" xmlns="http://www.w3.org/2000/svg" xmlns:xlink="http://www.w3.org/1999/xlink" x="0px" y="0px"
	 viewBox="0 0 9 9" style="enable-background:new 0 0 9 9;" xml:space="preserve">
<g>
	<path style="fill:#8B75A1;" d="M8,4.5c0-0.301-0.042-0.592-0.114-0.871L8.772,2.9L8.022,1.6L6.95,2.002
		C6.534,1.594,6.016,1.292,5.439,1.131L5.25,0h-1.5L3.561,1.131C2.984,1.292,2.466,1.594,2.05,2.002L0.978,1.6L0.228,2.9
		l0.886,0.729C1.042,3.908,1,4.199,1,4.5s0.042,0.592,0.114,0.871L0.228,6.1L0.978,7.4L2.05,6.998
		c0.416,0.408,0.934,0.711,1.511,0.871L3.75,9h1.5l0.189-1.131C6.016,7.708,6.534,7.406,6.95,6.998L8.022,7.4L8.772,6.1L7.886,5.371
		C7.958,5.092,8,4.801,8,4.5z M4.5,5.786c-0.71,0-1.286-0.576-1.286-1.286S3.79,3.214,4.5,3.214S5.786,3.79,5.786,4.5
		S5.21,5.786,4.5,5.786z"/>
</g>
</svg>
