<?xml version="1.0" encoding="iso-8859-1"?>
<!-- Generator: Adobe Illustrator 22.0.1, SVG Export Plug-In . SVG Version: 6.00 Build 0)  -->
<svg version="1.1" id="Layer_1" xmlns="http://www.w3.org/2000/svg" xmlns:xlink="http://www.w3.org/1999/xlink" x="0px" y="0px"
	 viewBox="0 0 9 6" style="enable-background:new 0 0 9 6;" xml:space="preserve">
<g>
	<g>
		<path style="fill:#C2E8FF;" d="M2,5.5C1.173,5.5,0.5,4.827,0.5,4c0-0.586,0.348-1.122,0.886-1.365l0.172-0.078l0.078-0.172
			C1.878,1.848,2.414,1.5,3,1.5c0.105,0,0.219,0.015,0.347,0.045l0.329,0.079l0.195-0.276C4.247,0.817,4.855,0.5,5.5,0.5
			c1.029,0,1.88,0.779,1.979,1.812l0.025,0.26L7.73,2.7C8.205,2.968,8.5,3.466,8.5,4c0,0.827-0.673,1.5-1.5,1.5H2z"/>
	</g>
	<g>
		<path style="fill:#7496C4;" d="M5.5,1c0.771,0,1.407,0.584,1.481,1.359l0.049,0.52l0.455,0.257C7.807,3.317,8,3.641,8,4
			c0,0.551-0.449,1-1,1H2C1.449,5,1,4.551,1,4c0-0.39,0.232-0.747,0.591-0.909l0.344-0.155l0.155-0.344C2.253,2.232,2.61,2,3,2
			c0.065,0,0.141,0.01,0.231,0.032l0.657,0.156l0.39-0.551C4.561,1.238,5.018,1,5.5,1 M5.5,0C4.657,0,3.915,0.42,3.463,1.059
			C3.313,1.024,3.16,1,3,1C2.189,1,1.493,1.485,1.18,2.18C0.485,2.493,0,3.188,0,4c0,1.105,0.895,2,2,2h5c1.105,0,2-0.895,2-2
			c0-0.748-0.416-1.392-1.024-1.735C7.856,0.996,6.8,0,5.5,0L5.5,0z"/>
	</g>
</g>
</svg>
