<?xml version="1.0" encoding="utf-8"?>
<!-- Generator: Adobe Illustrator 21.0.2, SVG Export Plug-In . SVG Version: 6.00 Build 0)  -->
<svg version="1.1" id="Layer_1" xmlns="http://www.w3.org/2000/svg" xmlns:xlink="http://www.w3.org/1999/xlink" x="0px" y="0px"
	 viewBox="0 0 9 9" style="enable-background:new 0 0 9 9;" xml:space="preserve">
<g>
	<circle style="fill:#BAE0BD;" cx="4.5" cy="4.5" r="4"/>
	<g>
		<path style="fill:#5E9C76;" d="M4.5,1C6.4,1,8,2.6,8,4.5S6.4,8,4.5,8S1,6.4,1,4.5S2.6,1,4.5,1 M4.5,0C2,0,0,2,0,4.5S2,9,4.5,9
			S9,7,9,4.5S7,0,4.5,0L4.5,0z"/>
	</g>
</g>
<path style="fill:#5E9C76;" d="M4.5,7.3C3.7,7.3,3,6.6,3,5.8V5.5h1v0.3C4,6,4.2,6.3,4.5,6.3S5,6,5,5.8V5.3c0-0.1,0-0.1-0.1-0.1
	l-1-0.3C3.4,4.6,3,4.2,3,3.7V3.2c0-0.8,0.7-1.5,1.5-1.5C5.3,1.8,6,2.4,6,3.2v0.3H5V3.2C5,3,4.8,2.8,4.5,2.8S4,3,4,3.2v0.5
	c0,0.1,0,0.1,0.1,0.1l1,0.3C5.7,4.4,6,4.8,6,5.3v0.5C6,6.6,5.3,7.3,4.5,7.3z"/>
<rect x="4" y="1.3" style="fill:#5E9C76;" width="1" height="1"/>
<rect x="4" y="6.8" style="fill:#5E9C76;" width="1" height="1"/>
</svg>
