<?xml version="1.0" encoding="iso-8859-1"?>
<!-- Generator: Adobe Illustrator 22.0.1, SVG Export Plug-In . SVG Version: 6.00 Build 0)  -->
<svg version="1.1" id="Layer_1" xmlns="http://www.w3.org/2000/svg" xmlns:xlink="http://www.w3.org/1999/xlink" x="0px" y="0px"
	 viewBox="0 0 9 9" style="enable-background:new 0 0 9 9;" xml:space="preserve">
<g>
	<circle style="fill:#BA9B48;" cx="4.5" cy="8" r="1"/>
</g>
<g>
	<circle style="fill:#BA9B48;" cx="4.5" cy="1" r="1"/>
</g>
<g>
	<path style="fill:#FFEEA3;" d="M0.5,7.5V7.412c0.502-0.17,1-0.603,1-1.412V4.5c0-1.654,1.346-3,3-3s3,1.346,3,3V6
		c0,0.808,0.498,1.24,1,1.411V7.5H0.5z"/>
	<g>
		<path style="fill:#BA9B48;" d="M4.5,2C5.878,2,7,3.121,7,4.5V6c0,0.387,0.094,0.721,0.251,1H1.749C1.907,6.721,2,6.387,2,6V4.5
			C2,3.121,3.122,2,4.5,2 M4.5,1C2.567,1,1,2.567,1,4.5c0,0,0,0.515,0,1.5S0,7,0,7v1h9V7c0,0-1-0.018-1-1s0-1.5,0-1.5
			C8,2.567,6.433,1,4.5,1L4.5,1z"/>
	</g>
</g>
</svg>
