<?xml version="1.0" encoding="utf-8"?>
<!-- Generator: Adobe Illustrator 21.0.2, SVG Export Plug-In . SVG Version: 6.00 Build 0)  -->
<svg version="1.1" id="Layer_1" xmlns="http://www.w3.org/2000/svg" xmlns:xlink="http://www.w3.org/1999/xlink" x="0px" y="0px"
	 viewBox="0 0 9 9" style="enable-background:new 0 0 9 9;" xml:space="preserve">
<g>
	<circle style="fill:#FFFFFF;" cx="4.5" cy="4.5" r="4"/>
	<g>
		<path style="fill:#BA9B48;" d="M4.5,1C6.4,1,8,2.6,8,4.5S6.4,8,4.5,8S1,6.4,1,4.5S2.6,1,4.5,1 M4.5,0C2,0,0,2,0,4.5S2,9,4.5,9
			S9,7,9,4.5S7,0,4.5,0L4.5,0z"/>
	</g>
</g>
<polygon style="fill:#66798F;" points="5.6,6.3 3.9,4.6 5.8,1.6 6.7,2.2 5.1,4.4 6.3,5.6 "/>
<g>
	<circle style="fill:#66798F;" cx="4.5" cy="4.5" r="0.6"/>
</g>
</svg>
