<?xml version="1.0" encoding="iso-8859-1"?>
<!-- Generator: Adobe Illustrator 22.0.1, SVG Export Plug-In . SVG Version: 6.00 Build 0)  -->
<svg version="1.1" id="Layer_1" xmlns="http://www.w3.org/2000/svg" xmlns:xlink="http://www.w3.org/1999/xlink" x="0px" y="0px"
	 viewBox="0 0 9 7" style="enable-background:new 0 0 9 7;" xml:space="preserve">
<g>
	<path style="fill:#FFFFFF;" d="M4.5,6.5c-1.652,0-3.257-1.973-3.913-2.997C1.08,2.744,2.692,0.5,4.5,0.5
		c1.652,0,3.257,1.973,3.913,2.997C7.92,4.256,6.308,6.5,4.5,6.5z"/>
	<g>
		<path style="fill:#BA9B48;" d="M4.5,1c1.301,0,2.63,1.516,3.313,2.499C7.139,4.464,5.795,6,4.5,6C3.199,6,1.87,4.484,1.187,3.501
			C1.861,2.536,3.205,1,4.5,1 M4.5,0C2.015,0,0,3.5,0,3.5S2.015,7,4.5,7S9,3.5,9,3.5S6.985,0,4.5,0L4.5,0z"/>
	</g>
</g>
<g>
	<circle style="fill:#4E7AB5;" cx="4.5" cy="3.5" r="1.5"/>
</g>
<g>
	<circle style="fill:#FFFFFF;" cx="5.771" cy="2.762" r="0.762"/>
</g>
</svg>
