<?xml version="1.0" encoding="utf-8"?>
<!-- Generator: Adobe Illustrator 21.0.2, SVG Export Plug-In . SVG Version: 6.00 Build 0)  -->
<svg version="1.1" id="Layer_1" xmlns="http://www.w3.org/2000/svg" xmlns:xlink="http://www.w3.org/1999/xlink" x="0px" y="0px"
	 viewBox="0 0 9 8" style="enable-background:new 0 0 9 8;" xml:space="preserve">
<path style="fill:#66798F;" d="M3.4,7.2C3.3,7.2,3.3,7.2,3.4,7.2C3.2,7.1,3.1,7,3.1,6.9l0.5-1.8c0-0.1,0.2-0.2,0.3-0.2
	c0.1,0,0.2,0.2,0.2,0.3L3.6,7C3.6,7.1,3.5,7.2,3.4,7.2z"/>
<path style="fill:#66798F;" d="M0.3,5.1c-0.1,0-0.1,0-0.2-0.1C0,4.9,0,4.8,0.1,4.7l1.2-1.3c0.1-0.1,0.3-0.1,0.4,0
	c0.1,0.1,0.1,0.3,0,0.4L0.5,5C0.5,5.1,0.4,5.1,0.3,5.1z"/>
<path style="fill:#66798F;" d="M1.6,6.4c-0.1,0-0.1,0-0.2-0.1C1.3,6.2,1.3,6.1,1.4,6l1.2-1.7c0.1-0.1,0.2-0.1,0.4,0
	c0.1,0.1,0.1,0.2,0,0.4L1.8,6.3C1.8,6.3,1.7,6.4,1.6,6.4z"/>
<path style="fill:#66798F;" d="M5.6,7.2C5.5,7.2,5.4,7.1,5.4,7L4.9,5.2c0-0.1,0-0.3,0.2-0.3c0.1,0,0.3,0,0.3,0.2l0.5,1.8
	C5.9,7,5.8,7.1,5.6,7.2C5.7,7.2,5.7,7.2,5.6,7.2z"/>
<path style="fill:#66798F;" d="M8.7,5.1c-0.1,0-0.1,0-0.2-0.1L7.3,3.7c-0.1-0.1-0.1-0.3,0-0.4c0.1-0.1,0.3-0.1,0.4,0l1.2,1.3
	C9,4.8,9,4.9,8.8,5C8.8,5.1,8.7,5.1,8.7,5.1z"/>
<path style="fill:#66798F;" d="M7.4,6.4c-0.1,0-0.2,0-0.2-0.1L5.9,4.6C5.9,4.5,5.9,4.3,6,4.3c0.1-0.1,0.3-0.1,0.3,0L7.6,6
	c0.1,0.1,0.1,0.3,0,0.3C7.5,6.3,7.4,6.4,7.4,6.4z"/>
<g>
	<path style="fill:#FFEEA3;" d="M4.5,5.9c-1.8,0-3.4-2-3.9-2.7c0.5-0.7,2.1-2.7,3.9-2.7c1.8,0,3.4,2,3.9,2.7
		C7.9,3.9,6.3,5.9,4.5,5.9z"/>
	<g>
		<path style="fill:#BA9B48;" d="M4.5,1c1.3,0,2.6,1.3,3.3,2.2c-0.7,0.9-2,2.2-3.3,2.2c-1.3,0-2.6-1.3-3.3-2.2C1.9,2.3,3.2,1,4.5,1
			 M4.5,0C2,0,0,3.2,0,3.2s2,3.2,4.5,3.2S9,3.2,9,3.2S7,0,4.5,0L4.5,0z"/>
	</g>
</g>
</svg>
