<?xml version="1.0" encoding="iso-8859-1"?>
<!-- Generator: Adobe Illustrator 22.0.1, SVG Export Plug-In . SVG Version: 6.00 Build 0)  -->
<svg version="1.1" id="Layer_1" xmlns="http://www.w3.org/2000/svg" xmlns:xlink="http://www.w3.org/1999/xlink" x="0px" y="0px"
	 viewBox="0 0 9 9" style="enable-background:new 0 0 9 9;" xml:space="preserve">
<g>
	<circle style="fill:#8BB7F0;" cx="4.5" cy="4.5" r="4"/>
	<g>
		<path style="fill:#4E7AB5;" d="M4.5,1C6.43,1,8,2.57,8,4.5S6.43,8,4.5,8S1,6.43,1,4.5S2.57,1,4.5,1 M4.5,0C2.015,0,0,2.015,0,4.5
			S2.015,9,4.5,9S9,6.985,9,4.5S6.985,0,4.5,0L4.5,0z"/>
	</g>
</g>
<path style="fill:#FFFFFF;" d="M3.921,5.134c0-0.781,1.038-1.041,1.038-1.795c0-0.072-0.031-0.5-0.549-0.5
	c-0.542,0-0.941,0.302-1.115,0.455V2.248c0.178-0.106,0.578-0.319,1.236-0.319c1.504,0,1.524,1.035,1.524,1.257
	c0,1.2-1.233,1.157-1.233,1.948H3.921z M4.501,7.071c-0.26,0-0.646-0.172-0.646-0.576c0-0.213,0.161-0.569,0.646-0.569
	c0.473,0,0.635,0.35,0.635,0.569C5.136,6.733,4.967,7.071,4.501,7.071z"/>
</svg>
