<?xml version="1.0" encoding="iso-8859-1"?>
<!-- Generator: Adobe Illustrator 22.0.1, SVG Export Plug-In . SVG Version: 6.00 Build 0)  -->
<svg version="1.1" id="Layer_1" xmlns="http://www.w3.org/2000/svg" xmlns:xlink="http://www.w3.org/1999/xlink" x="0px" y="0px"
	 viewBox="0 0 9 9" style="enable-background:new 0 0 9 9;" xml:space="preserve">
<g>
	<circle style="fill:#F78F8F;" cx="4.5" cy="4.5" r="4"/>
	<g>
		<path style="fill:#C74343;" d="M4.5,1C6.43,1,8,2.57,8,4.5S6.43,8,4.5,8S1,6.43,1,4.5S2.57,1,4.5,1 M4.5,0C2.015,0,0,2.015,0,4.5
			S2.015,9,4.5,9S9,6.985,9,4.5S6.985,0,4.5,0L4.5,0z"/>
	</g>
</g>
<path style="fill:#FFFFFF;" d="M4.546,7.071c-0.188,0-0.344-0.057-0.466-0.171C3.958,6.786,3.896,6.648,3.896,6.485
	c0-0.169,0.062-0.308,0.185-0.417C4.205,5.961,4.36,5.907,4.546,5.907c0.188,0,0.342,0.055,0.462,0.164
	c0.12,0.109,0.18,0.248,0.18,0.415c0,0.169-0.059,0.309-0.178,0.42C4.891,7.016,4.736,7.071,4.546,7.071z M5.125,1.929L4.987,4.983
	H4.083L3.953,1.929H5.125z"/>
</svg>
