<?xml version="1.0" encoding="iso-8859-1"?>
<!-- Generator: Adobe Illustrator 22.0.1, SVG Export Plug-In . SVG Version: 6.00 Build 0)  -->
<svg version="1.1" id="Layer_1" xmlns="http://www.w3.org/2000/svg" xmlns:xlink="http://www.w3.org/1999/xlink" x="0px" y="0px"
	 viewBox="0 0 9 9" style="enable-background:new 0 0 9 9;" xml:space="preserve">
<g>
	<g>
		<path style="fill:#F2FAFF;" d="M1.5,8.5v-1c0-1.014,0.511-1.953,1.367-2.511l0.227-0.148V4.159L2.867,4.011
			C2.011,3.453,1.5,2.514,1.5,1.5v-1h6v1c0,1.014-0.511,1.953-1.367,2.511L5.906,4.159v0.683l0.227,0.148
			C6.989,5.547,7.5,6.486,7.5,7.5v1H1.5z"/>
	</g>
	<g>
		<path style="fill:#788B9C;" d="M7,1v0.5c0,0.845-0.426,1.627-1.14,2.092L5.406,3.888V4.43V4.57v0.542L5.86,5.408
			C6.574,5.873,7,6.655,7,7.5V8H2V7.5c0-0.845,0.426-1.627,1.14-2.092l0.454-0.296V4.57V4.43V3.888L3.14,3.592
			C2.426,3.127,2,2.345,2,1.5V1H7 M8,0H1v1.5c0,1.229,0.636,2.305,1.594,2.93V4.57C1.636,5.195,1,6.271,1,7.5V9h7V7.5
			c0-1.229-0.636-2.305-1.594-2.93V4.43C7.364,3.805,8,2.729,8,1.5V0L8,0z"/>
	</g>
</g>
<g>
	<g>
		<rect style="fill:#4E7AB5;" width="9" height="1"/>
	</g>
</g>
<g>
	<g>
		<rect y="8" style="fill:#4E7AB5;" width="9" height="1"/>
	</g>
</g>
<g>
	<path style="fill:#D98B57;" d="M3.092,2C3.298,2.581,3.848,3,4.5,3s1.202-0.419,1.408-1H3.092z"/>
</g>
<path style="fill:#D98B57;" d="M6,8H3V7.5C3,6.672,3.672,6,4.5,6h0C5.328,6,6,6.672,6,7.5V8z"/>
</svg>
