<?xml version="1.0" encoding="iso-8859-1"?>
<!-- Generator: Adobe Illustrator 22.0.1, SVG Export Plug-In . SVG Version: 6.00 Build 0)  -->
<svg version="1.1" id="Layer_1" xmlns="http://www.w3.org/2000/svg" xmlns:xlink="http://www.w3.org/1999/xlink" x="0px" y="0px"
	 viewBox="0 0 9 9" style="enable-background:new 0 0 9 9;" xml:space="preserve">
<polygon style="fill:#36404D;" points="3.857,5.786 3.214,5.143 0,8.357 0,9 0.643,9 "/>
<g>
	<path style="fill:#F78F8F;" d="M1.742,3.731C2.154,3.456,2.64,3.308,3.148,3.308c0.22,0,0.44,0.028,0.653,0.084l0.33,0.087
		l1.981-2.712l2.121,2.121L5.521,4.869l0.087,0.33c0.187,0.709,0.056,1.461-0.34,2.059L1.742,3.731z"/>
	<path style="fill:#C74343;" d="M6.172,1.533l1.295,1.295L5.501,4.264L4.951,4.667l0.173,0.659c0.094,0.357,0.088,0.728-0.008,1.072
		L2.6,3.882c0.176-0.049,0.36-0.074,0.548-0.074c0.178,0,0.355,0.023,0.526,0.068l0.659,0.173l0.402-0.551L6.172,1.533 M6.053,0
		L3.928,2.909C3.673,2.841,3.41,2.808,3.148,2.808C2.37,2.808,1.593,3.103,1,3.697L5.303,8c0.794-0.794,1.054-1.916,0.788-2.928
		L9,2.947L6.053,0L6.053,0z"/>
</g>
</svg>
