<?xml version="1.0" encoding="iso-8859-1"?>
<!-- Generator: Adobe Illustrator 22.0.1, SVG Export Plug-In . SVG Version: 6.00 Build 0)  -->
<svg version="1.1" id="Layer_1" xmlns="http://www.w3.org/2000/svg" xmlns:xlink="http://www.w3.org/1999/xlink" x="0px" y="0px"
	 viewBox="0 0 9 9" style="enable-background:new 0 0 9 9;" xml:space="preserve">
<g>
	<polygon style="fill:#8B75A1;" points="9,1.196 3.566,6.63 2.317,5.689 7.007,1 9,1 	"/>
</g>
<g>
	<polygon style="fill:#8B75A1;" points="9,7.804 3.566,2.37 2.317,3.311 7.007,8 9,8 	"/>
</g>
<g>
	<g>
		<path style="fill:#C74343;" d="M2,6c0.551,0,1,0.449,1,1c0,0.551-0.449,1-1,1S1,7.551,1,7C1,6.449,1.449,6,2,6 M2,5
			C0.895,5,0,5.895,0,7c0,1.105,0.895,2,2,2s2-0.895,2-2C4,5.895,3.105,5,2,5L2,5z"/>
	</g>
</g>
<rect style="fill:none;" width="9" height="9"/>
<g>
	<g>
		<path style="fill:#C74343;" d="M2,1c0.551,0,1,0.449,1,1S2.551,3,2,3S1,2.551,1,2S1.449,1,2,1 M2,0C0.895,0,0,0.895,0,2
			s0.895,2,2,2s2-0.895,2-2S3.105,0,2,0L2,0z"/>
	</g>
</g>
</svg>
