<?xml version="1.0" encoding="iso-8859-1"?>
<!-- Generator: Adobe Illustrator 22.0.1, SVG Export Plug-In . SVG Version: 6.00 Build 0)  -->
<svg version="1.1" id="Layer_1" xmlns="http://www.w3.org/2000/svg" xmlns:xlink="http://www.w3.org/1999/xlink" x="0px" y="0px"
	 viewBox="0 0 9 7" style="enable-background:new 0 0 9 7;" xml:space="preserve">
<g>
	<path style="fill:#4E7AB5;" d="M7.681,3.319C6.866,2.505,5.741,2,4.5,2S2.134,2.505,1.319,3.319l0.707,0.707
		C2.66,3.393,3.535,3,4.5,3s1.84,0.393,2.474,1.026L7.681,3.319z"/>
	<path style="fill:#4E7AB5;" d="M2.732,4.732L4.5,6.5l1.768-1.768C5.815,4.28,5.19,4,4.5,4S3.185,4.28,2.732,4.732z"/>
	<path style="fill:#4E7AB5;" d="M9,1.821C7.831,0.696,6.246,0,4.5,0S1.169,0.696,0,1.821V2l0.613,0.613C1.609,1.617,2.984,1,4.5,1
		s2.891,0.617,3.887,1.613L9,2V1.821z"/>
</g>
</svg>
