<?xml version="1.0" encoding="iso-8859-1"?>
<!-- Generator: Adobe Illustrator 22.0.1, SVG Export Plug-In . SVG Version: 6.00 Build 0)  -->
<svg version="1.1" id="Layer_1" xmlns="http://www.w3.org/2000/svg" xmlns:xlink="http://www.w3.org/1999/xlink" x="0px" y="0px"
	 viewBox="0 0 9 9" style="enable-background:new 0 0 9 9;" xml:space="preserve">
<g>
	<polygon style="fill:#FFEEA3;" points="0.523,8.5 4.48,1.578 8.496,8.466 8.477,8.5 	"/>
	<path style="fill:#BA9B48;" d="M4.5,2.545L7.65,8H1.35L4.5,2.545 M4.5,1.067c-0.176,0-0.352,0.087-0.452,0.261L0.071,8.216
		C-0.13,8.565,0.121,9,0.523,9h7.954C8.879,9,9.13,8.565,8.929,8.216L4.952,1.328C4.852,1.154,4.676,1.067,4.5,1.067L4.5,1.067z"/>
</g>
<path style="fill:#36404D;" d="M4.517,7.874c-0.141,0-0.258-0.043-0.349-0.128S4.03,7.556,4.03,7.434
	c0-0.127,0.046-0.231,0.139-0.312S4.378,7,4.517,7c0.141,0,0.257,0.041,0.347,0.123s0.135,0.186,0.135,0.311
	c0,0.127-0.045,0.232-0.134,0.315C4.776,7.832,4.66,7.874,4.517,7.874z M4.951,3.857L4.848,6.473H4.171L4.073,3.857H4.951z"/>
</svg>
