<?xml version="1.0" encoding="iso-8859-1"?>
<!-- Generator: Adobe Illustrator 22.0.1, SVG Export Plug-In . SVG Version: 6.00 Build 0)  -->
<svg version="1.1" id="Layer_1" xmlns="http://www.w3.org/2000/svg" xmlns:xlink="http://www.w3.org/1999/xlink" x="0px" y="0px"
	 viewBox="0 0 9 9" style="enable-background:new 0 0 9 9;" xml:space="preserve">
<g>
	<circle style="fill:#8BB7F0;" cx="4.5" cy="4.5" r="4"/>
	<g>
		<path style="fill:#4E7AB5;" d="M4.5,1C6.43,1,8,2.57,8,4.5S6.43,8,4.5,8S1,6.43,1,4.5S2.57,1,4.5,1 M4.5,0C2.015,0,0,2.015,0,4.5
			S2.015,9,4.5,9S9,6.985,9,4.5S6.985,0,4.5,0L4.5,0z"/>
	</g>
</g>
<g>
	<path style="fill:#FFFFFF;" d="M4.462,6.631c-0.964,0-1.446-0.677-1.446-2.031c0-0.702,0.13-1.238,0.391-1.606
		c0.261-0.368,0.639-0.552,1.134-0.552c0.942,0,1.413,0.688,1.413,2.065c0,0.686-0.128,1.211-0.386,1.576
		C5.311,6.449,4.942,6.631,4.462,6.631z M4.501,3.123c-0.386,0-0.579,0.485-0.579,1.455c0,0.913,0.189,1.37,0.568,1.37
		c0.369,0,0.554-0.471,0.554-1.413S4.863,3.123,4.501,3.123z"/>
</g>
</svg>
