<?xml version="1.0" encoding="iso-8859-1"?>
<!-- Generator: Adobe Illustrator 22.0.1, SVG Export Plug-In . SVG Version: 6.00 Build 0)  -->
<svg version="1.1" id="Layer_1" xmlns="http://www.w3.org/2000/svg" xmlns:xlink="http://www.w3.org/1999/xlink" x="0px" y="0px"
	 viewBox="0 0 9 9" style="enable-background:new 0 0 9 9;" xml:space="preserve">
<g>
	<circle style="fill:#8BB7F0;" cx="4.5" cy="4.5" r="4"/>
	<g>
		<path style="fill:#4E7AB5;" d="M4.5,1C6.43,1,8,2.57,8,4.5S6.43,8,4.5,8S1,6.43,1,4.5S2.57,1,4.5,1 M4.5,0C2.015,0,0,2.015,0,4.5
			S2.015,9,4.5,9C6.985,9,9,6.985,9,4.5S6.985,0,4.5,0L4.5,0z"/>
	</g>
</g>
<g>
	<path style="fill:#FFFFFF;" d="M4.032,5.821H5.75v0.74H3.055V6.256c0-1.417,1.791-1.686,1.791-2.576
		c0-0.481-0.395-0.525-0.596-0.525c-0.348,0-0.682,0.138-1,0.415V2.784c0.352-0.228,0.75-0.342,1.192-0.342
		c1.282,0,1.314,0.975,1.314,1.15C5.756,4.882,4.136,5.168,4.032,5.821z"/>
</g>
</svg>
