<?xml version="1.0" encoding="iso-8859-1"?>
<!-- Generator: Adobe Illustrator 22.0.1, SVG Export Plug-In . SVG Version: 6.00 Build 0)  -->
<svg version="1.1" id="Layer_1" xmlns="http://www.w3.org/2000/svg" xmlns:xlink="http://www.w3.org/1999/xlink" x="0px" y="0px"
	 viewBox="0 0 9 9" style="enable-background:new 0 0 9 9;" xml:space="preserve">
<g>
	<circle style="fill:#8BB7F0;" cx="4.5" cy="4.5" r="4"/>
	<g>
		<path style="fill:#4E7AB5;" d="M4.5,1C6.43,1,8,2.57,8,4.5S6.43,8,4.5,8S1,6.43,1,4.5S2.57,1,4.5,1 M4.5,0C2.015,0,0,2.015,0,4.5
			S2.015,9,4.5,9S9,6.985,9,4.5S6.985,0,4.5,0L4.5,0z"/>
	</g>
</g>
<g>
	<path style="fill:#FFFFFF;" d="M3.151,6.428V5.651C3.422,5.849,3.738,5.948,4.1,5.948c0.228,0,0.405-0.049,0.533-0.147
		c0.127-0.098,0.191-0.234,0.191-0.41c0-0.181-0.079-0.32-0.236-0.418C4.43,4.875,4.214,4.826,3.939,4.826H3.563V4.142h0.347
		c0.527,0,0.791-0.175,0.791-0.525c0-0.33-0.202-0.494-0.607-0.494c-0.271,0-0.535,0.088-0.791,0.263V2.656
		c0.284-0.143,0.616-0.215,0.994-0.215c0.414,0,0.737,0.093,0.968,0.28c0.23,0.186,0.346,0.428,0.346,0.726
		c0,0.529-0.268,0.861-0.805,0.994v0.014c0.286,0.036,0.512,0.14,0.678,0.312C5.65,4.94,5.733,5.152,5.733,5.402
		c0,0.379-0.138,0.678-0.415,0.898c-0.277,0.22-0.659,0.331-1.147,0.331C3.753,6.631,3.413,6.564,3.151,6.428z"/>
</g>
</svg>
