<?xml version="1.0" encoding="iso-8859-1"?>
<!-- Generator: Adobe Illustrator 22.0.1, SVG Export Plug-In . SVG Version: 6.00 Build 0)  -->
<svg version="1.1" id="Layer_1" xmlns="http://www.w3.org/2000/svg" xmlns:xlink="http://www.w3.org/1999/xlink" x="0px" y="0px"
	 viewBox="0 0 9 9" style="enable-background:new 0 0 9 9;" xml:space="preserve">
<g>
	<circle style="fill:#8BB7F0;" cx="4.5" cy="4.5" r="4"/>
	<g>
		<path style="fill:#4E7AB5;" d="M4.5,1C6.43,1,8,2.57,8,4.5S6.43,8,4.5,8S1,6.43,1,4.5S2.57,1,4.5,1 M4.5,0C2.015,0,0,2.015,0,4.5
			S2.015,9,4.5,9S9,6.985,9,4.5S6.985,0,4.5,0L4.5,0z"/>
	</g>
</g>
<g>
	<path style="fill:#FFFFFF;" d="M5.509,2.51v2.554h0.486V5.73H5.509v0.831H4.696V5.73H2.931V5.032
		c0.156-0.175,0.318-0.367,0.486-0.575c0.168-0.208,0.33-0.423,0.486-0.643c0.156-0.22,0.301-0.442,0.436-0.665
		c0.134-0.223,0.249-0.436,0.343-0.64H5.509z M3.73,5.063h0.966V3.648C4.63,3.771,4.558,3.894,4.481,4.019
		C4.404,4.145,4.323,4.268,4.238,4.39c-0.085,0.121-0.17,0.239-0.257,0.353C3.895,4.857,3.811,4.964,3.73,5.063z"/>
</g>
</svg>
