<?xml version="1.0" encoding="iso-8859-1"?>
<!-- Generator: Adobe Illustrator 22.0.1, SVG Export Plug-In . SVG Version: 6.00 Build 0)  -->
<svg version="1.1" id="Layer_1" xmlns="http://www.w3.org/2000/svg" xmlns:xlink="http://www.w3.org/1999/xlink" x="0px" y="0px"
	 viewBox="0 0 9 9" style="enable-background:new 0 0 9 9;" xml:space="preserve">
<g>
	<circle style="fill:#8BB7F0;" cx="4.5" cy="4.5" r="4"/>
	<g>
		<path style="fill:#4E7AB5;" d="M4.5,1C6.43,1,8,2.57,8,4.5S6.43,8,4.5,8S1,6.43,1,4.5S2.57,1,4.5,1 M4.5,0C2.015,0,0,2.015,0,4.5
			S2.015,9,4.5,9S9,6.985,9,4.5S6.985,0,4.5,0L4.5,0z"/>
	</g>
</g>
<g>
	<path style="fill:#FFFFFF;" d="M3.221,6.456V5.693c0.277,0.17,0.572,0.254,0.885,0.254c0.235,0,0.419-0.056,0.552-0.168
		c0.133-0.112,0.2-0.264,0.2-0.456c0-0.401-0.284-0.602-0.851-0.602c-0.209,0-0.45,0.016-0.723,0.048l0.153-2.26H5.58v0.729H4.117
		L4.061,4.049c0.145-0.011,0.27-0.017,0.375-0.017c0.416,0,0.742,0.109,0.977,0.328c0.235,0.218,0.353,0.512,0.353,0.881
		c0,0.409-0.141,0.743-0.421,1.002C5.065,6.502,4.685,6.631,4.204,6.631C3.814,6.631,3.487,6.573,3.221,6.456z"/>
</g>
</svg>
