<?xml version="1.0" encoding="iso-8859-1"?>
<!-- Generator: Adobe Illustrator 22.0.1, SVG Export Plug-In . SVG Version: 6.00 Build 0)  -->
<svg version="1.1" id="Layer_1" xmlns="http://www.w3.org/2000/svg" xmlns:xlink="http://www.w3.org/1999/xlink" x="0px" y="0px"
	 viewBox="0 0 9 9" style="enable-background:new 0 0 9 9;" xml:space="preserve">
<g>
	<circle style="fill:#8BB7F0;" cx="4.5" cy="4.5" r="4"/>
	<g>
		<path style="fill:#4E7AB5;" d="M4.5,1C6.43,1,8,2.57,8,4.5S6.43,8,4.5,8S1,6.43,1,4.5S2.57,1,4.5,1 M4.5,0C2.015,0,0,2.015,0,4.5
			S2.015,9,4.5,9S9,6.985,9,4.5S6.985,0,4.5,0L4.5,0z"/>
	</g>
</g>
<g>
	<path style="fill:#FFFFFF;" d="M5.956,5.213c0,0.445-0.291,1.418-1.401,1.418c-0.228,0-1.452-0.044-1.452-1.881
		c0-0.539,0.201-2.308,1.836-2.308c0.313,0,0.556,0.037,0.729,0.11v0.746C5.462,3.181,5.238,3.123,4.995,3.123
		c-0.948,0-1.008,1.045-1.011,1.232h0.017c0.192-0.266,0.476-0.398,0.851-0.398C5.061,3.956,5.956,4.048,5.956,5.213z M5.083,5.27
		c0-0.435-0.178-0.653-0.534-0.653c-0.502,0-0.537,0.523-0.537,0.613c0,0.645,0.461,0.718,0.542,0.718
		C4.636,5.948,5.083,5.883,5.083,5.27z"/>
</g>
</svg>
