<?xml version="1.0" encoding="iso-8859-1"?>
<!-- Generator: Adobe Illustrator 22.0.1, SVG Export Plug-In . SVG Version: 6.00 Build 0)  -->
<svg version="1.1" id="Layer_1" xmlns="http://www.w3.org/2000/svg" xmlns:xlink="http://www.w3.org/1999/xlink" x="0px" y="0px"
	 viewBox="0 0 9 9" style="enable-background:new 0 0 9 9;" xml:space="preserve">
<g>
	<circle style="fill:#8BB7F0;" cx="4.5" cy="4.5" r="4"/>
	<g>
		<path style="fill:#4E7AB5;" d="M4.5,1C6.43,1,8,2.57,8,4.5S6.43,8,4.5,8S1,6.43,1,4.5S2.57,1,4.5,1 M4.5,0C2.015,0,0,2.015,0,4.5
			S2.015,9,4.5,9S9,6.985,9,4.5S6.985,0,4.5,0L4.5,0z"/>
	</g>
</g>
<g>
	<path style="fill:#FFFFFF;" d="M3.046,5.47c0-0.745,0.66-0.986,0.794-1.031c-0.205-0.102-0.647-0.39-0.647-0.921
		c0-0.263,0.175-1.076,1.3-1.076c1.184,0,1.308,0.912,1.308,1.065c0,0.529-0.468,0.811-0.681,0.912
		c0.132,0.045,0.802,0.293,0.802,1.042c0,1.079-1.225,1.164-1.438,1.164C3.413,6.626,3.046,5.955,3.046,5.47z M3.891,5.394
		c0,0.092,0.016,0.593,0.596,0.593c0.087,0,0.596-0.045,0.596-0.593c0-0.081-0.044-0.599-0.596-0.599
		C3.947,4.795,3.891,5.307,3.891,5.394z M4.015,3.6c0,0.443,0.417,0.514,0.483,0.514c0.418,0,0.486-0.443,0.486-0.514
		c0-0.073-0.068-0.517-0.486-0.517C4.051,3.083,4.015,3.528,4.015,3.6z"/>
</g>
</svg>
