<?xml version="1.0" encoding="iso-8859-1"?>
<!-- Generator: Adobe Illustrator 22.0.1, SVG Export Plug-In . SVG Version: 6.00 Build 0)  -->
<svg version="1.1" id="Layer_1" xmlns="http://www.w3.org/2000/svg" xmlns:xlink="http://www.w3.org/1999/xlink" x="0px" y="0px"
	 viewBox="0 0 9 9" style="enable-background:new 0 0 9 9;" xml:space="preserve">
<g>
	<circle style="fill:#8BB7F0;" cx="4.5" cy="4.5" r="4"/>
	<g>
		<path style="fill:#4E7AB5;" d="M4.5,1C6.43,1,8,2.57,8,4.5S6.43,8,4.5,8S1,6.43,1,4.5S2.57,1,4.5,1 M4.5,0C2.015,0,0,2.015,0,4.5
			S2.015,9,4.5,9S9,6.985,9,4.5S6.985,0,4.5,0L4.5,0z"/>
	</g>
</g>
<g>
	<path style="fill:#FFFFFF;" d="M5.891,4.341c0,2.238-1.486,2.291-1.763,2.291c-0.331,0-0.617-0.053-0.856-0.158V5.739
		c0.213,0.139,0.469,0.209,0.768,0.209c0.875,0,0.981-0.825,0.983-1.22L5.007,4.722C4.828,4.987,4.556,5.12,4.19,5.12
		c-0.166,0-1.15-0.099-1.15-1.249c0-0.407,0.201-1.429,1.429-1.429C5.844,2.442,5.891,4.041,5.891,4.341z M4.99,3.866
		c0-0.141-0.063-0.743-0.545-0.743c-0.242,0-0.531,0.207-0.531,0.672c0,0.263,0.096,0.661,0.551,0.661
		C4.666,4.456,4.99,4.3,4.99,3.866z"/>
</g>
</svg>
