<svg width="20px" height="18px" viewBox="0 0 20 20" xmlns="http://www.w3.org/2000/svg">
    <rect x="0" y="0" width="3" height="3" rx="1"></rect>
    <rect x="5" y="0" width="5" height="3" rx="1"></rect>
    <rect x="12" y="0" width="8" height="3" rx="1"></rect>
    <rect x="0" y="5" width="3" height="3" rx="1"></rect>
    <rect x="5" y="5" width="5" height="3" rx="1"></rect>
    <rect x="12" y="5" width="8" height="3" rx="1"></rect>
    <rect x="0" y="10" width="3" height="3" rx="1"></rect>
    <rect x="5" y="10" width="5" height="3" rx="1"></rect>
    <rect x="12" y="10" width="8" height="3" rx="1"></rect>
    <rect x="0" y="15" width="3" height="3" rx="1"></rect>
    <rect x="5" y="15" width="5" height="3" rx="1"></rect>
    <rect x="12" y="15" width="8" height="3" rx="1"></rect>
</svg>
