<?xml version="1.0" encoding="iso-8859-1"?>
<!-- Generator: Adobe Illustrator 22.1.0, SVG Export Plug-In . SVG Version: 6.00 Build 0)  -->
<svg version="1.1" id="Filled_3_" xmlns="http://www.w3.org/2000/svg" xmlns:xlink="http://www.w3.org/1999/xlink" x="0px" y="0px"
	 viewBox="0 0 14 14" style="enable-background:new 0 0 14 14;" xml:space="preserve">
<path d="M14,6v2c0,1.104-0.896,2-2,2h-2v2c0,1.104-0.896,2-2,2H6c-1.104,0-2-0.896-2-2v-2H2c-1.104,0-2-0.896-2-2V6
	c0-1.104,0.896-2,2-2h2V2c0-1.104,0.896-2,2-2h2c1.104,0,2,0.896,2,2v2h2C13.104,4,14,4.896,14,6z"/>
</svg>
