<?xml version="1.0" encoding="iso-8859-1"?>
<!-- Generator: Adobe Illustrator 22.1.0, SVG Export Plug-In . SVG Version: 6.00 Build 0)  -->
<svg version="1.1" id="Filled_3_" xmlns="http://www.w3.org/2000/svg" xmlns:xlink="http://www.w3.org/1999/xlink" x="0px" y="0px"
	 viewBox="0 0 14 14" style="enable-background:new 0 0 14 14;" xml:space="preserve">
<path d="M13.409,9.167c0.781,0.781,0.781,2.047,0,2.828l-1.414,1.414c-0.39,0.391-0.902,0.586-1.414,0.586S9.557,13.8,9.167,13.409
	L7,11.243l-2.167,2.167c-0.78,0.781-2.048,0.781-2.828,0l-1.414-1.414c-0.781-0.781-0.781-2.047,0-2.828L2.757,7L0.591,4.833
	c-0.781-0.781-0.781-2.047,0-2.828l1.414-1.414c0.78-0.781,2.048-0.781,2.828,0L7,2.757l2.167-2.167c0.78-0.781,2.048-0.781,2.828,0
	l1.414,1.414c0.781,0.781,0.781,2.047,0,2.828L11.243,7L13.409,9.167z"/>
</svg>
