<?xml version="1.0" encoding="iso-8859-1"?>
<!-- Generator: Adobe Illustrator 22.1.0, SVG Export Plug-In . SVG Version: 6.00 Build 0)  -->
<svg version="1.1" id="Filled_3_" xmlns="http://www.w3.org/2000/svg" xmlns:xlink="http://www.w3.org/1999/xlink" x="0px" y="0px"
	 viewBox="0 0 15 15" style="enable-background:new 0 0 15 15;" xml:space="preserve">
<path d="M7.5,0C3.364,0,0,3.364,0,7.5c0,1.062,0.218,2.087,0.639,3.033l-0.053,0.053c-0.572,0.572-0.743,1.432-0.434,2.18
	S1.191,14,2,14h4c0.088,0,0.174-0.006,0.259-0.017c0.103,0.182,0.234,0.349,0.393,0.493C7.021,14.815,7.503,15,8,15
	c0.06,0,0.12-0.003,0.181-0.008C12.005,14.645,15,11.354,15,7.5C15,3.364,11.636,0,7.5,0z"/>
</svg>
