<?xml version="1.0" encoding="iso-8859-1"?>
<!-- Generator: Adobe Illustrator 22.1.0, SVG Export Plug-In . SVG Version: 6.00 Build 0)  -->
<svg version="1.1" id="Filled_3_" xmlns="http://www.w3.org/2000/svg" xmlns:xlink="http://www.w3.org/1999/xlink" x="0px" y="0px"
	 viewBox="0 0 16 15" style="enable-background:new 0 0 16 15;" xml:space="preserve">
<path d="M15.267,7.748l-2.3,1.882l0.765,2.852c0.21,0.782-0.072,1.613-0.715,2.105C12.659,14.861,12.23,15,11.8,15
	c-0.345,0-0.69-0.089-1.002-0.269l-2.784-1.612l-2.691,1.601c-0.687,0.406-1.547,0.368-2.193-0.098
	c-0.646-0.466-0.953-1.272-0.782-2.051L2.987,9.65L0.71,7.729c-0.615-0.52-0.859-1.358-0.618-2.127s0.92-1.318,1.723-1.393
	l3.137-0.292l1.224-2.733C6.496,0.463,7.212,0,8,0s1.504,0.463,1.825,1.183l1.224,2.733l3.137,0.292
	c0.808,0.075,1.49,0.631,1.728,1.407C16.149,6.392,15.895,7.234,15.267,7.748z"/>
</svg>
