<?xml version="1.0" encoding="iso-8859-1"?>
<!-- Generator: Adobe Illustrator 22.1.0, SVG Export Plug-In . SVG Version: 6.00 Build 0)  -->
<svg version="1.1" id="Filled_3_" xmlns="http://www.w3.org/2000/svg" xmlns:xlink="http://www.w3.org/1999/xlink" x="0px" y="0px"
	 viewBox="0 0 15 14" style="enable-background:new 0 0 15 14;" xml:space="preserve">
<path d="M14.448,3.08C14.806,3.804,14.991,4.568,15,5.354c0.03,3.029-2.524,5.271-3.615,6.227l-0.18,0.158
	c-0.799,0.724-2.415,1.806-2.597,1.926C8.272,13.888,7.887,14,7.5,14c-0.386,0-0.772-0.112-1.108-0.335
	c-0.182-0.121-1.798-1.203-2.62-1.948l-0.156-0.137C2.524,10.624-0.03,8.383,0,5.354C0.009,4.568,0.194,3.804,0.552,3.08
	C1.503,1.155,3.276,0.003,5.297,0C5.299,0,5.3,0,5.302,0c0.754,0,1.53,0.202,2.211,0.544C8.193,0.202,8.963,0,9.698,0
	c0.001,0,0.003,0,0.004,0C11.723,0.003,13.496,1.154,14.448,3.08z"/>
</svg>
