<?xml version="1.0" encoding="iso-8859-1"?>
<!-- Generator: Adobe Illustrator 22.1.0, SVG Export Plug-In . SVG Version: 6.00 Build 0)  -->
<svg version="1.1" id="Filled_3_" xmlns="http://www.w3.org/2000/svg" xmlns:xlink="http://www.w3.org/1999/xlink" x="0px" y="0px"
	 viewBox="0 0 14 14" style="enable-background:new 0 0 14 14;" xml:space="preserve">
<path d="M14,6c0,3.309-2.691,6-6,6c-0.361,0-0.72-0.033-1.073-0.099l-1.22,1.22c-0.585,0.585-1.353,0.877-2.121,0.877
	s-1.536-0.292-2.121-0.877l-0.586-0.586C0.312,11.97,0,11.216,0,10.414c0-0.801,0.312-1.555,0.879-2.121l1.22-1.22
	C2.033,6.72,2,6.361,2,6c0-3.309,2.691-6,6-6c0.847,0,1.676,0.181,2.465,0.538c0.246,0.111,0.453,0.28,0.642,0.462
	C11.625,1.5,12.5,2.375,13,2.893c0.183,0.189,0.351,0.396,0.463,0.643C13.819,4.324,14,5.153,14,6z"/>
</svg>
