<?xml version="1.0" encoding="iso-8859-1"?>
<!-- Generator: Adobe Illustrator 22.1.0, SVG Export Plug-In . SVG Version: 6.00 Build 0)  -->
<svg version="1.1" id="Filled_3_" xmlns="http://www.w3.org/2000/svg" xmlns:xlink="http://www.w3.org/1999/xlink" x="0px" y="0px"
	 viewBox="0 0 10 16" style="enable-background:new 0 0 10 16;" xml:space="preserve">
<path d="M10,10c0,1.38-0.635,3.022-2,4.019C7.99,15.115,7.099,16,6,16H4c-1.099,0-1.99-0.885-2-1.981C0.635,13.022,0,11.38,0,10
	c0-0.608,0-2.973,0-4c0-1.675,0.751-3.132,2-4.022C2.012,0.884,2.902,0,4,0h2c1.099,0,1.99,0.885,2,1.981C9.365,2.978,10,4.62,10,6
	C10,6.608,10,8.973,10,10z"/>
</svg>
