<?xml version="1.0" encoding="iso-8859-1"?>
<!-- Generator: Adobe Illustrator 22.1.0, SVG Export Plug-In . SVG Version: 6.00 Build 0)  -->
<svg version="1.1" id="Filled_3_" xmlns="http://www.w3.org/2000/svg" xmlns:xlink="http://www.w3.org/1999/xlink" x="0px" y="0px"
	 viewBox="0 0 14 15" style="enable-background:new 0 0 14 15;" xml:space="preserve">
<path d="M14,11v1c0,1.104-0.896,2-2,2H9.234C8.685,14.613,7.887,15,7,15s-1.685-0.387-2.234-1H2c-1.104,0-2-0.896-2-2v-1
	c0-0.53,0.211-1.039,0.586-1.414L1,9.171V7c0-2.297,1.317-4.351,3.32-5.349C4.815,0.673,5.831,0,7,0c1.17,0,2.187,0.674,2.681,1.654
	C11.683,2.677,13,4.797,13,7.172v2l0.414,0.415C13.789,9.961,14,10.47,14,11z"/>
</svg>
