<?xml version="1.0" encoding="iso-8859-1"?>
<!-- Generator: Adobe Illustrator 22.1.0, SVG Export Plug-In . SVG Version: 6.00 Build 0)  -->
<svg version="1.1" id="Filled_3_" xmlns="http://www.w3.org/2000/svg" xmlns:xlink="http://www.w3.org/1999/xlink" x="0px" y="0px"
	 viewBox="0 0 20 11" style="enable-background:new 0 0 20 11;" xml:space="preserve">
<path d="M20,4.875c0.003,1.118-1.25,2.625-2.75,3.75C15.47,9.96,13.625,11,10,11S4.53,9.96,2.75,8.625C1.25,7.5-0.003,5.993,0,4.875
	h0.001c-0.002-0.104,0.003-0.208,0.017-0.312C0.089,4.038,0.366,3.562,0.789,3.24l0.266-0.202C1.1,2.486,1.374,1.958,1.849,1.601
	l1.604-1.2C3.894,0.07,4.452-0.064,4.996,0.03C5.539,0.124,6.02,0.437,6.324,0.895C6.848,1.681,8.021,3,10,3
	s3.152-1.319,3.676-2.105c0.304-0.458,0.786-0.771,1.329-0.865c0.544-0.095,1.102,0.04,1.543,0.371l1.604,1.2
	c0.475,0.356,0.749,0.885,0.794,1.437l0.266,0.202c0.423,0.322,0.7,0.798,0.771,1.324C19.996,4.667,20.002,4.771,20,4.875L20,4.875z
	"/>
</svg>
