<?xml version="1.0" encoding="iso-8859-1"?>
<!-- Generator: Adobe Illustrator 22.1.0, SVG Export Plug-In . SVG Version: 6.00 Build 0)  -->
<svg version="1.1" id="Filled_3_" xmlns="http://www.w3.org/2000/svg" xmlns:xlink="http://www.w3.org/1999/xlink" x="0px" y="0px"
	 viewBox="0 0 13 14" style="enable-background:new 0 0 13 14;" xml:space="preserve">
<path d="M10.828,6.914L10.742,7l0.086,0.086c0.297,0.296,0.54,0.631,0.728,0.992C12.39,8.319,13,9.088,13,10v2c0,1.104-0.896,2-2,2
	H2c-1.104,0-2-0.896-2-2v-2c0-0.913,0.611-1.683,1.447-1.923c0.187-0.364,0.43-0.697,0.725-0.991L2.258,7L2.172,6.914
	c-0.297-0.296-0.54-0.631-0.728-0.992C0.61,5.681,0,4.912,0,4V2c0-1.104,0.896-2,2-2h9c1.104,0,2,0.896,2,2v2
	c0,0.912-0.61,1.681-1.444,1.922C11.368,6.283,11.125,6.618,10.828,6.914z"/>
</svg>
