<?xml version="1.0" encoding="iso-8859-1"?>
<!-- Generator: Adobe Illustrator 22.1.0, SVG Export Plug-In . SVG Version: 6.00 Build 0)  -->
<svg version="1.1" id="Filled_3_" xmlns="http://www.w3.org/2000/svg" xmlns:xlink="http://www.w3.org/1999/xlink" x="0px" y="0px"
	 viewBox="0 0 15 15" style="enable-background:new 0 0 15 15;" xml:space="preserve">
<path d="M14.371,7.443l-1.414,1.414c-0.396,0.396-0.918,0.592-1.435,0.586l-0.193,0.245c0.375,0.749,0.251,1.685-0.375,2.31
	l-1.414,1.414c-0.78,0.781-2.048,0.781-2.828,0l-0.618-0.618l-1.62,1.619C4.1,14.789,3.591,15,3.061,15H2c-1.104,0-2-0.896-2-2
	v-1.061c0-0.53,0.211-1.039,0.586-1.414l1.619-1.62L1.587,8.288c-0.781-0.781-0.781-2.047,0-2.828l1.414-1.414
	c0.626-0.627,1.566-0.751,2.315-0.372l0.24-0.191C5.55,2.962,5.745,2.44,6.143,2.043l1.414-1.414c0.78-0.781,2.048-0.781,2.828,0
	l3.986,3.986C15.152,5.396,15.152,6.663,14.371,7.443z"/>
</svg>
