<?xml version="1.0" encoding="iso-8859-1"?>
<!-- Generator: Adobe Illustrator 22.1.0, SVG Export Plug-In . SVG Version: 6.00 Build 0)  -->
<svg version="1.1" id="Filled_3_" xmlns="http://www.w3.org/2000/svg" xmlns:xlink="http://www.w3.org/1999/xlink" x="0px" y="0px"
	 viewBox="0 0 16 16" style="enable-background:new 0 0 16 16;" xml:space="preserve">
<path d="M15.442,11.615l-3.458-3.603l3.463-3.632C16,3.801,16.153,2.948,15.839,2.213C15.523,1.477,14.8,1,14,1h-2.7
	c-0.556,0-1.085,0.231-1.464,0.637L8.701,2.856C8.058,1.169,6.44,0,4.5,0C1.977,0,0,1.977,0,4.5C0,5.928,0.633,7.181,1.641,8
	C0.633,8.819,0,10.072,0,11.5C0,14.023,1.977,16,4.5,16c1.936,0,3.55-1.163,4.196-2.844l1.149,1.217
	C10.224,14.773,10.749,15,11.3,15H14c0.802,0,1.525-0.479,1.84-1.216S15.998,12.193,15.442,11.615z"/>
</svg>
