<?xml version="1.0" encoding="iso-8859-1"?>
<!-- Generator: Adobe Illustrator 22.1.0, SVG Export Plug-In . SVG Version: 6.00 Build 0)  -->
<svg version="1.1" id="Filled_3_" xmlns="http://www.w3.org/2000/svg" xmlns:xlink="http://www.w3.org/1999/xlink" x="0px" y="0px"
	 viewBox="0 0 14 14" style="enable-background:new 0 0 14 14;" xml:space="preserve">
<path d="M14,10v2c0,1.104-0.896,2-2,2h-2c-1.104,0-2-0.896-2-2v-2c0,0.809-0.487,1.538-1.234,1.848
	c-0.749,0.309-1.607,0.139-2.18-0.434l-4-4c-0.781-0.781-0.781-2.047,0-2.828l4-4c0.572-0.572,1.431-0.744,2.18-0.434
	C7.513,0.462,8,1.191,8,2v1.074C10.708,3.464,14,5.445,14,10z"/>
</svg>
