<?xml version="1.0" encoding="iso-8859-1"?>
<!-- Generator: Adobe Illustrator 22.1.0, SVG Export Plug-In . SVG Version: 6.00 Build 0)  -->
<svg version="1.1" id="Filled_3_" xmlns="http://www.w3.org/2000/svg" xmlns:xlink="http://www.w3.org/1999/xlink" x="0px" y="0px"
	 viewBox="0 0 14 14" style="enable-background:new 0 0 14 14;" xml:space="preserve">
<path d="M13.414,7.414l-4,4c-0.573,0.572-1.433,0.743-2.18,0.434C6.487,11.538,6,10.809,6,10v2c0,1.104-0.896,2-2,2H2
	c-1.104,0-2-0.896-2-2v-2c0-4.555,3.292-6.536,6-6.926V2c0-0.809,0.487-1.538,1.234-1.848c0.747-0.31,1.606-0.139,2.18,0.434l4,4
	C14.195,5.367,14.195,6.633,13.414,7.414z"/>
</svg>
