<?xml version="1.0" encoding="iso-8859-1"?>
<!-- Generator: Adobe Illustrator 22.1.0, SVG Export Plug-In . SVG Version: 6.00 Build 0)  -->
<svg version="1.1" id="Filled_3_" xmlns="http://www.w3.org/2000/svg" xmlns:xlink="http://www.w3.org/1999/xlink" x="0px" y="0px"
	 viewBox="0 0 16 16" style="enable-background:new 0 0 16 16;" xml:space="preserve">
<path d="M16,8c0,0.669-0.334,1.293-0.891,1.664l-3.267,2.178l-2.178,3.267C9.293,15.666,8.669,16,8,16s-1.293-0.334-1.664-0.891
	l-2.178-3.267L0.891,9.664C0.334,9.293,0,8.669,0,8s0.334-1.293,0.891-1.664l3.267-2.178l2.178-3.267C6.707,0.334,7.331,0,8,0
	s1.293,0.334,1.664,0.891l2.178,3.267l3.267,2.178C15.666,6.707,16,7.331,16,8z"/>
</svg>
