<?xml version="1.0" encoding="iso-8859-1"?>
<!-- Generator: Adobe Illustrator 22.0.1, SVG Export Plug-In . SVG Version: 6.00 Build 0)  -->
<svg version="1.1" id="Layer_1" xmlns="http://www.w3.org/2000/svg" xmlns:xlink="http://www.w3.org/1999/xlink" x="0px" y="0px"
	 viewBox="0 0 28 28" style="enable-background:new 0 0 28 28;" xml:space="preserve">
<path d="M25,9h-6V3c0-1.654-1.346-3-3-3h-4c-1.654,0-3,1.346-3,3v6H3c-1.654,0-3,1.346-3,3v4c0,1.654,1.346,3,3,3h6v6
	c0,1.654,1.346,3,3,3h4c1.654,0,3-1.346,3-3v-6h6c1.654,0,3-1.346,3-3v-4C28,10.346,26.654,9,25,9z M26,16c0,0.551-0.449,1-1,1h-8v8
	c0,0.551-0.449,1-1,1h-4c-0.551,0-1-0.449-1-1v-8H3c-0.551,0-1-0.449-1-1v-4c0-0.551,0.449-1,1-1h8V3c0-0.551,0.449-1,1-1h4
	c0.551,0,1,0.449,1,1v8h8c0.551,0,1,0.449,1,1V16z"/>
</svg>
