<?xml version="1.0" encoding="iso-8859-1"?>
<!-- Generator: Adobe Illustrator 22.0.1, SVG Export Plug-In . SVG Version: 6.00 Build 0)  -->
<svg version="1.1" id="Layer_1" xmlns="http://www.w3.org/2000/svg" xmlns:xlink="http://www.w3.org/1999/xlink" x="0px" y="0px"
	 viewBox="0 0 28 28" style="enable-background:new 0 0 28 28;" xml:space="preserve">
<path d="M20.447,14l6.657-6.656C27.682,6.766,28,5.998,28,5.181c0-0.817-0.318-1.586-0.896-2.164l-2.121-2.121
	c-1.155-1.155-3.171-1.156-4.327,0L14,7.553L7.344,0.896c-1.156-1.157-3.172-1.156-4.327,0L0.896,3.017C0.318,3.595,0,4.363,0,5.181
	c0,0.817,0.318,1.585,0.896,2.163L7.553,14l-6.657,6.656C0.318,21.234,0,22.002,0,22.819c0,0.817,0.318,1.586,0.896,2.164
	l2.121,2.121c1.155,1.156,3.171,1.157,4.327,0L14,20.447l6.656,6.657C21.234,27.682,22.002,28,22.819,28
	c0.817,0,1.586-0.318,2.164-0.896l2.121-2.121C27.682,24.405,28,23.637,28,22.819c0-0.817-0.318-1.585-0.896-2.163L20.447,14z
	 M25.69,23.569l-2.121,2.121c-0.4,0.4-1.098,0.401-1.499,0L14,17.619L5.93,25.69c-0.401,0.401-1.099,0.4-1.499,0L2.31,23.569
	c-0.2-0.2-0.31-0.466-0.31-0.75c0-0.283,0.11-0.549,0.31-0.749L10.381,14L2.31,5.93C2.11,5.729,2,5.463,2,5.181
	c0-0.283,0.11-0.549,0.31-0.75L4.431,2.31c0.4-0.4,1.098-0.401,1.499,0L14,10.381l8.07-8.071c0.4-0.401,1.098-0.4,1.499,0
	l2.121,2.121c0.2,0.2,0.31,0.466,0.31,0.75c0,0.283-0.11,0.549-0.31,0.749L17.619,14l8.071,8.07c0.2,0.2,0.31,0.466,0.31,0.749
	C26,23.103,25.89,23.369,25.69,23.569z"/>
</svg>
