<?xml version="1.0" encoding="iso-8859-1"?>
<!-- Generator: Adobe Illustrator 22.0.1, SVG Export Plug-In . SVG Version: 6.00 Build 0)  -->
<svg version="1.1" id="Layer_1" xmlns="http://www.w3.org/2000/svg" xmlns:xlink="http://www.w3.org/1999/xlink" x="0px" y="0px"
	 viewBox="0 0 32 32" style="enable-background:new 0 0 32 32;" xml:space="preserve">
<path d="M30.593,23.091L11.6,4.098c-0.099-0.099-0.218-0.176-0.348-0.227L1.359,0.066C0.99-0.073,0.574,0.014,0.293,0.293
	C0.014,0.572-0.075,0.99,0.066,1.359l3.805,9.892c0.051,0.131,0.128,0.25,0.227,0.348l18.993,18.994
	C23.999,31.5,25.205,32,26.488,32c1.284,0,2.49-0.5,3.397-1.407l0.707-0.707C32.466,28.012,32.466,24.964,30.593,23.091z
	 M10.838,7.795c0.288-0.288,0.491-0.634,0.643-0.988L23.63,18.956l-4.674,4.674L6.808,11.481c0.353-0.152,0.7-0.355,0.987-0.642
	c0.593-0.593,0.853-1.435,0.966-2.078C9.403,8.647,10.245,8.388,10.838,7.795z M25.044,20.37l2.586,2.586l-4.674,4.674l-2.586-2.586
	L25.044,20.37z M3.465,4.623l1.158-1.158L9.812,5.46c-0.07,0.35-0.188,0.72-0.388,0.92C9.076,6.728,8.21,6.846,7.849,6.849h-1v1
	c0,0.347-0.118,1.226-0.468,1.575c-0.201,0.201-0.57,0.318-0.92,0.388L3.465,4.623z M29.179,28.472l-0.707,0.707
	c-1.058,1.059-2.905,1.06-3.967,0l-0.135-0.135l4.674-4.674l0.135,0.135C30.271,25.599,30.271,27.378,29.179,28.472z"/>
</svg>
