<?xml version="1.0" encoding="iso-8859-1"?>
<!-- Generator: Adobe Illustrator 22.0.1, SVG Export Plug-In . SVG Version: 6.00 Build 0)  -->
<svg version="1.1" id="Layer_1" xmlns="http://www.w3.org/2000/svg" xmlns:xlink="http://www.w3.org/1999/xlink" x="0px" y="0px"
	 viewBox="0 0 32 31" style="enable-background:new 0 0 32 31;" xml:space="preserve">
<path d="M31.951,11.589c-0.122-0.375-0.453-0.644-0.846-0.686L21.037,9.839l-4.124-9.247C16.753,0.232,16.395,0,16,0
	s-0.753,0.232-0.913,0.593l-4.124,9.247L0.895,10.903c-0.393,0.042-0.724,0.31-0.846,0.686s-0.012,0.788,0.281,1.052l7.521,6.779
	l-2.1,9.904c-0.082,0.386,0.071,0.785,0.391,1.017c0.32,0.233,0.747,0.255,1.087,0.057L16,25.341l8.771,5.057
	c0.154,0.089,0.327,0.134,0.499,0.134c0.207,0,0.413-0.064,0.588-0.191c0.319-0.232,0.473-0.63,0.391-1.017l-2.1-9.904l7.521-6.779
	C31.963,12.376,32.073,11.964,31.951,11.589z M22.382,18.32c-0.265,0.239-0.383,0.601-0.309,0.95l1.754,8.275l-7.328-4.225
	c-0.154-0.089-0.326-0.134-0.499-0.134s-0.345,0.044-0.499,0.134l-7.328,4.225l1.754-8.275c0.074-0.349-0.044-0.711-0.309-0.95
	l-6.283-5.664l8.412-0.889c0.354-0.038,0.662-0.261,0.808-0.587L16,3.455l3.445,7.726c0.146,0.326,0.453,0.55,0.808,0.587
	l8.412,0.889L22.382,18.32z"/>
</svg>
