<?xml version="1.0" encoding="iso-8859-1"?>
<!-- Generator: Adobe Illustrator 22.0.1, SVG Export Plug-In . SVG Version: 6.00 Build 0)  -->
<svg version="1.1" id="Layer_1" xmlns="http://www.w3.org/2000/svg" xmlns:xlink="http://www.w3.org/1999/xlink" x="0px" y="0px"
	 viewBox="0 0 32 29" style="enable-background:new 0 0 32 29;" xml:space="preserve">
<path d="M22.667,0C20.119,0,17.749,1.012,16,2.812C14.251,1.012,11.881,0,9.333,0C4.187,0,0,4.187,0,9.333
	c0,5.545,4.03,8.779,8.696,12.525c2.192,1.759,4.459,3.578,6.575,5.827L16,28.459l0.729-0.773c2.116-2.249,4.383-4.068,6.575-5.827
	C27.97,18.113,32,14.878,32,9.333C32,4.187,27.813,0,22.667,0z M22.052,20.298c-1.908,1.532-4.044,3.246-6.052,5.264
	c-2.008-2.019-4.144-3.732-6.052-5.264C5.508,16.734,2,13.919,2,9.333C2,5.29,5.29,2,9.333,2c2.325,0,4.464,1.075,5.866,2.948
	L16,6.017l0.801-1.069C18.203,3.075,20.342,2,22.667,2C26.71,2,30,5.29,30,9.333C30,13.919,26.492,16.734,22.052,20.298z"/>
</svg>
