<?xml version="1.0" encoding="iso-8859-1"?>
<!-- Generator: Adobe Illustrator 22.0.1, SVG Export Plug-In . SVG Version: 6.00 Build 0)  -->
<svg version="1.1" id="Layer_1" xmlns="http://www.w3.org/2000/svg" xmlns:xlink="http://www.w3.org/1999/xlink" x="0px" y="0px"
	 viewBox="0 0 22 39" style="enable-background:new 0 0 22 39;" xml:space="preserve">
<path d="M11,0C4.935,0,0,4.935,0,11c0,4.148,2.334,7.923,6,9.795v14.619L9.586,39h2.828L16,35.414v-2.828L14.414,31L16,29.414
	v-2.828L14.414,25L16,23.414v-2.619c3.666-1.872,6-5.646,6-9.795C22,4.935,17.065,0,11,0z M14.6,19.246L14,19.508v3.078L11.586,25
	L14,27.414v1.172L11.586,31L14,33.414v1.172L11.586,37h-1.172L8,34.586V19.508l-0.6-0.262C4.12,17.812,2,14.575,2,11
	c0-4.962,4.037-9,9-9s9,4.038,9,9C20,14.575,17.88,17.812,14.6,19.246z M12,12c0,0.552-0.448,1-1,1s-1-0.448-1-1
	c0-0.552,0.448-1,1-1S12,11.448,12,12z M16,11c0,0.552-0.447,1-1,1s-1-0.448-1-1c0-1.654-1.346-3-3-3s-3,1.346-3,3
	c0,0.552-0.447,1-1,1s-1-0.448-1-1c0-2.757,2.243-5,5-5S16,8.243,16,11z"/>
</svg>
