<?xml version="1.0" encoding="iso-8859-1"?>
<!-- Generator: Adobe Illustrator 22.0.1, SVG Export Plug-In . SVG Version: 6.00 Build 0)  -->
<svg version="1.1" id="Layer_1" xmlns="http://www.w3.org/2000/svg" xmlns:xlink="http://www.w3.org/1999/xlink" x="0px" y="0px"
	 viewBox="0 0 32 32" style="enable-background:new 0 0 32 32;" xml:space="preserve">
<path d="M16.613,19.629c0.304,0.827,0.453,1.713,0.427,2.62c-0.054,1.869-0.833,3.605-2.194,4.888l-3.086,2.911
	c-1.309,1.235-3.006,1.908-4.798,1.908c-0.07,0-0.14-0.001-0.209-0.003c-1.869-0.054-3.605-0.833-4.888-2.194
	c-1.283-1.36-1.959-3.139-1.905-5.007c0.054-1.869,0.833-3.605,2.194-4.888l3.086-2.911c1.36-1.283,3.156-1.954,5.007-1.905
	c0.72,0.021,1.42,0.152,2.082,0.38l-1.678,1.678c-0.155-0.019-0.305-0.054-0.463-0.059c-0.05-0.001-0.1-0.002-0.15-0.002
	c-1.28,0-2.492,0.48-3.427,1.363l-3.086,2.911c-0.972,0.916-1.528,2.156-1.567,3.491s0.444,2.605,1.361,3.577
	c0.916,0.972,2.156,1.528,3.491,1.567c1.349,0.039,2.606-0.444,3.577-1.36l3.086-2.911c0.972-0.916,1.528-2.156,1.567-3.491
	c0.009-0.314-0.016-0.623-0.063-0.926L16.613,19.629z M29.95,2.05c-2.729-2.729-7.17-2.73-9.9,0l-3,3
	c-1.97,1.969-2.51,4.828-1.637,7.294l1.655-1.655c-0.207-1.5,0.246-3.074,1.396-4.225l3-3C22.439,2.49,23.72,2.002,25,2.002
	s2.561,0.487,3.536,1.462c1.949,1.95,1.949,5.122,0,7.071l-3,3c-1.15,1.15-2.725,1.603-4.225,1.396l-1.655,1.655
	c0.757,0.268,1.55,0.41,2.344,0.41c1.792,0,3.585-0.682,4.95-2.047l3-3C32.679,9.221,32.679,4.779,29.95,2.05z M10.293,21.707
	C10.488,21.902,10.744,22,11,22s0.512-0.098,0.707-0.293l10-10c0.391-0.391,0.391-1.023,0-1.414s-1.023-0.391-1.414,0l-10,10
	C9.902,20.684,9.902,21.316,10.293,21.707z"/>
</svg>
