<?xml version="1.0" encoding="iso-8859-1"?>
<!-- Generator: Adobe Illustrator 22.0.1, SVG Export Plug-In . SVG Version: 6.00 Build 0)  -->
<svg version="1.1" id="Layer_1" xmlns="http://www.w3.org/2000/svg" xmlns:xlink="http://www.w3.org/1999/xlink" x="0px" y="0px"
	 viewBox="0 0 28 32" style="enable-background:new 0 0 28 32;" xml:space="preserve">
<path d="M23,12H7V9c0-3.86,3.14-7,7-7c2.48,0,4.799,1.333,6.051,3.478c0.278,0.477,0.891,0.639,1.368,0.36
	c0.477-0.278,0.638-0.891,0.36-1.368C20.17,1.713,17.189,0,14,0C9.038,0,5,4.038,5,9v3c-2.757,0-5,2.243-5,5v10c0,2.757,2.243,5,5,5
	h18c2.757,0,5-2.243,5-5V17C28,14.243,25.757,12,23,12z M26,27c0,1.654-1.346,3-3,3H5c-1.654,0-3-1.346-3-3V17c0-1.654,1.346-3,3-3
	h18c1.654,0,3,1.346,3,3V27z M16,20c0,0.738-0.405,1.376-1,1.723V25c0,0.552-0.448,1-1,1s-1-0.448-1-1v-3.277
	c-0.595-0.346-1-0.984-1-1.723c0-1.105,0.895-2,2-2S16,18.895,16,20z"/>
</svg>
