<?xml version="1.0" encoding="iso-8859-1"?>
<!-- Generator: Adobe Illustrator 22.0.1, SVG Export Plug-In . SVG Version: 6.00 Build 0)  -->
<svg version="1.1" id="Layer_1" xmlns="http://www.w3.org/2000/svg" xmlns:xlink="http://www.w3.org/1999/xlink" x="0px" y="0px"
	 viewBox="0 0 30 32" style="enable-background:new 0 0 30 32;" xml:space="preserve">
<path d="M29,2.951c-7.653,0-13.501-2.82-13.56-2.849c-0.277-0.135-0.603-0.137-0.882,0C14.501,0.131,8.679,2.951,1,2.951
	c-0.552,0-1,0.448-1,1c0,23.09,14.098,27.813,14.699,28.003C14.797,31.984,14.898,32,15,32s0.203-0.016,0.301-0.046
	C15.902,31.764,30,27.041,30,3.951C30,3.398,29.552,2.951,29,2.951z M15,29.937C13,29.156,2.363,24.1,2.009,4.936
	C8.514,4.744,13.519,2.755,15,2.101c1.481,0.655,6.486,2.643,12.991,2.835C27.637,24.1,17,29.156,15,29.937z M22.994,9.03
	l0.01-0.117c0.047-0.55,0.528-0.961,1.083-0.91c0.55,0.048,0.958,0.533,0.91,1.083l-0.007,0.086
	c-0.038,0.526-0.477,0.929-0.997,0.929c-0.024,0-0.048-0.001-0.072-0.002C23.37,10.06,22.955,9.581,22.994,9.03z M22.343,12.989
	c0.128-0.536,0.679-0.917,1.215-0.79c0.537,0.127,0.881,0.615,0.755,1.152c-0.001,0.002-0.015,0.062-0.016,0.064
	c-0.112,0.46-0.53,0.784-0.985,0.784c-0.075,0-0.15-0.009-0.226-0.027C22.551,14.043,22.215,13.526,22.343,12.989z M19.412,21.667
	c-0.459-0.306-0.583-0.927-0.277-1.387l0.059-0.088c0.309-0.458,0.929-0.579,1.388-0.272c0.458,0.309,0.58,0.93,0.272,1.388
	l-0.055,0.081c-0.193,0.289-0.51,0.445-0.833,0.445C19.775,21.835,19.583,21.781,19.412,21.667z M21.059,16.782l0.043-0.1
	c0.221-0.506,0.811-0.737,1.317-0.515c0.506,0.221,0.737,0.811,0.515,1.317l-0.038,0.086c-0.162,0.379-0.531,0.606-0.919,0.606
	c-0.131,0-0.265-0.026-0.394-0.082C21.077,17.877,20.841,17.29,21.059,16.782z M16.606,24.768c-0.391-0.391-0.391-1.023,0-1.414
	c0.386-0.395,1.052-0.434,1.446-0.047c0.395,0.387,0.433,0.987,0.047,1.381l-0.079,0.08c-0.195,0.195-0.451,0.293-0.707,0.293
	S16.802,24.963,16.606,24.768z"/>
</svg>
