<?xml version="1.0" encoding="iso-8859-1"?>
<!-- Generator: Adobe Illustrator 22.0.1, SVG Export Plug-In . SVG Version: 6.00 Build 0)  -->
<svg version="1.1" id="Layer_1" xmlns="http://www.w3.org/2000/svg" xmlns:xlink="http://www.w3.org/1999/xlink" x="0px" y="0px"
	 viewBox="0 0 35 33" style="enable-background:new 0 0 35 33;" xml:space="preserve">
<path d="M32.108,16.099c0.564-0.125,1.135-0.131,1.693-0.019L35,16.324V11c0-2.206-1.794-4-4-4h-4.084C26.972,6.67,27,6.337,27,6
	c0-3.309-2.691-6-6-6s-6,2.691-6,6c0,0.337,0.028,0.67,0.084,1H11c-2.206,0-4,1.794-4,4v3.084C6.67,14.028,6.337,14,6,14
	c-3.309,0-6,2.691-6,6s2.691,6,6,6c0.337,0,0.67-0.028,1-0.084V29c0,2.206,1.794,4,4,4h5.324l-0.243-1.199
	c-0.113-0.559-0.107-1.128,0.019-1.693c0.342-1.535,1.601-2.756,3.132-3.038c1.214-0.223,2.396,0.08,3.327,0.854
	C23.474,28.688,24,29.809,24,31c0,0.267-0.027,0.537-0.081,0.802L23.677,33H31c2.206,0,4-1.794,4-4v-5.323l-1.198,0.243
	c-1.446,0.29-2.943-0.24-3.877-1.362c-0.774-0.93-1.077-2.111-0.854-3.327C29.353,17.7,30.573,16.441,32.108,16.099z M28.388,23.837
	C29.532,25.212,31.213,26,33,26v3c0,1.103-0.897,2-2,2h-5c0-1.787-0.788-3.468-2.163-4.612c-1.374-1.145-3.185-1.613-4.969-1.284
	c-2.31,0.425-4.207,2.261-4.722,4.569C14.049,30.114,14,30.558,14,31h-3c-1.103,0-2-0.897-2-2v-5.95l-1.4,0.612
	C7.086,23.886,6.548,24,6,24c-2.206,0-4-1.794-4-4s1.794-4,4-4c0.548,0,1.086,0.114,1.6,0.338L9,16.95V11c0-1.103,0.897-2,2-2h6.95
	l-0.612-1.4C17.114,7.086,17,6.548,17,6c0-2.206,1.794-4,4-4s4,1.794,4,4c0,0.548-0.114,1.086-0.338,1.6L24.05,9H31
	c1.103,0,2,0.897,2,2v3c-0.442,0-0.886,0.049-1.327,0.147h0c-2.308,0.515-4.144,2.412-4.569,4.722
	C26.776,20.653,27.244,22.464,28.388,23.837z"/>
</svg>
