<?xml version="1.0" encoding="iso-8859-1"?>
<!-- Generator: Adobe Illustrator 22.0.1, SVG Export Plug-In . SVG Version: 6.00 Build 0)  -->
<svg version="1.1" id="Layer_1" xmlns="http://www.w3.org/2000/svg" xmlns:xlink="http://www.w3.org/1999/xlink" x="0px" y="0px"
	 viewBox="0 0 34 34" style="enable-background:new 0 0 34 34;" xml:space="preserve">
<path d="M33.433,29.204l-6.636-6.636c-0.734-0.732-2.011-0.732-2.741,0l-0.037,0.037l-2.864-2.864C22.926,17.649,24,14.949,24,12
	c0-6.617-5.383-12-12-12S0,5.383,0,12s5.383,12,12,12c2.949,0,5.649-1.074,7.741-2.845l2.864,2.864l-0.037,0.037
	c-0.756,0.755-0.756,1.985,0,2.741l6.636,6.636C29.57,33.799,30.057,34,30.574,34s1.005-0.202,1.37-0.568l1.488-1.488
	C34.188,31.189,34.188,29.959,33.433,29.204z M12,22C6.486,22,2,17.514,2,12S6.486,2,12,2s10,4.486,10,10S17.514,22,12,22z
	 M30.617,32.018l-6.593-6.593l1.358-1.443l6.636,6.548L30.617,32.018z"/>
</svg>
