<?xml version="1.0" encoding="iso-8859-1"?>
<!-- Generator: Adobe Illustrator 22.0.1, SVG Export Plug-In . SVG Version: 6.00 Build 0)  -->
<svg version="1.1" id="Layer_1" xmlns="http://www.w3.org/2000/svg" xmlns:xlink="http://www.w3.org/1999/xlink" x="0px" y="0px"
	 viewBox="0 0 35 35" style="enable-background:new 0 0 35 35;" xml:space="preserve">
<path d="M34.365,7.261l-0.517-1.523l-7.178,7.176L22.85,12.15l-0.764-3.822l7.177-7.176l-1.523-0.517
	c-4.44-1.51-9.685-0.266-13.044,3.094c-2.863,2.863-3.403,6.432-1.705,10.092L1.696,25.115C0.603,26.208,0,27.663,0,29.209
	s0.603,3.001,1.696,4.094C2.79,34.397,4.244,35,5.791,35s3.001-0.603,4.094-1.696l11.288-11.287c0.839,0.394,1.674,0.68,2.495,0.835
	c0.522,0.099,1.04,0.147,1.55,0.147c2.206,0,4.275-0.915,6.054-2.694C34.629,16.946,35.872,11.705,34.365,7.261z M8.471,31.89
	c-1.432,1.432-3.929,1.432-5.36,0C2.395,31.174,2,30.222,2,29.209s0.395-1.964,1.11-2.68l10.894-10.894
	c0.651,0.982,1.461,1.963,2.429,2.931c0.96,0.96,1.945,1.767,2.935,2.426L8.471,31.89z M29.856,18.891
	c-4.465,4.465-9.44,0.829-12.009-1.738c-2.566-2.567-6.206-7.541-1.738-12.009c2.032-2.031,4.878-3.146,7.704-3.146
	c0.552,0,1.103,0.042,1.646,0.129l-5.546,5.545l1.236,6.178l6.179,1.236l5.545-5.545C33.402,12.872,32.284,16.462,29.856,18.891z"/>
</svg>
