<?xml version="1.0" encoding="iso-8859-1"?>
<!-- Generator: Adobe Illustrator 22.0.1, SVG Export Plug-In . SVG Version: 6.00 Build 0)  -->
<svg version="1.1" id="Layer_1" xmlns="http://www.w3.org/2000/svg" xmlns:xlink="http://www.w3.org/1999/xlink" x="0px" y="0px"
	 viewBox="0 0 32 34" style="enable-background:new 0 0 32 34;" xml:space="preserve">
<path d="M30,17c0-1.111-0.139-2.231-0.412-3.338l2.374-3.017l-2.479-4.29l-3.798,0.547c-1.63-1.562-3.61-2.704-5.781-3.333L18.477,0
	h-4.953l-1.428,3.568C9.925,4.198,7.944,5.34,6.314,6.902L2.517,6.355l-2.479,4.29l2.374,3.017C2.139,14.769,2,15.889,2,17
	s0.139,2.231,0.412,3.338l-2.374,3.017l2.479,4.29l3.798-0.547c1.63,1.562,3.61,2.704,5.781,3.333L13.523,34h4.953l1.428-3.568
	c2.171-0.629,4.151-1.771,5.781-3.333l3.798,0.547l2.479-4.29l-2.374-3.017C29.861,19.231,30,18.111,30,17z M27.531,13.71
	C27.843,14.8,28,15.907,28,17s-0.157,2.2-0.469,3.29l-0.14,0.491l2.16,2.746l-1.123,1.945l-3.458-0.498l-0.355,0.367
	c-1.555,1.605-3.524,2.742-5.697,3.285l-0.495,0.124l-1.3,3.25h-2.246l-1.3-3.25l-0.495-0.124c-2.173-0.543-4.143-1.68-5.697-3.285
	l-0.355-0.367l-3.458,0.498l-1.123-1.945l2.16-2.746l-0.14-0.491C4.157,19.2,4,18.093,4,17s0.157-2.2,0.469-3.29l0.14-0.491
	l-2.16-2.746l1.123-1.945l3.458,0.498l0.355-0.367c1.555-1.605,3.524-2.742,5.697-3.285l0.495-0.124l1.3-3.25h2.246l1.3,3.25
	l0.495,0.124c2.173,0.543,4.143,1.68,5.697,3.285l0.355,0.367l3.458-0.498l1.123,1.945l-2.16,2.746L27.531,13.71z M16,9
	c-4.411,0-8,3.589-8,8s3.589,8,8,8s8-3.589,8-8S20.411,9,16,9z M16,23c-3.309,0-6-2.691-6-6s2.691-6,6-6s6,2.691,6,6
	S19.309,23,16,23z"/>
</svg>
