<?xml version="1.0" encoding="iso-8859-1"?>
<!-- Generator: Adobe Illustrator 22.0.1, SVG Export Plug-In . SVG Version: 6.00 Build 0)  -->
<svg version="1.1" id="Layer_1" xmlns="http://www.w3.org/2000/svg" xmlns:xlink="http://www.w3.org/1999/xlink" x="0px" y="0px"
	 viewBox="0 0 38 25" style="enable-background:new 0 0 38 25;" xml:space="preserve">
<path d="M31.973,9.254C31.59,4.087,27.264,0,22,0c-3.199,0-6.157,1.509-8.042,4.069c-3.635-0.519-6.84,1.78-7.718,5.133
	C2.637,10.013,0,13.246,0,17c0,4.411,3.589,8,8,8h22c4.411,0,8-3.589,8-8C38,13.335,35.462,10.144,31.973,9.254z M30,23H8
	c-3.309,0-6-2.691-6-6c0-2.996,2.24-5.55,5.211-5.941l0.741-0.098l0.116-0.739C8.45,7.775,10.524,6,13,6
	c0.385,0,0.77,0.048,1.178,0.146l0.694,0.167l0.383-0.602C16.736,3.387,19.258,2,22,2c4.411,0,8,3.589,8.001,7.965l-0.005,0.981
	l0.858,0.123C33.788,11.488,36,14.038,36,17C36,20.309,33.309,23,30,23z"/>
</svg>
