<?xml version="1.0" encoding="iso-8859-1"?>
<!-- Generator: Adobe Illustrator 22.0.1, SVG Export Plug-In . SVG Version: 6.00 Build 0)  -->
<svg version="1.1" id="Layer_1" xmlns="http://www.w3.org/2000/svg" xmlns:xlink="http://www.w3.org/1999/xlink" x="0px" y="0px"
	 viewBox="0 0 32 32" style="enable-background:new 0 0 32 32;" xml:space="preserve">
<g>
	<path d="M17.632,15.125l-0.937-0.199v-3.831c1.135,0.151,1.93,0.927,1.958,1.901h2.261c-0.047-2.129-1.693-3.643-4.219-3.869V7.821
		H15.39v1.306c-2.668,0.227-4.276,1.693-4.276,3.926c0,1.892,1.183,3.179,3.368,3.718l0.908,0.218v4.03
		c-1.315-0.142-2.176-0.898-2.261-1.958H10.82c0.009,2.232,1.75,3.727,4.569,3.897v1.221h1.306v-1.23
		c2.848-0.236,4.484-1.703,4.484-4.049C21.18,16.903,20.035,15.683,17.632,15.125z M15.39,14.651
		c-1.268-0.265-1.939-0.889-1.939-1.797c0-0.966,0.814-1.703,1.939-1.77V14.651z M16.695,21.037v-3.803
		c1.495,0.293,2.176,0.898,2.176,1.911C18.871,20.262,18.077,20.952,16.695,21.037z"/>
	<path d="M16,0C7.178,0,0,7.178,0,16s7.178,16,16,16s16-7.178,16-16S24.822,0,16,0z M16,30C8.28,30,2,23.72,2,16S8.28,2,16,2
		s14,6.28,14,14S23.72,30,16,30z"/>
</g>
</svg>
