<?xml version="1.0" encoding="iso-8859-1"?>
<!-- Generator: Adobe Illustrator 22.0.1, SVG Export Plug-In . SVG Version: 6.00 Build 0)  -->
<svg version="1.1" id="Layer_1" xmlns="http://www.w3.org/2000/svg" xmlns:xlink="http://www.w3.org/1999/xlink" x="0px" y="0px"
	 viewBox="0 0 28 32" style="enable-background:new 0 0 28 32;" xml:space="preserve">
<path d="M27,23c-0.637,0-1.177-0.477-1.256-1.108l-1.423-11.388c-0.138-1.1-0.71-2.068-1.594-2.717
	C21.802,4.154,18.688,1.479,15,1.063V1c0-0.552-0.448-1-1-1s-1,0.448-1,1v0.063C9.312,1.479,6.198,4.154,5.273,7.787
	C4.39,8.436,3.817,9.404,3.679,10.504L2.256,21.892C2.177,22.523,1.637,23,1,23c-0.552,0-1,0.448-1,1v3c0,0.552,0.448,1,1,1h9
	c0,2.206,1.794,4,4,4s4-1.794,4-4h9c0.552,0,1-0.448,1-1v-3C28,23.448,27.552,23,27,23z M14,30c-1.103,0-2-0.897-2-2h4
	C16,29.103,15.103,30,14,30z M26,26H2v-1.157c1.18-0.381,2.08-1.417,2.24-2.703l1.423-11.388c0.078-0.625,0.44-1.165,0.993-1.482
	C6.905,9.127,7.08,8.884,7.137,8.603C7.802,5.356,10.688,3,14,3s6.198,2.356,6.863,5.603c0.057,0.281,0.232,0.524,0.481,0.667
	c0.553,0.317,0.915,0.857,0.993,1.482L23.76,22.14c0.161,1.286,1.061,2.322,2.24,2.703V26z M15,8c0,0.552-0.448,1-1,1s-1-0.448-1-1
	c0-0.552,0.448-1,1-1S15,7.448,15,8z M19,8c0,0.552-0.448,1-1,1s-1-0.448-1-1c0-0.552,0.448-1,1-1S19,7.448,19,8z M11,8
	c0,0.552-0.448,1-1,1S9,8.552,9,8c0-0.552,0.448-1,1-1S11,7.448,11,8z M15,23c0,0.552-0.448,1-1,1s-1-0.448-1-1c0-0.552,0.448-1,1-1
	S15,22.448,15,23z M19,23c0,0.552-0.448,1-1,1s-1-0.448-1-1c0-0.552,0.448-1,1-1S19,22.448,19,23z M23,23c0,0.552-0.448,1-1,1
	s-1-0.448-1-1c0-0.552,0.448-1,1-1S23,22.448,23,23z M7,23c0,0.552-0.448,1-1,1s-1-0.448-1-1c0-0.552,0.448-1,1-1S7,22.448,7,23z
	 M11,23c0,0.552-0.448,1-1,1s-1-0.448-1-1c0-0.552,0.448-1,1-1S11,22.448,11,23z"/>
</svg>
