<?xml version="1.0" encoding="iso-8859-1"?>
<!-- Generator: Adobe Illustrator 22.0.1, SVG Export Plug-In . SVG Version: 6.00 Build 0)  -->
<svg version="1.1" id="Layer_1" xmlns="http://www.w3.org/2000/svg" xmlns:xlink="http://www.w3.org/1999/xlink" x="0px" y="0px"
	 viewBox="0 0 32 30" style="enable-background:new 0 0 32 30;" xml:space="preserve">
<path d="M17,14c0,0.552-0.448,1-1,1s-1-0.448-1-1c0-0.552,0.448-1,1-1S17,13.448,17,14z M20,13c-0.552,0-1,0.448-1,1
	c0,0.552,0.448,1,1,1s1-0.448,1-1C21,13.448,20.552,13,20,13z M24,13c-0.552,0-1,0.448-1,1c0,0.552,0.448,1,1,1s1-0.448,1-1
	C25,13.448,24.552,13,24,13z M12,13c-0.552,0-1,0.448-1,1c0,0.552,0.448,1,1,1s1-0.448,1-1C13,13.448,12.552,13,12,13z M16,17
	c-0.552,0-1,0.448-1,1c0,0.552,0.448,1,1,1s1-0.448,1-1C17,17.448,16.552,17,16,17z M20,17c-0.552,0-1,0.448-1,1
	c0,0.552,0.448,1,1,1s1-0.448,1-1C21,17.448,20.552,17,20,17z M24,17c-0.552,0-1,0.448-1,1c0,0.552,0.448,1,1,1s1-0.448,1-1
	C25,17.448,24.552,17,24,17z M12,17c-0.552,0-1,0.448-1,1c0,0.552,0.448,1,1,1s1-0.448,1-1C13,17.448,12.552,17,12,17z M8,17
	c-0.552,0-1,0.448-1,1c0,0.552,0.448,1,1,1s1-0.448,1-1C9,17.448,8.552,17,8,17z M16,21c-0.552,0-1,0.448-1,1c0,0.552,0.448,1,1,1
	s1-0.448,1-1C17,21.448,16.552,21,16,21z M20,21c-0.552,0-1,0.448-1,1c0,0.552,0.448,1,1,1s1-0.448,1-1C21,21.448,20.552,21,20,21z
	 M12,21c-0.552,0-1,0.448-1,1c0,0.552,0.448,1,1,1s1-0.448,1-1C13,21.448,12.552,21,12,21z M8,21c-0.552,0-1,0.448-1,1
	c0,0.552,0.448,1,1,1s1-0.448,1-1C9,21.448,8.552,21,8,21z M32,5v20c0,2.757-2.243,5-5,5H5c-2.757,0-5-2.243-5-5V5
	c0-2.757,2.243-5,5-5h22C29.757,0,32,2.243,32,5z M2,5v2h28V5c0-1.654-1.346-3-3-3H5C3.346,2,2,3.346,2,5z M30,25V9H2v16
	c0,1.654,1.346,3,3,3h22C28.654,28,30,26.654,30,25z"/>
</svg>
