<?xml version="1.0" encoding="iso-8859-1"?>
<!-- Generator: Adobe Illustrator 22.0.1, SVG Export Plug-In . SVG Version: 6.00 Build 0)  -->
<svg version="1.1" id="Layer_1" xmlns="http://www.w3.org/2000/svg" xmlns:xlink="http://www.w3.org/1999/xlink" x="0px" y="0px"
	 viewBox="0 0 30 30" style="enable-background:new 0 0 30 30;" xml:space="preserve">
<path d="M21.78,9.227l1.398,1.43L12.255,21.342l-5.044-5.144l1.428-1.4l3.646,3.718L21.78,9.227z M30,5v20c0,2.757-2.243,5-5,5H5
	c-2.757,0-5-2.243-5-5V5c0-2.757,2.243-5,5-5h20C27.757,0,30,2.243,30,5z M28,5c0-1.654-1.346-3-3-3H5C3.346,2,2,3.346,2,5v20
	c0,1.654,1.346,3,3,3h20c1.654,0,3-1.346,3-3V5z"/>
</svg>
