<?xml version="1.0" encoding="iso-8859-1"?>
<!-- Generator: Adobe Illustrator 22.0.1, SVG Export Plug-In . SVG Version: 6.00 Build 0)  -->
<svg version="1.1" id="Layer_1" xmlns="http://www.w3.org/2000/svg" xmlns:xlink="http://www.w3.org/1999/xlink" x="0px" y="0px"
	 viewBox="0 0 32 32" style="enable-background:new 0 0 32 32;" xml:space="preserve">
<path d="M16,0C7.178,0,0,7.178,0,16s7.178,16,16,16s16-7.178,16-16S24.822,0,16,0z M16,30C8.28,30,2,23.72,2,16S8.28,2,16,2
	s14,6.28,14,14S23.72,30,16,30z M17,6v10.468l-6.36,5.3C10.453,21.924,10.226,22,10,22c-0.287,0-0.571-0.123-0.769-0.36
	c-0.354-0.424-0.296-1.055,0.128-1.408l5.64-4.7V6c0-0.552,0.448-1,1-1S17,5.448,17,6z"/>
</svg>
