<?xml version="1.0" encoding="iso-8859-1"?>
<!-- Generator: Adobe Illustrator 22.0.1, SVG Export Plug-In . SVG Version: 6.00 Build 0)  -->
<svg version="1.1" id="Layer_1" xmlns="http://www.w3.org/2000/svg" xmlns:xlink="http://www.w3.org/1999/xlink" x="0px" y="0px"
	 viewBox="0 0 38 24.043" style="enable-background:new 0 0 38 24.043;" xml:space="preserve">
<path d="M18,5.022c0-0.552,0.448-1,1-1s1,0.448,1,1c0,0.552-0.448,1-1,1S18,5.574,18,5.022z M19,18.022c-0.552,0-1,0.448-1,1
	c0,0.552,0.448,1,1,1s1-0.448,1-1C20,18.469,19.552,18.022,19,18.022z M26,11.022c-0.552,0-1,0.448-1,1c0,0.552,0.448,1,1,1
	s1-0.448,1-1C27,11.469,26.552,11.022,26,11.022z M13,12.022c0-0.552-0.448-1-1-1s-1,0.448-1,1c0,0.552,0.448,1,1,1
	S13,12.574,13,12.022z M16,6.825c0.478-0.276,0.642-0.888,0.366-1.366S15.478,4.817,15,5.093s-0.642,0.888-0.366,1.366
	S15.522,7.102,16,6.825z M22,17.218c-0.478,0.276-0.642,0.888-0.366,1.366c0.276,0.478,0.888,0.642,1.366,0.366
	c0.478-0.276,0.642-0.888,0.366-1.366C23.09,17.105,22.478,16.942,22,17.218z M25.562,9.388c0.478-0.276,0.642-0.888,0.366-1.366
	c-0.276-0.478-0.888-0.642-1.366-0.366c-0.478,0.276-0.642,0.888-0.366,1.366C24.472,9.5,25.084,9.664,25.562,9.388z M12.438,14.656
	c-0.478,0.276-0.642,0.888-0.366,1.366c0.276,0.478,0.888,0.642,1.366,0.366c0.478-0.276,0.642-0.888,0.366-1.366
	C13.528,14.543,12.916,14.379,12.438,14.656z M13.438,7.656c-0.478-0.276-1.09-0.112-1.366,0.366
	c-0.276,0.478-0.112,1.09,0.366,1.366c0.478,0.276,1.09,0.112,1.366-0.366C14.08,8.543,13.916,7.932,13.438,7.656z M25.562,14.656
	c-0.478-0.276-1.09-0.112-1.366,0.366c-0.276,0.478-0.112,1.09,0.366,1.366c0.478,0.276,1.09,0.112,1.366-0.366
	C26.204,15.543,26.04,14.932,25.562,14.656z M23,5.093c-0.478-0.276-1.09-0.112-1.366,0.366S21.522,6.549,22,6.825
	s1.09,0.112,1.366-0.366S23.478,5.369,23,5.093z M16,17.218c-0.478-0.276-1.09-0.112-1.366,0.366
	c-0.276,0.478-0.112,1.09,0.366,1.366c0.478,0.276,1.09,0.112,1.366-0.366C16.642,18.105,16.478,17.494,16,17.218z M38.139,12.022
	l-0.261,0.479C37.621,12.971,31.45,24.022,19,24.022S0.379,12.971,0.122,12.501l-0.261-0.479l0.261-0.479
	C0.379,11.072,6.55,0.022,19,0.022s18.621,11.051,18.878,11.521L38.139,12.022z M35.833,12.023C34.528,9.969,28.841,2.022,19,2.022
	c-9.867,0-15.532,7.944-16.833,9.999C3.472,14.074,9.159,22.022,19,22.022C28.867,22.022,34.532,14.078,35.833,12.023z
	 M21.699,10.734c-0.18,0.177-0.426,0.288-0.699,0.288c-0.552,0-1-0.448-1-1c0-0.273,0.111-0.519,0.288-0.699
	C19.896,9.135,19.463,9.022,19,9.022c-1.657,0-3,1.343-3,3s1.343,3,3,3s3-1.343,3-3C22,11.559,21.886,11.125,21.699,10.734z"/>
</svg>
