<?xml version="1.0" encoding="iso-8859-1"?>
<!-- Generator: Adobe Illustrator 22.0.1, SVG Export Plug-In . SVG Version: 6.00 Build 0)  -->
<svg version="1.1" id="Layer_1" xmlns="http://www.w3.org/2000/svg" xmlns:xlink="http://www.w3.org/1999/xlink" x="0px" y="0px"
	 viewBox="0 0 37.996 17.086" style="enable-background:new 0 0 37.996 17.086;" xml:space="preserve">
<path d="M33.992,6.489l1.927,2.316c0.354,0.425,0.296,1.055-0.129,1.408c-0.187,0.156-0.414,0.231-0.639,0.231
	c-0.287,0-0.572-0.123-0.77-0.36l-1.855-2.229c-0.815,0.703-1.725,1.393-2.731,2.032l1.351,2.514
	c0.262,0.487,0.079,1.093-0.407,1.354c-0.15,0.081-0.312,0.119-0.473,0.119c-0.356,0-0.701-0.191-0.882-0.526l-1.325-2.466
	c-0.988,0.505-2.054,0.947-3.195,1.303l0.573,2.867c0.108,0.542-0.243,1.068-0.784,1.177c-0.066,0.013-0.133,0.02-0.197,0.02
	c-0.467,0-0.885-0.329-0.979-0.804l-0.553-2.763c-0.955,0.194-1.955,0.325-3.004,0.376v3.028c0,0.552-0.447,1-1,1s-1-0.448-1-1
	v-3.028c-1.049-0.051-2.048-0.182-3.003-0.376l-0.553,2.763c-0.095,0.475-0.513,0.804-0.979,0.804c-0.065,0-0.131-0.006-0.197-0.02
	c-0.541-0.108-0.893-0.635-0.784-1.177l0.573-2.867c-1.141-0.355-2.208-0.797-3.196-1.303l-1.326,2.466
	c-0.181,0.336-0.525,0.526-0.882,0.526c-0.16,0-0.322-0.038-0.473-0.119c-0.486-0.262-0.669-0.868-0.407-1.354l1.352-2.513
	C7.04,9.248,6.129,8.558,5.315,7.855L3.46,10.084c-0.197,0.238-0.482,0.36-0.77,0.36c-0.225,0-0.452-0.076-0.639-0.231
	C1.627,9.86,1.569,9.229,1.923,8.805L3.85,6.489C1.415,4.027,0.156,1.771,0.043,1.564C-0.222,1.08-0.043,0.474,0.441,0.208
	c0.484-0.264,1.092-0.086,1.356,0.397c0.058,0.105,5.879,10.48,17.123,10.48c11.276,0,17.065-10.374,17.122-10.479
	c0.265-0.485,0.873-0.664,1.356-0.399c0.485,0.265,0.664,0.872,0.399,1.357C37.686,1.771,36.426,4.027,33.992,6.489z"/>
</svg>
