<?xml version="1.0" encoding="iso-8859-1"?>
<!-- Generator: Adobe Illustrator 22.0.1, SVG Export Plug-In . SVG Version: 6.00 Build 0)  -->
<svg version="1.1" id="Layer_1" xmlns="http://www.w3.org/2000/svg" xmlns:xlink="http://www.w3.org/1999/xlink" x="0px" y="0px"
	 viewBox="0 0 32 32" style="enable-background:new 0 0 32 32;" xml:space="preserve">
<path d="M16,0C7.178,0,0,7.178,0,16s7.178,16,16,16s16-7.178,16-16S24.822,0,16,0z M16,30C8.28,30,2,23.72,2,16S8.28,2,16,2
	s14,6.28,14,14S23.72,30,16,30z M17.401,21.679c0,0.938-0.625,1.553-1.621,1.553c-0.977,0-1.621-0.615-1.621-1.553
	c0-0.947,0.645-1.562,1.621-1.562C16.776,20.116,17.401,20.731,17.401,21.679z M20.517,12.47c0,1.494-0.742,2.539-2.07,3.33
	c-1.279,0.752-1.641,1.25-1.641,2.217v0.557H14.54l-0.01-0.664c-0.088-1.465,0.479-2.344,1.826-3.135
	c1.211-0.732,1.621-1.25,1.621-2.217c0-1.016-0.82-1.748-2.051-1.748c-1.26,0-2.07,0.762-2.148,1.953h-2.295
	c0.078-2.314,1.67-3.994,4.57-3.994C18.729,8.769,20.517,10.312,20.517,12.47z"/>
</svg>
