<?xml version="1.0" encoding="iso-8859-1"?>
<!-- Generator: Adobe Illustrator 22.0.1, SVG Export Plug-In . SVG Version: 6.00 Build 0)  -->
<svg version="1.1" id="Layer_1" xmlns="http://www.w3.org/2000/svg" xmlns:xlink="http://www.w3.org/1999/xlink" x="0px" y="0px"
	 viewBox="0 0 32 32" style="enable-background:new 0 0 32 32;" xml:space="preserve">
<path d="M16,0C7.178,0,0,7.178,0,16s7.178,16,16,16s16-7.178,16-16S24.822,0,16,0z M16,30C8.28,30,2,23.72,2,16S8.28,2,16,2
	s14,6.28,14,14S23.72,30,16,30z M14.754,18l-0.242-9h2.975l-0.251,9H14.754z M17.758,21.505c0,1.014-0.666,1.642-1.758,1.642
	c-1.082,0-1.758-0.627-1.758-1.642c0-1.024,0.676-1.652,1.758-1.652C17.092,19.853,17.758,20.481,17.758,21.505z"/>
</svg>
