<?xml version="1.0" encoding="iso-8859-1"?>
<!-- Generator: Adobe Illustrator 22.0.1, SVG Export Plug-In . SVG Version: 6.00 Build 0)  -->
<svg version="1.1" id="Layer_1" xmlns="http://www.w3.org/2000/svg" xmlns:xlink="http://www.w3.org/1999/xlink" x="0px" y="0px"
	 viewBox="0 0 24 35" style="enable-background:new 0 0 24 35;" xml:space="preserve">
<path d="M9,26c0,0.552-0.448,1-1,1s-1-0.448-1-1c0-0.552,0.448-1,1-1S9,25.448,9,26z M12,25c-0.552,0-1,0.448-1,1
	c0,0.552,0.448,1,1,1s1-0.448,1-1C13,25.448,12.552,25,12,25z M12,17c0.552,0,1-0.448,1-1c0-0.552-0.448-1-1-1s-1,0.448-1,1
	C11,16.552,11.448,17,12,17z M16,25c-0.552,0-1,0.448-1,1c0,0.552,0.448,1,1,1s1-0.448,1-1C17,25.448,16.552,25,16,25z M10,22
	c-0.552,0-1,0.448-1,1c0,0.552,0.448,1,1,1s1-0.448,1-1C11,22.448,10.552,22,10,22z M14,22c-0.552,0-1,0.448-1,1
	c0,0.552,0.448,1,1,1s1-0.448,1-1C15,22.448,14.552,22,14,22z M11,13c0-0.552-0.448-1-1-1s-1,0.448-1,1c0,0.552,0.448,1,1,1
	S11,13.552,11,13z M14,14c0.552,0,1-0.448,1-1c0-0.552-0.448-1-1-1s-1,0.448-1,1C13,13.552,13.448,14,14,14z M24,34
	c0,0.552-0.447,1-1,1H1c-0.553,0-1-0.448-1-1s0.447-1,1-1h1v-2v-2v-3c0-3.502,1.843-6.704,4.747-8.5C3.843,15.704,2,12.502,2,9V6V4
	V2H1C0.447,2,0,1.552,0,1s0.447-1,1-1h22c0.553,0,1,0.448,1,1s-0.447,1-1,1h-1v2v2v3c0,3.502-1.843,6.704-4.747,8.5
	C20.157,19.296,22,22.498,22,26v3v2v2h1C23.553,33,24,33.448,24,34z M4,4h16V2H4V4z M4,29h16v-3c0-3.377-2.144-6.405-5.334-7.534
	L14,18.229v-1.413l0.666-0.282C17.856,15.405,20,12.377,20,9V6H4v3c0,3.377,2.144,6.405,5.334,7.534L10,16.771v1.413l-0.666,0.282
	C6.144,19.595,4,22.623,4,26V29z M4,33h16v-2H4V33z"/>
</svg>
