<?xml version="1.0" encoding="iso-8859-1"?>
<!-- Generator: Adobe Illustrator 22.0.1, SVG Export Plug-In . SVG Version: 6.00 Build 0)  -->
<svg version="1.1" id="Layer_1" xmlns="http://www.w3.org/2000/svg" xmlns:xlink="http://www.w3.org/1999/xlink" x="0px" y="0px"
	 viewBox="0 0 32 32" style="enable-background:new 0 0 32 32;" xml:space="preserve">
<path d="M17,16c0,0.552-0.448,1-1,1s-1-0.448-1-1c0-0.552,0.448-1,1-1S17,15.448,17,16z M23,10c0.552,0,1-0.448,1-1
	c0-0.552-0.448-1-1-1s-1,0.448-1,1C22,9.552,22.448,10,23,10z M31.954,11.414l-0.326,0.373l-1.195,1.195
	c-1.244,1.243-3.379,1.309-4.691,0.163l-4.563,5.637c1.141,1.35,1.076,3.379-0.197,4.651l-0.184,0.184
	c0.576,1.167,0.379,2.621-0.591,3.591C19.599,27.815,18.799,28.12,18,28.12s-1.599-0.304-2.207-0.913L11,22.414l-9.293,9.293
	C1.512,31.902,1.256,32,1,32s-0.512-0.098-0.707-0.293c-0.391-0.391-0.391-1.023,0-1.414L9.586,21l-4.793-4.793
	c-1.217-1.217-1.217-3.197,0-4.414c0.97-0.97,2.424-1.167,3.591-0.591l0.184-0.184c1.271-1.273,3.302-1.337,4.651-0.197l5.637-4.563
	C18.309,5.632,18.011,4.839,18.011,4c0-0.919,0.358-1.783,1.008-2.433l1.488-1.488l0.908-0.033l0.373,0.326L31.92,10.506
	L31.954,11.414z M29.586,11L21,2.414l-0.567,0.567C20.161,3.253,20.011,3.615,20.011,4s0.15,0.747,0.422,1.019l1.402,1.402
	l-7.197,5.825C14.855,12.43,15,12.694,15,13c0,0.552-0.448,1-1,1c-0.381,0-0.701-0.221-0.87-0.534l-0.044,0.035l-1.068-1.069
	c-0.544-0.544-1.493-0.544-2.037,0L8.5,13.914l-0.707-0.707C7.574,12.988,7.287,12.879,7,12.879s-0.574,0.109-0.793,0.328
	c-0.437,0.438-0.437,1.148,0,1.586l11,11c0.438,0.438,1.148,0.438,1.586,0c0.437-0.438,0.437-1.148,0-1.586L18.086,23.5l1.481-1.481
	c0.272-0.272,0.422-0.634,0.422-1.019s-0.15-0.747-0.422-1.019l-1.069-1.068l0.035-0.044C18.221,18.701,18,18.381,18,18
	c0-0.552,0.448-1,1-1c0.306,0,0.57,0.145,0.754,0.362l5.825-7.197l1.402,1.402c0.544,0.544,1.493,0.544,2.037,0L29.586,11z"/>
</svg>
