<?xml version="1.0" encoding="iso-8859-1"?>
<!-- Generator: Adobe Illustrator 22.0.1, SVG Export Plug-In . SVG Version: 6.00 Build 0)  -->
<svg version="1.1" id="Layer_1" xmlns="http://www.w3.org/2000/svg" xmlns:xlink="http://www.w3.org/1999/xlink" x="0px" y="0px"
	 viewBox="0 0 22 30" style="enable-background:new 0 0 22 30;" xml:space="preserve">
<path d="M20,0h-5c-1.103,0-2,0.897-2,2v26c0,1.103,0.897,2,2,2h5c1.103,0,2-0.897,2-2V2C22,0.897,21.103,0,20,0z M15,28V2h5
	l0.001,26H15z M7,0H2C0.897,0,0,0.897,0,2v26c0,1.103,0.897,2,2,2h5c1.103,0,2-0.897,2-2V2C9,0.897,8.103,0,7,0z M2,28V2h5l0.001,26
	H2z"/>
</svg>
