<?xml version="1.0" encoding="iso-8859-1"?>
<!-- Generator: Adobe Illustrator 22.0.1, SVG Export Plug-In . SVG Version: 6.00 Build 0)  -->
<svg version="1.1" id="Layer_1" xmlns="http://www.w3.org/2000/svg" xmlns:xlink="http://www.w3.org/1999/xlink" x="0px" y="0px"
	 viewBox="0 0 32 30" style="enable-background:new 0 0 32 30;" xml:space="preserve">
<path d="M20.414,15L31.707,3.707c0.286-0.286,0.372-0.716,0.217-1.09C31.77,2.244,31.404,2,31,2h-5.515
	c-1.869,0-3.627,0.728-4.95,2.05L15,9.586l-3.03-3.03C11.99,6.364,12,6.179,12,6c0-3.309-2.691-6-6-6S0,2.691,0,6s2.691,6,6,6
	c0.18,0,0.364-0.01,0.556-0.03L9.586,15l-3.03,3.03C6.364,18.01,6.18,18,6,18c-3.309,0-6,2.691-6,6s2.691,6,6,6s6-2.691,6-6
	c0-0.179-0.01-0.364-0.03-0.556l3.03-3.03l5.535,5.536c1.323,1.322,3.081,2.05,4.95,2.05H31c0.404,0,0.77-0.244,0.924-0.617
	c0.155-0.374,0.069-0.804-0.217-1.09L20.414,15z M7.615,10.201C7.382,9.968,7.05,9.866,6.726,9.925C6.45,9.976,6.219,10,6,10
	c-2.206,0-4-1.794-4-4s1.794-4,4-4s4,1.794,4,4c0,0.219-0.023,0.449-0.075,0.726c-0.06,0.324,0.043,0.656,0.276,0.889L13.586,11
	L11,13.586L7.615,10.201z M10.201,22.385c-0.233,0.233-0.336,0.565-0.276,0.889C9.977,23.551,10,23.781,10,24c0,2.206-1.794,4-4,4
	s-4-1.794-4-4s1.794-4,4-4c0.219,0,0.45,0.024,0.726,0.075c0.324,0.058,0.656-0.043,0.89-0.276L21.949,5.465
	C22.895,4.52,24.15,4,25.485,4h3.101L10.201,22.385z M25.485,26c-1.335,0-2.591-0.52-3.536-1.464L16.414,19L19,16.414L28.586,26
	H25.485z M8,24c0,1.105-0.895,2-2,2s-2-0.895-2-2c0-1.105,0.895-2,2-2S8,22.895,8,24z M16,15c0,0.552-0.448,1-1,1s-1-0.448-1-1
	c0-0.552,0.448-1,1-1S16,14.448,16,15z M8,6c0,1.105-0.895,2-2,2S4,7.105,4,6c0-1.105,0.895-2,2-2S8,4.895,8,6z"/>
</svg>
