<?xml version="1.0" encoding="iso-8859-1"?>
<!-- Generator: Adobe Illustrator 22.0.1, SVG Export Plug-In . SVG Version: 6.00 Build 0)  -->
<svg version="1.1" id="Layer_1" xmlns="http://www.w3.org/2000/svg" xmlns:xlink="http://www.w3.org/1999/xlink" x="0px" y="0px"
	 viewBox="0 0 32 22" style="enable-background:new 0 0 32 22;" xml:space="preserve">
<path d="M18,20c0,1.105-0.895,2-2,2s-2-0.895-2-2c0-1.105,0.895-2,2-2S18,18.895,18,20z M8.8,15.069l1.441,1.388
	C11.767,14.873,13.812,14,16,14s4.233,0.873,5.759,2.457l1.441-1.388C21.294,13.09,18.736,12,16,12S10.706,13.09,8.8,15.069z
	 M4.562,10.821l1.43,1.398C8.652,9.499,12.206,8,16,8s7.348,1.499,10.008,4.22l1.43-1.398C24.398,7.712,20.336,6,16,6
	S7.602,7.712,4.562,10.821z M16,0C10.063,0,4.495,2.335,0.322,6.577l1.426,1.402C5.542,4.124,10.604,2,16,2
	s10.458,2.124,14.252,5.979l1.426-1.402C27.505,2.335,21.937,0,16,0z"/>
</svg>
