<?xml version="1.0" encoding="iso-8859-1"?>
<!-- Generator: Adobe Illustrator 22.0.1, SVG Export Plug-In . SVG Version: 6.00 Build 0)  -->
<svg version="1.1" id="Layer_1" xmlns="http://www.w3.org/2000/svg" xmlns:xlink="http://www.w3.org/1999/xlink" x="0px" y="0px"
	 viewBox="0 0 32 24" style="enable-background:new 0 0 32 24;" xml:space="preserve">
<path d="M1,17h18v6c0,0.404,0.243,0.769,0.617,0.924c0.373,0.155,0.804,0.07,1.09-0.217l11-11c0.391-0.391,0.391-1.023,0-1.414
	l-11-11C20.516,0.101,20.26,0,20,0c-0.129,0-0.259,0.025-0.383,0.076C19.243,0.231,19,0.596,19,1v6H1C0.447,7,0,7.448,0,8v8
	C0,16.552,0.447,17,1,17z M2,9h19V3.414L29.586,12L21,20.586V15H2V9z"/>
</svg>
