<?xml version="1.0" encoding="iso-8859-1"?>
<svg version="1.1" id="Layer_1" xmlns="http://www.w3.org/2000/svg" x="0px" y="0px"
	 viewBox="0 0 32 32" style="enable-background:new 0 0 32 32;" xml:space="preserve">
<path d="M31.706,16.708l-4.999,4.999C26.512,21.902,26.256,22,26,22s-0.512-0.098-0.707-0.293c-0.391-0.391-0.391-1.023,0-1.414
	L28.586,17H17v11.586l3.293-3.293c0.391-0.391,1.023-0.391,1.414,0s0.391,1.023,0,1.414l-4.999,4.999
	c-0.092,0.093-0.203,0.166-0.326,0.217C16.26,31.973,16.13,32,16,32s-0.26-0.027-0.382-0.077c-0.123-0.051-0.233-0.124-0.326-0.217
	l-4.999-4.999c-0.391-0.391-0.391-1.023,0-1.414s1.023-0.391,1.414,0L15,28.586V17H3.414l3.293,3.293
	c0.391,0.391,0.391,1.023,0,1.414C6.512,21.902,6.256,22,6,22s-0.512-0.098-0.707-0.293l-5-5c-0.391-0.391-0.391-1.023,0-1.414l5-5
	c0.391-0.391,1.023-0.391,1.414,0s0.391,1.023,0,1.414L3.414,15H15V3.414l-3.293,3.293c-0.391,0.391-1.023,0.391-1.414,0
	s-0.391-1.023,0-1.414l5-5c0.391-0.391,1.023-0.391,1.414,0l5,5c0.391,0.391,0.391,1.023,0,1.414C21.512,6.902,21.256,7,21,7
	s-0.512-0.098-0.707-0.293L17,3.414V15h11.586l-3.293-3.293c-0.391-0.391-0.391-1.023,0-1.414s1.023-0.391,1.414,0l4.999,4.999
	c0.093,0.092,0.166,0.203,0.217,0.326c0.101,0.244,0.101,0.52,0,0.764C31.872,16.505,31.799,16.615,31.706,16.708z"/>
</svg>
