<?xml version="1.0" encoding="iso-8859-1"?>
<!-- Generator: Adobe Illustrator 22.0.1, SVG Export Plug-In . SVG Version: 6.00 Build 0)  -->
<svg version="1.1" id="Layer_1" xmlns="http://www.w3.org/2000/svg" xmlns:xlink="http://www.w3.org/1999/xlink" x="0px" y="0px"
	 viewBox="0 0 32 28" style="enable-background:new 0 0 32 28;" xml:space="preserve">
<path d="M31.866,26.5l-15-26c-0.357-0.619-1.375-0.619-1.732,0l-15,26c-0.179,0.309-0.178,0.69,0,1C0.312,27.81,0.643,28,1,28h30
	c0.357,0,0.688-0.19,0.866-0.5C32.044,27.191,32.045,26.81,31.866,26.5z M2.731,26L16,3.001L29.269,26H2.731z M17.758,22.505
	c0,1.014-0.666,1.642-1.758,1.642c-1.082,0-1.758-0.627-1.758-1.642c0-1.024,0.676-1.652,1.758-1.652
	C17.092,20.853,17.758,21.481,17.758,22.505z M14.513,10h2.975l-0.251,9h-2.483L14.513,10z"/>
</svg>
