<?xml version="1.0" encoding="iso-8859-1"?>
<!-- Generator: Adobe Illustrator 22.0.1, SVG Export Plug-In . SVG Version: 6.00 Build 0)  -->
<svg version="1.1" id="Layer_1" xmlns="http://www.w3.org/2000/svg" xmlns:xlink="http://www.w3.org/1999/xlink" x="0px" y="0px"
	 viewBox="0 0 32 32" style="enable-background:new 0 0 32 32;" xml:space="preserve">
<path d="M15.538,9.7h2.034v12.6h-2.556v-8.172h-3.168v-1.926c0.444,0.012,0.873-0.021,1.287-0.1s0.786-0.216,1.116-0.414
	c0.33-0.197,0.609-0.459,0.837-0.782C15.316,10.582,15.466,10.18,15.538,9.7z M32,16c0,8.822-7.178,16-16,16S0,24.822,0,16
	S7.178,0,16,0S32,7.178,32,16z M30,16c0-7.72-6.28-14-14-14S2,8.28,2,16s6.28,14,14,14S30,23.72,30,16z"/>
</svg>
