<?xml version="1.0" encoding="iso-8859-1"?>
<!-- Generator: Adobe Illustrator 22.0.1, SVG Export Plug-In . SVG Version: 6.00 Build 0)  -->
<svg version="1.1" id="Layer_1" xmlns="http://www.w3.org/2000/svg" xmlns:xlink="http://www.w3.org/1999/xlink" x="0px" y="0px"
	 viewBox="0 0 32 32" style="enable-background:new 0 0 32 32;" xml:space="preserve">
<path d="M14.668,20.229h5.958v2.196h-9.252c0-0.731,0.105-1.368,0.315-1.908s0.495-1.022,0.855-1.449
	c0.36-0.426,0.783-0.818,1.269-1.179c0.486-0.36,0.999-0.726,1.539-1.098c0.276-0.192,0.57-0.388,0.882-0.585
	c0.312-0.198,0.597-0.417,0.855-0.657c0.258-0.24,0.474-0.51,0.648-0.81c0.174-0.3,0.261-0.643,0.261-1.026
	c0-0.612-0.177-1.089-0.531-1.431c-0.354-0.343-0.808-0.514-1.359-0.514c-0.372,0-0.687,0.088-0.945,0.262
	c-0.258,0.174-0.465,0.401-0.621,0.684s-0.267,0.594-0.333,0.936c-0.066,0.343-0.099,0.682-0.099,1.018h-2.448
	c-0.024-0.72,0.06-1.389,0.252-2.007s0.48-1.158,0.864-1.62c0.384-0.462,0.867-0.822,1.449-1.08s1.251-0.387,2.007-0.387
	c0.576,0,1.125,0.09,1.647,0.27c0.522,0.18,0.981,0.438,1.377,0.774s0.711,0.75,0.945,1.241c0.234,0.492,0.351,1.044,0.351,1.656
	c0,0.637-0.102,1.183-0.306,1.638c-0.204,0.457-0.474,0.861-0.81,1.216c-0.336,0.354-0.717,0.675-1.143,0.963
	s-0.855,0.573-1.287,0.854c-0.432,0.282-0.853,0.585-1.26,0.909C15.34,19.42,14.98,19.798,14.668,20.229z M32,16
	c0,8.822-7.178,16-16,16S0,24.822,0,16S7.178,0,16,0S32,7.178,32,16z M30,16c0-7.72-6.28-14-14-14S2,8.28,2,16s6.28,14,14,14
	S30,23.72,30,16z"/>
</svg>
