<?xml version="1.0" encoding="iso-8859-1"?>
<!-- Generator: Adobe Illustrator 22.0.1, SVG Export Plug-In . SVG Version: 6.00 Build 0)  -->
<svg version="1.1" id="Layer_1" xmlns="http://www.w3.org/2000/svg" xmlns:xlink="http://www.w3.org/1999/xlink" x="0px" y="0px"
	 viewBox="0 0 32 32" style="enable-background:new 0 0 32 32;" xml:space="preserve">
<path d="M20.086,16.566c0.396,0.517,0.594,1.134,0.594,1.854c0,0.66-0.129,1.248-0.387,1.764c-0.258,0.517-0.603,0.948-1.035,1.296
	c-0.432,0.349-0.93,0.612-1.494,0.792c-0.564,0.18-1.152,0.271-1.764,0.271c-0.708,0-1.353-0.103-1.935-0.307
	s-1.077-0.501-1.485-0.891c-0.408-0.39-0.723-0.867-0.945-1.431c-0.222-0.564-0.327-1.212-0.315-1.944h2.43
	c0.012,0.336,0.066,0.657,0.162,0.963c0.096,0.306,0.234,0.57,0.414,0.792c0.18,0.223,0.405,0.399,0.675,0.531
	s0.591,0.198,0.963,0.198c0.576,0,1.062-0.178,1.458-0.531c0.396-0.354,0.594-0.837,0.594-1.449c0-0.479-0.093-0.846-0.279-1.098
	c-0.187-0.252-0.423-0.436-0.711-0.55c-0.288-0.113-0.603-0.18-0.945-0.197c-0.342-0.019-0.669-0.027-0.981-0.027v-1.8
	c0.276,0.024,0.57,0.024,0.882,0s0.603-0.093,0.873-0.207s0.492-0.279,0.666-0.495s0.261-0.504,0.261-0.864
	c0-0.54-0.18-0.954-0.54-1.242c-0.36-0.287-0.774-0.432-1.242-0.432c-0.648,0-1.137,0.213-1.467,0.639
	c-0.33,0.427-0.489,0.964-0.477,1.611h-2.43c0.024-0.647,0.141-1.239,0.351-1.772c0.21-0.534,0.504-0.993,0.882-1.378
	c0.378-0.384,0.831-0.681,1.359-0.891c0.528-0.21,1.116-0.314,1.764-0.314c0.504,0,1.008,0.074,1.512,0.225s0.957,0.375,1.359,0.675
	c0.402,0.3,0.729,0.666,0.981,1.099c0.252,0.432,0.378,0.93,0.378,1.493c0,0.612-0.147,1.152-0.441,1.62s-0.735,0.786-1.323,0.954
	v0.036C19.144,15.715,19.69,16.051,20.086,16.566z M32,16c0,8.822-7.178,16-16,16S0,24.822,0,16S7.178,0,16,0S32,7.178,32,16z
	 M30,16c0-7.72-6.28-14-14-14S2,8.28,2,16s6.28,14,14,14S30,23.72,30,16z"/>
</svg>
