<?xml version="1.0" encoding="iso-8859-1"?>
<!-- Generator: Adobe Illustrator 22.0.1, SVG Export Plug-In . SVG Version: 6.00 Build 0)  -->
<svg version="1.1" id="Layer_1" xmlns="http://www.w3.org/2000/svg" xmlns:xlink="http://www.w3.org/1999/xlink" x="0px" y="0px"
	 viewBox="0 0 32 32" style="enable-background:new 0 0 32 32;" xml:space="preserve">
<path d="M20.419,16.233c0.174,0.522,0.261,1.077,0.261,1.665c0,0.648-0.126,1.251-0.378,1.81c-0.252,0.558-0.591,1.041-1.017,1.448
	c-0.426,0.408-0.921,0.724-1.485,0.945c-0.564,0.222-1.164,0.327-1.8,0.315c-0.612,0-1.197-0.081-1.755-0.243
	s-1.053-0.411-1.485-0.747c-0.432-0.336-0.777-0.753-1.035-1.251c-0.258-0.498-0.393-1.077-0.405-1.737h2.556
	c0.06,0.576,0.276,1.035,0.648,1.377s0.846,0.514,1.422,0.514c0.335,0,0.639-0.069,0.909-0.207c0.27-0.139,0.498-0.318,0.684-0.54
	c0.186-0.223,0.33-0.48,0.432-0.774c0.102-0.294,0.153-0.597,0.153-0.909c0-0.324-0.048-0.63-0.144-0.918s-0.24-0.54-0.432-0.756
	s-0.42-0.384-0.684-0.504c-0.264-0.12-0.57-0.18-0.918-0.18c-0.457,0-0.828,0.081-1.116,0.242c-0.288,0.162-0.558,0.418-0.81,0.766
	h-2.304l1.242-6.966h7.038v2.105h-5.202L14.29,14.55l0.036,0.036c0.348-0.349,0.72-0.597,1.116-0.747s0.846-0.226,1.35-0.226
	c0.624,0,1.176,0.114,1.656,0.343c0.479,0.228,0.885,0.533,1.215,0.918C19.993,15.258,20.245,15.711,20.419,16.233z M32,16
	c0,8.822-7.178,16-16,16S0,24.822,0,16S7.178,0,16,0S32,7.178,32,16z M30,16c0-7.72-6.28-14-14-14S2,8.28,2,16s6.28,14,14,14
	S30,23.72,30,16z"/>
</svg>
