<?xml version="1.0" encoding="iso-8859-1"?>
<!-- Generator: Adobe Illustrator 22.0.1, SVG Export Plug-In . SVG Version: 6.00 Build 0)  -->
<svg version="1.1" id="Layer_1" xmlns="http://www.w3.org/2000/svg" xmlns:xlink="http://www.w3.org/1999/xlink" x="0px" y="0px"
	 viewBox="0 0 32 32" style="enable-background:new 0 0 32 32;" xml:space="preserve">
<path d="M19.404,15.145c-0.36-0.396-0.798-0.711-1.314-0.945c-0.516-0.233-1.044-0.351-1.584-0.351c-0.612,0-1.152,0.108-1.62,0.324
	c-0.468,0.216-0.876,0.576-1.224,1.08l-0.036-0.036c0.012-0.348,0.06-0.744,0.144-1.188c0.084-0.443,0.216-0.86,0.396-1.251
	c0.18-0.39,0.423-0.72,0.729-0.99c0.306-0.27,0.687-0.404,1.143-0.404c0.444,0,0.816,0.156,1.116,0.468
	c0.3,0.312,0.492,0.678,0.576,1.098h2.43c-0.072-0.563-0.222-1.062-0.45-1.493c-0.228-0.433-0.522-0.795-0.882-1.09
	c-0.36-0.294-0.774-0.519-1.242-0.675c-0.468-0.155-0.972-0.233-1.512-0.233c-0.9,0-1.662,0.197-2.286,0.594
	c-0.624,0.396-1.134,0.909-1.53,1.539s-0.684,1.335-0.864,2.115c-0.18,0.779-0.27,1.56-0.27,2.34c0,0.804,0.072,1.593,0.216,2.366
	c0.144,0.774,0.402,1.468,0.774,2.079c0.372,0.612,0.87,1.107,1.494,1.485s1.41,0.567,2.358,0.567c0.66,0,1.26-0.117,1.8-0.352
	c0.54-0.233,1.005-0.558,1.395-0.972c0.39-0.414,0.69-0.9,0.9-1.458c0.21-0.559,0.315-1.161,0.315-1.81
	c0-0.504-0.078-1.001-0.234-1.493C19.986,15.967,19.74,15.528,19.404,15.145z M17.694,18.997c-0.084,0.275-0.21,0.521-0.378,0.737
	s-0.369,0.391-0.603,0.522c-0.234,0.132-0.507,0.198-0.819,0.198c-0.324,0-0.612-0.066-0.864-0.198s-0.465-0.309-0.639-0.531
	c-0.174-0.222-0.306-0.474-0.396-0.756s-0.135-0.567-0.135-0.855c0-0.312,0.042-0.608,0.126-0.891
	c0.083-0.282,0.209-0.531,0.378-0.747c0.168-0.216,0.381-0.387,0.639-0.513c0.258-0.126,0.555-0.189,0.891-0.189
	c0.324,0,0.609,0.069,0.855,0.207c0.246,0.139,0.447,0.318,0.603,0.54c0.156,0.223,0.273,0.475,0.351,0.756
	c0.078,0.282,0.117,0.573,0.117,0.873C17.82,18.438,17.778,18.721,17.694,18.997z M16,0C7.178,0,0,7.178,0,16s7.178,16,16,16
	s16-7.178,16-16S24.822,0,16,0z M16,30C8.28,30,2,23.72,2,16S8.28,2,16,2s14,6.28,14,14S23.72,30,16,30z"/>
</svg>
