<?xml version="1.0" encoding="iso-8859-1"?>
<!-- Generator: Adobe Illustrator 22.0.1, SVG Export Plug-In . SVG Version: 6.00 Build 0)  -->
<svg version="1.1" id="Layer_1" xmlns="http://www.w3.org/2000/svg" xmlns:xlink="http://www.w3.org/1999/xlink" x="0px" y="0px"
	 viewBox="0 0 32 32" style="enable-background:new 0 0 32 32;" xml:space="preserve">
<path d="M11.698,9.7h8.604v2.195c-0.66,0.576-1.245,1.284-1.755,2.124c-0.51,0.841-0.936,1.734-1.278,2.683
	c-0.342,0.947-0.606,1.907-0.792,2.88c-0.186,0.972-0.285,1.878-0.297,2.718h-2.736c0.144-1.884,0.585-3.696,1.323-5.436
	c0.738-1.74,1.707-3.336,2.907-4.788h-5.976V9.7z M32,16c0,8.822-7.178,16-16,16S0,24.822,0,16S7.178,0,16,0S32,7.178,32,16z M30,16
	c0-7.72-6.28-14-14-14S2,8.28,2,16s6.28,14,14,14S30,23.72,30,16z"/>
</svg>
