<?xml version="1.0" encoding="iso-8859-1"?>
<!-- Generator: Adobe Illustrator 22.0.1, SVG Export Plug-In . SVG Version: 6.00 Build 0)  -->
<svg version="1.1" id="Layer_1" xmlns="http://www.w3.org/2000/svg" xmlns:xlink="http://www.w3.org/1999/xlink" x="0px" y="0px"
	 viewBox="0 0 32 32" style="enable-background:new 0 0 32 32;" xml:space="preserve">
<path d="M18.394,15.522v-0.036c0.612-0.204,1.071-0.54,1.377-1.008c0.306-0.468,0.459-1.014,0.459-1.638
	c0-0.312-0.072-0.663-0.216-1.054c-0.144-0.39-0.381-0.756-0.711-1.098c-0.33-0.342-0.765-0.633-1.305-0.873
	c-0.54-0.239-1.2-0.359-1.98-0.359c-0.516,0-1.026,0.071-1.53,0.216c-0.504,0.144-0.958,0.359-1.359,0.647s-0.729,0.648-0.981,1.08
	c-0.252,0.433-0.378,0.931-0.378,1.494c0,0.624,0.156,1.17,0.468,1.638c0.312,0.469,0.774,0.786,1.386,0.954v0.036
	c-0.756,0.18-1.341,0.54-1.755,1.08s-0.621,1.212-0.621,2.016c0,0.685,0.135,1.272,0.405,1.765c0.27,0.492,0.63,0.899,1.08,1.224
	c0.45,0.324,0.96,0.562,1.53,0.711c0.57,0.15,1.161,0.226,1.773,0.226c0.588,0,1.164-0.081,1.728-0.243
	c0.564-0.162,1.068-0.405,1.512-0.729c0.444-0.323,0.801-0.731,1.071-1.224s0.405-1.074,0.405-1.746
	c0-0.792-0.204-1.461-0.612-2.007C19.732,16.048,19.15,15.69,18.394,15.522z M14.245,12.373c0.102-0.217,0.243-0.396,0.423-0.54
	c0.18-0.145,0.387-0.255,0.621-0.333s0.477-0.117,0.729-0.117c0.396,0,0.717,0.06,0.963,0.18s0.438,0.271,0.576,0.45
	c0.138,0.18,0.231,0.369,0.279,0.567c0.048,0.197,0.072,0.381,0.072,0.549c0,0.54-0.18,0.951-0.54,1.232
	c-0.36,0.282-0.81,0.423-1.35,0.423c-0.516,0-0.966-0.141-1.35-0.423c-0.384-0.281-0.576-0.692-0.576-1.232
	C14.092,12.841,14.143,12.589,14.245,12.373z M18.034,19.375c-0.108,0.264-0.261,0.488-0.459,0.675
	c-0.198,0.186-0.426,0.33-0.684,0.432c-0.258,0.103-0.543,0.153-0.855,0.153c-0.3,0-0.588-0.051-0.864-0.153
	c-0.276-0.102-0.513-0.246-0.711-0.432c-0.198-0.187-0.357-0.411-0.477-0.675c-0.12-0.265-0.18-0.559-0.18-0.883
	c0-0.647,0.216-1.143,0.648-1.484s0.96-0.514,1.584-0.514c0.3,0,0.579,0.049,0.837,0.145c0.258,0.096,0.486,0.234,0.684,0.414
	c0.198,0.18,0.354,0.393,0.468,0.639c0.114,0.246,0.171,0.52,0.171,0.819C18.196,18.823,18.142,19.11,18.034,19.375z M16,0
	C7.178,0,0,7.178,0,16s7.178,16,16,16s16-7.178,16-16S24.822,0,16,0z M16,30C8.28,30,2,23.72,2,16S8.28,2,16,2s14,6.28,14,14
	S23.72,30,16,30z"/>
</svg>
