<?xml version="1.0" encoding="iso-8859-1"?>
<!-- Generator: Adobe Illustrator 22.0.1, SVG Export Plug-In . SVG Version: 6.00 Build 0)  -->
<svg version="1.1" id="Layer_1" xmlns="http://www.w3.org/2000/svg" xmlns:xlink="http://www.w3.org/1999/xlink" x="0px" y="0px"
	 viewBox="0 0 32 32" style="enable-background:new 0 0 32 32;" xml:space="preserve">
<path d="M19.636,11.518c-0.372-0.618-0.867-1.116-1.485-1.494s-1.407-0.566-2.367-0.566c-0.66,0-1.26,0.12-1.8,0.359
	c-0.54,0.24-1.005,0.567-1.395,0.981c-0.39,0.414-0.69,0.899-0.9,1.458c-0.21,0.558-0.315,1.161-0.315,1.809
	c0,0.504,0.078,1.002,0.234,1.494s0.402,0.93,0.738,1.314c0.36,0.396,0.798,0.711,1.314,0.944c0.516,0.234,1.044,0.352,1.584,0.352
	c0.612,0,1.152-0.108,1.62-0.324c0.468-0.216,0.875-0.576,1.224-1.08l0.036,0.036c-0.024,0.348-0.075,0.744-0.153,1.188
	c-0.078,0.444-0.207,0.861-0.387,1.251c-0.18,0.391-0.42,0.721-0.72,0.99c-0.3,0.271-0.684,0.405-1.152,0.405
	c-0.444,0-0.816-0.156-1.116-0.468c-0.3-0.312-0.492-0.678-0.576-1.099h-2.43c0.072,0.553,0.222,1.044,0.45,1.477
	c0.228,0.432,0.522,0.798,0.882,1.098c0.36,0.3,0.774,0.525,1.242,0.675c0.468,0.15,0.972,0.226,1.512,0.226
	c0.9,0,1.662-0.195,2.286-0.585c0.624-0.391,1.134-0.9,1.53-1.53s0.684-1.335,0.864-2.115c0.18-0.78,0.27-1.56,0.27-2.34
	c0-0.792-0.072-1.578-0.216-2.358C20.266,12.835,20.008,12.136,19.636,11.518z M17.764,14.794c-0.084,0.282-0.21,0.53-0.378,0.747
	c-0.168,0.216-0.378,0.387-0.63,0.513c-0.252,0.126-0.552,0.188-0.9,0.188c-0.324,0-0.609-0.068-0.855-0.207
	c-0.246-0.138-0.447-0.317-0.603-0.54c-0.156-0.222-0.273-0.474-0.351-0.756c-0.078-0.281-0.117-0.572-0.117-0.873
	c0-0.288,0.042-0.569,0.126-0.846c0.084-0.275,0.21-0.521,0.378-0.738c0.168-0.216,0.372-0.39,0.612-0.521s0.51-0.198,0.81-0.198
	c0.324,0,0.612,0.066,0.864,0.198s0.465,0.309,0.639,0.531c0.174,0.222,0.306,0.474,0.396,0.756c0.09,0.282,0.135,0.566,0.135,0.854
	C17.89,14.215,17.848,14.512,17.764,14.794z M16,0C7.178,0,0,7.178,0,16s7.178,16,16,16s16-7.178,16-16S24.822,0,16,0z M16,30
	C8.28,30,2,23.72,2,16S8.28,2,16,2s14,6.28,14,14S23.72,30,16,30z"/>
</svg>
