<?xml version="1.0" encoding="utf-8"?>
<!-- Generator: Adobe Illustrator 19.1.1, SVG Export Plug-In . SVG Version: 6.00 Build 0)  -->
<svg version="1.1" id="IOS_copy" xmlns="http://www.w3.org/2000/svg" xmlns:xlink="http://www.w3.org/1999/xlink" x="0px" y="0px"
	 viewBox="0 0 12 12" enable-background="new 0 0 12 12" xml:space="preserve">
<path d="M9.1,2.9c0.5,0.5,0.8,1,0.9,1.5l-5.9,5.9c0,0-0.3-0.4-0.3-1C3,8.8,2.8,8.5,2.7,8.1c-0.7,0-1-0.2-1-0.2L7.6,2
	C7.8,2,8.4,2.2,9.1,2.9z M11.4,0.5C10.4-0.3,9.8,0,9.5,0.3C9.4,0.4,9,0.7,8.8,0.9C9,0.9,9.6,1,10.3,1.7c0.6,0.6,0.8,1.2,0.8,1.5
	c0.2-0.3,0.6-0.7,0.6-0.8C12,2,12.3,1.3,11.4,0.5z M2.2,8.5c-0.6,0-0.8-0.1-0.8-0.1L0,12l3.6-1.5c0,0-0.3-0.6-0.3-0.9
	C3.1,9.6,2.4,9.2,2.2,8.5z M8.3,1.2L8,1.6c0,0,0.7,0.1,1.5,0.9c0.5,0.5,0.8,1,0.8,1.4l0.3-0.3c0,0,0.1-0.6-0.8-1.5
	C9,1.2,8.3,1.2,8.3,1.2z"/>
</svg>
