<?xml version="1.0" encoding="utf-8"?>
<!-- Generator: Adobe Illustrator 19.1.1, SVG Export Plug-In . SVG Version: 6.00 Build 0)  -->
<svg version="1.1" id="IOS_copy" xmlns="http://www.w3.org/2000/svg" xmlns:xlink="http://www.w3.org/1999/xlink" x="0px" y="0px"
	 viewBox="0 0 12 12" enable-background="new 0 0 12 12" xml:space="preserve">
<path d="M8.2,0C6.1,0,4.4,1.7,4.4,3.8c0,0.5,0.1,1,0.3,1.5L0,10v2h2l1-1v-1h1V9h1l1.7-1.7c0.5,0.2,1,0.3,1.5,0.3
	c2.1,0,3.8-1.7,3.8-3.8C12,1.7,10.3,0,8.2,0z M9,4C8.4,4,8,3.6,8,3c0-0.6,0.4-1,1-1c0.6,0,1,0.4,1,1C10,3.6,9.6,4,9,4z"/>
</svg>
