<?xml version="1.0" encoding="utf-8"?>
<!-- Generator: Adobe Illustrator 19.1.1, SVG Export Plug-In . SVG Version: 6.00 Build 0)  -->
<svg version="1.1" id="IOS_copy" xmlns="http://www.w3.org/2000/svg" xmlns:xlink="http://www.w3.org/1999/xlink" x="0px" y="0px"
	 viewBox="0 0 12 12" enable-background="new 0 0 12 12" xml:space="preserve">
<path d="M0.9,5C0.3,4.4,0,3.6,0,2.8c0-0.7,0.3-1.4,0.8-2C1.4,0.3,2.1,0,2.9,0C3.7,0,4.4,0.4,5,0.9l2.2,2.2C6.9,2.8,5.6,3,5.2,3.3
	L3.9,2C3.6,1.7,3.2,1.5,2.8,1.5c-0.3,0-0.6,0-1,0.4C1.6,2.2,1.5,2.5,1.5,2.8c0,0.4,0.2,0.8,0.5,1.1l2.3,2.3c0.6,0.6,1.5,0.6,2,0.1
	C6.6,6,7.1,6,7.4,6.3c0.3,0.3,0.3,0.8,0,1.1c-0.5,0.5-1.2,0.8-2,0.8c-0.8,0-1.6-0.3-2.2-0.9L0.9,5z M11.2,11.2
	C10.6,11.8,9.9,12,9.1,12c-0.8,0-1.5-0.4-2.1-0.9L4.8,8.9c0.3,0.3,1.6,0.1,2-0.2L8.1,10c0.3,0.3,0.7,0.5,1.1,0.5c0.3,0,0.6,0,1-0.4
	c0.3-0.3,0.4-0.6,0.4-0.9c0-0.4-0.2-0.8-0.5-1.1L7.8,5.8c-0.6-0.6-1.5-0.6-2-0.1C5.5,6,5,6,4.7,5.7c-0.3-0.3-0.3-0.8,0-1.1
	c0.5-0.5,1.2-0.8,2-0.8c0.8,0,1.6,0.3,2.2,0.9L11.1,7C11.7,7.6,12,8.4,12,9.2C12,10,11.7,10.7,11.2,11.2z"/>
</svg>
