<?xml version="1.0" encoding="utf-8"?>
<!-- Generator: Adobe Illustrator 19.1.1, SVG Export Plug-In . SVG Version: 6.00 Build 0)  -->
<svg version="1.1" id="IOS_copy" xmlns="http://www.w3.org/2000/svg" xmlns:xlink="http://www.w3.org/1999/xlink" x="0px" y="0px"
	 viewBox="0 0 12 12" enable-background="new 0 0 12 12" xml:space="preserve">
<path d="M10.6,6.5c-0.3,0-0.5,0.1-0.9,0.4C9.2,7.2,8.9,7.4,8.8,6.9C8.6,6.4,8.2,3.8,8.2,3.8S6,3.3,5.5,3.2C5.1,3.1,4.8,2.9,5.2,2.3
	c0.3-0.4,0.4-0.6,0.4-0.9C5.5,0.6,4.9,0,4.2,0C3.4,0,2.8,0.6,2.8,1.4c0,0.3,0.1,0.6,0.3,0.9c0.4,0.6,0.2,0.8-0.3,0.9
	C2.2,3.3,0,3.8,0,3.8S0,5,0,6.9c0,0,0,0,0,0.1c0.1,0.5,0.5,0.2,0.9-0.1c0.3-0.2,0.6-0.4,0.9-0.4c0.8,0,1.4,0.6,1.4,1.4
	c0,0.8-0.6,1.4-1.4,1.4c-0.4,0-0.6-0.1-0.9-0.4C0.6,8.6,0.1,8.3,0,8.8c0,0,0,0.1,0,0.1c0,2,0,3.1,0,3.1h8.2c0,0,0.5-2.7,0.6-3.2
	c0.1-0.5,0.4-0.3,0.9,0.1c0.3,0.2,0.6,0.4,0.9,0.4c0.8,0,1.4-0.6,1.4-1.4C12,7.1,11.4,6.5,10.6,6.5z"/>
</svg>
