<?xml version="1.0" encoding="utf-8"?>
<!-- Generator: Adobe Illustrator 19.1.1, SVG Export Plug-In . SVG Version: 6.00 Build 0)  -->
<svg version="1.1" id="IOS_copy" xmlns="http://www.w3.org/2000/svg" xmlns:xlink="http://www.w3.org/1999/xlink" x="0px" y="0px"
	 viewBox="0 0 12 12" enable-background="new 0 0 12 12" xml:space="preserve">
<path d="M11.8,10.3L9.7,8.2C9.5,8,9.1,8,8.8,8.1L8,7.3c0.6-0.8,1-1.7,1-2.8C9,2,7,0,4.5,0C2,0,0,2,0,4.5S2,9,4.5,9
	c1.1,0,2-0.4,2.8-1l0.8,0.8C8,9.1,8,9.5,8.2,9.7l2.1,2.1c0.3,0.3,0.8,0.3,1.1,0l0.4-0.4C12.1,11.1,12.1,10.6,11.8,10.3z M4.5,7.5
	c-1.7,0-3-1.3-3-3s1.3-3,3-3c1.7,0,3,1.3,3,3S6.2,7.5,4.5,7.5z"/>
</svg>
