<?xml version="1.0" encoding="utf-8"?>
<!-- Generator: Adobe Illustrator 19.1.1, SVG Export Plug-In . SVG Version: 6.00 Build 0)  -->
<svg version="1.1" id="IOS_copy" xmlns="http://www.w3.org/2000/svg" xmlns:xlink="http://www.w3.org/1999/xlink" x="0px" y="0px"
	 viewBox="0 0 12 12" enable-background="new 0 0 12 12" xml:space="preserve">
<path d="M1.9,0.1L4,2.2c0,0,0,0.6-0.6,1.2C2.8,4,2.2,4,2.2,4L0.1,1.9c-0.3,1.2,0.1,2.6,1,3.4c0.8,0.8,1.6,0.8,2.5,0.3
	C3.7,5.6,4,5.5,4.3,5.8c1.8,1.8,5.3,5.7,5.3,5.7c0.6,0.6,1.4,0.6,2,0c0.5-0.5,0.5-1.4,0-2c-0.1-0.1-4-3.6-5.8-5.4
	C5.5,4,5.6,3.7,5.7,3.6c0.5-0.8,0.5-1.7-0.3-2.5C4.5,0.2,3.1-0.2,1.9,0.1z M11.1,10.5c0,0.3-0.3,0.6-0.6,0.6c-0.3,0-0.6-0.3-0.6-0.6
	c0-0.3,0.3-0.6,0.6-0.6C10.8,9.9,11.1,10.2,11.1,10.5z"/>
</svg>
