<?xml version="1.0" encoding="utf-8"?>
<!-- Generator: Adobe Illustrator 19.1.1, SVG Export Plug-In . SVG Version: 6.00 Build 0)  -->
<svg version="1.1" id="IOS_copy" xmlns="http://www.w3.org/2000/svg" xmlns:xlink="http://www.w3.org/1999/xlink" x="0px" y="0px"
	 viewBox="0 0 12 12" enable-background="new 0 0 12 12" xml:space="preserve">
<path d="M6,3C4.3,3,3,4.3,3,6s1.3,3,3,3c1.7,0,3-1.3,3-3S7.7,3,6,3z M6,7.5C5.2,7.5,4.5,6.8,4.5,6S5.2,4.5,6,4.5
	c0.8,0,1.5,0.7,1.5,1.5S6.8,7.5,6,7.5z M11.6,4.1c0,0,0.1,0-0.5-1c-0.6-1-0.7-0.9-0.7-0.9C9.9,2.3,9.4,2.4,9.1,2.4
	C8.7,2,8.1,1.7,7.5,1.5C7.4,1.2,7.3,0.8,7.2,0.1c0,0,0-0.1-1.1-0.1C4.9,0,4.9,0.1,4.9,0.1C4.8,0.8,4.6,1.2,4.5,1.5
	C3.9,1.7,3.4,2,2.9,2.4C2.7,2.3,2.2,2.2,1.6,2c0,0-0.1-0.1-0.7,0.9c-0.6,1-0.5,1-0.5,1c0.5,0.4,0.8,0.8,0.9,1C1.3,5.3,1.2,5.6,1.2,6
	c0,0.3,0,0.7,0.1,1c-0.2,0.2-0.5,0.6-1,1c0,0-0.1,0,0.5,1c0.6,1,0.7,0.9,0.7,0.9c0.6-0.2,1.1-0.3,1.4-0.4c0.5,0.4,1,0.7,1.6,0.9
	c0.1,0.3,0.2,0.7,0.4,1.4c0,0,0,0.1,1.1,0.1s1.1-0.1,1.1-0.1c0.1-0.7,0.3-1.1,0.4-1.4c0.6-0.2,1.1-0.5,1.6-0.9
	c0.3,0.1,0.7,0.2,1.3,0.4c0,0,0.1,0.1,0.7-0.9c0.6-1,0.5-1,0.5-1c-0.5-0.4-0.8-0.8-0.9-1c0.1-0.3,0.1-0.7,0.1-1.1c0-0.3,0-0.7-0.1-1
	C10.8,4.8,11.1,4.5,11.6,4.1z M6,10c-2.2,0-4-1.8-4-4s1.8-4,4-4s4,1.8,4,4S8.2,10,6,10z"/>
</svg>
