<?xml version="1.0" encoding="utf-8"?>
<!-- Generator: Adobe Illustrator 19.1.1, SVG Export Plug-In . SVG Version: 6.00 Build 0)  -->
<svg version="1.1" id="IOS_copy" xmlns="http://www.w3.org/2000/svg" xmlns:xlink="http://www.w3.org/1999/xlink" x="0px" y="0px"
	 viewBox="0 0 6 12" enable-background="new 0 0 6 12" xml:space="preserve">
<path d="M3.4,5.1C2.2,4.6,2,4.5,2,4c0-0.8,0.5-1,1-1c0.8,0,1,0.5,1,1l1,0h1c0-1-0.6-2.4-2-2.8V0H2v1.2C1,1.5,0,2.4,0,4
	c0,1.9,1.6,2.5,2.6,2.9C3.8,7.4,4,7.5,4,8c0,0.5-0.2,1-1,1S2,8.5,2,8H0c0,1,0.6,2.4,2,2.8V12h2v-1.2C5.4,10.4,6,9,6,8
	C6,6.1,4.4,5.5,3.4,5.1z"/>
</svg>
