<?xml version="1.0" encoding="utf-8"?>
<!-- Generator: Adobe Illustrator 19.1.1, SVG Export Plug-In . SVG Version: 6.00 Build 0)  -->
<svg version="1.1" id="IOS_copy" xmlns="http://www.w3.org/2000/svg" xmlns:xlink="http://www.w3.org/1999/xlink" x="0px" y="0px"
	 viewBox="0 0 10 12" enable-background="new 0 0 10 12" xml:space="preserve">
<path d="M10,9.5C10,8.7,8,8,8,4c0-1.3-0.9-2.4-2-2.8C6,1.1,6,1.1,6,1c0-0.6-0.4-1-1-1S4,0.4,4,1c0,0.1,0,0.1,0,0.2
	C2.9,1.6,2,2.7,2,4c0,4-2,4.7-2,5.5c0,0.7,1.4,1.4,4,1.5c0,0,0,0,0,0c0,0.6,0.4,1,1,1s1-0.4,1-1c0,0,0,0,0,0
	C8.6,10.9,10,10.2,10,9.5z"/>
</svg>
