<?xml version="1.0" encoding="utf-8"?>
<!-- Generator: Adobe Illustrator 19.1.1, SVG Export Plug-In . SVG Version: 6.00 Build 0)  -->
<svg version="1.1" id="IOS_copy" xmlns="http://www.w3.org/2000/svg" xmlns:xlink="http://www.w3.org/1999/xlink" x="0px" y="0px"
	 viewBox="0 0 14 9" enable-background="new 0 0 14 9" xml:space="preserve">
<path d="M13.9,4.6C13.9,4.4,12.2,0,7,0S0.1,4.4,0.1,4.6l1.9,0.7c0,0,0.1-0.2,0.2-0.3C2.5,7.3,4.5,9,7,9c2.5,0,4.5-1.7,4.9-4
	c0.1,0.2,0.1,0.3,0.2,0.3L13.9,4.6z M11,4c0,2.2-1.8,4-4,4S3,6.2,3,4c0-0.1,0-0.2,0-0.3c0.3-0.4,0.8-0.7,1.3-1C4.1,3.1,4,3.5,4,4
	c0,1.7,1.3,3,3,3s3-1.3,3-3c0-0.5-0.1-0.9-0.3-1.3c0.5,0.3,1,0.6,1.3,1C11,3.8,11,3.9,11,4z"/>
</svg>
