<?xml version="1.0" encoding="utf-8"?>
<!-- Generator: Adobe Illustrator 19.1.1, SVG Export Plug-In . SVG Version: 6.00 Build 0)  -->
<svg version="1.1" id="IOS_copy" xmlns="http://www.w3.org/2000/svg" xmlns:xlink="http://www.w3.org/1999/xlink" x="0px" y="0px"
	 viewBox="0 0 16 8" enable-background="new 0 0 16 8" xml:space="preserve">
<path d="M13.8,3.3l1.5,1.1l0.6-0.8l-1.5-1.2c0.3-0.6,0.5-1,0.5-1.1l-1.9-0.7C13,0.8,11.8,4,8,4S3,0.8,2.9,0.7L1.1,1.4
	c0,0.1,0.2,0.5,0.5,1.1L0.1,3.6l0.6,0.8l1.5-1.1c0.3,0.3,0.6,0.7,1,1L2,5.7l0.8,0.6L4,4.9c0.4,0.2,0.8,0.4,1.2,0.6L4.5,7.3l0.9,0.4
	l0.7-1.8C6.6,5.9,7,5.9,7.5,6v2h1V6c0.5,0,0.9-0.1,1.3-0.2l0.7,1.8l0.9-0.4l-0.7-1.8c0.4-0.2,0.9-0.4,1.2-0.6l1.1,1.4L14,5.7
	l-1.1-1.4C13.2,3.9,13.6,3.6,13.8,3.3z"/>
</svg>
