<?xml version="1.0" encoding="utf-8"?>
<!-- Generator: Adobe Illustrator 19.1.1, SVG Export Plug-In . SVG Version: 6.00 Build 0)  -->
<svg version="1.1" id="IOS_copy" xmlns="http://www.w3.org/2000/svg" xmlns:xlink="http://www.w3.org/1999/xlink" x="0px" y="0px"
	 viewBox="0 0 12 12" enable-background="new 0 0 12 12" xml:space="preserve">
<path d="M6,0C2.7,0,0,2.7,0,6s2.7,6,6,6s6-2.7,6-6S9.3,0,6,0z M6.5,8.9C6.3,9.1,6.2,9.1,5.9,9.1c-0.2,0-0.4-0.1-0.5-0.2
	C5.3,8.8,5.2,8.6,5.2,8.4c0-0.2,0.1-0.4,0.2-0.5c0.1-0.1,0.3-0.2,0.5-0.2c0.2,0,0.4,0.1,0.5,0.2C6.6,8,6.7,8.2,6.7,8.4
	C6.7,8.6,6.6,8.8,6.5,8.9z M7.4,5.8L6.9,6.2C6.8,6.3,6.7,6.4,6.6,6.6C6.6,6.7,6.5,6.8,6.5,7H5.3c0-0.4,0.1-0.5,0.2-0.8
	C5.5,6,5.7,5.8,5.9,5.6c0.3-0.2,0.4-0.4,0.5-0.5c0.1-0.1,0.1-0.3,0.1-0.4C6.6,4.2,6.4,4,6,4C5.9,4,5.7,4,5.6,4.1
	C5.5,4.3,5.4,4.4,5.4,4.6H4c0-0.5,0.2-0.9,0.6-1.2C4.9,3.1,5.4,3,6,3c0.6,0,1.1,0.1,1.5,0.4C7.8,3.7,8,4.1,8,4.6
	C8,5,7.8,5.4,7.4,5.8z"/>
</svg>
