<?xml version="1.0" encoding="utf-8"?>
<!-- Generator: Adobe Illustrator 19.1.1, SVG Export Plug-In . SVG Version: 6.00 Build 0)  -->
<svg version="1.1" id="IOS_copy" xmlns="http://www.w3.org/2000/svg" xmlns:xlink="http://www.w3.org/1999/xlink" x="0px" y="0px"
	 viewBox="0 0 10 12" enable-background="new 0 0 10 12" xml:space="preserve">
<path d="M8.9,2H10V0H0v2h1.1c0.3,2.1,1.5,3.4,2.2,4c-0.7,0.7-1.8,2.1-2.1,4H0v2h10v-2H8.9C8.6,8.1,7.4,6.7,6.8,6
	C7.5,5.5,8.7,4.2,8.9,2z M5.7,6.4c0,0,1.8,1.4,2.2,3.6h-1C6.5,9.2,5.6,8,5,8s-1.5,1.2-1.9,2h-1c0.4-2.2,2.2-3.6,2.2-3.6l0.6-0.4
	L4.3,5.6C4.2,5.5,2.5,4.4,2.1,2h5.8C7.5,4.5,5.8,5.5,5.7,5.6L5.1,5.9L5.7,6.4z M4,4h2c0,0.5-0.5,1-1,1C4.6,5,4,4.5,4,4z"/>
</svg>
