<?xml version="1.0" encoding="utf-8"?>
<!-- Generator: Adobe Illustrator 19.1.1, SVG Export Plug-In . SVG Version: 6.00 Build 0)  -->
<svg version="1.1" id="IOS_copy" xmlns="http://www.w3.org/2000/svg" xmlns:xlink="http://www.w3.org/1999/xlink" x="0px" y="0px"
	 viewBox="0 0 12 12" enable-background="new 0 0 12 12" xml:space="preserve">
<path d="M12,1H9.9L6.1,4.8L4.8,3.4C4.9,3.2,5,2.8,5,2.5C5,1.1,3.9,0,2.5,0S0,1.1,0,2.5S1.1,5,2.5,5c0.4,0,0.8-0.1,1.2-0.3L5,6
	L3.7,7.3C3.3,7.1,2.9,7,2.5,7C1.1,7,0,8.1,0,9.5S1.1,12,2.5,12S5,10.9,5,9.5c0-0.4-0.1-0.7-0.2-1l1.3-1.3L9.8,11H12L7.2,6L12,1z
	 M1.5,2.5c0-0.6,0.4-1,1-1s1,0.4,1,1s-0.4,1-1,1S1.5,3.1,1.5,2.5z M2.5,10.5c-0.6,0-1-0.4-1-1s0.4-1,1-1s1,0.4,1,1
	S3.1,10.5,2.5,10.5z"/>
</svg>
