<?xml version="1.0" encoding="utf-8"?>
<!-- Generator: Adobe Illustrator 19.1.1, SVG Export Plug-In . SVG Version: 6.00 Build 0)  -->
<svg version="1.1" id="IOS_copy" xmlns="http://www.w3.org/2000/svg" xmlns:xlink="http://www.w3.org/1999/xlink" x="0px" y="0px"
	 viewBox="0 0 16 11" enable-background="new 0 0 16 11" xml:space="preserve">
<path d="M8,11L6.6,9.6c0.8-0.8,2-0.8,2.8,0L8,11z M11.5,7.4c-2-2-5.1-2-7.1,0l1.1,1.1c1.3-1.3,3.6-1.3,5,0L11.5,7.4z M13.7,5.3
	c-3.1-3.1-8.2-3.1-11.3,0l1.1,1.1c2.5-2.5,6.7-2.5,9.2,0L13.7,5.3z M15.8,3.2C13.7,1.1,10.9,0,8,0C5.1,0,2.3,1.1,0.2,3.2l1.1,1.1
	C5,0.6,11,0.6,14.7,4.3L15.8,3.2z"/>
</svg>
