<?xml version="1.0" encoding="utf-8"?>
<!-- Generator: Adobe Illustrator 19.1.1, SVG Export Plug-In . SVG Version: 6.00 Build 0)  -->
<svg version="1.1" id="IOS_copy" xmlns="http://www.w3.org/2000/svg" xmlns:xlink="http://www.w3.org/1999/xlink" x="0px" y="0px"
	 viewBox="0 0 12 12" enable-background="new 0 0 12 12" xml:space="preserve">
<path d="M6.5,4.3c0.1,0.2,0.2,0.6,0.2,1v1.4c0,0.4-0.1,0.8-0.2,1C6.4,8,6.2,8.1,6,8.1C5.8,8.1,5.6,8,5.5,7.7
	C5.4,7.5,5.3,7.1,5.3,6.7V5.2c0-0.8,0.2-1.3,0.7-1.3C6.2,3.9,6.4,4,6.5,4.3z M12,6c0,3.3-2.7,6-6,6S0,9.3,0,6s2.7-6,6-6S12,2.7,12,6
	z M8,5.4c0-0.8-0.2-1.4-0.5-1.8C7.1,3.2,6.6,3,6,3C5.4,3,4.9,3.2,4.5,3.6C4.2,4.1,4,4.7,4,5.5v1.1C4,7.4,4.2,8,4.5,8.4
	C4.9,8.8,5.4,9,6,9c0.6,0,1.1-0.2,1.5-0.6C7.8,7.9,8,7.3,8,6.5V5.4z"/>
</svg>
