<?xml version="1.0" encoding="utf-8"?>
<!-- Generator: Adobe Illustrator 19.1.1, SVG Export Plug-In . SVG Version: 6.00 Build 0)  -->
<svg version="1.1" id="IOS_copy" xmlns="http://www.w3.org/2000/svg" xmlns:xlink="http://www.w3.org/1999/xlink" x="0px" y="0px"
	 viewBox="0 0 12 12" enable-background="new 0 0 12 12" xml:space="preserve">
<path d="M6,0C2.7,0,0,2.7,0,6s2.7,6,6,6s6-2.7,6-6S9.3,0,6,0z M7.9,9H4.1V8.2l1.7-2c0.2-0.3,0.4-0.5,0.5-0.7C6.4,5.2,6.5,5,6.5,4.8
	c0-0.3,0-0.5-0.1-0.6C6.2,4,6.1,3.9,5.9,3.9C5.7,3.9,5.5,4,5.4,4.2C5.3,4.4,5.2,4.6,5.2,4.9H4c0-0.4,0.1-0.7,0.2-1
	c0.2-0.3,0.4-0.5,0.7-0.7C5.2,3.1,5.6,3,5.9,3c0.6,0,1,0.1,1.3,0.4c0.3,0.3,0.5,0.7,0.5,1.2c0,0.3-0.1,0.7-0.3,1C7.3,6,7,6.5,6.5,7
	L5.7,8.1h2.2V9z"/>
</svg>
