<?xml version="1.0" encoding="utf-8"?>
<!-- Generator: Adobe Illustrator 19.1.1, SVG Export Plug-In . SVG Version: 6.00 Build 0)  -->
<svg version="1.1" id="IOS_copy" xmlns="http://www.w3.org/2000/svg" xmlns:xlink="http://www.w3.org/1999/xlink" x="0px" y="0px"
	 viewBox="0 0 12 12" enable-background="new 0 0 12 12" xml:space="preserve">
<path d="M6.5,6.2C6.6,6.4,6.7,6.7,6.7,7c0,0.3-0.1,0.6-0.2,0.8C6.4,8,6.2,8.1,6,8.1C5.8,8.1,5.6,8,5.5,7.8C5.4,7.6,5.3,7.2,5.3,6.8
	V6.4c0.1-0.1,0.1-0.2,0.3-0.3C5.7,6,5.8,5.9,6,5.9C6.2,5.9,6.4,6,6.5,6.2z M12,6c0,3.3-2.7,6-6,6c-3.3,0-6-2.7-6-6s2.7-6,6-6
	C9.3,0,12,2.7,12,6z M8,7c0-0.6-0.1-1.1-0.4-1.4C7.3,5.2,6.9,5,6.4,5C6,5,5.6,5.1,5.3,5.4C5.4,5,5.6,4.6,5.9,4.4C6.1,4.1,6.5,4,7,4
	h0.1V3H6.9C6.3,3,5.8,3.1,5.4,3.4C4.9,3.7,4.6,4,4.4,4.5C4.1,5,4,5.6,4,6.2v0.4c0,0.7,0.2,1.3,0.6,1.7C4.9,8.8,5.4,9,6,9
	c0.4,0,0.7-0.1,1-0.3C7.3,8.6,7.6,8.3,7.7,8C7.9,7.7,8,7.4,8,7z"/>
</svg>
