<?xml version="1.0" encoding="utf-8"?>
<!-- Generator: Adobe Illustrator 19.1.1, SVG Export Plug-In . SVG Version: 6.00 Build 0)  -->
<svg version="1.1" id="IOS_copy" xmlns="http://www.w3.org/2000/svg" xmlns:xlink="http://www.w3.org/1999/xlink" x="0px" y="0px"
	 viewBox="0 0 12 12" enable-background="new 0 0 12 12" xml:space="preserve">
<path d="M6.5,6.6C6.6,6.8,6.6,7,6.6,7.2c0,0.3-0.1,0.5-0.2,0.6C6.4,8,6.2,8.1,6,8.1C5.8,8.1,5.6,8,5.5,7.8C5.4,7.7,5.4,7.5,5.4,7.2
	c0-0.3,0.1-0.5,0.2-0.6C5.6,6.5,5.8,6.4,6,6.4C6.2,6.4,6.4,6.5,6.5,6.6z M6,5.5c0.2,0,0.3-0.1,0.4-0.2c0.1-0.1,0.1-0.3,0.1-0.6
	c0-0.2,0-0.4-0.1-0.5C6.3,4,6.2,3.9,6,3.9C5.8,3.9,5.7,4,5.6,4.1C5.5,4.3,5.5,4.5,5.5,4.7c0,0.2,0,0.4,0.1,0.6
	C5.7,5.4,5.8,5.5,6,5.5z M12,6c0,3.3-2.7,6-6,6c-3.3,0-6-2.7-6-6s2.7-6,6-6C9.3,0,12,2.7,12,6z M8,7.3C8,7,7.9,6.7,7.8,6.5
	C7.6,6.2,7.4,6,7.1,5.9c0.3-0.1,0.4-0.3,0.6-0.5c0.1-0.2,0.2-0.5,0.2-0.8c0-0.5-0.2-0.9-0.5-1.2C7,3.1,6.6,3,6,3
	C5.4,3,5,3.1,4.6,3.4C4.3,3.7,4.1,4.1,4.1,4.6c0,0.3,0.1,0.5,0.2,0.8c0.1,0.2,0.3,0.4,0.6,0.5C4.6,6,4.4,6.2,4.2,6.5
	C4.1,6.7,4,7,4,7.3c0,0.5,0.2,0.9,0.5,1.2C4.9,8.8,5.4,9,6,9c0.6,0,1.1-0.2,1.5-0.5C7.8,8.2,8,7.8,8,7.3z"/>
</svg>
