<?xml version="1.0" encoding="utf-8"?>
<!-- Generator: Adobe Illustrator 19.1.1, SVG Export Plug-In . SVG Version: 6.00 Build 0)  -->
<svg version="1.1" id="IOS_copy" xmlns="http://www.w3.org/2000/svg" xmlns:xlink="http://www.w3.org/1999/xlink" x="0px" y="0px"
	 viewBox="0 0 12 12" enable-background="new 0 0 12 12" xml:space="preserve">
<path d="M6.5,4.3c0.1,0.2,0.2,0.5,0.2,0.9v0.5C6.5,6,6.3,6.2,6,6.2c-0.2,0-0.4-0.1-0.5-0.3C5.4,5.7,5.3,5.4,5.3,5.1
	c0-0.3,0.1-0.6,0.2-0.8C5.6,4,5.8,3.9,6,3.9C6.2,3.9,6.3,4,6.5,4.3z M12,6c0,3.3-2.7,6-6,6c-3.3,0-6-2.7-6-6s2.7-6,6-6
	C9.3,0,12,2.7,12,6z M8,5.4c0-0.5-0.1-0.9-0.3-1.2C7.6,3.8,7.3,3.5,7,3.3C6.7,3.1,6.4,3,6,3C5.6,3,5.3,3.1,5,3.3
	C4.7,3.4,4.4,3.7,4.3,4C4.1,4.3,4,4.7,4,5.1c0,0.6,0.2,1.1,0.5,1.4C4.8,6.9,5.2,7,5.7,7C6,7,6.3,6.9,6.6,6.7c-0.1,0.4-0.2,0.8-0.5,1
	C5.9,7.9,5.5,8,5,8H4.9v1H5c1,0,1.7-0.3,2.2-0.9C7.7,7.6,8,6.8,8,5.8V5.4z"/>
</svg>
