<?xml version="1.0" encoding="utf-8"?>
<!-- Generator: Adobe Illustrator 19.1.1, SVG Export Plug-In . SVG Version: 6.00 Build 0)  -->
<svg version="1.1" xmlns="http://www.w3.org/2000/svg" xmlns:xlink="http://www.w3.org/1999/xlink" x="0px" y="0px"
	 viewBox="0 0 26 26" enable-background="new 0 0 26 26" xml:space="preserve">
<g id="IOS" display="none">
</g>
<g id="IOS_copy">
	<path d="M19,0c-1.9,0-3.6,0.7-4.9,2L12,4.1c-1.6,1.6-2.3,3.8-2,5.9C9.7,10,9.4,10,9,10c-1.9,0-3.6,0.7-4.9,2L2,14.1
		c-1.3,1.3-2,3.1-2,4.9c0,1.9,0.7,3.6,2,4.9c1.3,1.3,3.1,2,4.9,2c1.9,0,3.6-0.7,4.9-2l2.1-2.1c1.6-1.6,2.3-3.8,2-5.9
		c0.3,0.1,0.7,0.1,1,0.1c1.9,0,3.6-0.7,4.9-2l2.1-2.1c1.3-1.3,2-3.1,2-4.9c0-1.9-0.7-3.6-2-4.9C22.7,0.7,20.9,0,19,0z"/>
</g>
</svg>
