<?xml version="1.0" encoding="utf-8"?>
<!-- Generator: Adobe Illustrator 19.1.1, SVG Export Plug-In . SVG Version: 6.00 Build 0)  -->
<svg version="1.1" xmlns="http://www.w3.org/2000/svg" xmlns:xlink="http://www.w3.org/1999/xlink" x="0px" y="0px"
	 viewBox="0 0 22 24" enable-background="new 0 0 22 24" xml:space="preserve">
<g id="IOS" display="none">
</g>
<g id="IOS_copy">
	<path d="M2,17v1.2c-1.2,0.4-2,1.5-2,2.8c0,1.7,1.3,3,3,3h16c1.7,0,3-1.3,3-3c0-1.3-0.8-2.4-2-2.8V17c0-1.9-0.8-3.7-2.3-5
		c1.5-1.4,2.3-3.1,2.3-5V5.8c1.2-0.4,2-1.5,2-2.8c0-1.7-1.3-3-3-3H3C1.3,0,0,1.3,0,3c0,1.3,0.8,2.4,2,2.8V7c0,1.9,0.8,3.6,2.4,5
		C2.8,13.4,2,15.1,2,17z"/>
</g>
</svg>
