<?xml version="1.0" encoding="utf-8"?>
<!-- Generator: Adobe Illustrator 19.1.1, SVG Export Plug-In . SVG Version: 6.00 Build 0)  -->
<svg version="1.1" xmlns="http://www.w3.org/2000/svg" xmlns:xlink="http://www.w3.org/1999/xlink" x="0px" y="0px"
	 viewBox="0 0 28.1 23" enable-background="new 0 0 28.1 23" xml:space="preserve">
<g id="IOS" display="none">
</g>
<g id="IOS_copy">
	<path d="M2.8,9.5l0.7,0.7l0,0l1.4,1.4L6.3,13L7,13.7l0,0l1.4,1.4l1.4,1.4l0.6,0.6C10.2,17.7,10,18.3,10,19c0,2.2,1.8,4,4,4
		s4-1.8,4-4c0-0.6-0.2-1.3-0.4-1.8l0.6-0.6l1.4-1.4l1.4-1.4l0,0l0.7-0.7l1.4-1.4l1.4-1.4l0,0l0.7-0.7L26.7,8l1.4-1.4l-1.4-1.4
		C23.3,1.9,18.8,0,14,0S4.8,1.9,1.4,5.2L0,6.6L1.4,8L2.8,9.5z"/>
</g>
</svg>
