<?xml version="1.0" encoding="utf-8"?>
<!-- Generator: Adobe Illustrator 19.1.1, SVG Export Plug-In . SVG Version: 6.00 Build 0)  -->
<svg version="1.1" xmlns="http://www.w3.org/2000/svg" xmlns:xlink="http://www.w3.org/1999/xlink" x="0px" y="0px"
	 viewBox="0 0 26.5 26.5" enable-background="new 0 0 26.5 26.5" xml:space="preserve">
<g id="IOS" display="none">
</g>
<g id="IOS_copy">
	<path d="M24.7,8.9l-7-7l-1-1C16.1,0.3,15.3,0,14.5,0c-0.8,0-1.6,0.3-2.1,0.9c-0.6,0.6-0.9,1.3-0.9,2.1c0,0.3,0.1,0.7,0.2,1
		c-1.3,1.8-2.1,3.7-2.6,4.9L8,9.4C7.6,9.1,7.1,9,6.5,9C5.7,9,5,9.3,4.4,9.9c-0.6,0.6-0.9,1.3-0.9,2.1s0.3,1.6,0.9,2.1l1,1L6.3,16
		l-4.9,4.9L0,22.3l1.4,1.4l1.4,1.4l1.4,1.4l1.4-1.4l4.9-4.9l0.9,0.9l1,1c0.6,0.6,1.3,0.9,2.1,0.9s1.6-0.3,2.1-0.9
		c1-1,1.1-2.5,0.5-3.6l0.5-1.1c1.2-0.5,3.1-1.3,4.9-2.6c0.3,0.1,0.6,0.2,1,0.2c0.8,0,1.6-0.3,2.1-0.9c1.2-1.2,1.2-3.1,0-4.2
		L24.7,8.9z"/>
</g>
</svg>
