<?xml version="1.0" encoding="utf-8"?>
<!-- Generator: Adobe Illustrator 19.1.1, SVG Export Plug-In . SVG Version: 6.00 Build 0)  -->
<svg version="1.1" xmlns="http://www.w3.org/2000/svg" xmlns:xlink="http://www.w3.org/1999/xlink" x="0px" y="0px"
	 viewBox="0 0 30 26" enable-background="new 0 0 30 26" xml:space="preserve">
<g id="IOS" display="none">
</g>
<g id="IOS_copy">
	<path d="M28.8,8.1l-10-7.5C18.3,0.2,17.6,0,17,0c-0.5,0-0.9,0.1-1.3,0.3C14.6,0.8,14,1.9,14,3v2.1c-3.9,0.5-7.1,2.1-9.5,4.6
		C-0.4,15,0,22.4,0,23.2C0.1,24.8,1.4,26,3,26h0l0.1,0C4.7,26,6,24.7,6,23.1c0-0.6,0.4-5.8,8-6.9v1.7c0,1.1,0.6,2.2,1.6,2.7
		c0.4,0.2,0.9,0.3,1.4,0.3c0.6,0,1.3-0.2,1.8-0.6l10-7.3c0.8-0.6,1.2-1.5,1.2-2.4C30,9.5,29.6,8.6,28.8,8.1z M17.3,2.1
		C17.3,2,17.3,2,17.3,2.1C17.3,2,17.3,2,17.3,2.1z M17,2C17,2,17,2,17,2C17,2,17,2,17,2C17,2,17,2,17,2z M17,18.8
		C17,18.8,17,18.8,17,18.8C17,18.8,17,18.8,17,18.8C17,18.8,17,18.8,17,18.8z M17.2,18.7C17.3,18.7,17.3,18.7,17.2,18.7
		C17.3,18.7,17.3,18.7,17.2,18.7z"/>
</g>
</svg>
