<?xml version="1.0" encoding="utf-8"?>
<!-- Generator: Adobe Illustrator 19.1.1, SVG Export Plug-In . SVG Version: 6.00 Build 0)  -->
<svg version="1.1" xmlns="http://www.w3.org/2000/svg" xmlns:xlink="http://www.w3.org/1999/xlink" x="0px" y="0px"
	 viewBox="0 0 26 26" enable-background="new 0 0 26 26" xml:space="preserve">
<g id="IOS" display="none">
</g>
<g id="IOS_copy">
	<path d="M19.9,0c-1.6,0-3.2,0.6-4.3,1.8l-0.7,0.7l-1.4,1.4l0,0L2.6,14.9c-0.4,0.4-0.6,0.8-0.8,1.3l-1.7,6c-0.3,1,0,2.2,0.7,2.9
		C1.4,25.7,2.2,26,3,26c0.3,0,0.5,0,0.8-0.1l6-1.6c0.5-0.1,1-0.4,1.3-0.8l12.7-12.6c0.2-0.2,0.3-0.4,0.4-0.6c2.3-2.4,2.3-6.2,0-8.6
		C23.1,0.6,21.5,0,19.9,0z"/>
</g>
</svg>
