<?xml version="1.0" encoding="utf-8"?>
<!-- Generator: Adobe Illustrator 19.1.1, SVG Export Plug-In . SVG Version: 6.00 Build 0)  -->
<svg version="1.1" xmlns="http://www.w3.org/2000/svg" xmlns:xlink="http://www.w3.org/1999/xlink" x="0px" y="0px"
	 viewBox="0 0 30 26" enable-background="new 0 0 30 26" xml:space="preserve">
<g id="IOS" display="none">
</g>
<g id="IOS_copy">
	<path d="M16,5.1V3c0-1.1-0.6-2.2-1.7-2.7C13.9,0.1,13.5,0,13,0h0c-0.6,0-1.3,0.2-1.8,0.6l-10,7.5C0.4,8.6,0,9.5,0,10.5
		c0,0.9,0.5,1.8,1.2,2.4l10,7.3c0.5,0.4,1.1,0.6,1.8,0.6c0.5,0,0.9-0.1,1.4-0.3c1-0.5,1.6-1.5,1.6-2.7v-1.7c7.6,1.1,8,6.3,8,6.9
		c0,1.6,1.3,2.9,2.9,2.9l0,0h0c1.6,0,2.9-1.2,3-2.8c0.1-0.8,0.4-8.2-4.5-13.5C23.1,7.1,19.9,5.6,16,5.1z M13,2C13,2,13,2,13,2
		C13,2,13,2,13,2C13,2,13,2,13,2z M12.8,2C12.7,2,12.7,2,12.8,2C12.7,2,12.7,2,12.8,2z M12.7,18.7C12.7,18.7,12.7,18.7,12.7,18.7
		C12.7,18.7,12.7,18.7,12.7,18.7z M13,18.8C13,18.8,13,18.8,13,18.8C13,18.8,13,18.8,13,18.8C13,18.8,13,18.8,13,18.8z"/>
</g>
</svg>
