<?xml version="1.0" encoding="utf-8"?>
<!-- Generator: Adobe Illustrator 19.1.1, SVG Export Plug-In . SVG Version: 6.00 Build 0)  -->
<svg version="1.1" xmlns="http://www.w3.org/2000/svg" xmlns:xlink="http://www.w3.org/1999/xlink" x="0px" y="0px"
	 viewBox="0 0 26 25" enable-background="new 0 0 26 25" xml:space="preserve">
<g id="IOS" display="none">
</g>
<g id="IOS_copy">
	<path d="M23.2,7.3L17.7,7l-2-5.1C15.4,0.8,14.2,0,13,0c-1.2,0-2.4,0.8-2.8,1.9L8.2,7L2.8,7.3C1.6,7.3,0.5,8.2,0.1,9.3
		c-0.4,1.2,0,2.5,1,3.3L5.3,16l-1.4,5.2c-0.3,1.2,0.1,2.5,1.1,3.2C5.6,24.8,6.2,25,6.8,25c0.6,0,1.1-0.2,1.6-0.5l4.5-2.9l4.6,2.9
		c0.5,0.3,1,0.5,1.6,0.5c0.6,0,1.2-0.2,1.8-0.6c1-0.7,1.5-2,1.1-3.2L20.7,16l4.2-3.4c1-0.8,1.3-2.1,1-3.3
		C25.5,8.2,24.4,7.3,23.2,7.3z M19,23c0.1,0,0.1,0,0.2,0c0,0,0,0,0,0C19.1,23,19.1,23,19,23z M18.6,22.8c0.1,0.1,0.2,0.1,0.3,0.1
		C18.8,22.9,18.7,22.9,18.6,22.8z M19.4,23c0,0,0.1,0,0.1,0C19.5,23,19.4,23,19.4,23z"/>
</g>
</svg>
