<?xml version="1.0" encoding="utf-8"?>
<!-- Generator: Adobe Illustrator 19.1.1, SVG Export Plug-In . SVG Version: 6.00 Build 0)  -->
<svg version="1.1" xmlns="http://www.w3.org/2000/svg" xmlns:xlink="http://www.w3.org/1999/xlink" x="0px" y="0px"
	 viewBox="0 0 22 26" enable-background="new 0 0 22 26" xml:space="preserve">
<g id="IOS" display="none">
</g>
<g id="IOS_copy">
	<path d="M14.8,2.9C14.3,1.2,12.8,0,11,0C9.2,0,7.7,1.2,7.2,2.9C4.1,4.3,2,7.5,2,11v4.2c0,0.5-0.2,1.1-0.5,1.7l-1,1.5
		c-0.6,0.9-0.7,2.1-0.1,3.1C0.9,22.4,1.9,23,3,23h3.4c0.8,1.8,2.5,3,4.6,3s3.8-1.2,4.6-3H19c1.1,0,2.1-0.6,2.6-1.6
		c0.5-1,0.5-2.2-0.1-3.1l-0.9-1.4c-0.4-0.6-0.5-1.2-0.5-1.7V11C20,7.5,17.9,4.3,14.8,2.9z"/>
</g>
</svg>
