<?xml version="1.0" encoding="utf-8"?>
<!-- Generator: Adobe Illustrator 19.1.1, SVG Export Plug-In . SVG Version: 6.00 Build 0)  -->
<svg version="1.1" xmlns="http://www.w3.org/2000/svg" xmlns:xlink="http://www.w3.org/1999/xlink" x="0px" y="0px"
	 viewBox="0 0 26 26" enable-background="new 0 0 26 26" xml:space="preserve">
<g id="IOS" display="none">
</g>
<g id="IOS_copy">
	<polygon points="26,16.6 26,15 26,10.8 26,9.1 24.3,8.8 23.2,8.6 23.8,7.7 24.8,6.3 23.6,5.1 20.7,2.3 19.5,1 18.1,2.1 17.3,2.7 
		17.1,1.7 16.8,0 15.1,0 11,0 9.3,0 9,1.7 8.8,2.7 7.9,2.1 6.5,1.1 5.3,2.3 2.3,5.3 1.1,6.4 2.1,7.8 2.7,8.7 1.7,8.8 0,9.1 0,10.8 
		0,15 0,16.7 1.7,17 2.7,17.1 2.1,18.1 1.1,19.5 2.3,20.7 5.3,23.6 6.4,24.8 7.8,23.9 8.8,23.2 9,24.3 9.3,26 11,26 15.1,26 
		16.8,26 17.1,24.3 17.3,23.2 18.3,23.9 19.7,24.8 20.8,23.6 23.8,20.6 25.1,19.4 24,18 23.4,17.1 24.4,16.9 	"/>
</g>
</svg>
