<?xml version="1.0" encoding="utf-8"?>
<!-- Generator: Adobe Illustrator 19.1.1, SVG Export Plug-In . SVG Version: 6.00 Build 0)  -->
<svg version="1.1" xmlns="http://www.w3.org/2000/svg" xmlns:xlink="http://www.w3.org/1999/xlink" x="0px" y="0px"
	 viewBox="0 0 23 26" enable-background="new 0 0 23 26" xml:space="preserve">
<g id="IOS" display="none">
</g>
<g id="IOS_copy">
	<path d="M0,19c0.2,2.4,0.4,3,0.5,3.6l0,0.2C1,24.7,2.6,26,4.4,26h14.3c2.4,0,4.3-1.8,4.3-4.3V10c0-1.9-1.2-3.4-3.1-4
		c-0.3-0.1-0.6-0.1-0.9-0.1c-0.1,0-0.2,0-0.3,0c0,0-0.6,0.1-1.4,0.1c0-0.1,0-0.2,0-0.3c0-3.2-2.6-5.7-5.8-5.7C8.4,0,5.8,2.6,5.8,5.7
		c0,0.1,0,0.2,0,0.3C5.5,6,5.2,6,4.9,5.9c0,0,0,0,0,0c-0.2,0-0.4,0-0.6,0c-0.8,0-1.6,0.3-2.2,0.7C1.5,7.1,0.7,7.9,0.5,9.5
		C0.4,10,0.3,11.3,0,14.3c-0.1,0.5,0,0.9,0,1.1c0.1,0.5,0.2,0.9,0.4,1.2c-0.1,0.1-0.1,0.3-0.2,0.4C0,17.7,0,18.5,0,19z M3.9,16.2
		C3.9,16.2,3.9,16.2,3.9,16.2C3.9,16.2,3.9,16.2,3.9,16.2z M4.2,16C4.2,16,4.2,16,4.2,16C4.2,16,4.2,16,4.2,16z"/>
</g>
</svg>
