<?xml version="1.0" encoding="utf-8"?>
<!-- Generator: Adobe Illustrator 19.1.1, SVG Export Plug-In . SVG Version: 6.00 Build 0)  -->
<svg version="1.1" xmlns="http://www.w3.org/2000/svg" xmlns:xlink="http://www.w3.org/1999/xlink" x="0px" y="0px"
	 viewBox="0 0 25.9 24" enable-background="new 0 0 25.9 24" xml:space="preserve">
<g id="IOS" display="none">
</g>
<g id="IOS_copy">
	<path d="M25.7,1.8C25.2,0.7,24.1,0,22.9,0H20c-2,0-3.7,0.8-5,2.1l-2.6,2.7c-0.3-0.7-0.7-1.3-1.2-1.8L9.8,1.7C8.7,0.6,7.3,0,5.7,0
		c-1.5,0-3,0.6-4.1,1.7C0.6,2.8,0,4.2,0,5.8c0,1.5,0.6,3,1.7,4.1L3,11.2c0.3,0.3,0.7,0.6,1.1,0.8c-0.4,0.2-0.7,0.5-1.1,0.8l-1.4,1.4
		C0.6,15.3,0,16.7,0,18.2c0,1.5,0.6,3,1.7,4.1C2.8,23.4,4.2,24,5.7,24c1.5,0,3-0.6,4.1-1.7l1.4-1.4c0.5-0.5,0.9-1.1,1.2-1.8l2.6,2.7
		c1.3,1.4,3.1,2.2,5,2.2h2.9c1.2,0,2.3-0.7,2.8-1.8c0.5-1.1,0.2-2.4-0.6-3.3L18.4,12l6.7-6.9C25.9,4.2,26.2,2.9,25.7,1.8z"/>
</g>
</svg>
