<?xml version="1.0" encoding="utf-8"?>
<!-- Generator: Adobe Illustrator 19.1.1, SVG Export Plug-In . SVG Version: 6.00 Build 0)  -->
<svg version="1.1" xmlns="http://www.w3.org/2000/svg" xmlns:xlink="http://www.w3.org/1999/xlink" x="0px" y="0px"
	 viewBox="0 0 24 25" enable-background="new 0 0 24 25" xml:space="preserve">
<g id="IOS" display="none">
</g>
<g id="IOS_copy">
	<path d="M12,25c6.6,0,12-5.4,12-12c0-0.9-0.4-1.7-1-2.3V10V3c0-1.7-1.3-3-3-3c-1.4,0-2.6,0.9-2.9,2.2C15.5,1.4,13.8,1,12,1
		C5.4,1,0,6.4,0,13S5.4,25,12,25z M11.8,7C11.3,7.6,11,8.2,11,9c0,1.7,1.3,3,3,3h4.2c-0.1,0.3-0.2,0.6-0.2,1c0,3.3-2.7,6-6,6
		c-3.3,0-6-2.7-6-6C6,9.8,8.6,7.2,11.8,7z"/>
</g>
</svg>
