<?xml version="1.0" encoding="utf-8"?>
<!-- Generator: Adobe Illustrator 19.1.1, SVG Export Plug-In . SVG Version: 6.00 Build 0)  -->
<svg version="1.1" xmlns="http://www.w3.org/2000/svg" xmlns:xlink="http://www.w3.org/1999/xlink" x="0px" y="0px"
	 viewBox="0 0 26.9 27" enable-background="new 0 0 26.9 27" xml:space="preserve">
<g id="IOS" display="none">
</g>
<g id="IOS_copy">
	<path d="M3,27h4.9c0.8,0,1.5-0.3,2.1-0.8l0.1-0.1h1.8c1.7,0,3-1.3,3-3c1.7,0,3-1.3,3-3V20c5-0.5,9-4.8,9-10c0-5.5-4.5-10-10-10
		s-10,4.5-10,10c0,0.3,0,0.5,0,0.8l-6.1,6.1C0.3,17.4,0,18.2,0,19v5C0,25.7,1.3,27,3,27z"/>
</g>
</svg>
