<?xml version="1.0" encoding="utf-8"?>
<!-- Generator: Adobe Illustrator 19.1.1, SVG Export Plug-In . SVG Version: 6.00 Build 0)  -->
<svg version="1.1" xmlns="http://www.w3.org/2000/svg" xmlns:xlink="http://www.w3.org/1999/xlink" x="0px" y="0px"
	 viewBox="0 0 23.2 24" enable-background="new 0 0 23.2 24" xml:space="preserve">
<g id="IOS" display="none">
</g>
<g id="IOS_copy">
	<path d="M10.9,17.1c0.6,0.6,1.3,0.9,2.1,0.9c0.8,0,1.6-0.3,2.1-0.9l6.7-6.7L23.2,9l-1.4-1.4l-6.7-6.7C14.6,0.3,13.8,0,13,0
		s-1.6,0.3-2.1,0.9C9.7,2,9.7,4,10.9,5.1L11.8,6H8c-4.8,0-8,3.2-8,8v7c0,1.7,1.3,3,3,3s3-1.3,3-3v-7c0-1.4,0.6-2,2-2h3.8l-0.9,0.9
		C9.7,14,9.7,16,10.9,17.1z"/>
</g>
</svg>
