<?xml version="1.0" encoding="utf-8"?>
<!-- Generator: Adobe Illustrator 19.1.1, SVG Export Plug-In . SVG Version: 6.00 Build 0)  -->
<svg version="1.1" xmlns="http://www.w3.org/2000/svg" xmlns:xlink="http://www.w3.org/1999/xlink" x="0px" y="0px"
	 viewBox="0 0 23.2 24" enable-background="new 0 0 23.2 24" xml:space="preserve">
<g id="IOS" display="none">
</g>
<g id="IOS_copy">
	<path d="M12.4,0.9C11.8,0.3,11,0,10.2,0S8.7,0.3,8.1,0.9L1.4,7.6L0,9l1.4,1.4l6.7,6.7c0.6,0.6,1.3,0.9,2.1,0.9
		c0.8,0,1.6-0.3,2.1-0.9c1.2-1.2,1.2-3.1,0-4.2L11.5,12h3.8c1.4,0,2,0.6,2,2v7c0,1.7,1.3,3,3,3s3-1.3,3-3v-7c0-4.8-3.2-8-8-8h-3.8
		l0.9-0.9C13.5,4,13.5,2,12.4,0.9z"/>
</g>
</svg>
