<?xml version="1.0" encoding="utf-8"?>
<!-- Generator: Adobe Illustrator 19.1.1, SVG Export Plug-In . SVG Version: 6.00 Build 0)  -->
<svg version="1.1" xmlns="http://www.w3.org/2000/svg" xmlns:xlink="http://www.w3.org/1999/xlink" x="0px" y="0px"
	 viewBox="0 0 30 18" enable-background="new 0 0 30 18" xml:space="preserve">
<g id="IOS" display="none">
</g>
<g id="IOS_copy">
	<path d="M29.3,8.3l-1.8-2.1c0.7-1,1.1-1.7,1.2-1.8c0.8-1.5,0.2-3.3-1.2-4.1C27,0.1,26.5,0,26,0c-1.1,0-2.1,0.6-2.6,1.6
		c0,0-3.1,5.4-8.4,5.4C9.8,7,6.7,1.6,6.6,1.5C6.1,0.6,5.1,0,4,0C3.5,0,3,0.1,2.6,0.4C1.1,1.2,0.6,3,1.4,4.4c0.1,0.1,0.5,0.8,1.2,1.8
		L0.7,8.3C0.2,8.9,0,9.7,0,10.5c0.1,0.8,0.4,1.5,1,2.1c0.5,0.5,1.2,0.7,2,0.7c0.2,0,0.4,0,0.5,0C3.7,14,4.2,14.8,5,15.3
		c0.5,0.3,1,0.4,1.5,0.4c0.4,0,0.8-0.1,1.2-0.3c0.3,0.9,1,1.7,2,2c0.3,0.1,0.6,0.1,0.9,0.1c0.8,0,1.5-0.3,2-0.8
		C13.1,17.5,14,18,15,18s1.9-0.5,2.4-1.2c0.5,0.5,1.2,0.8,2,0.8c0.3,0,0.6,0,0.9-0.1c1-0.3,1.7-1.1,2-2c0.4,0.2,0.8,0.3,1.2,0.3
		c0.5,0,1.1-0.1,1.5-0.4c0.7-0.4,1.2-1.1,1.4-1.8c0-0.1,0-0.2,0-0.2c0.2,0,0.4,0,0.5,0c0.7,0,1.4-0.3,2-0.7c0.6-0.5,1-1.2,1-2
		C30,9.7,29.8,8.9,29.3,8.3z"/>
</g>
</svg>
