<?xml version="1.0" encoding="utf-8"?>
<!-- Generator: Adobe Illustrator 19.1.1, SVG Export Plug-In . SVG Version: 6.00 Build 0)  -->
<svg version="1.1" xmlns="http://www.w3.org/2000/svg" xmlns:xlink="http://www.w3.org/1999/xlink" x="0px" y="0px"
	 viewBox="0 0 26 26" enable-background="new 0 0 26 26" xml:space="preserve">
<g id="IOS" display="none">
</g>
<g id="IOS_copy">
	<path d="M24.3,16.4L24.3,16.4L24.3,16.4c-3.1-2.7-6.1-5.4-7.6-6.9c0.7-2.5,0-5.1-1.9-7l-0.3-0.3C12.4,0,8.6,0,7,0h0h0h0
		C5.8,0,4.7,0.7,4.2,1.8C3.9,2.7,3.9,3.6,4.4,4.4C3.9,4.1,3.5,4,3,4C2.6,4,2.2,4.1,1.8,4.2C0.7,4.7,0,5.7,0,6.9
		c0,2.5,0.2,5.6,2.2,7.6l0.3,0.3c1.4,1.4,3.2,2.1,5.1,2.1c0.6,0,1.2-0.1,1.9-0.3l6.9,7.6l0,0l0,0c1,1,2.5,1.6,4,1.6
		c1.5,0,2.8-0.6,3.9-1.6c1.3-1.3,1.9-3,1.6-4.7C25.7,18.4,25.1,17.2,24.3,16.4z M3,6C3,6,2.9,6,3,6C2.9,6,2.9,6,3,6C3,6,3,6,3,6z
		 M3.3,6.1C3.3,6.1,3.3,6.1,3.3,6.1C3.3,6.1,3.3,6.1,3.3,6.1z"/>
</g>
</svg>
