<?xml version="1.0" encoding="utf-8"?>
<!-- Generator: Adobe Illustrator 19.1.1, SVG Export Plug-In . SVG Version: 6.00 Build 0)  -->
<svg version="1.1" xmlns="http://www.w3.org/2000/svg" xmlns:xlink="http://www.w3.org/1999/xlink" x="0px" y="0px"
	 viewBox="0 0 28.5 28.5" enable-background="new 0 0 28.5 28.5" xml:space="preserve">
<g id="IOS" display="none">
</g>
<g id="IOS_copy">
	<path d="M27.1,12.8l-0.7-0.7l-3-3c-0.6-0.6-1.3-0.9-2.1-0.9c-0.5,0-0.9,0.1-1.3,0.3c0.2-0.4,0.3-0.8,0.3-1.3c0-0.8-0.3-1.6-0.9-2.1
		l-3-3l-0.7-0.7L14.2,0l-1.4,1.4l-0.7,0.7l-3,3C8.6,5.7,8.2,6.4,8.2,7.2c0,0.5,0.1,0.9,0.3,1.3C8.1,8.3,7.7,8.2,7.2,8.2
		c-0.8,0-1.6,0.3-2.1,0.9l-3.7,3.7L0,14.2l1.4,1.4l3.7,3.7c0.6,0.6,1.3,0.9,2.1,0.9c0.5,0,0.9-0.1,1.3-0.3c-0.2,0.4-0.3,0.8-0.3,1.3
		c0,0.8,0.3,1.6,0.9,2.1l3.7,3.7l1.4,1.4l1.4-1.4l3.7-3.7c0.6-0.6,0.9-1.3,0.9-2.1c0-0.5-0.1-0.9-0.3-1.3c0.4,0.2,0.8,0.3,1.3,0.3
		c0.8,0,1.6-0.3,2.1-0.9l3-3l0.7-0.7l1.4-1.4L27.1,12.8z"/>
</g>
</svg>
