<?xml version="1.0" encoding="utf-8"?>
<!-- Generator: Adobe Illustrator 19.1.1, SVG Export Plug-In . SVG Version: 6.00 Build 0)  -->
<svg version="1.1" xmlns="http://www.w3.org/2000/svg" xmlns:xlink="http://www.w3.org/1999/xlink" x="0px" y="0px"
	 viewBox="0 0 22 22" enable-background="new 0 0 22 22" xml:space="preserve">
<g id="IOS" display="none">
</g>
<g id="IOS_copy">
	<path d="M0,19c0,0.8,0.3,1.6,0.9,2.1C1.4,21.7,2.2,22,3,22s1.6-0.3,2.1-0.9l5.9-5.9l5.9,5.9c0.6,0.6,1.3,0.9,2.1,0.9
		s1.6-0.3,2.1-0.9c0.6-0.6,0.9-1.3,0.9-2.1s-0.3-1.6-0.9-2.1L15.2,11l5.9-5.9C21.7,4.6,22,3.8,22,3s-0.3-1.6-0.9-2.1
		C20.6,0.3,19.8,0,19,0s-1.6,0.3-2.1,0.9L11,6.8L5.1,0.9C4.6,0.3,3.8,0,3,0S1.4,0.3,0.9,0.9C0.3,1.4,0,2.2,0,3s0.3,1.6,0.9,2.1
		L6.8,11l-5.9,5.9C0.3,17.4,0,18.2,0,19z"/>
</g>
</svg>
