<?xml version="1.0" encoding="utf-8"?>
<!-- Generator: Adobe Illustrator 19.1.1, SVG Export Plug-In . SVG Version: 6.00 Build 0)  -->
<svg version="1.1" xmlns="http://www.w3.org/2000/svg" xmlns:xlink="http://www.w3.org/1999/xlink" x="0px" y="0px"
	 viewBox="0 0 26 23.9" enable-background="new 0 0 26 23.9" xml:space="preserve">
<g id="IOS" display="none">
</g>
<g id="IOS_copy">
	<path d="M17.5,0c-1.6,0-3.2,0.5-4.5,1.3C11.7,0.5,10.1,0,8.5,0C3.8,0,0,3.8,0,8.4C0,14.9,5.7,18.7,9.1,21c0.8,0.5,1.5,1,2,1.4
		l0.6,0.5l1.3,1l1.3-1l0.6-0.5c0.5-0.4,1.1-0.8,2-1.4c3.4-2.3,9.1-6,9.1-12.6C26,3.8,22.2,0,17.5,0z"/>
</g>
</svg>
