<?xml version="1.0" encoding="iso-8859-1"?>
<!-- Generator: Adobe Illustrator 22.0.1, SVG Export Plug-In . SVG Version: 6.00 Build 0)  -->
<svg version="1.1" id="Layer_1" xmlns="http://www.w3.org/2000/svg" xmlns:xlink="http://www.w3.org/1999/xlink" x="0px" y="0px"
	 viewBox="0 0 18 18" style="enable-background:new 0 0 18 18;" xml:space="preserve">
<g>
	<g>
		<polygon style="fill:#BAE0BD;" points="7.5,17.5 7.5,10.5 0.5,10.5 0.5,7.5 7.5,7.5 7.5,0.5 10.5,0.5 10.5,7.5 17.5,7.5 
			17.5,10.5 10.5,10.5 10.5,17.5 		"/>
	</g>
	<g>
		<path style="fill:#5E9C76;" d="M10,1v6v1h1h6v2h-6h-1v1v6H8v-6v-1H7H1V8h6h1V7V1H10 M11,0H7v7H0v4h7v7h4v-7h7V7h-7V0L11,0z"/>
	</g>
</g>
</svg>
