<?xml version="1.0" encoding="utf-8"?>
<!-- Generator: Adobe Illustrator 21.0.2, SVG Export Plug-In . SVG Version: 6.00 Build 0)  -->
<svg version="1.1" id="Layer_1" xmlns="http://www.w3.org/2000/svg" xmlns:xlink="http://www.w3.org/1999/xlink" x="0px" y="0px"
	 viewBox="0 0 18 18" style="enable-background:new 0 0 18 18;" xml:space="preserve">
<g>
	<circle style="fill:#F78F8F;" cx="9" cy="9" r="8.5"/>
	<g>
		<path style="fill:#C74343;" d="M9,1c4.4,0,8,3.6,8,8s-3.6,8-8,8s-8-3.6-8-8S4.6,1,9,1 M9,0C4,0,0,4,0,9s4,9,9,9s9-4,9-9S14,0,9,0
			L9,0z"/>
	</g>
</g>
<rect x="4.1" y="8" transform="matrix(0.7071 -0.7071 0.7071 0.7071 -3.7279 9)" style="fill:#FFFFFF;" width="9.9" height="2"/>
<rect x="8" y="4.1" transform="matrix(0.7071 -0.7071 0.7071 0.7071 -3.7279 9)" style="fill:#FFFFFF;" width="2" height="9.9"/>
</svg>
