<?xml version="1.0" encoding="iso-8859-1"?>
<!-- Generator: Adobe Illustrator 22.0.1, SVG Export Plug-In . SVG Version: 6.00 Build 0)  -->
<svg version="1.1" id="Layer_1" xmlns="http://www.w3.org/2000/svg" xmlns:xlink="http://www.w3.org/1999/xlink" x="0px" y="0px"
	 viewBox="0 0 18 18" style="enable-background:new 0 0 18 18;" xml:space="preserve">
<g>
	<g>
		<polygon style="fill:#F78F8F;" points="9,11.384 3.591,16.793 1.207,14.409 6.616,9 1.207,3.591 3.591,1.207 9,6.616 
			14.409,1.207 16.793,3.591 11.384,9 16.793,14.409 14.409,16.793 		"/>
	</g>
	<g>
		<path style="fill:#C74343;" d="M14.409,1.914l1.677,1.677l-4.702,4.702L10.677,9l0.707,0.707l4.702,4.702l-1.677,1.677
			l-4.702-4.702L9,10.677l-0.707,0.707l-4.702,4.702l-1.677-1.677l4.702-4.702L7.323,9L6.616,8.293L1.914,3.591l1.677-1.677
			l4.702,4.702L9,7.323l0.707-0.707L14.409,1.914 M14.409,0.5L9,5.909L3.591,0.5L0.5,3.591L5.909,9L0.5,14.409L3.591,17.5L9,12.091
			l5.409,5.409l3.091-3.091L12.091,9L17.5,3.591L14.409,0.5L14.409,0.5z"/>
	</g>
</g>
</svg>
