<?xml version="1.0" encoding="iso-8859-1"?>
<!-- Generator: Adobe Illustrator 22.0.1, SVG Export Plug-In . SVG Version: 6.00 Build 0)  -->
<svg version="1.1" id="Layer_1" xmlns="http://www.w3.org/2000/svg" xmlns:xlink="http://www.w3.org/1999/xlink" x="0px" y="0px"
	 viewBox="0 0 18 18" style="enable-background:new 0 0 18 18;" xml:space="preserve">
<g>
	<polygon style="fill:#F5CE85;" points="2.265,12.672 3.931,11.006 7.216,13.867 5.346,15.736 0.78,17.221 	"/>
	<path style="fill:#967A44;" d="M3.954,11.689l2.529,2.203l-1.406,1.406l-3.516,1.143l1.142-3.501L3.954,11.689 M3.907,10.322
		l-2.081,2.081L0,18l5.614-1.825l2.334-2.334L3.907,10.322L3.907,10.322z"/>
</g>
<g>
	<polygon style="fill:#36404D;" points="1.061,14.756 0.002,18.002 3.258,16.943 	"/>
</g>
<g>
	<path style="fill:#F78F8F;" d="M12.906,2.018l0.885-0.884c0.41-0.411,0.955-0.636,1.536-0.636c0.58,0,1.126,0.226,1.536,0.636
		c0.848,0.847,0.848,2.226,0,3.073l-0.884,0.884L12.906,2.018z"/>
	<g>
		<path style="fill:#C74343;" d="M15.327,0.998c0.447,0,0.867,0.174,1.183,0.49C16.826,1.804,17,2.224,17,2.671
			c0,0.447-0.174,0.867-0.49,1.183l-0.53,0.53l-2.366-2.366l0.53-0.53C14.46,1.172,14.88,0.998,15.327,0.998 M15.327-0.002
			c-0.684,0-1.368,0.261-1.89,0.783L12.2,2.018l3.78,3.78l1.237-1.237c1.044-1.044,1.044-2.736,0-3.78v0
			C16.695,0.259,16.011-0.002,15.327-0.002L15.327-0.002z"/>
	</g>
</g>
<g>
	<path style="fill:#FFEEA3;" d="M5.893,15.189c-0.034-0.055-0.073-0.108-0.118-0.161c-0.221-0.258-0.522-0.424-0.9-0.495
		c-0.176-0.793-0.803-1.211-1.384-1.36c-0.103-0.474-0.373-0.809-0.713-1.015l8.516-8.525l3.073,3.073L5.893,15.189z"/>
	<g>
		<path style="fill:#BA9B48;" d="M11.293,4.34l2.366,2.366l-7.75,7.759c-0.161-0.131-0.368-0.254-0.631-0.342
			c-0.255-0.704-0.813-1.132-1.383-1.346c-0.091-0.248-0.223-0.463-0.385-0.645L11.293,4.34 M11.293,2.925l-9.466,9.478
			c0,0,0.005,0,0.015,0c0.137,0,1.194,0.038,1.194,1.205c0,0,1.388,0.043,1.388,1.386c1.38,0,1.191,1.182,1.191,1.182l9.459-9.47
			L11.293,2.925L11.293,2.925z"/>
	</g>
</g>
<g>
	
		<rect x="11.891" y="2.308" transform="matrix(0.7071 -0.7071 0.7071 0.7071 0.791 10.8707)" style="fill:#D9E7F5;" width="3.254" height="4.346"/>
	<g>
		<path style="fill:#788B9C;" d="M13.131,2.501l2.366,2.366L13.904,6.46l-2.366-2.366L13.131,2.501 M13.131,1.086l-3.008,3.008
			l3.78,3.78l3.008-3.008L13.131,1.086L13.131,1.086z"/>
	</g>
</g>
</svg>
