<?xml version="1.0" encoding="iso-8859-1"?>
<!-- Generator: Adobe Illustrator 22.0.1, SVG Export Plug-In . SVG Version: 6.00 Build 0)  -->
<svg version="1.1" id="Layer_1" xmlns="http://www.w3.org/2000/svg" xmlns:xlink="http://www.w3.org/1999/xlink" x="0px" y="0px"
	 viewBox="0 0 18 18" style="enable-background:new 0 0 18 18;" xml:space="preserve">
<g>
	<g>
		<path style="fill:#8BB7F0;" d="M9,17.5c-4.687,0-8.5-3.813-8.5-8.5S4.313,0.5,9,0.5c2.264,0,4.396,0.887,6.003,2.497l0.354,0.354
			L17.5,1.207V7.5h-6.293l2.024-2.024l-0.353-0.354C11.835,4.076,10.458,3.5,9,3.5C5.968,3.5,3.5,5.967,3.5,9s2.468,5.5,5.5,5.5
			c2.071,0,3.958-1.167,4.895-3h3.226C16.033,15.063,12.779,17.5,9,17.5z"/>
	</g>
	<g>
		<path style="fill:#4E7AB5;" d="M9,1c2.131,0,4.137,0.835,5.649,2.35l0.707,0.709l0.708-0.708L17,2.414V7h-4.586l0.817-0.817
			l0.706-0.706L13.232,4.77C12.094,3.629,10.591,3,9,3C5.692,3,3,5.692,3,9s2.692,6,6,6c2.155,0,4.127-1.158,5.191-3h2.223
			c-1.199,2.998-4.091,5-7.414,5c-4.411,0-8-3.589-8-8S4.589,1,9,1 M18,0l-2.643,2.643C13.73,1.013,11.486,0,9,0
			C4.029,0,0,4.029,0,9c0,4.971,4.029,9,9,9c4.282,0,7.859-2.993,8.769-7h-4.191c-0.772,1.764-2.529,3-4.578,3c-2.761,0-5-2.239-5-5
			s2.239-5,5-5c1.381,0,2.621,0.57,3.524,1.476L10,8h8V0L18,0z"/>
	</g>
</g>
</svg>
