<?xml version="1.0" encoding="iso-8859-1"?>
<!-- Generator: Adobe Illustrator 22.0.1, SVG Export Plug-In . SVG Version: 6.00 Build 0)  -->
<svg version="1.1" id="Layer_1" xmlns="http://www.w3.org/2000/svg" xmlns:xlink="http://www.w3.org/1999/xlink" x="0px" y="0px"
	 viewBox="0 0 18 18" style="enable-background:new 0 0 18 18;" xml:space="preserve">
<g>
	<polygon style="fill:#FFEEA3;" points="9,14.091 4.098,16.651 5.017,11.198 1.068,7.327 6.538,6.516 9,1.564 11.462,6.516 
		16.932,7.327 12.983,11.198 13.902,16.651 	"/>
	<path style="fill:#BA9B48;" d="M9,2.687l1.898,3.817l0.232,0.468l0.516,0.077l4.217,0.625l-3.044,2.984l-0.373,0.365l0.087,0.515
		l0.709,4.204l-3.779-1.973L9,13.527l-0.463,0.242l-3.779,1.973l0.709-4.204l0.087-0.515l-0.373-0.365L2.137,7.674l4.217-0.625
		L6.87,6.972l0.232-0.468L9,2.687 M9,0.44L6.207,6.059L0,6.979l4.481,4.393L3.438,17.56L9,14.655l5.562,2.904l-1.043-6.187L18,6.979
		l-6.207-0.92L9,0.44L9,0.44z"/>
</g>
</svg>
