<?xml version="1.0" encoding="iso-8859-1"?>
<!-- Generator: Adobe Illustrator 22.0.1, SVG Export Plug-In . SVG Version: 6.00 Build 0)  -->
<svg version="1.1" id="Layer_1" xmlns="http://www.w3.org/2000/svg" xmlns:xlink="http://www.w3.org/1999/xlink" x="0px" y="0px"
	 viewBox="0 0 18 16" style="enable-background:new 0 0 18 16;" xml:space="preserve">
<g>
	<path style="fill:#F78F8F;" d="M9.001,15.401C7.528,14.41,0.5,9.451,0.5,5.143C0.5,2.583,2.583,0.5,5.143,0.5
		c1.322,0,2.591,0.584,3.481,1.603L9,2.533l0.376-0.431C10.267,1.084,11.535,0.5,12.857,0.5c2.56,0,4.643,2.083,4.643,4.643
		C17.5,9.48,10.475,14.414,9.001,15.401z"/>
	<path style="fill:#C74343;" d="M12.857,1C15.142,1,17,2.858,17,5.143c0,3.514-5.348,7.864-7.999,9.66C6.35,12.997,1,8.632,1,5.143
		C1,2.858,2.858,1,5.143,1C6.32,1,7.452,1.522,8.247,2.432L9,3.293l0.753-0.861C10.548,1.522,11.68,1,12.857,1 M12.857,0
		C11.312,0,9.943,0.695,9,1.774C8.057,0.695,6.688,0,5.143,0C2.303,0,0,2.303,0,5.143C0,10.265,9,16,9,16s9-5.701,9-10.857
		C18,2.303,15.697,0,12.857,0L12.857,0z"/>
</g>
</svg>
