<?xml version="1.0" encoding="utf-8"?>
<!-- Generator: Adobe Illustrator 21.0.2, SVG Export Plug-In . SVG Version: 6.00 Build 0)  -->
<svg version="1.1" id="Layer_1" xmlns="http://www.w3.org/2000/svg" xmlns:xlink="http://www.w3.org/1999/xlink" x="0px" y="0px"
	 viewBox="0 0 18 18" style="enable-background:new 0 0 18 18;" xml:space="preserve">
<g>
	<g>
		<path style="fill:#F5CE85;" d="M2.2,17.5l-1.7-1.7v-1.2L5,10.1L4.7,9.8C4.4,9.2,4.4,8.4,4.9,7.9l0.6-0.6l0-0.2c0-0.2,0-0.4,0-0.5
			c0-3.3,2.7-6,6-6s6,2.7,6,6s-2.7,6-6,6c-0.2,0-0.4,0-0.5,0l-0.2,0l-0.6,0.6c-0.3,0.3-0.7,0.4-1.1,0.4c-0.3,0-0.6-0.1-0.8-0.2
			L7.9,13l-1.5,1.5H4.5v1.9l-1.1,1.1H2.2z"/>
	</g>
	<g>
		<path style="fill:#967A44;" d="M11.5,1c3,0,5.5,2.5,5.5,5.5S14.5,12,11.5,12c-0.2,0-0.3,0-0.5,0l-0.5,0l-0.3,0.3l-0.4,0.4
			C9.6,12.9,9.3,13,9.1,13c-0.2,0-0.4-0.1-0.5-0.2l-0.7-0.4L7.3,13l-1,1H5H4v1v1.2L3.2,17H2.4L1,15.6v-0.8l4-4l0.6-0.6L5.2,9.5
			C4.9,9.1,5,8.6,5.3,8.2l0.4-0.4l0.3-0.3L6,7c0-0.2,0-0.3,0-0.5C6,3.5,8.5,1,11.5,1 M11.5,0C7.9,0,5,2.9,5,6.5c0,0.2,0,0.4,0,0.6
			L4.6,7.5C3.9,8.2,3.8,9.3,4.3,10L0,14.4V16l2,2h1.6L5,16.6V15h1.6L8,13.7C8.3,13.9,8.7,14,9.1,14c0.5,0,1-0.2,1.4-0.6l0.4-0.4
			c0.2,0,0.4,0,0.6,0c3.6,0,6.5-2.9,6.5-6.5S15.1,0,11.5,0L11.5,0z"/>
	</g>
</g>
<g>
	<path style="fill:#967A44;" d="M14,9c1.4-1.4,1.4-3.6,0-4.9S10.4,2.7,9,4L14,9z"/>
</g>
<rect x="6.3" y="10.7" transform="matrix(0.707 -0.7072 0.7072 0.707 -6.5426 8.3784)" style="fill:#967A44;" width="1" height="2.8"/>
</svg>
