<?xml version="1.0" encoding="utf-8"?>
<!-- Generator: Adobe Illustrator 21.0.2, SVG Export Plug-In . SVG Version: 6.00 Build 0)  -->
<svg version="1.1" id="Layer_1" xmlns="http://www.w3.org/2000/svg" xmlns:xlink="http://www.w3.org/1999/xlink" x="0px" y="0px"
	 viewBox="0 0 18 18" style="enable-background:new 0 0 18 18;" xml:space="preserve">
<g>
	<g>
		<path style="fill:#4E7AB5;" d="M13.6,2c0.6,0,1.2,0.2,1.7,0.7c0.4,0.4,0.7,1,0.7,1.7s-0.2,1.2-0.7,1.7l-1.3,1.3
			C13.6,7.8,13,8,12.4,8s-1.2-0.2-1.7-0.7c-0.4-0.4-0.7-1-0.7-1.7s0.2-1.2,0.7-1.7l1.3-1.3C12.4,2.2,13,2,13.6,2 M13.6,0
			c-1.1,0-2.2,0.4-3.1,1.3c-0.4,0.4-0.8,0.8-1.3,1.3C7.6,4.2,7.6,7,9.3,8.7c0.9,0.9,2,1.3,3.1,1.3s2.2-0.4,3.1-1.3
			c0.4-0.4,0.8-0.8,1.3-1.3c1.7-1.7,1.7-4.5,0-6.2C15.9,0.4,14.7,0,13.6,0L13.6,0z"/>
	</g>
</g>
<g>
	<g>
		<path style="fill:#4E7AB5;" d="M5.6,10c0.6,0,1.2,0.2,1.7,0.7c0.4,0.4,0.7,1,0.7,1.7s-0.2,1.2-0.7,1.7l-1.3,1.3
			C5.6,15.8,5,16,4.4,16s-1.2-0.2-1.7-0.7c-0.4-0.4-0.7-1-0.7-1.7s0.2-1.2,0.7-1.7l1.3-1.3C4.4,10.2,5,10,5.6,10 M5.6,8
			C4.5,8,3.4,8.4,2.5,9.3c-0.4,0.4-0.8,0.8-1.3,1.3c-1.7,1.7-1.7,4.5,0,6.2c0.9,0.9,2,1.3,3.1,1.3s2.2-0.4,3.1-1.3
			c0.4-0.4,0.8-0.8,1.3-1.3c1.7-1.7,1.7-4.5,0-6.2C7.9,8.4,6.7,8,5.6,8L5.6,8z"/>
	</g>
</g>
<path style="fill:#4E7AB5;" d="M6.5,12.5c-0.3,0-0.5-0.1-0.7-0.3c-0.4-0.4-0.4-1,0-1.4l5-5c0.4-0.4,1-0.4,1.4,0s0.4,1,0,1.4l-5,5
	C7,12.4,6.8,12.5,6.5,12.5z"/>
</svg>
