<?xml version="1.0" encoding="utf-8"?>
<!-- Generator: Adobe Illustrator 21.0.2, SVG Export Plug-In . SVG Version: 6.00 Build 0)  -->
<svg version="1.1" id="Layer_1" xmlns="http://www.w3.org/2000/svg" xmlns:xlink="http://www.w3.org/1999/xlink" x="0px" y="0px"
	 viewBox="0 0 18 18" style="enable-background:new 0 0 18 18;" xml:space="preserve">
<path style="fill:#66798F;" d="M15,8.9h-2V6c0-2.2-1.8-4-4-4C6.8,2,5,3.8,5,6v2.9H3V6c0-3.3,2.7-6,6-6s6,2.7,6,6V8.9z"/>
<g>
	<path style="fill:#F5CE85;" d="M0.5,17.5V9c0-0.8,0.7-1.5,1.5-1.5h14c0.8,0,1.5,0.7,1.5,1.5v8.5H0.5z"/>
	<path style="fill:#967A44;" d="M16,8c0.6,0,1,0.4,1,1v8H1V9c0-0.6,0.4-1,1-1H16 M16,7H2C0.9,7,0,7.9,0,9v9h18V9C18,7.9,17.1,7,16,7
		L16,7z"/>
</g>
<rect x="1" y="14" style="fill:#FFEEA3;" width="16" height="2"/>
<rect x="1" y="10" style="fill:#FFEEA3;" width="16" height="2"/>
</svg>
