<?xml version="1.0" encoding="iso-8859-1"?>
<!-- Generator: Adobe Illustrator 22.0.1, SVG Export Plug-In . SVG Version: 6.00 Build 0)  -->
<svg version="1.1" id="Layer_1" xmlns="http://www.w3.org/2000/svg" xmlns:xlink="http://www.w3.org/1999/xlink" x="0px" y="0px"
	 viewBox="0 0 16 18" style="enable-background:new 0 0 16 18;" xml:space="preserve">
<g>
	<path style="fill:#FFEEA3;" d="M7.999,17.468c-1.104-0.43-7.363-3.361-7.497-14.533L8,0.525l7.498,2.41
		C15.364,14.079,9.104,17.034,7.999,17.468z"/>
	<g>
		<path style="fill:#BA9B48;" d="M8,1.05l6.991,2.247c-0.249,10.01-5.611,13.018-6.989,13.627C6.651,16.32,1.259,13.284,1.009,3.297
			L8,1.05 M8,0L0,2.571C0,15.428,8,18,8,18s8-2.607,8-15.429L8,0L8,0z"/>
	</g>
</g>
<path style="fill:#FFC49C;" d="M7.994,14.648c-1.502-0.984-4.361-3.656-4.904-9.919L8,3.151l4.91,1.578
	C12.369,10.981,9.526,13.649,7.994,14.648z"/>
</svg>
