<?xml version="1.0" encoding="iso-8859-1"?>
<!-- Generator: Adobe Illustrator 22.0.1, SVG Export Plug-In . SVG Version: 6.00 Build 0)  -->
<svg version="1.1" id="Layer_1" xmlns="http://www.w3.org/2000/svg" xmlns:xlink="http://www.w3.org/1999/xlink" x="0px" y="0px"
	 viewBox="0 0 18 18" style="enable-background:new 0 0 18 18;" xml:space="preserve">
<g>
	<g>
		<path style="fill:#BAE0BD;" d="M4.5,17.5v-4.391l-0.667,0.236C3.539,13.449,3.266,13.5,3,13.5c-1.378,0-2.5-1.122-2.5-2.5
			S1.622,8.5,3,8.5c0.266,0,0.539,0.051,0.833,0.155L4.5,8.891V4.5h4.391L8.655,3.833C8.551,3.539,8.5,3.266,8.5,3
			c0-1.378,1.122-2.5,2.5-2.5s2.5,1.122,2.5,2.5c0,0.266-0.051,0.539-0.155,0.833L13.109,4.5H17.5v4.052
			C17.336,8.518,17.169,8.5,17,8.5c-1.378,0-2.5,1.122-2.5,2.5s1.122,2.5,2.5,2.5c0.169,0,0.336-0.018,0.5-0.052V17.5H4.5z"/>
	</g>
	<g>
		<path style="fill:#5E9C76;" d="M11,1c1.103,0,2,0.897,2,2c0,0.209-0.041,0.427-0.126,0.665L12.399,5h1.417H17v3
			c-1.654,0-3,1.346-3,3s1.346,3,3,3v3H5v-3.184v-1.417l-1.335,0.475C3.427,12.959,3.209,13,3,13c-1.103,0-2-0.897-2-2s0.897-2,2-2
			c0.209,0,0.427,0.041,0.665,0.126L5,9.601V8.184V5h3.184h1.417L9.126,3.665C9.041,3.427,9,3.209,9,3C9,1.897,9.897,1,11,1 M11,0
			C9.343,0,8,1.343,8,3c0,0.353,0.072,0.686,0.184,1H4v4.184C3.686,8.072,3.353,8,3,8c-1.657,0-3,1.343-3,3s1.343,3,3,3
			c0.353,0,0.686-0.072,1-0.184V18h14v-5.277C17.705,12.894,17.366,13,17,13c-1.105,0-2-0.895-2-2c0-1.105,0.895-2,2-2
			c0.366,0,0.705,0.106,1,0.277V4h-4.184C13.928,3.686,14,3.353,14,3C14,1.343,12.657,0,11,0L11,0z"/>
	</g>
</g>
</svg>
