<?xml version="1.0" encoding="iso-8859-1"?>
<!-- Generator: Adobe Illustrator 22.0.1, SVG Export Plug-In . SVG Version: 6.00 Build 0)  -->
<svg version="1.1" id="Layer_1" xmlns="http://www.w3.org/2000/svg" xmlns:xlink="http://www.w3.org/1999/xlink" x="0px" y="0px"
	 viewBox="0 0 18 18" style="enable-background:new 0 0 18 18;" xml:space="preserve">
<g>
	<path style="fill:#B6C9D6;" d="M1.765,17.5c-0.338,0-0.655-0.132-0.895-0.371c-0.492-0.493-0.492-1.295,0-1.789l6.901-6.58
		l1.519,1.419l-6.639,6.957C2.42,17.368,2.103,17.5,1.765,17.5z"/>
	<path style="fill:#788B9C;" d="M7.775,9.449l0.804,0.752l-6.274,6.575C2.161,16.92,1.969,17,1.765,17
		c-0.204,0-0.396-0.08-0.541-0.224c-0.298-0.298-0.298-0.783-0.017-1.065L7.775,9.449 M7.769,8.074l-7.252,6.914
		c-0.689,0.689-0.689,1.807,0,2.496C0.861,17.828,1.313,18,1.765,18c0.452,0,0.903-0.172,1.248-0.517L10,10.161L7.769,8.074
		L7.769,8.074z"/>
</g>
<g>
	<path style="fill:#D1EDFF;" d="M10.929,13.643c-3.623,0-6.571-2.948-6.571-6.572S7.306,0.5,10.929,0.5S17.5,3.448,17.5,7.071
		S14.552,13.643,10.929,13.643z"/>
	<path style="fill:#788B9C;" d="M10.929,1C14.276,1,17,3.724,17,7.071s-2.724,6.071-6.071,6.071s-6.071-2.724-6.071-6.071
		S7.581,1,10.929,1 M10.929,0C7.023,0,3.857,3.166,3.857,7.071c0,3.905,3.166,7.071,7.071,7.071S18,10.977,18,7.071
		C18,3.166,14.834,0,10.929,0L10.929,0z"/>
</g>
</svg>
