<?xml version="1.0" encoding="iso-8859-1"?>
<!-- Generator: Adobe Illustrator 22.0.1, SVG Export Plug-In . SVG Version: 6.00 Build 0)  -->
<svg version="1.1" id="Layer_1" xmlns="http://www.w3.org/2000/svg" xmlns:xlink="http://www.w3.org/1999/xlink" x="0px" y="0px"
	 viewBox="0 0 18 18" style="enable-background:new 0 0 18 18;" xml:space="preserve">
<g>
	<path style="fill:#DCD5F2;" d="M3.02,17.5c-0.678,0-1.313-0.265-1.79-0.747c-0.978-0.987-0.97-2.585,0.017-3.563l6.501-6.431
		l3.546,3.581l-6.501,6.431C4.317,17.241,3.687,17.5,3.02,17.5L3.02,17.5z"/>
	<path style="fill:#8B75A1;" d="M7.744,7.466l2.842,2.87L4.44,16.416C4.06,16.792,3.555,17,3.02,17
		c-0.543,0-1.053-0.213-1.435-0.599c-0.783-0.791-0.777-2.072,0.014-2.856L7.744,7.466 M7.751,6.052l-6.856,6.782
		c-1.185,1.173-1.194,3.085-0.021,4.27C1.464,17.701,2.242,18,3.02,18c0.768,0,1.536-0.291,2.124-0.874L12,10.344L7.751,6.052
		L7.751,6.052z"/>
</g>
<g>
	<path style="fill:#DCD5F2;" d="M12.937,11.5c-1.58,0-3.209-0.729-4.467-2c-2.254-2.277-2.612-5.589-0.8-7.383
		C8.647,1.15,10.354,0.5,11.918,0.5c0.694,0,1.32,0.123,1.863,0.364L10.77,3.875l0.843,2.528l2.527,0.843l3.002-3.002
		c0.882,1.995,0.049,4.799-1.295,6.13C15.103,11.11,14.097,11.5,12.937,11.5L12.937,11.5z"/>
	<path style="fill:#8B75A1;" d="M11.918,1L11.918,1c0.324,0,0.636,0.031,0.929,0.091l-2.212,2.212L10.198,3.74l0.195,0.586
		l0.666,1.997l0.158,0.474l0.474,0.158l1.997,0.666l0.586,0.195l0.437-0.437l2.202-2.202c0.343,1.687-0.357,3.787-1.42,4.84
		C14.846,10.661,13.962,11,12.938,11c-1.448,0-2.947-0.675-4.111-1.851c-1.025-1.035-1.66-2.321-1.788-3.621
		C6.918,4.305,7.268,3.22,8.023,2.472C8.912,1.592,10.478,1,11.918,1 M11.918,0c-1.737,0-3.553,0.726-4.599,1.762
		C5.307,3.754,5.664,7.376,8.116,9.852C9.515,11.265,11.294,12,12.938,12c1.237,0,2.397-0.416,3.261-1.271
		c1.528-1.513,2.404-4.685,1.319-6.863l-0.35-0.354l-3.161,3.161l-1.997-0.666L11.342,4.01l3.174-3.174l-0.329-0.332
		C13.503,0.154,12.719,0,11.918,0L11.918,0z"/>
</g>
</svg>
