<?xml version="1.0" encoding="iso-8859-1"?>
<!-- Generator: Adobe Illustrator 22.0.1, SVG Export Plug-In . SVG Version: 6.00 Build 0)  -->
<svg version="1.1" id="Layer_1" xmlns="http://www.w3.org/2000/svg" xmlns:xlink="http://www.w3.org/1999/xlink" x="0px" y="0px"
	 viewBox="0 0 18 18" style="enable-background:new 0 0 18 18;" xml:space="preserve">
<g>
	<path style="fill:#DCD5F2;" d="M7.924,17.5l-0.36-2.159l-0.307-0.085c-1.056-0.293-2.026-0.852-2.807-1.617l-0.227-0.223
		l-2.046,0.767l-1.077-1.864l1.69-1.392l-0.079-0.308C2.571,10.072,2.5,9.527,2.5,9s0.071-1.072,0.212-1.618l0.079-0.308
		l-1.69-1.392l1.077-1.864l2.046,0.767L4.45,4.361C5.23,3.597,6.2,3.038,7.257,2.744l0.307-0.085L7.924,0.5h2.152l0.36,2.159
		l0.307,0.085C11.8,3.038,12.77,3.597,13.55,4.361l0.227,0.223l2.046-0.767l1.077,1.864l-1.69,1.392l0.079,0.308
		C15.429,7.928,15.5,8.473,15.5,9s-0.071,1.072-0.212,1.618l-0.079,0.308l1.69,1.392l-1.077,1.864l-2.046-0.767l-0.227,0.223
		c-0.78,0.765-1.751,1.324-2.807,1.617l-0.307,0.085l-0.36,2.159H7.924z M9,5.5C7.07,5.5,5.5,7.07,5.5,9s1.57,3.5,3.5,3.5
		s3.5-1.57,3.5-3.5S10.93,5.5,9,5.5z"/>
	<path style="fill:#8B75A1;" d="M9.653,1l0.238,1.426l0.105,0.628l0.614,0.171c0.975,0.271,1.871,0.787,2.59,1.493l0.455,0.446
		l0.596-0.223l1.352-0.506l0.653,1.131l-1.118,0.92L14.646,6.89l0.158,0.616C14.934,8.013,15,8.516,15,9
		c0,0.484-0.066,0.987-0.196,1.494l-0.158,0.616l0.491,0.404l1.118,0.92l-0.653,1.131l-1.352-0.506l-0.596-0.223l-0.455,0.446
		c-0.719,0.705-1.615,1.222-2.59,1.493l-0.614,0.171l-0.105,0.628L9.653,17H8.347l-0.238-1.426l-0.105-0.628l-0.614-0.171
		c-0.975-0.271-1.871-0.787-2.59-1.493l-0.455-0.446L3.75,13.059l-1.352,0.506l-0.653-1.131l1.118-0.92l0.491-0.404l-0.158-0.616
		C3.066,9.987,3,9.484,3,9s0.066-0.987,0.196-1.494L3.354,6.89L2.863,6.486l-1.118-0.92l0.653-1.131L3.75,4.941l0.596,0.223
		l0.455-0.446c0.719-0.705,1.615-1.222,2.59-1.493l0.614-0.171l0.105-0.628L8.347,1H9.653 M9,13c2.206,0,4-1.794,4-4s-1.794-4-4-4
		S5,6.794,5,9S6.794,13,9,13 M10.5,0h-3L7.123,2.262c-1.155,0.321-2.19,0.926-3.022,1.742L1.956,3.201l-1.5,2.598l1.772,1.459
		C2.084,7.816,2,8.397,2,9s0.084,1.184,0.227,1.742l-1.772,1.458l1.5,2.598l2.145-0.804c0.832,0.816,1.867,1.421,3.022,1.742L7.5,18
		h3l0.377-2.262c1.155-0.321,2.19-0.926,3.022-1.742l2.145,0.804l1.5-2.598l-1.772-1.458C15.916,10.184,16,9.603,16,9
		s-0.084-1.184-0.227-1.742l1.772-1.459l-1.5-2.598l-2.145,0.804c-0.832-0.816-1.867-1.421-3.022-1.742L10.5,0L10.5,0z M9,12
		c-1.657,0-3-1.343-3-3s1.343-3,3-3s3,1.343,3,3S10.657,12,9,12L9,12z"/>
</g>
</svg>
