<?xml version="1.0" encoding="iso-8859-1"?>
<!-- Generator: Adobe Illustrator 22.0.1, SVG Export Plug-In . SVG Version: 6.00 Build 0)  -->
<svg version="1.1" id="Layer_1" xmlns="http://www.w3.org/2000/svg" xmlns:xlink="http://www.w3.org/1999/xlink" x="0px" y="0px"
	 viewBox="0 0 18 12" style="enable-background:new 0 0 18 12;" xml:space="preserve">
<g>
	<g>
		<path style="fill:#C2E8FF;" d="M3,11.5c-1.379,0-2.5-1.122-2.5-2.5c0-1.06,0.682-2.006,1.695-2.354l0.306-0.105l0.03-0.321
			C2.677,4.669,3.953,3.5,5.5,3.5c0.183,0,0.36,0.023,0.534,0.055l0.464,0.083l0.11-0.458C6.988,1.602,8.383,0.5,10,0.5
			c1.593,0,2.982,1.084,3.379,2.637l0.101,0.393l0.43-0.018c0,0,0.088-0.01,0.09-0.01C15.381,3.502,16.5,4.623,16.5,6
			c0,0.18-0.024,0.366-0.078,0.586l-0.073,0.303l0.24,0.199C17.168,7.569,17.5,8.266,17.5,9c0,1.378-1.121,2.5-2.5,2.5H3z"/>
	</g>
	<g>
		<path style="fill:#7496C4;" d="M10,1c1.364,0,2.554,0.93,2.894,2.261l0.201,0.789l0.813-0.037C13.952,4.011,13.994,4.007,14.041,4
			C15.125,4.022,16,4.911,16,6c0,0.14-0.02,0.289-0.064,0.468L15.79,7.074l0.479,0.398C16.734,7.858,17,8.415,17,9
			c0,1.103-0.897,2-2,2H3c-1.103,0-2-0.897-2-2c0-0.847,0.545-1.602,1.357-1.88L2.968,6.91l0.06-0.643C3.15,4.975,4.212,4,5.5,4
			c0.126,0,0.267,0.015,0.445,0.047l0.928,0.167l0.221-0.917C7.42,1.945,8.615,1,10,1 M10,0C8.115,0,6.545,1.308,6.122,3.063
			C5.919,3.026,5.713,3,5.5,3C3.679,3,2.2,4.396,2.033,6.174C0.853,6.578,0,7.684,0,9c0,1.657,1.343,3,3,3h12c1.657,0,3-1.343,3-3
			c0-0.928-0.43-1.747-1.092-2.297C16.963,6.477,17,6.243,17,6c0-1.657-1.343-3-3-3c-0.047,0-0.091,0.012-0.137,0.014
			C13.422,1.284,11.867,0,10,0L10,0z"/>
	</g>
</g>
</svg>
