<?xml version="1.0" encoding="utf-8"?>
<!-- Generator: Adobe Illustrator 21.0.2, SVG Export Plug-In . SVG Version: 6.00 Build 0)  -->
<svg version="1.1" id="Layer_1" xmlns="http://www.w3.org/2000/svg" xmlns:xlink="http://www.w3.org/1999/xlink" x="0px" y="0px"
	 viewBox="0 0 18 18" style="enable-background:new 0 0 18 18;" xml:space="preserve">
<g>
	<circle style="fill:#BAE0BD;" cx="9" cy="9" r="8.5"/>
	<g>
		<path style="fill:#5E9C76;" d="M9,1c4.4,0,8,3.6,8,8s-3.6,8-8,8s-8-3.6-8-8S4.6,1,9,1 M9,0C4,0,0,4,0,9s4,9,9,9s9-4,9-9S14,0,9,0
			L9,0z"/>
	</g>
</g>
<path style="fill:#5E9C76;" d="M9,14c-1.7,0-3-1.3-3-3l2,0c0,0.6,0.4,1,1,1c0.6,0,1-0.4,1-1c0-0.4-0.3-0.8-0.7-0.9L8.1,9.8
	C6.9,9.4,6,8.3,6,7c0-1.6,1.3-3,3-3c1.7,0,3,1.3,3,3l-2,0v0c0-0.5-0.4-1-1-1C8.4,6,8,6.4,8,7c0,0.4,0.3,0.8,0.7,0.9l1.2,0.3
	C11.1,8.6,12,9.7,12,11C12,12.7,10.7,14,9,14z"/>
<rect x="8" y="3" style="fill:#5E9C76;" width="2" height="1.5"/>
<rect x="8" y="13.5" style="fill:#5E9C76;" width="2" height="1.5"/>
</svg>
