<?xml version="1.0" encoding="iso-8859-1"?>
<!-- Generator: Adobe Illustrator 22.0.1, SVG Export Plug-In . SVG Version: 6.00 Build 0)  -->
<svg version="1.1" id="Layer_1" xmlns="http://www.w3.org/2000/svg" xmlns:xlink="http://www.w3.org/1999/xlink" x="0px" y="0px"
	 viewBox="0 0 18 18" style="enable-background:new 0 0 18 18;" xml:space="preserve">
<g>
	<circle style="fill:#E8D47B;" cx="9" cy="16" r="1.5"/>
	<path style="fill:#BA9B48;" d="M9,15c0.551,0,1,0.449,1,1s-0.449,1-1,1s-1-0.449-1-1S8.449,15,9,15 M9,14c-1.105,0-2,0.895-2,2
		s0.895,2,2,2s2-0.895,2-2S10.105,14,9,14L9,14z"/>
</g>
<g>
	<circle style="fill:#FFEEA3;" cx="9" cy="2" r="1.5"/>
	<g>
		<path style="fill:#BA9B48;" d="M9,1c0.551,0,1,0.449,1,1S9.551,3,9,3S8,2.551,8,2S8.449,1,9,1 M9,0C7.895,0,7,0.895,7,2
			s0.895,2,2,2s2-0.895,2-2S10.105,0,9,0L9,0z"/>
	</g>
</g>
<g>
	<path style="fill:#FFEEA3;" d="M1.5,15.5v-2.036c1.694-0.243,3-1.704,3-3.464V7c0-2.481,2.019-4.5,4.5-4.5s4.5,2.019,4.5,4.5v3
		c0,1.76,1.306,3.221,3,3.464V15.5H1.5z"/>
	<g>
		<path style="fill:#BA9B48;" d="M9,3c2.206,0,4,1.794,4,4v3c0,1.86,1.277,3.428,3,3.873V15H2v-1.127C3.723,13.428,5,11.86,5,10V7
			C5,4.794,6.794,3,9,3 M9,2C6.239,2,4,4.239,4,7v3c0,1.657-1.343,3-3,3v3h16v-3c-1.657,0-3-1.343-3-3V7C14,4.239,11.761,2,9,2L9,2z
			"/>
	</g>
</g>
</svg>
