<?xml version="1.0" encoding="iso-8859-1"?>
<!-- Generator: Adobe Illustrator 22.0.1, SVG Export Plug-In . SVG Version: 6.00 Build 0)  -->
<svg version="1.1" id="Layer_1" xmlns="http://www.w3.org/2000/svg" xmlns:xlink="http://www.w3.org/1999/xlink" x="0px" y="0px"
	 viewBox="0 0 18 18" style="enable-background:new 0 0 18 18;" xml:space="preserve">
<g>
	<rect x="0.5" y="0.5" style="fill:#FFFFFF;" width="17" height="17"/>
	<g>
		<path style="fill:#788B9C;" d="M17,1v16H1V1H17 M18,0H0v18h18V0L18,0z"/>
	</g>
</g>
<g>
	<rect x="0.5" y="0.5" style="fill:#F78F8F;" width="17" height="3"/>
	<g>
		<path style="fill:#C74343;" d="M17,1v2H1V1H17 M18,0H0v4h18V0L18,0z"/>
	</g>
</g>
<rect x="9" y="7" style="fill:#C5D4DE;" width="2" height="2"/>
<rect x="12" y="7" style="fill:#C5D4DE;" width="2" height="2"/>
<rect x="6" y="7" style="fill:#C5D4DE;" width="2" height="2"/>
<rect x="9" y="10" style="fill:#C5D4DE;" width="2" height="2"/>
<rect x="12" y="10" style="fill:#C5D4DE;" width="2" height="2"/>
<rect x="6" y="10" style="fill:#C5D4DE;" width="2" height="2"/>
<rect x="3" y="10" style="fill:#C5D4DE;" width="2" height="2"/>
<rect x="9" y="13" style="fill:#C5D4DE;" width="2" height="2"/>
<rect x="6" y="13" style="fill:#C5D4DE;" width="2" height="2"/>
<rect x="3" y="13" style="fill:#C5D4DE;" width="2" height="2"/>
</svg>
