<?xml version="1.0" encoding="utf-8"?>
<!-- Generator: Adobe Illustrator 21.0.2, SVG Export Plug-In . SVG Version: 6.00 Build 0)  -->
<svg version="1.1" id="Layer_1" xmlns="http://www.w3.org/2000/svg" xmlns:xlink="http://www.w3.org/1999/xlink" x="0px" y="0px"
	 viewBox="0 0 18 18" style="enable-background:new 0 0 18 18;" xml:space="preserve">
<g>
	<circle style="fill:#FFEEA3;" cx="9" cy="9" r="8.5"/>
	<g>
		<path style="fill:#BA9B48;" d="M9,1c4.4,0,8,3.6,8,8s-3.6,8-8,8s-8-3.6-8-8S4.6,1,9,1 M9,0C4,0,0,4,0,9s4,9,9,9s9-4,9-9S14,0,9,0
			L9,0z"/>
	</g>
</g>
<g>
	<circle style="fill:#FFFFFF;" cx="9" cy="9" r="7"/>
</g>
<polygon style="fill:#66798F;" points="12.1,12.8 8.4,9.1 12.1,3.6 12.9,4.1 9.6,8.9 12.8,12.1 "/>
<g>
	<circle style="fill:#66798F;" cx="9" cy="9" r="1"/>
</g>
</svg>
