<?xml version="1.0" encoding="iso-8859-1"?>
<!-- Generator: Adobe Illustrator 22.0.1, SVG Export Plug-In . SVG Version: 6.00 Build 0)  -->
<svg version="1.1" id="Layer_1" xmlns="http://www.w3.org/2000/svg" xmlns:xlink="http://www.w3.org/1999/xlink" x="0px" y="0px"
	 viewBox="0 0 18 12" style="enable-background:new 0 0 18 12;" xml:space="preserve">
<g>
	<path style="fill:#FFFFFF;" d="M9,11.5c-4.053,0-7.531-4.344-8.385-5.5C1.469,4.845,4.954,0.5,9,0.5c4.053,0,7.531,4.344,8.385,5.5
		C16.531,7.155,13.046,11.5,9,11.5z"/>
	<g>
		<path style="fill:#BA9B48;" d="M9,1c3.531,0,6.664,3.59,7.758,5C15.664,7.41,12.531,11,9,11S2.336,7.41,1.242,6
			C2.336,4.59,5.469,1,9,1 M9,0C4.029,0,0,6,0,6s4.029,6,9,6s9-6,9-6S13.971,0,9,0L9,0z"/>
	</g>
</g>
<g>
	<circle style="fill:#8BB7F0;" cx="9" cy="6" r="3.5"/>
	<path style="fill:#4E7AB5;" d="M9,3c1.654,0,3,1.346,3,3c0,1.654-1.346,3-3,3S6,7.654,6,6C6,4.346,7.346,3,9,3 M9,2
		C6.791,2,5,3.791,5,6c0,2.209,1.791,4,4,4s4-1.791,4-4C13,3.791,11.209,2,9,2L9,2z"/>
</g>
<g>
	<circle style="fill:#36404D;" cx="9" cy="6" r="1.5"/>
</g>
<g>
	<circle style="fill:#FFFFFF;" cx="11.5" cy="3.5" r="1.5"/>
</g>
</svg>
