<?xml version="1.0" encoding="utf-8"?>
<!-- Generator: Adobe Illustrator 21.0.2, SVG Export Plug-In . SVG Version: 6.00 Build 0)  -->
<svg version="1.1" id="Layer_1" xmlns="http://www.w3.org/2000/svg" xmlns:xlink="http://www.w3.org/1999/xlink" x="0px" y="0px"
	 viewBox="0 0 18 14" style="enable-background:new 0 0 18 14;" xml:space="preserve">
<path style="fill:#66798F;" d="M10.7,13.4c-0.2,0-0.4-0.2-0.5-0.4L9.5,9.4C9.5,9.1,9.7,8.9,9.9,8.8c0.3,0,0.5,0.1,0.6,0.4l0.7,3.6
	C11.2,13.1,11.1,13.4,10.7,13.4C10.8,13.4,10.7,13.4,10.7,13.4z"/>
<path style="fill:#66798F;" d="M17.5,9.1c-0.1,0-0.2,0-0.3-0.1l-2.7-2.3c-0.2-0.2-0.2-0.5-0.1-0.7s0.5-0.2,0.7-0.1l2.7,2.3
	C18,8.4,18,8.7,17.9,8.9C17.8,9,17.6,9.1,17.5,9.1z"/>
<path style="fill:#66798F;" d="M15.8,10.8c-0.1,0-0.3-0.1-0.4-0.2l-2.8-3.1c-0.2-0.2-0.2-0.5,0-0.7c0.2-0.2,0.5-0.2,0.7,0l2.8,3.1
	c0.2,0.2,0.2,0.5,0,0.7C16,10.7,15.9,10.8,15.8,10.8z"/>
<path style="fill:#66798F;" d="M13.5,12.4c-0.2,0-0.4-0.1-0.4-0.3l-1.9-3.7c-0.1-0.2,0-0.5,0.2-0.7c0.2-0.1,0.5,0,0.7,0.2l1.9,3.7
	c0.1,0.2,0,0.5-0.2,0.7C13.6,12.4,13.5,12.4,13.5,12.4z"/>
<path style="fill:#66798F;" d="M7.3,13.4C7.3,13.4,7.2,13.4,7.3,13.4c-0.4-0.1-0.5-0.3-0.5-0.6l0.7-3.6C7.5,9,7.8,8.8,8.1,8.8
	c0.3,0,0.5,0.3,0.4,0.6L7.8,13C7.8,13.3,7.5,13.4,7.3,13.4z"/>
<path style="fill:#66798F;" d="M0.5,9.1C0.4,9.1,0.2,9,0.1,8.9C0,8.7,0,8.4,0.2,8.2l2.7-2.3C3.1,5.7,3.4,5.7,3.6,6
	c0.2,0.2,0.2,0.5-0.1,0.7L0.8,9C0.8,9,0.6,9.1,0.5,9.1z"/>
<path style="fill:#66798F;" d="M2.2,10.8c-0.1,0-0.2,0-0.3-0.1c-0.2-0.2-0.2-0.5,0-0.7l2.8-3.1c0.2-0.2,0.5-0.2,0.7,0
	c0.2,0.2,0.2,0.5,0,0.7l-2.8,3.1C2.5,10.7,2.3,10.8,2.2,10.8z"/>
<path style="fill:#66798F;" d="M4.5,12.4c-0.1,0-0.2,0-0.2-0.1c-0.2-0.1-0.3-0.4-0.2-0.7L6,8c0.1-0.2,0.4-0.3,0.7-0.2
	C6.9,7.9,7,8.2,6.9,8.5L5,12.1C4.9,12.3,4.7,12.4,4.5,12.4z"/>
<g>
	<path style="fill:#FFEEA3;" d="M9,11.5c-4.1,0-7.5-4.3-8.4-5.5C1.5,4.8,5,0.5,9,0.5c4.1,0,7.5,4.3,8.4,5.5C16.5,7.2,13,11.5,9,11.5
		z"/>
	<g>
		<path style="fill:#BA9B48;" d="M9,1c3.5,0,6.7,3.6,7.8,5c-1.1,1.4-4.2,5-7.8,5S2.3,7.4,1.2,6C2.3,4.6,5.5,1,9,1 M9,0C4,0,0,6,0,6
			s4,6,9,6s9-6,9-6S14,0,9,0L9,0z"/>
	</g>
</g>
</svg>
