<?xml version="1.0" encoding="iso-8859-1"?>
<!-- Generator: Adobe Illustrator 22.0.1, SVG Export Plug-In . SVG Version: 6.00 Build 0)  -->
<svg version="1.1" id="Layer_1" xmlns="http://www.w3.org/2000/svg" xmlns:xlink="http://www.w3.org/1999/xlink" x="0px" y="0px"
	 viewBox="0 0 18 18" style="enable-background:new 0 0 18 18;" xml:space="preserve">
<g>
	<circle style="fill:#8BB7F0;" cx="9" cy="9" r="8.5"/>
	<g>
		<path style="fill:#4E7AB5;" d="M9,1c4.411,0,8,3.589,8,8s-3.589,8-8,8s-8-3.589-8-8S4.589,1,9,1 M9,0C4.029,0,0,4.029,0,9
			c0,4.971,4.029,9,9,9s9-4.029,9-9C18,4.029,13.971,0,9,0L9,0z"/>
	</g>
</g>
<path style="fill:#FFFFFF;" d="M7.987,11.101c-0.046-0.12-0.146-0.409-0.146-0.833c0-2.01,2.077-2.083,2.077-3.591
	c0-0.144-0.063-1-1.097-1c-1.085,0-1.882,0.604-2.229,0.91v-2.09c0.357-0.213,1.156-0.639,2.472-0.639
	c3.008,0,3.049,2.07,3.049,2.514c0,2.401-2.466,2.516-2.466,4.098c0,0.332,0.116,0.553,0.167,0.632H7.987z M9.001,14.143
	c-0.521,0-1.292-0.344-1.292-1.153c0-0.426,0.323-1.139,1.292-1.139c0.945,0,1.271,0.7,1.271,1.139
	C10.272,13.466,9.934,14.143,9.001,14.143z"/>
</svg>
