<?xml version="1.0" encoding="iso-8859-1"?>
<!-- Generator: Adobe Illustrator 22.0.1, SVG Export Plug-In . SVG Version: 6.00 Build 0)  -->
<svg version="1.1" id="Layer_1" xmlns="http://www.w3.org/2000/svg" xmlns:xlink="http://www.w3.org/1999/xlink" x="0px" y="0px"
	 viewBox="0 0 18 18" style="enable-background:new 0 0 18 18;" xml:space="preserve">
<g>
	<circle style="fill:#F78F8F;" cx="9" cy="9" r="8.5"/>
	<g>
		<path style="fill:#C74343;" d="M9,1c4.411,0,8,3.589,8,8s-3.589,8-8,8s-8-3.589-8-8S4.589,1,9,1 M9,0C4.029,0,0,4.029,0,9
			c0,4.971,4.029,9,9,9s9-4.029,9-9C18,4.029,13.971,0,9,0L9,0z"/>
	</g>
</g>
<path style="fill:#FFFFFF;" d="M9.092,14.143c-0.377,0-0.687-0.114-0.932-0.342c-0.245-0.228-0.367-0.505-0.367-0.829
	c0-0.339,0.124-0.617,0.371-0.833c0.247-0.216,0.557-0.325,0.928-0.325c0.377,0,0.685,0.109,0.925,0.328
	c0.24,0.219,0.36,0.495,0.36,0.829c0,0.339-0.119,0.619-0.357,0.84C9.782,14.032,9.473,14.143,9.092,14.143z M10.249,3.857
	l-0.275,6.975H8.167L7.906,3.857H10.249z"/>
</svg>
