<?xml version="1.0" encoding="iso-8859-1"?>
<!-- Generator: Adobe Illustrator 22.0.1, SVG Export Plug-In . SVG Version: 6.00 Build 0)  -->
<svg version="1.1" id="Layer_1" xmlns="http://www.w3.org/2000/svg" xmlns:xlink="http://www.w3.org/1999/xlink" x="0px" y="0px"
	 viewBox="0 0 18 18" style="enable-background:new 0 0 18 18;" xml:space="preserve">
<polygon style="fill:#36404D;" points="8,11 7,10 0,17 0,18 1,18 "/>
<g>
	<path style="fill:#F78F8F;" d="M3.294,7.145c0.959-0.796,2.155-1.23,3.419-1.23c0.465,0,0.928,0.06,1.377,0.178l0.33,0.087
		l3.955-5.413l4.857,4.857L11.82,9.579l0.087,0.33c0.442,1.682,0.039,3.475-1.053,4.796L3.294,7.145z"/>
	<path style="fill:#C74343;" d="M12.436,1.533l4.032,4.032l-4.667,3.41L11.25,9.376l0.173,0.659
		c0.353,1.343,0.112,2.766-0.627,3.904L4.058,7.202C4.84,6.69,5.756,6.415,6.714,6.415c0.422,0,0.843,0.054,1.25,0.161L8.624,6.75
		l0.402-0.551L12.436,1.533 M12.317,0L8.218,5.609C7.726,5.48,7.22,5.415,6.714,5.415c-1.5,0-2.998,0.569-4.142,1.714l8.3,8.3
		c1.53-1.53,2.033-3.695,1.52-5.647L18,5.683L12.317,0L12.317,0z"/>
</g>
</svg>
