<?xml version="1.0" encoding="iso-8859-1"?>
<!-- Generator: Adobe Illustrator 22.0.1, SVG Export Plug-In . SVG Version: 6.00 Build 0)  -->
<svg version="1.1" id="Layer_1" xmlns="http://www.w3.org/2000/svg" xmlns:xlink="http://www.w3.org/1999/xlink" x="0px" y="0px"
	 viewBox="0 0 18 16" style="enable-background:new 0 0 18 16;" xml:space="preserve">
<g>
	<path style="fill:#BDB2DE;" d="M13.325,14.5c-0.395,0-0.781-0.16-1.061-0.439L4.339,6.135L6.563,3.91L17.152,14.5H13.325z"/>
	<g>
		<path style="fill:#8B75A1;" d="M6.563,4.617L15.946,14h-2.62c-0.267,0-0.518-0.104-0.707-0.293L5.046,6.135L6.563,4.617
			 M6.563,3.203L3.632,6.135l8.28,8.28C12.286,14.789,12.795,15,13.325,15H18v-0.36L6.563,3.203L6.563,3.203z"/>
	</g>
</g>
<polygon style="fill:#8B75A1;" points="9.357,11.388 11.817,8.929 8.843,5.956 7.048,9.079 "/>
<g>
	<g>
		<path style="fill:#C74343;" d="M3.5,0C1.567,0,0,1.567,0,3.5S1.567,7,3.5,7S7,5.433,7,3.5S5.433,0,3.5,0z M3.5,5.25
			c-0.966,0-1.75-0.784-1.75-1.75c0-0.967,0.784-1.75,1.75-1.75S5.25,2.533,5.25,3.5C5.25,4.466,4.466,5.25,3.5,5.25z"/>
	</g>
</g>
<g>
	<path style="fill:#DCD5F2;" d="M4.487,9.717l7.777-7.777C12.544,1.66,12.931,1.5,13.325,1.5h3.827L6.712,11.941L4.487,9.717z"/>
	<g>
		<path style="fill:#8B75A1;" d="M15.946,2l-9.234,9.234L5.195,9.717l7.424-7.424C12.807,2.104,13.058,2,13.325,2H15.946 M18,1
			h-4.675c-0.53,0-1.039,0.211-1.414,0.586L3.78,9.717l2.931,2.932L18,1.36V1L18,1z"/>
	</g>
</g>
<g>
	<g>
		<path style="fill:#C74343;" d="M3.5,9C1.567,9,0,10.567,0,12.5S1.567,16,3.5,16S7,14.433,7,12.5S5.433,9,3.5,9z M3.5,14.25
			c-0.966,0-1.75-0.783-1.75-1.75c0-0.966,0.784-1.75,1.75-1.75s1.75,0.784,1.75,1.75C5.25,13.467,4.466,14.25,3.5,14.25z"/>
	</g>
</g>
</svg>
