<?xml version="1.0" encoding="iso-8859-1"?>
<!-- Generator: Adobe Illustrator 22.0.1, SVG Export Plug-In . SVG Version: 6.00 Build 0)  -->
<svg version="1.1" id="Layer_1" xmlns="http://www.w3.org/2000/svg" xmlns:xlink="http://www.w3.org/1999/xlink" x="0px" y="0px"
	 viewBox="0 0 18 13" style="enable-background:new 0 0 18 13;" xml:space="preserve">
<g>
	<g>
		<path style="fill:#4E7AB5;" d="M6,9.728l3,3l3-3c-0.768-0.768-1.828-1.243-3-1.243S6.768,8.96,6,9.728z"/>
	</g>
	<g>
		<path style="fill:#4E7AB5;" d="M0,3.728l1.504,1.503C3.424,3.311,6.076,2.121,9,2.121s5.576,1.19,7.497,3.11L18,3.728
			C15.697,1.425,12.515,0,9,0S2.303,1.425,0,3.728z"/>
	</g>
	<g>
		<path style="fill:#4E7AB5;" d="M3,6.728L4.502,8.23C5.654,7.078,7.245,6.364,9,6.364s3.346,0.714,4.498,1.866L15,6.728
			c-1.535-1.535-3.657-2.485-6-2.485S4.536,5.192,3,6.728z"/>
	</g>
</g>
</svg>
