<?xml version="1.0" encoding="iso-8859-1"?>
<!-- Generator: Adobe Illustrator 22.0.1, SVG Export Plug-In . SVG Version: 6.00 Build 0)  -->
<svg version="1.1" id="Layer_1" xmlns="http://www.w3.org/2000/svg" xmlns:xlink="http://www.w3.org/1999/xlink" x="0px" y="0px"
	 viewBox="0 0 18 16" style="enable-background:new 0 0 18 16;" xml:space="preserve">
<g>
	<g>
		<path style="fill:#8BB7F0;" d="M14.5,15.5V9c0-0.827-0.673-1.5-1.5-1.5H7.5V11L0.833,6L7.5,1v3.5H13c2.481,0,4.5,2.019,4.5,4.5
			v6.5H14.5z"/>
	</g>
	<g>
		<path style="fill:#4E7AB5;" d="M7,2v2v1h1h5c2.206,0,4,1.794,4,4v6h-2V9c0-1.103-0.897-2-2-2H8H7v1v2L1.667,6L7,2 M8,0L0,6l8,6V8
			h5c0.552,0,1,0.448,1,1v7h4V9c0-2.761-2.239-5-5-5H8V0L8,0z"/>
	</g>
</g>
</svg>
