<?xml version="1.0" encoding="iso-8859-1"?>
<!-- Generator: Adobe Illustrator 22.0.1, SVG Export Plug-In . SVG Version: 6.00 Build 0)  -->
<svg version="1.1" id="Layer_1" xmlns="http://www.w3.org/2000/svg" xmlns:xlink="http://www.w3.org/1999/xlink" x="0px" y="0px"
	 viewBox="0 0 18 16" style="enable-background:new 0 0 18 16;" xml:space="preserve">
<g>
	<g>
		<path style="fill:#8BB7F0;" d="M0.5,15.5V9c0-2.481,2.019-4.5,4.5-4.5h5.5V1l6.667,5L10.5,11V7.5H5C4.173,7.5,3.5,8.173,3.5,9v6.5
			H0.5z"/>
	</g>
	<g>
		<path style="fill:#4E7AB5;" d="M11,2l5.333,4L11,10V8V7h-1H5C3.897,7,3,7.897,3,9v6H1V9c0-2.206,1.794-4,4-4h5h1V4V2 M10,0v4H5
			C2.239,4,0,6.239,0,9v7h4V9c0-0.552,0.448-1,1-1h5v4l8-6L10,0L10,0z"/>
	</g>
</g>
</svg>
