<?xml version="1.0" encoding="iso-8859-1"?>
<!-- Generator: Adobe Illustrator 22.0.1, SVG Export Plug-In . SVG Version: 6.00 Build 0)  -->
<svg version="1.1" id="Layer_1" xmlns="http://www.w3.org/2000/svg" xmlns:xlink="http://www.w3.org/1999/xlink" x="0px" y="0px"
	 viewBox="0 0 18 18" style="enable-background:new 0 0 18 18;" xml:space="preserve">
<g>
	<g>
		<polygon style="fill:#8BB7F0;" points="6.734,14.5 7.5,14.5 7.5,10.5 3.5,10.5 3.5,11.266 0.781,9 3.5,6.734 3.5,7.5 7.5,7.5 
			7.5,3.5 6.734,3.5 9,0.781 11.266,3.5 10.5,3.5 10.5,7.5 14.5,7.5 14.5,6.734 17.219,9 14.5,11.266 14.5,10.5 10.5,10.5 
			10.5,14.5 11.266,14.5 9,17.219 		"/>
	</g>
	<g>
		<path style="fill:#4E7AB5;" d="M9,1.562L10.198,3H10v1v3v1h1h3h1V7.802L16.438,9L15,10.198V10h-1h-3h-1v1v3v1h0.198L9,16.438
			L7.802,15H8v-1v-3v-1H7H4H3v0.198L1.562,9L3,7.802V8h1h3h1V7V4V3H7.802L9,1.562 M9,0L5.667,4H7v3H4V5.667L0,9l4,3.333V11h3v3
			H5.667L9,18l3.333-4H11v-3h3v1.333L18,9l-4-3.333V7h-3V4h1.333L9,0L9,0z"/>
	</g>
</g>
</svg>
