<?xml version="1.0" encoding="iso-8859-1"?>
<!-- Generator: Adobe Illustrator 22.0.1, SVG Export Plug-In . SVG Version: 6.00 Build 0)  -->
<svg version="1.1" id="Layer_1" xmlns="http://www.w3.org/2000/svg" xmlns:xlink="http://www.w3.org/1999/xlink" x="0px" y="0px"
	 viewBox="0 0 18 16" style="enable-background:new 0 0 18 16;" xml:space="preserve">
<g>
	<path style="fill:#FFEEA3;" d="M1.046,15.5c-0.284,0-0.425-0.19-0.472-0.272c-0.047-0.082-0.142-0.299,0-0.545L8.528,0.907
		C8.67,0.661,8.905,0.634,9,0.634s0.33,0.026,0.472,0.272l7.954,13.776c0.142,0.246,0.047,0.463,0,0.545
		c-0.047,0.082-0.188,0.272-0.472,0.272H1.046z"/>
	<path style="fill:#BA9B48;" d="M9,1.134l0.039,0.022l7.954,13.776L16.954,15H1.046l-0.039-0.067L8.961,1.157
		C8.968,1.145,8.974,1.134,9,1.134 M9,0.134c-0.352,0-0.704,0.174-0.905,0.522L0.142,14.433C-0.261,15.129,0.242,16,1.046,16h15.907
		c0.804,0,1.307-0.871,0.905-1.567L9.905,0.657C9.704,0.308,9.352,0.134,9,0.134L9,0.134z"/>
</g>
<path style="fill:#36404D;" d="M9.035,13.429c-0.282,0-0.515-0.086-0.699-0.257S8.06,12.793,8.06,12.55
	c0-0.254,0.093-0.462,0.278-0.625s0.417-0.244,0.696-0.244c0.282,0,0.514,0.082,0.694,0.246s0.27,0.372,0.27,0.622
	c0,0.254-0.089,0.464-0.267,0.63C9.553,13.346,9.321,13.429,9.035,13.429z M9.903,5.714l-0.206,5.231H8.341L8.145,5.714H9.903z"/>
</svg>
