<?xml version="1.0" encoding="iso-8859-1"?>
<!-- Generator: Adobe Illustrator 22.0.1, SVG Export Plug-In . SVG Version: 6.00 Build 0)  -->
<svg version="1.1" id="Layer_1" xmlns="http://www.w3.org/2000/svg" xmlns:xlink="http://www.w3.org/1999/xlink" x="0px" y="0px"
	 viewBox="0 0 18 18" style="enable-background:new 0 0 18 18;" xml:space="preserve">
<g>
	<circle style="fill:#8BB7F0;" cx="9" cy="9" r="8.5"/>
	<g>
		<path style="fill:#4E7AB5;" d="M9,1c4.411,0,8,3.589,8,8s-3.589,8-8,8s-8-3.589-8-8S4.589,1,9,1 M9,0C4.029,0,0,4.029,0,9
			s4.029,9,9,9s9-4.029,9-9S13.971,0,9,0L9,0z"/>
	</g>
</g>
<g>
	<path style="fill:#FFFFFF;" d="M8.923,13.263c-1.929,0-2.893-1.354-2.893-4.062c0-1.405,0.261-2.475,0.783-3.212
		c0.521-0.736,1.278-1.105,2.268-1.105c1.883,0,2.825,1.377,2.825,4.13c0,1.371-0.257,2.422-0.772,3.153
		C10.622,12.897,9.884,13.263,8.923,13.263z M9.003,6.245c-0.772,0-1.158,0.97-1.158,2.91c0,1.827,0.379,2.74,1.136,2.74
		c0.738,0,1.107-0.942,1.107-2.825S9.726,6.245,9.003,6.245z"/>
</g>
</svg>
