<?xml version="1.0" encoding="iso-8859-1"?>
<!-- Generator: Adobe Illustrator 22.0.1, SVG Export Plug-In . SVG Version: 6.00 Build 0)  -->
<svg version="1.1" id="Layer_1" xmlns="http://www.w3.org/2000/svg" xmlns:xlink="http://www.w3.org/1999/xlink" x="0px" y="0px"
	 viewBox="0 0 18 18" style="enable-background:new 0 0 18 18;" xml:space="preserve">
<g>
	<circle style="fill:#8BB7F0;" cx="9" cy="9" r="8.5"/>
	<g>
		<path style="fill:#4E7AB5;" d="M9,1c4.411,0,8,3.589,8,8s-3.589,8-8,8s-8-3.589-8-8S4.589,1,9,1 M9,0C4.029,0,0,4.029,0,9
			s4.029,9,9,9s9-4.029,9-9S13.971,0,9,0L9,0z"/>
	</g>
</g>
<g>
	<path style="fill:#FFFFFF;" d="M8.065,11.641H11.5v1.48H6.11v-0.61c0-2.835,3.582-3.373,3.582-5.153
		c0-0.962-0.789-1.051-1.192-1.051c-0.697,0-1.364,0.277-2,0.831V5.567c0.704-0.456,1.499-0.684,2.384-0.684
		c2.564,0,2.627,1.949,2.627,2.3C11.511,9.763,8.272,10.336,8.065,11.641z"/>
</g>
</svg>
