<?xml version="1.0" encoding="iso-8859-1"?>
<!-- Generator: Adobe Illustrator 22.0.1, SVG Export Plug-In . SVG Version: 6.00 Build 0)  -->
<svg version="1.1" id="Layer_1" xmlns="http://www.w3.org/2000/svg" xmlns:xlink="http://www.w3.org/1999/xlink" x="0px" y="0px"
	 viewBox="0 0 18 18" style="enable-background:new 0 0 18 18;" xml:space="preserve">
<g>
	<circle style="fill:#8BB7F0;" cx="9" cy="9" r="8.5"/>
	<g>
		<path style="fill:#4E7AB5;" d="M9,1c4.411,0,8,3.589,8,8s-3.589,8-8,8s-8-3.589-8-8S4.589,1,9,1 M9,0C4.029,0,0,4.029,0,9
			s4.029,9,9,9s9-4.029,9-9S13.971,0,9,0L9,0z"/>
	</g>
</g>
<g>
	<path style="fill:#FFFFFF;" d="M6.302,12.856v-1.554c0.542,0.396,1.175,0.593,1.898,0.593c0.456,0,0.81-0.098,1.065-0.294
		c0.254-0.196,0.381-0.469,0.381-0.819c0-0.362-0.158-0.64-0.471-0.836C8.86,9.75,8.428,9.652,7.878,9.652H7.127V8.285h0.695
		c1.055,0,1.582-0.35,1.582-1.051c0-0.659-0.405-0.989-1.215-0.989c-0.542,0-1.07,0.175-1.582,0.525V5.313
		c0.569-0.286,1.232-0.429,1.989-0.429c0.829,0,1.473,0.186,1.935,0.559c0.461,0.373,0.692,0.857,0.692,1.452
		c0,1.058-0.537,1.721-1.61,1.989v0.028c0.573,0.072,1.025,0.279,1.356,0.625c0.331,0.344,0.497,0.767,0.497,1.268
		c0,0.757-0.277,1.356-0.831,1.797c-0.554,0.441-1.318,0.661-2.294,0.661C7.505,13.263,6.825,13.127,6.302,12.856z"/>
</g>
</svg>
