<?xml version="1.0" encoding="iso-8859-1"?>
<!-- Generator: Adobe Illustrator 22.0.1, SVG Export Plug-In . SVG Version: 6.00 Build 0)  -->
<svg version="1.1" id="Layer_1" xmlns="http://www.w3.org/2000/svg" xmlns:xlink="http://www.w3.org/1999/xlink" x="0px" y="0px"
	 viewBox="0 0 18 18" style="enable-background:new 0 0 18 18;" xml:space="preserve">
<g>
	<circle style="fill:#8BB7F0;" cx="9" cy="9" r="8.5"/>
	<g>
		<path style="fill:#4E7AB5;" d="M9,1c4.411,0,8,3.589,8,8s-3.589,8-8,8s-8-3.589-8-8S4.589,1,9,1 M9,0C4.029,0,0,4.029,0,9
			s4.029,9,9,9s9-4.029,9-9S13.971,0,9,0L9,0z"/>
	</g>
</g>
<g>
	<path style="fill:#FFFFFF;" d="M11.019,5.019v5.108h0.972v1.333h-0.972v1.661H9.392V11.46H5.861v-1.396
		c0.313-0.35,0.637-0.733,0.972-1.149C7.168,8.499,7.492,8.07,7.805,7.63c0.313-0.441,0.603-0.884,0.873-1.331
		c0.269-0.446,0.498-0.873,0.687-1.279H11.019z M7.459,10.127h1.932V7.296C9.26,7.541,9.117,7.789,8.962,8.039
		C8.808,8.29,8.646,8.536,8.476,8.78c-0.17,0.242-0.34,0.478-0.514,0.706C7.79,9.714,7.621,9.927,7.459,10.127z"/>
</g>
</svg>
