<?xml version="1.0" encoding="iso-8859-1"?>
<!-- Generator: Adobe Illustrator 22.0.1, SVG Export Plug-In . SVG Version: 6.00 Build 0)  -->
<svg version="1.1" id="Layer_1" xmlns="http://www.w3.org/2000/svg" xmlns:xlink="http://www.w3.org/1999/xlink" x="0px" y="0px"
	 viewBox="0 0 18 18" style="enable-background:new 0 0 18 18;" xml:space="preserve">
<g>
	<circle style="fill:#8BB7F0;" cx="9" cy="9" r="8.5"/>
	<g>
		<path style="fill:#4E7AB5;" d="M9,1c4.411,0,8,3.589,8,8s-3.589,8-8,8s-8-3.589-8-8S4.589,1,9,1 M9,0C4.029,0,0,4.029,0,9
			s4.029,9,9,9s9-4.029,9-9S13.971,0,9,0L9,0z"/>
	</g>
</g>
<g>
	<path style="fill:#FFFFFF;" d="M6.442,12.912v-1.526c0.554,0.339,1.144,0.509,1.769,0.509c0.471,0,0.839-0.112,1.104-0.336
		c0.266-0.224,0.399-0.529,0.399-0.913c0-0.802-0.568-1.203-1.701-1.203c-0.418,0-0.9,0.032-1.446,0.096l0.305-4.52h4.289v1.458
		H8.234L8.121,8.098c0.29-0.023,0.54-0.034,0.751-0.034c0.832,0,1.484,0.218,1.955,0.655c0.471,0.437,0.707,1.025,0.707,1.763
		c0,0.817-0.281,1.485-0.842,2.003c-0.561,0.518-1.322,0.777-2.283,0.777C7.629,13.263,6.973,13.146,6.442,12.912z"/>
</g>
</svg>
