<?xml version="1.0" encoding="iso-8859-1"?>
<!-- Generator: Adobe Illustrator 22.0.1, SVG Export Plug-In . SVG Version: 6.00 Build 0)  -->
<svg version="1.1" id="Layer_1" xmlns="http://www.w3.org/2000/svg" xmlns:xlink="http://www.w3.org/1999/xlink" x="0px" y="0px"
	 viewBox="0 0 18 18" style="enable-background:new 0 0 18 18;" xml:space="preserve">
<g>
	<circle style="fill:#8BB7F0;" cx="9" cy="9" r="8.5"/>
	<g>
		<path style="fill:#4E7AB5;" d="M9,1c4.411,0,8,3.589,8,8s-3.589,8-8,8s-8-3.589-8-8S4.589,1,9,1 M9,0C4.029,0,0,4.029,0,9
			s4.029,9,9,9s9-4.029,9-9S13.971,0,9,0L9,0z"/>
	</g>
</g>
<g>
	<path style="fill:#FFFFFF;" d="M11.912,10.426c0,0.891-0.582,2.836-2.802,2.836c-0.456,0-2.904-0.087-2.904-3.763
		c0-1.078,0.402-4.616,3.673-4.616c0.625,0,1.111,0.073,1.458,0.22v1.492c-0.411-0.234-0.859-0.35-1.345-0.35
		c-1.897,0-2.015,2.091-2.023,2.463h0.034c0.384-0.531,0.952-0.797,1.701-0.797C10.122,7.912,11.912,8.096,11.912,10.426z
		 M10.166,10.539c0-0.87-0.357-1.305-1.068-1.305c-1.004,0-1.074,1.045-1.074,1.226c0,1.29,0.923,1.435,1.085,1.435
		C9.271,11.895,10.166,11.766,10.166,10.539z"/>
</g>
</svg>
