<?xml version="1.0" encoding="iso-8859-1"?>
<!-- Generator: Adobe Illustrator 22.0.1, SVG Export Plug-In . SVG Version: 6.00 Build 0)  -->
<svg version="1.1" id="Layer_1" xmlns="http://www.w3.org/2000/svg" xmlns:xlink="http://www.w3.org/1999/xlink" x="0px" y="0px"
	 viewBox="0 0 18 18" style="enable-background:new 0 0 18 18;" xml:space="preserve">
<g>
	<circle style="fill:#8BB7F0;" cx="9" cy="9" r="8.5"/>
	<g>
		<path style="fill:#4E7AB5;" d="M9,1c4.411,0,8,3.589,8,8s-3.589,8-8,8s-8-3.589-8-8S4.589,1,9,1 M9,0C4.029,0,0,4.029,0,9
			s4.029,9,9,9s9-4.029,9-9S13.971,0,9,0L9,0z"/>
	</g>
</g>
<g>
	<path style="fill:#FFFFFF;" d="M11.821,6.048c-0.362,0.652-2.218,3.782-2.667,7.074H7.29c0.63-3.655,2.347-6.147,2.656-6.645H6.182
		V5.019h5.639V6.048z"/>
</g>
</svg>
