<?xml version="1.0" encoding="iso-8859-1"?>
<!-- Generator: Adobe Illustrator 22.0.1, SVG Export Plug-In . SVG Version: 6.00 Build 0)  -->
<svg version="1.1" id="Layer_1" xmlns="http://www.w3.org/2000/svg" xmlns:xlink="http://www.w3.org/1999/xlink" x="0px" y="0px"
	 viewBox="0 0 18 18" style="enable-background:new 0 0 18 18;" xml:space="preserve">
<g>
	<circle style="fill:#8BB7F0;" cx="9" cy="9" r="8.5"/>
	<g>
		<path style="fill:#4E7AB5;" d="M9,1c4.411,0,8,3.589,8,8s-3.589,8-8,8s-8-3.589-8-8S4.589,1,9,1 M9,0C4.029,0,0,4.029,0,9
			s4.029,9,9,9s9-4.029,9-9S13.971,0,9,0L9,0z"/>
	</g>
</g>
<g>
	<path style="fill:#FFFFFF;" d="M6.092,10.94c0-1.489,1.321-1.972,1.588-2.062C7.27,8.675,6.386,8.098,6.386,7.036
		c0-0.525,0.349-2.153,2.599-2.153c2.369,0,2.617,1.825,2.617,2.13c0,1.058-0.937,1.622-1.362,1.825
		c0.264,0.09,1.605,0.587,1.605,2.085c0,2.158-2.45,2.328-2.875,2.328C6.826,13.251,6.092,11.91,6.092,10.94z M7.782,10.788
		c0,0.185,0.033,1.187,1.192,1.187c0.173,0,1.193-0.09,1.193-1.187c0-0.162-0.088-1.198-1.193-1.198
		C7.893,9.59,7.782,10.615,7.782,10.788z M8.031,7.2c0,0.885,0.834,1.028,0.966,1.028c0.835,0,0.972-0.885,0.972-1.028
		c0-0.147-0.136-1.034-0.972-1.034C8.101,6.166,8.031,7.057,8.031,7.2z"/>
</g>
</svg>
