<?xml version="1.0" encoding="iso-8859-1"?>
<!-- Generator: Adobe Illustrator 22.0.1, SVG Export Plug-In . SVG Version: 6.00 Build 0)  -->
<svg version="1.1" id="Layer_1" xmlns="http://www.w3.org/2000/svg" xmlns:xlink="http://www.w3.org/1999/xlink" x="0px" y="0px"
	 viewBox="0 0 18 18" style="enable-background:new 0 0 18 18;" xml:space="preserve">
<g>
	<circle style="fill:#8BB7F0;" cx="9" cy="9" r="8.5"/>
	<g>
		<path style="fill:#4E7AB5;" d="M9,1c4.411,0,8,3.589,8,8s-3.589,8-8,8s-8-3.589-8-8S4.589,1,9,1 M9,0C4.029,0,0,4.029,0,9
			s4.029,9,9,9s9-4.029,9-9S13.971,0,9,0L9,0z"/>
	</g>
</g>
<g>
	<path style="fill:#FFFFFF;" d="M11.782,8.681c0,4.476-2.972,4.582-3.526,4.582c-0.663,0-1.234-0.105-1.712-0.316v-1.469
		c0.426,0.279,0.938,0.418,1.537,0.418c1.75,0,1.962-1.65,1.966-2.441l-0.034-0.011c-0.358,0.531-0.902,0.797-1.633,0.797
		c-0.331,0-2.3-0.197-2.3-2.497c0-0.814,0.402-2.859,2.859-2.859C11.688,4.884,11.782,8.082,11.782,8.681z M9.98,7.732
		c0-0.281-0.127-1.487-1.09-1.487c-0.485,0-1.062,0.414-1.062,1.345c0,0.527,0.191,1.322,1.102,1.322
		C9.332,8.912,9.98,8.599,9.98,7.732z"/>
</g>
</svg>
