<?xml version="1.0" encoding="iso-8859-1"?>
<!-- Generator: Adobe Illustrator 22.0.1, SVG Export Plug-In . SVG Version: 6.00 Build 0)  -->
<svg version="1.1" id="Layer_1" xmlns="http://www.w3.org/2000/svg" xmlns:xlink="http://www.w3.org/1999/xlink" x="0px" y="0px"
	 viewBox="0 0 16 16" style="enable-background:new 0 0 16 16;" xml:space="preserve">
<path d="M13.657,8l1.172-1.172C15.584,6.073,16,5.068,16,4s-0.416-2.073-1.172-2.828C14.073,0.416,13.068,0,12,0
	S9.927,0.416,9.172,1.172L8,2.343L6.828,1.172C6.073,0.416,5.068,0,4,0S1.927,0.416,1.172,1.172C0.416,1.927,0,2.932,0,4
	s0.416,2.073,1.172,2.828L2.343,8L1.172,9.172C0.416,9.927,0,10.932,0,12s0.416,2.073,1.172,2.828C1.927,15.584,2.932,16,4,16
	s2.073-0.416,2.828-1.172L8,13.657l1.172,1.172C9.927,15.584,10.932,16,12,16s2.073-0.416,2.828-1.172
	C15.584,14.073,16,13.068,16,12s-0.416-2.073-1.172-2.828L13.657,8z"/>
</svg>
