<?xml version="1.0" encoding="iso-8859-1"?>
<!-- Generator: Adobe Illustrator 22.0.1, SVG Export Plug-In . SVG Version: 6.00 Build 0)  -->
<svg version="1.1" id="Layer_1" xmlns="http://www.w3.org/2000/svg" xmlns:xlink="http://www.w3.org/1999/xlink" x="0px" y="0px"
	 viewBox="0 0 18 18" style="enable-background:new 0 0 18 18;" xml:space="preserve">
<path d="M17.871,6.445c-0.347-1.068-1.335-1.795-2.458-1.808l-2.981-0.034l-0.954-2.824C11.119,0.715,10.123,0,9,0
	C7.877,0,6.881,0.715,6.521,1.779L5.568,4.603L2.587,4.637C1.464,4.65,0.476,5.377,0.129,6.445s0.025,2.236,0.926,2.907l2.391,1.78
	l-0.888,2.845c-0.251,0.804-0.111,1.651,0.385,2.325c0.494,0.672,1.284,1.073,2.114,1.073c0.542,0,1.064-0.168,1.511-0.485L9,15.167
	l2.432,1.724c0.447,0.317,0.97,0.485,1.511,0.485c0.83,0,1.62-0.401,2.114-1.073c0.496-0.674,0.636-1.522,0.385-2.325l-0.888-2.845
	l2.391-1.78C17.846,8.682,18.218,7.513,17.871,6.445z"/>
</svg>
