<?xml version="1.0" encoding="iso-8859-1"?>
<!-- Generator: Adobe Illustrator 22.0.1, SVG Export Plug-In . SVG Version: 6.00 Build 0)  -->
<svg version="1.1" id="Layer_1" xmlns="http://www.w3.org/2000/svg" xmlns:xlink="http://www.w3.org/1999/xlink" x="0px" y="0px"
	 viewBox="0 0 16 16" style="enable-background:new 0 0 16 16;" xml:space="preserve">
<path d="M10.727,1C9.611,1,8.699,1.362,8,1.805C7.301,1.362,6.389,1,5.273,1C2.365,1,0,3.365,0,6.273
	c0,3.931,5.128,8.246,6.156,9.072c0.015,0.012,0.031,0.025,0.047,0.036C6.739,15.786,7.361,16,8,16s1.261-0.214,1.797-0.619
	c0.016-0.012,0.031-0.024,0.047-0.036C10.872,14.519,16,10.203,16,6.273C16,3.365,13.635,1,10.727,1z"/>
</svg>
