<?xml version="1.0" encoding="iso-8859-1"?>
<!-- Generator: Adobe Illustrator 22.0.1, SVG Export Plug-In . SVG Version: 6.00 Build 0)  -->
<svg version="1.1" id="Layer_1" xmlns="http://www.w3.org/2000/svg" xmlns:xlink="http://www.w3.org/1999/xlink" x="0px" y="0px"
	 viewBox="0 0 18 18" style="enable-background:new 0 0 18 18;" xml:space="preserve">
<path d="M11,0C7.14,0,4,3.14,4,7c0,0.357,0.031,0.717,0.091,1.08l-3.506,3.506C0.211,11.961,0,12.47,0,13v2.992
	c0,1.102,0.892,1.997,1.994,2l3,0.008C4.996,18,4.998,18,5,18c0.529,0,1.037-0.21,1.412-0.584C6.789,17.041,7,16.531,7,16
	c0.53,0,1.039-0.211,1.414-0.586l1.506-1.506C10.283,13.969,10.643,14,11,14c3.86,0,7-3.14,7-7S14.86,0,11,0z"/>
</svg>
