<?xml version="1.0" encoding="iso-8859-1"?>
<!-- Generator: Adobe Illustrator 22.0.1, SVG Export Plug-In . SVG Version: 6.00 Build 0)  -->
<svg version="1.1" id="Layer_1" xmlns="http://www.w3.org/2000/svg" xmlns:xlink="http://www.w3.org/1999/xlink" x="0px" y="0px"
	 viewBox="0 0 18 18" style="enable-background:new 0 0 18 18;" xml:space="preserve">
<path d="M16.242,1.757C15.15,0.665,13.604,0.038,12,0.038c-1.604,0-3.15,0.627-4.242,1.719L6.413,3.103
	C6.049,3.467,5.847,3.948,5.828,4.441C5.061,4.739,4.357,5.196,3.758,5.796l-2,2C0.624,8.928,0,10.435,0,12.038
	c0,1.603,0.624,3.11,1.758,4.243C2.85,17.373,4.396,18,6,18c1.604,0,3.15-0.627,4.242-1.719l1.345-1.345
	c0.364-0.364,0.566-0.845,0.584-1.339c0.768-0.298,1.471-0.755,2.071-1.354l2-2C17.376,9.11,18,7.603,18,6S17.376,2.89,16.242,1.757
	z"/>
</svg>
