<?xml version="1.0" encoding="iso-8859-1"?>
<!-- Generator: Adobe Illustrator 22.0.1, SVG Export Plug-In . SVG Version: 6.00 Build 0)  -->
<svg version="1.1" id="Layer_1" xmlns="http://www.w3.org/2000/svg" xmlns:xlink="http://www.w3.org/1999/xlink" x="0px" y="0px"
	 viewBox="0 0 16 18" style="enable-background:new 0 0 16 18;" xml:space="preserve">
<path d="M12.502,3C12.502,3,12.501,3,12.502,3c-0.021,0-0.041,0-0.061,0.001c-0.185,0.003-0.369,0.022-0.553,0.055
	C11.462,1.304,9.88,0,8,0C6.12,0,4.538,1.304,4.113,3.055c-0.179-0.032-0.359-0.05-0.538-0.054C3.55,3,3.525,3,3.5,3
	C1.57,3,0,4.57,0,6.5v8C0,16.43,1.57,18,3.5,18l9,0c1.93,0,3.5-1.57,3.5-3.5v-8C16,4.571,14.431,3.001,12.502,3z"/>
</svg>
