<?xml version="1.0" encoding="iso-8859-1"?>
<!-- Generator: Adobe Illustrator 22.0.1, SVG Export Plug-In . SVG Version: 6.00 Build 0)  -->
<svg version="1.1" id="Layer_1" xmlns="http://www.w3.org/2000/svg" xmlns:xlink="http://www.w3.org/1999/xlink" x="0px" y="0px"
	 viewBox="0 0 18 18" style="enable-background:new 0 0 18 18;" xml:space="preserve">
<path d="M17.517,4.638c-0.242-0.633-0.881-1.764-1.636-2.519c-0.755-0.755-1.885-1.394-2.519-1.636
	c-0.828-0.316-1.698-0.477-2.586-0.477c-1.923,0-3.73,0.748-5.088,2.106C4.126,3.674,3.646,5.611,4.282,7.589l-3.012,3.012
	c-1.69,1.69-1.69,4.439,0,6.129C2.088,17.549,3.176,18,4.334,18s2.246-0.451,3.064-1.269l0.378-0.378l2.631-2.631
	c0.565,0.184,1.127,0.276,1.681,0.276c0.964,0,2.406-0.292,3.799-1.685C17.892,10.308,18.531,7.296,17.517,4.638z"/>
</svg>
