<?xml version="1.0" encoding="iso-8859-1"?>
<!-- Generator: Adobe Illustrator 22.0.1, SVG Export Plug-In . SVG Version: 6.00 Build 0)  -->
<svg version="1.1" id="Layer_1" xmlns="http://www.w3.org/2000/svg" xmlns:xlink="http://www.w3.org/1999/xlink" x="0px" y="0px"
	 viewBox="0 0 18 18" style="enable-background:new 0 0 18 18;" xml:space="preserve">
<path d="M17.092,6.832c0.274-0.634,0.251-1.381-0.117-2.019l-0.361-0.626c-0.357-0.619-0.989-1.028-1.69-1.11
	c-0.079-0.686-0.473-1.322-1.111-1.691l-0.626-0.361c-0.342-0.197-0.731-0.302-1.125-0.302c-0.31,0-0.614,0.065-0.893,0.186
	C10.758,0.354,10.098,0,9.361,0H8.639C7.902,0,7.242,0.354,6.831,0.909C6.552,0.789,6.248,0.724,5.938,0.724c0,0,0,0,0,0
	c-0.394,0-0.783,0.104-1.125,0.302L4.187,1.387C3.549,1.755,3.155,2.391,3.076,3.077c-0.701,0.082-1.333,0.492-1.69,1.11
	L1.025,4.813c-0.37,0.64-0.392,1.392-0.113,2.028C0.354,7.254,0,7.909,0,8.639v0.722c0,0.736,0.354,1.395,0.908,1.807
	c-0.274,0.634-0.251,1.381,0.117,2.019l0.361,0.626c0.357,0.619,0.989,1.028,1.69,1.11c0.079,0.686,0.473,1.322,1.111,1.691
	l0.626,0.361c0.342,0.197,0.731,0.302,1.125,0.302c0.31,0,0.614-0.065,0.893-0.186C7.242,17.646,7.902,18,8.639,18h0.722
	c0.737,0,1.396-0.354,1.808-0.909c0.279,0.121,0.583,0.186,0.893,0.186c0.394,0,0.783-0.104,1.125-0.301l0.626-0.361
	c0.638-0.368,1.032-1.004,1.111-1.691c0.701-0.082,1.333-0.491,1.69-1.11l0.361-0.626c0.368-0.637,0.391-1.385,0.117-2.019
	C17.647,10.756,18,10.097,18,9.361V8.639C18,7.903,17.646,7.244,17.092,6.832z"/>
</svg>
