<?xml version="1.0" encoding="iso-8859-1"?>
<!-- Generator: Adobe Illustrator 22.0.1, SVG Export Plug-In . SVG Version: 6.00 Build 0)  -->
<svg version="1.1" id="Layer_1" xmlns="http://www.w3.org/2000/svg" xmlns:xlink="http://www.w3.org/1999/xlink" x="0px" y="0px"
	 viewBox="0 0 16 18" style="enable-background:new 0 0 16 18;" xml:space="preserve">
<path d="M14.379,10.349C14.13,9.905,14,9.422,14,8.929V7c0-2.302-1.319-4.359-3.325-5.357C10.179,0.669,9.166,0,8,0
	S5.821,0.669,5.325,1.643C3.319,2.641,2,4.698,2,7v1.929c0,0.494-0.13,0.977-0.379,1.42C0.65,10.848,0,11.852,0,13
	c0,1.654,1.346,3,3,3h1.838C5.401,17.182,6.607,18,8,18s2.599-0.818,3.162-2H13c1.654,0,3-1.346,3-3
	C16,11.852,15.35,10.848,14.379,10.349z"/>
</svg>
