<?xml version="1.0" encoding="iso-8859-1"?>
<!-- Generator: Adobe Illustrator 22.0.1, SVG Export Plug-In . SVG Version: 6.00 Build 0)  -->
<svg version="1.1" id="Layer_1" xmlns="http://www.w3.org/2000/svg" xmlns:xlink="http://www.w3.org/1999/xlink" x="0px" y="0px"
	 viewBox="0 0 18 18" style="enable-background:new 0 0 18 18;" xml:space="preserve">
<path d="M17.232,4.009c-0.026-0.029-0.053-0.058-0.081-0.086L14.035,0.82c-0.047-0.046-0.095-0.09-0.146-0.132
	C13.338,0.238,12.685,0,12,0c-0.881,0-1.717,0.396-2.293,1.086c-0.025,0.03-0.049,0.06-0.072,0.092L7.136,4.554
	C6.999,4.739,6.898,4.942,6.833,5.152C6.41,5.052,5.973,5,5.528,5C4.039,5,2.639,5.58,1.586,6.633c-0.781,0.781-0.781,2.047,0,2.828
	l1.355,1.355l-2.062,2.062C0.312,13.445,0,14.199,0,15c0,0.801,0.312,1.555,0.879,2.121C1.445,17.688,2.199,18,3,18
	s1.555-0.312,2.121-0.879l2.062-2.062l1.355,1.355C8.914,16.789,9.422,17,9.953,17c0.53,0,1.039-0.211,1.414-0.586
	c1.42-1.42,1.913-3.422,1.477-5.246c0.211-0.065,0.415-0.166,0.602-0.304l3.395-2.511c0.044-0.032,0.086-0.066,0.127-0.102
	C17.624,7.677,18,6.857,18,6C18,5.272,17.727,4.565,17.232,4.009z"/>
</svg>
