<?xml version="1.0" encoding="iso-8859-1"?>
<!-- Generator: Adobe Illustrator 22.0.1, SVG Export Plug-In . SVG Version: 6.00 Build 0)  -->
<svg version="1.1" id="Layer_1" xmlns="http://www.w3.org/2000/svg" xmlns:xlink="http://www.w3.org/1999/xlink" x="0px" y="0px"
	 viewBox="0 0 16 18" style="enable-background:new 0 0 16 18;" xml:space="preserve">
<path d="M14.486,6.411L4.64,0.509C4.137,0.176,3.572,0,3,0C1.346,0,0,1.346,0,3c0,0.019,0,0.037,0.001,0.056L0,9v5.996
	c0,0.001,0,0.001,0,0.002C0,14.998,0,14.999,0,15c0,1.654,1.346,3,3,3c0.572,0,1.137-0.176,1.64-0.509l9.846-5.901
	C15.421,11.052,16,10.064,16,9C16,7.936,15.421,6.948,14.486,6.411z"/>
</svg>
