<?xml version="1.0" encoding="iso-8859-1"?>
<!-- Generator: Adobe Illustrator 22.0.1, SVG Export Plug-In . SVG Version: 6.00 Build 0)  -->
<svg version="1.1" id="Layer_1" xmlns="http://www.w3.org/2000/svg" xmlns:xlink="http://www.w3.org/1999/xlink" x="0px" y="0px"
	 viewBox="0 0 18 18" style="enable-background:new 0 0 18 18;" xml:space="preserve">
<g>
	<path d="M13.828,9l3.545-3.545C17.761,5.09,18.003,4.573,18.003,4c0-1.105-0.893-2-1.997-2H16h-3c-0.53,0-1.039,0.211-1.414,0.586
		L9.941,4.231C9.57,1.837,7.496,0,5,0C2.243,0,0,2.243,0,5c0,1.634,0.788,3.087,2.003,4C0.788,9.913,0,11.366,0,13
		c0,2.757,2.243,5,5,5c2.496,0,4.57-1.838,4.941-4.231l1.645,1.645C11.961,15.789,12.47,16,13,16h3c0.809,0,1.538-0.487,1.848-1.235
		c0.31-0.747,0.138-1.608-0.434-2.18L13.828,9z"/>
</g>
</svg>
