<?xml version="1.0" encoding="iso-8859-1"?>
<!-- Generator: Adobe Illustrator 22.0.1, SVG Export Plug-In . SVG Version: 6.00 Build 0)  -->
<svg version="1.1" id="Layer_1" xmlns="http://www.w3.org/2000/svg" xmlns:xlink="http://www.w3.org/1999/xlink" x="0px" y="0px"
	 viewBox="0 0 18 14" style="enable-background:new 0 0 18 14;" xml:space="preserve">
<path d="M15,4H9.83C9.942,3.683,10,3.346,10,3c0-0.801-0.312-1.555-0.879-2.121C8.555,0.312,7.801,0,7,0
	C6.199,0,5.445,0.312,4.879,0.879L0.879,4.878c-0.278,0.278-0.498,0.606-0.65,0.975c-0.302,0.729-0.302,1.565,0,2.294
	c0.153,0.369,0.372,0.698,0.652,0.977l3.998,3.998C5.445,13.688,6.199,14,7,14c0.801,0,1.555-0.312,2.121-0.879
	C9.688,12.555,10,11.801,10,11c0-0.346-0.058-0.683-0.17-1H15c1.654,0,3-1.346,3-3C18,5.346,16.654,4,15,4z"/>
</svg>
