<?xml version="1.0" encoding="iso-8859-1"?>
<!-- Generator: Adobe Illustrator 22.0.1, SVG Export Plug-In . SVG Version: 6.00 Build 0)  -->
<svg version="1.1" id="Layer_1" xmlns="http://www.w3.org/2000/svg" xmlns:xlink="http://www.w3.org/1999/xlink" x="0px" y="0px"
	 viewBox="0 0 18 14" style="enable-background:new 0 0 18 14;" xml:space="preserve">
<path d="M17.771,5.854c-0.153-0.369-0.372-0.698-0.652-0.977l-3.998-3.998C12.555,0.312,11.801,0,11,0S9.445,0.312,8.879,0.879
	C8.312,1.445,8,2.199,8,3c0,0.346,0.058,0.683,0.17,1H3C1.346,4,0,5.346,0,7c0,1.654,1.346,3,3,3h5.17C8.058,10.317,8,10.654,8,11
	c0,0.801,0.312,1.555,0.879,2.121C9.445,13.688,10.199,14,11,14c0.801,0,1.555-0.312,2.121-0.879l3.999-3.999
	c0.279-0.278,0.498-0.607,0.65-0.975C18.072,7.418,18.072,6.582,17.771,5.854z"/>
</svg>
