<?xml version="1.0" encoding="iso-8859-1"?>
<!-- Generator: Adobe Illustrator 21.1.0, SVG Export Plug-In . SVG Version: 6.00 Build 0)  -->
<svg version="1.1" id="Layer_1" xmlns="http://www.w3.org/2000/svg" xmlns:xlink="http://www.w3.org/1999/xlink" x="0px" y="0px"
	 viewBox="0 0 9 8" style="enable-background:new 0 0 9 8;" xml:space="preserve">
<path d="M4.5,7.984L4.249,7.839C4.076,7.738,0,5.344,0,2.631c0-0.133,0.013-0.255,0.039-0.373C0.198,0.99,1.325,0,2.654,0
	C3.357,0,4.012,0.271,4.5,0.748C4.988,0.271,5.642,0,6.346,0C7.67,0,8.793,0.981,8.967,2.286C8.989,2.396,9,2.509,9,2.631
	c0,2.713-4.076,5.107-4.249,5.208L4.5,7.984z M2.654,1C1.828,1,1.126,1.614,1.023,2.429C1.005,2.52,1,2.571,1,2.631
	c0,1.65,2.33,3.455,3.5,4.19C5.67,6.085,8,4.277,8,2.631c0-0.058-0.005-0.109-0.016-0.157L7.978,2.431C7.875,1.615,7.174,1,6.346,1
	C5.762,1,5.231,1.301,4.929,1.806L4.5,2.52L4.071,1.806C3.768,1.301,3.238,1,2.654,1z"/>
</svg>
