<?xml version="1.0" encoding="iso-8859-1"?>
<!-- Generator: Adobe Illustrator 21.1.0, SVG Export Plug-In . SVG Version: 6.00 Build 0)  -->
<svg version="1.1" id="Layer_1" xmlns="http://www.w3.org/2000/svg" xmlns:xlink="http://www.w3.org/1999/xlink" x="0px" y="0px"
	 viewBox="0 0 8 8" style="enable-background:new 0 0 8 8;" xml:space="preserve">
<g>
	<g>
		<path d="M2,8H0V6.293l2.205-2.206C2.069,3.727,2,3.363,2,3c0-1.682,1.318-3,3-3c1.683,0,3,1.318,3,3S6.683,6,5,6
			C4.637,6,4.272,5.931,3.912,5.795L2.707,7H2V8z M1.707,6h0.586l1.408-1.408l0.322,0.161C5.505,5.494,7,4.446,7,3
			c0-1.122-0.879-2-2-2C3.878,1,3,1.878,3,3c0,0.324,0.081,0.644,0.247,0.977l0.161,0.322L1.707,6z"/>
	</g>
</g>
<circle cx="5.5" cy="2.5" r="0.5"/>
</svg>
