<?xml version="1.0" encoding="iso-8859-1"?>
<!-- Generator: Adobe Illustrator 21.1.0, SVG Export Plug-In . SVG Version: 6.00 Build 0)  -->
<svg version="1.1" id="Layer_1" xmlns="http://www.w3.org/2000/svg" xmlns:xlink="http://www.w3.org/1999/xlink" x="0px" y="0px"
	 viewBox="0 0 7 7" style="enable-background:new 0 0 7 7;" xml:space="preserve">
<g>
	<path style="fill:#06070E;" d="M6.561,0.439c-0.585-0.585-1.54-0.585-2.125,0L3.434,1.44C2.974,1.9,2.888,2.582,3.152,3.139
		l0.991-0.991l1.002-1.002C5.242,1.049,5.37,1,5.498,1s0.256,0.049,0.354,0.147c0.196,0.196,0.196,0.513,0,0.708L4.851,2.857
		L3.853,3.855c0.199,0.095,0.417,0.15,0.644,0.15c0.401,0,0.779-0.157,1.062-0.44l1.002-1.002C7.147,1.978,7.147,1.025,6.561,0.439z
		"/>
	<path style="fill:#06070E;" d="M3.996,3.505c0-0.277-0.224-0.501-0.501-0.501S2.994,3.228,2.994,3.505s0.224,0.501,0.501,0.501
		c0.136,0,0.259-0.055,0.35-0.144L2.857,4.85L1.856,5.852c-0.19,0.19-0.518,0.19-0.708,0c-0.196-0.196-0.196-0.513,0-0.708
		L2.15,4.142l0.99-0.991C2.582,2.889,1.9,2.974,1.441,3.433L0.439,4.435c-0.586,0.586-0.586,1.539,0,2.125
		C0.723,6.843,1.1,7,1.502,7C1.904,7,2.28,6.843,2.564,6.56l1.002-1.002c0.46-0.46,0.546-1.141,0.282-1.698
		C3.939,3.769,3.996,3.644,3.996,3.505z"/>
</g>
</svg>
