<?xml version="1.0" encoding="iso-8859-1"?>
<!-- Generator: Adobe Illustrator 21.1.0, SVG Export Plug-In . SVG Version: 6.00 Build 0)  -->
<svg version="1.1" id="Layer_1" xmlns="http://www.w3.org/2000/svg" xmlns:xlink="http://www.w3.org/1999/xlink" x="0px" y="0px"
	 viewBox="0 0 7 8" style="enable-background:new 0 0 7 8;" xml:space="preserve">
<g>
	<path d="M6.5,3H5V1.5C5,0.673,4.327,0,3.5,0S2,0.673,2,1.5V3H0.5C0.224,3,0,3.224,0,3.5v4C0,7.776,0.224,8,0.5,8h6
		C6.776,8,7,7.776,7,7.5v-4C7,3.224,6.776,3,6.5,3z M3,1.5C3,1.26,3.191,1,3.5,1C3.74,1,4,1.191,4,1.5V3H3V1.5z M6,7H1V4h5V7z"/>
	<circle cx="3.5" cy="5.5" r="0.5"/>
</g>
</svg>
