<?xml version="1.0" encoding="iso-8859-1"?>
<!-- Generator: Adobe Illustrator 21.1.0, SVG Export Plug-In . SVG Version: 6.00 Build 0)  -->
<svg version="1.1" id="Layer_1" xmlns="http://www.w3.org/2000/svg" xmlns:xlink="http://www.w3.org/1999/xlink" x="0px" y="0px"
	 viewBox="0 0 7 8" enable-background="new 0 0 7 8" xml:space="preserve">
<path d="M3.5,8L3.289,7.902C3.154,7.839,0,6.334,0,3.548V1.4c0-0.421,0.347-0.924,0.797-0.992C1.43,0.208,2.639,0,3.5,0
	c0.639,0,1.458,0.165,2.116,0.298c0.217,0.044,0.412,0.083,0.565,0.109c0.003,0,0.007,0,0.01,0C6.603,0.407,7,0.853,7,1.4v2.248
	c0,2.687-3.154,4.191-3.289,4.253L3.5,8z M1.036,1.381L1,3.548c0,1.788,1.862,2.98,2.5,3.336C4.14,6.53,6,5.354,6,3.648V1.4
	c0-0.009,0.004-0.013,0.011-0.013C5.804,1.356,5.62,1.319,5.418,1.278C4.836,1.161,4.039,1,3.5,1C2.745,1,1.587,1.198,1.058,1.374
	L1.036,1.381z M6.03,1.39C6.047,1.394,6.07,1.4,6.1,1.4C6.076,1.397,6.053,1.394,6.03,1.39z"/>
</svg>
