<?xml version="1.0" encoding="iso-8859-1"?>
<!-- Generator: Adobe Illustrator 21.1.0, SVG Export Plug-In . SVG Version: 6.00 Build 0)  -->
<svg version="1.1" id="Layer_1" xmlns="http://www.w3.org/2000/svg" xmlns:xlink="http://www.w3.org/1999/xlink" x="0px" y="0px"
	 viewBox="0 0 8 8" style="enable-background:new 0 0 8 8;" xml:space="preserve">
<path d="M7.5,8h-5C2.224,8,2,7.776,2,7.5V7H1.5C0.729,7,0,6.271,0,5.5C0,4.729,0.729,4,1.5,4H2V2.5C2,2.224,2.224,2,2.5,2H4V1.5
	C4,0.729,4.729,0,5.5,0C6.271,0,7,0.729,7,1.5V2h0.5C7.776,2,8,2.224,8,2.5v5C8,7.776,7.776,8,7.5,8z M3,7h4V3H6.5
	C6.224,3,6,2.776,6,2.5v-1C6,1.276,5.725,1,5.5,1S5,1.276,5,1.5v1C5,2.776,4.776,3,4.5,3H3v1.5C3,4.776,2.776,5,2.5,5h-1
	C1.276,5,1,5.275,1,5.5S1.276,6,1.5,6h1C2.776,6,3,6.224,3,6.5V7z"/>
</svg>
