<?xml version="1.0" encoding="iso-8859-1"?>
<!-- Generator: Adobe Illustrator 21.1.0, SVG Export Plug-In . SVG Version: 6.00 Build 0)  -->
<svg version="1.1" id="Layer_1" xmlns="http://www.w3.org/2000/svg" xmlns:xlink="http://www.w3.org/1999/xlink" x="0px" y="0px"
	 viewBox="0 0 8 8" style="enable-background:new 0 0 8 8;" xml:space="preserve">
<path d="M5,0C3.346,0,2,1.346,2,3c0,0.647,0.21,1.243,0.56,1.733L0.046,7.246l0.707,0.707L3.267,5.44C3.757,5.79,4.353,6,5,6
	c1.654,0,3-1.346,3-3S6.654,0,5,0z M5,5C3.897,5,3,4.103,3,3s0.897-2,2-2c1.103,0,2,0.897,2,2S6.103,5,5,5z"/>
</svg>
