<?xml version="1.0" encoding="iso-8859-1"?>
<!-- Generator: Adobe Illustrator 21.1.0, SVG Export Plug-In . SVG Version: 6.00 Build 0)  -->
<svg version="1.1" id="Layer_1" xmlns="http://www.w3.org/2000/svg" xmlns:xlink="http://www.w3.org/1999/xlink" x="0px" y="0px"
	 viewBox="0 0 8 8" style="enable-background:new 0 0 8 8;" xml:space="preserve">
<path d="M6.5,8C6.086,8,5.751,7.858,5.446,7.554L3.763,5.87C3.525,5.941,3.269,6,3,6C1.318,6,0,4.682,0,3
	c0-0.381,0.12-0.741,0.226-1.058c0.055-0.165,0.191-0.289,0.359-0.329c0.169-0.04,0.346,0.011,0.468,0.133l1.2,1.2
	c0.069,0.068,0.223,0.069,0.292,0l0.4-0.4c0.069-0.069,0.069-0.224,0-0.293l-1.2-1.2c-0.123-0.123-0.173-0.3-0.133-0.468
	c0.04-0.168,0.164-0.305,0.329-0.359C2.259,0.12,2.619,0,3,0c1.682,0,3,1.318,3,3c0,0.269-0.059,0.525-0.13,0.763l1.684,1.684l0,0
	c0.59,0.591,0.59,1.517,0,2.107C7.249,7.858,6.914,8,6.5,8z M3.9,4.8c0.13,0,0.258,0.051,0.354,0.146l1.9,1.9
	c0.238,0.238,0.455,0.238,0.693,0c0.203-0.204,0.203-0.489,0-0.693l-1.9-1.9C4.812,4.119,4.766,3.921,4.826,3.741
	C4.912,3.485,5,3.222,5,3c0-1.084-0.822-1.942-1.89-1.997l0.543,0.543c0.24,0.24,0.372,0.543,0.372,0.854
	c0,0.311-0.132,0.614-0.372,0.854L3.253,3.653c-0.477,0.479-1.227,0.48-1.707,0L1.003,3.11C1.07,4.396,2.236,5.332,3.741,4.826
	C3.793,4.808,3.847,4.8,3.9,4.8z"/>
</svg>
