<?xml version="1.0" encoding="iso-8859-1"?>
<!-- Generator: Adobe Illustrator 21.1.0, SVG Export Plug-In . SVG Version: 6.00 Build 0)  -->
<svg version="1.1" id="Layer_1" xmlns="http://www.w3.org/2000/svg" xmlns:xlink="http://www.w3.org/1999/xlink" x="0px" y="0px"
	 viewBox="0 0 7 7" style="enable-background:new 0 0 7 7;" xml:space="preserve">
<path d="M7,4V3H5.949C5.885,2.681,5.757,2.386,5.584,2.123l0.77-0.77L5.646,0.646l-0.77,0.77C4.614,1.243,4.319,1.116,4,1.051V0H3
	v1.051C2.681,1.116,2.386,1.243,2.124,1.417l-0.77-0.77L0.646,1.354l0.77,0.77C1.243,2.386,1.116,2.681,1.051,3H0v1h1.051
	c0.065,0.319,0.192,0.614,0.366,0.877l-0.77,0.77l0.707,0.707l0.77-0.77C2.386,5.757,2.681,5.885,3,5.949V7h1V5.949
	c0.31-0.063,0.597-0.187,0.855-0.354l0.778,0.843l0.734-0.678L5.571,4.899C5.752,4.631,5.883,4.327,5.949,4H7z M2,3.5
	C2,2.673,2.673,2,3.5,2S5,2.673,5,3.5S4.327,5,3.5,5S2,4.327,2,3.5z"/>
</svg>
