<?xml version="1.0" encoding="iso-8859-1"?>
<!-- Generator: Adobe Illustrator 21.1.0, SVG Export Plug-In . SVG Version: 6.00 Build 0)  -->
<svg version="1.1" id="Layer_1" xmlns="http://www.w3.org/2000/svg" xmlns:xlink="http://www.w3.org/1999/xlink" x="0px" y="0px"
	 viewBox="0 0 10 7" style="enable-background:new 0 0 10 7;" xml:space="preserve">
<path d="M7.5,7H2C0.916,7,0,6.084,0,5s0.916-2,2-2c0-1.682,1.318-3,3-3c1.239,0,2.395,0.834,2.868,2.027
	C9.073,2.206,10,3.247,10,4.5C10,5.879,8.879,7,7.5,7z M2,4C1.477,4,1,4.477,1,5s0.477,1,1,1h5.5C8.327,6,9,5.327,9,4.5
	S8.327,3,7.5,3C7.274,3,7.077,2.849,7.018,2.631C6.76,1.686,5.912,1,5,1C3.878,1,3,1.878,3,3c0,0.18,0.002,0.286,0.047,0.376
	c0.096,0.192,0.059,0.425-0.094,0.577C2.8,4.106,2.568,4.145,2.376,4.047C2.286,4.002,2.18,4,2,4z"/>
</svg>
