<?xml version="1.0" encoding="iso-8859-1"?>
<!-- Generator: Adobe Illustrator 21.1.0, SVG Export Plug-In . SVG Version: 6.00 Build 0)  -->
<svg version="1.1" id="Layer_1" xmlns="http://www.w3.org/2000/svg" xmlns:xlink="http://www.w3.org/1999/xlink" x="0px" y="0px"
	 viewBox="0 0 7 9" enable-background="new 0 0 7 9" xml:space="preserve">
<g>
	<path d="M6.5,7C6.178,7,6,6.822,6,6.5v-3c0-1.207-0.86-2.217-2-2.449V0.5C4,0.224,3.776,0,3.5,0S3,0.224,3,0.5v0.551
		C1.86,1.283,1,2.293,1,3.5v3C1,6.822,0.822,7,0.5,7H0v1h3.5H7V7H6.5z M1.917,7C1.967,6.845,2,6.679,2,6.5v-3C2,2.673,2.673,2,3.5,2
		S5,2.673,5,3.5v3C5,6.679,5.033,6.845,5.083,7H1.917z"/>
	<circle cx="3.5" cy="8.5" r="0.5"/>
</g>
</svg>
