<?xml version="1.0" encoding="iso-8859-1"?>
<!-- Generator: Adobe Illustrator 21.1.0, SVG Export Plug-In . SVG Version: 6.00 Build 0)  -->
<svg version="1.1" id="Layer_1" xmlns="http://www.w3.org/2000/svg" xmlns:xlink="http://www.w3.org/1999/xlink" x="0px" y="0px"
	 viewBox="0 0 7 7" style="enable-background:new 0 0 7 7;" xml:space="preserve">
<path d="M6.5,1H6V0.5C6,0.224,5.776,0,5.5,0S5,0.224,5,0.5V1H2V0.5C2,0.224,1.776,0,1.5,0S1,0.224,1,0.5V1H0.5
	C0.224,1,0,1.224,0,1.5v5C0,6.776,0.224,7,0.5,7h6C6.776,7,7,6.776,7,6.5v-5C7,1.224,6.776,1,6.5,1z M1,6V3h5v3H1z"/>
</svg>
