<?xml version="1.0" encoding="iso-8859-1"?>
<!-- Generator: Adobe Illustrator 21.1.0, SVG Export Plug-In . SVG Version: 6.00 Build 0)  -->
<svg version="1.1" id="Layer_1" xmlns="http://www.w3.org/2000/svg" xmlns:xlink="http://www.w3.org/1999/xlink" x="0px" y="0px"
	 viewBox="0 0 8 5" style="enable-background:new 0 0 8 5;" xml:space="preserve">
<g>
	<path d="M7.856,2.295C7.814,2.201,6.791,0,4,0S0.187,2.201,0.144,2.295L0.052,2.5l0.092,0.205C0.187,2.799,1.209,5,4,5
		s3.814-2.201,3.856-2.295L7.948,2.5L7.856,2.295z M4,4C2.301,4,1.459,2.958,1.171,2.5C1.458,2.047,2.305,1,4,1
		c1.7,0,2.543,1.044,2.829,1.499C6.542,2.952,5.695,4,4,4z"/>
	<circle cx="4" cy="2" r="1"/>
</g>
</svg>
