<?xml version="1.0" encoding="iso-8859-1"?>
<!-- Generator: Adobe Illustrator 21.1.0, SVG Export Plug-In . SVG Version: 6.00 Build 0)  -->
<svg version="1.1" id="Layer_1" xmlns="http://www.w3.org/2000/svg" xmlns:xlink="http://www.w3.org/1999/xlink" x="0px" y="0px"
	 viewBox="0 0 6 8" style="enable-background:new 0 0 6 8;" xml:space="preserve">
<path d="M5,2V1h1V0H0v1h1v1c0,0.752,0.375,1.386,1,1.726v0.553C1.397,4.624,1,5.287,1,6v1H0v1h6V7H5V6c0-0.752-0.375-1.385-1-1.726
	V3.726C4.625,3.385,5,2.752,5,2z M2,7V6c0-0.402,0.283-0.801,0.658-0.926L3,4.96l0.342,0.114C3.766,5.216,4,5.545,4,6v1H2z
	 M3.342,2.925L3,3.04L2.658,2.925C2.233,2.784,2,2.456,2,2V1h2v1C4,2.456,3.766,2.784,3.342,2.925z"/>
</svg>
