<?xml version="1.0" encoding="iso-8859-1"?>
<!-- Generator: Adobe Illustrator 21.1.0, SVG Export Plug-In . SVG Version: 6.00 Build 0)  -->
<svg version="1.1" id="Layer_1" xmlns="http://www.w3.org/2000/svg" xmlns:xlink="http://www.w3.org/1999/xlink" x="0px" y="0px"
	 viewBox="0 0 8 8" style="enable-background:new 0 0 8 8;" xml:space="preserve">
<path d="M7.854,2.146l-2-2c-0.195-0.195-0.512-0.195-0.707,0s-0.195,0.512,0,0.707l0.139,0.139c-2.31,2.161-3.696,2.016-3.699,2.015
	c-0.215-0.038-0.43,0.068-0.53,0.261c-0.101,0.194-0.064,0.43,0.09,0.584L2.293,5L0.046,7.246l0.707,0.707L3,5.707l1.147,1.147
	c0.094,0.095,0.219,0.143,0.347,0.143c0.077,0,0.154-0.018,0.227-0.053c0.192-0.095,0.302-0.307,0.274-0.52
	c-0.002-0.014-0.146-1.4,2.013-3.709l0.139,0.139C7.244,2.951,7.372,3,7.5,3s0.256-0.049,0.354-0.146
	C8.049,2.658,8.049,2.342,7.854,2.146z M4.131,5.424L2.576,3.869c0.792-0.226,1.96-0.803,3.415-2.171l0.311,0.311
	C4.934,3.464,4.358,4.632,4.131,5.424z"/>
</svg>
