<?xml version="1.0" encoding="iso-8859-1"?>
<!-- Generator: Adobe Illustrator 21.1.0, SVG Export Plug-In . SVG Version: 6.00 Build 0)  -->
<svg version="1.1" id="Layer_1" xmlns="http://www.w3.org/2000/svg" xmlns:xlink="http://www.w3.org/1999/xlink" x="0px" y="0px"
	 viewBox="0 0 7 7" enable-background="new 0 0 7 7" xml:space="preserve">
<path d="M2.5,7h-2C0.224,7,0,6.776,0,6.5v-6C0,0.224,0.224,0,0.5,0h2C2.776,0,3,0.224,3,0.5v6C3,6.776,2.776,7,2.5,7z M1,6h1V1H1V6z
	"/>
<path d="M6.5,7h-2C4.224,7,4,6.776,4,6.5v-6C4,0.224,4.224,0,4.5,0h2C6.776,0,7,0.224,7,0.5v6C7,6.776,6.776,7,6.5,7z M5,6h1V1H5V6z
	"/>
</svg>
