<?xml version="1.0" encoding="iso-8859-1"?>
<!-- Generator: Adobe Illustrator 21.1.0, SVG Export Plug-In . SVG Version: 6.00 Build 0)  -->
<svg version="1.1" id="Layer_1" xmlns="http://www.w3.org/2000/svg" xmlns:xlink="http://www.w3.org/1999/xlink" x="0px" y="0px"
	 viewBox="0 0 9 7" style="enable-background:new 0 0 9 7;" xml:space="preserve">
<g>
	<path d="M2.561,0.439c-0.585-0.585-1.536-0.585-2.121,0s-0.585,1.536,0,2.121C0.732,2.853,1.116,2.999,1.5,2.999
		c0.304,0,0.596-0.118,0.854-0.302l1.25,0.818L2.397,4.331C1.81,3.884,0.976,3.904,0.439,4.439c-0.585,0.585-0.585,1.536,0,2.121
		C0.732,6.853,1.116,6.999,1.5,6.999s0.768-0.146,1.061-0.438c0.39-0.39,0.496-0.939,0.365-1.438L4.497,4.1L7.4,6H9L2.929,1.861
		C3.052,1.366,2.946,0.825,2.561,0.439z M1.854,5.854c-0.195,0.195-0.512,0.195-0.707,0c-0.195-0.195-0.195-0.512,0-0.707
		C1.244,5.049,1.372,5,1.5,5s0.256,0.049,0.354,0.146C2.048,5.342,2.048,5.658,1.854,5.854z M1.146,1.854
		c-0.195-0.195-0.195-0.512,0-0.707C1.244,1.049,1.372,1,1.5,1s0.256,0.048,0.354,0.146c0.195,0.195,0.195,0.512,0,0.707
		C1.658,2.049,1.342,2.049,1.146,1.854z"/>
	<polygon points="9,1 7.4,1 5.361,2.337 6.161,2.937 	"/>
</g>
</svg>
