<?xml version="1.0" encoding="iso-8859-1"?>
<!-- Generator: Adobe Illustrator 21.1.0, SVG Export Plug-In . SVG Version: 6.00 Build 0)  -->
<svg version="1.1" id="Layer_1" xmlns="http://www.w3.org/2000/svg" xmlns:xlink="http://www.w3.org/1999/xlink" x="0px" y="0px"
	 viewBox="0 0 11 7" style="enable-background:new 0 0 11 7;" xml:space="preserve">
<g>
	<path d="M3.428,4.865l0.743,0.67c0.327-0.363,0.786-0.571,1.291-0.584c0.541-0.028,1.087,0.206,1.484,0.603l0.707-0.707
		C7.063,4.256,6.249,3.935,5.436,3.951C4.654,3.972,3.941,4.297,3.428,4.865z"/>
	<path d="M1.946,3.446l0.707,0.707c1.597-1.596,4.098-1.596,5.693,0l0.707-0.707C7.063,1.454,3.94,1.453,1.946,3.446z"/>
	<path d="M0.546,2.046l0.707,0.707c2.302-2.302,6.19-2.302,8.493,0l0.707-0.707C7.77-0.638,3.232-0.64,0.546,2.046z"/>
	<circle cx="5.5" cy="6.5" r="0.5"/>
</g>
</svg>
