<?xml version="1.0" encoding="iso-8859-1"?>
<!-- Generator: Adobe Illustrator 21.1.0, SVG Export Plug-In . SVG Version: 6.00 Build 0)  -->
<svg version="1.1" id="Layer_1" xmlns="http://www.w3.org/2000/svg" xmlns:xlink="http://www.w3.org/1999/xlink" x="0px" y="0px"
	 viewBox="0 0 9 8" style="enable-background:new 0 0 9 8;" xml:space="preserve">
<path d="M7.5,2H7V0H2v2H1.5C0.617,2,0,2.617,0,3.5v2C0,6.369,0.631,7,1.5,7H2v1h5V7h0.5C8.369,7,9,6.369,9,5.5v-2
	C9,2.631,8.369,2,7.5,2z M3,1h3v1H3V1z M3,7V6h3v1H3z M8,5.5C8,5.822,7.822,6,7.5,6H7V5H2v1H1.5C1.178,6,1,5.822,1,5.5v-2
	C1,3.178,1.178,3,1.5,3H2h5h0.5C7.822,3,8,3.178,8,3.5V5.5z"/>
</svg>
