<?xml version="1.0" encoding="iso-8859-1"?>
<!-- Generator: Adobe Illustrator 21.1.0, SVG Export Plug-In . SVG Version: 6.00 Build 0)  -->
<svg version="1.1" id="Layer_1" xmlns="http://www.w3.org/2000/svg" xmlns:xlink="http://www.w3.org/1999/xlink" x="0px" y="0px"
	 viewBox="0 0 9 9" style="enable-background:new 0 0 9 9;" xml:space="preserve">
<g>
	<path d="M4.5,0C2.019,0,0,2.019,0,4.5S2.019,9,4.5,9S9,6.981,9,4.5S6.981,0,4.5,0z M4.5,8C2.57,8,1,6.43,1,4.5S2.57,1,4.5,1
		S8,2.57,8,4.5S6.43,8,4.5,8z"/>
	<path d="M4.5,2C3.673,2,3,2.673,3,3.5v2C3,6.369,3.631,7,4.5,7S6,6.369,6,5.5v-2C6,2.673,5.327,2,4.5,2z M5,5.5
		C5,5.822,4.822,6,4.5,6S4,5.822,4,5.5v-2C4,3.26,4.191,3,4.5,3C4.74,3,5,3.191,5,3.5V5.5z"/>
</g>
</svg>
