<?xml version="1.0" encoding="iso-8859-1"?>
<!-- Generator: Adobe Illustrator 21.1.0, SVG Export Plug-In . SVG Version: 6.00 Build 0)  -->
<svg version="1.1" id="Layer_1" xmlns="http://www.w3.org/2000/svg" xmlns:xlink="http://www.w3.org/1999/xlink" x="0px" y="0px"
	 viewBox="0 0 9 9" style="enable-background:new 0 0 9 9;" xml:space="preserve">
<g>
	<path d="M4.5,0C2.019,0,0,2.019,0,4.5S2.019,9,4.5,9S9,6.981,9,4.5S6.981,0,4.5,0z M4.5,8C2.57,8,1,6.43,1,4.5S2.57,1,4.5,1
		S8,2.57,8,4.5S6.43,8,4.5,8z"/>
	<path d="M4.5,2C3.617,2,3,2.617,3,3.5h1C4,3.178,4.178,3,4.5,3S5,3.178,5,3.5c0,0.414-0.958,1.65-1.854,2.547L3,6.293V7h3V6H4.56
		C5.212,5.257,6,4.211,6,3.5C6,2.631,5.369,2,4.5,2z"/>
</g>
</svg>
