<?xml version="1.0" encoding="iso-8859-1"?>
<!-- Generator: Adobe Illustrator 21.1.0, SVG Export Plug-In . SVG Version: 6.00 Build 0)  -->
<svg version="1.1" id="Layer_1" xmlns="http://www.w3.org/2000/svg" xmlns:xlink="http://www.w3.org/1999/xlink" x="0px" y="0px"
	 viewBox="0 0 9 9" style="enable-background:new 0 0 9 9;" xml:space="preserve">
<g>
	<path d="M4.5,0C2.019,0,0,2.019,0,4.5S2.019,9,4.5,9S9,6.981,9,4.5S6.981,0,4.5,0z M4.5,8C2.57,8,1,6.43,1,4.5S2.57,1,4.5,1
		S8,2.57,8,4.5S6.43,8,4.5,8z"/>
	<path d="M6,3.5C6,2.631,5.369,2,4.5,2C3.617,2,3,2.617,3,3.5h1C4,3.178,4.178,3,4.5,3S5,3.178,5,3.5C5,3.972,4.008,4,3.999,4
		l0.001,0.5L3.999,5C4.008,5,5,5.028,5,5.5C5,5.822,4.822,6,4.5,6S4,5.822,4,5.5H3C3,6.369,3.631,7,4.5,7S6,6.369,6,5.5
		c0-0.448-0.187-0.771-0.456-1C5.813,4.271,6,3.948,6,3.5z"/>
</g>
</svg>
