<?xml version="1.0" encoding="iso-8859-1"?>
<!-- Generator: Adobe Illustrator 21.1.0, SVG Export Plug-In . SVG Version: 6.00 Build 0)  -->
<svg version="1.1" id="Layer_1" xmlns="http://www.w3.org/2000/svg" xmlns:xlink="http://www.w3.org/1999/xlink" x="0px" y="0px"
	 viewBox="0 0 9 9" style="enable-background:new 0 0 9 9;" xml:space="preserve">
<g>
	<path d="M4.5,0C2.019,0,0,2.019,0,4.5S2.019,9,4.5,9S9,6.981,9,4.5S6.981,0,4.5,0z M4.5,8C2.57,8,1,6.43,1,4.5S2.57,1,4.5,1
		S8,2.57,8,4.5S6.43,8,4.5,8z"/>
	<path d="M4.5,4C4.32,4,4.155,4.032,4,4.08V4V3.5C4,3.2,4.2,3,4.5,3h1.4C5.7,2.4,5.2,2,4.5,2C3.7,2,3,2.7,3,3.5V4v1.5
		C3,6.369,3.631,7,4.5,7S6,6.369,6,5.5S5.369,4,4.5,4z M4.5,6C4.178,6,4,5.822,4,5.5S4.178,5,4.5,5S5,5.178,5,5.5S4.822,6,4.5,6z"/>
</g>
</svg>
