<?xml version="1.0" encoding="iso-8859-1"?>
<!-- Generator: Adobe Illustrator 21.1.0, SVG Export Plug-In . SVG Version: 6.00 Build 0)  -->
<svg version="1.1" id="Layer_1" xmlns="http://www.w3.org/2000/svg" xmlns:xlink="http://www.w3.org/1999/xlink" x="0px" y="0px"
	 viewBox="0 0 9 9" style="enable-background:new 0 0 9 9;" xml:space="preserve">
<g>
	<path d="M4.5,0C2.019,0,0,2.019,0,4.5S2.019,9,4.5,9S9,6.981,9,4.5S6.981,0,4.5,0z M4.5,8C2.57,8,1,6.43,1,4.5S2.57,1,4.5,1
		S8,2.57,8,4.5S6.43,8,4.5,8z"/>
	<path d="M4.5,2C3.673,2,3,2.673,3,3.5c0,0.386,0.15,0.734,0.39,1C3.15,4.766,3,5.114,3,5.5C3,6.327,3.673,7,4.5,7S6,6.327,6,5.5
		c0-0.386-0.15-0.734-0.39-1C5.85,4.234,6,3.886,6,3.5C6,2.673,5.327,2,4.5,2z M4.5,3C4.776,3,5,3.224,5,3.5S4.776,4,4.5,4
		S4,3.776,4,3.5S4.224,3,4.5,3z M4.5,6C4.224,6,4,5.775,4,5.5S4.224,5,4.5,5S5,5.225,5,5.5S4.776,6,4.5,6z"/>
</g>
</svg>
