<?xml version="1.0" encoding="iso-8859-1"?>
<!-- Generator: Adobe Illustrator 21.1.0, SVG Export Plug-In . SVG Version: 6.00 Build 0)  -->
<svg version="1.1" id="Layer_1" xmlns="http://www.w3.org/2000/svg" xmlns:xlink="http://www.w3.org/1999/xlink" x="0px" y="0px"
	 viewBox="0 0 7 8" style="enable-background:new 0 0 7 8;" xml:space="preserve">
<path d="M6.5,2H5V1.5C5,0.673,4.327,0,3.5,0S2,0.673,2,1.5V2H0.5C0.224,2,0,2.224,0,2.5v5C0,7.776,0.224,8,0.5,8h6
	C6.776,8,7,7.776,7,7.5v-5C7,2.224,6.776,2,6.5,2z M3,1.5C3,1.26,3.191,1,3.5,1C3.74,1,4,1.191,4,1.5V2H3V1.5z M6,7H1V3h1v0.5
	C2,3.776,2.224,4,2.5,4S3,3.776,3,3.5V3h1v0.5C4,3.776,4.224,4,4.5,4S5,3.776,5,3.5V3h1V7z"/>
</svg>
