<?xml version="1.0" encoding="iso-8859-1"?>
<!-- Generator: Adobe Illustrator 21.1.0, SVG Export Plug-In . SVG Version: 6.00 Build 0)  -->
<svg version="1.1" id="Layer_1" xmlns="http://www.w3.org/2000/svg" xmlns:xlink="http://www.w3.org/1999/xlink" x="0px" y="0px"
	 viewBox="0 0 9 9" style="enable-background:new 0 0 9 9;" xml:space="preserve">
<path d="M4.5,0C2.019,0,0,2.019,0,4.5S2.019,9,4.5,9S9,6.981,9,4.5S6.981,0,4.5,0z M8,4.5c0,0.785-0.269,1.502-0.707,2.086
	l-4.88-4.88C2.998,1.269,3.715,1,4.5,1C6.43,1,8,2.57,8,4.5z M1,4.5c0-0.785,0.269-1.502,0.707-2.086l4.88,4.88
	C6.002,7.731,5.285,8,4.5,8C2.57,8,1,6.43,1,4.5z"/>
</svg>
