<?xml version="1.0" encoding="iso-8859-1"?>
<!-- Generator: Adobe Illustrator 21.1.0, SVG Export Plug-In . SVG Version: 6.00 Build 0)  -->
<svg version="1.1" id="Layer_1" xmlns="http://www.w3.org/2000/svg" xmlns:xlink="http://www.w3.org/1999/xlink" x="0px" y="0px"
	 viewBox="0 0 9 8" style="enable-background:new 0 0 9 8;" xml:space="preserve">
<g>
	<path d="M1.1,2C0.524,2,0,2.524,0,3.1v1.8C0,5.476,0.524,6,1.1,6h0.856L5,7.902V0.098L1.957,2H1.1z M4,1.902v4.195L2.244,5H2.1
		H1.104C1.068,4.994,1.006,4.932,1,4.9l0-1.795C1.006,3.068,1.068,3.006,1.1,3h1.144L4,1.902z"/>
	<path d="M6,1v1c1.121,0,2,0.878,2,2c0,1.121-0.879,2-2,2v1c1.683,0,3-1.317,3-3C9,2.318,7.683,1,6,1z"/>
	<path d="M7,4c0-0.6-0.4-1-1-1v2C6.6,5,7,4.6,7,4z"/>
</g>
</svg>
