<?xml version="1.0" encoding="iso-8859-1"?>
<!-- Generator: Adobe Illustrator 21.1.0, SVG Export Plug-In . SVG Version: 6.00 Build 0)  -->
<svg version="1.1" id="Layer_1" xmlns="http://www.w3.org/2000/svg" xmlns:xlink="http://www.w3.org/1999/xlink" x="0px" y="0px"
	 viewBox="0 0 9 9" style="enable-background:new 0 0 9 9;" xml:space="preserve">
<path d="M4.5,9C2.019,9,0,6.981,0,4.5c0-0.704,0.17-1.358,0.553-2.124l0.231-0.462l3.955,2.146c0.243,0.132,0.333,0.435,0.201,0.678
	C4.808,4.981,4.505,5.07,4.261,4.939L1.236,3.297C1.074,3.719,1,4.103,1,4.5C1,6.43,2.57,8,4.5,8S8,6.43,8,4.5S6.43,1,4.5,1
	C4.224,1,4,0.776,4,0.5S4.224,0,4.5,0C6.981,0,9,2.019,9,4.5S6.981,9,4.5,9z"/>
</svg>
