<?xml version="1.0" encoding="iso-8859-1"?>
<!-- Generator: Adobe Illustrator 22.1.0, SVG Export Plug-In . SVG Version: 6.00 Build 0)  -->
<svg version="1.1" id="Layer_1" xmlns="http://www.w3.org/2000/svg" xmlns:xlink="http://www.w3.org/1999/xlink" x="0px" y="0px"
	 viewBox="0 0 10 10" style="enable-background:new 0 0 10 10;" xml:space="preserve">
<path d="M5,0C2.25,0,0,2.25,0,5s2.25,5,5,5s5-2.25,5-5S7.75,0,5,0z M7.457,6.043c0.391,0.391,0.391,1.023,0,1.414
	C7.262,7.652,7.006,7.75,6.75,7.75S6.238,7.652,6.043,7.457L5,6.414L3.957,7.457C3.762,7.652,3.506,7.75,3.25,7.75
	S2.738,7.652,2.543,7.457c-0.391-0.391-0.391-1.023,0-1.414L3.586,5L2.543,3.957c-0.391-0.391-0.391-1.023,0-1.414
	s1.023-0.391,1.414,0L5,3.586l1.043-1.043c0.391-0.391,1.023-0.391,1.414,0s0.391,1.023,0,1.414L6.414,5L7.457,6.043z"/>
</svg>
