<?xml version="1.0" encoding="iso-8859-1"?>
<!-- Generator: Adobe Illustrator 22.1.0, SVG Export Plug-In . SVG Version: 6.00 Build 0)  -->
<svg version="1.1" id="Layer_1" xmlns="http://www.w3.org/2000/svg" xmlns:xlink="http://www.w3.org/1999/xlink" x="0px" y="0px"
	 viewBox="0 0 10 10" style="enable-background:new 0 0 10 10;" xml:space="preserve">
<path d="M9.707,8.293c0.391,0.391,0.391,1.023,0,1.414C9.512,9.902,9.256,10,9,10S8.488,9.902,8.293,9.707L5,6.414L1.707,9.707
	C1.512,9.902,1.256,10,1,10S0.488,9.902,0.293,9.707c-0.391-0.391-0.391-1.023,0-1.414L3.586,5L0.293,1.707
	c-0.391-0.391-0.391-1.023,0-1.414s1.023-0.391,1.414,0L5,3.586l3.293-3.293c0.391-0.391,1.023-0.391,1.414,0s0.391,1.023,0,1.414
	L6.414,5L9.707,8.293z"/>
</svg>
