<?xml version="1.0" encoding="iso-8859-1"?>
<!-- Generator: Adobe Illustrator 22.1.0, SVG Export Plug-In . SVG Version: 6.00 Build 0)  -->
<svg version="1.1" id="Layer_1" xmlns="http://www.w3.org/2000/svg" xmlns:xlink="http://www.w3.org/1999/xlink" x="0px" y="0px"
	 viewBox="0 0 11 11" style="enable-background:new 0 0 11 11;" xml:space="preserve">
<path d="M11,5.5c0,2.398-1.541,4.687-3.665,5.442C7.225,10.981,7.111,11,7,11c-0.411,0-0.797-0.256-0.942-0.666
	C5.873,9.814,6.145,9.243,6.665,9.058C7.996,8.584,9,7.055,9,5.5C9,3.57,7.43,2,5.5,2S2,3.57,2,5.5c0,0.547,0.144,1.065,0.38,1.536
	l0.915-0.915C3.555,5.862,4,6.046,4,6.414v2.67C4,9.59,3.59,10,3.083,10h-2.67c-0.368,0-0.552-0.445-0.292-0.705L0.92,8.496
	l0.011-0.011C0.351,7.613,0,6.591,0,5.5C0,2.467,2.468,0,5.5,0S11,2.467,11,5.5z"/>
</svg>
