<?xml version="1.0" encoding="iso-8859-1"?>
<!-- Generator: Adobe Illustrator 22.1.0, SVG Export Plug-In . SVG Version: 6.00 Build 0)  -->
<svg version="1.1" id="Layer_1" xmlns="http://www.w3.org/2000/svg" xmlns:xlink="http://www.w3.org/1999/xlink" x="0px" y="0px"
	 viewBox="0 0 11 10" style="enable-background:new 0 0 11 10;" xml:space="preserve">
<path d="M10.652,1.998c1.331,2.729-1.513,5.266-2.587,6.225L7.886,8.385C7.403,8.83,6.526,9.464,5.981,9.848
	c-0.288,0.203-0.672,0.203-0.962,0C4.474,9.465,3.597,8.83,3.114,8.385L2.935,8.224C1.86,7.265-0.983,4.727,0.348,1.998
	C0.927,0.808,1.961,0.001,3.299,0c0.844,0,1.788,0.546,2.2,1.089C5.912,0.546,6.855,0,7.7,0C9.038,0.001,10.072,0.809,10.652,1.998z
	"/>
</svg>
