<?xml version="1.0" encoding="iso-8859-1"?>
<!-- Generator: Adobe Illustrator 22.1.0, SVG Export Plug-In . SVG Version: 6.00 Build 0)  -->
<svg version="1.1" id="Layer_1" xmlns="http://www.w3.org/2000/svg" xmlns:xlink="http://www.w3.org/1999/xlink" x="0px" y="0px"
	 viewBox="0 0 10 10" style="enable-background:new 0 0 10 10;" xml:space="preserve">
<path d="M9.854,7.925L6.741,4.812C6.905,4.406,7,3.965,7,3.5C7,1.567,5.433,0,3.5,0S0,1.567,0,3.5C0,5.433,1.567,7,3.5,7
	c0.465,0,0.906-0.095,1.312-0.26l3.113,3.113C8.019,9.947,8.146,10,8.279,10H9.5C9.776,10,10,9.776,10,9.5V8.279
	C10,8.146,9.947,8.019,9.854,7.925z M3,4C2.448,4,2,3.552,2,3c0-0.552,0.448-1,1-1s1,0.448,1,1C4,3.552,3.552,4,3,4z"/>
</svg>
