<?xml version="1.0" encoding="iso-8859-1"?>
<!-- Generator: Adobe Illustrator 22.1.0, SVG Export Plug-In . SVG Version: 6.00 Build 0)  -->
<svg version="1.1" id="Layer_1" xmlns="http://www.w3.org/2000/svg" xmlns:xlink="http://www.w3.org/1999/xlink" x="0px" y="0px"
	 viewBox="0 0 11 11" style="enable-background:new 0 0 11 11;" xml:space="preserve">
<path d="M3,11c-0.801,0-1.554-0.312-2.121-0.879c-1.169-1.169-1.169-3.073,0-4.242l1.033-1.032c0.391-0.39,1.024-0.39,1.414,0
	c0.391,0.391,0.391,1.024,0,1.414L2.293,7.293c-0.389,0.389-0.389,1.024,0,1.414c0.377,0.378,1.036,0.378,1.414,0l1.032-1.032
	c0.39-0.391,1.023-0.391,1.414,0c0.391,0.39,0.391,1.023,0,1.414l-1.032,1.032C4.555,10.688,3.801,11,3,11z M9.027,6.215
	l1.095-1.094c1.168-1.169,1.168-3.073,0-4.243c-1.17-1.168-3.072-1.168-4.242,0L4.758,2c-0.391,0.391-0.391,1.023,0,1.414
	s1.023,0.391,1.414,0l1.121-1.121c0.39-0.392,1.025-0.39,1.414,0c0.39,0.39,0.39,1.024,0,1.414L7.613,4.801
	c-0.391,0.39-0.391,1.023,0,1.414C7.808,6.41,8.064,6.508,8.32,6.508S8.832,6.41,9.027,6.215z M5.539,6.875l1.293-1.293
	c0.391-0.391,0.391-1.023,0-1.414s-1.023-0.391-1.414,0L4.125,5.461c-0.391,0.391-0.391,1.023,0,1.414
	C4.32,7.07,4.576,7.168,4.832,7.168S5.344,7.07,5.539,6.875z"/>
</svg>
