<?xml version="1.0" encoding="iso-8859-1"?>
<!-- Generator: Adobe Illustrator 22.1.0, SVG Export Plug-In . SVG Version: 6.00 Build 0)  -->
<svg version="1.1" id="Layer_1" xmlns="http://www.w3.org/2000/svg" xmlns:xlink="http://www.w3.org/1999/xlink" x="0px" y="0px"
	 viewBox="0 0 12 12" style="enable-background:new 0 0 12 12;" xml:space="preserve">
<path d="M12,7.5C12,8.328,11.328,9,10.5,9c-0.236,0-0.78-0.101-1.143-0.175C9.171,8.787,9,8.93,9,9.119V11c0,0.552-0.448,1-1,1H1
	c-0.552,0-1-0.448-1-1V9.119c0-0.19,0.171-0.332,0.357-0.295C0.72,8.899,1.264,9,1.5,9C2.328,9,3,8.328,3,7.5S2.328,6,1.5,6
	C1.264,6,0.72,6.101,0.357,6.175C0.171,6.213,0,6.07,0,5.881V4c0-0.552,0.448-1,1-1h1.881c0.19,0,0.332-0.171,0.295-0.357
	C3.101,2.28,3,1.736,3,1.5C3,0.672,3.672,0,4.5,0S6,0.672,6,1.5c0,0.236-0.101,0.78-0.175,1.143C5.787,2.829,5.93,3,6.119,3H8
	c0.552,0,1,0.448,1,1v1.881c0,0.19,0.171,0.332,0.357,0.295C9.72,6.101,10.264,6,10.5,6C11.328,6,12,6.672,12,7.5z"/>
</svg>
