<?xml version="1.0" encoding="iso-8859-1"?>
<!-- Generator: Adobe Illustrator 22.1.0, SVG Export Plug-In . SVG Version: 6.00 Build 0)  -->
<svg version="1.1" id="Layer_1" xmlns="http://www.w3.org/2000/svg" xmlns:xlink="http://www.w3.org/1999/xlink" x="0px" y="0px"
	 viewBox="0 0 11 11" style="enable-background:new 0 0 11 11;" xml:space="preserve">
<path d="M10.707,9.293L9.205,7.791C9.702,6.992,10,5.996,10,5c0-2.8-2.2-5-5-5S0,2.2,0,5s2.2,5,5,5c0.996,0,1.992-0.298,2.791-0.795
	l1.502,1.502C9.488,10.902,9.744,11,10,11s0.512-0.098,0.707-0.293C11.098,10.316,11.098,9.684,10.707,9.293z M2,5c0-1.7,1.3-3,3-3
	s3,1.3,3,3S6.7,8,5,8S2,6.7,2,5z"/>
</svg>
