<?xml version="1.0" encoding="iso-8859-1"?>
<!-- Generator: Adobe Illustrator 22.1.0, SVG Export Plug-In . SVG Version: 6.00 Build 0)  -->
<svg version="1.1" id="Layer_1" xmlns="http://www.w3.org/2000/svg" xmlns:xlink="http://www.w3.org/1999/xlink" x="0px" y="0px"
	 viewBox="0 0 10 10" style="enable-background:new 0 0 10 10;" xml:space="preserve">
<path d="M9.879,4.969C9.488,6.534,8.141,7.755,6.541,7.965C5.756,8.068,5.01,7.939,4.356,7.643L2.413,9.586
	c-0.552,0.552-1.448,0.552-2,0s-0.552-1.448,0-2l1.943-1.943C2.061,4.989,1.932,4.243,2.035,3.459c0.21-1.6,1.431-2.947,2.996-3.338
	c0.52-0.13,1.023-0.15,1.498-0.084c0.515,0.071,0.718,0.715,0.35,1.083L5.999,2c-0.552,0.552-0.552,1.448,0,2s1.448,0.552,2,0
	L8.88,3.121c0.368-0.368,1.012-0.165,1.083,0.35C10.029,3.946,10.009,4.449,9.879,4.969z"/>
</svg>
