<?xml version="1.0" encoding="iso-8859-1"?>
<!-- Generator: Adobe Illustrator 22.1.0, SVG Export Plug-In . SVG Version: 6.00 Build 0)  -->
<svg version="1.1" id="Layer_1" xmlns="http://www.w3.org/2000/svg" xmlns:xlink="http://www.w3.org/1999/xlink" x="0px" y="0px"
	 viewBox="0 0 10 10" style="enable-background:new 0 0 10 10;" xml:space="preserve">
<path d="M8.923,5.76C8.971,5.513,9,5.26,9,5S8.971,4.487,8.923,4.24L9.73,3.641c0.103-0.077,0.133-0.219,0.068-0.33L8.862,1.689
	C8.798,1.578,8.66,1.532,8.542,1.583L7.606,1.988C7.227,1.66,6.789,1.404,6.305,1.236L6.188,0.224C6.173,0.096,6.065,0,5.936,0
	H4.064C3.935,0,3.827,0.096,3.812,0.224L3.695,1.236C3.211,1.404,2.773,1.66,2.394,1.988L1.458,1.583
	C1.34,1.532,1.202,1.578,1.138,1.689L0.202,3.311C0.138,3.422,0.167,3.564,0.27,3.641L1.077,4.24C1.029,4.487,1,4.74,1,5
	s0.029,0.513,0.077,0.76L0.27,6.359c-0.103,0.077-0.133,0.219-0.068,0.33L1.138,8.31c0.064,0.112,0.202,0.157,0.32,0.106
	l0.936-0.405C2.773,8.34,3.211,8.596,3.695,8.764l0.117,1.012C3.827,9.904,3.935,10,4.064,10h1.872c0.129,0,0.237-0.096,0.252-0.224
	l0.117-1.012C6.789,8.596,7.227,8.34,7.606,8.012l0.936,0.405c0.118,0.051,0.256,0.005,0.32-0.106L9.798,6.69
	C9.862,6.578,9.833,6.436,9.73,6.36L8.923,5.76z M5,7C3.896,7,3,6.104,3,5c0-1.105,0.896-2,2-2s2,0.895,2,2C7,6.104,6.104,7,5,7z"/>
</svg>
