<?xml version="1.0" encoding="iso-8859-1"?>
<!-- Generator: Adobe Illustrator 22.1.0, SVG Export Plug-In . SVG Version: 6.00 Build 0)  -->
<svg version="1.1" id="Layer_1" xmlns="http://www.w3.org/2000/svg" xmlns:xlink="http://www.w3.org/1999/xlink" x="0px" y="0px"
	 viewBox="0 0 10 11" style="enable-background:new 0 0 10 11;" xml:space="preserve">
<path d="M10,9.5C10,9.776,9.776,10,9.5,10H6c0,0.552-0.448,1-1,1s-1-0.448-1-1H0.5C0.224,10,0,9.776,0,9.5
	c0-0.091,0.024-0.177,0.067-0.25c0.019-0.033,0.466-0.629,0.734-0.986C0.931,8.091,1,7.883,1,7.666V5c0-1.861,1.279-3.406,3-3.853
	C4,1.097,4,1.052,4,1c0-0.552,0.448-1,1-1s1,0.448,1,1c0,0.04,0,0.088,0,0.14c1.761,0.468,3,2.154,3,4.032v2.494
	c0,0.217,0.069,0.425,0.199,0.598C9.467,8.621,9.914,9.217,9.933,9.25C9.976,9.323,10,9.409,10,9.5z"/>
</svg>
