<?xml version="1.0" encoding="iso-8859-1"?>
<!-- Generator: Adobe Illustrator 22.1.0, SVG Export Plug-In . SVG Version: 6.00 Build 0)  -->
<svg version="1.1" id="Layer_1" xmlns="http://www.w3.org/2000/svg" xmlns:xlink="http://www.w3.org/1999/xlink" x="0px" y="0px"
	 viewBox="0 0 11 11" style="enable-background:new 0 0 11 11;" xml:space="preserve">
<path d="M8.928,9H2.072C2.032,9,2,8.968,2,8.928V5.072C2,5.032,2.032,5,2.072,5h6.856C8.968,5,9,5.032,9,5.072v3.856
	C9,8.968,8.968,9,8.928,9z M6.5,6h1C7.776,6,8,6.224,8,6.5v1C8,7.776,7.776,8,7.5,8h-1C6.224,8,6,7.776,6,7.5v-1
	C6,6.224,6.224,6,6.5,6z M3.5,6h1C4.776,6,5,6.224,5,6.5v1C5,7.776,4.776,8,4.5,8h-1C3.224,8,3,7.776,3,7.5v-1
	C3,6.224,3.224,6,3.5,6z M10,2H9V1c0-0.552-0.448-1-1-1S7,0.448,7,1v1H4V1c0-0.552-0.448-1-1-1S2,0.448,2,1v1H1C0.45,2,0,2.45,0,3v7
	c0,0.55,0.45,1,1,1h9c0.55,0,1-0.45,1-1V3C11,2.45,10.55,2,10,2z"/>
</svg>
