<?xml version="1.0" encoding="iso-8859-1"?>
<!-- Generator: Adobe Illustrator 22.1.0, SVG Export Plug-In . SVG Version: 6.00 Build 0)  -->
<svg version="1.1" id="Layer_1" xmlns="http://www.w3.org/2000/svg" xmlns:xlink="http://www.w3.org/1999/xlink" x="0px" y="0px"
	 viewBox="0 0 10 10" style="enable-background:new 0 0 10 10;" xml:space="preserve">
<path d="M5,0C2.25,0,0,2.25,0,5s2.25,5,5,5s5-2.25,5-5S7.75,0,5,0z M8.16,3.29c0.387,0.387,0.387,1.013,0,1.4L5.096,7.753
	C4.932,7.918,4.716,8,4.5,8C4.284,8,4.069,7.918,3.904,7.753L2,5.849c-0.387-0.387-0.387-1.013,0-1.4l0,0
	c0.387-0.387,1.013-0.387,1.4,0l1.1,1.1l2.26-2.26c0.2-0.2,0.464-0.297,0.725-0.29C7.73,3.006,7.972,3.103,8.16,3.29z"/>
</svg>
