<?xml version="1.0" encoding="iso-8859-1"?>
<!-- Generator: Adobe Illustrator 22.1.0, SVG Export Plug-In . SVG Version: 6.00 Build 0)  -->
<svg version="1.1" id="Layer_1" xmlns="http://www.w3.org/2000/svg" xmlns:xlink="http://www.w3.org/1999/xlink" x="0px" y="0px"
	 viewBox="0 0 12 12" style="enable-background:new 0 0 12 12;" xml:space="preserve">
<path d="M6,0C2.691,0,0,2.691,0,6s2.691,6,6,6s6-2.691,6-6S9.309,0,6,0z M6,10c-2.206,0-4-1.794-4-4s1.794-4,4-4s4,1.794,4,4
	S8.206,10,6,10z M7,8C6.808,8,6.616,7.927,6.47,7.78L5.22,6.53C4.986,6.297,4.933,5.938,5.088,5.647l1-1.875
	c0.195-0.365,0.649-0.503,1.015-0.309c0.365,0.195,0.504,0.649,0.309,1.015L6.673,5.863L7.53,6.72c0.293,0.293,0.293,0.768,0,1.061
	C7.384,7.927,7.192,8,7,8z"/>
</svg>
