<?xml version="1.0" encoding="iso-8859-1"?>
<!-- Generator: Adobe Illustrator 22.1.0, SVG Export Plug-In . SVG Version: 6.00 Build 0)  -->
<svg version="1.1" id="Layer_1" xmlns="http://www.w3.org/2000/svg" xmlns:xlink="http://www.w3.org/1999/xlink" x="0px" y="0px"
	 viewBox="0 0 16 7" style="enable-background:new 0 0 16 7;" xml:space="preserve">
<path d="M15.423,3.603C15.227,3.863,14.927,4,14.624,4c-0.21,0-0.421-0.066-0.602-0.202l-0.794-0.599
	c-0.329,0.257-0.703,0.516-1.134,0.754l0.425,0.849c0.247,0.494,0.047,1.095-0.447,1.342c-0.144,0.072-0.296,0.105-0.446,0.105
	c-0.367,0-0.72-0.202-0.896-0.553l-0.495-0.991C9.849,4.811,9.435,4.887,9,4.937V6c0,0.552-0.447,1-1,1S7,6.552,7,6V4.937
	c-0.435-0.05-0.849-0.127-1.235-0.231L5.27,5.697C5.021,6.191,4.422,6.391,3.928,6.145C3.434,5.897,3.233,5.297,3.48,4.803
	l0.425-0.849C3.474,3.715,3.1,3.456,2.772,3.199L1.978,3.798c-0.442,0.332-1.069,0.244-1.4-0.196
	C0.244,3.162,0.332,2.535,0.772,2.202l0.56-0.423C1.238,1.657,1.181,1.574,1.168,1.555C0.861,1.095,0.985,0.474,1.445,0.168
	c0.46-0.307,1.081-0.183,1.387,0.277C2.9,0.545,4.613,3,8,3c3.425,0,5.151-2.529,5.168-2.555c0.306-0.46,0.926-0.584,1.387-0.277
	c0.46,0.306,0.584,0.927,0.277,1.387c-0.013,0.019-0.07,0.102-0.165,0.224l0.56,0.423C15.668,2.535,15.756,3.162,15.423,3.603z"/>
</svg>
