<?xml version="1.0" encoding="iso-8859-1"?>
<!-- Generator: Adobe Illustrator 22.1.0, SVG Export Plug-In . SVG Version: 6.00 Build 0)  -->
<svg version="1.1" id="Layer_1" xmlns="http://www.w3.org/2000/svg" xmlns:xlink="http://www.w3.org/1999/xlink" x="0px" y="0px"
	 viewBox="0 0 10 10" style="enable-background:new 0 0 10 10;" xml:space="preserve">
<path d="M5,0C2.25,0,0,2.25,0,5s2.25,5,5,5s5-2.25,5-5S7.75,0,5,0z M5.636,7.692C5.604,7.776,5.559,7.848,5.5,7.909
	C5.44,7.97,5.368,8.019,5.283,8.053C5.199,8.087,5.104,8.104,5,8.104c-0.105,0-0.199-0.017-0.284-0.052
	C4.633,8.019,4.56,7.97,4.501,7.909C4.442,7.848,4.397,7.776,4.364,7.692C4.331,7.608,4.315,7.519,4.315,7.424
	c0-0.099,0.017-0.19,0.049-0.273c0.033-0.084,0.079-0.156,0.138-0.217c0.059-0.061,0.132-0.11,0.215-0.146
	C4.802,6.752,4.896,6.734,5,6.734c0.104,0,0.199,0.018,0.283,0.054C5.368,6.824,5.44,6.872,5.5,6.933
	c0.059,0.061,0.105,0.133,0.137,0.217c0.032,0.083,0.049,0.174,0.049,0.273C5.685,7.519,5.669,7.608,5.636,7.692z M5.582,5.986
	H4.418L4.253,2h1.495L5.582,5.986z"/>
</svg>
