<?xml version="1.0" encoding="iso-8859-1"?>
<!-- Generator: Adobe Illustrator 22.1.0, SVG Export Plug-In . SVG Version: 6.00 Build 0)  -->
<svg version="1.1" id="Layer_1" xmlns="http://www.w3.org/2000/svg" xmlns:xlink="http://www.w3.org/1999/xlink" x="0px" y="0px"
	 viewBox="0 0 9 10" style="enable-background:new 0 0 9 10;" xml:space="preserve">
<path d="M8,8V7.914C8,7.38,7.792,6.878,7.414,6.5L5.914,5l1.5-1.5C7.792,3.122,8,2.62,8,2.086V2c0.553,0,1-0.448,1-1S8.553,0,8,0H1
	C0.447,0,0,0.448,0,1s0.447,1,1,1v0.086C1,2.62,1.208,3.122,1.586,3.5l1.5,1.5l-1.5,1.5C1.208,6.878,1,7.38,1,7.914V8
	C0.447,8,0,8.448,0,9s0.447,1,1,1h7c0.553,0,1-0.448,1-1S8.553,8,8,8z M3,2.086V2h3v0.086l-1.5,1.5L3,2.086z M3,7.914l1.5-1.5
	l1.5,1.5V8H3V7.914z"/>
</svg>
