<?xml version="1.0" encoding="iso-8859-1"?>
<!-- Generator: Adobe Illustrator 22.1.0, SVG Export Plug-In . SVG Version: 6.00 Build 0)  -->
<svg version="1.1" id="Layer_1" xmlns="http://www.w3.org/2000/svg" xmlns:xlink="http://www.w3.org/1999/xlink" x="0px" y="0px"
	 viewBox="0 0 11 11" style="enable-background:new 0 0 11 11;" xml:space="preserve">
<path d="M10.708,5.207C10.512,5.402,10.256,5.5,10,5.5c-0.256,0-0.511-0.097-0.707-0.292L8.982,4.897L6.703,7.789l0.504,0.504
	c0.391,0.391,0.391,1.023,0,1.414C7.012,9.902,6.756,10,6.5,10S5.988,9.902,5.793,9.707l-1.72-1.72L1.28,10.78
	C1.134,10.927,0.942,11,0.75,11s-0.384-0.073-0.53-0.22c-0.293-0.293-0.293-0.768,0-1.061l2.793-2.793l-1.72-1.72
	c-0.391-0.391-0.391-1.023,0-1.414s1.023-0.391,1.414,0l0.514,0.514l2.877-2.29l-0.31-0.309c-0.391-0.39-0.391-1.023-0.001-1.414
	c0.39-0.392,1.022-0.392,1.414-0.001l3.506,3.5C11.097,4.183,11.098,4.815,10.708,5.207z"/>
</svg>
