<?xml version="1.0" encoding="iso-8859-1"?>
<!-- Generator: Adobe Illustrator 22.1.0, SVG Export Plug-In . SVG Version: 6.00 Build 0)  -->
<svg version="1.1" id="Layer_1" xmlns="http://www.w3.org/2000/svg" xmlns:xlink="http://www.w3.org/1999/xlink" x="0px" y="0px"
	 viewBox="0 0 8 10" style="enable-background:new 0 0 8 10;" xml:space="preserve">
<path d="M1,0h1c0.552,0,1,0.448,1,1v8c0,0.552-0.448,1-1,1H1c-0.552,0-1-0.448-1-1V1C0,0.448,0.448,0,1,0z M6,10h1
	c0.552,0,1-0.448,1-1V1c0-0.552-0.448-1-1-1H6C5.448,0,5,0.448,5,1v8C5,9.552,5.448,10,6,10z"/>
</svg>
