<?xml version="1.0" encoding="iso-8859-1"?>
<!-- Generator: Adobe Illustrator 22.1.0, SVG Export Plug-In . SVG Version: 6.00 Build 0)  -->
<svg version="1.1" id="Layer_1" xmlns="http://www.w3.org/2000/svg" xmlns:xlink="http://www.w3.org/1999/xlink" x="0px" y="0px"
	 viewBox="0 0 12 12" style="enable-background:new 0 0 12 12;" xml:space="preserve">
<path d="M11.517,1.507L7.9,5.3L6.6,3.9l2.107-2.263C9.085,1.231,9.615,1,10.171,1h1.129C11.563,1,11.699,1.316,11.517,1.507z
	 M4.8,3.5l6.713,6.992C11.696,10.683,11.56,11,11.296,11h-1.134c-0.55,0-1.076-0.227-1.454-0.627L5.9,7.4L4.8,8.5
	C4.9,8.8,5,9.2,5,9.5c0,1.49-1.247,2.641-2.775,2.486c-1.142-0.116-2.096-1.07-2.211-2.212C-0.141,8.246,1.01,7,2.5,7
	c0.3,0,0.6,0.1,0.9,0.2L4.6,6L3.4,4.8C3.1,4.9,2.8,5,2.5,5C1.01,5-0.141,3.753,0.014,2.225c0.116-1.142,1.07-2.096,2.212-2.211
	C3.754-0.141,5,1.01,5,2.5C5,2.8,4.9,3.2,4.8,3.5z M3.5,2.5c0-0.5-0.5-1-1-1s-1,0.5-1,1s0.5,1,1,1S3.5,3,3.5,2.5z M3.5,9.5
	c0-0.5-0.5-1-1-1s-1,0.5-1,1s0.5,1,1,1S3.5,10,3.5,9.5z M5.495,6c0,0.173,0.14,0.313,0.313,0.313C5.98,6.313,6.12,6.173,6.12,6
	c0-0.173-0.14-0.313-0.313-0.313C5.635,5.688,5.495,5.827,5.495,6z"/>
</svg>
