<?xml version="1.0" encoding="iso-8859-1"?>
<!-- Generator: Adobe Illustrator 22.1.0, SVG Export Plug-In . SVG Version: 6.00 Build 0)  -->
<svg version="1.1" id="Layer_1" xmlns="http://www.w3.org/2000/svg" xmlns:xlink="http://www.w3.org/1999/xlink" x="0px" y="0px"
	 viewBox="0 0 14 10" style="enable-background:new 0 0 14 10;" xml:space="preserve">
<path d="M7,8C6.598,8,6.227,8.122,5.913,8.335C5.717,8.467,5.696,8.765,5.859,8.94l0.876,0.942c0.146,0.157,0.384,0.157,0.529,0
	L8.141,8.94c0.163-0.175,0.142-0.473-0.054-0.606C7.773,8.122,7.402,8,7,8z M9.999,7C9.792,7,9.584,6.936,9.404,6.802
	c-1.418-1.06-3.391-1.06-4.809,0c-0.445,0.332-1.07,0.236-1.399-0.21C2.868,6.145,2.961,5.514,3.404,5.183
	c2.113-1.577,5.078-1.577,7.192,0c0.443,0.332,0.536,0.962,0.208,1.409C10.607,6.859,10.306,7,9.999,7z M13.707,3.957
	c-0.36,0.36-0.927,0.388-1.319,0.084c-0.033-0.026-0.591-0.481-0.616-0.499C10.406,2.547,8.716,2,7,2S3.594,2.547,2.227,3.542
	C2.203,3.56,1.645,4.015,1.612,4.041C1.219,4.345,0.653,4.317,0.293,3.957c-0.391-0.391-0.391-1.024,0-1.414
	c0.16-0.175,0.588-0.492,0.663-0.548C2.679,0.708,4.824,0,7,0s4.321,0.708,6.044,1.994c0.075,0.056,0.503,0.373,0.663,0.548
	C14.098,2.933,14.098,3.566,13.707,3.957z"/>
</svg>
