<?xml version="1.0" encoding="iso-8859-1"?>
<!-- Generator: Adobe Illustrator 22.1.0, SVG Export Plug-In . SVG Version: 6.00 Build 0)  -->
<svg version="1.1" id="Layer_1" xmlns="http://www.w3.org/2000/svg" xmlns:xlink="http://www.w3.org/1999/xlink" x="0px" y="0px"
	 viewBox="0 0 10 10" style="enable-background:new 0 0 10 10;" xml:space="preserve">
<path d="M10,4c0,0.305-0.109,0.61-0.327,0.843L6.869,7.84C6.548,8.182,6,7.939,6,7.455V5H5.005C4.503,5.006,2,5.177,2,8v1
	c0,0.552-0.448,1-1,1S0,9.552,0,9V8c0-3.955,3.271-5,5-5h1V0.545C6,0.06,6.548-0.182,6.869,0.161l2.804,2.997
	C9.891,3.39,10,3.696,10,4z"/>
</svg>
