<?xml version="1.0" encoding="iso-8859-1"?>
<!-- Generator: Adobe Illustrator 22.1.0, SVG Export Plug-In . SVG Version: 6.00 Build 0)  -->
<svg version="1.1" id="Layer_1" xmlns="http://www.w3.org/2000/svg" xmlns:xlink="http://www.w3.org/1999/xlink" x="0px" y="0px"
	 viewBox="0 0 12 12" style="enable-background:new 0 0 12 12;" xml:space="preserve">
<path d="M11.855,6.287L9.507,7.941C9.29,8.094,9,7.93,9,7.655V7H7v2h0.655c0.275,0,0.44,0.29,0.287,0.507l-1.655,2.348
	c-0.136,0.194-0.437,0.194-0.574,0L4.058,9.507C3.906,9.29,4.07,9,4.345,9H5V7H3v0.655c0,0.275-0.29,0.44-0.507,0.287L0.145,6.287
	c-0.194-0.137-0.194-0.437,0-0.574l2.348-1.655C2.71,3.906,3,4.07,3,4.345V5h2V3H4.345C4.07,3,3.906,2.71,4.058,2.493l1.655-2.348
	c0.136-0.194,0.437-0.194,0.574,0l1.655,2.348C8.094,2.71,7.93,3,7.655,3H7v2h2V4.345c0-0.275,0.29-0.44,0.507-0.287l2.348,1.655
	C12.048,5.85,12.048,6.15,11.855,6.287z"/>
</svg>
