<?xml version="1.0" encoding="iso-8859-1"?>
<!-- Generator: Adobe Illustrator 22.1.0, SVG Export Plug-In . SVG Version: 6.00 Build 0)  -->
<svg version="1.1" id="Layer_1" xmlns="http://www.w3.org/2000/svg" xmlns:xlink="http://www.w3.org/1999/xlink" x="0px" y="0px"
	 viewBox="0 0 12 11" style="enable-background:new 0 0 12 11;" xml:space="preserve">
<path d="M5.172,0.496l-5.04,9.002C-0.241,10.164,0.22,11,0.96,11h10.08c0.74,0,1.201-0.836,0.828-1.502l-5.04-9.002
	C6.458-0.165,5.542-0.165,5.172,0.496z M6,10L6,10c-0.552,0-1-0.448-1-1l0,0c0-0.552,0.448-1,1-1l0,0c0.552,0,1,0.448,1,1l0,0
	C7,9.552,6.553,10,6,10z M5,6V4c0-0.552,0.448-1,1-1l0,0c0.552,0,1,0.448,1,1v2c0,0.552-0.448,1-1,1l0,0C5.448,7,5,6.552,5,6z"/>
</svg>
