<?xml version="1.0" encoding="iso-8859-1"?>
<!-- Generator: Adobe Illustrator 22.1.0, SVG Export Plug-In . SVG Version: 6.00 Build 0)  -->
<svg version="1.1" id="Layer_1" xmlns="http://www.w3.org/2000/svg" xmlns:xlink="http://www.w3.org/1999/xlink" x="0px" y="0px"
	 viewBox="0 0 10 10" style="enable-background:new 0 0 10 10;" xml:space="preserve">
<path d="M5.777,3.672c0.036,0.177,0.055,0.395,0.055,0.654v1.332c0,0.262-0.019,0.483-0.055,0.662
	c-0.037,0.179-0.09,0.324-0.159,0.435c-0.07,0.111-0.156,0.191-0.259,0.239c-0.103,0.048-0.22,0.072-0.35,0.072
	c-0.131,0-0.247-0.024-0.351-0.072c-0.103-0.048-0.19-0.127-0.261-0.239C4.327,6.644,4.273,6.499,4.234,6.32
	c-0.038-0.179-0.057-0.4-0.057-0.662V4.326c0-0.259,0.018-0.477,0.055-0.654c0.037-0.176,0.091-0.319,0.161-0.427
	c0.07-0.108,0.157-0.187,0.259-0.235C4.754,2.962,4.87,2.938,5.001,2.938s0.247,0.024,0.351,0.072
	c0.103,0.048,0.191,0.126,0.263,0.235C5.686,3.354,5.741,3.496,5.777,3.672z M10,5c0,2.761-2.239,5-5,5S0,7.761,0,5s2.239-5,5-5
	S10,2.239,10,5z M7.01,4.491c0-0.439-0.049-0.815-0.146-1.129C6.765,3.047,6.628,2.789,6.452,2.587
	c-0.177-0.202-0.388-0.35-0.634-0.445C5.572,2.047,5.299,2,5.001,2S4.43,2.047,4.186,2.142C3.941,2.237,3.731,2.385,3.554,2.587
	c-0.177,0.202-0.313,0.46-0.41,0.774C3.048,3.676,3,4.052,3,4.491v1.015C3,5.944,3.049,6.32,3.146,6.635
	c0.098,0.314,0.235,0.573,0.412,0.776c0.176,0.203,0.388,0.352,0.634,0.447C4.438,7.953,4.71,8,5.009,8
	C5.308,8,5.58,7.953,5.826,7.858c0.246-0.095,0.457-0.244,0.632-0.447c0.175-0.203,0.311-0.462,0.408-0.776
	C6.962,6.32,7.01,5.944,7.01,5.506V4.491z"/>
</svg>
