<?xml version="1.0" encoding="iso-8859-1"?>
<!-- Generator: Adobe Illustrator 22.1.0, SVG Export Plug-In . SVG Version: 6.00 Build 0)  -->
<svg version="1.1" id="Layer_1" xmlns="http://www.w3.org/2000/svg" xmlns:xlink="http://www.w3.org/1999/xlink" x="0px" y="0px"
	 viewBox="0 0 10 10" style="enable-background:new 0 0 10 10;" xml:space="preserve">
<path d="M5,0C2.25,0,0,2.25,0,5s2.25,5,5,5s5-2.25,5-5S7.75,0,5,0z M6.838,7.013C6.734,7.227,6.591,7.407,6.409,7.553
	C6.227,7.699,6.012,7.81,5.763,7.886C5.514,7.962,5.245,8,4.955,8C4.71,8,4.47,7.967,4.236,7.9C4.002,7.833,3.793,7.73,3.61,7.591
	C3.427,7.452,3.28,7.278,3.168,7.067C3.056,6.858,3,6.608,3,6.32h1.142c0,0.11,0.021,0.21,0.063,0.301
	C4.247,6.711,4.305,6.789,4.38,6.855C4.456,6.92,4.544,6.972,4.647,7.01C4.75,7.047,4.862,7.066,4.983,7.066
	c0.134,0,0.255-0.018,0.363-0.056c0.108-0.038,0.2-0.092,0.275-0.162c0.075-0.071,0.132-0.155,0.172-0.253
	c0.039-0.097,0.059-0.206,0.059-0.327c0-0.155-0.022-0.288-0.065-0.399C5.743,5.758,5.681,5.667,5.599,5.598
	C5.518,5.528,5.418,5.477,5.301,5.443c-0.117-0.034-0.248-0.05-0.393-0.05H4.3V4.487h0.608c0.29,0,0.505-0.074,0.644-0.221
	c0.14-0.147,0.209-0.342,0.209-0.586c0-0.107-0.016-0.207-0.047-0.299C5.682,3.29,5.634,3.211,5.57,3.145
	C5.505,3.08,5.424,3.028,5.327,2.99C5.229,2.953,5.115,2.934,4.983,2.934c-0.105,0-0.205,0.015-0.299,0.046S4.509,3.055,4.44,3.111
	C4.37,3.167,4.315,3.236,4.274,3.318C4.233,3.399,4.213,3.491,4.213,3.592H3.071c0-0.24,0.049-0.459,0.149-0.656
	C3.318,2.74,3.452,2.573,3.622,2.435c0.17-0.138,0.37-0.245,0.599-0.321C4.45,2.038,4.694,2,4.955,2c0.29,0,0.554,0.035,0.792,0.106
	S6.19,2.283,6.361,2.423c0.171,0.14,0.304,0.314,0.399,0.521c0.095,0.207,0.142,0.447,0.142,0.72c0,0.126-0.019,0.25-0.057,0.373
	C6.807,4.16,6.751,4.276,6.676,4.385C6.601,4.492,6.509,4.593,6.401,4.685C6.293,4.777,6.169,4.856,6.03,4.92
	c0.324,0.118,0.566,0.294,0.725,0.529c0.159,0.236,0.239,0.514,0.239,0.834C6.994,6.556,6.941,6.799,6.838,7.013z"/>
</svg>
