<?xml version="1.0" encoding="iso-8859-1"?>
<!-- Generator: Adobe Illustrator 22.1.0, SVG Export Plug-In . SVG Version: 6.00 Build 0)  -->
<svg version="1.1" id="Layer_1" xmlns="http://www.w3.org/2000/svg" xmlns:xlink="http://www.w3.org/1999/xlink" x="0px" y="0px"
	 viewBox="0 0 10 10" style="enable-background:new 0 0 10 10;" xml:space="preserve">
<path d="M4.487,4.25C4.366,4.108,4.304,3.921,4.304,3.689c0-0.236,0.062-0.42,0.183-0.554C4.609,3.001,4.78,2.934,4.999,2.934
	c0.223,0,0.395,0.069,0.517,0.207c0.122,0.137,0.183,0.32,0.183,0.547c0,0.232-0.061,0.42-0.18,0.561
	C5.398,4.392,5.226,4.463,5.004,4.463S4.609,4.392,4.487,4.25z M5.595,5.622c-0.071-0.072-0.158-0.128-0.26-0.166
	C5.234,5.416,5.12,5.397,4.995,5.397c-0.124,0-0.236,0.019-0.337,0.058C4.557,5.494,4.471,5.549,4.4,5.622
	C4.329,5.694,4.272,5.782,4.233,5.886C4.194,5.991,4.174,6.107,4.174,6.235c0,0.129,0.02,0.244,0.059,0.347
	C4.272,6.685,4.329,6.773,4.4,6.845C4.471,6.917,4.558,6.972,4.66,7.01c0.103,0.038,0.216,0.056,0.344,0.056
	c0.255,0,0.454-0.073,0.599-0.22c0.146-0.147,0.219-0.35,0.219-0.61c0-0.128-0.021-0.244-0.06-0.349
	C5.722,5.782,5.667,5.694,5.595,5.622z M10,5c0,2.75-2.25,5-5,5S0,7.75,0,5s2.25-5,5-5S10,2.25,10,5z M7,6.32
	c0-0.323-0.084-0.605-0.252-0.844C6.58,5.236,6.352,5.048,6.065,4.912c0.252-0.131,0.45-0.306,0.593-0.525
	c0.145-0.219,0.216-0.471,0.216-0.754c0-0.265-0.046-0.498-0.138-0.7C6.643,2.731,6.514,2.56,6.347,2.421
	C6.181,2.282,5.983,2.177,5.753,2.106C5.525,2.035,5.274,2,4.999,2C4.725,2,4.474,2.035,4.246,2.106
	c-0.23,0.071-0.427,0.176-0.591,0.315C3.489,2.56,3.36,2.731,3.266,2.932c-0.094,0.202-0.141,0.435-0.141,0.7
	c0,0.283,0.071,0.535,0.214,0.754C3.481,4.606,3.678,4.781,3.93,4.912C3.646,5.046,3.42,5.233,3.252,5.473
	C3.084,5.714,3,5.996,3,6.32c0,0.278,0.051,0.521,0.152,0.73s0.241,0.384,0.42,0.525C3.751,7.717,3.963,7.823,4.21,7.894
	C4.454,7.965,4.72,8,5.004,8C5.291,8,5.557,7.965,5.8,7.894c0.244-0.071,0.455-0.177,0.633-0.319C6.61,7.433,6.75,7.258,6.85,7.05
	S7,6.598,7,6.32z"/>
</svg>
