<?xml version="1.0" encoding="utf-8"?>
<!-- Generator: Adobe Illustrator 19.1.1, SVG Export Plug-In . SVG Version: 6.00 Build 0)  -->
<svg version="1.1" id="Windows_x5F_8" xmlns="http://www.w3.org/2000/svg" xmlns:xlink="http://www.w3.org/1999/xlink" x="0px"
	 y="0px" viewBox="0 0 16 16" enable-background="new 0 0 16 16" xml:space="preserve">
<path d="M10.4,0.1c-3,0-5.5,2.5-5.5,5.5c0,0.2,0,0.3,0,0.5l-4.2,4.2C0.2,10.8,0,11.5,0,12.6c0,1.2,0.3,2,0.9,2.6
	C1.4,15.7,2.3,16,3.4,16c0.8,0,1.3-0.1,1.8-0.4h0.2c1,0,1.8-0.6,2.2-1.5c0.6-0.2,1.1-0.7,1.3-1.3c0.6-0.2,1.1-0.7,1.3-1.4l0.1-0.2
	l0-0.3c0,0,0,0,0,0c3,0,5.5-2.5,5.5-5.5C15.9,2.6,13.4,0.1,10.4,0.1z"/>
</svg>
