<?xml version="1.0" encoding="utf-8"?>
<!-- Generator: Adobe Illustrator 19.1.1, SVG Export Plug-In . SVG Version: 6.00 Build 0)  -->
<svg version="1.1" id="Windows_x5F_8" xmlns="http://www.w3.org/2000/svg" xmlns:xlink="http://www.w3.org/1999/xlink" x="0px"
	 y="0px" viewBox="0 0 16 16" enable-background="new 0 0 16 16" xml:space="preserve">
<path d="M6.5,13c0.6,0,1.2-0.1,1.8-0.3c0.1,0.1,0.2,0.2,0.3,0.3l2.1,2.1c0.5,0.5,1.3,0.8,2,0.8c0.8,0,1.5-0.3,2-0.8l0.4-0.4
	c0.5-0.5,0.8-1.3,0.8-2s-0.3-1.5-0.8-2L13,8.6c-0.1-0.1-0.2-0.2-0.3-0.2C12.9,7.7,13,7.1,13,6.5C13,2.9,10.1,0,6.5,0S0,2.9,0,6.5
	S2.9,13,6.5,13z"/>
</svg>
