<?xml version="1.0" encoding="utf-8"?>
<!-- Generator: Adobe Illustrator 19.1.1, SVG Export Plug-In . SVG Version: 6.00 Build 0)  -->
<svg version="1.1" id="Windows_x5F_8" xmlns="http://www.w3.org/2000/svg" xmlns:xlink="http://www.w3.org/1999/xlink" x="0px"
	 y="0px" viewBox="0 0 16 16" enable-background="new 0 0 16 16" xml:space="preserve">
<path d="M0.8,13.5l1.7,1.7C3,15.7,3.7,16,4.4,16c0.8,0,1.5-0.3,2-0.8L8,13.6l1.6,1.6c0.5,0.5,1.2,0.8,2,0.8c0.8,0,1.5-0.3,2-0.8
	l1.7-1.7c1-1,1-2.9,0-3.9L13.6,8l1.6-1.6c0.5-0.5,0.8-1.2,0.8-2c0-0.8-0.3-1.5-0.8-2l-1.7-1.7C13,0.3,12.3,0,11.5,0
	c-0.8,0-1.5,0.3-2,0.8L8,2.4L6.4,0.8C5.9,0.3,5.2,0,4.4,0C3.7,0,3,0.3,2.5,0.8L0.7,2.5c-1,1-1,2.9,0,3.9L2.3,8L0.8,9.6
	C-0.3,10.6-0.3,12.5,0.8,13.5z"/>
</svg>
