<?xml version="1.0" encoding="utf-8"?>
<!-- Generator: Adobe Illustrator 19.1.1, SVG Export Plug-In . SVG Version: 6.00 Build 0)  -->
<svg version="1.1" id="Windows_x5F_8" xmlns="http://www.w3.org/2000/svg" xmlns:xlink="http://www.w3.org/1999/xlink" x="0px"
	 y="0px" viewBox="0 0 16 18" enable-background="new 0 0 16 18" xml:space="preserve">
<path d="M15.4,12.6c-1.2-1.2-1.4-1.8-1.4-2V8.4c0-2.5-1.1-4.6-3-5.7C10.8,1.2,9.6,0,8,0C6.4,0,5.2,1.2,5,2.8C3.1,3.8,2,5.9,2,8.4
	v2.1c0,0.2-0.2,0.8-1.4,2C0,13.1-0.2,14,0.1,14.8C0.5,15.5,1.2,16,2,16h3.2c0.4,1.2,1.5,2,2.8,2s2.4-0.8,2.8-2H14
	c0.8,0,1.5-0.5,1.9-1.2S16,13.1,15.4,12.6z"/>
</svg>
