<?xml version="1.0" encoding="utf-8"?>
<!-- Generator: Adobe Illustrator 19.1.1, SVG Export Plug-In . SVG Version: 6.00 Build 0)  -->
<svg version="1.1" id="Windows_x5F_8" xmlns="http://www.w3.org/2000/svg" xmlns:xlink="http://www.w3.org/1999/xlink" x="0px"
	 y="0px" viewBox="0 0 16 17" enable-background="new 0 0 16 17" xml:space="preserve">
<path d="M14.4,5.8L4.5,0.4l0,0l0,0C4,0.1,3.5,0,3.1,0C2.5,0,1.9,0.2,1.5,0.4C0.5,1,0,2,0,3.1v10.9C0,15,0.6,16,1.5,16.6
	C2,16.9,2.5,17,3.1,17c0.5,0,1-0.1,1.4-0.3l0,0l0,0l9.9-5.4c1-0.5,1.6-1.6,1.6-2.7C16,7.4,15.4,6.3,14.4,5.8z"/>
</svg>
