<?xml version="1.0" encoding="utf-8"?>
<!-- Generator: Adobe Illustrator 19.1.1, SVG Export Plug-In . SVG Version: 6.00 Build 0)  -->
<svg version="1.1" id="Windows_x5F_8" xmlns="http://www.w3.org/2000/svg" xmlns:xlink="http://www.w3.org/1999/xlink" x="0px"
	 y="0px" viewBox="0 0 16 16" enable-background="new 0 0 16 16" xml:space="preserve">
<path d="M0.6,11.9l1.2,1.2l1.1,1.1l1.2,1.2l1.2-0.9L5.5,16h1.7h1.5h1.7l0.3-1.5l1.3,0.9l1.2-1.2l1.1-1.1l1.2-1.2l-0.9-1.2l1.5-0.3
	V8.7V7.2V5.5l-1.5-0.2l0.9-1.2l-1.2-1.2l-1.1-1.1l-1.2-1.2l-1.2,0.9L10.4,0H8.7H7.2H5.5L5.3,1.5L4.1,0.6L2.9,1.8L1.8,2.9L0.6,4.1
	l0.9,1.2L0,5.5v1.7v1.5v1.7l1.5,0.3L0.6,11.9z"/>
</svg>
