<?xml version="1.0" encoding="utf-8"?>
<!-- Generator: Adobe Illustrator 19.1.1, SVG Export Plug-In . SVG Version: 6.00 Build 0)  -->
<svg version="1.1" id="Windows_x5F_8" xmlns="http://www.w3.org/2000/svg" xmlns:xlink="http://www.w3.org/1999/xlink" x="0px"
	 y="0px" viewBox="0 0 16 18" enable-background="new 0 0 16 18" xml:space="preserve">
<path d="M10,2.3V2l0,0v0c0-0.8-0.4-1.5-1.1-1.8C8.6,0.1,8.3,0,8,0C7.6,0,7.2,0.1,6.8,0.4l-4,3C2.3,3.8,2,4.4,2,5
	C1.8,5.1,1.6,5.3,1.4,5.5l0,0L1.3,5.6c0,0,0,0,0,0C0.4,6.9,0,8.4,0,10c0,4.4,3.6,8,8,8c0,0,0,0,0,0s0,0,0,0c4.4,0,8-3.6,8-8
	C16,6.3,13.4,3.1,10,2.3z"/>
</svg>
