<?xml version="1.0" encoding="utf-8"?>
<!-- Generator: Adobe Illustrator 19.1.1, SVG Export Plug-In . SVG Version: 6.00 Build 0)  -->
<svg version="1.1" id="Windows_x5F_8" xmlns="http://www.w3.org/2000/svg" xmlns:xlink="http://www.w3.org/1999/xlink" x="0px"
	 y="0px" viewBox="0 0 16 16" enable-background="new 0 0 16 16" xml:space="preserve">
<path d="M0.6,3.2C0.2,3.6,0,4.1,0,4.7c0,1,0,3.4,1.4,4.8l0.2,0.2c0.9,0.9,2.1,1.4,3.3,1.4c0.4,0,0.8,0,1.1-0.1c0,0,0,0,0,0
	c0.3,0.3,3.5,3.9,3.5,3.9l0,0l0,0c0.7,0.7,1.7,1.1,2.6,1.1c1,0,1.8-0.4,2.6-1.1c1.6-1.6,1.3-3.9,0-5.2l0,0l0,0l-3.9-3.5
	c0.4-1.6,0-3.3-1.3-4.5L9.5,1.5C8.2,0.2,6.2,0,4.8,0L4.6,0C3.8,0,3,0.5,2.7,1.3C2.5,1.7,2.5,2.2,2.6,2.6c-0.1,0-0.3-0.1-0.5-0.1
	C1.5,2.6,1,2.8,0.6,3.2z"/>
</svg>
