<?xml version="1.0" encoding="utf-8"?>
<!-- Generator: Adobe Illustrator 19.1.1, SVG Export Plug-In . SVG Version: 6.00 Build 0)  -->
<svg version="1.1" id="Windows_x5F_8" xmlns="http://www.w3.org/2000/svg" xmlns:xlink="http://www.w3.org/1999/xlink" x="0px"
	 y="0px" viewBox="0 0 16 14" enable-background="new 0 0 16 14" xml:space="preserve">
<path d="M15.3,6.9C16,5.9,16,5.3,16,5.1C16,2.7,11.8,0,8,0C4.2,0,0,2.7,0,5.1C0,5.7,0.2,6.3,0.7,7C0,7.5-0.1,8.4,0.1,9.1
	c0.2,0.6,0.7,1.1,1.4,1.3c0,0,0.1,0,0.2,0.1c-0.1,0.6,0.1,1.3,0.6,1.7c0.4,0.3,0.9,0.5,1.3,0.5c0.2,0,0.4,0,0.6-0.1
	c0.3,0.4,0.7,0.7,1.1,0.8c0.2,0,0.3,0.1,0.5,0.1c0.2,0,0.4,0,0.6-0.1C6.9,13.7,7.4,14,8,14c0,0,0,0,0,0c0.6,0,1.1-0.3,1.5-0.7
	c0.2,0.1,0.5,0.1,0.7,0.1c0.2,0,0.3,0,0.5-0.1c0.5-0.1,0.9-0.4,1.1-0.8c0.2,0.1,0.4,0.1,0.6,0.1c0.5,0,1-0.2,1.3-0.5
	c0.5-0.4,0.7-1.1,0.6-1.7c0.1,0,0.1,0,0.2-0.1c0.6-0.2,1.1-0.6,1.4-1.3C16.2,8.3,16,7.5,15.3,6.9z"/>
</svg>
