<?xml version="1.0" encoding="utf-8"?>
<!-- Generator: Adobe Illustrator 19.1.1, SVG Export Plug-In . SVG Version: 6.00 Build 0)  -->
<svg version="1.1" id="Windows_x5F_8" xmlns="http://www.w3.org/2000/svg" xmlns:xlink="http://www.w3.org/1999/xlink" x="0px"
	 y="0px" viewBox="0 0 16 16" enable-background="new 0 0 16 16" xml:space="preserve">
<path d="M1.5,7.6c-1,1-1.5,2.3-1.5,3.6c0,1.3,0.5,2.5,1.4,3.4C2.3,15.5,3.5,16,4.8,16c0.1,0,0.2,0,0.2,0c1.3-0.1,2.5-0.6,3.4-1.5
	l2.2-2.2l-0.3-0.3c0.7-0.3,1.3-0.7,1.9-1.2l2.3-2.3c1-1,1.5-2.3,1.5-3.6c0-1.3-0.5-2.5-1.4-3.4C13.7,0.5,12.5,0,11.2,0
	c-0.1,0-0.2,0-0.2,0C9.7,0.1,8.5,0.6,7.6,1.5L5.4,3.7l0.3,0.3C5,4.3,4.4,4.7,3.9,5.3L1.5,7.6z"/>
</svg>
