<?xml version="1.0" encoding="utf-8"?>
<!-- Generator: Adobe Illustrator 19.1.1, SVG Export Plug-In . SVG Version: 6.00 Build 0)  -->
<svg version="1.1" id="Windows_x5F_8" xmlns="http://www.w3.org/2000/svg" xmlns:xlink="http://www.w3.org/1999/xlink" x="0px"
	 y="0px" viewBox="0 0 16 16" enable-background="new 0 0 16 16" xml:space="preserve">
<path d="M15.3,2.5L15.3,2.5l-0.1-0.2l-1.4-1.4C13.1,0.3,12.3,0,11.5,0C10.7,0,10,0.3,9.4,0.9L1.9,8.3C1.5,8.7,1.3,9.1,1.2,9.6
	l-1,3.1C0.1,13,0,13.3,0,13.6c0,0.6,0.3,1.2,0.7,1.7c0.5,0.4,1,0.7,1.7,0.7h0.1h0.3l0.3-0.1l3.3-1c0.6-0.1,0.9-0.4,1.2-0.6l7.5-7.7
	C16.2,5.5,16.3,3.7,15.3,2.5z"/>
</svg>
