<?xml version="1.0" encoding="utf-8"?>
<!-- Generator: Adobe Illustrator 19.1.1, SVG Export Plug-In . SVG Version: 6.00 Build 0)  -->
<svg version="1.1" id="Windows_x5F_8" xmlns="http://www.w3.org/2000/svg" xmlns:xlink="http://www.w3.org/1999/xlink" x="0px"
	 y="0px" viewBox="0 0 18 16" enable-background="new 0 0 18 16" xml:space="preserve">
<path d="M3.1,16h11.9c1.1,0,2.1-0.6,2.6-1.5c0.3-0.5,0.5-1.1,0.5-1.6c0-0.5-0.1-1-0.3-1.4l0-0.1l0-0.1l-5.9-9.8C11.2,0.6,10.1,0,9,0
	l0,0C7.9,0,6.8,0.6,6.3,1.6l-5.9,9.8l0,0.1l0,0.1c-0.5,0.9-0.4,2.1,0.1,3C1,15.5,2,16,3.1,16z"/>
</svg>
