<?xml version="1.0" encoding="utf-8"?>
<!-- Generator: Adobe Illustrator 19.1.1, SVG Export Plug-In . SVG Version: 6.00 Build 0)  -->
<svg version="1.1" id="Windows_x5F_8" xmlns="http://www.w3.org/2000/svg" xmlns:xlink="http://www.w3.org/1999/xlink" x="0px"
	 y="0px" viewBox="0 0 16 16" enable-background="new 0 0 16 16" xml:space="preserve">
<path d="M15.3,3.7l-3-3c-0.4-0.4-1-0.7-1.6-0.7c-0.8,0-1.5,0.4-2,1c0,0,0,0-0.1,0.1L7.1,3.2c0,0-0.1,0-0.1,0c-1.5,0-3,0.6-4.1,1.7
	c-0.8,0.8-0.8,2,0,2.8l0.8,0.8l-3.3,4.3c-0.6,0.8-0.5,1.9,0.2,2.6C1,15.8,1.5,16,2,16c0.4,0,0.9-0.1,1.2-0.4l4.3-3.3l0.8,0.8
	c0.4,0.4,0.9,0.6,1.4,0.6c0,0,0,0,0,0c0.5,0,1-0.2,1.4-0.6c1.1-1.1,1.7-2.6,1.7-4.2l2.1-1.4c0,0,0,0,0.1,0c0.6-0.5,1-1.2,1.1-1.9
	C16,4.8,15.8,4.2,15.3,3.7z"/>
</svg>
