<?xml version="1.0" encoding="utf-8"?>
<!-- Generator: Adobe Illustrator 19.1.1, SVG Export Plug-In . SVG Version: 6.00 Build 0)  -->
<svg version="1.1" id="Windows_x5F_8" xmlns="http://www.w3.org/2000/svg" xmlns:xlink="http://www.w3.org/1999/xlink" x="0px"
	 y="0px" viewBox="0 0 16 16" enable-background="new 0 0 16 16" xml:space="preserve">
<path d="M14,3.8L14,3.8l-0.2,0l-2.1-0.3l-0.9-1.8C10.3,0.7,9.2,0,8,0C6.8,0,5.7,0.7,5.2,1.7L4.3,3.5L2.2,3.8l-0.1,0L2,3.8
	C0.7,4.1-0.1,4.9-0.4,6c-0.3,1.2,0.1,2.4,1,3.1L2,10.4l-0.3,1.9c-0.3,1.2,0.3,2.5,1.3,3.1C3.5,15.8,4.1,16,4.8,16
	c0.5,0,0.9-0.1,1.4-0.3l0,0l0,0l1.9-1l1.8,0.9c0.6,0.4,1.3,0.4,1.6,0.4c1.8,0,3.1-1.3,3.1-3c0-0.3,0-0.6-0.2-1l-0.3-1.5L15.6,9
	l0.1-0.1l0.1-0.2c0.6-0.8,0.8-1.9,0.5-2.8C16.1,4.9,15.2,4.1,14,3.8z"/>
</svg>
