<?xml version="1.0" encoding="utf-8"?>
<!-- Generator: Adobe Illustrator 19.1.1, SVG Export Plug-In . SVG Version: 6.00 Build 0)  -->
<svg version="1.1" id="Windows_x5F_8" xmlns="http://www.w3.org/2000/svg" xmlns:xlink="http://www.w3.org/1999/xlink" x="0px"
	 y="0px" viewBox="0 0 14 16" enable-background="new 0 0 14 16" xml:space="preserve">
<path d="M10.2,1.4C9.9,1.1,9.5,0.9,9.2,0.7l-0.1,0C8.4,0.4,8,0.1,7.4,0l0,0l0,0C7.2,0,7.1,0,7,0C6.9,0,6.7,0,6.6,0l0,0l0,0
	C6,0.1,5.5,0.4,4.9,0.7l0,0l0,0C4.5,0.9,4.1,1.1,3.8,1.4C3.4,1.6,2.7,2.1,2.4,2.1C1.7,2.2,1.1,2.5,0.6,3C0.2,3.5,0,4.1,0,4.8
	c0.3,5.2,2.1,8.8,5.8,10.9C6.2,15.9,6.6,16,7,16c0.4,0,0.8-0.1,1.2-0.3c3.6-2.1,5.5-5.7,5.8-10.9c0-0.7-0.2-1.3-0.6-1.8
	c-0.4-0.5-1.1-0.8-1.8-0.8C11.3,2.1,10.6,1.6,10.2,1.4z"/>
</svg>
