<?xml version="1.0" encoding="utf-8"?>
<!-- Generator: Adobe Illustrator 19.1.1, SVG Export Plug-In . SVG Version: 6.00 Build 0)  -->
<svg version="1.1" id="Windows_x5F_8" xmlns="http://www.w3.org/2000/svg" xmlns:xlink="http://www.w3.org/1999/xlink" x="0px"
	 y="0px" viewBox="0 0 16 16" enable-background="new 0 0 16 16" xml:space="preserve">
<path d="M13,4h-1V3c0-1.7-1.3-3-3-3H7C5.3,0,4,1.3,4,3v1H3C1.3,4,0,5.3,0,7v2c0,1.7,1.3,3,3,3h1v1c0,1.7,1.3,3,3,3h2
	c1.7,0,3-1.3,3-3v-1h1c1.7,0,3-1.3,3-3V7C16,5.3,14.7,4,13,4z"/>
</svg>
