<?xml version="1.0" encoding="utf-8"?>
<!-- Generator: Adobe Illustrator 19.1.1, SVG Export Plug-In . SVG Version: 6.00 Build 0)  -->
<svg version="1.1" id="Windows_x5F_8" xmlns="http://www.w3.org/2000/svg" xmlns:xlink="http://www.w3.org/1999/xlink" x="0px"
	 y="0px" viewBox="0 0 16 16" enable-background="new 0 0 16 16" xml:space="preserve">
<path d="M12.5,6.5c-0.1,0-0.1,0-0.2,0c-0.1-0.3-0.1-0.5-0.1-0.7l0-0.1l0-0.1c-0.1-0.4-0.5-1.4-1.8-1.9l-0.2-0.1l-0.2,0
	c-0.2,0-0.4-0.1-0.6-0.1c0-0.1,0-0.1,0-0.2C9.5,1.5,8,0,6.1,0C4.2,0,2.7,1.5,2.7,3.4c0,0.1,0,0.1,0,0.2C2.4,3.6,2.2,3.7,2,3.7
	C0.8,3.9,0,5.1,0,6.2v2.6v0.1v0.2l0,0.2c0,0.2,0.1,0.4,0.2,0.5C0.1,10,0.1,10.1,0,10.3l0,0.2v0.2v0.1v2.7C0,14.9,1.1,16,2.5,16h7.3
	c0.5,0,1.8-0.2,2.4-1.9l0-0.1l0-0.1c0-0.2,0.1-0.4,0.1-0.6c0.1,0,0.1,0,0.2,0c1.9,0,3.4-1.5,3.4-3.4V9.7l0-0.1
	C15.7,7.8,14.2,6.5,12.5,6.5z"/>
</svg>
