<?xml version="1.0" encoding="utf-8"?>
<!-- Generator: Adobe Illustrator 19.1.1, SVG Export Plug-In . SVG Version: 6.00 Build 0)  -->
<svg version="1.1" id="Windows_x5F_8" xmlns="http://www.w3.org/2000/svg" xmlns:xlink="http://www.w3.org/1999/xlink" x="0px"
	 y="0px" viewBox="0 0 19 16" enable-background="new 0 0 19 16" xml:space="preserve">
<path d="M18.6,1H14h-1.8c-1.4,0-2.7,0.5-3.7,1.4C7.7,1,6.2,0,4.5,0C2,0,0,2,0,4.5C0,5.9,0.7,7.2,1.7,8C0.7,8.8,0,10.1,0,11.5
	C0,14,2,16,4.5,16c1.7,0,3.2-1,4-2.4c1,0.9,2.3,1.4,3.7,1.4H14h4.6l-3.1-3.4L12.1,8l3.4-3.6L18.6,1z"/>
</svg>
