<?xml version="1.0" encoding="utf-8"?>
<!-- Generator: Adobe Illustrator 19.1.1, SVG Export Plug-In . SVG Version: 6.00 Build 0)  -->
<svg version="1.1" id="Windows_x5F_8" xmlns="http://www.w3.org/2000/svg" xmlns:xlink="http://www.w3.org/1999/xlink" x="0px"
	 y="0px" viewBox="0 0 16 16" enable-background="new 0 0 16 16" xml:space="preserve">
<path d="M12.7,4.4l-0.1-0.1l-0.1-0.1c-0.2-0.1-0.4-0.2-0.5-0.2c0-0.2-0.1-0.4-0.2-0.5l-0.1-0.1l-0.1-0.1c-1-1.4-1.7-2.4-2-2.6
	C9.5,0.5,8.9,0,8,0C7.3,0,6.8,0.2,6.3,0.6c-0.3,0.3-1,1.3-2,2.6L4.3,3.4L4.3,3.5C4.2,3.7,4.1,3.9,4.1,4.1c-0.2,0-0.4,0.1-0.6,0.2
	L3.4,4.3L3.3,4.4C1.9,5.3,0.9,6.1,0.6,6.3C0.2,6.8,0,7.3,0,8c0,0.9,0.5,1.5,0.7,1.7c0.2,0.2,1.2,1,2.6,2l0.1,0.1l0.1,0.1
	c0.2,0.1,0.3,0.1,0.5,0.2c0,0.2,0.1,0.4,0.2,0.5l0.1,0.1l0.1,0.1c0.2,0.2,1.6,2.3,2,2.7C7,16,7.7,16,8,16c0.3,0,1,0,1.7-0.6
	c0.3-0.3,1.1-1.4,1.9-2.7c0.2-0.2,0.3-0.5,0.3-0.8c0.3-0.1,0.6-0.2,0.8-0.4c1.2-0.8,2.4-1.6,2.7-1.9C16,9,16,8.2,16,8s0-1-0.6-1.7
	C15,5.9,12.9,4.5,12.7,4.4z"/>
</svg>
