<?xml version="1.0" encoding="utf-8"?>
<!-- Generator: Adobe Illustrator 19.1.1, SVG Export Plug-In . SVG Version: 6.00 Build 0)  -->
<svg version="1.1" id="Windows_x5F_8" xmlns="http://www.w3.org/2000/svg" xmlns:xlink="http://www.w3.org/1999/xlink" x="0px"
	 y="0px" viewBox="0 0 16 15" enable-background="new 0 0 16 15" xml:space="preserve">
<path d="M4.2,14.2c0.6,0.6,1.4,0.9,2.2,0.9c0.9,0,1.8-0.5,2.3-1.3l6.8-9l0,0l0,0c0.8-1.2,0.5-2.8-0.7-3.6l-1-0.7
	C13.4,0.1,12.9,0,12.4,0c-0.8,0-1.6,0.4-2.1,1.1L5.9,6.8L5.3,6.2C4.8,5.7,4.1,5.4,3.4,5.4c-0.7,0-1.3,0.3-1.8,0.7L0.8,7.1
	c-1,1-1,2.7,0,3.7L4.2,14.2z"/>
</svg>
