<?xml version="1.0" encoding="utf-8"?>
<!-- Generator: Adobe Illustrator 19.1.1, SVG Export Plug-In . SVG Version: 6.00 Build 0)  -->
<svg version="1.1" id="Windows_x5F_8" xmlns="http://www.w3.org/2000/svg" xmlns:xlink="http://www.w3.org/1999/xlink" x="0px"
	 y="0px" viewBox="0 0 14 16" enable-background="new 0 0 14 16" xml:space="preserve">
<path d="M14,3.4V2V0h-2h-0.9H9.9H4.1H2.9H2H0v2v1.4c0,1.1,0.7,2.1,1.7,2.5C2.1,6.8,2.6,7.5,3.1,8c-0.4,0.5-0.9,1.2-1.3,2.1
	c-1,0.4-1.8,1.3-1.8,2.5V14v2h2h10h2v-2v-1.4c0-1.1-0.7-2.1-1.8-2.5c-0.4-0.9-0.9-1.6-1.3-2.1c0.4-0.6,0.9-1.3,1.3-2.2
	C13.3,5.5,14,4.5,14,3.4z"/>
</svg>
