<?xml version="1.0" encoding="utf-8"?>
<!-- Generator: Adobe Illustrator 19.1.1, SVG Export Plug-In . SVG Version: 6.00 Build 0)  -->
<svg version="1.1" id="Windows_x5F_8" xmlns="http://www.w3.org/2000/svg" xmlns:xlink="http://www.w3.org/1999/xlink" x="0px"
	 y="0px" viewBox="0 0 16 16" enable-background="new 0 0 16 16" xml:space="preserve">
<path d="M14,2.5C13.8,1.1,12.6,0,11,0C9.7,0,8.6,0.8,8.2,2H7.9C7.5,0.8,6.4,0,5,0c-1.5,0-2.7,1-3,2.5C0.8,3.2,0,4.5,0,6v6
	C0,13,0.4,14,1.2,14.8C1.9,15.6,2.9,16,4,16h8c2.2,0,4-1.8,4-4V6C16,4.5,15.2,3.2,14,2.5z"/>
</svg>
