<?xml version="1.0" encoding="utf-8"?>
<!-- Generator: Adobe Illustrator 19.1.1, SVG Export Plug-In . SVG Version: 6.00 Build 0)  -->
<svg version="1.1" id="Windows_x5F_8" xmlns="http://www.w3.org/2000/svg" xmlns:xlink="http://www.w3.org/1999/xlink" x="0px"
	 y="0px" viewBox="0 0 17 15" enable-background="new 0 0 17 15" xml:space="preserve">
<path d="M11.4,0c-1.1,0-2.1,0.4-2.9,0.9C7.7,0.4,6.7,0,5.6,0C2.4,0,0,2.3,0,5.5c0,3.2,2.4,5.2,4.4,6.7c0.8,0.6,1.6,1.3,2.1,1.9l0,0
	l0,0C7.1,14.7,7.8,15,8.5,15c0.8,0,1.5-0.3,2-0.8l0,0l0,0c0.5-0.6,1.3-1.2,2.1-1.9c2-1.6,4.4-3.5,4.4-6.7C17,2.3,14.6,0,11.4,0z"/>
</svg>
