<?xml version="1.0" encoding="utf-8"?>
<!-- Generator: Adobe Illustrator 19.1.1, SVG Export Plug-In . SVG Version: 6.00 Build 0)  -->
<svg version="1.1" id="Windows_x5F_8" xmlns="http://www.w3.org/2000/svg" xmlns:xlink="http://www.w3.org/1999/xlink" x="0px"
	 y="0px" viewBox="0 0 16 15" enable-background="new 0 0 16 15" xml:space="preserve">
<path d="M1.5,7.6c0,0.7,0.3,1.4,0.9,1.9C2.6,9.7,2.8,9.9,3,10c0,0.8,0.4,1.5,1,2c0.3,0.3,0.7,0.5,1.1,0.6C5.4,14,6.6,15,8,15
	c1.4,0,2.6-1,2.9-2.4c0.3-0.1,0.6-0.3,0.9-0.6c0.6-0.5,0.9-1.2,1-1.9c0.3-0.1,0.5-0.3,0.8-0.6c0.5-0.5,0.8-1.2,0.9-1.9
	c0.3-0.1,0.5-0.3,0.7-0.5C15.7,6.5,16,5.8,16,5c0-0.8-0.3-1.5-0.9-2.1C13.1,1,10.7,0,8,0S2.9,1,0.9,2.9C0.3,3.4,0,4.2,0,5
	c0,0.8,0.3,1.6,0.8,2.1C1,7.3,1.3,7.5,1.5,7.6z"/>
</svg>
