<?xml version="1.0" encoding="utf-8"?>
<!-- Generator: Adobe Illustrator 19.1.1, SVG Export Plug-In . SVG Version: 6.00 Build 0)  -->
<svg version="1.1" id="Windows_x5F_8" xmlns="http://www.w3.org/2000/svg" xmlns:xlink="http://www.w3.org/1999/xlink" x="0px"
	 y="0px" viewBox="0 0 16 15" enable-background="new 0 0 16 15" xml:space="preserve">
<path d="M15.3,4.3c0,0-0.1-0.1-0.1-0.1l-4.1-3.5C10.6,0.2,10,0,9.4,0C9.1,0,8.8,0.1,8.5,0.2C7.7,0.5,7.1,1.3,7,2.1
	C2.3,2.9,0,6.5,0,13c0,1,0.7,1.8,1.7,2c0.1,0,0.2,0,0.3,0c0.9,0,1.7-0.6,1.9-1.5C4.7,10.8,5.3,10.2,7,10c0.2,0.8,0.7,1.4,1.4,1.8
	C8.8,11.9,9.1,12,9.4,12c0.6,0,1.2-0.2,1.7-0.6l4.1-3.5c0,0,0.1-0.1,0.1-0.1C15.7,7.3,16,6.7,16,6C16,5.3,15.7,4.7,15.3,4.3z"/>
</svg>
